<svg xmlns="http://www.w3.org/2000/svg" width="269" height="227" fill="none" viewBox="0 0 269 227"><path stroke="#A9DED9" stroke-linecap="round" stroke-linejoin="round" stroke-width="8" d="M4.5 28.9961C4.5 15.7413 15.2452 4.99609 28.5 4.99609H240.5C253.755 4.99609 264.5 15.7413 264.5 28.9961V198.996C264.5 212.251 253.755 222.996 240.5 222.996H28.5C15.2452 222.996 4.5 212.251 4.5 198.996V28.9961Z"/><path stroke="#EC9D89" stroke-linecap="round" stroke-linejoin="round" stroke-width="8" d="M264.5 68.4316V36.7138V28.9961C264.5 15.7413 253.755 4.99609 240.5 4.99609H232H199.5M4.5 113.996V86.7461V59.4961M134.5 222.996H167H199.5H232"/><path fill="#EC9D89" d="M64.3078 128.477V121.677C62.3585 121.45 60.2731 120.929 58.0518 120.113C55.8758 119.252 53.9265 118.05 52.2038 116.509L57.2358 108.621C59.0945 109.981 60.7491 110.956 62.1998 111.545C63.6958 112.134 65.1691 112.429 66.6198 112.429C68.3425 112.429 69.5665 112.134 70.2918 111.545C71.0171 110.91 71.3798 109.936 71.3798 108.621C71.3798 107.714 70.9491 106.921 70.0878 106.241C69.2265 105.516 68.1385 104.813 66.8238 104.133C65.5091 103.453 64.1038 102.75 62.6078 102.025C61.1118 101.254 59.7065 100.348 58.3918 99.3051C57.0771 98.2624 55.9891 97.0384 55.1278 95.6331C54.2665 94.2277 53.8358 92.5277 53.8358 90.5331C53.8358 87.0877 54.7425 84.2317 56.5558 81.9651C58.4145 79.6984 60.9985 78.2024 64.3078 77.4771V70.4051H71.9238V77.3411C74.0998 77.7037 76.0038 78.3837 77.6358 79.3811C79.3131 80.3784 80.8318 81.6024 82.1918 83.0531L76.4118 89.7171C75.1878 88.6291 74.0091 87.8131 72.8758 87.2691C71.7878 86.7251 70.6091 86.4531 69.3398 86.4531C67.8891 86.4531 66.8011 86.7024 66.0758 87.2011C65.3505 87.6997 64.9878 88.6291 64.9878 89.9891C64.9878 90.8504 65.4185 91.5984 66.2798 92.2331C67.1411 92.8677 68.2291 93.5024 69.5438 94.1371C70.8585 94.7717 72.2638 95.4517 73.7598 96.1771C75.2558 96.9024 76.6611 97.7864 77.9758 98.8291C79.2905 99.8717 80.3785 101.118 81.2398 102.569C82.1011 104.02 82.5318 105.765 82.5318 107.805C82.5318 111.114 81.6478 113.97 79.8798 116.373C78.1571 118.776 75.5051 120.408 71.9238 121.269V128.477H64.3078ZM110.142 121.813C106.606 121.813 103.569 121.269 101.03 120.181C98.4918 119.093 96.4065 117.597 94.7745 115.693L100.078 108.349C101.393 109.573 102.798 110.57 104.294 111.341C105.836 112.066 107.377 112.429 108.918 112.429C110.822 112.429 112.341 112.089 113.474 111.409C114.608 110.729 115.174 109.709 115.174 108.349C115.174 107.533 115.038 106.808 114.766 106.173C114.494 105.538 113.973 104.994 113.202 104.541C112.432 104.088 111.344 103.748 109.938 103.521C108.533 103.294 106.697 103.181 104.43 103.181V95.0211C106.244 95.0211 107.74 94.9077 108.918 94.6811C110.142 94.4544 111.117 94.1371 111.842 93.7291C112.568 93.2757 113.066 92.7544 113.338 92.1651C113.656 91.5757 113.814 90.8957 113.814 90.1251C113.814 87.4957 112.318 86.1811 109.326 86.1811C107.876 86.1811 106.584 86.4757 105.45 87.0651C104.317 87.6544 103.07 88.5384 101.71 89.7171L95.8625 82.6451C97.9931 80.8771 100.192 79.5171 102.458 78.5651C104.725 77.5677 107.196 77.0691 109.87 77.0691C114.63 77.0691 118.416 78.1344 121.226 80.2651C124.082 82.3504 125.51 85.3424 125.51 89.2411C125.51 93.4117 123.198 96.5171 118.574 98.5571V98.8291C121.022 99.5997 123.017 100.846 124.558 102.569C126.1 104.246 126.87 106.445 126.87 109.165C126.87 111.205 126.417 113.018 125.51 114.605C124.604 116.146 123.38 117.461 121.838 118.549C120.342 119.637 118.574 120.453 116.534 120.997C114.494 121.541 112.364 121.813 110.142 121.813ZM155.297 121.813C152.894 121.813 150.718 121.337 148.769 120.385C146.82 119.388 145.12 117.937 143.669 116.033C142.264 114.129 141.176 111.772 140.405 108.961C139.634 106.15 139.249 102.909 139.249 99.2371C139.249 95.5651 139.634 92.3464 140.405 89.5811C141.176 86.7704 142.264 84.4584 143.669 82.6451C145.12 80.7864 146.82 79.4037 148.769 78.4971C150.718 77.5451 152.894 77.0691 155.297 77.0691C157.654 77.0691 159.808 77.5451 161.757 78.4971C163.752 79.4037 165.452 80.7864 166.857 82.6451C168.308 84.5037 169.418 86.8157 170.189 89.5811C170.96 92.3464 171.345 95.5651 171.345 99.2371C171.345 102.909 170.96 106.15 170.189 108.961C169.418 111.772 168.308 114.129 166.857 116.033C165.452 117.937 163.752 119.388 161.757 120.385C159.808 121.337 157.654 121.813 155.297 121.813ZM155.297 112.837C155.977 112.837 156.612 112.678 157.201 112.361C157.836 111.998 158.38 111.318 158.833 110.321C159.286 109.324 159.649 107.941 159.921 106.173C160.193 104.405 160.329 102.093 160.329 99.2371C160.329 96.3811 160.193 94.0917 159.921 92.3691C159.649 90.6464 159.286 89.3091 158.833 88.3571C158.38 87.4051 157.836 86.7931 157.201 86.5211C156.612 86.2037 155.977 86.0451 155.297 86.0451C154.617 86.0451 153.96 86.2037 153.325 86.5211C152.736 86.7931 152.214 87.4051 151.761 88.3571C151.308 89.3091 150.945 90.6464 150.673 92.3691C150.401 94.0917 150.265 96.3811 150.265 99.2371C150.265 102.093 150.401 104.405 150.673 106.173C150.945 107.941 151.308 109.324 151.761 110.321C152.214 111.318 152.736 111.998 153.325 112.361C153.96 112.678 154.617 112.837 155.297 112.837ZM184.404 120.997V73.6691H195.828V98.8291H196.1L205.484 86.9971H218.132L206.028 101.141L218.812 120.997H206.164L199.364 108.893L195.828 112.837V120.997H184.404Z"/><path fill="#A9DED9" d="M75.6379 165.997V149.045H79.4599V165.997H75.6379ZM84.7582 165.997V149.045H88.6842L93.1043 157.469L94.7682 161.213H94.8722C94.7856 160.312 94.6816 159.306 94.5603 158.197C94.4562 157.088 94.4042 156.03 94.4042 155.025V149.045H98.0442V165.997H94.1182L89.6982 157.547L88.0342 153.855H87.9302C88.0169 154.791 88.1122 155.796 88.2162 156.871C88.3376 157.946 88.3982 158.986 88.3982 159.991V165.997H84.7582ZM109.854 165.997V149.045H115.678C116.614 149.045 117.49 149.14 118.304 149.331C119.119 149.504 119.83 149.808 120.436 150.241C121.043 150.657 121.52 151.22 121.866 151.931C122.23 152.624 122.412 153.482 122.412 154.505C122.412 155.493 122.23 156.351 121.866 157.079C121.52 157.807 121.043 158.405 120.436 158.873C119.83 159.341 119.128 159.688 118.33 159.913C117.533 160.138 116.684 160.251 115.782 160.251H113.676V165.997H109.854ZM113.676 157.209H115.548C117.628 157.209 118.668 156.308 118.668 154.505C118.668 153.621 118.391 152.997 117.836 152.633C117.282 152.269 116.484 152.087 115.444 152.087H113.676V157.209ZM126.643 165.997V149.045H132.753C133.654 149.045 134.495 149.132 135.275 149.305C136.072 149.478 136.765 149.773 137.355 150.189C137.944 150.588 138.412 151.125 138.759 151.801C139.105 152.477 139.279 153.318 139.279 154.323C139.279 155.571 139.001 156.602 138.447 157.417C137.909 158.214 137.181 158.812 136.263 159.211L140.111 165.997H135.821L132.571 159.887H130.465V165.997H126.643ZM130.465 156.845H132.441C133.446 156.845 134.209 156.637 134.729 156.221C135.266 155.788 135.535 155.155 135.535 154.323C135.535 153.491 135.266 152.91 134.729 152.581C134.209 152.252 133.446 152.087 132.441 152.087H130.465V156.845ZM143.888 165.997V149.045H147.71V165.997H143.888ZM151.942 165.997V163.683L159.43 152.269H152.644V149.045H164.136V151.359L156.648 162.773H164.214V165.997H151.942ZM168.375 165.997V149.045H178.983V152.269H172.197V155.675H177.969V158.873H172.197V162.773H179.243V165.997H168.375ZM189.093 166.309C187.983 166.309 186.874 166.11 185.765 165.711C184.673 165.295 183.693 164.68 182.827 163.865L185.011 161.239C185.617 161.759 186.285 162.184 187.013 162.513C187.758 162.842 188.486 163.007 189.197 163.007C189.994 163.007 190.583 162.86 190.965 162.565C191.363 162.27 191.563 161.872 191.563 161.369C191.563 161.109 191.502 160.884 191.381 160.693C191.277 160.502 191.112 160.338 190.887 160.199C190.679 160.043 190.419 159.904 190.107 159.783C189.812 159.644 189.483 159.497 189.119 159.341L186.909 158.405C186.475 158.232 186.051 158.006 185.635 157.729C185.236 157.452 184.872 157.131 184.543 156.767C184.231 156.386 183.979 155.952 183.789 155.467C183.598 154.964 183.503 154.401 183.503 153.777C183.503 153.084 183.65 152.434 183.945 151.827C184.239 151.203 184.655 150.666 185.193 150.215C185.73 149.747 186.363 149.383 187.091 149.123C187.836 148.863 188.651 148.733 189.535 148.733C190.523 148.733 191.493 148.924 192.447 149.305C193.417 149.686 194.267 150.241 194.995 150.969L193.045 153.387C192.49 152.954 191.935 152.624 191.381 152.399C190.826 152.156 190.211 152.035 189.535 152.035C188.876 152.035 188.347 152.174 187.949 152.451C187.567 152.711 187.377 153.084 187.377 153.569C187.377 153.829 187.437 154.054 187.559 154.245C187.697 154.418 187.879 154.583 188.105 154.739C188.347 154.878 188.625 155.016 188.937 155.155C189.249 155.276 189.587 155.415 189.951 155.571L192.135 156.455C193.175 156.871 193.989 157.443 194.579 158.171C195.185 158.899 195.489 159.861 195.489 161.057C195.489 161.768 195.341 162.444 195.047 163.085C194.769 163.709 194.353 164.264 193.799 164.749C193.261 165.217 192.594 165.598 191.797 165.893C190.999 166.17 190.098 166.309 189.093 166.309Z"/></svg>