<svg xmlns="http://www.w3.org/2000/svg" width="268" height="227" fill="none" viewBox="0 0 268 227"><path fill="#EDBA4B" d="M70.0747 120.997V111.341H51.7147V103.181L66.4027 77.8851H80.9547V102.501H85.5787V111.341H80.9547V120.997H70.0747ZM62.7307 102.501H70.0747V97.6051C70.0747 96.8797 70.0747 96.0864 70.0747 95.2251C70.12 94.3184 70.1654 93.4117 70.2107 92.5051C70.256 91.5984 70.3014 90.7144 70.3467 89.8531C70.392 88.9464 70.4374 88.1304 70.4827 87.4051H70.2107C69.6667 88.7197 69.1 90.0117 68.5107 91.2811C67.9214 92.5504 67.3094 93.8424 66.6747 95.1571L62.7307 102.501ZM112.237 121.813C109.835 121.813 107.659 121.337 105.709 120.385C103.76 119.388 102.06 117.937 100.609 116.033C99.204 114.129 98.116 111.772 97.3453 108.961C96.5747 106.15 96.1893 102.909 96.1893 99.2371C96.1893 95.5651 96.5747 92.3464 97.3453 89.5811C98.116 86.7704 99.204 84.4584 100.609 82.6451C102.06 80.7864 103.76 79.4037 105.709 78.4971C107.659 77.5451 109.835 77.0691 112.237 77.0691C114.595 77.0691 116.748 77.5451 118.697 78.4971C120.692 79.4037 122.392 80.7864 123.797 82.6451C125.248 84.5037 126.359 86.8157 127.129 89.5811C127.9 92.3464 128.285 95.5651 128.285 99.2371C128.285 102.909 127.9 106.15 127.129 108.961C126.359 111.772 125.248 114.129 123.797 116.033C122.392 117.937 120.692 119.388 118.697 120.385C116.748 121.337 114.595 121.813 112.237 121.813ZM112.237 112.837C112.917 112.837 113.552 112.678 114.141 112.361C114.776 111.998 115.32 111.318 115.773 110.321C116.227 109.324 116.589 107.941 116.861 106.173C117.133 104.405 117.269 102.093 117.269 99.2371C117.269 96.3811 117.133 94.0917 116.861 92.3691C116.589 90.6464 116.227 89.3091 115.773 88.3571C115.32 87.4051 114.776 86.7931 114.141 86.5211C113.552 86.2037 112.917 86.0451 112.237 86.0451C111.557 86.0451 110.9 86.2037 110.265 86.5211C109.676 86.7931 109.155 87.4051 108.701 88.3571C108.248 89.3091 107.885 90.6464 107.613 92.3691C107.341 94.0917 107.205 96.3811 107.205 99.2371C107.205 102.093 107.341 104.405 107.613 106.173C107.885 107.941 108.248 109.324 108.701 110.321C109.155 111.318 109.676 111.998 110.265 112.361C110.9 112.678 111.557 112.837 112.237 112.837ZM155.76 121.813C153.357 121.813 151.181 121.337 149.232 120.385C147.283 119.388 145.583 117.937 144.132 116.033C142.727 114.129 141.639 111.772 140.868 108.961C140.097 106.15 139.712 102.909 139.712 99.2371C139.712 95.5651 140.097 92.3464 140.868 89.5811C141.639 86.7704 142.727 84.4584 144.132 82.6451C145.583 80.7864 147.283 79.4037 149.232 78.4971C151.181 77.5451 153.357 77.0691 155.76 77.0691C158.117 77.0691 160.271 77.5451 162.22 78.4971C164.215 79.4037 165.915 80.7864 167.32 82.6451C168.771 84.5037 169.881 86.8157 170.652 89.5811C171.423 92.3464 171.808 95.5651 171.808 99.2371C171.808 102.909 171.423 106.15 170.652 108.961C169.881 111.772 168.771 114.129 167.32 116.033C165.915 117.937 164.215 119.388 162.22 120.385C160.271 121.337 158.117 121.813 155.76 121.813ZM155.76 112.837C156.44 112.837 157.075 112.678 157.664 112.361C158.299 111.998 158.843 111.318 159.296 110.321C159.749 109.324 160.112 107.941 160.384 106.173C160.656 104.405 160.792 102.093 160.792 99.2371C160.792 96.3811 160.656 94.0917 160.384 92.3691C160.112 90.6464 159.749 89.3091 159.296 88.3571C158.843 87.4051 158.299 86.7931 157.664 86.5211C157.075 86.2037 156.44 86.0451 155.76 86.0451C155.08 86.0451 154.423 86.2037 153.788 86.5211C153.199 86.7931 152.677 87.4051 152.224 88.3571C151.771 89.3091 151.408 90.6464 151.136 92.3691C150.864 94.0917 150.728 96.3811 150.728 99.2371C150.728 102.093 150.864 104.405 151.136 106.173C151.408 107.941 151.771 109.324 152.224 110.321C152.677 111.318 153.199 111.998 153.788 112.361C154.423 112.678 155.08 112.837 155.76 112.837ZM195.067 114.877V102.637H183.235V94.4771H195.067V82.2371H203.499V94.4771H215.331V102.637H203.499V114.877H195.067Z"/><path fill="#A9DED9" d="M78.3247 165.997V149.045H82.1467V155.571H87.9967V149.045H91.8447V165.997H87.9967V158.925H82.1467V165.997H78.3247ZM101.122 157.417L100.706 158.977H104.32L103.93 157.417C103.688 156.568 103.454 155.666 103.228 154.713C103.003 153.76 102.778 152.841 102.552 151.957H102.448C102.24 152.858 102.024 153.786 101.798 154.739C101.59 155.675 101.365 156.568 101.122 157.417ZM94.9862 165.997L100.29 149.045H104.892L110.196 165.997H106.14L105.1 161.967H99.9262L98.8862 165.997H94.9862ZM120.167 166.309C119.092 166.309 118.078 166.127 117.125 165.763C116.171 165.382 115.331 164.827 114.603 164.099C113.892 163.371 113.329 162.47 112.913 161.395C112.497 160.303 112.289 159.046 112.289 157.625C112.289 156.221 112.505 154.973 112.939 153.881C113.372 152.772 113.953 151.836 114.681 151.073C115.409 150.31 116.258 149.73 117.229 149.331C118.199 148.932 119.222 148.733 120.297 148.733C121.389 148.733 122.368 148.958 123.235 149.409C124.101 149.842 124.821 150.354 125.393 150.943L123.365 153.387C122.931 152.988 122.472 152.668 121.987 152.425C121.519 152.165 120.981 152.035 120.375 152.035C119.803 152.035 119.257 152.165 118.737 152.425C118.234 152.668 117.792 153.023 117.411 153.491C117.047 153.959 116.752 154.531 116.527 155.207C116.319 155.883 116.215 156.646 116.215 157.495C116.215 159.246 116.587 160.606 117.333 161.577C118.078 162.53 119.075 163.007 120.323 163.007C121.016 163.007 121.631 162.86 122.169 162.565C122.723 162.253 123.209 161.872 123.625 161.421L125.653 163.813C124.231 165.477 122.403 166.309 120.167 166.309ZM129.527 165.997V149.045H133.349V155.987H133.453L138.497 149.045H142.709L137.587 155.805L143.645 165.997H139.459L135.325 158.847L133.349 161.447V165.997H129.527ZM146.798 165.997V149.045H157.406V152.269H150.62V155.675H156.392V158.873H150.62V162.773H157.666V165.997H146.798ZM162.342 165.997V149.045H168.452C169.354 149.045 170.194 149.132 170.974 149.305C171.772 149.478 172.465 149.773 173.054 150.189C173.644 150.588 174.112 151.125 174.458 151.801C174.805 152.477 174.978 153.318 174.978 154.323C174.978 155.571 174.701 156.602 174.146 157.417C173.609 158.214 172.881 158.812 171.962 159.211L175.81 165.997H171.52L168.27 159.887H166.164V165.997H162.342ZM166.164 156.845H168.14C169.146 156.845 169.908 156.637 170.428 156.221C170.966 155.788 171.234 155.155 171.234 154.323C171.234 153.491 170.966 152.91 170.428 152.581C169.908 152.252 169.146 152.087 168.14 152.087H166.164V156.845ZM184.406 166.309C183.297 166.309 182.187 166.11 181.078 165.711C179.986 165.295 179.007 164.68 178.14 163.865L180.324 161.239C180.931 161.759 181.598 162.184 182.326 162.513C183.071 162.842 183.799 163.007 184.51 163.007C185.307 163.007 185.897 162.86 186.278 162.565C186.677 162.27 186.876 161.872 186.876 161.369C186.876 161.109 186.815 160.884 186.694 160.693C186.59 160.502 186.425 160.338 186.2 160.199C185.992 160.043 185.732 159.904 185.42 159.783C185.125 159.644 184.796 159.497 184.432 159.341L182.222 158.405C181.789 158.232 181.364 158.006 180.948 157.729C180.549 157.452 180.185 157.131 179.856 156.767C179.544 156.386 179.293 155.952 179.102 155.467C178.911 154.964 178.816 154.401 178.816 153.777C178.816 153.084 178.963 152.434 179.258 151.827C179.553 151.203 179.969 150.666 180.506 150.215C181.043 149.747 181.676 149.383 182.404 149.123C183.149 148.863 183.964 148.733 184.848 148.733C185.836 148.733 186.807 148.924 187.76 149.305C188.731 149.686 189.58 150.241 190.308 150.969L188.358 153.387C187.803 152.954 187.249 152.624 186.694 152.399C186.139 152.156 185.524 152.035 184.848 152.035C184.189 152.035 183.661 152.174 183.262 152.451C182.881 152.711 182.69 153.084 182.69 153.569C182.69 153.829 182.751 154.054 182.872 154.245C183.011 154.418 183.193 154.583 183.418 154.739C183.661 154.878 183.938 155.016 184.25 155.155C184.562 155.276 184.9 155.415 185.264 155.571L187.448 156.455C188.488 156.871 189.303 157.443 189.892 158.171C190.499 158.899 190.802 159.861 190.802 161.057C190.802 161.768 190.655 162.444 190.36 163.085C190.083 163.709 189.667 164.264 189.112 164.749C188.575 165.217 187.907 165.598 187.11 165.893C186.313 166.17 185.411 166.309 184.406 166.309Z"/><path stroke="#A9DED9" stroke-linecap="round" stroke-linejoin="round" stroke-width="8" d="M4 28.9961C4 15.7413 14.7452 4.99609 28 4.99609H240C253.255 4.99609 264 15.7413 264 28.9961V198.996C264 212.251 253.255 222.996 240 222.996H28C14.7452 222.996 4 212.251 4 198.996V28.9961Z"/><path fill="#EDBA4B" d="M70.0747 120.997V111.341H51.7147V103.181L66.4027 77.8851H80.9547V102.501H85.5787V111.341H80.9547V120.997H70.0747ZM62.7307 102.501H70.0747V97.6051C70.0747 96.8797 70.0747 96.0864 70.0747 95.2251C70.12 94.3184 70.1654 93.4117 70.2107 92.5051C70.256 91.5984 70.3014 90.7144 70.3467 89.8531C70.392 88.9464 70.4374 88.1304 70.4827 87.4051H70.2107C69.6667 88.7197 69.1 90.0117 68.5107 91.2811C67.9214 92.5504 67.3094 93.8424 66.6747 95.1571L62.7307 102.501ZM112.237 121.813C109.835 121.813 107.659 121.337 105.709 120.385C103.76 119.388 102.06 117.937 100.609 116.033C99.204 114.129 98.116 111.772 97.3453 108.961C96.5747 106.15 96.1893 102.909 96.1893 99.2371C96.1893 95.5651 96.5747 92.3464 97.3453 89.5811C98.116 86.7704 99.204 84.4584 100.609 82.6451C102.06 80.7864 103.76 79.4037 105.709 78.4971C107.659 77.5451 109.835 77.0691 112.237 77.0691C114.595 77.0691 116.748 77.5451 118.697 78.4971C120.692 79.4037 122.392 80.7864 123.797 82.6451C125.248 84.5037 126.359 86.8157 127.129 89.5811C127.9 92.3464 128.285 95.5651 128.285 99.2371C128.285 102.909 127.9 106.15 127.129 108.961C126.359 111.772 125.248 114.129 123.797 116.033C122.392 117.937 120.692 119.388 118.697 120.385C116.748 121.337 114.595 121.813 112.237 121.813ZM112.237 112.837C112.917 112.837 113.552 112.678 114.141 112.361C114.776 111.998 115.32 111.318 115.773 110.321C116.227 109.324 116.589 107.941 116.861 106.173C117.133 104.405 117.269 102.093 117.269 99.2371C117.269 96.3811 117.133 94.0917 116.861 92.3691C116.589 90.6464 116.227 89.3091 115.773 88.3571C115.32 87.4051 114.776 86.7931 114.141 86.5211C113.552 86.2037 112.917 86.0451 112.237 86.0451C111.557 86.0451 110.9 86.2037 110.265 86.5211C109.676 86.7931 109.155 87.4051 108.701 88.3571C108.248 89.3091 107.885 90.6464 107.613 92.3691C107.341 94.0917 107.205 96.3811 107.205 99.2371C107.205 102.093 107.341 104.405 107.613 106.173C107.885 107.941 108.248 109.324 108.701 110.321C109.155 111.318 109.676 111.998 110.265 112.361C110.9 112.678 111.557 112.837 112.237 112.837ZM155.76 121.813C153.357 121.813 151.181 121.337 149.232 120.385C147.283 119.388 145.583 117.937 144.132 116.033C142.727 114.129 141.639 111.772 140.868 108.961C140.097 106.15 139.712 102.909 139.712 99.2371C139.712 95.5651 140.097 92.3464 140.868 89.5811C141.639 86.7704 142.727 84.4584 144.132 82.6451C145.583 80.7864 147.283 79.4037 149.232 78.4971C151.181 77.5451 153.357 77.0691 155.76 77.0691C158.117 77.0691 160.271 77.5451 162.22 78.4971C164.215 79.4037 165.915 80.7864 167.32 82.6451C168.771 84.5037 169.881 86.8157 170.652 89.5811C171.423 92.3464 171.808 95.5651 171.808 99.2371C171.808 102.909 171.423 106.15 170.652 108.961C169.881 111.772 168.771 114.129 167.32 116.033C165.915 117.937 164.215 119.388 162.22 120.385C160.271 121.337 158.117 121.813 155.76 121.813ZM155.76 112.837C156.44 112.837 157.075 112.678 157.664 112.361C158.299 111.998 158.843 111.318 159.296 110.321C159.749 109.324 160.112 107.941 160.384 106.173C160.656 104.405 160.792 102.093 160.792 99.2371C160.792 96.3811 160.656 94.0917 160.384 92.3691C160.112 90.6464 159.749 89.3091 159.296 88.3571C158.843 87.4051 158.299 86.7931 157.664 86.5211C157.075 86.2037 156.44 86.0451 155.76 86.0451C155.08 86.0451 154.423 86.2037 153.788 86.5211C153.199 86.7931 152.677 87.4051 152.224 88.3571C151.771 89.3091 151.408 90.6464 151.136 92.3691C150.864 94.0917 150.728 96.3811 150.728 99.2371C150.728 102.093 150.864 104.405 151.136 106.173C151.408 107.941 151.771 109.324 152.224 110.321C152.677 111.318 153.199 111.998 153.788 112.361C154.423 112.678 155.08 112.837 155.76 112.837ZM195.067 114.877V102.637H183.235V94.4771H195.067V82.2371H203.499V94.4771H215.331V102.637H203.499V114.877H195.067Z"/><path fill="#A9DED9" d="M78.3247 165.997V149.045H82.1467V155.571H87.9967V149.045H91.8447V165.997H87.9967V158.925H82.1467V165.997H78.3247ZM101.122 157.417L100.706 158.977H104.32L103.93 157.417C103.688 156.568 103.454 155.666 103.228 154.713C103.003 153.76 102.778 152.841 102.552 151.957H102.448C102.24 152.858 102.024 153.786 101.798 154.739C101.59 155.675 101.365 156.568 101.122 157.417ZM94.9862 165.997L100.29 149.045H104.892L110.196 165.997H106.14L105.1 161.967H99.9262L98.8862 165.997H94.9862ZM120.167 166.309C119.092 166.309 118.078 166.127 117.125 165.763C116.171 165.382 115.331 164.827 114.603 164.099C113.892 163.371 113.329 162.47 112.913 161.395C112.497 160.303 112.289 159.046 112.289 157.625C112.289 156.221 112.505 154.973 112.939 153.881C113.372 152.772 113.953 151.836 114.681 151.073C115.409 150.31 116.258 149.73 117.229 149.331C118.199 148.932 119.222 148.733 120.297 148.733C121.389 148.733 122.368 148.958 123.235 149.409C124.101 149.842 124.821 150.354 125.393 150.943L123.365 153.387C122.931 152.988 122.472 152.668 121.987 152.425C121.519 152.165 120.981 152.035 120.375 152.035C119.803 152.035 119.257 152.165 118.737 152.425C118.234 152.668 117.792 153.023 117.411 153.491C117.047 153.959 116.752 154.531 116.527 155.207C116.319 155.883 116.215 156.646 116.215 157.495C116.215 159.246 116.587 160.606 117.333 161.577C118.078 162.53 119.075 163.007 120.323 163.007C121.016 163.007 121.631 162.86 122.169 162.565C122.723 162.253 123.209 161.872 123.625 161.421L125.653 163.813C124.231 165.477 122.403 166.309 120.167 166.309ZM129.527 165.997V149.045H133.349V155.987H133.453L138.497 149.045H142.709L137.587 155.805L143.645 165.997H139.459L135.325 158.847L133.349 161.447V165.997H129.527ZM146.798 165.997V149.045H157.406V152.269H150.62V155.675H156.392V158.873H150.62V162.773H157.666V165.997H146.798ZM162.342 165.997V149.045H168.452C169.354 149.045 170.194 149.132 170.974 149.305C171.772 149.478 172.465 149.773 173.054 150.189C173.644 150.588 174.112 151.125 174.458 151.801C174.805 152.477 174.978 153.318 174.978 154.323C174.978 155.571 174.701 156.602 174.146 157.417C173.609 158.214 172.881 158.812 171.962 159.211L175.81 165.997H171.52L168.27 159.887H166.164V165.997H162.342ZM166.164 156.845H168.14C169.146 156.845 169.908 156.637 170.428 156.221C170.966 155.788 171.234 155.155 171.234 154.323C171.234 153.491 170.966 152.91 170.428 152.581C169.908 152.252 169.146 152.087 168.14 152.087H166.164V156.845ZM184.406 166.309C183.297 166.309 182.187 166.11 181.078 165.711C179.986 165.295 179.007 164.68 178.14 163.865L180.324 161.239C180.931 161.759 181.598 162.184 182.326 162.513C183.071 162.842 183.799 163.007 184.51 163.007C185.307 163.007 185.897 162.86 186.278 162.565C186.677 162.27 186.876 161.872 186.876 161.369C186.876 161.109 186.815 160.884 186.694 160.693C186.59 160.502 186.425 160.338 186.2 160.199C185.992 160.043 185.732 159.904 185.42 159.783C185.125 159.644 184.796 159.497 184.432 159.341L182.222 158.405C181.789 158.232 181.364 158.006 180.948 157.729C180.549 157.452 180.185 157.131 179.856 156.767C179.544 156.386 179.293 155.952 179.102 155.467C178.911 154.964 178.816 154.401 178.816 153.777C178.816 153.084 178.963 152.434 179.258 151.827C179.553 151.203 179.969 150.666 180.506 150.215C181.043 149.747 181.676 149.383 182.404 149.123C183.149 148.863 183.964 148.733 184.848 148.733C185.836 148.733 186.807 148.924 187.76 149.305C188.731 149.686 189.58 150.241 190.308 150.969L188.358 153.387C187.803 152.954 187.249 152.624 186.694 152.399C186.139 152.156 185.524 152.035 184.848 152.035C184.189 152.035 183.661 152.174 183.262 152.451C182.881 152.711 182.69 153.084 182.69 153.569C182.69 153.829 182.751 154.054 182.872 154.245C183.011 154.418 183.193 154.583 183.418 154.739C183.661 154.878 183.938 155.016 184.25 155.155C184.562 155.276 184.9 155.415 185.264 155.571L187.448 156.455C188.488 156.871 189.303 157.443 189.892 158.171C190.499 158.899 190.802 159.861 190.802 161.057C190.802 161.768 190.655 162.444 190.36 163.085C190.083 163.709 189.667 164.264 189.112 164.749C188.575 165.217 187.907 165.598 187.11 165.893C186.313 166.17 185.411 166.309 184.406 166.309Z"/><path stroke="#EDBA4B" stroke-linecap="round" stroke-linejoin="round" stroke-width="8" d="M79.9517 4.99609H182.164M199 222.996H240C253.255 222.996 264 212.251 264 198.996V180.802V138.609M4 113.996V59.4961"/></svg>