<svg width="145" height="38" viewBox="0 0 145 38" fill="none" xmlns="http://www.w3.org/2000/svg">
<path d="M144.139 38H31.7068H0.921875C0.921875 38 0.921875 32.9078 4.26806 26.2657C6.18158 22.4675 10.7732 14.948 15.1516 11.9308C20.3202 8.36893 25.7327 6.22896 31.7068 6.22896C37.2573 6.22896 43.7327 11.5687 43.7327 11.5687C43.7327 11.5687 53.2192 17.4884 57.2289 18.3214C64.8948 19.914 68.7378 11.3212 68.7378 11.3212C68.7378 11.3212 79.2979 0.559838 84.4649 0.140435C94.9354 -0.709452 96.6227 2.57585 96.6227 2.57585C96.6227 2.57585 99.8574 2.57585 108.446 10.2142C117.034 17.8525 121.942 14.8636 121.942 14.8636C121.942 14.8636 133.999 10.5046 139.565 13.6459C147.72 18.2483 144.139 38 144.139 38Z" fill="url(#paint0_linear)"/>
<defs>
<linearGradient id="paint0_linear" x1="78.9993" y1="-9.85894" x2="78.9993" y2="38" gradientUnits="userSpaceOnUse">
<stop stop-color="#23B5AF"/>
<stop offset="1" stop-color="white" stop-opacity="0"/>
</linearGradient>
</defs>
</svg>
