<svg xmlns="http://www.w3.org/2000/svg" width="239" height="72" fill="none" viewBox="0 0 239 72"><path fill="url(#paint0_linear)" d="M1.00476 71.0736H218.303H274.669C274.669 71.0736 274.669 61.6898 268.542 49.4502C265.038 42.4509 254.396 26.3076 247.915 21.911C241.77 17.742 225.71 11.965 218.303 12.5273C208.17 13.2966 195.634 21.911 195.634 21.911C195.634 21.911 180.018 37.1261 170.923 34.3547C163.665 32.1428 149.179 21.972 149.179 21.972C149.179 21.972 130.853 2.13419 120.182 0.77112C106.676 -0.954216 97.1677 5.64358 97.1677 5.64358C97.1677 5.64358 91.4081 7.68817 77.7974 19.8711C64.1867 32.054 66.9755 30.108 58.5957 34.3547C42.4034 42.5607 22.6374 34.2089 12.446 39.9976C-2.48557 48.4788 1.00476 71.0736 1.00476 71.0736Z"/><defs><linearGradient id="paint0_linear" x1="131.713" x2="131.713" y1="-29.618" y2="71.074" gradientUnits="userSpaceOnUse"><stop stop-color="#23B5AF"/><stop offset="1" stop-color="#fff" stop-opacity="0"/></linearGradient></defs></svg>