<svg width="301" height="420" viewBox="0 0 301 420" fill="none" xmlns="http://www.w3.org/2000/svg">
<path d="M269.299 124.771C178.05 96.4657 76.7364 111.877 31.1273 124.783C28.2755 125.59 27.3969 129.114 29.4414 131.259L44.0346 146.575C44.9657 147.552 45.3412 148.933 45.0332 150.247L39.7726 172.692C39.043 175.806 42.1032 178.478 45.1202 177.419C138.458 144.652 219.704 161.187 256.032 176.411C259.168 177.725 262.626 174.928 261.85 171.618L256.814 150.129C256.521 148.88 256.845 147.567 257.685 146.597L271.083 131.13C272.95 128.975 272.022 125.616 269.299 124.771Z" fill="#EC9D89"/>
<path d="M269.299 124.771C178.05 96.4657 76.7364 111.877 31.1273 124.783C28.2755 125.59 27.3969 129.114 29.4414 131.259L44.0346 146.575C44.9657 147.552 45.3412 148.933 45.0332 150.247L39.7726 172.692C39.043 175.806 42.1032 178.478 45.1202 177.419C138.458 144.652 219.704 161.187 256.032 176.411C259.168 177.725 262.626 174.928 261.85 171.618L256.814 150.129C256.521 148.88 256.845 147.567 257.685 146.597L271.083 131.13C272.95 128.975 272.022 125.616 269.299 124.771Z" fill="url(#paint0_linear)"/>
<circle cx="150.005" cy="92.4516" r="91.1533" fill="#EDBA4B"/>
<circle cx="150.005" cy="92.4516" r="91.1533" fill="url(#paint1_linear)"/>
<circle cx="150.005" cy="92.4516" r="91.1533" stroke="#EDBA4B" stroke-width="2"/>
<circle cx="150.005" cy="92.4516" r="91.1533" stroke="url(#paint2_linear)" stroke-width="2"/>
<circle cx="149.544" cy="91.9959" r="74.7737" fill="#EDBA4B"/>
<circle cx="149.544" cy="91.9959" r="74.7737" fill="url(#paint3_linear)"/>
<circle cx="149.544" cy="91.9959" r="74.7737" stroke="#EDBA4B"/>
<circle cx="149.544" cy="91.9959" r="74.7737" stroke="url(#paint4_linear)"/>
<path d="M130.871 127.422V114.174H143.927V82.6864H132.407V72.5104C135.863 71.8064 138.807 71.0064 141.239 70.1104C143.671 69.2144 146.039 68.0304 148.343 66.5584H160.439V114.174H171.383V127.422H130.871Z" fill="#D29818"/>
<path d="M130.871 127.422V114.174H143.927V82.6864H132.407V72.5104C135.863 71.8064 138.807 71.0064 141.239 70.1104C143.671 69.2144 146.039 68.0304 148.343 66.5584H160.439V114.174H171.383V127.422H130.871Z" fill="url(#paint5_linear)"/>
<rect x="4" y="166.058" width="292" height="249.257" rx="20" fill="#FCFFFF"/>
<rect x="4" y="166.058" width="292" height="249.257" rx="20" fill="url(#paint6_linear)"/>
<rect x="4" y="166.058" width="292" height="249.257" rx="20" stroke="#A9DED9" stroke-width="8"/>
<path d="M300.003 203.308V186.058C300.003 172.803 289.258 162.058 276.003 162.058H272.925H245.848H234.435H206.98H193.181H165.584H110.391H20.6289C9.23803 162.058 0.00390625 171.292 0.00390625 182.683V203.308H300.003Z" fill="#23B5AF"/>
<path d="M103.095 188.683V178.251H109.671V180.235H105.447V182.651H109.063V184.635H105.447V188.683H103.095ZM112.286 188.683V178.251H114.638V188.683H112.286ZM117.898 188.683V178.251H121.658C122.213 178.251 122.73 178.304 123.21 178.411C123.701 178.518 124.128 178.699 124.49 178.955C124.853 179.2 125.141 179.531 125.354 179.947C125.568 180.363 125.674 180.88 125.674 181.499C125.674 182.267 125.504 182.902 125.162 183.403C124.832 183.894 124.384 184.262 123.818 184.507L126.186 188.683H123.546L121.546 184.923H120.25V188.683H117.898ZM120.25 183.051H121.466C122.085 183.051 122.554 182.923 122.874 182.667C123.205 182.4 123.37 182.011 123.37 181.499C123.37 180.987 123.205 180.63 122.874 180.427C122.554 180.224 122.085 180.123 121.466 180.123H120.25V183.051ZM131.476 188.875C130.793 188.875 130.111 188.752 129.428 188.507C128.756 188.251 128.153 187.872 127.62 187.371L128.964 185.755C129.337 186.075 129.748 186.336 130.196 186.539C130.655 186.742 131.103 186.843 131.54 186.843C132.031 186.843 132.393 186.752 132.628 186.571C132.873 186.39 132.996 186.144 132.996 185.835C132.996 185.675 132.959 185.536 132.884 185.419C132.82 185.302 132.719 185.2 132.58 185.115C132.452 185.019 132.292 184.934 132.1 184.859C131.919 184.774 131.716 184.683 131.492 184.587L130.132 184.011C129.865 183.904 129.604 183.766 129.348 183.595C129.103 183.424 128.879 183.227 128.676 183.003C128.484 182.768 128.329 182.502 128.212 182.203C128.095 181.894 128.036 181.547 128.036 181.163C128.036 180.736 128.127 180.336 128.308 179.963C128.489 179.579 128.745 179.248 129.076 178.971C129.407 178.683 129.796 178.459 130.244 178.299C130.703 178.139 131.204 178.059 131.748 178.059C132.356 178.059 132.953 178.176 133.54 178.411C134.137 178.646 134.66 178.987 135.108 179.435L133.908 180.923C133.567 180.656 133.225 180.454 132.884 180.315C132.543 180.166 132.164 180.091 131.748 180.091C131.343 180.091 131.017 180.176 130.772 180.347C130.537 180.507 130.42 180.736 130.42 181.035C130.42 181.195 130.457 181.334 130.532 181.451C130.617 181.558 130.729 181.659 130.868 181.755C131.017 181.84 131.188 181.926 131.38 182.011C131.572 182.086 131.78 182.171 132.004 182.267L133.348 182.811C133.988 183.067 134.489 183.419 134.852 183.867C135.225 184.315 135.412 184.907 135.412 185.643C135.412 186.08 135.321 186.496 135.14 186.891C134.969 187.275 134.713 187.616 134.372 187.915C134.041 188.203 133.631 188.438 133.14 188.619C132.649 188.79 132.095 188.875 131.476 188.875ZM139.702 188.683V180.235H136.838V178.251H144.934V180.235H142.07V188.683H139.702ZM151.364 188.683V178.251H154.948C155.524 178.251 156.063 178.31 156.564 178.427C157.065 178.534 157.503 178.72 157.876 178.987C158.249 179.243 158.543 179.59 158.756 180.027C158.98 180.454 159.092 180.982 159.092 181.611C159.092 182.219 158.98 182.747 158.756 183.195C158.543 183.643 158.249 184.011 157.876 184.299C157.503 184.587 157.071 184.8 156.58 184.939C156.089 185.078 155.567 185.147 155.012 185.147H153.716V188.683H151.364ZM153.716 183.275H154.868C156.148 183.275 156.788 182.72 156.788 181.611C156.788 181.067 156.617 180.683 156.276 180.459C155.935 180.235 155.444 180.123 154.804 180.123H153.716V183.275ZM161.695 188.683V178.251H164.047V186.699H168.175V188.683H161.695ZM173.131 183.403L172.875 184.363H175.099L174.859 183.403C174.709 182.88 174.565 182.326 174.427 181.739C174.288 181.152 174.149 180.587 174.011 180.043H173.947C173.819 180.598 173.685 181.168 173.547 181.755C173.419 182.331 173.28 182.88 173.131 183.403ZM169.355 188.683L172.619 178.251H175.451L178.715 188.683H176.219L175.579 186.203H172.395L171.755 188.683H169.355ZM184.85 188.875C184.189 188.875 183.565 188.763 182.978 188.539C182.392 188.304 181.874 187.963 181.426 187.515C180.989 187.067 180.642 186.512 180.386 185.851C180.13 185.179 180.002 184.406 180.002 183.531C180.002 182.667 180.136 181.899 180.402 181.227C180.669 180.544 181.026 179.968 181.474 179.499C181.922 179.03 182.445 178.672 183.042 178.427C183.64 178.182 184.269 178.059 184.93 178.059C185.602 178.059 186.205 178.198 186.738 178.475C187.272 178.742 187.714 179.056 188.066 179.419L186.818 180.923C186.552 180.678 186.269 180.48 185.97 180.331C185.682 180.171 185.352 180.091 184.978 180.091C184.626 180.091 184.29 180.171 183.97 180.331C183.661 180.48 183.389 180.699 183.154 180.987C182.93 181.275 182.749 181.627 182.61 182.043C182.482 182.459 182.418 182.928 182.418 183.451C182.418 184.528 182.648 185.366 183.106 185.963C183.565 186.55 184.178 186.843 184.946 186.843C185.373 186.843 185.752 186.752 186.082 186.571C186.424 186.379 186.722 186.144 186.978 185.867L188.226 187.339C187.352 188.363 186.226 188.875 184.85 188.875ZM190.611 188.683V178.251H197.139V180.235H192.963V182.331H196.515V184.299H192.963V186.699H197.299V188.683H190.611Z" fill="white"/>
<ellipse cx="28.875" cy="182.684" rx="4.875" ry="4.94081" fill="#EC9D89"/>
<ellipse cx="45.9477" cy="182.193" rx="4.38966" ry="4.44892" fill="#EDBA4B"/>
<ellipse cx="63.5074" cy="182.193" rx="4.38966" ry="4.44892" fill="#A9DED9"/>
<rect x="23.2383" y="219.308" width="252.779" height="48" rx="10" fill="#E1F7F4"/>
<path d="M76.8223 249.5C76.1609 249.5 75.5369 249.388 74.9503 249.164C74.3636 248.929 73.8463 248.588 73.3983 248.14C72.9609 247.692 72.6143 247.137 72.3583 246.476C72.1023 245.804 71.9743 245.031 71.9743 244.156C71.9743 243.292 72.1076 242.524 72.3743 241.852C72.6409 241.169 72.9983 240.593 73.4463 240.124C73.8943 239.655 74.4169 239.297 75.0143 239.052C75.6116 238.807 76.2409 238.684 76.9023 238.684C77.5743 238.684 78.1769 238.823 78.7103 239.1C79.2436 239.367 79.6863 239.681 80.0383 240.044L78.7903 241.548C78.5236 241.303 78.2409 241.105 77.9423 240.956C77.6543 240.796 77.3236 240.716 76.9503 240.716C76.5983 240.716 76.2623 240.796 75.9423 240.956C75.6329 241.105 75.3609 241.324 75.1263 241.612C74.9023 241.9 74.7209 242.252 74.5823 242.668C74.4543 243.084 74.3903 243.553 74.3903 244.076C74.3903 245.153 74.6196 245.991 75.0783 246.588C75.5369 247.175 76.1503 247.468 76.9183 247.468C77.3449 247.468 77.7236 247.377 78.0543 247.196C78.3956 247.004 78.6943 246.769 78.9503 246.492L80.1983 247.964C79.3236 248.988 78.1983 249.5 76.8223 249.5ZM85.7988 249.5C85.2974 249.5 84.8121 249.409 84.3428 249.228C83.8734 249.036 83.4574 248.764 83.0948 248.412C82.7428 248.06 82.4601 247.628 82.2468 247.116C82.0334 246.593 81.9268 246.001 81.9268 245.34C81.9268 244.679 82.0334 244.092 82.2468 243.58C82.4601 243.057 82.7428 242.62 83.0948 242.268C83.4574 241.916 83.8734 241.649 84.3428 241.468C84.8121 241.276 85.2974 241.18 85.7988 241.18C86.3001 241.18 86.7801 241.276 87.2388 241.468C87.7081 241.649 88.1188 241.916 88.4708 242.268C88.8334 242.62 89.1214 243.057 89.3348 243.58C89.5481 244.092 89.6548 244.679 89.6548 245.34C89.6548 246.001 89.5481 246.593 89.3348 247.116C89.1214 247.628 88.8334 248.06 88.4708 248.412C88.1188 248.764 87.7081 249.036 87.2388 249.228C86.7801 249.409 86.3001 249.5 85.7988 249.5ZM85.7988 247.596C86.2788 247.596 86.6414 247.393 86.8868 246.988C87.1321 246.583 87.2548 246.033 87.2548 245.34C87.2548 244.647 87.1321 244.097 86.8868 243.692C86.6414 243.287 86.2788 243.084 85.7988 243.084C85.3081 243.084 84.9401 243.287 84.6948 243.692C84.4601 244.097 84.3428 244.647 84.3428 245.34C84.3428 246.033 84.4601 246.583 84.6948 246.988C84.9401 247.393 85.3081 247.596 85.7988 247.596ZM92.0658 249.308V241.372H93.9858L94.1458 242.396H94.2098C94.5404 242.065 94.8924 241.783 95.2658 241.548C95.6391 241.303 96.0871 241.18 96.6098 241.18C97.1751 241.18 97.6284 241.297 97.9698 241.532C98.3218 241.756 98.5991 242.081 98.8018 242.508C99.1538 242.145 99.5218 241.836 99.9058 241.58C100.3 241.313 100.764 241.18 101.298 241.18C102.151 241.18 102.775 241.468 103.17 242.044C103.575 242.609 103.778 243.388 103.778 244.38V249.308H101.426V244.684C101.426 244.108 101.346 243.713 101.186 243.5C101.036 243.287 100.791 243.18 100.45 243.18C100.055 243.18 99.6018 243.436 99.0898 243.948V249.308H96.7378V244.684C96.7378 244.108 96.6578 243.713 96.4978 243.5C96.3484 243.287 96.1031 243.18 95.7618 243.18C95.3564 243.18 94.9084 243.436 94.4178 243.948V249.308H92.0658ZM106.585 249.308V241.372H108.937V249.308H106.585ZM107.753 240.204C107.358 240.204 107.033 240.092 106.777 239.868C106.521 239.633 106.393 239.335 106.393 238.972C106.393 238.609 106.521 238.316 106.777 238.092C107.033 237.868 107.358 237.756 107.753 237.756C108.158 237.756 108.483 237.868 108.729 238.092C108.985 238.316 109.113 238.609 109.113 238.972C109.113 239.335 108.985 239.633 108.729 239.868C108.483 240.092 108.158 240.204 107.753 240.204ZM111.806 249.308V241.372H113.726L113.886 242.38H113.95C114.292 242.06 114.665 241.783 115.07 241.548C115.476 241.303 115.95 241.18 116.494 241.18C117.358 241.18 117.982 241.463 118.366 242.028C118.761 242.593 118.958 243.377 118.958 244.38V249.308H116.606V244.684C116.606 244.108 116.526 243.713 116.366 243.5C116.217 243.287 115.972 243.18 115.63 243.18C115.332 243.18 115.076 243.249 114.862 243.388C114.649 243.516 114.414 243.703 114.158 243.948V249.308H111.806ZM124.595 252.684C124.125 252.684 123.688 252.641 123.283 252.556C122.888 252.481 122.536 252.364 122.227 252.204C121.928 252.044 121.693 251.836 121.523 251.58C121.352 251.324 121.267 251.02 121.267 250.668C121.267 250.028 121.645 249.495 122.403 249.068V249.004C122.189 248.865 122.013 248.689 121.875 248.476C121.736 248.263 121.667 247.991 121.667 247.66C121.667 247.372 121.752 247.1 121.923 246.844C122.093 246.577 122.307 246.353 122.563 246.172V246.108C122.285 245.916 122.035 245.644 121.811 245.292C121.597 244.929 121.491 244.513 121.491 244.044C121.491 243.564 121.581 243.148 121.763 242.796C121.944 242.433 122.184 242.135 122.483 241.9C122.792 241.655 123.144 241.473 123.539 241.356C123.933 241.239 124.344 241.18 124.771 241.18C125.24 241.18 125.651 241.244 126.003 241.372H128.899V243.084H127.635C127.709 243.201 127.768 243.351 127.811 243.532C127.864 243.713 127.891 243.911 127.891 244.124C127.891 244.583 127.811 244.983 127.651 245.324C127.491 245.655 127.267 245.932 126.979 246.156C126.701 246.369 126.371 246.529 125.987 246.636C125.613 246.743 125.208 246.796 124.771 246.796C124.461 246.796 124.141 246.743 123.811 246.636C123.704 246.721 123.629 246.807 123.587 246.892C123.544 246.977 123.523 247.089 123.523 247.228C123.523 247.431 123.608 247.58 123.779 247.676C123.96 247.772 124.275 247.82 124.723 247.82H126.003C126.984 247.82 127.731 247.98 128.243 248.3C128.765 248.609 129.027 249.121 129.027 249.836C129.027 250.252 128.92 250.631 128.707 250.972C128.504 251.324 128.211 251.623 127.827 251.868C127.443 252.124 126.979 252.321 126.435 252.46C125.891 252.609 125.277 252.684 124.595 252.684ZM124.771 245.372C125.08 245.372 125.336 245.265 125.539 245.052C125.752 244.828 125.859 244.492 125.859 244.044C125.859 243.628 125.752 243.313 125.539 243.1C125.336 242.876 125.08 242.764 124.771 242.764C124.461 242.764 124.2 242.871 123.987 243.084C123.784 243.297 123.683 243.617 123.683 244.044C123.683 244.492 123.784 244.828 123.987 245.052C124.2 245.265 124.461 245.372 124.771 245.372ZM124.963 251.212C125.496 251.212 125.933 251.116 126.275 250.924C126.616 250.743 126.787 250.513 126.787 250.236C126.787 249.991 126.68 249.825 126.467 249.74C126.264 249.655 125.965 249.612 125.571 249.612H124.755C124.477 249.612 124.253 249.601 124.083 249.58C123.912 249.569 123.763 249.548 123.635 249.516C123.347 249.772 123.203 250.033 123.203 250.3C123.203 250.599 123.363 250.823 123.683 250.972C124.003 251.132 124.429 251.212 124.963 251.212ZM137.449 249.5C136.926 249.5 136.387 249.399 135.833 249.196C135.289 248.993 134.814 248.727 134.409 248.396L135.465 246.924C135.827 247.201 136.174 247.409 136.505 247.548C136.835 247.687 137.171 247.756 137.513 247.756C137.865 247.756 138.121 247.697 138.281 247.58C138.441 247.463 138.521 247.297 138.521 247.084C138.521 246.956 138.473 246.844 138.377 246.748C138.291 246.641 138.169 246.545 138.009 246.46C137.859 246.375 137.689 246.3 137.497 246.236C137.305 246.161 137.107 246.081 136.905 245.996C136.659 245.9 136.414 245.788 136.169 245.66C135.923 245.532 135.699 245.377 135.497 245.196C135.294 245.004 135.129 244.785 135.001 244.54C134.873 244.284 134.809 243.991 134.809 243.66C134.809 243.297 134.878 242.961 135.017 242.652C135.166 242.343 135.374 242.081 135.641 241.868C135.907 241.655 136.227 241.489 136.601 241.372C136.974 241.244 137.39 241.18 137.849 241.18C138.457 241.18 138.99 241.287 139.449 241.5C139.907 241.703 140.307 241.932 140.649 242.188L139.593 243.596C139.305 243.383 139.022 243.217 138.745 243.1C138.467 242.983 138.19 242.924 137.913 242.924C137.315 242.924 137.017 243.132 137.017 243.548C137.017 243.676 137.059 243.788 137.145 243.884C137.23 243.969 137.342 244.049 137.481 244.124C137.63 244.199 137.795 244.273 137.977 244.348C138.169 244.412 138.366 244.481 138.569 244.556C138.825 244.652 139.075 244.764 139.321 244.892C139.577 245.009 139.806 245.159 140.009 245.34C140.222 245.521 140.393 245.745 140.521 246.012C140.649 246.268 140.713 246.577 140.713 246.94C140.713 247.303 140.643 247.639 140.505 247.948C140.366 248.257 140.158 248.529 139.881 248.764C139.603 248.988 139.262 249.169 138.857 249.308C138.451 249.436 137.982 249.5 137.449 249.5ZM146.414 249.5C145.913 249.5 145.428 249.409 144.958 249.228C144.489 249.036 144.073 248.764 143.71 248.412C143.358 248.06 143.076 247.628 142.862 247.116C142.649 246.593 142.542 246.001 142.542 245.34C142.542 244.679 142.649 244.092 142.862 243.58C143.076 243.057 143.358 242.62 143.71 242.268C144.073 241.916 144.489 241.649 144.958 241.468C145.428 241.276 145.913 241.18 146.414 241.18C146.916 241.18 147.396 241.276 147.854 241.468C148.324 241.649 148.734 241.916 149.086 242.268C149.449 242.62 149.737 243.057 149.95 243.58C150.164 244.092 150.27 244.679 150.27 245.34C150.27 246.001 150.164 246.593 149.95 247.116C149.737 247.628 149.449 248.06 149.086 248.412C148.734 248.764 148.324 249.036 147.854 249.228C147.396 249.409 146.916 249.5 146.414 249.5ZM146.414 247.596C146.894 247.596 147.257 247.393 147.502 246.988C147.748 246.583 147.87 246.033 147.87 245.34C147.87 244.647 147.748 244.097 147.502 243.692C147.257 243.287 146.894 243.084 146.414 243.084C145.924 243.084 145.556 243.287 145.31 243.692C145.076 244.097 144.958 244.647 144.958 245.34C144.958 246.033 145.076 246.583 145.31 246.988C145.556 247.393 145.924 247.596 146.414 247.596ZM156.089 249.5C155.588 249.5 155.103 249.409 154.633 249.228C154.164 249.036 153.748 248.764 153.385 248.412C153.033 248.06 152.751 247.628 152.537 247.116C152.324 246.593 152.217 246.001 152.217 245.34C152.217 244.679 152.324 244.092 152.537 243.58C152.751 243.057 153.033 242.62 153.385 242.268C153.748 241.916 154.164 241.649 154.633 241.468C155.103 241.276 155.588 241.18 156.089 241.18C156.591 241.18 157.071 241.276 157.529 241.468C157.999 241.649 158.409 241.916 158.761 242.268C159.124 242.62 159.412 243.057 159.625 243.58C159.839 244.092 159.945 244.679 159.945 245.34C159.945 246.001 159.839 246.593 159.625 247.116C159.412 247.628 159.124 248.06 158.761 248.412C158.409 248.764 157.999 249.036 157.529 249.228C157.071 249.409 156.591 249.5 156.089 249.5ZM156.089 247.596C156.569 247.596 156.932 247.393 157.177 246.988C157.423 246.583 157.545 246.033 157.545 245.34C157.545 244.647 157.423 244.097 157.177 243.692C156.932 243.287 156.569 243.084 156.089 243.084C155.599 243.084 155.231 243.287 154.985 243.692C154.751 244.097 154.633 244.647 154.633 245.34C154.633 246.033 154.751 246.583 154.985 246.988C155.231 247.393 155.599 247.596 156.089 247.596ZM162.356 249.308V241.372H164.276L164.436 242.38H164.5C164.842 242.06 165.215 241.783 165.62 241.548C166.026 241.303 166.5 241.18 167.044 241.18C167.908 241.18 168.532 241.463 168.916 242.028C169.311 242.593 169.508 243.377 169.508 244.38V249.308H167.156V244.684C167.156 244.108 167.076 243.713 166.916 243.5C166.767 243.287 166.522 243.18 166.18 243.18C165.882 243.18 165.626 243.249 165.412 243.388C165.199 243.516 164.964 243.703 164.708 243.948V249.308H162.356Z" fill="#23B5AF"/>
<rect x="40.2383" y="236.308" width="14" height="14" rx="3" fill="#FCFFFF"/>
<rect x="40.2383" y="236.308" width="14" height="14" rx="3" fill="url(#paint7_linear)"/>
<rect x="40.2383" y="236.308" width="14" height="14" rx="3" stroke="#A9DED9" stroke-width="2"/>
<path d="M43.875 244.645L46.168 246.634L50.6047 239.98" stroke="#A9DED9" stroke-width="2" stroke-linecap="round" stroke-linejoin="round"/>
<rect x="23.2383" y="283.308" width="252.779" height="48" rx="10" fill="#E1F7F4"/>
<path d="M73.6383 313.5C73.2329 313.5 72.8916 313.361 72.6143 313.084C72.3476 312.796 72.2143 312.444 72.2143 312.028C72.2143 311.601 72.3476 311.249 72.6143 310.972C72.8916 310.684 73.2329 310.54 73.6383 310.54C74.0436 310.54 74.3796 310.684 74.6463 310.972C74.9236 311.249 75.0623 311.601 75.0623 312.028C75.0623 312.444 74.9236 312.796 74.6463 313.084C74.3796 313.361 74.0436 313.5 73.6383 313.5ZM79.2352 313.5C78.8298 313.5 78.4885 313.361 78.2112 313.084C77.9445 312.796 77.8112 312.444 77.8112 312.028C77.8112 311.601 77.9445 311.249 78.2112 310.972C78.4885 310.684 78.8298 310.54 79.2352 310.54C79.6405 310.54 79.9765 310.684 80.2432 310.972C80.5205 311.249 80.6592 311.601 80.6592 312.028C80.6592 312.444 80.5205 312.796 80.2432 313.084C79.9765 313.361 79.6405 313.5 79.2352 313.5ZM84.832 313.5C84.4267 313.5 84.0854 313.361 83.808 313.084C83.5414 312.796 83.408 312.444 83.408 312.028C83.408 311.601 83.5414 311.249 83.808 310.972C84.0854 310.684 84.4267 310.54 84.832 310.54C85.2374 310.54 85.5734 310.684 85.84 310.972C86.1174 311.249 86.256 311.601 86.256 312.028C86.256 312.444 86.1174 312.796 85.84 313.084C85.5734 313.361 85.2374 313.5 84.832 313.5Z" fill="#23B5AF"/>
<rect x="40.2383" y="300.308" width="14" height="14" rx="3" fill="#FCFFFF"/>
<rect x="40.2383" y="300.308" width="14" height="14" rx="3" fill="url(#paint8_linear)"/>
<rect x="40.2383" y="300.308" width="14" height="14" rx="3" stroke="#A9DED9" stroke-width="2"/>
<path d="M43.875 308.645L46.168 310.634L50.6047 303.98" stroke="#A9DED9" stroke-width="2" stroke-linecap="round" stroke-linejoin="round"/>
<rect x="23.2383" y="347.308" width="252.779" height="48" rx="10" fill="#E1F7F4"/>
<path d="M73.6383 377.5C73.2329 377.5 72.8916 377.361 72.6143 377.084C72.3476 376.796 72.2143 376.444 72.2143 376.028C72.2143 375.601 72.3476 375.249 72.6143 374.972C72.8916 374.684 73.2329 374.54 73.6383 374.54C74.0436 374.54 74.3796 374.684 74.6463 374.972C74.9236 375.249 75.0623 375.601 75.0623 376.028C75.0623 376.444 74.9236 376.796 74.6463 377.084C74.3796 377.361 74.0436 377.5 73.6383 377.5ZM79.2352 377.5C78.8298 377.5 78.4885 377.361 78.2112 377.084C77.9445 376.796 77.8112 376.444 77.8112 376.028C77.8112 375.601 77.9445 375.249 78.2112 374.972C78.4885 374.684 78.8298 374.54 79.2352 374.54C79.6405 374.54 79.9765 374.684 80.2432 374.972C80.5205 375.249 80.6592 375.601 80.6592 376.028C80.6592 376.444 80.5205 376.796 80.2432 377.084C79.9765 377.361 79.6405 377.5 79.2352 377.5ZM84.832 377.5C84.4267 377.5 84.0854 377.361 83.808 377.084C83.5414 376.796 83.408 376.444 83.408 376.028C83.408 375.601 83.5414 375.249 83.808 374.972C84.0854 374.684 84.4267 374.54 84.832 374.54C85.2374 374.54 85.5734 374.684 85.84 374.972C86.1174 375.249 86.256 375.601 86.256 376.028C86.256 376.444 86.1174 376.796 85.84 377.084C85.5734 377.361 85.2374 377.5 84.832 377.5Z" fill="#23B5AF"/>
<rect x="40.2383" y="364.308" width="14" height="14" rx="3" fill="#FCFFFF"/>
<rect x="40.2383" y="364.308" width="14" height="14" rx="3" fill="url(#paint9_linear)"/>
<rect x="40.2383" y="364.308" width="14" height="14" rx="3" stroke="#A9DED9" stroke-width="2"/>
<path d="M43.875 372.645L46.168 374.634L50.6047 367.98" stroke="#A9DED9" stroke-width="2" stroke-linecap="round" stroke-linejoin="round"/>
<defs>
<linearGradient id="paint0_linear" x1="134.037" y1="215.11" x2="68.3438" y2="1.60642" gradientUnits="userSpaceOnUse">
<stop stop-color="#E8795D"/>
<stop offset="1" stop-color="white" stop-opacity="0"/>
</linearGradient>
<linearGradient id="paint1_linear" x1="48.728" y1="65.0794" x2="150.005" y2="184.605" gradientUnits="userSpaceOnUse">
<stop stop-color="#FAE0A1"/>
<stop offset="1" stop-color="white" stop-opacity="0"/>
</linearGradient>
<linearGradient id="paint2_linear" x1="150.005" y1="0.298334" x2="212.505" y2="170.919" gradientUnits="userSpaceOnUse">
<stop stop-color="#FAE0A1"/>
<stop offset="1" stop-color="white" stop-opacity="0"/>
</linearGradient>
<linearGradient id="paint3_linear" x1="226.642" y1="19.4594" x2="149.544" y2="167.27" gradientUnits="userSpaceOnUse">
<stop stop-color="#FAE0A1"/>
<stop offset="1" stop-color="white" stop-opacity="0"/>
</linearGradient>
<linearGradient id="paint4_linear" x1="38.6861" y1="39.5324" x2="149.544" y2="167.27" gradientUnits="userSpaceOnUse">
<stop stop-color="#FAE0A1"/>
<stop offset="1" stop-color="white" stop-opacity="0"/>
</linearGradient>
<linearGradient id="paint5_linear" x1="112.637" y1="23.9307" x2="177.31" y2="125.494" gradientUnits="userSpaceOnUse">
<stop stop-color="#EDBA4B"/>
<stop offset="1" stop-color="white" stop-opacity="0"/>
</linearGradient>
<linearGradient id="paint6_linear" x1="150" y1="162.058" x2="150" y2="419.315" gradientUnits="userSpaceOnUse">
<stop stop-color="white"/>
<stop offset="1" stop-color="white" stop-opacity="0"/>
</linearGradient>
<linearGradient id="paint7_linear" x1="47.2383" y1="235.308" x2="47.2383" y2="251.308" gradientUnits="userSpaceOnUse">
<stop stop-color="white"/>
<stop offset="1" stop-color="white" stop-opacity="0"/>
</linearGradient>
<linearGradient id="paint8_linear" x1="47.2383" y1="299.308" x2="47.2383" y2="315.308" gradientUnits="userSpaceOnUse">
<stop stop-color="white"/>
<stop offset="1" stop-color="white" stop-opacity="0"/>
</linearGradient>
<linearGradient id="paint9_linear" x1="47.2383" y1="363.308" x2="47.2383" y2="379.308" gradientUnits="userSpaceOnUse">
<stop stop-color="white"/>
<stop offset="1" stop-color="white" stop-opacity="0"/>
</linearGradient>
</defs>
</svg>
