<svg width="301" height="309" viewBox="0 0 301 309" fill="none" xmlns="http://www.w3.org/2000/svg">
<path d="M269.299 124.771C178.05 96.4657 76.7364 111.877 31.1273 124.783C28.2755 125.59 27.3969 129.114 29.4414 131.259L44.0346 146.575C44.9657 147.552 45.3412 148.933 45.0332 150.247L39.7726 172.692C39.043 175.806 42.1032 178.478 45.1202 177.419C138.458 144.652 219.704 161.187 256.032 176.411C259.168 177.725 262.626 174.928 261.85 171.618L256.814 150.129C256.521 148.88 256.845 147.567 257.685 146.597L271.083 131.13C272.95 128.975 272.022 125.616 269.299 124.771Z" fill="#EC9D89"/>
<path d="M269.299 124.771C178.05 96.4657 76.7364 111.877 31.1273 124.783C28.2755 125.59 27.3969 129.114 29.4414 131.259L44.0346 146.575C44.9657 147.552 45.3412 148.933 45.0332 150.247L39.7726 172.692C39.043 175.806 42.1032 178.478 45.1202 177.419C138.458 144.652 219.704 161.187 256.032 176.411C259.168 177.725 262.626 174.928 261.85 171.618L256.814 150.129C256.521 148.88 256.845 147.567 257.685 146.597L271.083 131.13C272.95 128.975 272.022 125.616 269.299 124.771Z" fill="url(#paint0_linear)"/>
<circle cx="150.005" cy="92.4516" r="91.1533" fill="#EDBA4B"/>
<circle cx="150.005" cy="92.4516" r="91.1533" fill="url(#paint1_linear)"/>
<circle cx="150.005" cy="92.4516" r="91.1533" stroke="#EDBA4B" stroke-width="2"/>
<circle cx="150.005" cy="92.4516" r="91.1533" stroke="url(#paint2_linear)" stroke-width="2"/>
<circle cx="149.544" cy="91.9959" r="74.7737" fill="#EDBA4B"/>
<circle cx="149.544" cy="91.9959" r="74.7737" fill="url(#paint3_linear)"/>
<circle cx="149.544" cy="91.9959" r="74.7737" stroke="#EDBA4B"/>
<circle cx="149.544" cy="91.9959" r="74.7737" stroke="url(#paint4_linear)"/>
<path d="M130.871 127.422V114.174H143.927V82.6864H132.407V72.5104C135.863 71.8064 138.807 71.0064 141.239 70.1104C143.671 69.2144 146.039 68.0304 148.343 66.5584H160.439V114.174H171.383V127.422H130.871Z" fill="#D29818"/>
<path d="M130.871 127.422V114.174H143.927V82.6864H132.407V72.5104C135.863 71.8064 138.807 71.0064 141.239 70.1104C143.671 69.2144 146.039 68.0304 148.343 66.5584H160.439V114.174H171.383V127.422H130.871Z" fill="url(#paint5_linear)"/>
<rect x="4" y="166.058" width="292" height="138.223" rx="20" fill="#FCFFFF"/>
<rect x="4" y="166.058" width="292" height="138.223" rx="20" fill="url(#paint6_linear)"/>
<rect x="4" y="166.058" width="292" height="138.223" rx="20" stroke="#A9DED9" stroke-width="8"/>
<path d="M300.003 203.308V186.058C300.003 172.803 289.258 162.058 276.003 162.058H272.925H245.848H234.435H206.98H193.181H165.584H110.391H20.6289C9.23803 162.058 0.00390625 171.292 0.00390625 182.683V203.308H300.003Z" fill="#23B5AF"/>
<path d="M103.095 188.683V178.251H109.671V180.235H105.447V182.651H109.063V184.635H105.447V188.683H103.095ZM112.286 188.683V178.251H114.638V188.683H112.286ZM117.898 188.683V178.251H121.658C122.213 178.251 122.73 178.304 123.21 178.411C123.701 178.518 124.128 178.699 124.49 178.955C124.853 179.2 125.141 179.531 125.354 179.947C125.568 180.363 125.674 180.88 125.674 181.499C125.674 182.267 125.504 182.902 125.162 183.403C124.832 183.894 124.384 184.262 123.818 184.507L126.186 188.683H123.546L121.546 184.923H120.25V188.683H117.898ZM120.25 183.051H121.466C122.085 183.051 122.554 182.923 122.874 182.667C123.205 182.4 123.37 182.011 123.37 181.499C123.37 180.987 123.205 180.63 122.874 180.427C122.554 180.224 122.085 180.123 121.466 180.123H120.25V183.051ZM131.476 188.875C130.793 188.875 130.111 188.752 129.428 188.507C128.756 188.251 128.153 187.872 127.62 187.371L128.964 185.755C129.337 186.075 129.748 186.336 130.196 186.539C130.655 186.742 131.103 186.843 131.54 186.843C132.031 186.843 132.393 186.752 132.628 186.571C132.873 186.39 132.996 186.144 132.996 185.835C132.996 185.675 132.959 185.536 132.884 185.419C132.82 185.302 132.719 185.2 132.58 185.115C132.452 185.019 132.292 184.934 132.1 184.859C131.919 184.774 131.716 184.683 131.492 184.587L130.132 184.011C129.865 183.904 129.604 183.766 129.348 183.595C129.103 183.424 128.879 183.227 128.676 183.003C128.484 182.768 128.329 182.502 128.212 182.203C128.095 181.894 128.036 181.547 128.036 181.163C128.036 180.736 128.127 180.336 128.308 179.963C128.489 179.579 128.745 179.248 129.076 178.971C129.407 178.683 129.796 178.459 130.244 178.299C130.703 178.139 131.204 178.059 131.748 178.059C132.356 178.059 132.953 178.176 133.54 178.411C134.137 178.646 134.66 178.987 135.108 179.435L133.908 180.923C133.567 180.656 133.225 180.454 132.884 180.315C132.543 180.166 132.164 180.091 131.748 180.091C131.343 180.091 131.017 180.176 130.772 180.347C130.537 180.507 130.42 180.736 130.42 181.035C130.42 181.195 130.457 181.334 130.532 181.451C130.617 181.558 130.729 181.659 130.868 181.755C131.017 181.84 131.188 181.926 131.38 182.011C131.572 182.086 131.78 182.171 132.004 182.267L133.348 182.811C133.988 183.067 134.489 183.419 134.852 183.867C135.225 184.315 135.412 184.907 135.412 185.643C135.412 186.08 135.321 186.496 135.14 186.891C134.969 187.275 134.713 187.616 134.372 187.915C134.041 188.203 133.631 188.438 133.14 188.619C132.649 188.79 132.095 188.875 131.476 188.875ZM139.702 188.683V180.235H136.838V178.251H144.934V180.235H142.07V188.683H139.702ZM151.364 188.683V178.251H154.948C155.524 178.251 156.063 178.31 156.564 178.427C157.065 178.534 157.503 178.72 157.876 178.987C158.249 179.243 158.543 179.59 158.756 180.027C158.98 180.454 159.092 180.982 159.092 181.611C159.092 182.219 158.98 182.747 158.756 183.195C158.543 183.643 158.249 184.011 157.876 184.299C157.503 184.587 157.071 184.8 156.58 184.939C156.089 185.078 155.567 185.147 155.012 185.147H153.716V188.683H151.364ZM153.716 183.275H154.868C156.148 183.275 156.788 182.72 156.788 181.611C156.788 181.067 156.617 180.683 156.276 180.459C155.935 180.235 155.444 180.123 154.804 180.123H153.716V183.275ZM161.695 188.683V178.251H164.047V186.699H168.175V188.683H161.695ZM173.131 183.403L172.875 184.363H175.099L174.859 183.403C174.709 182.88 174.565 182.326 174.427 181.739C174.288 181.152 174.149 180.587 174.011 180.043H173.947C173.819 180.598 173.685 181.168 173.547 181.755C173.419 182.331 173.28 182.88 173.131 183.403ZM169.355 188.683L172.619 178.251H175.451L178.715 188.683H176.219L175.579 186.203H172.395L171.755 188.683H169.355ZM184.85 188.875C184.189 188.875 183.565 188.763 182.978 188.539C182.392 188.304 181.874 187.963 181.426 187.515C180.989 187.067 180.642 186.512 180.386 185.851C180.13 185.179 180.002 184.406 180.002 183.531C180.002 182.667 180.136 181.899 180.402 181.227C180.669 180.544 181.026 179.968 181.474 179.499C181.922 179.03 182.445 178.672 183.042 178.427C183.64 178.182 184.269 178.059 184.93 178.059C185.602 178.059 186.205 178.198 186.738 178.475C187.272 178.742 187.714 179.056 188.066 179.419L186.818 180.923C186.552 180.678 186.269 180.48 185.97 180.331C185.682 180.171 185.352 180.091 184.978 180.091C184.626 180.091 184.29 180.171 183.97 180.331C183.661 180.48 183.389 180.699 183.154 180.987C182.93 181.275 182.749 181.627 182.61 182.043C182.482 182.459 182.418 182.928 182.418 183.451C182.418 184.528 182.648 185.366 183.106 185.963C183.565 186.55 184.178 186.843 184.946 186.843C185.373 186.843 185.752 186.752 186.082 186.571C186.424 186.379 186.722 186.144 186.978 185.867L188.226 187.339C187.352 188.363 186.226 188.875 184.85 188.875ZM190.611 188.683V178.251H197.139V180.235H192.963V182.331H196.515V184.299H192.963V186.699H197.299V188.683H190.611Z" fill="white"/>
<ellipse cx="28.875" cy="182.684" rx="4.875" ry="4.94081" fill="#EC9D89"/>
<ellipse cx="45.9477" cy="182.193" rx="4.38966" ry="4.44892" fill="#EDBA4B"/>
<ellipse cx="63.5074" cy="182.193" rx="4.38966" ry="4.44892" fill="#A9DED9"/>
<rect x="23.2383" y="219.308" width="252.779" height="48" rx="10" fill="#E1F7F4"/>
<path d="M75.6543 249.5C74.9716 249.5 74.2889 249.377 73.6063 249.132C72.9343 248.876 72.3316 248.497 71.7983 247.996L73.1423 246.38C73.5156 246.7 73.9263 246.961 74.3743 247.164C74.8329 247.367 75.2809 247.468 75.7183 247.468C76.2089 247.468 76.5716 247.377 76.8063 247.196C77.0516 247.015 77.1743 246.769 77.1743 246.46C77.1743 246.3 77.1369 246.161 77.0623 246.044C76.9983 245.927 76.8969 245.825 76.7583 245.74C76.6303 245.644 76.4703 245.559 76.2783 245.484C76.0969 245.399 75.8943 245.308 75.6703 245.212L74.3103 244.636C74.0436 244.529 73.7823 244.391 73.5263 244.22C73.2809 244.049 73.0569 243.852 72.8543 243.628C72.6623 243.393 72.5076 243.127 72.3903 242.828C72.2729 242.519 72.2143 242.172 72.2143 241.788C72.2143 241.361 72.3049 240.961 72.4863 240.588C72.6676 240.204 72.9236 239.873 73.2543 239.596C73.5849 239.308 73.9743 239.084 74.4223 238.924C74.8809 238.764 75.3823 238.684 75.9263 238.684C76.5343 238.684 77.1316 238.801 77.7183 239.036C78.3156 239.271 78.8383 239.612 79.2863 240.06L78.0863 241.548C77.7449 241.281 77.4036 241.079 77.0623 240.94C76.7209 240.791 76.3423 240.716 75.9263 240.716C75.5209 240.716 75.1956 240.801 74.9503 240.972C74.7156 241.132 74.5983 241.361 74.5983 241.66C74.5983 241.82 74.6356 241.959 74.7103 242.076C74.7956 242.183 74.9076 242.284 75.0463 242.38C75.1956 242.465 75.3663 242.551 75.5583 242.636C75.7503 242.711 75.9583 242.796 76.1823 242.892L77.5263 243.436C78.1663 243.692 78.6676 244.044 79.0303 244.492C79.4036 244.94 79.5903 245.532 79.5903 246.268C79.5903 246.705 79.4996 247.121 79.3183 247.516C79.1476 247.9 78.8916 248.241 78.5503 248.54C78.2196 248.828 77.8089 249.063 77.3183 249.244C76.8276 249.415 76.2729 249.5 75.6543 249.5ZM85.3769 249.5C84.8756 249.5 84.3902 249.409 83.9209 249.228C83.4516 249.036 83.0356 248.764 82.6729 248.412C82.3209 248.06 82.0382 247.628 81.8249 247.116C81.6116 246.593 81.5049 246.001 81.5049 245.34C81.5049 244.679 81.6116 244.092 81.8249 243.58C82.0382 243.057 82.3209 242.62 82.6729 242.268C83.0356 241.916 83.4516 241.649 83.9209 241.468C84.3902 241.276 84.8756 241.18 85.3769 241.18C85.8782 241.18 86.3582 241.276 86.8169 241.468C87.2862 241.649 87.6969 241.916 88.0489 242.268C88.4116 242.62 88.6996 243.057 88.9129 243.58C89.1262 244.092 89.2329 244.679 89.2329 245.34C89.2329 246.001 89.1262 246.593 88.9129 247.116C88.6996 247.628 88.4116 248.06 88.0489 248.412C87.6969 248.764 87.2862 249.036 86.8169 249.228C86.3582 249.409 85.8782 249.5 85.3769 249.5ZM85.3769 247.596C85.8569 247.596 86.2196 247.393 86.4649 246.988C86.7102 246.583 86.8329 246.033 86.8329 245.34C86.8329 244.647 86.7102 244.097 86.4649 243.692C86.2196 243.287 85.8569 243.084 85.3769 243.084C84.8862 243.084 84.5182 243.287 84.2729 243.692C84.0382 244.097 83.9209 244.647 83.9209 245.34C83.9209 246.033 84.0382 246.583 84.2729 246.988C84.5182 247.393 84.8862 247.596 85.3769 247.596ZM91.6439 249.308V241.372H93.5639L93.7239 242.38H93.7879C94.1292 242.06 94.5026 241.783 94.9079 241.548C95.3132 241.303 95.7879 241.18 96.3319 241.18C97.1959 241.18 97.8199 241.463 98.2039 242.028C98.5986 242.593 98.7959 243.377 98.7959 244.38V249.308H96.4439V244.684C96.4439 244.108 96.3639 243.713 96.2039 243.5C96.0546 243.287 95.8092 243.18 95.4679 243.18C95.1692 243.18 94.9132 243.249 94.6999 243.388C94.4866 243.516 94.2519 243.703 93.9959 243.948V249.308H91.6439ZM102.48 252.412C102.235 252.412 102.027 252.396 101.856 252.364C101.685 252.343 101.52 252.305 101.36 252.252L101.776 250.46C101.851 250.481 101.936 250.503 102.032 250.524C102.128 250.545 102.219 250.556 102.304 250.556C102.699 250.556 103.003 250.46 103.216 250.268C103.429 250.076 103.589 249.825 103.696 249.516L103.808 249.1L100.752 241.372H103.12L104.256 244.78C104.373 245.143 104.48 245.511 104.576 245.884C104.672 246.257 104.773 246.641 104.88 247.036H104.944C105.029 246.663 105.115 246.289 105.2 245.916C105.296 245.532 105.392 245.153 105.488 244.78L106.448 241.372H108.704L105.952 249.388C105.76 249.889 105.557 250.327 105.344 250.7C105.141 251.084 104.901 251.399 104.624 251.644C104.357 251.9 104.048 252.092 103.696 252.22C103.355 252.348 102.949 252.412 102.48 252.412ZM114.939 249.308V238.876H117.355L120.075 244.06L121.099 246.364H121.163C121.11 245.809 121.046 245.191 120.971 244.508C120.907 243.825 120.875 243.175 120.875 242.556V238.876H123.115V249.308H120.699L117.979 244.108L116.955 241.836H116.891C116.944 242.412 117.003 243.031 117.067 243.692C117.142 244.353 117.179 244.993 117.179 245.612V249.308H114.939ZM130.732 249.5C130.07 249.5 129.446 249.388 128.86 249.164C128.273 248.929 127.756 248.588 127.308 248.14C126.87 247.692 126.524 247.137 126.268 246.476C126.012 245.804 125.884 245.031 125.884 244.156C125.884 243.292 126.017 242.524 126.284 241.852C126.55 241.169 126.908 240.593 127.356 240.124C127.804 239.655 128.326 239.297 128.924 239.052C129.521 238.807 130.15 238.684 130.812 238.684C131.484 238.684 132.086 238.823 132.62 239.1C133.153 239.367 133.596 239.681 133.948 240.044L132.7 241.548C132.433 241.303 132.15 241.105 131.852 240.956C131.564 240.796 131.233 240.716 130.86 240.716C130.508 240.716 130.172 240.796 129.852 240.956C129.542 241.105 129.27 241.324 129.036 241.612C128.812 241.9 128.63 242.252 128.492 242.668C128.364 243.084 128.3 243.553 128.3 244.076C128.3 245.153 128.529 245.991 128.988 246.588C129.446 247.175 130.06 247.468 130.828 247.468C131.254 247.468 131.633 247.377 131.964 247.196C132.305 247.004 132.604 246.769 132.86 246.492L134.108 247.964C133.233 248.988 132.108 249.5 130.732 249.5ZM140.495 249.308V238.876H142.847V242.892H146.447V238.876H148.815V249.308H146.447V244.956H142.847V249.308H140.495ZM155.437 249.5C154.871 249.5 154.343 249.409 153.853 249.228C153.362 249.036 152.935 248.764 152.573 248.412C152.21 248.049 151.927 247.612 151.725 247.1C151.522 246.588 151.421 246.001 151.421 245.34C151.421 244.7 151.527 244.124 151.741 243.612C151.954 243.089 152.231 242.652 152.573 242.3C152.925 241.937 153.325 241.66 153.773 241.468C154.221 241.276 154.685 241.18 155.165 241.18C155.73 241.18 156.221 241.276 156.637 241.468C157.063 241.66 157.415 241.927 157.693 242.268C157.981 242.609 158.194 243.015 158.333 243.484C158.471 243.943 158.541 244.444 158.541 244.988C158.541 245.201 158.53 245.404 158.509 245.596C158.487 245.788 158.466 245.932 158.445 246.028H153.693C153.799 246.604 154.034 247.031 154.397 247.308C154.77 247.575 155.223 247.708 155.757 247.708C156.322 247.708 156.893 247.532 157.469 247.18L158.253 248.604C157.847 248.881 157.394 249.1 156.893 249.26C156.402 249.42 155.917 249.5 155.437 249.5ZM153.677 244.476H156.541C156.541 244.028 156.439 243.665 156.237 243.388C156.034 243.111 155.693 242.972 155.213 242.972C154.839 242.972 154.509 243.095 154.221 243.34C153.943 243.585 153.762 243.964 153.677 244.476ZM162.794 249.5C162.431 249.5 162.101 249.436 161.802 249.308C161.514 249.191 161.269 249.025 161.066 248.812C160.863 248.588 160.703 248.332 160.586 248.044C160.479 247.756 160.426 247.441 160.426 247.1C160.426 246.268 160.778 245.617 161.482 245.148C162.186 244.679 163.322 244.364 164.89 244.204C164.869 243.852 164.762 243.575 164.57 243.372C164.389 243.159 164.079 243.052 163.642 243.052C163.301 243.052 162.959 243.116 162.618 243.244C162.287 243.372 161.93 243.548 161.546 243.772L160.698 242.22C161.21 241.911 161.743 241.66 162.298 241.468C162.863 241.276 163.461 241.18 164.09 241.18C165.114 241.18 165.893 241.473 166.426 242.06C166.97 242.636 167.242 243.537 167.242 244.764V249.308H165.322L165.162 248.492H165.098C164.757 248.791 164.399 249.036 164.026 249.228C163.653 249.409 163.242 249.5 162.794 249.5ZM163.594 247.676C163.861 247.676 164.09 247.617 164.282 247.5C164.474 247.383 164.677 247.217 164.89 247.004V245.612C164.058 245.729 163.482 245.9 163.162 246.124C162.842 246.348 162.682 246.615 162.682 246.924C162.682 247.18 162.762 247.372 162.922 247.5C163.093 247.617 163.317 247.676 163.594 247.676ZM172.863 249.5C172.373 249.5 171.925 249.404 171.519 249.212C171.125 249.02 170.783 248.748 170.495 248.396C170.218 248.033 169.999 247.596 169.839 247.084C169.69 246.572 169.615 245.991 169.615 245.34C169.615 244.689 169.706 244.108 169.887 243.596C170.079 243.084 170.325 242.652 170.623 242.3C170.933 241.937 171.285 241.66 171.679 241.468C172.085 241.276 172.495 241.18 172.911 241.18C173.359 241.18 173.727 241.255 174.015 241.404C174.303 241.553 174.586 241.756 174.863 242.012L174.767 240.796V238.092H177.119V249.308H175.199L175.039 248.524H174.975C174.698 248.801 174.373 249.036 173.999 249.228C173.626 249.409 173.247 249.5 172.863 249.5ZM173.471 247.58C173.727 247.58 173.957 247.527 174.159 247.42C174.373 247.313 174.575 247.127 174.767 246.86V243.612C174.554 243.42 174.335 243.287 174.111 243.212C173.887 243.137 173.669 243.1 173.455 243.1C173.082 243.1 172.751 243.281 172.463 243.644C172.175 243.996 172.031 244.551 172.031 245.308C172.031 246.097 172.154 246.673 172.399 247.036C172.655 247.399 173.013 247.58 173.471 247.58ZM180.003 252.252V241.372H181.923L182.083 242.156H182.147C182.457 241.879 182.803 241.649 183.187 241.468C183.582 241.276 183.987 241.18 184.403 241.18C184.883 241.18 185.315 241.276 185.699 241.468C186.083 241.66 186.409 241.932 186.675 242.284C186.942 242.636 187.145 243.063 187.283 243.564C187.433 244.055 187.507 244.604 187.507 245.212C187.507 245.895 187.411 246.503 187.219 247.036C187.038 247.559 186.787 248.007 186.467 248.38C186.158 248.743 185.801 249.02 185.395 249.212C185.001 249.404 184.59 249.5 184.163 249.5C183.822 249.5 183.491 249.431 183.171 249.292C182.851 249.143 182.553 248.935 182.275 248.668L182.355 249.932V252.252H180.003ZM183.619 247.58C184.025 247.58 184.371 247.399 184.659 247.036C184.947 246.663 185.091 246.065 185.091 245.244C185.091 243.815 184.633 243.1 183.715 243.1C183.257 243.1 182.803 243.34 182.355 243.82V247.068C182.569 247.26 182.782 247.393 182.995 247.468C183.209 247.543 183.417 247.58 183.619 247.58ZM189.975 249.308V238.092H192.327V240.844L192.215 242.268C192.514 242.001 192.86 241.756 193.255 241.532C193.65 241.297 194.119 241.18 194.663 241.18C195.527 241.18 196.151 241.463 196.535 242.028C196.93 242.593 197.127 243.377 197.127 244.38V249.308H194.775V244.684C194.775 244.108 194.695 243.713 194.535 243.5C194.386 243.287 194.14 243.18 193.799 243.18C193.5 243.18 193.244 243.249 193.031 243.388C192.818 243.516 192.583 243.703 192.327 243.948V249.308H189.975ZM203.324 249.5C202.822 249.5 202.337 249.409 201.868 249.228C201.398 249.036 200.982 248.764 200.62 248.412C200.268 248.06 199.985 247.628 199.772 247.116C199.558 246.593 199.452 246.001 199.452 245.34C199.452 244.679 199.558 244.092 199.772 243.58C199.985 243.057 200.268 242.62 200.62 242.268C200.982 241.916 201.398 241.649 201.868 241.468C202.337 241.276 202.822 241.18 203.324 241.18C203.825 241.18 204.305 241.276 204.764 241.468C205.233 241.649 205.644 241.916 205.996 242.268C206.358 242.62 206.646 243.057 206.86 243.58C207.073 244.092 207.18 244.679 207.18 245.34C207.18 246.001 207.073 246.593 206.86 247.116C206.646 247.628 206.358 248.06 205.996 248.412C205.644 248.764 205.233 249.036 204.764 249.228C204.305 249.409 203.825 249.5 203.324 249.5ZM203.324 247.596C203.804 247.596 204.166 247.393 204.412 246.988C204.657 246.583 204.78 246.033 204.78 245.34C204.78 244.647 204.657 244.097 204.412 243.692C204.166 243.287 203.804 243.084 203.324 243.084C202.833 243.084 202.465 243.287 202.22 243.692C201.985 244.097 201.868 244.647 201.868 245.34C201.868 246.033 201.985 246.583 202.22 246.988C202.465 247.393 202.833 247.596 203.324 247.596ZM209.591 249.308V241.372H211.511L211.671 242.38H211.735C212.076 242.06 212.449 241.783 212.855 241.548C213.26 241.303 213.735 241.18 214.279 241.18C215.143 241.18 215.767 241.463 216.151 242.028C216.545 242.593 216.743 243.377 216.743 244.38V249.308H214.391V244.684C214.391 244.108 214.311 243.713 214.151 243.5C214.001 243.287 213.756 243.18 213.415 243.18C213.116 243.18 212.86 243.249 212.647 243.388C212.433 243.516 212.199 243.703 211.943 243.948V249.308H209.591ZM223.099 249.5C222.534 249.5 222.006 249.409 221.515 249.228C221.024 249.036 220.598 248.764 220.235 248.412C219.872 248.049 219.59 247.612 219.387 247.1C219.184 246.588 219.083 246.001 219.083 245.34C219.083 244.7 219.19 244.124 219.403 243.612C219.616 243.089 219.894 242.652 220.235 242.3C220.587 241.937 220.987 241.66 221.435 241.468C221.883 241.276 222.347 241.18 222.827 241.18C223.392 241.18 223.883 241.276 224.299 241.468C224.726 241.66 225.078 241.927 225.355 242.268C225.643 242.609 225.856 243.015 225.995 243.484C226.134 243.943 226.203 244.444 226.203 244.988C226.203 245.201 226.192 245.404 226.171 245.596C226.15 245.788 226.128 245.932 226.107 246.028H221.355C221.462 246.604 221.696 247.031 222.059 247.308C222.432 247.575 222.886 247.708 223.419 247.708C223.984 247.708 224.555 247.532 225.131 247.18L225.915 248.604C225.51 248.881 225.056 249.1 224.555 249.26C224.064 249.42 223.579 249.5 223.099 249.5ZM221.339 244.476H224.203C224.203 244.028 224.102 243.665 223.899 243.388C223.696 243.111 223.355 242.972 222.875 242.972C222.502 242.972 222.171 243.095 221.883 243.34C221.606 243.585 221.424 243.964 221.339 244.476ZM230.964 249.5C230.442 249.5 229.903 249.399 229.348 249.196C228.804 248.993 228.33 248.727 227.924 248.396L228.98 246.924C229.343 247.201 229.69 247.409 230.02 247.548C230.351 247.687 230.687 247.756 231.028 247.756C231.38 247.756 231.636 247.697 231.796 247.58C231.956 247.463 232.036 247.297 232.036 247.084C232.036 246.956 231.988 246.844 231.892 246.748C231.807 246.641 231.684 246.545 231.524 246.46C231.375 246.375 231.204 246.3 231.012 246.236C230.82 246.161 230.623 246.081 230.42 245.996C230.175 245.9 229.93 245.788 229.684 245.66C229.439 245.532 229.215 245.377 229.012 245.196C228.81 245.004 228.644 244.785 228.516 244.54C228.388 244.284 228.324 243.991 228.324 243.66C228.324 243.297 228.394 242.961 228.532 242.652C228.682 242.343 228.89 242.081 229.156 241.868C229.423 241.655 229.743 241.489 230.116 241.372C230.49 241.244 230.906 241.18 231.364 241.18C231.972 241.18 232.506 241.287 232.964 241.5C233.423 241.703 233.823 241.932 234.164 242.188L233.108 243.596C232.82 243.383 232.538 243.217 232.26 243.1C231.983 242.983 231.706 242.924 231.428 242.924C230.831 242.924 230.532 243.132 230.532 243.548C230.532 243.676 230.575 243.788 230.66 243.884C230.746 243.969 230.858 244.049 230.996 244.124C231.146 244.199 231.311 244.273 231.492 244.348C231.684 244.412 231.882 244.481 232.084 244.556C232.34 244.652 232.591 244.764 232.836 244.892C233.092 245.009 233.322 245.159 233.524 245.34C233.738 245.521 233.908 245.745 234.036 246.012C234.164 246.268 234.228 246.577 234.228 246.94C234.228 247.303 234.159 247.639 234.02 247.948C233.882 248.257 233.674 248.529 233.396 248.764C233.119 248.988 232.778 249.169 232.372 249.308C231.967 249.436 231.498 249.5 230.964 249.5Z" fill="#23B5AF"/>
<rect x="40.2383" y="236.308" width="14" height="14" rx="3" fill="#FCFFFF"/>
<rect x="40.2383" y="236.308" width="14" height="14" rx="3" fill="url(#paint7_linear)"/>
<rect x="40.2383" y="236.308" width="14" height="14" rx="3" stroke="#A9DED9" stroke-width="2"/>
<path d="M43.875 244.645L46.168 246.634L50.6047 239.98" stroke="#A9DED9" stroke-width="2" stroke-linecap="round" stroke-linejoin="round"/>
<path d="M25.1703 278.428L24.6103 278.022L25.4083 276.706L24.0503 276.146L24.2603 275.502L25.6883 275.852L25.8143 274.34H26.5003L26.6263 275.838L28.0683 275.502L28.2783 276.146L26.9203 276.706L27.7043 278.022L27.1583 278.428L26.1643 277.224L25.1703 278.428ZM30.8958 284.308V283.356H32.9398V276.776H31.3158V276.034C31.7265 275.959 32.0812 275.871 32.3798 275.768C32.6878 275.656 32.9632 275.525 33.2058 275.376H34.0878V283.356H35.9358V284.308H30.8958ZM42.0996 287.178V277.504H43.0516L43.1496 278.288H43.1916C43.4996 278.027 43.8356 277.803 44.1996 277.616C44.5729 277.429 44.9602 277.336 45.3616 277.336C45.8002 277.336 46.1876 277.42 46.5236 277.588C46.8596 277.747 47.1396 277.98 47.3636 278.288C47.5876 278.587 47.7556 278.951 47.8676 279.38C47.9889 279.8 48.0496 280.276 48.0496 280.808C48.0496 281.387 47.9702 281.905 47.8116 282.362C47.6529 282.81 47.4382 283.193 47.1676 283.51C46.8969 283.827 46.5842 284.07 46.2296 284.238C45.8749 284.397 45.5016 284.476 45.1096 284.476C44.7922 284.476 44.4749 284.406 44.1576 284.266C43.8496 284.126 43.5369 283.935 43.2196 283.692L43.2476 284.882V287.178H42.0996ZM44.9136 283.51C45.1936 283.51 45.4502 283.449 45.6836 283.328C45.9262 283.197 46.1316 283.02 46.2996 282.796C46.4769 282.563 46.6122 282.278 46.7056 281.942C46.8082 281.606 46.8596 281.228 46.8596 280.808C46.8596 280.435 46.8269 280.094 46.7616 279.786C46.6962 279.478 46.5889 279.217 46.4396 279.002C46.2996 278.778 46.1129 278.605 45.8796 278.484C45.6556 278.363 45.3849 278.302 45.0676 278.302C44.7782 278.302 44.4842 278.381 44.1856 278.54C43.8962 278.699 43.5836 278.927 43.2476 279.226V282.796C43.5556 283.057 43.8542 283.244 44.1436 283.356C44.4329 283.459 44.6896 283.51 44.9136 283.51ZM53.3232 284.476C52.8659 284.476 52.4365 284.397 52.0352 284.238C51.6432 284.07 51.2979 283.837 50.9992 283.538C50.7099 283.23 50.4812 282.857 50.3132 282.418C50.1452 281.979 50.0612 281.48 50.0612 280.92C50.0612 280.36 50.1452 279.861 50.3132 279.422C50.4905 278.974 50.7192 278.596 50.9992 278.288C51.2885 277.98 51.6152 277.747 51.9792 277.588C52.3432 277.42 52.7212 277.336 53.1132 277.336C53.5425 277.336 53.9252 277.411 54.2612 277.56C54.6065 277.709 54.8912 277.924 55.1152 278.204C55.3485 278.484 55.5259 278.82 55.6472 279.212C55.7685 279.604 55.8292 280.043 55.8292 280.528C55.8292 280.649 55.8245 280.771 55.8152 280.892C55.8152 281.004 55.8059 281.102 55.7872 281.186H51.1952C51.2419 281.914 51.4659 282.493 51.8672 282.922C52.2779 283.342 52.8099 283.552 53.4632 283.552C53.7899 283.552 54.0885 283.505 54.3592 283.412C54.6392 283.309 54.9052 283.179 55.1572 283.02L55.5632 283.776C55.2645 283.963 54.9332 284.126 54.5692 284.266C54.2052 284.406 53.7899 284.476 53.3232 284.476ZM51.1812 280.36H54.8212C54.8212 279.669 54.6719 279.147 54.3732 278.792C54.0839 278.428 53.6732 278.246 53.1412 278.246C52.8985 278.246 52.6652 278.293 52.4412 278.386C52.2265 278.479 52.0305 278.619 51.8532 278.806C51.6759 278.983 51.5265 279.203 51.4052 279.464C51.2932 279.725 51.2185 280.024 51.1812 280.36ZM58.2105 284.308V277.504H59.1625L59.2605 278.736H59.3025C59.5358 278.307 59.8158 277.966 60.1425 277.714C60.4785 277.462 60.8425 277.336 61.2345 277.336C61.5052 277.336 61.7478 277.383 61.9625 277.476L61.7385 278.484C61.6265 278.447 61.5238 278.419 61.4305 278.4C61.3372 278.381 61.2205 278.372 61.0805 278.372C60.7912 278.372 60.4878 278.489 60.1705 278.722C59.8625 278.955 59.5918 279.361 59.3585 279.94V284.308H58.2105ZM69.4088 284.476C69.0448 284.476 68.7368 284.42 68.4848 284.308C68.2421 284.196 68.0414 284.042 67.8828 283.846C67.7334 283.65 67.6261 283.412 67.5608 283.132C67.4954 282.852 67.4628 282.544 67.4628 282.208V278.442H66.4548V277.574L67.5188 277.504L67.6588 275.6H68.6248V277.504H70.4588V278.442H68.6248V282.222C68.6248 282.642 68.6994 282.969 68.8488 283.202C69.0074 283.426 69.2828 283.538 69.6748 283.538C69.7961 283.538 69.9268 283.519 70.0668 283.482C70.2068 283.445 70.3328 283.403 70.4448 283.356L70.6688 284.224C70.4821 284.289 70.2768 284.345 70.0528 284.392C69.8381 284.448 69.6234 284.476 69.4088 284.476ZM75.2638 284.476C74.8065 284.476 74.3771 284.397 73.9758 284.238C73.5838 284.07 73.2385 283.837 72.9398 283.538C72.6505 283.23 72.4218 282.857 72.2538 282.418C72.0858 281.979 72.0018 281.48 72.0018 280.92C72.0018 280.36 72.0858 279.861 72.2538 279.422C72.4311 278.974 72.6598 278.596 72.9398 278.288C73.2291 277.98 73.5558 277.747 73.9198 277.588C74.2838 277.42 74.6618 277.336 75.0538 277.336C75.4831 277.336 75.8658 277.411 76.2018 277.56C76.5471 277.709 76.8318 277.924 77.0558 278.204C77.2891 278.484 77.4665 278.82 77.5878 279.212C77.7091 279.604 77.7698 280.043 77.7698 280.528C77.7698 280.649 77.7651 280.771 77.7558 280.892C77.7558 281.004 77.7465 281.102 77.7278 281.186H73.1358C73.1825 281.914 73.4065 282.493 73.8078 282.922C74.2185 283.342 74.7505 283.552 75.4038 283.552C75.7305 283.552 76.0291 283.505 76.2998 283.412C76.5798 283.309 76.8458 283.179 77.0978 283.02L77.5038 283.776C77.2051 283.963 76.8738 284.126 76.5098 284.266C76.1458 284.406 75.7305 284.476 75.2638 284.476ZM73.1218 280.36H76.7618C76.7618 279.669 76.6125 279.147 76.3138 278.792C76.0245 278.428 75.6138 278.246 75.0818 278.246C74.8391 278.246 74.6058 278.293 74.3818 278.386C74.1671 278.479 73.9711 278.619 73.7938 278.806C73.6165 278.983 73.4671 279.203 73.3458 279.464C73.2338 279.725 73.1591 280.024 73.1218 280.36ZM81.5277 284.476C80.9584 284.476 80.4824 284.308 80.0997 283.972C79.7264 283.636 79.5397 283.16 79.5397 282.544C79.5397 281.797 79.8711 281.228 80.5337 280.836C81.1964 280.435 82.2557 280.155 83.7117 279.996C83.7117 279.781 83.6884 279.571 83.6417 279.366C83.6044 279.161 83.5344 278.979 83.4317 278.82C83.3291 278.661 83.1844 278.535 82.9977 278.442C82.8204 278.339 82.5917 278.288 82.3117 278.288C81.9197 278.288 81.5511 278.363 81.2057 278.512C80.8604 278.661 80.5524 278.829 80.2817 279.016L79.8337 278.218C80.1511 278.013 80.5384 277.817 80.9957 277.63C81.4531 277.434 81.9571 277.336 82.5077 277.336C83.3384 277.336 83.9404 277.593 84.3137 278.106C84.6871 278.61 84.8737 279.287 84.8737 280.136V284.308H83.9217L83.8237 283.496H83.7817C83.4551 283.767 83.1051 284 82.7317 284.196C82.3584 284.383 81.9571 284.476 81.5277 284.476ZM81.8637 283.552C82.1904 283.552 82.4984 283.477 82.7877 283.328C83.0771 283.169 83.3851 282.941 83.7117 282.642V280.752C83.1424 280.827 82.6617 280.915 82.2697 281.018C81.8871 281.121 81.5744 281.242 81.3317 281.382C81.0984 281.522 80.9257 281.685 80.8137 281.872C80.7111 282.049 80.6597 282.245 80.6597 282.46C80.6597 282.852 80.7764 283.132 81.0097 283.3C81.2431 283.468 81.5277 283.552 81.8637 283.552ZM87.7144 284.308V277.504H88.6664L88.7644 278.484H88.8064C89.1051 278.157 89.4271 277.887 89.7724 277.672C90.1271 277.448 90.5097 277.336 90.9204 277.336C91.4431 277.336 91.8491 277.453 92.1384 277.686C92.4371 277.91 92.6564 278.227 92.7964 278.638C93.1511 278.246 93.5057 277.933 93.8604 277.7C94.2244 277.457 94.6164 277.336 95.0364 277.336C95.7364 277.336 96.2544 277.56 96.5904 278.008C96.9357 278.456 97.1084 279.119 97.1084 279.996V284.308H95.9604V280.15C95.9604 279.506 95.8577 279.044 95.6524 278.764C95.4471 278.475 95.1297 278.33 94.7004 278.33C94.1871 278.33 93.6177 278.68 92.9924 279.38V284.308H91.8444V280.15C91.8444 279.506 91.7417 279.044 91.5364 278.764C91.3311 278.475 91.0091 278.33 90.5704 278.33C90.0571 278.33 89.4877 278.68 88.8624 279.38V284.308H87.7144ZM103.525 284.308V277.504H104.477L104.575 278.484H104.617C104.915 278.157 105.237 277.887 105.583 277.672C105.937 277.448 106.32 277.336 106.731 277.336C107.253 277.336 107.659 277.453 107.949 277.686C108.247 277.91 108.467 278.227 108.607 278.638C108.961 278.246 109.316 277.933 109.671 277.7C110.035 277.457 110.427 277.336 110.847 277.336C111.547 277.336 112.065 277.56 112.401 278.008C112.746 278.456 112.919 279.119 112.919 279.996V284.308H111.771V280.15C111.771 279.506 111.668 279.044 111.463 278.764C111.257 278.475 110.94 278.33 110.511 278.33C109.997 278.33 109.428 278.68 108.803 279.38V284.308H107.655V280.15C107.655 279.506 107.552 279.044 107.347 278.764C107.141 278.475 106.819 278.33 106.381 278.33C105.867 278.33 105.298 278.68 104.673 279.38V284.308H103.525ZM118.59 284.476C118.133 284.476 117.703 284.397 117.302 284.238C116.91 284.07 116.565 283.837 116.266 283.538C115.977 283.23 115.748 282.857 115.58 282.418C115.412 281.979 115.328 281.48 115.328 280.92C115.328 280.36 115.412 279.861 115.58 279.422C115.757 278.974 115.986 278.596 116.266 278.288C116.555 277.98 116.882 277.747 117.246 277.588C117.61 277.42 117.988 277.336 118.38 277.336C118.809 277.336 119.192 277.411 119.528 277.56C119.873 277.709 120.158 277.924 120.382 278.204C120.615 278.484 120.793 278.82 120.914 279.212C121.035 279.604 121.096 280.043 121.096 280.528C121.096 280.649 121.091 280.771 121.082 280.892C121.082 281.004 121.073 281.102 121.054 281.186H116.462C116.509 281.914 116.733 282.493 117.134 282.922C117.545 283.342 118.077 283.552 118.73 283.552C119.057 283.552 119.355 283.505 119.626 283.412C119.906 283.309 120.172 283.179 120.424 283.02L120.83 283.776C120.531 283.963 120.2 284.126 119.836 284.266C119.472 284.406 119.057 284.476 118.59 284.476ZM116.448 280.36H120.088C120.088 279.669 119.939 279.147 119.64 278.792C119.351 278.428 118.94 278.246 118.408 278.246C118.165 278.246 117.932 278.293 117.708 278.386C117.493 278.479 117.297 278.619 117.12 278.806C116.943 278.983 116.793 279.203 116.672 279.464C116.56 279.725 116.485 280.024 116.448 280.36ZM123.477 284.308V277.504H124.429L124.527 278.484H124.569C124.868 278.157 125.19 277.887 125.535 277.672C125.89 277.448 126.273 277.336 126.683 277.336C127.206 277.336 127.612 277.453 127.901 277.686C128.2 277.91 128.419 278.227 128.559 278.638C128.914 278.246 129.269 277.933 129.623 277.7C129.987 277.457 130.379 277.336 130.799 277.336C131.499 277.336 132.017 277.56 132.353 278.008C132.699 278.456 132.871 279.119 132.871 279.996V284.308H131.723V280.15C131.723 279.506 131.621 279.044 131.415 278.764C131.21 278.475 130.893 278.33 130.463 278.33C129.95 278.33 129.381 278.68 128.755 279.38V284.308H127.607V280.15C127.607 279.506 127.505 279.044 127.299 278.764C127.094 278.475 126.772 278.33 126.333 278.33C125.82 278.33 125.251 278.68 124.625 279.38V284.308H123.477ZM138.795 284.476C138.477 284.476 138.146 284.401 137.801 284.252C137.465 284.093 137.147 283.879 136.849 283.608H136.807L136.709 284.308H135.785V274.34H136.933V277.056L136.905 278.288C137.213 278.017 137.549 277.793 137.913 277.616C138.277 277.429 138.65 277.336 139.033 277.336C139.471 277.336 139.859 277.42 140.195 277.588C140.531 277.747 140.811 277.98 141.035 278.288C141.268 278.587 141.441 278.951 141.553 279.38C141.674 279.8 141.735 280.271 141.735 280.794C141.735 281.373 141.655 281.891 141.497 282.348C141.338 282.805 141.123 283.193 140.853 283.51C140.582 283.827 140.269 284.07 139.915 284.238C139.56 284.397 139.187 284.476 138.795 284.476ZM138.599 283.51C138.879 283.51 139.135 283.449 139.369 283.328C139.611 283.197 139.817 283.02 139.985 282.796C140.162 282.563 140.297 282.278 140.391 281.942C140.493 281.606 140.545 281.228 140.545 280.808C140.545 280.435 140.512 280.094 140.447 279.786C140.381 279.478 140.274 279.217 140.125 279.002C139.985 278.778 139.798 278.605 139.565 278.484C139.341 278.363 139.07 278.302 138.753 278.302C138.202 278.302 137.595 278.61 136.933 279.226V282.796C137.231 283.057 137.525 283.244 137.815 283.356C138.113 283.459 138.375 283.51 138.599 283.51ZM146.981 284.476C146.524 284.476 146.094 284.397 145.693 284.238C145.301 284.07 144.956 283.837 144.657 283.538C144.368 283.23 144.139 282.857 143.971 282.418C143.803 281.979 143.719 281.48 143.719 280.92C143.719 280.36 143.803 279.861 143.971 279.422C144.148 278.974 144.377 278.596 144.657 278.288C144.946 277.98 145.273 277.747 145.637 277.588C146.001 277.42 146.379 277.336 146.771 277.336C147.2 277.336 147.583 277.411 147.919 277.56C148.264 277.709 148.549 277.924 148.773 278.204C149.006 278.484 149.184 278.82 149.305 279.212C149.426 279.604 149.487 280.043 149.487 280.528C149.487 280.649 149.482 280.771 149.473 280.892C149.473 281.004 149.464 281.102 149.445 281.186H144.853C144.9 281.914 145.124 282.493 145.525 282.922C145.936 283.342 146.468 283.552 147.121 283.552C147.448 283.552 147.746 283.505 148.017 283.412C148.297 283.309 148.563 283.179 148.815 283.02L149.221 283.776C148.922 283.963 148.591 284.126 148.227 284.266C147.863 284.406 147.448 284.476 146.981 284.476ZM144.839 280.36H148.479C148.479 279.669 148.33 279.147 148.031 278.792C147.742 278.428 147.331 278.246 146.799 278.246C146.556 278.246 146.323 278.293 146.099 278.386C145.884 278.479 145.688 278.619 145.511 278.806C145.334 278.983 145.184 279.203 145.063 279.464C144.951 279.725 144.876 280.024 144.839 280.36ZM151.868 284.308V277.504H152.82L152.918 278.736H152.96C153.194 278.307 153.474 277.966 153.8 277.714C154.136 277.462 154.5 277.336 154.892 277.336C155.163 277.336 155.406 277.383 155.62 277.476L155.396 278.484C155.284 278.447 155.182 278.419 155.088 278.4C154.995 278.381 154.878 278.372 154.738 278.372C154.449 278.372 154.146 278.489 153.828 278.722C153.52 278.955 153.25 279.361 153.016 279.94V284.308H151.868Z" fill="#717171"/>
<defs>
<linearGradient id="paint0_linear" x1="134.037" y1="215.11" x2="68.3438" y2="1.60642" gradientUnits="userSpaceOnUse">
<stop stop-color="#E8795D"/>
<stop offset="1" stop-color="white" stop-opacity="0"/>
</linearGradient>
<linearGradient id="paint1_linear" x1="48.728" y1="65.0794" x2="150.005" y2="184.605" gradientUnits="userSpaceOnUse">
<stop stop-color="#FAE0A1"/>
<stop offset="1" stop-color="white" stop-opacity="0"/>
</linearGradient>
<linearGradient id="paint2_linear" x1="150.005" y1="0.298334" x2="212.505" y2="170.919" gradientUnits="userSpaceOnUse">
<stop stop-color="#FAE0A1"/>
<stop offset="1" stop-color="white" stop-opacity="0"/>
</linearGradient>
<linearGradient id="paint3_linear" x1="226.642" y1="19.4594" x2="149.544" y2="167.27" gradientUnits="userSpaceOnUse">
<stop stop-color="#FAE0A1"/>
<stop offset="1" stop-color="white" stop-opacity="0"/>
</linearGradient>
<linearGradient id="paint4_linear" x1="38.6861" y1="39.5324" x2="149.544" y2="167.27" gradientUnits="userSpaceOnUse">
<stop stop-color="#FAE0A1"/>
<stop offset="1" stop-color="white" stop-opacity="0"/>
</linearGradient>
<linearGradient id="paint5_linear" x1="112.637" y1="23.9307" x2="177.31" y2="125.494" gradientUnits="userSpaceOnUse">
<stop stop-color="#EDBA4B"/>
<stop offset="1" stop-color="white" stop-opacity="0"/>
</linearGradient>
<linearGradient id="paint6_linear" x1="150" y1="162.058" x2="150" y2="308.281" gradientUnits="userSpaceOnUse">
<stop stop-color="white"/>
<stop offset="1" stop-color="white" stop-opacity="0"/>
</linearGradient>
<linearGradient id="paint7_linear" x1="47.2383" y1="235.308" x2="47.2383" y2="251.308" gradientUnits="userSpaceOnUse">
<stop stop-color="white"/>
<stop offset="1" stop-color="white" stop-opacity="0"/>
</linearGradient>
</defs>
</svg>
