<svg xmlns="http://www.w3.org/2000/svg" width="300" height="309" fill="none" viewBox="0 0 300 309"><path fill="#A9DED9" d="M268.841 124.303C177.593 95.9975 76.2787 111.409 30.6696 124.315C27.8178 125.122 26.9392 128.645 28.9837 130.791L43.5769 146.107C44.508 147.084 44.8835 148.464 44.5755 149.779L39.3149 172.224C38.5853 175.337 41.6455 178.01 44.6625 176.951C138 144.184 219.246 160.718 255.575 175.943C258.71 177.257 262.168 174.46 261.392 171.149L256.356 149.661C256.063 148.412 256.387 147.099 257.227 146.129L270.625 130.662C272.492 128.506 271.565 125.147 268.841 124.303Z"/><path fill="url(#paint0_linear)" d="M268.841 124.303C177.593 95.9975 76.2787 111.409 30.6696 124.315C27.8178 125.122 26.9392 128.645 28.9837 130.791L43.5769 146.107C44.508 147.084 44.8835 148.464 44.5755 149.779L39.3149 172.224C38.5853 175.337 41.6455 178.01 44.6625 176.951C138 144.184 219.246 160.718 255.575 175.943C258.71 177.257 262.168 174.46 261.392 171.149L256.356 149.661C256.063 148.412 256.387 147.099 257.227 146.129L270.625 130.662C272.492 128.506 271.565 125.147 268.841 124.303Z"/><circle cx="150.004" cy="92.452" r="91.153" fill="#C4C4C4"/><circle cx="150.004" cy="92.452" r="91.153" fill="url(#paint1_linear)"/><circle cx="150.004" cy="92.452" r="91.153" stroke="#BBB" stroke-width="2"/><circle cx="150.004" cy="92.452" r="91.153" stroke="url(#paint2_linear)" stroke-width="2"/><circle cx="149.547" cy="91.996" r="74.774" fill="#717171"/><circle cx="149.547" cy="91.996" r="74.774" fill="url(#paint3_linear)"/><circle cx="149.547" cy="91.996" r="74.774" stroke="#CCC"/><circle cx="149.547" cy="91.996" r="74.774" stroke="url(#paint4_linear)"/><path fill="#D5D5D5" d="M127.54 125.93V116.522C131.124 113.194 134.452 110.058 137.524 107.114C140.66 104.17 143.38 101.418 145.684 98.8582C147.988 96.2342 149.78 93.7702 151.06 91.4662C152.404 89.0982 153.076 86.8902 153.076 84.8422C153.076 82.0902 152.372 80.0742 150.964 78.7942C149.62 77.4502 147.828 76.7782 145.588 76.7782C143.54 76.7782 141.716 77.3862 140.116 78.6022C138.58 79.7542 137.076 81.0662 135.604 82.5382L126.772 73.7062C128.372 72.0422 129.94 70.6022 131.476 69.3862C133.012 68.1062 134.612 67.0822 136.276 66.3142C138.004 65.4822 139.796 64.8742 141.652 64.4902C143.572 64.1062 145.652 63.9142 147.892 63.9142C150.964 63.9142 153.78 64.3942 156.34 65.3542C158.9 66.3142 161.108 67.6582 162.964 69.3862C164.82 71.1142 166.26 73.2262 167.284 75.7222C168.308 78.1542 168.82 80.8742 168.82 83.8822C168.82 86.3142 168.276 88.8102 167.188 91.3702C166.164 93.8662 164.82 96.3622 163.156 98.8582C161.492 101.354 159.604 103.786 157.492 106.154C155.444 108.522 153.396 110.762 151.348 112.874C152.884 112.682 154.612 112.522 156.532 112.394C158.516 112.202 160.18 112.106 161.524 112.106H171.7V125.93H127.54Z"/><path fill="url(#paint5_linear)" d="M127.54 125.93V116.522C131.124 113.194 134.452 110.058 137.524 107.114C140.66 104.17 143.38 101.418 145.684 98.8582C147.988 96.2342 149.78 93.7702 151.06 91.4662C152.404 89.0982 153.076 86.8902 153.076 84.8422C153.076 82.0902 152.372 80.0742 150.964 78.7942C149.62 77.4502 147.828 76.7782 145.588 76.7782C143.54 76.7782 141.716 77.3862 140.116 78.6022C138.58 79.7542 137.076 81.0662 135.604 82.5382L126.772 73.7062C128.372 72.0422 129.94 70.6022 131.476 69.3862C133.012 68.1062 134.612 67.0822 136.276 66.3142C138.004 65.4822 139.796 64.8742 141.652 64.4902C143.572 64.1062 145.652 63.9142 147.892 63.9142C150.964 63.9142 153.78 64.3942 156.34 65.3542C158.9 66.3142 161.108 67.6582 162.964 69.3862C164.82 71.1142 166.26 73.2262 167.284 75.7222C168.308 78.1542 168.82 80.8742 168.82 83.8822C168.82 86.3142 168.276 88.8102 167.188 91.3702C166.164 93.8662 164.82 96.3622 163.156 98.8582C161.492 101.354 159.604 103.786 157.492 106.154C155.444 108.522 153.396 110.762 151.348 112.874C152.884 112.682 154.612 112.522 156.532 112.394C158.516 112.202 160.18 112.106 161.524 112.106H171.7V125.93H127.54Z"/><rect width="292" height="138.223" x="4" y="166.058" fill="#FCFFFF" rx="20"/><rect width="292" height="138.223" x="4" y="166.058" fill="url(#paint6_linear)" rx="20"/><rect width="292" height="138.223" x="4" y="166.058" stroke="#A9DED9" stroke-width="8" rx="20"/><path fill="#23B5AF" d="M300 203.308V186.058C300 172.803 289.255 162.058 276 162.058H272.922H245.845H234.432H206.977H193.178H165.582H110.388H20.626C9.2351 162.058 0.000976562 171.292 0.000976562 182.683V203.308H300Z"/><path fill="#fff" d="M96.9574 188.875C96.2747 188.875 95.5921 188.752 94.9094 188.507C94.2374 188.251 93.6347 187.872 93.1014 187.371L94.4454 185.755C94.8187 186.075 95.2294 186.336 95.6774 186.539C96.1361 186.742 96.5841 186.843 97.0214 186.843C97.5121 186.843 97.8747 186.752 98.1094 186.571C98.3547 186.39 98.4774 186.144 98.4774 185.835C98.4774 185.675 98.4401 185.536 98.3654 185.419C98.3014 185.302 98.2001 185.2 98.0614 185.115C97.9334 185.019 97.7734 184.934 97.5814 184.859C97.4001 184.774 97.1974 184.683 96.9734 184.587L95.6134 184.011C95.3467 183.904 95.0854 183.766 94.8294 183.595C94.5841 183.424 94.3601 183.227 94.1574 183.003C93.9654 182.768 93.8107 182.502 93.6934 182.203C93.5761 181.894 93.5174 181.547 93.5174 181.163C93.5174 180.736 93.6081 180.336 93.7894 179.963C93.9707 179.579 94.2267 179.248 94.5574 178.971C94.8881 178.683 95.2774 178.459 95.7254 178.299C96.1841 178.139 96.6854 178.059 97.2294 178.059C97.8374 178.059 98.4347 178.176 99.0214 178.411C99.6187 178.646 100.141 178.987 100.589 179.435L99.3894 180.923C99.0481 180.656 98.7067 180.454 98.3654 180.315C98.0241 180.166 97.6454 180.091 97.2294 180.091C96.8241 180.091 96.4987 180.176 96.2534 180.347C96.0187 180.507 95.9014 180.736 95.9014 181.035C95.9014 181.195 95.9387 181.334 96.0134 181.451C96.0987 181.558 96.2107 181.659 96.3494 181.755C96.4987 181.84 96.6694 181.926 96.8614 182.011C97.0534 182.086 97.2614 182.171 97.4854 182.267L98.8294 182.811C99.4694 183.067 99.9707 183.419 100.333 183.867C100.707 184.315 100.893 184.907 100.893 185.643C100.893 186.08 100.803 186.496 100.621 186.891C100.451 187.275 100.195 187.616 99.8534 187.915C99.5227 188.203 99.1121 188.438 98.6214 188.619C98.1307 188.79 97.5761 188.875 96.9574 188.875ZM103.464 188.683V178.251H109.992V180.235H105.816V182.331H109.368V184.299H105.816V186.699H110.152V188.683H103.464ZM117.382 188.875C116.72 188.875 116.096 188.763 115.51 188.539C114.923 188.304 114.406 187.963 113.958 187.515C113.52 187.067 113.174 186.512 112.918 185.851C112.662 185.179 112.534 184.406 112.534 183.531C112.534 182.667 112.667 181.899 112.934 181.227C113.2 180.544 113.558 179.968 114.006 179.499C114.454 179.03 114.976 178.672 115.574 178.427C116.171 178.182 116.8 178.059 117.462 178.059C118.134 178.059 118.736 178.198 119.27 178.475C119.803 178.742 120.246 179.056 120.598 179.419L119.35 180.923C119.083 180.678 118.8 180.48 118.502 180.331C118.214 180.171 117.883 180.091 117.51 180.091C117.158 180.091 116.822 180.171 116.502 180.331C116.192 180.48 115.92 180.699 115.686 180.987C115.462 181.275 115.28 181.627 115.142 182.043C115.014 182.459 114.95 182.928 114.95 183.451C114.95 184.528 115.179 185.366 115.638 185.963C116.096 186.55 116.71 186.843 117.478 186.843C117.904 186.843 118.283 186.752 118.614 186.571C118.955 186.379 119.254 186.144 119.51 185.867L120.758 187.339C119.883 188.363 118.758 188.875 117.382 188.875ZM126.788 188.875C126.084 188.875 125.439 188.752 124.852 188.507C124.276 188.251 123.78 187.888 123.364 187.419C122.948 186.95 122.623 186.379 122.388 185.707C122.164 185.035 122.052 184.272 122.052 183.419C122.052 182.566 122.164 181.808 122.388 181.147C122.623 180.475 122.948 179.915 123.364 179.467C123.78 179.008 124.276 178.662 124.852 178.427C125.439 178.182 126.084 178.059 126.788 178.059C127.492 178.059 128.132 178.182 128.708 178.427C129.295 178.662 129.796 179.008 130.212 179.467C130.628 179.926 130.948 180.491 131.172 181.163C131.407 181.824 131.524 182.576 131.524 183.419C131.524 184.272 131.407 185.035 131.172 185.707C130.948 186.379 130.628 186.95 130.212 187.419C129.796 187.888 129.295 188.251 128.708 188.507C128.132 188.752 127.492 188.875 126.788 188.875ZM126.788 186.843C127.503 186.843 128.068 186.539 128.484 185.931C128.9 185.312 129.108 184.475 129.108 183.419C129.108 182.374 128.9 181.558 128.484 180.971C128.068 180.384 127.503 180.091 126.788 180.091C126.074 180.091 125.508 180.384 125.092 180.971C124.676 181.558 124.468 182.374 124.468 183.419C124.468 184.475 124.676 185.312 125.092 185.931C125.508 186.539 126.074 186.843 126.788 186.843ZM134.286 188.683V178.251H136.702L139.422 183.435L140.446 185.739H140.51C140.457 185.184 140.393 184.566 140.318 183.883C140.254 183.2 140.222 182.55 140.222 181.931V178.251H142.462V188.683H140.046L137.326 183.483L136.302 181.211H136.238C136.291 181.787 136.35 182.406 136.414 183.067C136.489 183.728 136.526 184.368 136.526 184.987V188.683H134.286ZM145.727 188.683V178.251H148.671C149.471 178.251 150.191 178.352 150.831 178.555C151.471 178.758 152.02 179.072 152.479 179.499C152.937 179.915 153.289 180.448 153.535 181.099C153.78 181.75 153.903 182.523 153.903 183.419C153.903 184.315 153.78 185.094 153.535 185.755C153.289 186.416 152.943 186.966 152.495 187.403C152.047 187.83 151.508 188.15 150.879 188.363C150.26 188.576 149.567 188.683 148.799 188.683H145.727ZM148.079 186.779H148.527C148.975 186.779 149.38 186.72 149.743 186.603C150.105 186.486 150.415 186.299 150.671 186.043C150.927 185.776 151.124 185.43 151.263 185.003C151.412 184.576 151.487 184.048 151.487 183.419C151.487 182.8 151.412 182.283 151.263 181.867C151.124 181.44 150.927 181.104 150.671 180.859C150.415 180.603 150.105 180.422 149.743 180.315C149.38 180.208 148.975 180.155 148.527 180.155H148.079V186.779ZM160.686 188.683V178.251H164.27C164.846 178.251 165.385 178.31 165.886 178.427C166.387 178.534 166.825 178.72 167.198 178.987C167.571 179.243 167.865 179.59 168.078 180.027C168.302 180.454 168.414 180.982 168.414 181.611C168.414 182.219 168.302 182.747 168.078 183.195C167.865 183.643 167.571 184.011 167.198 184.299C166.825 184.587 166.393 184.8 165.902 184.939C165.411 185.078 164.889 185.147 164.334 185.147H163.038V188.683H160.686ZM163.038 183.275H164.19C165.47 183.275 166.11 182.72 166.11 181.611C166.11 181.067 165.939 180.683 165.598 180.459C165.257 180.235 164.766 180.123 164.126 180.123H163.038V183.275ZM171.017 188.683V178.251H173.369V186.699H177.497V188.683H171.017ZM182.453 183.403L182.197 184.363H184.421L184.181 183.403C184.031 182.88 183.887 182.326 183.749 181.739C183.61 181.152 183.471 180.587 183.333 180.043H183.269C183.141 180.598 183.007 181.168 182.869 181.755C182.741 182.331 182.602 182.88 182.453 183.403ZM178.677 188.683L181.941 178.251H184.773L188.037 188.683H185.541L184.901 186.203H181.717L181.077 188.683H178.677ZM194.172 188.875C193.511 188.875 192.887 188.763 192.3 188.539C191.714 188.304 191.196 187.963 190.748 187.515C190.311 187.067 189.964 186.512 189.708 185.851C189.452 185.179 189.324 184.406 189.324 183.531C189.324 182.667 189.458 181.899 189.724 181.227C189.991 180.544 190.348 179.968 190.796 179.499C191.244 179.03 191.767 178.672 192.364 178.427C192.962 178.182 193.591 178.059 194.252 178.059C194.924 178.059 195.527 178.198 196.06 178.475C196.594 178.742 197.036 179.056 197.388 179.419L196.14 180.923C195.874 180.678 195.591 180.48 195.292 180.331C195.004 180.171 194.674 180.091 194.3 180.091C193.948 180.091 193.612 180.171 193.292 180.331C192.983 180.48 192.711 180.699 192.476 180.987C192.252 181.275 192.071 181.627 191.932 182.043C191.804 182.459 191.74 182.928 191.74 183.451C191.74 184.528 191.97 185.366 192.428 185.963C192.887 186.55 193.5 186.843 194.268 186.843C194.695 186.843 195.074 186.752 195.404 186.571C195.746 186.379 196.044 186.144 196.3 185.867L197.548 187.339C196.674 188.363 195.548 188.875 194.172 188.875ZM199.933 188.683V178.251H206.461V180.235H202.285V182.331H205.837V184.299H202.285V186.699H206.621V188.683H199.933Z"/><ellipse cx="28.879" cy="182.683" fill="#EC9D89" rx="4.875" ry="4.941"/><ellipse cx="45.952" cy="182.682" fill="#EDBA4B" rx="4.39" ry="4.449"/><ellipse cx="63.511" cy="182.682" fill="#A9DED9" rx="4.39" ry="4.449"/><rect width="252.779" height="48" x="23.238" y="219.308" fill="#E1F7F4" rx="10"/><path fill="#23B5AF" d="M75.6543 249.5C74.9716 249.5 74.2889 249.377 73.6063 249.132C72.9343 248.876 72.3316 248.497 71.7983 247.996L73.1423 246.38C73.5156 246.7 73.9263 246.961 74.3743 247.164C74.8329 247.367 75.2809 247.468 75.7183 247.468C76.2089 247.468 76.5716 247.377 76.8063 247.196C77.0516 247.015 77.1743 246.769 77.1743 246.46C77.1743 246.3 77.1369 246.161 77.0623 246.044C76.9983 245.927 76.8969 245.825 76.7583 245.74C76.6303 245.644 76.4703 245.559 76.2783 245.484C76.0969 245.399 75.8943 245.308 75.6703 245.212L74.3103 244.636C74.0436 244.529 73.7823 244.391 73.5263 244.22C73.2809 244.049 73.0569 243.852 72.8543 243.628C72.6623 243.393 72.5076 243.127 72.3903 242.828C72.2729 242.519 72.2143 242.172 72.2143 241.788C72.2143 241.361 72.3049 240.961 72.4863 240.588C72.6676 240.204 72.9236 239.873 73.2543 239.596C73.5849 239.308 73.9743 239.084 74.4223 238.924C74.8809 238.764 75.3823 238.684 75.9263 238.684C76.5343 238.684 77.1316 238.801 77.7183 239.036C78.3156 239.271 78.8383 239.612 79.2863 240.06L78.0863 241.548C77.7449 241.281 77.4036 241.079 77.0623 240.94C76.7209 240.791 76.3423 240.716 75.9263 240.716C75.5209 240.716 75.1956 240.801 74.9503 240.972C74.7156 241.132 74.5983 241.361 74.5983 241.66C74.5983 241.82 74.6356 241.959 74.7103 242.076C74.7956 242.183 74.9076 242.284 75.0463 242.38C75.1956 242.465 75.3663 242.551 75.5583 242.636C75.7503 242.711 75.9583 242.796 76.1823 242.892L77.5263 243.436C78.1663 243.692 78.6676 244.044 79.0303 244.492C79.4036 244.94 79.5903 245.532 79.5903 246.268C79.5903 246.705 79.4996 247.121 79.3183 247.516C79.1476 247.9 78.8916 248.241 78.5503 248.54C78.2196 248.828 77.8089 249.063 77.3183 249.244C76.8276 249.415 76.2729 249.5 75.6543 249.5ZM83.2969 249.308L81.3129 241.372H83.6489L84.4169 245.052C84.4809 245.447 84.5396 245.836 84.5929 246.22C84.6462 246.604 84.7049 246.999 84.7689 247.404H84.8329C84.9076 246.999 84.9769 246.599 85.0409 246.204C85.1156 245.809 85.2009 245.425 85.2969 245.052L86.1769 241.372H88.2089L89.1049 245.052C89.2009 245.447 89.2862 245.836 89.3609 246.22C89.4356 246.604 89.5156 246.999 89.6009 247.404H89.6649C89.7396 246.999 89.7982 246.604 89.8409 246.22C89.8942 245.836 89.9582 245.447 90.0329 245.052L90.7849 241.372H92.9609L91.0569 249.308H88.3049L87.5849 246.14C87.4996 245.767 87.4249 245.393 87.3609 245.02C87.2969 244.647 87.2276 244.247 87.1529 243.82H87.0889C87.0142 244.247 86.9449 244.647 86.8809 245.02C86.8276 245.393 86.7636 245.767 86.6889 246.14L85.9849 249.308H83.2969ZM95.1908 249.308V241.372H97.5428V249.308H95.1908ZM96.3588 240.204C95.9641 240.204 95.6388 240.092 95.3828 239.868C95.1268 239.633 94.9988 239.335 94.9988 238.972C94.9988 238.609 95.1268 238.316 95.3828 238.092C95.6388 237.868 95.9641 237.756 96.3588 237.756C96.7641 237.756 97.0894 237.868 97.3348 238.092C97.5908 238.316 97.7188 238.609 97.7188 238.972C97.7188 239.335 97.5908 239.633 97.3348 239.868C97.0894 240.092 96.7641 240.204 96.3588 240.204ZM103.469 249.5C102.978 249.5 102.557 249.425 102.205 249.276C101.863 249.127 101.581 248.919 101.357 248.652C101.143 248.385 100.983 248.065 100.877 247.692C100.781 247.308 100.733 246.887 100.733 246.428V243.212H99.6446V241.468L100.861 241.372L101.133 239.26H103.085V241.372H104.989V243.212H103.085V246.396C103.085 246.844 103.175 247.169 103.357 247.372C103.549 247.564 103.799 247.66 104.109 247.66C104.237 247.66 104.365 247.644 104.493 247.612C104.631 247.58 104.754 247.543 104.861 247.5L105.229 249.212C105.015 249.276 104.765 249.34 104.477 249.404C104.189 249.468 103.853 249.5 103.469 249.5ZM110.512 249.5C109.958 249.5 109.44 249.409 108.96 249.228C108.491 249.036 108.08 248.764 107.728 248.412C107.376 248.06 107.099 247.628 106.896 247.116C106.694 246.593 106.592 246.001 106.592 245.34C106.592 244.679 106.704 244.092 106.928 243.58C107.152 243.057 107.451 242.62 107.824 242.268C108.208 241.916 108.651 241.649 109.152 241.468C109.654 241.276 110.176 241.18 110.72 241.18C111.211 241.18 111.643 241.26 112.016 241.42C112.4 241.58 112.742 241.783 113.04 242.028L111.936 243.548C111.563 243.239 111.206 243.084 110.864 243.084C110.288 243.084 109.835 243.287 109.504 243.692C109.174 244.097 109.008 244.647 109.008 245.34C109.008 246.033 109.174 246.583 109.504 246.988C109.846 247.393 110.272 247.596 110.784 247.596C111.04 247.596 111.286 247.543 111.52 247.436C111.766 247.319 111.995 247.18 112.208 247.02L113.136 248.556C112.742 248.897 112.315 249.143 111.856 249.292C111.398 249.431 110.95 249.5 110.512 249.5ZM115.325 249.308V238.092H117.677V240.844L117.565 242.268C117.864 242.001 118.21 241.756 118.605 241.532C119 241.297 119.469 241.18 120.013 241.18C120.877 241.18 121.501 241.463 121.885 242.028C122.28 242.593 122.477 243.377 122.477 244.38V249.308H120.125V244.684C120.125 244.108 120.045 243.713 119.885 243.5C119.736 243.287 119.49 243.18 119.149 243.18C118.85 243.18 118.594 243.249 118.381 243.388C118.168 243.516 117.933 243.703 117.677 243.948V249.308H115.325ZM129.461 249.308V238.876H131.813V247.324H135.941V249.308H129.461ZM138.35 249.308V241.372H140.702V249.308H138.35ZM139.518 240.204C139.123 240.204 138.798 240.092 138.542 239.868C138.286 239.633 138.158 239.335 138.158 238.972C138.158 238.609 138.286 238.316 138.542 238.092C138.798 237.868 139.123 237.756 139.518 237.756C139.923 237.756 140.249 237.868 140.494 238.092C140.75 238.316 140.878 238.609 140.878 238.972C140.878 239.335 140.75 239.633 140.494 239.868C140.249 240.092 139.923 240.204 139.518 240.204ZM146.628 249.5C146.137 249.5 145.716 249.425 145.364 249.276C145.023 249.127 144.74 248.919 144.516 248.652C144.303 248.385 144.143 248.065 144.036 247.692C143.94 247.308 143.892 246.887 143.892 246.428V243.212H142.804V241.468L144.02 241.372L144.292 239.26H146.244V241.372H148.148V243.212H146.244V246.396C146.244 246.844 146.335 247.169 146.516 247.372C146.708 247.564 146.959 247.66 147.268 247.66C147.396 247.66 147.524 247.644 147.652 247.612C147.791 247.58 147.913 247.543 148.02 247.5L148.388 249.212C148.175 249.276 147.924 249.34 147.636 249.404C147.348 249.468 147.012 249.5 146.628 249.5ZM153.768 249.5C153.202 249.5 152.674 249.409 152.184 249.228C151.693 249.036 151.266 248.764 150.904 248.412C150.541 248.049 150.258 247.612 150.056 247.1C149.853 246.588 149.752 246.001 149.752 245.34C149.752 244.7 149.858 244.124 150.072 243.612C150.285 243.089 150.562 242.652 150.904 242.3C151.256 241.937 151.656 241.66 152.104 241.468C152.552 241.276 153.016 241.18 153.496 241.18C154.061 241.18 154.552 241.276 154.968 241.468C155.394 241.66 155.746 241.927 156.024 242.268C156.312 242.609 156.525 243.015 156.664 243.484C156.802 243.943 156.872 244.444 156.872 244.988C156.872 245.201 156.861 245.404 156.84 245.596C156.818 245.788 156.797 245.932 156.776 246.028H152.024C152.13 246.604 152.365 247.031 152.728 247.308C153.101 247.575 153.554 247.708 154.088 247.708C154.653 247.708 155.224 247.532 155.8 247.18L156.584 248.604C156.178 248.881 155.725 249.1 155.224 249.26C154.733 249.42 154.248 249.5 153.768 249.5ZM152.008 244.476H154.872C154.872 244.028 154.77 243.665 154.568 243.388C154.365 243.111 154.024 242.972 153.544 242.972C153.17 242.972 152.84 243.095 152.552 243.34C152.274 243.585 152.093 243.964 152.008 244.476Z"/><rect width="14" height="14" x="40.238" y="236.308" fill="#FCFFFF" rx="3"/><rect width="14" height="14" x="40.238" y="236.308" fill="url(#paint7_linear)" rx="3"/><rect width="14" height="14" x="40.238" y="236.308" stroke="#A9DED9" stroke-width="2" rx="3"/><path stroke="#A9DED9" stroke-linecap="round" stroke-linejoin="round" stroke-width="2" d="M43.875 244.645L46.168 246.634L50.6047 239.98"/><path fill="#717171" d="M25.1703 278.428L24.6103 278.022L25.4083 276.706L24.0503 276.146L24.2603 275.502L25.6883 275.852L25.8143 274.34H26.5003L26.6263 275.838L28.0683 275.502L28.2783 276.146L26.9203 276.706L27.7043 278.022L27.1583 278.428L26.1643 277.224L25.1703 278.428ZM30.8958 284.308V283.356H32.9398V276.776H31.3158V276.034C31.7265 275.959 32.0812 275.871 32.3798 275.768C32.6878 275.656 32.9632 275.525 33.2058 275.376H34.0878V283.356H35.9358V284.308H30.8958ZM42.0996 287.178V277.504H43.0516L43.1496 278.288H43.1916C43.4996 278.027 43.8356 277.803 44.1996 277.616C44.5729 277.429 44.9602 277.336 45.3616 277.336C45.8002 277.336 46.1876 277.42 46.5236 277.588C46.8596 277.747 47.1396 277.98 47.3636 278.288C47.5876 278.587 47.7556 278.951 47.8676 279.38C47.9889 279.8 48.0496 280.276 48.0496 280.808C48.0496 281.387 47.9702 281.905 47.8116 282.362C47.6529 282.81 47.4382 283.193 47.1676 283.51C46.8969 283.827 46.5842 284.07 46.2296 284.238C45.8749 284.397 45.5016 284.476 45.1096 284.476C44.7922 284.476 44.4749 284.406 44.1576 284.266C43.8496 284.126 43.5369 283.935 43.2196 283.692L43.2476 284.882V287.178H42.0996ZM44.9136 283.51C45.1936 283.51 45.4502 283.449 45.6836 283.328C45.9262 283.197 46.1316 283.02 46.2996 282.796C46.4769 282.563 46.6122 282.278 46.7056 281.942C46.8082 281.606 46.8596 281.228 46.8596 280.808C46.8596 280.435 46.8269 280.094 46.7616 279.786C46.6962 279.478 46.5889 279.217 46.4396 279.002C46.2996 278.778 46.1129 278.605 45.8796 278.484C45.6556 278.363 45.3849 278.302 45.0676 278.302C44.7782 278.302 44.4842 278.381 44.1856 278.54C43.8962 278.699 43.5836 278.927 43.2476 279.226V282.796C43.5556 283.057 43.8542 283.244 44.1436 283.356C44.4329 283.459 44.6896 283.51 44.9136 283.51ZM53.3232 284.476C52.8659 284.476 52.4365 284.397 52.0352 284.238C51.6432 284.07 51.2979 283.837 50.9992 283.538C50.7099 283.23 50.4812 282.857 50.3132 282.418C50.1452 281.979 50.0612 281.48 50.0612 280.92C50.0612 280.36 50.1452 279.861 50.3132 279.422C50.4905 278.974 50.7192 278.596 50.9992 278.288C51.2885 277.98 51.6152 277.747 51.9792 277.588C52.3432 277.42 52.7212 277.336 53.1132 277.336C53.5425 277.336 53.9252 277.411 54.2612 277.56C54.6065 277.709 54.8912 277.924 55.1152 278.204C55.3485 278.484 55.5259 278.82 55.6472 279.212C55.7685 279.604 55.8292 280.043 55.8292 280.528C55.8292 280.649 55.8245 280.771 55.8152 280.892C55.8152 281.004 55.8059 281.102 55.7872 281.186H51.1952C51.2419 281.914 51.4659 282.493 51.8672 282.922C52.2779 283.342 52.8099 283.552 53.4632 283.552C53.7899 283.552 54.0885 283.505 54.3592 283.412C54.6392 283.309 54.9052 283.179 55.1572 283.02L55.5632 283.776C55.2645 283.963 54.9332 284.126 54.5692 284.266C54.2052 284.406 53.7899 284.476 53.3232 284.476ZM51.1812 280.36H54.8212C54.8212 279.669 54.6719 279.147 54.3732 278.792C54.0839 278.428 53.6732 278.246 53.1412 278.246C52.8985 278.246 52.6652 278.293 52.4412 278.386C52.2265 278.479 52.0305 278.619 51.8532 278.806C51.6759 278.983 51.5265 279.203 51.4052 279.464C51.2932 279.725 51.2185 280.024 51.1812 280.36ZM58.2105 284.308V277.504H59.1625L59.2605 278.736H59.3025C59.5358 278.307 59.8158 277.966 60.1425 277.714C60.4785 277.462 60.8425 277.336 61.2345 277.336C61.5052 277.336 61.7478 277.383 61.9625 277.476L61.7385 278.484C61.6265 278.447 61.5238 278.419 61.4305 278.4C61.3372 278.381 61.2205 278.372 61.0805 278.372C60.7912 278.372 60.4878 278.489 60.1705 278.722C59.8625 278.955 59.5918 279.361 59.3585 279.94V284.308H58.2105ZM69.4088 284.476C69.0448 284.476 68.7368 284.42 68.4848 284.308C68.2421 284.196 68.0414 284.042 67.8828 283.846C67.7334 283.65 67.6261 283.412 67.5608 283.132C67.4954 282.852 67.4628 282.544 67.4628 282.208V278.442H66.4548V277.574L67.5188 277.504L67.6588 275.6H68.6248V277.504H70.4588V278.442H68.6248V282.222C68.6248 282.642 68.6994 282.969 68.8488 283.202C69.0074 283.426 69.2828 283.538 69.6748 283.538C69.7961 283.538 69.9268 283.519 70.0668 283.482C70.2068 283.445 70.3328 283.403 70.4448 283.356L70.6688 284.224C70.4821 284.289 70.2768 284.345 70.0528 284.392C69.8381 284.448 69.6234 284.476 69.4088 284.476ZM75.2638 284.476C74.8065 284.476 74.3771 284.397 73.9758 284.238C73.5838 284.07 73.2385 283.837 72.9398 283.538C72.6505 283.23 72.4218 282.857 72.2538 282.418C72.0858 281.979 72.0018 281.48 72.0018 280.92C72.0018 280.36 72.0858 279.861 72.2538 279.422C72.4311 278.974 72.6598 278.596 72.9398 278.288C73.2291 277.98 73.5558 277.747 73.9198 277.588C74.2838 277.42 74.6618 277.336 75.0538 277.336C75.4831 277.336 75.8658 277.411 76.2018 277.56C76.5471 277.709 76.8318 277.924 77.0558 278.204C77.2891 278.484 77.4665 278.82 77.5878 279.212C77.7091 279.604 77.7698 280.043 77.7698 280.528C77.7698 280.649 77.7651 280.771 77.7558 280.892C77.7558 281.004 77.7465 281.102 77.7278 281.186H73.1358C73.1825 281.914 73.4065 282.493 73.8078 282.922C74.2185 283.342 74.7505 283.552 75.4038 283.552C75.7305 283.552 76.0291 283.505 76.2998 283.412C76.5798 283.309 76.8458 283.179 77.0978 283.02L77.5038 283.776C77.2051 283.963 76.8738 284.126 76.5098 284.266C76.1458 284.406 75.7305 284.476 75.2638 284.476ZM73.1218 280.36H76.7618C76.7618 279.669 76.6125 279.147 76.3138 278.792C76.0245 278.428 75.6138 278.246 75.0818 278.246C74.8391 278.246 74.6058 278.293 74.3818 278.386C74.1671 278.479 73.9711 278.619 73.7938 278.806C73.6165 278.983 73.4671 279.203 73.3458 279.464C73.2338 279.725 73.1591 280.024 73.1218 280.36ZM81.5277 284.476C80.9584 284.476 80.4824 284.308 80.0997 283.972C79.7264 283.636 79.5397 283.16 79.5397 282.544C79.5397 281.797 79.8711 281.228 80.5337 280.836C81.1964 280.435 82.2557 280.155 83.7117 279.996C83.7117 279.781 83.6884 279.571 83.6417 279.366C83.6044 279.161 83.5344 278.979 83.4317 278.82C83.3291 278.661 83.1844 278.535 82.9977 278.442C82.8204 278.339 82.5917 278.288 82.3117 278.288C81.9197 278.288 81.5511 278.363 81.2057 278.512C80.8604 278.661 80.5524 278.829 80.2817 279.016L79.8337 278.218C80.1511 278.013 80.5384 277.817 80.9957 277.63C81.4531 277.434 81.9571 277.336 82.5077 277.336C83.3384 277.336 83.9404 277.593 84.3137 278.106C84.6871 278.61 84.8737 279.287 84.8737 280.136V284.308H83.9217L83.8237 283.496H83.7817C83.4551 283.767 83.1051 284 82.7317 284.196C82.3584 284.383 81.9571 284.476 81.5277 284.476ZM81.8637 283.552C82.1904 283.552 82.4984 283.477 82.7877 283.328C83.0771 283.169 83.3851 282.941 83.7117 282.642V280.752C83.1424 280.827 82.6617 280.915 82.2697 281.018C81.8871 281.121 81.5744 281.242 81.3317 281.382C81.0984 281.522 80.9257 281.685 80.8137 281.872C80.7111 282.049 80.6597 282.245 80.6597 282.46C80.6597 282.852 80.7764 283.132 81.0097 283.3C81.2431 283.468 81.5277 283.552 81.8637 283.552ZM87.7144 284.308V277.504H88.6664L88.7644 278.484H88.8064C89.1051 278.157 89.4271 277.887 89.7724 277.672C90.1271 277.448 90.5097 277.336 90.9204 277.336C91.4431 277.336 91.8491 277.453 92.1384 277.686C92.4371 277.91 92.6564 278.227 92.7964 278.638C93.1511 278.246 93.5057 277.933 93.8604 277.7C94.2244 277.457 94.6164 277.336 95.0364 277.336C95.7364 277.336 96.2544 277.56 96.5904 278.008C96.9357 278.456 97.1084 279.119 97.1084 279.996V284.308H95.9604V280.15C95.9604 279.506 95.8577 279.044 95.6524 278.764C95.4471 278.475 95.1297 278.33 94.7004 278.33C94.1871 278.33 93.6177 278.68 92.9924 279.38V284.308H91.8444V280.15C91.8444 279.506 91.7417 279.044 91.5364 278.764C91.3311 278.475 91.0091 278.33 90.5704 278.33C90.0571 278.33 89.4877 278.68 88.8624 279.38V284.308H87.7144ZM103.525 284.308V277.504H104.477L104.575 278.484H104.617C104.915 278.157 105.237 277.887 105.583 277.672C105.937 277.448 106.32 277.336 106.731 277.336C107.253 277.336 107.659 277.453 107.949 277.686C108.247 277.91 108.467 278.227 108.607 278.638C108.961 278.246 109.316 277.933 109.671 277.7C110.035 277.457 110.427 277.336 110.847 277.336C111.547 277.336 112.065 277.56 112.401 278.008C112.746 278.456 112.919 279.119 112.919 279.996V284.308H111.771V280.15C111.771 279.506 111.668 279.044 111.463 278.764C111.257 278.475 110.94 278.33 110.511 278.33C109.997 278.33 109.428 278.68 108.803 279.38V284.308H107.655V280.15C107.655 279.506 107.552 279.044 107.347 278.764C107.141 278.475 106.819 278.33 106.381 278.33C105.867 278.33 105.298 278.68 104.673 279.38V284.308H103.525ZM118.59 284.476C118.133 284.476 117.703 284.397 117.302 284.238C116.91 284.07 116.565 283.837 116.266 283.538C115.977 283.23 115.748 282.857 115.58 282.418C115.412 281.979 115.328 281.48 115.328 280.92C115.328 280.36 115.412 279.861 115.58 279.422C115.757 278.974 115.986 278.596 116.266 278.288C116.555 277.98 116.882 277.747 117.246 277.588C117.61 277.42 117.988 277.336 118.38 277.336C118.809 277.336 119.192 277.411 119.528 277.56C119.873 277.709 120.158 277.924 120.382 278.204C120.615 278.484 120.793 278.82 120.914 279.212C121.035 279.604 121.096 280.043 121.096 280.528C121.096 280.649 121.091 280.771 121.082 280.892C121.082 281.004 121.073 281.102 121.054 281.186H116.462C116.509 281.914 116.733 282.493 117.134 282.922C117.545 283.342 118.077 283.552 118.73 283.552C119.057 283.552 119.355 283.505 119.626 283.412C119.906 283.309 120.172 283.179 120.424 283.02L120.83 283.776C120.531 283.963 120.2 284.126 119.836 284.266C119.472 284.406 119.057 284.476 118.59 284.476ZM116.448 280.36H120.088C120.088 279.669 119.939 279.147 119.64 278.792C119.351 278.428 118.94 278.246 118.408 278.246C118.165 278.246 117.932 278.293 117.708 278.386C117.493 278.479 117.297 278.619 117.12 278.806C116.943 278.983 116.793 279.203 116.672 279.464C116.56 279.725 116.485 280.024 116.448 280.36ZM123.477 284.308V277.504H124.429L124.527 278.484H124.569C124.868 278.157 125.19 277.887 125.535 277.672C125.89 277.448 126.273 277.336 126.683 277.336C127.206 277.336 127.612 277.453 127.901 277.686C128.2 277.91 128.419 278.227 128.559 278.638C128.914 278.246 129.269 277.933 129.623 277.7C129.987 277.457 130.379 277.336 130.799 277.336C131.499 277.336 132.017 277.56 132.353 278.008C132.699 278.456 132.871 279.119 132.871 279.996V284.308H131.723V280.15C131.723 279.506 131.621 279.044 131.415 278.764C131.21 278.475 130.893 278.33 130.463 278.33C129.95 278.33 129.381 278.68 128.755 279.38V284.308H127.607V280.15C127.607 279.506 127.505 279.044 127.299 278.764C127.094 278.475 126.772 278.33 126.333 278.33C125.82 278.33 125.251 278.68 124.625 279.38V284.308H123.477ZM138.795 284.476C138.477 284.476 138.146 284.401 137.801 284.252C137.465 284.093 137.147 283.879 136.849 283.608H136.807L136.709 284.308H135.785V274.34H136.933V277.056L136.905 278.288C137.213 278.017 137.549 277.793 137.913 277.616C138.277 277.429 138.65 277.336 139.033 277.336C139.471 277.336 139.859 277.42 140.195 277.588C140.531 277.747 140.811 277.98 141.035 278.288C141.268 278.587 141.441 278.951 141.553 279.38C141.674 279.8 141.735 280.271 141.735 280.794C141.735 281.373 141.655 281.891 141.497 282.348C141.338 282.805 141.123 283.193 140.853 283.51C140.582 283.827 140.269 284.07 139.915 284.238C139.56 284.397 139.187 284.476 138.795 284.476ZM138.599 283.51C138.879 283.51 139.135 283.449 139.369 283.328C139.611 283.197 139.817 283.02 139.985 282.796C140.162 282.563 140.297 282.278 140.391 281.942C140.493 281.606 140.545 281.228 140.545 280.808C140.545 280.435 140.512 280.094 140.447 279.786C140.381 279.478 140.274 279.217 140.125 279.002C139.985 278.778 139.798 278.605 139.565 278.484C139.341 278.363 139.07 278.302 138.753 278.302C138.202 278.302 137.595 278.61 136.933 279.226V282.796C137.231 283.057 137.525 283.244 137.815 283.356C138.113 283.459 138.375 283.51 138.599 283.51ZM146.981 284.476C146.524 284.476 146.094 284.397 145.693 284.238C145.301 284.07 144.956 283.837 144.657 283.538C144.368 283.23 144.139 282.857 143.971 282.418C143.803 281.979 143.719 281.48 143.719 280.92C143.719 280.36 143.803 279.861 143.971 279.422C144.148 278.974 144.377 278.596 144.657 278.288C144.946 277.98 145.273 277.747 145.637 277.588C146.001 277.42 146.379 277.336 146.771 277.336C147.2 277.336 147.583 277.411 147.919 277.56C148.264 277.709 148.549 277.924 148.773 278.204C149.006 278.484 149.184 278.82 149.305 279.212C149.426 279.604 149.487 280.043 149.487 280.528C149.487 280.649 149.482 280.771 149.473 280.892C149.473 281.004 149.464 281.102 149.445 281.186H144.853C144.9 281.914 145.124 282.493 145.525 282.922C145.936 283.342 146.468 283.552 147.121 283.552C147.448 283.552 147.746 283.505 148.017 283.412C148.297 283.309 148.563 283.179 148.815 283.02L149.221 283.776C148.922 283.963 148.591 284.126 148.227 284.266C147.863 284.406 147.448 284.476 146.981 284.476ZM144.839 280.36H148.479C148.479 279.669 148.33 279.147 148.031 278.792C147.742 278.428 147.331 278.246 146.799 278.246C146.556 278.246 146.323 278.293 146.099 278.386C145.884 278.479 145.688 278.619 145.511 278.806C145.334 278.983 145.184 279.203 145.063 279.464C144.951 279.725 144.876 280.024 144.839 280.36ZM151.868 284.308V277.504H152.82L152.918 278.736H152.96C153.194 278.307 153.474 277.966 153.8 277.714C154.136 277.462 154.5 277.336 154.892 277.336C155.163 277.336 155.406 277.383 155.62 277.476L155.396 278.484C155.284 278.447 155.182 278.419 155.088 278.4C154.995 278.381 154.878 278.372 154.738 278.372C154.449 278.372 154.146 278.489 153.828 278.722C153.52 278.955 153.25 279.361 153.016 279.94V284.308H151.868Z"/><defs><linearGradient id="paint0_linear" x1="149.547" x2="125.824" y1="222.397" y2="46.302" gradientUnits="userSpaceOnUse"><stop stop-color="#23B5AF"/><stop offset="1" stop-color="#fff" stop-opacity="0"/></linearGradient><linearGradient id="paint1_linear" x1="249.913" x2="57.851" y1="177.306" y2="92.452" gradientUnits="userSpaceOnUse"><stop stop-color="#717171"/><stop offset="1" stop-color="#fff" stop-opacity="0"/></linearGradient><linearGradient id="paint2_linear" x1="233.49" x2="150.004" y1="188.255" y2="184.605" gradientUnits="userSpaceOnUse"><stop stop-color="#9A9A9A"/><stop offset="1" stop-color="#fff" stop-opacity="0"/></linearGradient><linearGradient id="paint3_linear" x1="297.813" x2="35.496" y1="16.723" y2="255.774" gradientUnits="userSpaceOnUse"><stop stop-color="#fff"/><stop offset="0" stop-color="#E9E9E9"/><stop offset="1" stop-color="#fff" stop-opacity="0"/></linearGradient><linearGradient id="paint4_linear" x1="212.503" x2="74.273" y1="161.339" y2="80.591" gradientUnits="userSpaceOnUse"><stop stop-color="#797979"/><stop offset="1" stop-color="#fff" stop-opacity="0"/></linearGradient><linearGradient id="paint5_linear" x1="87.962" x2="150.005" y1="55.93" y2="121.624" gradientUnits="userSpaceOnUse"><stop stop-color="#FCFCFC"/><stop offset="1" stop-color="#fff" stop-opacity="0"/></linearGradient><linearGradient id="paint6_linear" x1="150" x2="150" y1="162.058" y2="308.281" gradientUnits="userSpaceOnUse"><stop stop-color="#fff"/><stop offset="1" stop-color="#fff" stop-opacity="0"/></linearGradient><linearGradient id="paint7_linear" x1="47.238" x2="47.238" y1="235.308" y2="251.308" gradientUnits="userSpaceOnUse"><stop stop-color="#fff"/><stop offset="1" stop-color="#fff" stop-opacity="0"/></linearGradient></defs></svg>