<svg width="300" height="420" viewBox="0 0 300 420" fill="none" xmlns="http://www.w3.org/2000/svg">
<path d="M268.841 124.303C177.593 95.9975 76.2787 111.409 30.6696 124.315C27.8178 125.122 26.9392 128.645 28.9837 130.791L43.5769 146.107C44.508 147.084 44.8835 148.464 44.5755 149.779L39.3149 172.224C38.5853 175.337 41.6455 178.01 44.6625 176.951C138 144.184 219.246 160.718 255.575 175.943C258.71 177.257 262.168 174.46 261.392 171.149L256.356 149.661C256.063 148.412 256.387 147.099 257.227 146.129L270.625 130.662C272.492 128.506 271.565 125.147 268.841 124.303Z" fill="#A9DED9"/>
<path d="M268.841 124.303C177.593 95.9975 76.2787 111.409 30.6696 124.315C27.8178 125.122 26.9392 128.645 28.9837 130.791L43.5769 146.107C44.508 147.084 44.8835 148.464 44.5755 149.779L39.3149 172.224C38.5853 175.337 41.6455 178.01 44.6625 176.951C138 144.184 219.246 160.718 255.575 175.943C258.71 177.257 262.168 174.46 261.392 171.149L256.356 149.661C256.063 148.412 256.387 147.099 257.227 146.129L270.625 130.662C272.492 128.506 271.565 125.147 268.841 124.303Z" fill="url(#paint0_linear)"/>
<circle cx="150.004" cy="92.4521" r="91.1533" fill="#C4C4C4"/>
<circle cx="150.004" cy="92.4521" r="91.1533" fill="url(#paint1_linear)"/>
<circle cx="150.004" cy="92.4521" r="91.1533" stroke="#BBBBBB" stroke-width="2"/>
<circle cx="150.004" cy="92.4521" r="91.1533" stroke="url(#paint2_linear)" stroke-width="2"/>
<circle cx="149.547" cy="91.9964" r="74.7737" fill="#717171"/>
<circle cx="149.547" cy="91.9964" r="74.7737" fill="url(#paint3_linear)"/>
<circle cx="149.547" cy="91.9964" r="74.7737" stroke="#CCCCCC"/>
<circle cx="149.547" cy="91.9964" r="74.7737" stroke="url(#paint4_linear)"/>
<path d="M127.54 125.93V116.522C131.124 113.194 134.452 110.058 137.524 107.114C140.66 104.17 143.38 101.418 145.684 98.8582C147.988 96.2342 149.78 93.7702 151.06 91.4662C152.404 89.0982 153.076 86.8902 153.076 84.8422C153.076 82.0902 152.372 80.0742 150.964 78.7942C149.62 77.4502 147.828 76.7782 145.588 76.7782C143.54 76.7782 141.716 77.3862 140.116 78.6022C138.58 79.7542 137.076 81.0662 135.604 82.5382L126.772 73.7062C128.372 72.0422 129.94 70.6022 131.476 69.3862C133.012 68.1062 134.612 67.0822 136.276 66.3142C138.004 65.4822 139.796 64.8742 141.652 64.4902C143.572 64.1062 145.652 63.9142 147.892 63.9142C150.964 63.9142 153.78 64.3942 156.34 65.3542C158.9 66.3142 161.108 67.6582 162.964 69.3862C164.82 71.1142 166.26 73.2262 167.284 75.7222C168.308 78.1542 168.82 80.8742 168.82 83.8822C168.82 86.3142 168.276 88.8102 167.188 91.3702C166.164 93.8662 164.82 96.3622 163.156 98.8582C161.492 101.354 159.604 103.786 157.492 106.154C155.444 108.522 153.396 110.762 151.348 112.874C152.884 112.682 154.612 112.522 156.532 112.394C158.516 112.202 160.18 112.106 161.524 112.106H171.7V125.93H127.54Z" fill="#D5D5D5"/>
<path d="M127.54 125.93V116.522C131.124 113.194 134.452 110.058 137.524 107.114C140.66 104.17 143.38 101.418 145.684 98.8582C147.988 96.2342 149.78 93.7702 151.06 91.4662C152.404 89.0982 153.076 86.8902 153.076 84.8422C153.076 82.0902 152.372 80.0742 150.964 78.7942C149.62 77.4502 147.828 76.7782 145.588 76.7782C143.54 76.7782 141.716 77.3862 140.116 78.6022C138.58 79.7542 137.076 81.0662 135.604 82.5382L126.772 73.7062C128.372 72.0422 129.94 70.6022 131.476 69.3862C133.012 68.1062 134.612 67.0822 136.276 66.3142C138.004 65.4822 139.796 64.8742 141.652 64.4902C143.572 64.1062 145.652 63.9142 147.892 63.9142C150.964 63.9142 153.78 64.3942 156.34 65.3542C158.9 66.3142 161.108 67.6582 162.964 69.3862C164.82 71.1142 166.26 73.2262 167.284 75.7222C168.308 78.1542 168.82 80.8742 168.82 83.8822C168.82 86.3142 168.276 88.8102 167.188 91.3702C166.164 93.8662 164.82 96.3622 163.156 98.8582C161.492 101.354 159.604 103.786 157.492 106.154C155.444 108.522 153.396 110.762 151.348 112.874C152.884 112.682 154.612 112.522 156.532 112.394C158.516 112.202 160.18 112.106 161.524 112.106H171.7V125.93H127.54Z" fill="url(#paint5_linear)"/>
<rect x="4" y="166.058" width="292" height="249.257" rx="20" fill="#FCFFFF"/>
<rect x="4" y="166.058" width="292" height="249.257" rx="20" fill="url(#paint6_linear)"/>
<rect x="4" y="166.058" width="292" height="249.257" rx="20" stroke="#A9DED9" stroke-width="8"/>
<path d="M300 203.308V186.058C300 172.803 289.255 162.058 276 162.058H272.922H245.845H234.432H206.977H193.178H165.582H110.388H20.626C9.2351 162.058 0.000976562 171.292 0.000976562 182.683V203.308H300Z" fill="#23B5AF"/>
<path d="M96.9574 188.875C96.2747 188.875 95.5921 188.752 94.9094 188.507C94.2374 188.251 93.6347 187.872 93.1014 187.371L94.4454 185.755C94.8187 186.075 95.2294 186.336 95.6774 186.539C96.1361 186.742 96.5841 186.843 97.0214 186.843C97.5121 186.843 97.8747 186.752 98.1094 186.571C98.3547 186.39 98.4774 186.144 98.4774 185.835C98.4774 185.675 98.4401 185.536 98.3654 185.419C98.3014 185.302 98.2001 185.2 98.0614 185.115C97.9334 185.019 97.7734 184.934 97.5814 184.859C97.4001 184.774 97.1974 184.683 96.9734 184.587L95.6134 184.011C95.3467 183.904 95.0854 183.766 94.8294 183.595C94.5841 183.424 94.3601 183.227 94.1574 183.003C93.9654 182.768 93.8107 182.502 93.6934 182.203C93.5761 181.894 93.5174 181.547 93.5174 181.163C93.5174 180.736 93.6081 180.336 93.7894 179.963C93.9707 179.579 94.2267 179.248 94.5574 178.971C94.8881 178.683 95.2774 178.459 95.7254 178.299C96.1841 178.139 96.6854 178.059 97.2294 178.059C97.8374 178.059 98.4347 178.176 99.0214 178.411C99.6187 178.646 100.141 178.987 100.589 179.435L99.3894 180.923C99.0481 180.656 98.7067 180.454 98.3654 180.315C98.0241 180.166 97.6454 180.091 97.2294 180.091C96.8241 180.091 96.4987 180.176 96.2534 180.347C96.0187 180.507 95.9014 180.736 95.9014 181.035C95.9014 181.195 95.9387 181.334 96.0134 181.451C96.0987 181.558 96.2107 181.659 96.3494 181.755C96.4987 181.84 96.6694 181.926 96.8614 182.011C97.0534 182.086 97.2614 182.171 97.4854 182.267L98.8294 182.811C99.4694 183.067 99.9707 183.419 100.333 183.867C100.707 184.315 100.893 184.907 100.893 185.643C100.893 186.08 100.803 186.496 100.621 186.891C100.451 187.275 100.195 187.616 99.8534 187.915C99.5227 188.203 99.1121 188.438 98.6214 188.619C98.1307 188.79 97.5761 188.875 96.9574 188.875ZM103.464 188.683V178.251H109.992V180.235H105.816V182.331H109.368V184.299H105.816V186.699H110.152V188.683H103.464ZM117.382 188.875C116.72 188.875 116.096 188.763 115.51 188.539C114.923 188.304 114.406 187.963 113.958 187.515C113.52 187.067 113.174 186.512 112.918 185.851C112.662 185.179 112.534 184.406 112.534 183.531C112.534 182.667 112.667 181.899 112.934 181.227C113.2 180.544 113.558 179.968 114.006 179.499C114.454 179.03 114.976 178.672 115.574 178.427C116.171 178.182 116.8 178.059 117.462 178.059C118.134 178.059 118.736 178.198 119.27 178.475C119.803 178.742 120.246 179.056 120.598 179.419L119.35 180.923C119.083 180.678 118.8 180.48 118.502 180.331C118.214 180.171 117.883 180.091 117.51 180.091C117.158 180.091 116.822 180.171 116.502 180.331C116.192 180.48 115.92 180.699 115.686 180.987C115.462 181.275 115.28 181.627 115.142 182.043C115.014 182.459 114.95 182.928 114.95 183.451C114.95 184.528 115.179 185.366 115.638 185.963C116.096 186.55 116.71 186.843 117.478 186.843C117.904 186.843 118.283 186.752 118.614 186.571C118.955 186.379 119.254 186.144 119.51 185.867L120.758 187.339C119.883 188.363 118.758 188.875 117.382 188.875ZM126.788 188.875C126.084 188.875 125.439 188.752 124.852 188.507C124.276 188.251 123.78 187.888 123.364 187.419C122.948 186.95 122.623 186.379 122.388 185.707C122.164 185.035 122.052 184.272 122.052 183.419C122.052 182.566 122.164 181.808 122.388 181.147C122.623 180.475 122.948 179.915 123.364 179.467C123.78 179.008 124.276 178.662 124.852 178.427C125.439 178.182 126.084 178.059 126.788 178.059C127.492 178.059 128.132 178.182 128.708 178.427C129.295 178.662 129.796 179.008 130.212 179.467C130.628 179.926 130.948 180.491 131.172 181.163C131.407 181.824 131.524 182.576 131.524 183.419C131.524 184.272 131.407 185.035 131.172 185.707C130.948 186.379 130.628 186.95 130.212 187.419C129.796 187.888 129.295 188.251 128.708 188.507C128.132 188.752 127.492 188.875 126.788 188.875ZM126.788 186.843C127.503 186.843 128.068 186.539 128.484 185.931C128.9 185.312 129.108 184.475 129.108 183.419C129.108 182.374 128.9 181.558 128.484 180.971C128.068 180.384 127.503 180.091 126.788 180.091C126.074 180.091 125.508 180.384 125.092 180.971C124.676 181.558 124.468 182.374 124.468 183.419C124.468 184.475 124.676 185.312 125.092 185.931C125.508 186.539 126.074 186.843 126.788 186.843ZM134.286 188.683V178.251H136.702L139.422 183.435L140.446 185.739H140.51C140.457 185.184 140.393 184.566 140.318 183.883C140.254 183.2 140.222 182.55 140.222 181.931V178.251H142.462V188.683H140.046L137.326 183.483L136.302 181.211H136.238C136.291 181.787 136.35 182.406 136.414 183.067C136.489 183.728 136.526 184.368 136.526 184.987V188.683H134.286ZM145.727 188.683V178.251H148.671C149.471 178.251 150.191 178.352 150.831 178.555C151.471 178.758 152.02 179.072 152.479 179.499C152.937 179.915 153.289 180.448 153.535 181.099C153.78 181.75 153.903 182.523 153.903 183.419C153.903 184.315 153.78 185.094 153.535 185.755C153.289 186.416 152.943 186.966 152.495 187.403C152.047 187.83 151.508 188.15 150.879 188.363C150.26 188.576 149.567 188.683 148.799 188.683H145.727ZM148.079 186.779H148.527C148.975 186.779 149.38 186.72 149.743 186.603C150.105 186.486 150.415 186.299 150.671 186.043C150.927 185.776 151.124 185.43 151.263 185.003C151.412 184.576 151.487 184.048 151.487 183.419C151.487 182.8 151.412 182.283 151.263 181.867C151.124 181.44 150.927 181.104 150.671 180.859C150.415 180.603 150.105 180.422 149.743 180.315C149.38 180.208 148.975 180.155 148.527 180.155H148.079V186.779ZM160.686 188.683V178.251H164.27C164.846 178.251 165.385 178.31 165.886 178.427C166.387 178.534 166.825 178.72 167.198 178.987C167.571 179.243 167.865 179.59 168.078 180.027C168.302 180.454 168.414 180.982 168.414 181.611C168.414 182.219 168.302 182.747 168.078 183.195C167.865 183.643 167.571 184.011 167.198 184.299C166.825 184.587 166.393 184.8 165.902 184.939C165.411 185.078 164.889 185.147 164.334 185.147H163.038V188.683H160.686ZM163.038 183.275H164.19C165.47 183.275 166.11 182.72 166.11 181.611C166.11 181.067 165.939 180.683 165.598 180.459C165.257 180.235 164.766 180.123 164.126 180.123H163.038V183.275ZM171.017 188.683V178.251H173.369V186.699H177.497V188.683H171.017ZM182.453 183.403L182.197 184.363H184.421L184.181 183.403C184.031 182.88 183.887 182.326 183.749 181.739C183.61 181.152 183.471 180.587 183.333 180.043H183.269C183.141 180.598 183.007 181.168 182.869 181.755C182.741 182.331 182.602 182.88 182.453 183.403ZM178.677 188.683L181.941 178.251H184.773L188.037 188.683H185.541L184.901 186.203H181.717L181.077 188.683H178.677ZM194.172 188.875C193.511 188.875 192.887 188.763 192.3 188.539C191.714 188.304 191.196 187.963 190.748 187.515C190.311 187.067 189.964 186.512 189.708 185.851C189.452 185.179 189.324 184.406 189.324 183.531C189.324 182.667 189.458 181.899 189.724 181.227C189.991 180.544 190.348 179.968 190.796 179.499C191.244 179.03 191.767 178.672 192.364 178.427C192.962 178.182 193.591 178.059 194.252 178.059C194.924 178.059 195.527 178.198 196.06 178.475C196.594 178.742 197.036 179.056 197.388 179.419L196.14 180.923C195.874 180.678 195.591 180.48 195.292 180.331C195.004 180.171 194.674 180.091 194.3 180.091C193.948 180.091 193.612 180.171 193.292 180.331C192.983 180.48 192.711 180.699 192.476 180.987C192.252 181.275 192.071 181.627 191.932 182.043C191.804 182.459 191.74 182.928 191.74 183.451C191.74 184.528 191.97 185.366 192.428 185.963C192.887 186.55 193.5 186.843 194.268 186.843C194.695 186.843 195.074 186.752 195.404 186.571C195.746 186.379 196.044 186.144 196.3 185.867L197.548 187.339C196.674 188.363 195.548 188.875 194.172 188.875ZM199.933 188.683V178.251H206.461V180.235H202.285V182.331H205.837V184.299H202.285V186.699H206.621V188.683H199.933Z" fill="white"/>
<ellipse cx="28.8789" cy="182.683" rx="4.875" ry="4.94081" fill="#EC9D89"/>
<ellipse cx="45.9522" cy="182.682" rx="4.38966" ry="4.44892" fill="#EDBA4B"/>
<ellipse cx="63.5108" cy="182.682" rx="4.38966" ry="4.44892" fill="#A9DED9"/>
<rect x="23.2383" y="219.308" width="252.779" height="48" rx="10" fill="#E1F7F4"/>
<path d="M76.8223 249.5C76.1609 249.5 75.5369 249.388 74.9503 249.164C74.3636 248.929 73.8463 248.588 73.3983 248.14C72.9609 247.692 72.6143 247.137 72.3583 246.476C72.1023 245.804 71.9743 245.031 71.9743 244.156C71.9743 243.292 72.1076 242.524 72.3743 241.852C72.6409 241.169 72.9983 240.593 73.4463 240.124C73.8943 239.655 74.4169 239.297 75.0143 239.052C75.6116 238.807 76.2409 238.684 76.9023 238.684C77.5743 238.684 78.1769 238.823 78.7103 239.1C79.2436 239.367 79.6863 239.681 80.0383 240.044L78.7903 241.548C78.5236 241.303 78.2409 241.105 77.9423 240.956C77.6543 240.796 77.3236 240.716 76.9503 240.716C76.5983 240.716 76.2623 240.796 75.9423 240.956C75.6329 241.105 75.3609 241.324 75.1263 241.612C74.9023 241.9 74.7209 242.252 74.5823 242.668C74.4543 243.084 74.3903 243.553 74.3903 244.076C74.3903 245.153 74.6196 245.991 75.0783 246.588C75.5369 247.175 76.1503 247.468 76.9183 247.468C77.3449 247.468 77.7236 247.377 78.0543 247.196C78.3956 247.004 78.6943 246.769 78.9503 246.492L80.1983 247.964C79.3236 248.988 78.1983 249.5 76.8223 249.5ZM85.7988 249.5C85.2974 249.5 84.8121 249.409 84.3428 249.228C83.8734 249.036 83.4574 248.764 83.0948 248.412C82.7428 248.06 82.4601 247.628 82.2468 247.116C82.0334 246.593 81.9268 246.001 81.9268 245.34C81.9268 244.679 82.0334 244.092 82.2468 243.58C82.4601 243.057 82.7428 242.62 83.0948 242.268C83.4574 241.916 83.8734 241.649 84.3428 241.468C84.8121 241.276 85.2974 241.18 85.7988 241.18C86.3001 241.18 86.7801 241.276 87.2388 241.468C87.7081 241.649 88.1188 241.916 88.4708 242.268C88.8334 242.62 89.1214 243.057 89.3348 243.58C89.5481 244.092 89.6548 244.679 89.6548 245.34C89.6548 246.001 89.5481 246.593 89.3348 247.116C89.1214 247.628 88.8334 248.06 88.4708 248.412C88.1188 248.764 87.7081 249.036 87.2388 249.228C86.7801 249.409 86.3001 249.5 85.7988 249.5ZM85.7988 247.596C86.2788 247.596 86.6414 247.393 86.8868 246.988C87.1321 246.583 87.2548 246.033 87.2548 245.34C87.2548 244.647 87.1321 244.097 86.8868 243.692C86.6414 243.287 86.2788 243.084 85.7988 243.084C85.3081 243.084 84.9401 243.287 84.6948 243.692C84.4601 244.097 84.3428 244.647 84.3428 245.34C84.3428 246.033 84.4601 246.583 84.6948 246.988C84.9401 247.393 85.3081 247.596 85.7988 247.596ZM92.0658 249.308V241.372H93.9858L94.1458 242.396H94.2098C94.5404 242.065 94.8924 241.783 95.2658 241.548C95.6391 241.303 96.0871 241.18 96.6098 241.18C97.1751 241.18 97.6284 241.297 97.9698 241.532C98.3218 241.756 98.5991 242.081 98.8018 242.508C99.1538 242.145 99.5218 241.836 99.9058 241.58C100.3 241.313 100.764 241.18 101.298 241.18C102.151 241.18 102.775 241.468 103.17 242.044C103.575 242.609 103.778 243.388 103.778 244.38V249.308H101.426V244.684C101.426 244.108 101.346 243.713 101.186 243.5C101.036 243.287 100.791 243.18 100.45 243.18C100.055 243.18 99.6018 243.436 99.0898 243.948V249.308H96.7378V244.684C96.7378 244.108 96.6578 243.713 96.4978 243.5C96.3484 243.287 96.1031 243.18 95.7618 243.18C95.3564 243.18 94.9084 243.436 94.4178 243.948V249.308H92.0658ZM106.585 249.308V241.372H108.937V249.308H106.585ZM107.753 240.204C107.358 240.204 107.033 240.092 106.777 239.868C106.521 239.633 106.393 239.335 106.393 238.972C106.393 238.609 106.521 238.316 106.777 238.092C107.033 237.868 107.358 237.756 107.753 237.756C108.158 237.756 108.483 237.868 108.729 238.092C108.985 238.316 109.113 238.609 109.113 238.972C109.113 239.335 108.985 239.633 108.729 239.868C108.483 240.092 108.158 240.204 107.753 240.204ZM111.806 249.308V241.372H113.726L113.886 242.38H113.95C114.292 242.06 114.665 241.783 115.07 241.548C115.476 241.303 115.95 241.18 116.494 241.18C117.358 241.18 117.982 241.463 118.366 242.028C118.761 242.593 118.958 243.377 118.958 244.38V249.308H116.606V244.684C116.606 244.108 116.526 243.713 116.366 243.5C116.217 243.287 115.972 243.18 115.63 243.18C115.332 243.18 115.076 243.249 114.862 243.388C114.649 243.516 114.414 243.703 114.158 243.948V249.308H111.806ZM124.595 252.684C124.125 252.684 123.688 252.641 123.283 252.556C122.888 252.481 122.536 252.364 122.227 252.204C121.928 252.044 121.693 251.836 121.523 251.58C121.352 251.324 121.267 251.02 121.267 250.668C121.267 250.028 121.645 249.495 122.403 249.068V249.004C122.189 248.865 122.013 248.689 121.875 248.476C121.736 248.263 121.667 247.991 121.667 247.66C121.667 247.372 121.752 247.1 121.923 246.844C122.093 246.577 122.307 246.353 122.563 246.172V246.108C122.285 245.916 122.035 245.644 121.811 245.292C121.597 244.929 121.491 244.513 121.491 244.044C121.491 243.564 121.581 243.148 121.763 242.796C121.944 242.433 122.184 242.135 122.483 241.9C122.792 241.655 123.144 241.473 123.539 241.356C123.933 241.239 124.344 241.18 124.771 241.18C125.24 241.18 125.651 241.244 126.003 241.372H128.899V243.084H127.635C127.709 243.201 127.768 243.351 127.811 243.532C127.864 243.713 127.891 243.911 127.891 244.124C127.891 244.583 127.811 244.983 127.651 245.324C127.491 245.655 127.267 245.932 126.979 246.156C126.701 246.369 126.371 246.529 125.987 246.636C125.613 246.743 125.208 246.796 124.771 246.796C124.461 246.796 124.141 246.743 123.811 246.636C123.704 246.721 123.629 246.807 123.587 246.892C123.544 246.977 123.523 247.089 123.523 247.228C123.523 247.431 123.608 247.58 123.779 247.676C123.96 247.772 124.275 247.82 124.723 247.82H126.003C126.984 247.82 127.731 247.98 128.243 248.3C128.765 248.609 129.027 249.121 129.027 249.836C129.027 250.252 128.92 250.631 128.707 250.972C128.504 251.324 128.211 251.623 127.827 251.868C127.443 252.124 126.979 252.321 126.435 252.46C125.891 252.609 125.277 252.684 124.595 252.684ZM124.771 245.372C125.08 245.372 125.336 245.265 125.539 245.052C125.752 244.828 125.859 244.492 125.859 244.044C125.859 243.628 125.752 243.313 125.539 243.1C125.336 242.876 125.08 242.764 124.771 242.764C124.461 242.764 124.2 242.871 123.987 243.084C123.784 243.297 123.683 243.617 123.683 244.044C123.683 244.492 123.784 244.828 123.987 245.052C124.2 245.265 124.461 245.372 124.771 245.372ZM124.963 251.212C125.496 251.212 125.933 251.116 126.275 250.924C126.616 250.743 126.787 250.513 126.787 250.236C126.787 249.991 126.68 249.825 126.467 249.74C126.264 249.655 125.965 249.612 125.571 249.612H124.755C124.477 249.612 124.253 249.601 124.083 249.58C123.912 249.569 123.763 249.548 123.635 249.516C123.347 249.772 123.203 250.033 123.203 250.3C123.203 250.599 123.363 250.823 123.683 250.972C124.003 251.132 124.429 251.212 124.963 251.212ZM137.449 249.5C136.926 249.5 136.387 249.399 135.833 249.196C135.289 248.993 134.814 248.727 134.409 248.396L135.465 246.924C135.827 247.201 136.174 247.409 136.505 247.548C136.835 247.687 137.171 247.756 137.513 247.756C137.865 247.756 138.121 247.697 138.281 247.58C138.441 247.463 138.521 247.297 138.521 247.084C138.521 246.956 138.473 246.844 138.377 246.748C138.291 246.641 138.169 246.545 138.009 246.46C137.859 246.375 137.689 246.3 137.497 246.236C137.305 246.161 137.107 246.081 136.905 245.996C136.659 245.9 136.414 245.788 136.169 245.66C135.923 245.532 135.699 245.377 135.497 245.196C135.294 245.004 135.129 244.785 135.001 244.54C134.873 244.284 134.809 243.991 134.809 243.66C134.809 243.297 134.878 242.961 135.017 242.652C135.166 242.343 135.374 242.081 135.641 241.868C135.907 241.655 136.227 241.489 136.601 241.372C136.974 241.244 137.39 241.18 137.849 241.18C138.457 241.18 138.99 241.287 139.449 241.5C139.907 241.703 140.307 241.932 140.649 242.188L139.593 243.596C139.305 243.383 139.022 243.217 138.745 243.1C138.467 242.983 138.19 242.924 137.913 242.924C137.315 242.924 137.017 243.132 137.017 243.548C137.017 243.676 137.059 243.788 137.145 243.884C137.23 243.969 137.342 244.049 137.481 244.124C137.63 244.199 137.795 244.273 137.977 244.348C138.169 244.412 138.366 244.481 138.569 244.556C138.825 244.652 139.075 244.764 139.321 244.892C139.577 245.009 139.806 245.159 140.009 245.34C140.222 245.521 140.393 245.745 140.521 246.012C140.649 246.268 140.713 246.577 140.713 246.94C140.713 247.303 140.643 247.639 140.505 247.948C140.366 248.257 140.158 248.529 139.881 248.764C139.603 248.988 139.262 249.169 138.857 249.308C138.451 249.436 137.982 249.5 137.449 249.5ZM146.414 249.5C145.913 249.5 145.428 249.409 144.958 249.228C144.489 249.036 144.073 248.764 143.71 248.412C143.358 248.06 143.076 247.628 142.862 247.116C142.649 246.593 142.542 246.001 142.542 245.34C142.542 244.679 142.649 244.092 142.862 243.58C143.076 243.057 143.358 242.62 143.71 242.268C144.073 241.916 144.489 241.649 144.958 241.468C145.428 241.276 145.913 241.18 146.414 241.18C146.916 241.18 147.396 241.276 147.854 241.468C148.324 241.649 148.734 241.916 149.086 242.268C149.449 242.62 149.737 243.057 149.95 243.58C150.164 244.092 150.27 244.679 150.27 245.34C150.27 246.001 150.164 246.593 149.95 247.116C149.737 247.628 149.449 248.06 149.086 248.412C148.734 248.764 148.324 249.036 147.854 249.228C147.396 249.409 146.916 249.5 146.414 249.5ZM146.414 247.596C146.894 247.596 147.257 247.393 147.502 246.988C147.748 246.583 147.87 246.033 147.87 245.34C147.87 244.647 147.748 244.097 147.502 243.692C147.257 243.287 146.894 243.084 146.414 243.084C145.924 243.084 145.556 243.287 145.31 243.692C145.076 244.097 144.958 244.647 144.958 245.34C144.958 246.033 145.076 246.583 145.31 246.988C145.556 247.393 145.924 247.596 146.414 247.596ZM156.089 249.5C155.588 249.5 155.103 249.409 154.633 249.228C154.164 249.036 153.748 248.764 153.385 248.412C153.033 248.06 152.751 247.628 152.537 247.116C152.324 246.593 152.217 246.001 152.217 245.34C152.217 244.679 152.324 244.092 152.537 243.58C152.751 243.057 153.033 242.62 153.385 242.268C153.748 241.916 154.164 241.649 154.633 241.468C155.103 241.276 155.588 241.18 156.089 241.18C156.591 241.18 157.071 241.276 157.529 241.468C157.999 241.649 158.409 241.916 158.761 242.268C159.124 242.62 159.412 243.057 159.625 243.58C159.839 244.092 159.945 244.679 159.945 245.34C159.945 246.001 159.839 246.593 159.625 247.116C159.412 247.628 159.124 248.06 158.761 248.412C158.409 248.764 157.999 249.036 157.529 249.228C157.071 249.409 156.591 249.5 156.089 249.5ZM156.089 247.596C156.569 247.596 156.932 247.393 157.177 246.988C157.423 246.583 157.545 246.033 157.545 245.34C157.545 244.647 157.423 244.097 157.177 243.692C156.932 243.287 156.569 243.084 156.089 243.084C155.599 243.084 155.231 243.287 154.985 243.692C154.751 244.097 154.633 244.647 154.633 245.34C154.633 246.033 154.751 246.583 154.985 246.988C155.231 247.393 155.599 247.596 156.089 247.596ZM162.356 249.308V241.372H164.276L164.436 242.38H164.5C164.842 242.06 165.215 241.783 165.62 241.548C166.026 241.303 166.5 241.18 167.044 241.18C167.908 241.18 168.532 241.463 168.916 242.028C169.311 242.593 169.508 243.377 169.508 244.38V249.308H167.156V244.684C167.156 244.108 167.076 243.713 166.916 243.5C166.767 243.287 166.522 243.18 166.18 243.18C165.882 243.18 165.626 243.249 165.412 243.388C165.199 243.516 164.964 243.703 164.708 243.948V249.308H162.356Z" fill="#23B5AF"/>
<rect x="40.2383" y="236.308" width="14" height="14" rx="3" fill="#FCFFFF"/>
<rect x="40.2383" y="236.308" width="14" height="14" rx="3" fill="url(#paint7_linear)"/>
<rect x="40.2383" y="236.308" width="14" height="14" rx="3" stroke="#A9DED9" stroke-width="2"/>
<path d="M43.875 244.645L46.168 246.634L50.6047 239.98" stroke="#A9DED9" stroke-width="2" stroke-linecap="round" stroke-linejoin="round"/>
<rect x="23.2383" y="283.308" width="252.779" height="48" rx="10" fill="#E1F7F4"/>
<path d="M73.6383 313.5C73.2329 313.5 72.8916 313.361 72.6143 313.084C72.3476 312.796 72.2143 312.444 72.2143 312.028C72.2143 311.601 72.3476 311.249 72.6143 310.972C72.8916 310.684 73.2329 310.54 73.6383 310.54C74.0436 310.54 74.3796 310.684 74.6463 310.972C74.9236 311.249 75.0623 311.601 75.0623 312.028C75.0623 312.444 74.9236 312.796 74.6463 313.084C74.3796 313.361 74.0436 313.5 73.6383 313.5ZM79.2352 313.5C78.8298 313.5 78.4885 313.361 78.2112 313.084C77.9445 312.796 77.8112 312.444 77.8112 312.028C77.8112 311.601 77.9445 311.249 78.2112 310.972C78.4885 310.684 78.8298 310.54 79.2352 310.54C79.6405 310.54 79.9765 310.684 80.2432 310.972C80.5205 311.249 80.6592 311.601 80.6592 312.028C80.6592 312.444 80.5205 312.796 80.2432 313.084C79.9765 313.361 79.6405 313.5 79.2352 313.5ZM84.832 313.5C84.4267 313.5 84.0854 313.361 83.808 313.084C83.5414 312.796 83.408 312.444 83.408 312.028C83.408 311.601 83.5414 311.249 83.808 310.972C84.0854 310.684 84.4267 310.54 84.832 310.54C85.2374 310.54 85.5734 310.684 85.84 310.972C86.1174 311.249 86.256 311.601 86.256 312.028C86.256 312.444 86.1174 312.796 85.84 313.084C85.5734 313.361 85.2374 313.5 84.832 313.5Z" fill="#23B5AF"/>
<rect x="40.2383" y="300.308" width="14" height="14" rx="3" fill="#FCFFFF"/>
<rect x="40.2383" y="300.308" width="14" height="14" rx="3" fill="url(#paint8_linear)"/>
<rect x="40.2383" y="300.308" width="14" height="14" rx="3" stroke="#A9DED9" stroke-width="2"/>
<path d="M43.875 308.645L46.168 310.634L50.6047 303.98" stroke="#A9DED9" stroke-width="2" stroke-linecap="round" stroke-linejoin="round"/>
<rect x="23.2383" y="347.308" width="252.779" height="48" rx="10" fill="#E1F7F4"/>
<path d="M73.6383 377.5C73.2329 377.5 72.8916 377.361 72.6143 377.084C72.3476 376.796 72.2143 376.444 72.2143 376.028C72.2143 375.601 72.3476 375.249 72.6143 374.972C72.8916 374.684 73.2329 374.54 73.6383 374.54C74.0436 374.54 74.3796 374.684 74.6463 374.972C74.9236 375.249 75.0623 375.601 75.0623 376.028C75.0623 376.444 74.9236 376.796 74.6463 377.084C74.3796 377.361 74.0436 377.5 73.6383 377.5ZM79.2352 377.5C78.8298 377.5 78.4885 377.361 78.2112 377.084C77.9445 376.796 77.8112 376.444 77.8112 376.028C77.8112 375.601 77.9445 375.249 78.2112 374.972C78.4885 374.684 78.8298 374.54 79.2352 374.54C79.6405 374.54 79.9765 374.684 80.2432 374.972C80.5205 375.249 80.6592 375.601 80.6592 376.028C80.6592 376.444 80.5205 376.796 80.2432 377.084C79.9765 377.361 79.6405 377.5 79.2352 377.5ZM84.832 377.5C84.4267 377.5 84.0854 377.361 83.808 377.084C83.5414 376.796 83.408 376.444 83.408 376.028C83.408 375.601 83.5414 375.249 83.808 374.972C84.0854 374.684 84.4267 374.54 84.832 374.54C85.2374 374.54 85.5734 374.684 85.84 374.972C86.1174 375.249 86.256 375.601 86.256 376.028C86.256 376.444 86.1174 376.796 85.84 377.084C85.5734 377.361 85.2374 377.5 84.832 377.5Z" fill="#23B5AF"/>
<rect x="40.2383" y="364.308" width="14" height="14" rx="3" fill="#FCFFFF"/>
<rect x="40.2383" y="364.308" width="14" height="14" rx="3" fill="url(#paint9_linear)"/>
<rect x="40.2383" y="364.308" width="14" height="14" rx="3" stroke="#A9DED9" stroke-width="2"/>
<path d="M43.875 372.645L46.168 374.634L50.6047 367.98" stroke="#A9DED9" stroke-width="2" stroke-linecap="round" stroke-linejoin="round"/>
<defs>
<linearGradient id="paint0_linear" x1="149.547" y1="222.397" x2="125.824" y2="46.3024" gradientUnits="userSpaceOnUse">
<stop stop-color="#23B5AF"/>
<stop offset="1" stop-color="white" stop-opacity="0"/>
</linearGradient>
<linearGradient id="paint1_linear" x1="249.913" y1="177.306" x2="57.8512" y2="92.4521" gradientUnits="userSpaceOnUse">
<stop stop-color="#717171"/>
<stop offset="1" stop-color="white" stop-opacity="0"/>
</linearGradient>
<linearGradient id="paint2_linear" x1="233.49" y1="188.255" x2="150.004" y2="184.605" gradientUnits="userSpaceOnUse">
<stop stop-color="#9A9A9A"/>
<stop offset="1" stop-color="white" stop-opacity="0"/>
</linearGradient>
<linearGradient id="paint3_linear" x1="297.813" y1="16.7227" x2="35.4957" y2="255.774" gradientUnits="userSpaceOnUse">
<stop stop-color="white"/>
<stop offset="0.0001" stop-color="#E9E9E9"/>
<stop offset="1" stop-color="white" stop-opacity="0"/>
</linearGradient>
<linearGradient id="paint4_linear" x1="212.503" y1="161.339" x2="74.2731" y2="80.5913" gradientUnits="userSpaceOnUse">
<stop stop-color="#797979"/>
<stop offset="1" stop-color="white" stop-opacity="0"/>
</linearGradient>
<linearGradient id="paint5_linear" x1="87.9616" y1="55.9302" x2="150.005" y2="121.624" gradientUnits="userSpaceOnUse">
<stop stop-color="#FCFCFC"/>
<stop offset="1" stop-color="white" stop-opacity="0"/>
</linearGradient>
<linearGradient id="paint6_linear" x1="150" y1="162.058" x2="150" y2="419.315" gradientUnits="userSpaceOnUse">
<stop stop-color="white"/>
<stop offset="1" stop-color="white" stop-opacity="0"/>
</linearGradient>
<linearGradient id="paint7_linear" x1="47.2383" y1="235.308" x2="47.2383" y2="251.308" gradientUnits="userSpaceOnUse">
<stop stop-color="white"/>
<stop offset="1" stop-color="white" stop-opacity="0"/>
</linearGradient>
<linearGradient id="paint8_linear" x1="47.2383" y1="299.308" x2="47.2383" y2="315.308" gradientUnits="userSpaceOnUse">
<stop stop-color="white"/>
<stop offset="1" stop-color="white" stop-opacity="0"/>
</linearGradient>
<linearGradient id="paint9_linear" x1="47.2383" y1="363.308" x2="47.2383" y2="379.308" gradientUnits="userSpaceOnUse">
<stop stop-color="white"/>
<stop offset="1" stop-color="white" stop-opacity="0"/>
</linearGradient>
</defs>
</svg>
