<svg xmlns="http://www.w3.org/2000/svg" width="300" height="309" fill="none" viewBox="0 0 300 309"><path fill="url(#paint0_linear)" d="M265.705 125.198C174.457 96.8925 73.1431 112.304 27.534 125.21C24.6822 126.017 23.8035 129.54 25.848 131.686L40.4413 147.002C41.3724 147.979 41.7479 149.359 41.4399 150.674L36.1793 173.119C35.4497 176.232 38.5099 178.905 41.5269 177.846C134.865 145.079 216.11 161.613 252.439 176.838C255.575 178.152 259.032 175.355 258.257 172.044L253.22 150.556C252.928 149.307 253.252 147.994 254.091 147.024L267.489 131.557C269.356 129.401 268.429 126.042 265.705 125.198Z"/><circle cx="146.865" cy="92.907" r="91.653" fill="url(#paint1_linear)" stroke="url(#paint2_linear)"/><circle cx="146.411" cy="92.451" r="74.774" fill="url(#paint3_linear)" stroke="url(#paint4_linear)"/><path fill="url(#paint5_linear)" d="M147.699 127.081C142.707 127.081 138.419 126.313 134.835 124.777C131.251 123.241 128.307 121.129 126.003 118.441L133.491 108.073C135.347 109.801 137.331 111.209 139.443 112.297C141.619 113.321 143.795 113.833 145.971 113.833C148.659 113.833 150.803 113.353 152.403 112.393C154.003 111.433 154.803 109.993 154.803 108.073C154.803 106.921 154.611 105.897 154.227 105.001C153.843 104.105 153.107 103.337 152.019 102.697C150.931 102.057 149.395 101.577 147.411 101.257C145.427 100.937 142.835 100.777 139.635 100.777V89.2572C142.195 89.2572 144.307 89.0972 145.971 88.7772C147.699 88.4572 149.075 88.0092 150.099 87.4332C151.123 86.7932 151.827 86.0572 152.211 85.2252C152.659 84.3932 152.883 83.4332 152.883 82.3452C152.883 78.6332 150.771 76.7772 146.547 76.7772C144.499 76.7772 142.675 77.1932 141.075 78.0252C139.475 78.8572 137.715 80.1052 135.795 81.7692L127.539 71.7852C130.547 69.2892 133.651 67.3692 136.851 66.0252C140.051 64.6172 143.539 63.9132 147.315 63.9132C154.035 63.9132 159.379 65.4172 163.347 68.4252C167.379 71.3692 169.395 75.5932 169.395 81.0972C169.395 86.9852 166.131 91.3692 159.603 94.2492V94.6332C163.059 95.7212 165.875 97.4812 168.051 99.9132C170.227 102.281 171.315 105.385 171.315 109.225C171.315 112.105 170.675 114.665 169.395 116.905C168.115 119.081 166.387 120.937 164.211 122.473C162.099 124.009 159.603 125.161 156.723 125.929C153.843 126.697 150.835 127.081 147.699 127.081Z"/><rect width="292" height="138.223" x="4" y="166.058" fill="#FCFFFF" rx="20"/><rect width="292" height="138.223" x="4" y="166.058" fill="url(#paint6_linear)" rx="20"/><rect width="292" height="138.223" x="4" y="166.058" stroke="#A9DED9" stroke-width="8" rx="20"/><path fill="#23B5AF" d="M300 203.308V186.058C300 172.803 289.255 162.058 276 162.058H272.922H245.845H234.432H206.977H193.178H165.582H110.388H20.626C9.2351 162.058 0.000976562 171.292 0.000976562 182.683V203.308H300Z"/><path fill="#fff" d="M103.034 188.683V180.235H100.17V178.251H108.266V180.235H105.402V188.683H103.034ZM110.692 188.683V178.251H113.044V182.267H116.644V178.251H119.012V188.683H116.644V184.331H113.044V188.683H110.692ZM122.273 188.683V178.251H124.625V188.683H122.273ZM127.886 188.683V178.251H131.646C132.201 178.251 132.718 178.304 133.198 178.411C133.689 178.518 134.115 178.699 134.478 178.955C134.841 179.2 135.129 179.531 135.342 179.947C135.555 180.363 135.662 180.88 135.662 181.499C135.662 182.267 135.491 182.902 135.15 183.403C134.819 183.894 134.371 184.262 133.806 184.507L136.174 188.683H133.534L131.534 184.923H130.238V188.683H127.886ZM130.238 183.051H131.454C132.073 183.051 132.542 182.923 132.862 182.667C133.193 182.4 133.358 182.011 133.358 181.499C133.358 180.987 133.193 180.63 132.862 180.427C132.542 180.224 132.073 180.123 131.454 180.123H130.238V183.051ZM138.498 188.683V178.251H141.442C142.242 178.251 142.962 178.352 143.602 178.555C144.242 178.758 144.792 179.072 145.25 179.499C145.709 179.915 146.061 180.448 146.306 181.099C146.552 181.75 146.674 182.523 146.674 183.419C146.674 184.315 146.552 185.094 146.306 185.755C146.061 186.416 145.714 186.966 145.266 187.403C144.818 187.83 144.28 188.15 143.65 188.363C143.032 188.576 142.338 188.683 141.57 188.683H138.498ZM140.85 186.779H141.298C141.746 186.779 142.152 186.72 142.514 186.603C142.877 186.486 143.186 186.299 143.442 186.043C143.698 185.776 143.896 185.43 144.034 185.003C144.184 184.576 144.258 184.048 144.258 183.419C144.258 182.8 144.184 182.283 144.034 181.867C143.896 181.44 143.698 181.104 143.442 180.859C143.186 180.603 142.877 180.422 142.514 180.315C142.152 180.208 141.746 180.155 141.298 180.155H140.85V186.779ZM153.458 188.683V178.251H157.042C157.618 178.251 158.156 178.31 158.658 178.427C159.159 178.534 159.596 178.72 159.97 178.987C160.343 179.243 160.636 179.59 160.85 180.027C161.074 180.454 161.186 180.982 161.186 181.611C161.186 182.219 161.074 182.747 160.85 183.195C160.636 183.643 160.343 184.011 159.97 184.299C159.596 184.587 159.164 184.8 158.674 184.939C158.183 185.078 157.66 185.147 157.106 185.147H155.81V188.683H153.458ZM155.81 183.275H156.962C158.242 183.275 158.882 182.72 158.882 181.611C158.882 181.067 158.711 180.683 158.37 180.459C158.028 180.235 157.538 180.123 156.898 180.123H155.81V183.275ZM163.789 188.683V178.251H166.141V186.699H170.269V188.683H163.789ZM175.225 183.403L174.969 184.363H177.193L176.953 183.403C176.803 182.88 176.659 182.326 176.521 181.739C176.382 181.152 176.243 180.587 176.105 180.043H176.041C175.913 180.598 175.779 181.168 175.641 181.755C175.513 182.331 175.374 182.88 175.225 183.403ZM171.449 188.683L174.713 178.251H177.545L180.809 188.683H178.313L177.673 186.203H174.489L173.849 188.683H171.449ZM186.944 188.875C186.283 188.875 185.659 188.763 185.072 188.539C184.485 188.304 183.968 187.963 183.52 187.515C183.083 187.067 182.736 186.512 182.48 185.851C182.224 185.179 182.096 184.406 182.096 183.531C182.096 182.667 182.229 181.899 182.496 181.227C182.763 180.544 183.12 179.968 183.568 179.499C184.016 179.03 184.539 178.672 185.136 178.427C185.733 178.182 186.363 178.059 187.024 178.059C187.696 178.059 188.299 178.198 188.832 178.475C189.365 178.742 189.808 179.056 190.16 179.419L188.912 180.923C188.645 180.678 188.363 180.48 188.064 180.331C187.776 180.171 187.445 180.091 187.072 180.091C186.72 180.091 186.384 180.171 186.064 180.331C185.755 180.48 185.483 180.699 185.248 180.987C185.024 181.275 184.843 181.627 184.704 182.043C184.576 182.459 184.512 182.928 184.512 183.451C184.512 184.528 184.741 185.366 185.2 185.963C185.659 186.55 186.272 186.843 187.04 186.843C187.467 186.843 187.845 186.752 188.176 186.571C188.517 186.379 188.816 186.144 189.072 185.867L190.32 187.339C189.445 188.363 188.32 188.875 186.944 188.875ZM192.705 188.683V178.251H199.233V180.235H195.057V182.331H198.609V184.299H195.057V186.699H199.393V188.683H192.705Z"/><ellipse cx="28.875" cy="182.684" fill="#EC9D89" rx="4.875" ry="4.941"/><ellipse cx="45.948" cy="182.193" fill="#EDBA4B" rx="4.39" ry="4.449"/><ellipse cx="63.507" cy="182.193" fill="#A9DED9" rx="4.39" ry="4.449"/><rect width="252.779" height="48" x="23.238" y="219.308" fill="#E1F7F4" rx="10"/><path fill="#23B5AF" d="M74.9183 244.028L74.6623 244.988H76.8863L76.6463 244.028C76.4969 243.505 76.3529 242.951 76.2143 242.364C76.0756 241.777 75.9369 241.212 75.7983 240.668H75.7343C75.6063 241.223 75.4729 241.793 75.3343 242.38C75.2063 242.956 75.0676 243.505 74.9183 244.028ZM71.1423 249.308L74.4063 238.876H77.2383L80.5023 249.308H78.0063L77.3663 246.828H74.1823L73.5423 249.308H71.1423ZM82.2502 249.308V241.372H84.1702L84.3302 242.396H84.3942C84.7248 242.065 85.0768 241.783 85.4502 241.548C85.8235 241.303 86.2715 241.18 86.7942 241.18C87.3595 241.18 87.8128 241.297 88.1542 241.532C88.5062 241.756 88.7835 242.081 88.9862 242.508C89.3382 242.145 89.7062 241.836 90.0902 241.58C90.4848 241.313 90.9488 241.18 91.4822 241.18C92.3355 241.18 92.9595 241.468 93.3542 242.044C93.7595 242.609 93.9622 243.388 93.9622 244.38V249.308H91.6102V244.684C91.6102 244.108 91.5302 243.713 91.3702 243.5C91.2208 243.287 90.9755 243.18 90.6342 243.18C90.2395 243.18 89.7862 243.436 89.2742 243.948V249.308H86.9222V244.684C86.9222 244.108 86.8422 243.713 86.6822 243.5C86.5328 243.287 86.2875 243.18 85.9462 243.18C85.5408 243.18 85.0928 243.436 84.6022 243.948V249.308H82.2502ZM98.7689 249.5C98.4062 249.5 98.0756 249.436 97.7769 249.308C97.4889 249.191 97.2436 249.025 97.0409 248.812C96.8382 248.588 96.6782 248.332 96.5609 248.044C96.4542 247.756 96.4009 247.441 96.4009 247.1C96.4009 246.268 96.7529 245.617 97.4569 245.148C98.1609 244.679 99.2969 244.364 100.865 244.204C100.844 243.852 100.737 243.575 100.545 243.372C100.364 243.159 100.054 243.052 99.6169 243.052C99.2756 243.052 98.9342 243.116 98.5929 243.244C98.2622 243.372 97.9049 243.548 97.5209 243.772L96.6729 242.22C97.1849 241.911 97.7182 241.66 98.2729 241.468C98.8382 241.276 99.4356 241.18 100.065 241.18C101.089 241.18 101.868 241.473 102.401 242.06C102.945 242.636 103.217 243.537 103.217 244.764V249.308H101.297L101.137 248.492H101.073C100.732 248.791 100.374 249.036 100.001 249.228C99.6276 249.409 99.2169 249.5 98.7689 249.5ZM99.5689 247.676C99.8356 247.676 100.065 247.617 100.257 247.5C100.449 247.383 100.652 247.217 100.865 247.004V245.612C100.033 245.729 99.4569 245.9 99.1369 246.124C98.8169 246.348 98.6569 246.615 98.6569 246.924C98.6569 247.18 98.7369 247.372 98.8969 247.5C99.0676 247.617 99.2916 247.676 99.5689 247.676ZM105.574 249.308V248.044L108.902 243.212H105.942V241.372H111.83V242.62L108.502 247.468H111.942V249.308H105.574ZM117.418 249.5C116.916 249.5 116.431 249.409 115.962 249.228C115.492 249.036 115.076 248.764 114.714 248.412C114.362 248.06 114.079 247.628 113.866 247.116C113.652 246.593 113.546 246.001 113.546 245.34C113.546 244.679 113.652 244.092 113.866 243.58C114.079 243.057 114.362 242.62 114.714 242.268C115.076 241.916 115.492 241.649 115.962 241.468C116.431 241.276 116.916 241.18 117.418 241.18C117.919 241.18 118.399 241.276 118.858 241.468C119.327 241.649 119.738 241.916 120.09 242.268C120.452 242.62 120.74 243.057 120.954 243.58C121.167 244.092 121.274 244.679 121.274 245.34C121.274 246.001 121.167 246.593 120.954 247.116C120.74 247.628 120.452 248.06 120.09 248.412C119.738 248.764 119.327 249.036 118.858 249.228C118.399 249.409 117.919 249.5 117.418 249.5ZM117.418 247.596C117.898 247.596 118.26 247.393 118.506 246.988C118.751 246.583 118.874 246.033 118.874 245.34C118.874 244.647 118.751 244.097 118.506 243.692C118.26 243.287 117.898 243.084 117.418 243.084C116.927 243.084 116.559 243.287 116.314 243.692C116.079 244.097 115.962 244.647 115.962 245.34C115.962 246.033 116.079 246.583 116.314 246.988C116.559 247.393 116.927 247.596 117.418 247.596ZM123.685 249.308V241.372H125.605L125.765 242.38H125.829C126.17 242.06 126.543 241.783 126.949 241.548C127.354 241.303 127.829 241.18 128.373 241.18C129.237 241.18 129.861 241.463 130.245 242.028C130.639 242.593 130.837 243.377 130.837 244.38V249.308H128.485V244.684C128.485 244.108 128.405 243.713 128.245 243.5C128.095 243.287 127.85 243.18 127.509 243.18C127.21 243.18 126.954 243.249 126.741 243.388C126.527 243.516 126.293 243.703 126.037 243.948V249.308H123.685ZM137.836 249.308V238.876H144.364V240.86H140.188V242.956H143.74V244.924H140.188V247.324H144.524V249.308H137.836ZM150.509 249.5C149.955 249.5 149.437 249.409 148.957 249.228C148.488 249.036 148.077 248.764 147.725 248.412C147.373 248.06 147.096 247.628 146.893 247.116C146.691 246.593 146.589 246.001 146.589 245.34C146.589 244.679 146.701 244.092 146.925 243.58C147.149 243.057 147.448 242.62 147.821 242.268C148.205 241.916 148.648 241.649 149.149 241.468C149.651 241.276 150.173 241.18 150.717 241.18C151.208 241.18 151.64 241.26 152.013 241.42C152.397 241.58 152.739 241.783 153.037 242.028L151.933 243.548C151.56 243.239 151.203 243.084 150.861 243.084C150.285 243.084 149.832 243.287 149.501 243.692C149.171 244.097 149.005 244.647 149.005 245.34C149.005 246.033 149.171 246.583 149.501 246.988C149.843 247.393 150.269 247.596 150.781 247.596C151.037 247.596 151.283 247.543 151.517 247.436C151.763 247.319 151.992 247.18 152.205 247.02L153.133 248.556C152.739 248.897 152.312 249.143 151.853 249.292C151.395 249.431 150.947 249.5 150.509 249.5ZM155.322 249.308V238.092H157.674V240.844L157.562 242.268C157.861 242.001 158.207 241.756 158.602 241.532C158.997 241.297 159.466 241.18 160.01 241.18C160.874 241.18 161.498 241.463 161.882 242.028C162.277 242.593 162.474 243.377 162.474 244.38V249.308H160.122V244.684C160.122 244.108 160.042 243.713 159.882 243.5C159.733 243.287 159.487 243.18 159.146 243.18C158.847 243.18 158.591 243.249 158.378 243.388C158.165 243.516 157.93 243.703 157.674 243.948V249.308H155.322ZM168.671 249.5C168.169 249.5 167.684 249.409 167.215 249.228C166.745 249.036 166.329 248.764 165.967 248.412C165.615 248.06 165.332 247.628 165.119 247.116C164.905 246.593 164.799 246.001 164.799 245.34C164.799 244.679 164.905 244.092 165.119 243.58C165.332 243.057 165.615 242.62 165.967 242.268C166.329 241.916 166.745 241.649 167.215 241.468C167.684 241.276 168.169 241.18 168.671 241.18C169.172 241.18 169.652 241.276 170.111 241.468C170.58 241.649 170.991 241.916 171.343 242.268C171.705 242.62 171.993 243.057 172.207 243.58C172.42 244.092 172.527 244.679 172.527 245.34C172.527 246.001 172.42 246.593 172.207 247.116C171.993 247.628 171.705 248.06 171.343 248.412C170.991 248.764 170.58 249.036 170.111 249.228C169.652 249.409 169.172 249.5 168.671 249.5ZM168.671 247.596C169.151 247.596 169.513 247.393 169.759 246.988C170.004 246.583 170.127 246.033 170.127 245.34C170.127 244.647 170.004 244.097 169.759 243.692C169.513 243.287 169.151 243.084 168.671 243.084C168.18 243.084 167.812 243.287 167.567 243.692C167.332 244.097 167.215 244.647 167.215 245.34C167.215 246.033 167.332 246.583 167.567 246.988C167.812 247.393 168.18 247.596 168.671 247.596Z"/><rect width="14" height="14" x="40.238" y="236.308" fill="#FCFFFF" rx="3"/><rect width="14" height="14" x="40.238" y="236.308" fill="url(#paint7_linear)" rx="3"/><rect width="14" height="14" x="40.238" y="236.308" stroke="#A9DED9" stroke-width="2" rx="3"/><path stroke="#A9DED9" stroke-linecap="round" stroke-linejoin="round" stroke-width="2" d="M43.875 244.645L46.168 246.634L50.6047 239.98"/><path fill="#717171" d="M23.3431 278.428L22.7831 278.022L23.5811 276.706L22.2231 276.146L22.4331 275.502L23.8611 275.852L23.9871 274.34H24.6731L24.7991 275.838L26.2411 275.502L26.4511 276.146L25.0931 276.706L25.8771 278.022L25.3311 278.428L24.3371 277.224L23.3431 278.428ZM29.0686 284.308V283.356H31.1126V276.776H29.4886V276.034C29.8993 275.959 30.254 275.871 30.5526 275.768C30.8606 275.656 31.136 275.525 31.3786 275.376H32.2606V283.356H34.1086V284.308H29.0686ZM40.2724 287.178V277.504H41.2244L41.3224 278.288H41.3644C41.6724 278.027 42.0084 277.803 42.3724 277.616C42.7457 277.429 43.133 277.336 43.5344 277.336C43.973 277.336 44.3604 277.42 44.6964 277.588C45.0324 277.747 45.3124 277.98 45.5364 278.288C45.7604 278.587 45.9284 278.951 46.0404 279.38C46.1617 279.8 46.2224 280.276 46.2224 280.808C46.2224 281.387 46.143 281.905 45.9844 282.362C45.8257 282.81 45.611 283.193 45.3404 283.51C45.0697 283.827 44.757 284.07 44.4024 284.238C44.0477 284.397 43.6744 284.476 43.2824 284.476C42.965 284.476 42.6477 284.406 42.3304 284.266C42.0224 284.126 41.7097 283.935 41.3924 283.692L41.4204 284.882V287.178H40.2724ZM43.0864 283.51C43.3664 283.51 43.623 283.449 43.8564 283.328C44.099 283.197 44.3044 283.02 44.4724 282.796C44.6497 282.563 44.785 282.278 44.8784 281.942C44.981 281.606 45.0324 281.228 45.0324 280.808C45.0324 280.435 44.9997 280.094 44.9344 279.786C44.869 279.478 44.7617 279.217 44.6124 279.002C44.4724 278.778 44.2857 278.605 44.0524 278.484C43.8284 278.363 43.5577 278.302 43.2404 278.302C42.951 278.302 42.657 278.381 42.3584 278.54C42.069 278.699 41.7564 278.927 41.4204 279.226V282.796C41.7284 283.057 42.027 283.244 42.3164 283.356C42.6057 283.459 42.8624 283.51 43.0864 283.51ZM51.496 284.476C51.0386 284.476 50.6093 284.397 50.208 284.238C49.816 284.07 49.4706 283.837 49.172 283.538C48.8826 283.23 48.654 282.857 48.486 282.418C48.318 281.979 48.234 281.48 48.234 280.92C48.234 280.36 48.318 279.861 48.486 279.422C48.6633 278.974 48.892 278.596 49.172 278.288C49.4613 277.98 49.788 277.747 50.152 277.588C50.516 277.42 50.894 277.336 51.286 277.336C51.7153 277.336 52.098 277.411 52.434 277.56C52.7793 277.709 53.064 277.924 53.288 278.204C53.5213 278.484 53.6986 278.82 53.82 279.212C53.9413 279.604 54.002 280.043 54.002 280.528C54.002 280.649 53.9973 280.771 53.988 280.892C53.988 281.004 53.9786 281.102 53.96 281.186H49.368C49.4146 281.914 49.6386 282.493 50.04 282.922C50.4506 283.342 50.9826 283.552 51.636 283.552C51.9626 283.552 52.2613 283.505 52.532 283.412C52.812 283.309 53.078 283.179 53.33 283.02L53.736 283.776C53.4373 283.963 53.106 284.126 52.742 284.266C52.378 284.406 51.9626 284.476 51.496 284.476ZM49.354 280.36H52.994C52.994 279.669 52.8446 279.147 52.546 278.792C52.2566 278.428 51.846 278.246 51.314 278.246C51.0713 278.246 50.838 278.293 50.614 278.386C50.3993 278.479 50.2033 278.619 50.026 278.806C49.8486 278.983 49.6993 279.203 49.578 279.464C49.466 279.725 49.3913 280.024 49.354 280.36ZM56.3833 284.308V277.504H57.3353L57.4333 278.736H57.4753C57.7086 278.307 57.9886 277.966 58.3153 277.714C58.6513 277.462 59.0153 277.336 59.4073 277.336C59.678 277.336 59.9206 277.383 60.1353 277.476L59.9113 278.484C59.7993 278.447 59.6966 278.419 59.6033 278.4C59.51 278.381 59.3933 278.372 59.2533 278.372C58.964 278.372 58.6606 278.489 58.3433 278.722C58.0353 278.955 57.7646 279.361 57.5313 279.94V284.308H56.3833ZM67.5815 284.476C67.2175 284.476 66.9095 284.42 66.6575 284.308C66.4149 284.196 66.2142 284.042 66.0555 283.846C65.9062 283.65 65.7989 283.412 65.7335 283.132C65.6682 282.852 65.6355 282.544 65.6355 282.208V278.442H64.6275V277.574L65.6915 277.504L65.8315 275.6H66.7975V277.504H68.6315V278.442H66.7975V282.222C66.7975 282.642 66.8722 282.969 67.0215 283.202C67.1802 283.426 67.4555 283.538 67.8475 283.538C67.9689 283.538 68.0995 283.519 68.2395 283.482C68.3795 283.445 68.5055 283.403 68.6175 283.356L68.8415 284.224C68.6549 284.289 68.4495 284.345 68.2255 284.392C68.0109 284.448 67.7962 284.476 67.5815 284.476ZM73.4366 284.476C72.9793 284.476 72.5499 284.397 72.1486 284.238C71.7566 284.07 71.4113 283.837 71.1126 283.538C70.8233 283.23 70.5946 282.857 70.4266 282.418C70.2586 281.979 70.1746 281.48 70.1746 280.92C70.1746 280.36 70.2586 279.861 70.4266 279.422C70.6039 278.974 70.8326 278.596 71.1126 278.288C71.4019 277.98 71.7286 277.747 72.0926 277.588C72.4566 277.42 72.8346 277.336 73.2266 277.336C73.6559 277.336 74.0386 277.411 74.3746 277.56C74.7199 277.709 75.0046 277.924 75.2286 278.204C75.4619 278.484 75.6393 278.82 75.7606 279.212C75.8819 279.604 75.9426 280.043 75.9426 280.528C75.9426 280.649 75.9379 280.771 75.9286 280.892C75.9286 281.004 75.9193 281.102 75.9006 281.186H71.3086C71.3553 281.914 71.5793 282.493 71.9806 282.922C72.3913 283.342 72.9233 283.552 73.5766 283.552C73.9033 283.552 74.2019 283.505 74.4726 283.412C74.7526 283.309 75.0186 283.179 75.2706 283.02L75.6766 283.776C75.3779 283.963 75.0466 284.126 74.6826 284.266C74.3186 284.406 73.9033 284.476 73.4366 284.476ZM71.2946 280.36H74.9346C74.9346 279.669 74.7853 279.147 74.4866 278.792C74.1973 278.428 73.7866 278.246 73.2546 278.246C73.0119 278.246 72.7786 278.293 72.5546 278.386C72.3399 278.479 72.1439 278.619 71.9666 278.806C71.7893 278.983 71.6399 279.203 71.5186 279.464C71.4066 279.725 71.3319 280.024 71.2946 280.36ZM79.7005 284.476C79.1312 284.476 78.6552 284.308 78.2725 283.972C77.8992 283.636 77.7125 283.16 77.7125 282.544C77.7125 281.797 78.0438 281.228 78.7065 280.836C79.3692 280.435 80.4285 280.155 81.8845 279.996C81.8845 279.781 81.8612 279.571 81.8145 279.366C81.7772 279.161 81.7072 278.979 81.6045 278.82C81.5018 278.661 81.3572 278.535 81.1705 278.442C80.9932 278.339 80.7645 278.288 80.4845 278.288C80.0925 278.288 79.7238 278.363 79.3785 278.512C79.0332 278.661 78.7252 278.829 78.4545 279.016L78.0065 278.218C78.3238 278.013 78.7112 277.817 79.1685 277.63C79.6258 277.434 80.1298 277.336 80.6805 277.336C81.5112 277.336 82.1132 277.593 82.4865 278.106C82.8598 278.61 83.0465 279.287 83.0465 280.136V284.308H82.0945L81.9965 283.496H81.9545C81.6278 283.767 81.2778 284 80.9045 284.196C80.5312 284.383 80.1298 284.476 79.7005 284.476ZM80.0365 283.552C80.3632 283.552 80.6712 283.477 80.9605 283.328C81.2498 283.169 81.5578 282.941 81.8845 282.642V280.752C81.3152 280.827 80.8345 280.915 80.4425 281.018C80.0598 281.121 79.7472 281.242 79.5045 281.382C79.2712 281.522 79.0985 281.685 78.9865 281.872C78.8838 282.049 78.8325 282.245 78.8325 282.46C78.8325 282.852 78.9492 283.132 79.1825 283.3C79.4158 283.468 79.7005 283.552 80.0365 283.552ZM85.8872 284.308V277.504H86.8392L86.9372 278.484H86.9792C87.2779 278.157 87.5999 277.887 87.9452 277.672C88.2999 277.448 88.6825 277.336 89.0932 277.336C89.6159 277.336 90.0219 277.453 90.3112 277.686C90.6099 277.91 90.8292 278.227 90.9692 278.638C91.3239 278.246 91.6785 277.933 92.0332 277.7C92.3972 277.457 92.7892 277.336 93.2092 277.336C93.9092 277.336 94.4272 277.56 94.7632 278.008C95.1085 278.456 95.2812 279.119 95.2812 279.996V284.308H94.1332V280.15C94.1332 279.506 94.0305 279.044 93.8252 278.764C93.6199 278.475 93.3025 278.33 92.8732 278.33C92.3599 278.33 91.7905 278.68 91.1652 279.38V284.308H90.0172V280.15C90.0172 279.506 89.9145 279.044 89.7092 278.764C89.5039 278.475 89.1819 278.33 88.7432 278.33C88.2299 278.33 87.6605 278.68 87.0352 279.38V284.308H85.8872ZM101.697 284.308V277.504H102.649L102.747 278.484H102.789C103.088 278.157 103.41 277.887 103.755 277.672C104.11 277.448 104.493 277.336 104.903 277.336C105.426 277.336 105.832 277.453 106.121 277.686C106.42 277.91 106.639 278.227 106.779 278.638C107.134 278.246 107.489 277.933 107.843 277.7C108.207 277.457 108.599 277.336 109.019 277.336C109.719 277.336 110.237 277.56 110.573 278.008C110.919 278.456 111.091 279.119 111.091 279.996V284.308H109.943V280.15C109.943 279.506 109.841 279.044 109.635 278.764C109.43 278.475 109.113 278.33 108.683 278.33C108.17 278.33 107.601 278.68 106.975 279.38V284.308H105.827V280.15C105.827 279.506 105.725 279.044 105.519 278.764C105.314 278.475 104.992 278.33 104.553 278.33C104.04 278.33 103.471 278.68 102.845 279.38V284.308H101.697ZM116.763 284.476C116.305 284.476 115.876 284.397 115.475 284.238C115.083 284.07 114.737 283.837 114.439 283.538C114.149 283.23 113.921 282.857 113.753 282.418C113.585 281.979 113.501 281.48 113.501 280.92C113.501 280.36 113.585 279.861 113.753 279.422C113.93 278.974 114.159 278.596 114.439 278.288C114.728 277.98 115.055 277.747 115.419 277.588C115.783 277.42 116.161 277.336 116.553 277.336C116.982 277.336 117.365 277.411 117.701 277.56C118.046 277.709 118.331 277.924 118.555 278.204C118.788 278.484 118.965 278.82 119.087 279.212C119.208 279.604 119.269 280.043 119.269 280.528C119.269 280.649 119.264 280.771 119.255 280.892C119.255 281.004 119.245 281.102 119.227 281.186H114.635C114.681 281.914 114.905 282.493 115.307 282.922C115.717 283.342 116.249 283.552 116.903 283.552C117.229 283.552 117.528 283.505 117.799 283.412C118.079 283.309 118.345 283.179 118.597 283.02L119.003 283.776C118.704 283.963 118.373 284.126 118.009 284.266C117.645 284.406 117.229 284.476 116.763 284.476ZM114.621 280.36H118.261C118.261 279.669 118.111 279.147 117.813 278.792C117.523 278.428 117.113 278.246 116.581 278.246C116.338 278.246 116.105 278.293 115.881 278.386C115.666 278.479 115.47 278.619 115.293 278.806C115.115 278.983 114.966 279.203 114.845 279.464C114.733 279.725 114.658 280.024 114.621 280.36ZM121.65 284.308V277.504H122.602L122.7 278.484H122.742C123.041 278.157 123.363 277.887 123.708 277.672C124.063 277.448 124.445 277.336 124.856 277.336C125.379 277.336 125.785 277.453 126.074 277.686C126.373 277.91 126.592 278.227 126.732 278.638C127.087 278.246 127.441 277.933 127.796 277.7C128.16 277.457 128.552 277.336 128.972 277.336C129.672 277.336 130.19 277.56 130.526 278.008C130.871 278.456 131.044 279.119 131.044 279.996V284.308H129.896V280.15C129.896 279.506 129.793 279.044 129.588 278.764C129.383 278.475 129.065 278.33 128.636 278.33C128.123 278.33 127.553 278.68 126.928 279.38V284.308H125.78V280.15C125.78 279.506 125.677 279.044 125.472 278.764C125.267 278.475 124.945 278.33 124.506 278.33C123.993 278.33 123.423 278.68 122.798 279.38V284.308H121.65ZM136.968 284.476C136.65 284.476 136.319 284.401 135.974 284.252C135.638 284.093 135.32 283.879 135.022 283.608H134.98L134.882 284.308H133.958V274.34H135.106V277.056L135.078 278.288C135.386 278.017 135.722 277.793 136.086 277.616C136.45 277.429 136.823 277.336 137.206 277.336C137.644 277.336 138.032 277.42 138.368 277.588C138.704 277.747 138.984 277.98 139.208 278.288C139.441 278.587 139.614 278.951 139.726 279.38C139.847 279.8 139.908 280.271 139.908 280.794C139.908 281.373 139.828 281.891 139.67 282.348C139.511 282.805 139.296 283.193 139.026 283.51C138.755 283.827 138.442 284.07 138.088 284.238C137.733 284.397 137.36 284.476 136.968 284.476ZM136.772 283.51C137.052 283.51 137.308 283.449 137.542 283.328C137.784 283.197 137.99 283.02 138.158 282.796C138.335 282.563 138.47 282.278 138.564 281.942C138.666 281.606 138.718 281.228 138.718 280.808C138.718 280.435 138.685 280.094 138.62 279.786C138.554 279.478 138.447 279.217 138.298 279.002C138.158 278.778 137.971 278.605 137.738 278.484C137.514 278.363 137.243 278.302 136.926 278.302C136.375 278.302 135.768 278.61 135.106 279.226V282.796C135.404 283.057 135.698 283.244 135.988 283.356C136.286 283.459 136.548 283.51 136.772 283.51ZM145.154 284.476C144.696 284.476 144.267 284.397 143.866 284.238C143.474 284.07 143.128 283.837 142.83 283.538C142.54 283.23 142.312 282.857 142.144 282.418C141.976 281.979 141.892 281.48 141.892 280.92C141.892 280.36 141.976 279.861 142.144 279.422C142.321 278.974 142.55 278.596 142.83 278.288C143.119 277.98 143.446 277.747 143.81 277.588C144.174 277.42 144.552 277.336 144.944 277.336C145.373 277.336 145.756 277.411 146.092 277.56C146.437 277.709 146.722 277.924 146.946 278.204C147.179 278.484 147.356 278.82 147.478 279.212C147.599 279.604 147.66 280.043 147.66 280.528C147.66 280.649 147.655 280.771 147.646 280.892C147.646 281.004 147.636 281.102 147.618 281.186H143.026C143.072 281.914 143.296 282.493 143.698 282.922C144.108 283.342 144.64 283.552 145.294 283.552C145.62 283.552 145.919 283.505 146.19 283.412C146.47 283.309 146.736 283.179 146.988 283.02L147.394 283.776C147.095 283.963 146.764 284.126 146.4 284.266C146.036 284.406 145.62 284.476 145.154 284.476ZM143.012 280.36H146.652C146.652 279.669 146.502 279.147 146.204 278.792C145.914 278.428 145.504 278.246 144.972 278.246C144.729 278.246 144.496 278.293 144.272 278.386C144.057 278.479 143.861 278.619 143.684 278.806C143.506 278.983 143.357 279.203 143.236 279.464C143.124 279.725 143.049 280.024 143.012 280.36ZM150.041 284.308V277.504H150.993L151.091 278.736H151.133C151.366 278.307 151.646 277.966 151.973 277.714C152.309 277.462 152.673 277.336 153.065 277.336C153.336 277.336 153.578 277.383 153.793 277.476L153.569 278.484C153.457 278.447 153.354 278.419 153.261 278.4C153.168 278.381 153.051 278.372 152.911 278.372C152.622 278.372 152.318 278.489 152.001 278.722C151.693 278.955 151.422 279.361 151.189 279.94V284.308H150.041Z"/><defs><linearGradient id="paint0_linear" x1="146.411" x2="146.411" y1="-18.496" y2="180.409" gradientUnits="userSpaceOnUse"><stop stop-color="#FAE0A1"/><stop offset=".684" stop-color="#FEDA8D"/><stop offset="1" stop-color="#EDBA4B"/></linearGradient><linearGradient id="paint1_linear" x1="239.018" x2="-15.544" y1="92.907" y2="185.06" gradientUnits="userSpaceOnUse"><stop stop-color="#B08D57"/><stop offset=".585" stop-color="#DEB77B"/><stop offset="1" stop-color="#EDBA4B"/></linearGradient><linearGradient id="paint2_linear" x1="284.639" x2="15.478" y1="115.717" y2="28.126" gradientUnits="userSpaceOnUse"><stop stop-color="#997743"/><stop offset=".507" stop-color="#DEB77B"/><stop offset="1" stop-color="#EDBA4B"/></linearGradient><linearGradient id="paint3_linear" x1="243.583" x2="81.174" y1="17.177" y2="167.725" gradientUnits="userSpaceOnUse"><stop stop-color="#EDBA4B"/><stop offset=".551" stop-color="#DEB77B" stop-opacity=".7"/><stop offset=".991" stop-color="#B08D57"/></linearGradient><linearGradient id="paint4_linear" x1="233.09" x2="103.984" y1="9.878" y2="156.776" gradientUnits="userSpaceOnUse"><stop stop-color="#EDBA4B"/><stop offset=".38" stop-color="#DEB77B"/><stop offset="1" stop-color="#B08D57"/></linearGradient><linearGradient id="paint5_linear" x1="112.14" x2="389.968" y1="144.433" y2="-27.556" gradientUnits="userSpaceOnUse"><stop offset=".042" stop-color="#B08D57"/><stop offset=".573" stop-color="#DEB77B" stop-opacity=".45"/><stop offset="1" stop-color="#FFF0D0"/></linearGradient><linearGradient id="paint6_linear" x1="150" x2="150" y1="162.058" y2="308.281" gradientUnits="userSpaceOnUse"><stop stop-color="#fff"/><stop offset="1" stop-color="#fff" stop-opacity="0"/></linearGradient><linearGradient id="paint7_linear" x1="47.238" x2="47.238" y1="235.308" y2="251.308" gradientUnits="userSpaceOnUse"><stop stop-color="#fff"/><stop offset="1" stop-color="#fff" stop-opacity="0"/></linearGradient></defs></svg>