<svg width="300" height="420" viewBox="0 0 300 420" fill="none" xmlns="http://www.w3.org/2000/svg">
<path d="M265.705 125.198C174.457 96.8925 73.1431 112.304 27.534 125.21C24.6822 126.017 23.8035 129.54 25.848 131.686L40.4413 147.002C41.3724 147.979 41.7479 149.359 41.4399 150.674L36.1793 173.119C35.4497 176.232 38.5099 178.905 41.5269 177.846C134.865 145.079 216.11 161.613 252.439 176.838C255.575 178.152 259.032 175.355 258.257 172.044L253.22 150.556C252.928 149.307 253.252 147.994 254.091 147.024L267.489 131.557C269.356 129.401 268.429 126.042 265.705 125.198Z" fill="url(#paint0_linear)"/>
<circle cx="146.865" cy="92.9067" r="91.6533" fill="url(#paint1_linear)" stroke="url(#paint2_linear)"/>
<circle cx="146.411" cy="92.451" r="74.7737" fill="url(#paint3_linear)" stroke="url(#paint4_linear)"/>
<path d="M147.699 127.081C142.707 127.081 138.419 126.313 134.835 124.777C131.251 123.241 128.307 121.129 126.003 118.441L133.491 108.073C135.347 109.801 137.331 111.209 139.443 112.297C141.619 113.321 143.795 113.833 145.971 113.833C148.659 113.833 150.803 113.353 152.403 112.393C154.003 111.433 154.803 109.993 154.803 108.073C154.803 106.921 154.611 105.897 154.227 105.001C153.843 104.105 153.107 103.337 152.019 102.697C150.931 102.057 149.395 101.577 147.411 101.257C145.427 100.937 142.835 100.777 139.635 100.777V89.2572C142.195 89.2572 144.307 89.0972 145.971 88.7772C147.699 88.4572 149.075 88.0092 150.099 87.4332C151.123 86.7932 151.827 86.0572 152.211 85.2252C152.659 84.3932 152.883 83.4332 152.883 82.3452C152.883 78.6332 150.771 76.7772 146.547 76.7772C144.499 76.7772 142.675 77.1932 141.075 78.0252C139.475 78.8572 137.715 80.1052 135.795 81.7692L127.539 71.7852C130.547 69.2892 133.651 67.3692 136.851 66.0252C140.051 64.6172 143.539 63.9132 147.315 63.9132C154.035 63.9132 159.379 65.4172 163.347 68.4252C167.379 71.3692 169.395 75.5932 169.395 81.0972C169.395 86.9852 166.131 91.3692 159.603 94.2492V94.6332C163.059 95.7212 165.875 97.4812 168.051 99.9132C170.227 102.281 171.315 105.385 171.315 109.225C171.315 112.105 170.675 114.665 169.395 116.905C168.115 119.081 166.387 120.937 164.211 122.473C162.099 124.009 159.603 125.161 156.723 125.929C153.843 126.697 150.835 127.081 147.699 127.081Z" fill="url(#paint5_linear)"/>
<rect x="4" y="166.058" width="292" height="249.257" rx="20" fill="#FCFFFF"/>
<rect x="4" y="166.058" width="292" height="249.257" rx="20" fill="url(#paint6_linear)"/>
<rect x="4" y="166.058" width="292" height="249.257" rx="20" stroke="#A9DED9" stroke-width="8"/>
<path d="M300 203.308V186.058C300 172.803 289.255 162.058 276 162.058H272.922H245.845H234.432H206.977H193.178H165.582H110.388H20.626C9.2351 162.058 0.000976562 171.292 0.000976562 182.683V203.308H300Z" fill="#23B5AF"/>
<path d="M103.034 188.683V180.235H100.17V178.251H108.266V180.235H105.402V188.683H103.034ZM110.692 188.683V178.251H113.044V182.267H116.644V178.251H119.012V188.683H116.644V184.331H113.044V188.683H110.692ZM122.273 188.683V178.251H124.625V188.683H122.273ZM127.886 188.683V178.251H131.646C132.201 178.251 132.718 178.304 133.198 178.411C133.689 178.518 134.115 178.699 134.478 178.955C134.841 179.2 135.129 179.531 135.342 179.947C135.555 180.363 135.662 180.88 135.662 181.499C135.662 182.267 135.491 182.902 135.15 183.403C134.819 183.894 134.371 184.262 133.806 184.507L136.174 188.683H133.534L131.534 184.923H130.238V188.683H127.886ZM130.238 183.051H131.454C132.073 183.051 132.542 182.923 132.862 182.667C133.193 182.4 133.358 182.011 133.358 181.499C133.358 180.987 133.193 180.63 132.862 180.427C132.542 180.224 132.073 180.123 131.454 180.123H130.238V183.051ZM138.498 188.683V178.251H141.442C142.242 178.251 142.962 178.352 143.602 178.555C144.242 178.758 144.792 179.072 145.25 179.499C145.709 179.915 146.061 180.448 146.306 181.099C146.552 181.75 146.674 182.523 146.674 183.419C146.674 184.315 146.552 185.094 146.306 185.755C146.061 186.416 145.714 186.966 145.266 187.403C144.818 187.83 144.28 188.15 143.65 188.363C143.032 188.576 142.338 188.683 141.57 188.683H138.498ZM140.85 186.779H141.298C141.746 186.779 142.152 186.72 142.514 186.603C142.877 186.486 143.186 186.299 143.442 186.043C143.698 185.776 143.896 185.43 144.034 185.003C144.184 184.576 144.258 184.048 144.258 183.419C144.258 182.8 144.184 182.283 144.034 181.867C143.896 181.44 143.698 181.104 143.442 180.859C143.186 180.603 142.877 180.422 142.514 180.315C142.152 180.208 141.746 180.155 141.298 180.155H140.85V186.779ZM153.458 188.683V178.251H157.042C157.618 178.251 158.156 178.31 158.658 178.427C159.159 178.534 159.596 178.72 159.97 178.987C160.343 179.243 160.636 179.59 160.85 180.027C161.074 180.454 161.186 180.982 161.186 181.611C161.186 182.219 161.074 182.747 160.85 183.195C160.636 183.643 160.343 184.011 159.97 184.299C159.596 184.587 159.164 184.8 158.674 184.939C158.183 185.078 157.66 185.147 157.106 185.147H155.81V188.683H153.458ZM155.81 183.275H156.962C158.242 183.275 158.882 182.72 158.882 181.611C158.882 181.067 158.711 180.683 158.37 180.459C158.028 180.235 157.538 180.123 156.898 180.123H155.81V183.275ZM163.789 188.683V178.251H166.141V186.699H170.269V188.683H163.789ZM175.225 183.403L174.969 184.363H177.193L176.953 183.403C176.803 182.88 176.659 182.326 176.521 181.739C176.382 181.152 176.243 180.587 176.105 180.043H176.041C175.913 180.598 175.779 181.168 175.641 181.755C175.513 182.331 175.374 182.88 175.225 183.403ZM171.449 188.683L174.713 178.251H177.545L180.809 188.683H178.313L177.673 186.203H174.489L173.849 188.683H171.449ZM186.944 188.875C186.283 188.875 185.659 188.763 185.072 188.539C184.485 188.304 183.968 187.963 183.52 187.515C183.083 187.067 182.736 186.512 182.48 185.851C182.224 185.179 182.096 184.406 182.096 183.531C182.096 182.667 182.229 181.899 182.496 181.227C182.763 180.544 183.12 179.968 183.568 179.499C184.016 179.03 184.539 178.672 185.136 178.427C185.733 178.182 186.363 178.059 187.024 178.059C187.696 178.059 188.299 178.198 188.832 178.475C189.365 178.742 189.808 179.056 190.16 179.419L188.912 180.923C188.645 180.678 188.363 180.48 188.064 180.331C187.776 180.171 187.445 180.091 187.072 180.091C186.72 180.091 186.384 180.171 186.064 180.331C185.755 180.48 185.483 180.699 185.248 180.987C185.024 181.275 184.843 181.627 184.704 182.043C184.576 182.459 184.512 182.928 184.512 183.451C184.512 184.528 184.741 185.366 185.2 185.963C185.659 186.55 186.272 186.843 187.04 186.843C187.467 186.843 187.845 186.752 188.176 186.571C188.517 186.379 188.816 186.144 189.072 185.867L190.32 187.339C189.445 188.363 188.32 188.875 186.944 188.875ZM192.705 188.683V178.251H199.233V180.235H195.057V182.331H198.609V184.299H195.057V186.699H199.393V188.683H192.705Z" fill="white"/>
<ellipse cx="28.875" cy="182.684" rx="4.875" ry="4.94081" fill="#EC9D89"/>
<ellipse cx="45.9477" cy="182.193" rx="4.38966" ry="4.44892" fill="#EDBA4B"/>
<ellipse cx="63.5074" cy="182.193" rx="4.38966" ry="4.44892" fill="#A9DED9"/>
<rect x="23.2383" y="219.308" width="252.779" height="48" rx="10" fill="#E1F7F4"/>
<path d="M76.8223 249.5C76.1609 249.5 75.5369 249.388 74.9503 249.164C74.3636 248.929 73.8463 248.588 73.3983 248.14C72.9609 247.692 72.6143 247.137 72.3583 246.476C72.1023 245.804 71.9743 245.031 71.9743 244.156C71.9743 243.292 72.1076 242.524 72.3743 241.852C72.6409 241.169 72.9983 240.593 73.4463 240.124C73.8943 239.655 74.4169 239.297 75.0143 239.052C75.6116 238.807 76.2409 238.684 76.9023 238.684C77.5743 238.684 78.1769 238.823 78.7103 239.1C79.2436 239.367 79.6863 239.681 80.0383 240.044L78.7903 241.548C78.5236 241.303 78.2409 241.105 77.9423 240.956C77.6543 240.796 77.3236 240.716 76.9503 240.716C76.5983 240.716 76.2623 240.796 75.9423 240.956C75.6329 241.105 75.3609 241.324 75.1263 241.612C74.9023 241.9 74.7209 242.252 74.5823 242.668C74.4543 243.084 74.3903 243.553 74.3903 244.076C74.3903 245.153 74.6196 245.991 75.0783 246.588C75.5369 247.175 76.1503 247.468 76.9183 247.468C77.3449 247.468 77.7236 247.377 78.0543 247.196C78.3956 247.004 78.6943 246.769 78.9503 246.492L80.1983 247.964C79.3236 248.988 78.1983 249.5 76.8223 249.5ZM85.7988 249.5C85.2974 249.5 84.8121 249.409 84.3428 249.228C83.8734 249.036 83.4574 248.764 83.0948 248.412C82.7428 248.06 82.4601 247.628 82.2468 247.116C82.0334 246.593 81.9268 246.001 81.9268 245.34C81.9268 244.679 82.0334 244.092 82.2468 243.58C82.4601 243.057 82.7428 242.62 83.0948 242.268C83.4574 241.916 83.8734 241.649 84.3428 241.468C84.8121 241.276 85.2974 241.18 85.7988 241.18C86.3001 241.18 86.7801 241.276 87.2388 241.468C87.7081 241.649 88.1188 241.916 88.4708 242.268C88.8334 242.62 89.1214 243.057 89.3348 243.58C89.5481 244.092 89.6548 244.679 89.6548 245.34C89.6548 246.001 89.5481 246.593 89.3348 247.116C89.1214 247.628 88.8334 248.06 88.4708 248.412C88.1188 248.764 87.7081 249.036 87.2388 249.228C86.7801 249.409 86.3001 249.5 85.7988 249.5ZM85.7988 247.596C86.2788 247.596 86.6414 247.393 86.8868 246.988C87.1321 246.583 87.2548 246.033 87.2548 245.34C87.2548 244.647 87.1321 244.097 86.8868 243.692C86.6414 243.287 86.2788 243.084 85.7988 243.084C85.3081 243.084 84.9401 243.287 84.6948 243.692C84.4601 244.097 84.3428 244.647 84.3428 245.34C84.3428 246.033 84.4601 246.583 84.6948 246.988C84.9401 247.393 85.3081 247.596 85.7988 247.596ZM92.0658 249.308V241.372H93.9858L94.1458 242.396H94.2098C94.5404 242.065 94.8924 241.783 95.2658 241.548C95.6391 241.303 96.0871 241.18 96.6098 241.18C97.1751 241.18 97.6284 241.297 97.9698 241.532C98.3218 241.756 98.5991 242.081 98.8018 242.508C99.1538 242.145 99.5218 241.836 99.9058 241.58C100.3 241.313 100.764 241.18 101.298 241.18C102.151 241.18 102.775 241.468 103.17 242.044C103.575 242.609 103.778 243.388 103.778 244.38V249.308H101.426V244.684C101.426 244.108 101.346 243.713 101.186 243.5C101.036 243.287 100.791 243.18 100.45 243.18C100.055 243.18 99.6018 243.436 99.0898 243.948V249.308H96.7378V244.684C96.7378 244.108 96.6578 243.713 96.4978 243.5C96.3484 243.287 96.1031 243.18 95.7618 243.18C95.3564 243.18 94.9084 243.436 94.4178 243.948V249.308H92.0658ZM106.585 249.308V241.372H108.937V249.308H106.585ZM107.753 240.204C107.358 240.204 107.033 240.092 106.777 239.868C106.521 239.633 106.393 239.335 106.393 238.972C106.393 238.609 106.521 238.316 106.777 238.092C107.033 237.868 107.358 237.756 107.753 237.756C108.158 237.756 108.483 237.868 108.729 238.092C108.985 238.316 109.113 238.609 109.113 238.972C109.113 239.335 108.985 239.633 108.729 239.868C108.483 240.092 108.158 240.204 107.753 240.204ZM111.806 249.308V241.372H113.726L113.886 242.38H113.95C114.292 242.06 114.665 241.783 115.07 241.548C115.476 241.303 115.95 241.18 116.494 241.18C117.358 241.18 117.982 241.463 118.366 242.028C118.761 242.593 118.958 243.377 118.958 244.38V249.308H116.606V244.684C116.606 244.108 116.526 243.713 116.366 243.5C116.217 243.287 115.972 243.18 115.63 243.18C115.332 243.18 115.076 243.249 114.862 243.388C114.649 243.516 114.414 243.703 114.158 243.948V249.308H111.806ZM124.595 252.684C124.125 252.684 123.688 252.641 123.283 252.556C122.888 252.481 122.536 252.364 122.227 252.204C121.928 252.044 121.693 251.836 121.523 251.58C121.352 251.324 121.267 251.02 121.267 250.668C121.267 250.028 121.645 249.495 122.403 249.068V249.004C122.189 248.865 122.013 248.689 121.875 248.476C121.736 248.263 121.667 247.991 121.667 247.66C121.667 247.372 121.752 247.1 121.923 246.844C122.093 246.577 122.307 246.353 122.563 246.172V246.108C122.285 245.916 122.035 245.644 121.811 245.292C121.597 244.929 121.491 244.513 121.491 244.044C121.491 243.564 121.581 243.148 121.763 242.796C121.944 242.433 122.184 242.135 122.483 241.9C122.792 241.655 123.144 241.473 123.539 241.356C123.933 241.239 124.344 241.18 124.771 241.18C125.24 241.18 125.651 241.244 126.003 241.372H128.899V243.084H127.635C127.709 243.201 127.768 243.351 127.811 243.532C127.864 243.713 127.891 243.911 127.891 244.124C127.891 244.583 127.811 244.983 127.651 245.324C127.491 245.655 127.267 245.932 126.979 246.156C126.701 246.369 126.371 246.529 125.987 246.636C125.613 246.743 125.208 246.796 124.771 246.796C124.461 246.796 124.141 246.743 123.811 246.636C123.704 246.721 123.629 246.807 123.587 246.892C123.544 246.977 123.523 247.089 123.523 247.228C123.523 247.431 123.608 247.58 123.779 247.676C123.96 247.772 124.275 247.82 124.723 247.82H126.003C126.984 247.82 127.731 247.98 128.243 248.3C128.765 248.609 129.027 249.121 129.027 249.836C129.027 250.252 128.92 250.631 128.707 250.972C128.504 251.324 128.211 251.623 127.827 251.868C127.443 252.124 126.979 252.321 126.435 252.46C125.891 252.609 125.277 252.684 124.595 252.684ZM124.771 245.372C125.08 245.372 125.336 245.265 125.539 245.052C125.752 244.828 125.859 244.492 125.859 244.044C125.859 243.628 125.752 243.313 125.539 243.1C125.336 242.876 125.08 242.764 124.771 242.764C124.461 242.764 124.2 242.871 123.987 243.084C123.784 243.297 123.683 243.617 123.683 244.044C123.683 244.492 123.784 244.828 123.987 245.052C124.2 245.265 124.461 245.372 124.771 245.372ZM124.963 251.212C125.496 251.212 125.933 251.116 126.275 250.924C126.616 250.743 126.787 250.513 126.787 250.236C126.787 249.991 126.68 249.825 126.467 249.74C126.264 249.655 125.965 249.612 125.571 249.612H124.755C124.477 249.612 124.253 249.601 124.083 249.58C123.912 249.569 123.763 249.548 123.635 249.516C123.347 249.772 123.203 250.033 123.203 250.3C123.203 250.599 123.363 250.823 123.683 250.972C124.003 251.132 124.429 251.212 124.963 251.212ZM137.449 249.5C136.926 249.5 136.387 249.399 135.833 249.196C135.289 248.993 134.814 248.727 134.409 248.396L135.465 246.924C135.827 247.201 136.174 247.409 136.505 247.548C136.835 247.687 137.171 247.756 137.513 247.756C137.865 247.756 138.121 247.697 138.281 247.58C138.441 247.463 138.521 247.297 138.521 247.084C138.521 246.956 138.473 246.844 138.377 246.748C138.291 246.641 138.169 246.545 138.009 246.46C137.859 246.375 137.689 246.3 137.497 246.236C137.305 246.161 137.107 246.081 136.905 245.996C136.659 245.9 136.414 245.788 136.169 245.66C135.923 245.532 135.699 245.377 135.497 245.196C135.294 245.004 135.129 244.785 135.001 244.54C134.873 244.284 134.809 243.991 134.809 243.66C134.809 243.297 134.878 242.961 135.017 242.652C135.166 242.343 135.374 242.081 135.641 241.868C135.907 241.655 136.227 241.489 136.601 241.372C136.974 241.244 137.39 241.18 137.849 241.18C138.457 241.18 138.99 241.287 139.449 241.5C139.907 241.703 140.307 241.932 140.649 242.188L139.593 243.596C139.305 243.383 139.022 243.217 138.745 243.1C138.467 242.983 138.19 242.924 137.913 242.924C137.315 242.924 137.017 243.132 137.017 243.548C137.017 243.676 137.059 243.788 137.145 243.884C137.23 243.969 137.342 244.049 137.481 244.124C137.63 244.199 137.795 244.273 137.977 244.348C138.169 244.412 138.366 244.481 138.569 244.556C138.825 244.652 139.075 244.764 139.321 244.892C139.577 245.009 139.806 245.159 140.009 245.34C140.222 245.521 140.393 245.745 140.521 246.012C140.649 246.268 140.713 246.577 140.713 246.94C140.713 247.303 140.643 247.639 140.505 247.948C140.366 248.257 140.158 248.529 139.881 248.764C139.603 248.988 139.262 249.169 138.857 249.308C138.451 249.436 137.982 249.5 137.449 249.5ZM146.414 249.5C145.913 249.5 145.428 249.409 144.958 249.228C144.489 249.036 144.073 248.764 143.71 248.412C143.358 248.06 143.076 247.628 142.862 247.116C142.649 246.593 142.542 246.001 142.542 245.34C142.542 244.679 142.649 244.092 142.862 243.58C143.076 243.057 143.358 242.62 143.71 242.268C144.073 241.916 144.489 241.649 144.958 241.468C145.428 241.276 145.913 241.18 146.414 241.18C146.916 241.18 147.396 241.276 147.854 241.468C148.324 241.649 148.734 241.916 149.086 242.268C149.449 242.62 149.737 243.057 149.95 243.58C150.164 244.092 150.27 244.679 150.27 245.34C150.27 246.001 150.164 246.593 149.95 247.116C149.737 247.628 149.449 248.06 149.086 248.412C148.734 248.764 148.324 249.036 147.854 249.228C147.396 249.409 146.916 249.5 146.414 249.5ZM146.414 247.596C146.894 247.596 147.257 247.393 147.502 246.988C147.748 246.583 147.87 246.033 147.87 245.34C147.87 244.647 147.748 244.097 147.502 243.692C147.257 243.287 146.894 243.084 146.414 243.084C145.924 243.084 145.556 243.287 145.31 243.692C145.076 244.097 144.958 244.647 144.958 245.34C144.958 246.033 145.076 246.583 145.31 246.988C145.556 247.393 145.924 247.596 146.414 247.596ZM156.089 249.5C155.588 249.5 155.103 249.409 154.633 249.228C154.164 249.036 153.748 248.764 153.385 248.412C153.033 248.06 152.751 247.628 152.537 247.116C152.324 246.593 152.217 246.001 152.217 245.34C152.217 244.679 152.324 244.092 152.537 243.58C152.751 243.057 153.033 242.62 153.385 242.268C153.748 241.916 154.164 241.649 154.633 241.468C155.103 241.276 155.588 241.18 156.089 241.18C156.591 241.18 157.071 241.276 157.529 241.468C157.999 241.649 158.409 241.916 158.761 242.268C159.124 242.62 159.412 243.057 159.625 243.58C159.839 244.092 159.945 244.679 159.945 245.34C159.945 246.001 159.839 246.593 159.625 247.116C159.412 247.628 159.124 248.06 158.761 248.412C158.409 248.764 157.999 249.036 157.529 249.228C157.071 249.409 156.591 249.5 156.089 249.5ZM156.089 247.596C156.569 247.596 156.932 247.393 157.177 246.988C157.423 246.583 157.545 246.033 157.545 245.34C157.545 244.647 157.423 244.097 157.177 243.692C156.932 243.287 156.569 243.084 156.089 243.084C155.599 243.084 155.231 243.287 154.985 243.692C154.751 244.097 154.633 244.647 154.633 245.34C154.633 246.033 154.751 246.583 154.985 246.988C155.231 247.393 155.599 247.596 156.089 247.596ZM162.356 249.308V241.372H164.276L164.436 242.38H164.5C164.842 242.06 165.215 241.783 165.62 241.548C166.026 241.303 166.5 241.18 167.044 241.18C167.908 241.18 168.532 241.463 168.916 242.028C169.311 242.593 169.508 243.377 169.508 244.38V249.308H167.156V244.684C167.156 244.108 167.076 243.713 166.916 243.5C166.767 243.287 166.522 243.18 166.18 243.18C165.882 243.18 165.626 243.249 165.412 243.388C165.199 243.516 164.964 243.703 164.708 243.948V249.308H162.356Z" fill="#23B5AF"/>
<rect x="40.2383" y="236.308" width="14" height="14" rx="3" fill="#FCFFFF"/>
<rect x="40.2383" y="236.308" width="14" height="14" rx="3" fill="url(#paint7_linear)"/>
<rect x="40.2383" y="236.308" width="14" height="14" rx="3" stroke="#A9DED9" stroke-width="2"/>
<path d="M43.875 244.645L46.168 246.634L50.6047 239.98" stroke="#A9DED9" stroke-width="2" stroke-linecap="round" stroke-linejoin="round"/>
<rect x="23.2383" y="283.308" width="252.779" height="48" rx="10" fill="#E1F7F4"/>
<path d="M73.6383 313.5C73.2329 313.5 72.8916 313.361 72.6143 313.084C72.3476 312.796 72.2143 312.444 72.2143 312.028C72.2143 311.601 72.3476 311.249 72.6143 310.972C72.8916 310.684 73.2329 310.54 73.6383 310.54C74.0436 310.54 74.3796 310.684 74.6463 310.972C74.9236 311.249 75.0623 311.601 75.0623 312.028C75.0623 312.444 74.9236 312.796 74.6463 313.084C74.3796 313.361 74.0436 313.5 73.6383 313.5ZM79.2352 313.5C78.8298 313.5 78.4885 313.361 78.2112 313.084C77.9445 312.796 77.8112 312.444 77.8112 312.028C77.8112 311.601 77.9445 311.249 78.2112 310.972C78.4885 310.684 78.8298 310.54 79.2352 310.54C79.6405 310.54 79.9765 310.684 80.2432 310.972C80.5205 311.249 80.6592 311.601 80.6592 312.028C80.6592 312.444 80.5205 312.796 80.2432 313.084C79.9765 313.361 79.6405 313.5 79.2352 313.5ZM84.832 313.5C84.4267 313.5 84.0854 313.361 83.808 313.084C83.5414 312.796 83.408 312.444 83.408 312.028C83.408 311.601 83.5414 311.249 83.808 310.972C84.0854 310.684 84.4267 310.54 84.832 310.54C85.2374 310.54 85.5734 310.684 85.84 310.972C86.1174 311.249 86.256 311.601 86.256 312.028C86.256 312.444 86.1174 312.796 85.84 313.084C85.5734 313.361 85.2374 313.5 84.832 313.5Z" fill="#23B5AF"/>
<rect x="40.2383" y="300.308" width="14" height="14" rx="3" fill="#FCFFFF"/>
<rect x="40.2383" y="300.308" width="14" height="14" rx="3" fill="url(#paint8_linear)"/>
<rect x="40.2383" y="300.308" width="14" height="14" rx="3" stroke="#A9DED9" stroke-width="2"/>
<path d="M43.875 308.645L46.168 310.634L50.6047 303.98" stroke="#A9DED9" stroke-width="2" stroke-linecap="round" stroke-linejoin="round"/>
<rect x="23.2383" y="347.308" width="252.779" height="48" rx="10" fill="#E1F7F4"/>
<path d="M73.6383 377.5C73.2329 377.5 72.8916 377.361 72.6143 377.084C72.3476 376.796 72.2143 376.444 72.2143 376.028C72.2143 375.601 72.3476 375.249 72.6143 374.972C72.8916 374.684 73.2329 374.54 73.6383 374.54C74.0436 374.54 74.3796 374.684 74.6463 374.972C74.9236 375.249 75.0623 375.601 75.0623 376.028C75.0623 376.444 74.9236 376.796 74.6463 377.084C74.3796 377.361 74.0436 377.5 73.6383 377.5ZM79.2352 377.5C78.8298 377.5 78.4885 377.361 78.2112 377.084C77.9445 376.796 77.8112 376.444 77.8112 376.028C77.8112 375.601 77.9445 375.249 78.2112 374.972C78.4885 374.684 78.8298 374.54 79.2352 374.54C79.6405 374.54 79.9765 374.684 80.2432 374.972C80.5205 375.249 80.6592 375.601 80.6592 376.028C80.6592 376.444 80.5205 376.796 80.2432 377.084C79.9765 377.361 79.6405 377.5 79.2352 377.5ZM84.832 377.5C84.4267 377.5 84.0854 377.361 83.808 377.084C83.5414 376.796 83.408 376.444 83.408 376.028C83.408 375.601 83.5414 375.249 83.808 374.972C84.0854 374.684 84.4267 374.54 84.832 374.54C85.2374 374.54 85.5734 374.684 85.84 374.972C86.1174 375.249 86.256 375.601 86.256 376.028C86.256 376.444 86.1174 376.796 85.84 377.084C85.5734 377.361 85.2374 377.5 84.832 377.5Z" fill="#23B5AF"/>
<rect x="40.2383" y="364.308" width="14" height="14" rx="3" fill="#FCFFFF"/>
<rect x="40.2383" y="364.308" width="14" height="14" rx="3" fill="url(#paint9_linear)"/>
<rect x="40.2383" y="364.308" width="14" height="14" rx="3" stroke="#A9DED9" stroke-width="2"/>
<path d="M43.875 372.645L46.168 374.634L50.6047 367.98" stroke="#A9DED9" stroke-width="2" stroke-linecap="round" stroke-linejoin="round"/>
<defs>
<linearGradient id="paint0_linear" x1="146.411" y1="-18.496" x2="146.411" y2="180.409" gradientUnits="userSpaceOnUse">
<stop stop-color="#FAE0A1"/>
<stop offset="0.68419" stop-color="#FEDA8D"/>
<stop offset="1" stop-color="#EDBA4B"/>
</linearGradient>
<linearGradient id="paint1_linear" x1="239.018" y1="92.9067" x2="-15.5436" y2="185.06" gradientUnits="userSpaceOnUse">
<stop stop-color="#B08D57"/>
<stop offset="0.585156" stop-color="#DEB77B"/>
<stop offset="1" stop-color="#EDBA4B"/>
</linearGradient>
<linearGradient id="paint2_linear" x1="284.639" y1="115.717" x2="15.4783" y2="28.1257" gradientUnits="userSpaceOnUse">
<stop stop-color="#997743"/>
<stop offset="0.507102" stop-color="#DEB77B"/>
<stop offset="1" stop-color="#EDBA4B"/>
</linearGradient>
<linearGradient id="paint3_linear" x1="243.583" y1="17.1772" x2="81.1741" y2="167.725" gradientUnits="userSpaceOnUse">
<stop stop-color="#EDBA4B"/>
<stop offset="0.551019" stop-color="#DEB77B" stop-opacity="0.7"/>
<stop offset="0.991488" stop-color="#B08D57"/>
</linearGradient>
<linearGradient id="paint4_linear" x1="233.09" y1="9.87797" x2="103.984" y2="156.776" gradientUnits="userSpaceOnUse">
<stop stop-color="#EDBA4B"/>
<stop offset="0.380186" stop-color="#DEB77B"/>
<stop offset="1" stop-color="#B08D57"/>
</linearGradient>
<linearGradient id="paint5_linear" x1="112.14" y1="144.433" x2="389.968" y2="-27.5562" gradientUnits="userSpaceOnUse">
<stop offset="0.0416667" stop-color="#B08D57"/>
<stop offset="0.572643" stop-color="#DEB77B" stop-opacity="0.45"/>
<stop offset="1" stop-color="#FFF0D0"/>
</linearGradient>
<linearGradient id="paint6_linear" x1="150" y1="162.058" x2="150" y2="419.315" gradientUnits="userSpaceOnUse">
<stop stop-color="white"/>
<stop offset="1" stop-color="white" stop-opacity="0"/>
</linearGradient>
<linearGradient id="paint7_linear" x1="47.2383" y1="235.308" x2="47.2383" y2="251.308" gradientUnits="userSpaceOnUse">
<stop stop-color="white"/>
<stop offset="1" stop-color="white" stop-opacity="0"/>
</linearGradient>
<linearGradient id="paint8_linear" x1="47.2383" y1="299.308" x2="47.2383" y2="315.308" gradientUnits="userSpaceOnUse">
<stop stop-color="white"/>
<stop offset="1" stop-color="white" stop-opacity="0"/>
</linearGradient>
<linearGradient id="paint9_linear" x1="47.2383" y1="363.308" x2="47.2383" y2="379.308" gradientUnits="userSpaceOnUse">
<stop stop-color="white"/>
<stop offset="1" stop-color="white" stop-opacity="0"/>
</linearGradient>
</defs>
</svg>
