<svg xmlns="http://www.w3.org/2000/svg" width="301" height="258" fill="none" viewBox="0 0 301 258"><rect width="292" height="249.257" x="4" y="4.058" fill="#FCFFFF" rx="20"/><rect width="292" height="249.257" x="4" y="4.058" fill="url(#paint0_linear)" rx="20"/><rect width="292" height="249.257" x="4" y="4.058" stroke="#A9DED9" stroke-width="8" rx="20"/><path fill="#23B5AF" d="M300.003 41.3081V24.0581C300.003 10.8033 289.258 0.0581055 276.003 0.0581055H272.925H245.848H234.435H206.98H193.181H165.584H110.391H20.6289C9.23803 0.0581055 0.00390625 9.29223 0.00390625 20.6831V41.3081H300.003Z"/><ellipse cx="28.875" cy="20.684" fill="#EC9D89" rx="4.875" ry="4.941"/><ellipse cx="45.948" cy="20.193" fill="#EDBA4B" rx="4.39" ry="4.449"/><ellipse cx="63.507" cy="20.193" fill="#A9DED9" rx="4.39" ry="4.449"/><rect width="252.779" height="48" x="23.238" y="57.308" fill="#E1F7F4" rx="10"/><rect width="14" height="14" x="40.238" y="74.308" fill="#FCFFFF" rx="3"/><rect width="14" height="14" x="40.238" y="74.308" fill="url(#paint1_linear)" rx="3"/><rect width="14" height="14" x="40.238" y="74.308" stroke="#A9DED9" stroke-width="2" rx="3"/><path stroke="#A9DED9" stroke-linecap="round" stroke-linejoin="round" stroke-width="2" d="M43.875 82.6453L46.168 84.6336L50.6047 77.98"/><rect width="252.779" height="48" x="23.238" y="121.308" fill="#E1F7F4" rx="10"/><rect width="14" height="14" x="40.238" y="138.308" fill="#FCFFFF" rx="3"/><rect width="14" height="14" x="40.238" y="138.308" fill="url(#paint2_linear)" rx="3"/><rect width="14" height="14" x="40.238" y="138.308" stroke="#A9DED9" stroke-width="2" rx="3"/><path stroke="#A9DED9" stroke-linecap="round" stroke-linejoin="round" stroke-width="2" d="M43.875 146.645L46.168 148.634L50.6047 141.98"/><rect width="252.779" height="48" x="23.238" y="185.308" fill="#E1F7F4" rx="10"/><rect width="14" height="14" x="40.238" y="202.308" fill="#FCFFFF" rx="3"/><rect width="14" height="14" x="40.238" y="202.308" fill="url(#paint3_linear)" rx="3"/><rect width="14" height="14" x="40.238" y="202.308" stroke="#A9DED9" stroke-width="2" rx="3"/><path stroke="#A9DED9" stroke-linecap="round" stroke-linejoin="round" stroke-width="2" d="M43.875 210.645L46.168 212.634L50.6047 205.98"/><defs><linearGradient id="paint0_linear" x1="150" x2="150" y1=".058" y2="257.315" gradientUnits="userSpaceOnUse"><stop stop-color="#fff"/><stop offset="1" stop-color="#fff" stop-opacity="0"/></linearGradient><linearGradient id="paint1_linear" x1="47.238" x2="47.238" y1="73.308" y2="89.308" gradientUnits="userSpaceOnUse"><stop stop-color="#fff"/><stop offset="1" stop-color="#fff" stop-opacity="0"/></linearGradient><linearGradient id="paint2_linear" x1="47.238" x2="47.238" y1="137.308" y2="153.308" gradientUnits="userSpaceOnUse"><stop stop-color="#fff"/><stop offset="1" stop-color="#fff" stop-opacity="0"/></linearGradient><linearGradient id="paint3_linear" x1="47.238" x2="47.238" y1="201.308" y2="217.308" gradientUnits="userSpaceOnUse"><stop stop-color="#fff"/><stop offset="1" stop-color="#fff" stop-opacity="0"/></linearGradient></defs></svg>