<svg xmlns="http://www.w3.org/2000/svg" width="299" height="112" fill="none" viewBox="0 0 299 112"><path fill="url(#paint0_linear)" d="M1.07022 111.809H341.27H429.516C429.516 111.809 429.516 97.0531 419.924 77.8068C414.439 66.8007 397.777 41.4161 387.631 34.5027C378.01 27.947 352.867 18.8629 341.27 19.7471C325.405 20.9567 305.78 34.5027 305.78 34.5027C305.78 34.5027 281.331 58.4276 267.093 54.0697C255.73 50.5917 233.05 34.5985 233.05 34.5985C233.05 34.5985 204.359 3.40439 187.653 1.26102C166.508 -1.45199 151.622 8.92275 151.622 8.92275C151.622 8.92275 142.605 12.1378 121.296 31.2949C99.9872 50.4521 104.353 47.3919 91.234 54.0697C65.8835 66.9733 34.938 53.8405 18.9825 62.943C-4.39423 76.2792 1.07022 111.809 1.07022 111.809Z"/><defs><linearGradient id="paint0_linear" x1="205.705" x2="205.705" y1="-46.524" y2="111.809" gradientUnits="userSpaceOnUse"><stop stop-color="#23B5AF"/><stop offset="1" stop-color="#fff" stop-opacity="0"/></linearGradient></defs></svg>