<svg xmlns="http://www.w3.org/2000/svg" width="254" height="67" fill="none" viewBox="0 0 254 67"><path fill="url(#paint0_linear)" d="M253.505 66.3859H52.7249H0.643799C0.643799 66.3859 0.643799 57.6775 6.30478 46.3186C9.54202 39.823 19.3753 24.8414 25.3635 20.7612C31.0417 16.8922 45.8807 11.5309 52.7249 12.0527C62.0881 12.7666 73.6705 20.7612 73.6705 20.7612C73.6705 20.7612 88.1 34.8813 96.5031 32.3094C103.21 30.2567 116.595 20.8178 116.595 20.8178C116.595 20.8178 133.528 2.40749 143.387 1.14251C155.867 -0.458674 164.652 5.66434 164.652 5.66434C164.652 5.66434 169.974 7.56179 182.55 18.868C195.126 30.1743 192.549 28.3682 200.292 32.3094C215.254 39.9248 233.517 32.1741 242.934 37.5462C256.73 45.4171 253.505 66.3859 253.505 66.3859Z"/><defs><linearGradient id="paint0_linear" x1="132.733" x2="132.733" y1="-27.059" y2="66.386" gradientUnits="userSpaceOnUse"><stop stop-color="#23B5AF"/><stop offset="1" stop-color="#fff" stop-opacity="0"/></linearGradient></defs></svg>