<svg width="302" height="185" viewBox="0 0 302 185" fill="none" xmlns="http://www.w3.org/2000/svg">
<path d="M29.6792 54.7009C28.5572 78.1142 41.0017 83.5348 54.2255 83.4807C58.6704 82.7742 58.603 83.5663 58.0137 84.0507C52.9276 87.3381 39.6072 84.718 33.5827 82.997C32.6287 87.1603 34.8386 92.5853 36.0629 94.7774C43.0525 96.3078 56.6201 92.9812 62.9893 90.7632C63.2303 90.6791 63.9921 91.3392 63.2773 91.5885C56.815 96.3642 43.9086 98.0938 37.1988 98.0336C37.6831 104.021 42.3642 106.56 44.6442 107.08C61.0666 102.269 65.5266 99.1932 66.5031 97.4764C67.4038 97.3214 67.5094 97.0295 67.9906 97.7893C68.3144 103.215 54.2378 108.559 45.8187 110.447C47.2933 116.478 50.6894 119.448 52.2031 120.178C63.1489 123.409 75.5613 110.457 80.3993 103.576C93.8113 103.052 101.09 94.6276 103.053 90.4812C102.045 82.9022 97.6006 78.7985 95.5042 77.6941C94.291 80.5761 88.8892 85.8516 86.3399 88.1292C77.8431 93.5449 78.4504 92.3052 78.1804 91.5313C89.2745 84.6034 91.9859 75.3723 93.4713 71.8667C86.9219 60.2599 79.5139 57.6785 76.6285 57.8387C78.5268 67.3891 73.6154 76.5411 71.4882 81.2149C69.9677 82.1634 70.4567 81.0604 70.4784 80.4805C74.5001 67.0135 72.708 59.1329 71.1563 55.4943C70.9558 54.717 69.5688 54.4007 68.9003 54.3397C65.3332 50.9951 59.9793 51.5468 57.7482 52.2408C62.5258 57.2314 63.8179 69.8242 64.5817 75.6408C64.3476 76.4956 63.5745 76.9843 63.0566 76.1728C55.5494 42.5391 39.7561 51.2344 29.6792 54.7009Z" fill="url(#paint0_linear)"/>
<path d="M34.1675 57.5146C39.5464 59.2825 64.8417 78.2725 77.1177 99.5862" stroke="url(#paint1_linear)" stroke-width="2" stroke-linecap="round"/>
<path d="M40.1322 71.7127C42.8553 71.3535 49.7355 71.2062 55.4718 73.4905C54.5469 72.241 52.1752 67.7928 50.0872 59.996" stroke="url(#paint2_linear)" stroke-width="2" stroke-linecap="round"/>
<path d="M38.0596 89.7068C40.7827 89.3476 52.8423 91.3602 66.1865 84.6293C66.2455 83.0504 69.9479 72.0314 66.089 57.0864" stroke="url(#paint3_linear)" stroke-width="2" stroke-linecap="round"/>
<path d="M51.4635 100.257C53.6209 99.9486 61.0229 97.5718 71.3903 90.6026C71.4582 89.4079 78.5245 85.7713 81.4623 73.5709" stroke="url(#paint4_linear)" stroke-width="2" stroke-linecap="round"/>
<path d="M53.1828 115.912C55.3402 115.604 65.4001 113.112 76.9212 99.7132C76.9891 98.5185 89.3992 97.0037 96.9752 85.3299" stroke="url(#paint5_linear)" stroke-width="2" stroke-linecap="round"/>
<path d="M277.342 85.3207C261.364 83.3027 256.987 91.5379 256.318 100.599C256.565 103.682 256.026 103.593 255.726 103.164C253.745 99.5042 256.251 90.5195 257.751 86.4846C254.95 85.609 251.116 86.8333 249.549 87.5549C248.128 92.2611 249.683 101.732 250.862 106.214C250.907 106.383 250.414 106.87 250.281 106.367C247.355 101.685 246.859 92.7523 247.258 88.1592C243.131 88.1715 241.142 91.2425 240.664 92.7766C243.084 104.283 244.952 107.502 246.076 108.262C246.134 108.888 246.329 108.975 245.782 109.265C242.049 109.197 239.139 99.2692 238.295 93.4014C234.085 94.0896 231.87 96.2575 231.288 97.2554C228.491 104.581 236.701 113.775 241.156 117.456C240.8 126.671 246.182 132.106 248.917 133.672C254.163 133.386 257.211 130.561 258.079 129.184C256.17 128.199 252.845 124.217 251.42 122.349C248.164 116.24 248.981 116.722 249.525 116.579C253.679 124.548 259.858 126.898 262.18 128.102C270.48 124.235 272.643 119.298 272.688 117.313C266.044 118.104 260.037 114.251 256.949 112.545C256.381 111.453 257.11 111.847 257.506 111.892C266.516 115.366 272.01 114.559 274.586 113.69C275.129 113.594 275.419 112.661 275.497 112.206C277.978 109.941 277.886 106.245 277.53 104.679C273.856 107.686 265.161 107.899 261.136 108.111C260.563 107.905 260.269 107.35 260.853 107.038C284.293 103.691 279.179 92.4083 277.342 85.3207Z" fill="url(#paint6_linear)"/>
<path d="M275.176 88.2412C273.678 91.8314 259.32 108.145 244.065 115.417" stroke="url(#paint7_linear)" stroke-width="2" stroke-linecap="round"/>
<path d="M265.132 91.5712C265.233 93.4557 264.967 98.1764 263.096 101.984C264.001 101.417 267.175 100.03 272.627 99.0156" stroke="url(#paint8_linear)" stroke-width="2" stroke-linecap="round"/>
<path d="M252.915 89.1934C253.016 91.0778 250.994 99.2312 254.892 108.731C255.971 108.856 263.321 111.98 273.764 110.134" stroke="url(#paint9_linear)" stroke-width="2" stroke-linecap="round"/>
<path d="M244.972 97.8091C245.068 99.3034 246.301 104.501 250.522 111.974C251.337 112.084 253.451 117.119 261.651 119.782" stroke="url(#paint10_linear)" stroke-width="2" stroke-linecap="round"/>
<path d="M234.158 98.1532C234.254 99.6475 235.425 106.672 243.988 115.278C244.802 115.389 245.178 123.97 252.77 129.783" stroke="url(#paint11_linear)" stroke-width="2" stroke-linecap="round"/>
<path d="M271.299 124.771C180.05 96.4657 78.7364 111.877 33.1273 124.783C30.2755 125.59 29.3969 129.114 31.4414 131.259L46.0346 146.575C46.9657 147.552 47.3412 148.933 47.0332 150.247L41.7726 172.692C41.043 175.806 44.1032 178.478 47.1202 177.419C140.458 144.652 221.704 161.187 258.032 176.411C261.168 177.725 264.626 174.928 263.85 171.618L258.814 150.129C258.521 148.88 258.845 147.567 259.685 146.597L273.083 131.13C274.95 128.975 274.022 125.616 271.299 124.771Z" fill="#EC9D89"/>
<path d="M271.299 124.771C180.05 96.4657 78.7364 111.877 33.1273 124.783C30.2755 125.59 29.3969 129.114 31.4414 131.259L46.0346 146.575C46.9657 147.552 47.3412 148.933 47.0332 150.247L41.7726 172.692C41.043 175.806 44.1032 178.478 47.1202 177.419C140.458 144.652 221.704 161.187 258.032 176.411C261.168 177.725 264.626 174.928 263.85 171.618L258.814 150.129C258.521 148.88 258.845 147.567 259.685 146.597L273.083 131.13C274.95 128.975 274.022 125.616 271.299 124.771Z" fill="url(#paint12_linear)"/>
<circle cx="152.005" cy="92.4516" r="91.1533" fill="#EDBA4B"/>
<circle cx="152.005" cy="92.4516" r="91.1533" fill="url(#paint13_linear)"/>
<circle cx="152.005" cy="92.4516" r="91.1533" stroke="#EDBA4B" stroke-width="2"/>
<circle cx="152.005" cy="92.4516" r="91.1533" stroke="url(#paint14_linear)" stroke-width="2"/>
<circle cx="151.544" cy="91.9959" r="74.7737" fill="#EDBA4B"/>
<circle cx="151.544" cy="91.9959" r="74.7737" fill="url(#paint15_linear)"/>
<circle cx="151.544" cy="91.9959" r="74.7737" stroke="#EDBA4B"/>
<circle cx="151.544" cy="91.9959" r="74.7737" stroke="url(#paint16_linear)"/>
<path d="M132.871 127.422V114.174H145.927V82.6864H134.407V72.5104C137.863 71.8064 140.807 71.0064 143.239 70.1104C145.671 69.2144 148.039 68.0304 150.343 66.5584H162.439V114.174H173.383V127.422H132.871Z" fill="#D29818"/>
<path d="M132.871 127.422V114.174H145.927V82.6864H134.407V72.5104C137.863 71.8064 140.807 71.0064 143.239 70.1104C145.671 69.2144 148.039 68.0304 150.343 66.5584H162.439V114.174H173.383V127.422H132.871Z" fill="url(#paint17_linear)"/>
<defs>
<linearGradient id="paint0_linear" x1="39.1737" y1="53.0414" x2="108.084" y2="117.511" gradientUnits="userSpaceOnUse">
<stop stop-color="#8FC8C2"/>
<stop offset="1" stop-color="#8FC8C2" stop-opacity="0"/>
</linearGradient>
<linearGradient id="paint1_linear" x1="46.8998" y1="53.1348" x2="64.3854" y2="103.966" gradientUnits="userSpaceOnUse">
<stop stop-color="#B4E9E4"/>
<stop offset="1" stop-color="#B4E9E4" stop-opacity="0"/>
</linearGradient>
<linearGradient id="paint2_linear" x1="44.1664" y1="62.0327" x2="48.887" y2="75.7556" gradientUnits="userSpaceOnUse">
<stop stop-color="#B4E9E4"/>
<stop offset="1" stop-color="#B4E9E4" stop-opacity="0"/>
</linearGradient>
<linearGradient id="paint3_linear" x1="48.5403" y1="63.123" x2="57.1611" y2="88.1839" gradientUnits="userSpaceOnUse">
<stop stop-color="#B4E9E4"/>
<stop offset="1" stop-color="#B4E9E4" stop-opacity="0"/>
</linearGradient>
<linearGradient id="paint4_linear" x1="63.9458" y1="79.5965" x2="69.0508" y2="94.437" gradientUnits="userSpaceOnUse">
<stop stop-color="#B4E9E4"/>
<stop offset="1" stop-color="#B4E9E4" stop-opacity="0"/>
</linearGradient>
<linearGradient id="paint5_linear" x1="72.6923" y1="93.683" x2="77.544" y2="107.787" gradientUnits="userSpaceOnUse">
<stop stop-color="#B4E9E4"/>
<stop offset="1" stop-color="#B4E9E4" stop-opacity="0"/>
</linearGradient>
<linearGradient id="paint6_linear" x1="277.972" y1="91.913" x2="230.133" y2="135.676" gradientUnits="userSpaceOnUse">
<stop stop-color="#8FC8C2"/>
<stop offset="1" stop-color="#8FC8C2" stop-opacity="0"/>
</linearGradient>
<linearGradient id="paint7_linear" x1="277.497" y1="97.1965" x2="241.744" y2="106.462" gradientUnits="userSpaceOnUse">
<stop stop-color="#B4E9E4"/>
<stop offset="1" stop-color="#B4E9E4" stop-opacity="0"/>
</linearGradient>
<linearGradient id="paint8_linear" x1="271.548" y1="94.8512" x2="261.896" y2="97.3525" gradientUnits="userSpaceOnUse">
<stop stop-color="#B4E9E4"/>
<stop offset="1" stop-color="#B4E9E4" stop-opacity="0"/>
</linearGradient>
<linearGradient id="paint9_linear" x1="270.566" y1="97.7912" x2="252.939" y2="102.359" gradientUnits="userSpaceOnUse">
<stop stop-color="#B4E9E4"/>
<stop offset="1" stop-color="#B4E9E4" stop-opacity="0"/>
</linearGradient>
<linearGradient id="paint10_linear" x1="258.458" y1="107.462" x2="248.02" y2="110.167" gradientUnits="userSpaceOnUse">
<stop stop-color="#B4E9E4"/>
<stop offset="1" stop-color="#B4E9E4" stop-opacity="0"/>
</linearGradient>
<linearGradient id="paint11_linear" x1="248.344" y1="112.703" x2="238.424" y2="115.274" gradientUnits="userSpaceOnUse">
<stop stop-color="#B4E9E4"/>
<stop offset="1" stop-color="#B4E9E4" stop-opacity="0"/>
</linearGradient>
<linearGradient id="paint12_linear" x1="136.037" y1="215.11" x2="70.3438" y2="1.60642" gradientUnits="userSpaceOnUse">
<stop stop-color="#E8795D"/>
<stop offset="1" stop-color="white" stop-opacity="0"/>
</linearGradient>
<linearGradient id="paint13_linear" x1="50.728" y1="65.0794" x2="152.005" y2="184.605" gradientUnits="userSpaceOnUse">
<stop stop-color="#FAE0A1"/>
<stop offset="1" stop-color="white" stop-opacity="0"/>
</linearGradient>
<linearGradient id="paint14_linear" x1="152.005" y1="0.298334" x2="214.505" y2="170.919" gradientUnits="userSpaceOnUse">
<stop stop-color="#FAE0A1"/>
<stop offset="1" stop-color="white" stop-opacity="0"/>
</linearGradient>
<linearGradient id="paint15_linear" x1="228.642" y1="19.4594" x2="151.544" y2="167.27" gradientUnits="userSpaceOnUse">
<stop stop-color="#FAE0A1"/>
<stop offset="1" stop-color="white" stop-opacity="0"/>
</linearGradient>
<linearGradient id="paint16_linear" x1="40.6861" y1="39.5324" x2="151.544" y2="167.27" gradientUnits="userSpaceOnUse">
<stop stop-color="#FAE0A1"/>
<stop offset="1" stop-color="white" stop-opacity="0"/>
</linearGradient>
<linearGradient id="paint17_linear" x1="114.637" y1="23.9307" x2="179.31" y2="125.494" gradientUnits="userSpaceOnUse">
<stop stop-color="#EDBA4B"/>
<stop offset="1" stop-color="white" stop-opacity="0"/>
</linearGradient>
</defs>
</svg>
