<svg xmlns="http://www.w3.org/2000/svg" width="276" height="185" fill="none" viewBox="0 0 276 185"><path fill="url(#paint0_linear)" d="M25.5547 68.1653C23.6606 87.6736 33.8323 92.7094 44.8787 93.2048C48.6199 92.7964 48.5312 93.4552 48.0192 93.8357C43.6371 96.3733 32.6193 93.6406 27.6582 91.957C26.6912 95.3951 28.3152 100.016 29.248 101.897C35.023 103.461 46.4903 101.237 51.9003 99.6451C52.105 99.5848 52.7143 100.167 52.1071 100.346C46.5148 104.071 35.665 104.988 30.0636 104.663C30.2233 109.684 34.0291 111.995 35.912 112.523C49.8242 109.175 53.6748 106.789 54.5606 105.395C55.3191 105.303 55.4192 105.063 55.79 105.718C55.8387 110.262 43.8639 114.15 36.7553 115.383C37.7403 120.48 40.4552 123.099 41.6896 123.771C50.6991 126.917 61.5951 116.606 65.9169 111.058C77.1397 111.168 83.563 104.43 85.3718 101.047C84.8402 94.6763 81.2958 91.0673 79.5901 90.0593C78.4591 92.4166 73.7319 96.6018 71.5097 98.3997C64.1921 102.575 64.7499 101.565 64.5561 100.908C74.1048 95.5751 76.7466 87.9764 78.1305 85.1093C73.135 75.1479 67.0535 72.6892 64.6372 72.705C65.8322 80.7589 61.3562 88.2016 59.3887 92.0181C58.08 92.7481 58.5335 91.8469 58.5753 91.3634C62.4846 80.2806 61.31 73.6257 60.1628 70.5233C60.0271 69.866 58.8817 69.5452 58.3259 69.4669C55.4834 66.5277 50.9894 66.7697 49.0977 67.258C52.8838 71.6213 53.4482 82.1913 53.8484 87.0804C53.618 87.7848 52.9522 88.1613 52.5529 87.4624C47.6579 59.0656 34.1123 65.6821 25.5547 68.1653Z"/><path stroke="url(#paint1_linear)" stroke-linecap="round" stroke-width="2" d="M29.1849 69.7959C33.6049 71.4922 53.9547 88.3862 63.3361 106.689"/><path stroke="url(#paint2_linear)" stroke-linecap="round" stroke-width="2" d="M33.5863 81.8976C35.8752 81.7089 41.6274 81.867 46.3248 84.0093C45.6035 82.9279 43.8045 79.116 42.3794 72.519"/><path stroke="url(#paint3_linear)" stroke-linecap="round" stroke-width="2" d="M31.1192 96.8409C33.4081 96.6522 43.3977 98.826 54.8175 93.75C54.9314 92.4338 58.4739 83.3823 55.8619 70.743"/><path stroke="url(#paint4_linear)" stroke-linecap="round" stroke-width="2" d="M41.881 106.201C43.6955 106.032 49.9745 104.349 58.918 98.9524C59.0235 97.9574 65.0737 95.209 68.026 85.1397"/><path stroke="url(#paint5_linear)" stroke-linecap="round" stroke-width="2" d="M42.6784 119.345C44.4929 119.176 52.9965 117.506 63.1663 106.787C63.2718 105.792 73.6983 105.034 80.5027 95.5941"/><path fill="url(#paint6_linear)" d="M239.578 65.8585C220.063 67.6822 217.039 78.6218 218.638 89.563C219.745 93.1597 219.082 93.197 218.611 92.7661C215.292 88.942 215.895 77.6064 216.612 72.4166C213.053 72.1163 208.821 74.5836 207.151 75.8548C206.705 81.8212 211.054 92.6623 213.639 97.6744C213.737 97.864 213.28 98.5723 212.99 98.0098C208.277 93.2213 205.327 82.7399 204.588 77.178C199.688 78.2829 198.137 82.4566 197.974 84.4053C203.888 97.4352 206.959 100.766 208.495 101.373C208.729 102.1 208.983 102.153 208.411 102.641C203.957 103.547 197.878 92.5214 195.325 85.7734C190.505 87.7033 188.446 90.8639 188.019 92.2029C186.631 101.644 198.814 110.397 205.078 113.594C207.09 124.636 214.919 129.671 218.583 130.808C224.739 129.083 227.613 124.921 228.281 123.056C225.753 122.39 220.75 118.539 218.565 116.696C213.083 110.298 214.18 110.655 214.789 110.341C221.829 118.711 229.79 119.87 232.867 120.688C241.706 113.901 242.972 107.465 242.5 105.095C234.817 107.789 226.663 104.799 222.543 103.588C221.579 102.441 222.55 102.716 223.032 102.665C234.654 104.412 240.967 102.002 243.797 100.289C244.417 100.032 244.516 98.8465 244.488 98.2859C246.838 94.9396 245.751 90.5721 244.915 88.8067C241.345 93.3486 231.071 95.8987 226.346 97.2149C225.611 97.1216 225.115 96.5389 225.726 96.0148C252.688 85.8459 243.633 73.7933 239.578 65.8585Z"/><path stroke="url(#paint7_linear)" stroke-linecap="round" stroke-width="2" d="M238.66 69.7324C237.829 74.3932 225.081 97.5669 208.879 110.235"/><path stroke="url(#paint8_linear)" stroke-linecap="round" stroke-width="2" d="M227.606 76.3388C228.224 78.5509 229.155 84.2294 227.938 89.2469C228.864 88.3343 232.267 85.8479 238.476 83.2027"/><path stroke="url(#paint9_linear)" stroke-linecap="round" stroke-width="2" d="M212.465 76.7392C213.083 78.9512 212.834 89.1716 219.975 99.4275C221.289 99.2908 230.847 101.06 242.766 96.1088"/><path stroke="url(#paint10_linear)" stroke-linecap="round" stroke-width="2" d="M205.308 89.0776C205.817 90.8275 208.655 96.6759 215.643 104.439C216.64 104.355 220.481 109.778 230.927 110.775"/><path stroke="url(#paint11_linear)" stroke-linecap="round" stroke-width="2" d="M192.55 92.3402C193.059 94.0901 196.305 102.125 208.752 110.088C209.749 110.004 212.462 120.1 223.017 124.999"/><path fill="#A9DED9" d="M254.841 124.303C163.593 95.9975 62.2787 111.409 16.6696 124.315C13.8178 125.122 12.9392 128.645 14.9837 130.791L29.5769 146.107C30.508 147.084 30.8835 148.464 30.5755 149.779L25.3149 172.224C24.5853 175.337 27.6455 178.01 30.6625 176.951C124 144.184 205.246 160.718 241.575 175.943C244.71 177.257 248.168 174.46 247.392 171.149L242.356 149.661C242.063 148.412 242.387 147.099 243.227 146.129L256.625 130.662C258.492 128.506 257.565 125.147 254.841 124.303Z"/><path fill="url(#paint12_linear)" d="M254.841 124.303C163.593 95.9975 62.2787 111.409 16.6696 124.315C13.8178 125.122 12.9392 128.645 14.9837 130.791L29.5769 146.107C30.508 147.084 30.8835 148.464 30.5755 149.779L25.3149 172.224C24.5853 175.337 27.6455 178.01 30.6625 176.951C124 144.184 205.246 160.718 241.575 175.943C244.71 177.257 248.168 174.46 247.392 171.149L242.356 149.661C242.063 148.412 242.387 147.099 243.227 146.129L256.625 130.662C258.492 128.506 257.565 125.147 254.841 124.303Z"/><circle cx="136.004" cy="92.452" r="91.153" fill="#C4C4C4"/><circle cx="136.004" cy="92.452" r="91.153" fill="url(#paint13_linear)"/><circle cx="136.004" cy="92.452" r="91.153" stroke="#BBB" stroke-width="2"/><circle cx="136.004" cy="92.452" r="91.153" stroke="url(#paint14_linear)" stroke-width="2"/><circle cx="135.547" cy="91.996" r="74.774" fill="#717171"/><circle cx="135.547" cy="91.996" r="74.774" fill="url(#paint15_linear)"/><circle cx="135.547" cy="91.996" r="74.774" stroke="#CCC"/><circle cx="135.547" cy="91.996" r="74.774" stroke="url(#paint16_linear)"/><path fill="#D5D5D5" d="M113.54 125.93V116.522C117.124 113.194 120.452 110.058 123.524 107.114C126.66 104.17 129.38 101.418 131.684 98.8582C133.988 96.2342 135.78 93.7702 137.06 91.4662C138.404 89.0982 139.076 86.8902 139.076 84.8422C139.076 82.0902 138.372 80.0742 136.964 78.7942C135.62 77.4502 133.828 76.7782 131.588 76.7782C129.54 76.7782 127.716 77.3862 126.116 78.6022C124.58 79.7542 123.076 81.0662 121.604 82.5382L112.772 73.7062C114.372 72.0422 115.94 70.6022 117.476 69.3862C119.012 68.1062 120.612 67.0822 122.276 66.3142C124.004 65.4822 125.796 64.8742 127.652 64.4902C129.572 64.1062 131.652 63.9142 133.892 63.9142C136.964 63.9142 139.78 64.3942 142.34 65.3542C144.9 66.3142 147.108 67.6582 148.964 69.3862C150.82 71.1142 152.26 73.2262 153.284 75.7222C154.308 78.1542 154.82 80.8742 154.82 83.8822C154.82 86.3142 154.276 88.8102 153.188 91.3702C152.164 93.8662 150.82 96.3622 149.156 98.8582C147.492 101.354 145.604 103.786 143.492 106.154C141.444 108.522 139.396 110.762 137.348 112.874C138.884 112.682 140.612 112.522 142.532 112.394C144.516 112.202 146.18 112.106 147.524 112.106H157.7V125.93H113.54Z"/><path fill="url(#paint17_linear)" d="M113.54 125.93V116.522C117.124 113.194 120.452 110.058 123.524 107.114C126.66 104.17 129.38 101.418 131.684 98.8582C133.988 96.2342 135.78 93.7702 137.06 91.4662C138.404 89.0982 139.076 86.8902 139.076 84.8422C139.076 82.0902 138.372 80.0742 136.964 78.7942C135.62 77.4502 133.828 76.7782 131.588 76.7782C129.54 76.7782 127.716 77.3862 126.116 78.6022C124.58 79.7542 123.076 81.0662 121.604 82.5382L112.772 73.7062C114.372 72.0422 115.94 70.6022 117.476 69.3862C119.012 68.1062 120.612 67.0822 122.276 66.3142C124.004 65.4822 125.796 64.8742 127.652 64.4902C129.572 64.1062 131.652 63.9142 133.892 63.9142C136.964 63.9142 139.78 64.3942 142.34 65.3542C144.9 66.3142 147.108 67.6582 148.964 69.3862C150.82 71.1142 152.26 73.2262 153.284 75.7222C154.308 78.1542 154.82 80.8742 154.82 83.8822C154.82 86.3142 154.276 88.8102 153.188 91.3702C152.164 93.8662 150.82 96.3622 149.156 98.8582C147.492 101.354 145.604 103.786 143.492 106.154C141.444 108.522 139.396 110.762 137.348 112.874C138.884 112.682 140.612 112.522 142.532 112.394C144.516 112.202 146.18 112.106 147.524 112.106H157.7V125.93H113.54Z"/><defs><linearGradient id="paint0_linear" x1="33.552" x2="88.469" y1="67.167" y2="123.828" gradientUnits="userSpaceOnUse"><stop stop-color="#8FC8C2"/><stop offset="1" stop-color="#8FC8C2" stop-opacity="0"/></linearGradient><linearGradient id="paint1_linear" x1="39.998" x2="52.523" y1="66.658" y2="109.826" gradientUnits="userSpaceOnUse"><stop stop-color="#B4E9E4"/><stop offset="1" stop-color="#B4E9E4" stop-opacity="0"/></linearGradient><linearGradient id="paint2_linear" x1="37.351" x2="40.733" y1="73.978" y2="85.632" gradientUnits="userSpaceOnUse"><stop stop-color="#B4E9E4"/><stop offset="1" stop-color="#B4E9E4" stop-opacity="0"/></linearGradient><linearGradient id="paint3_linear" x1="40.959" x2="47.134" y1="75.067" y2="96.35" gradientUnits="userSpaceOnUse"><stop stop-color="#B4E9E4"/><stop offset="1" stop-color="#B4E9E4" stop-opacity="0"/></linearGradient><linearGradient id="paint4_linear" x1="53.15" x2="56.807" y1="89.456" y2="102.059" gradientUnits="userSpaceOnUse"><stop stop-color="#B4E9E4"/><stop offset="1" stop-color="#B4E9E4" stop-opacity="0"/></linearGradient><linearGradient id="paint5_linear" x1="59.881" x2="63.356" y1="101.578" y2="113.555" gradientUnits="userSpaceOnUse"><stop stop-color="#B4E9E4"/><stop offset="1" stop-color="#B4E9E4" stop-opacity="0"/></linearGradient><linearGradient id="paint6_linear" x1="242.068" x2="196.797" y1="73.524" y2="138.151" gradientUnits="userSpaceOnUse"><stop stop-color="#8FC8C2"/><stop offset="1" stop-color="#8FC8C2" stop-opacity="0"/></linearGradient><linearGradient id="paint7_linear" x1="243.783" x2="203.757" y1="79.758" y2="100.21" gradientUnits="userSpaceOnUse"><stop stop-color="#B4E9E4"/><stop offset="1" stop-color="#B4E9E4" stop-opacity="0"/></linearGradient><linearGradient id="paint8_linear" x1="236.094" x2="225.289" y1="78.54" y2="84.062" gradientUnits="userSpaceOnUse"><stop stop-color="#B4E9E4"/><stop offset="1" stop-color="#B4E9E4" stop-opacity="0"/></linearGradient><linearGradient id="paint9_linear" x1="235.705" x2="215.972" y1="82.29" y2="92.374" gradientUnits="userSpaceOnUse"><stop stop-color="#B4E9E4"/><stop offset="1" stop-color="#B4E9E4" stop-opacity="0"/></linearGradient><linearGradient id="paint10_linear" x1="223.879" x2="212.194" y1="96.982" y2="102.953" gradientUnits="userSpaceOnUse"><stop stop-color="#B4E9E4"/><stop offset="1" stop-color="#B4E9E4" stop-opacity="0"/></linearGradient><linearGradient id="paint11_linear" x1="213.247" x2="202.141" y1="105.878" y2="111.553" gradientUnits="userSpaceOnUse"><stop stop-color="#B4E9E4"/><stop offset="1" stop-color="#B4E9E4" stop-opacity="0"/></linearGradient><linearGradient id="paint12_linear" x1="135.547" x2="111.824" y1="222.397" y2="46.302" gradientUnits="userSpaceOnUse"><stop stop-color="#23B5AF"/><stop offset="1" stop-color="#fff" stop-opacity="0"/></linearGradient><linearGradient id="paint13_linear" x1="235.913" x2="43.851" y1="177.306" y2="92.452" gradientUnits="userSpaceOnUse"><stop stop-color="#717171"/><stop offset="1" stop-color="#fff" stop-opacity="0"/></linearGradient><linearGradient id="paint14_linear" x1="219.49" x2="136.004" y1="188.255" y2="184.605" gradientUnits="userSpaceOnUse"><stop stop-color="#9A9A9A"/><stop offset="1" stop-color="#fff" stop-opacity="0"/></linearGradient><linearGradient id="paint15_linear" x1="283.813" x2="21.496" y1="16.723" y2="255.774" gradientUnits="userSpaceOnUse"><stop stop-color="#fff"/><stop offset="0" stop-color="#E9E9E9"/><stop offset="1" stop-color="#fff" stop-opacity="0"/></linearGradient><linearGradient id="paint16_linear" x1="198.503" x2="60.273" y1="161.339" y2="80.591" gradientUnits="userSpaceOnUse"><stop stop-color="#797979"/><stop offset="1" stop-color="#fff" stop-opacity="0"/></linearGradient><linearGradient id="paint17_linear" x1="73.962" x2="136.005" y1="55.93" y2="121.624" gradientUnits="userSpaceOnUse"><stop stop-color="#FCFCFC"/><stop offset="1" stop-color="#fff" stop-opacity="0"/></linearGradient></defs></svg>