<svg width="294" height="196" viewBox="0 0 294 196" fill="none" xmlns="http://www.w3.org/2000/svg">
<path opacity="0.8" d="M95.7184 72.714C96.2474 44.7769 70.9612 16.5537 58.252 5.93425C47.433 -0.591344 27.3198 -6.84993 33.4188 20.3205C37.5 20.4796 44.8548 23.0248 41.6236 31.9325C41.2024 32.517 39.8932 33.7865 38.0262 34.1886C38.4322 47.2652 41.8365 74.2975 52.2051 77.8141C53.9023 78.6368 56.2538 81.0925 52.0816 84.3338C51.5042 97.4327 54.455 123.906 70.8775 125.007C81.0782 125.946 102.206 125.875 105.112 118.078C110.16 108.149 103.564 92.8609 99.635 86.458C87.8094 85.3228 92.0966 76.8223 95.7184 72.714Z" fill="url(#paint0_linear)"/>
<path opacity="0.8" d="M47.5211 28.5298C56.9836 32.8149 83.1328 81.8046 82.5279 113.753" stroke="url(#paint1_linear)" stroke-width="3" stroke-linecap="round"/>
<path d="M25.3108 74.0003C23.4167 93.5086 33.5884 98.5444 44.6348 99.0397C48.376 98.6314 48.2873 99.2902 47.7753 99.6706C43.3932 102.208 32.3754 99.4756 27.4143 97.792C26.4473 101.23 28.0713 105.851 29.0041 107.732C34.7792 109.296 46.2464 107.072 51.6565 105.48C51.8611 105.42 52.4704 106.002 51.8632 106.181C46.2709 109.905 35.4211 110.822 29.8197 110.498C29.9795 115.519 33.7852 117.83 35.6681 118.358C49.5804 115.01 53.4309 112.624 54.3167 111.23C55.0752 111.138 55.1753 110.898 55.5461 111.553C55.5948 116.097 43.62 119.985 36.5114 121.218C37.4964 126.315 40.2114 128.934 41.4457 129.606C50.4553 132.752 61.3512 122.441 65.673 116.893C76.8958 117.003 83.3191 110.265 85.1279 106.882C84.5963 100.511 81.0519 96.9023 79.3462 95.8942C78.2152 98.2516 73.488 102.437 71.2658 104.235C63.9482 108.41 64.5061 107.4 64.3122 106.743C73.8609 101.41 76.5027 93.8113 77.8866 90.9442C72.8911 80.9828 66.8097 78.5241 64.3934 78.54C65.5884 86.5938 61.1124 94.0365 59.1448 97.853C57.8361 98.583 58.2896 97.6818 58.3314 97.1984C62.2407 86.1155 61.0661 79.4606 59.919 76.3583C59.7832 75.701 58.6378 75.3801 58.082 75.3019C55.2395 72.3627 50.7455 72.6046 48.8538 73.093C52.6399 77.4563 53.2043 88.0263 53.6045 92.9153C53.3741 93.6198 52.7084 93.9963 52.309 93.2973C47.4141 64.9005 33.8684 71.5171 25.3108 74.0003Z" fill="url(#paint2_linear)"/>
<path d="M28.9421 75.6318C33.3622 77.3281 53.7119 94.2221 63.0933 112.524" stroke="url(#paint3_linear)" stroke-width="2" stroke-linecap="round"/>
<path d="M33.3435 87.7335C35.6324 87.5448 41.3846 87.703 46.082 89.8452C45.3607 88.7639 43.5617 84.9519 42.1366 78.3549" stroke="url(#paint4_linear)" stroke-width="2" stroke-linecap="round"/>
<path d="M30.8764 102.677C33.1653 102.488 43.1549 104.662 54.5747 99.586C54.6886 98.2697 58.2311 89.2183 55.6191 76.5789" stroke="url(#paint5_linear)" stroke-width="2" stroke-linecap="round"/>
<path d="M41.6382 112.037C43.4527 111.867 49.7317 110.185 58.6752 104.788C58.7807 103.793 64.8309 101.045 67.7832 90.9756" stroke="url(#paint6_linear)" stroke-width="2" stroke-linecap="round"/>
<path d="M42.4356 125.181C44.2501 125.012 52.7537 123.342 62.9235 112.623C63.029 111.628 73.4555 110.87 80.2599 101.43" stroke="url(#paint7_linear)" stroke-width="2" stroke-linecap="round"/>
<path d="M257.624 54.1105C238.109 55.9341 235.085 66.8737 236.684 77.815C237.792 81.4117 237.128 81.449 236.658 81.0181C233.338 77.194 233.941 65.8583 234.658 60.6686C231.099 60.3682 226.867 62.8356 225.197 64.1068C224.751 70.0732 229.1 80.9142 231.685 85.9264C231.783 86.1159 231.326 86.8243 231.036 86.2618C226.323 81.4733 223.374 70.9919 222.635 65.4299C217.734 66.5348 216.183 70.7085 216.02 72.6573C221.934 85.6872 225.005 89.0179 226.541 89.6245C226.775 90.3519 227.029 90.405 226.457 90.8927C222.003 91.7987 215.924 80.7733 213.371 74.0254C208.551 75.9552 206.492 79.1158 206.065 80.4549C204.677 89.8964 216.86 98.6494 223.125 101.846C225.136 112.888 232.965 117.923 236.629 119.06C242.785 117.335 245.659 113.173 246.327 111.308C243.799 110.642 238.796 106.791 236.611 104.948C231.129 98.5503 232.226 98.9073 232.835 98.5929C239.875 106.963 247.836 108.122 250.913 108.94C259.752 102.153 261.018 95.717 260.546 93.3472C252.863 96.0414 244.709 93.0513 240.589 91.8398C239.625 90.6925 240.596 90.9677 241.079 90.9174C252.7 92.6637 259.014 90.2536 261.844 88.5413C262.463 88.2839 262.562 87.0984 262.534 86.5379C264.884 83.1915 263.797 78.8241 262.961 77.0587C259.391 81.6006 249.118 84.1507 244.392 85.4668C243.657 85.3735 243.161 84.7909 243.772 84.2668C270.734 74.0978 261.679 62.0452 257.624 54.1105Z" fill="url(#paint8_linear)"/>
<path d="M256.706 57.9844C255.875 62.6452 243.127 85.8189 226.925 98.4874" stroke="url(#paint9_linear)" stroke-width="2" stroke-linecap="round"/>
<path d="M245.652 64.5907C246.27 66.8028 247.201 72.4814 245.984 77.4989C246.91 76.5863 250.313 74.0998 256.523 71.4547" stroke="url(#paint10_linear)" stroke-width="2" stroke-linecap="round"/>
<path d="M230.511 64.9911C231.129 67.2032 230.88 77.4235 238.021 87.6795C239.336 87.5427 248.893 89.3124 260.812 84.3608" stroke="url(#paint11_linear)" stroke-width="2" stroke-linecap="round"/>
<path d="M223.354 77.3295C223.863 79.0794 226.701 84.9278 233.689 92.6914C234.686 92.6071 238.527 98.0295 248.973 99.0274" stroke="url(#paint12_linear)" stroke-width="2" stroke-linecap="round"/>
<path d="M210.596 80.5922C211.105 82.342 214.351 90.3773 226.798 98.3401C227.795 98.2558 230.508 108.352 241.063 113.251" stroke="url(#paint13_linear)" stroke-width="2" stroke-linecap="round"/>
<path d="M263.556 134.755C172.308 106.45 70.994 121.861 25.3849 134.767C22.5331 135.574 21.6544 139.097 23.6989 141.243L38.2922 156.559C39.2232 157.536 39.5987 158.917 39.2908 160.231L34.0302 182.676C33.3006 185.789 36.3608 188.462 39.3778 187.403C132.716 154.636 213.961 171.17 250.29 186.395C253.426 187.709 256.883 184.912 256.107 181.601L251.071 160.113C250.779 158.864 251.102 157.551 251.942 156.581L265.34 141.114C267.207 138.959 266.28 135.6 263.556 134.755Z" fill="url(#paint14_linear)"/>
<circle cx="144.263" cy="102.907" r="91.6533" fill="url(#paint15_linear)" stroke="url(#paint16_linear)"/>
<circle cx="143.805" cy="102.451" r="74.7737" fill="url(#paint17_linear)" stroke="url(#paint18_linear)"/>
<path d="M139.053 71.4648C140.55 66.8583 147.067 66.8583 148.563 71.4648L152.928 84.8976C153.597 86.9577 155.517 88.3525 157.683 88.3525L171.807 88.3525C176.651 88.3525 178.665 94.5506 174.746 97.3976L163.32 105.7C161.567 106.973 160.834 109.23 161.503 111.29L165.868 124.722C167.365 129.329 162.092 133.16 158.174 130.313L146.747 122.011C144.995 120.738 142.622 120.738 140.869 122.011L129.443 130.313C125.524 133.16 120.252 129.329 121.748 124.722L126.113 111.29C126.782 109.23 126.049 106.973 124.297 105.7L112.87 97.3976C108.951 94.5506 110.965 88.3525 115.809 88.3525L129.933 88.3525C132.099 88.3525 134.019 86.9577 134.688 84.8976L139.053 71.4648Z" fill="#FAE0A1"/>
<path d="M139.053 71.4648C140.55 66.8583 147.067 66.8583 148.563 71.4648L152.928 84.8976C153.597 86.9577 155.517 88.3525 157.683 88.3525L171.807 88.3525C176.651 88.3525 178.665 94.5506 174.746 97.3976L163.32 105.7C161.567 106.973 160.834 109.23 161.503 111.29L165.868 124.722C167.365 129.329 162.092 133.16 158.174 130.313L146.747 122.011C144.995 120.738 142.622 120.738 140.869 122.011L129.443 130.313C125.524 133.16 120.252 129.329 121.748 124.722L126.113 111.29C126.782 109.23 126.049 106.973 124.297 105.7L112.87 97.3976C108.951 94.5506 110.965 88.3525 115.809 88.3525L129.933 88.3525C132.099 88.3525 134.019 86.9577 134.688 84.8976L139.053 71.4648Z" fill="url(#paint19_linear)"/>
<defs>
<linearGradient id="paint0_linear" x1="55.0802" y1="7.80071" x2="94.3656" y2="125.704" gradientUnits="userSpaceOnUse">
<stop stop-color="#A9DED9"/>
<stop offset="1" stop-color="#A9DED9" stop-opacity="0"/>
</linearGradient>
<linearGradient id="paint1_linear" x1="65.8247" y1="28.8763" x2="64.2243" y2="113.406" gradientUnits="userSpaceOnUse">
<stop stop-color="#7AC0BA"/>
<stop offset="1" stop-color="#7AC0BA" stop-opacity="0"/>
</linearGradient>
<linearGradient id="paint2_linear" x1="33.3082" y1="73.0024" x2="88.2251" y2="129.663" gradientUnits="userSpaceOnUse">
<stop stop-color="#8FC8C2"/>
<stop offset="1" stop-color="#8FC8C2" stop-opacity="0"/>
</linearGradient>
<linearGradient id="paint3_linear" x1="39.7548" y1="72.4944" x2="52.2806" y2="115.662" gradientUnits="userSpaceOnUse">
<stop stop-color="#B4E9E4"/>
<stop offset="1" stop-color="#B4E9E4" stop-opacity="0"/>
</linearGradient>
<linearGradient id="paint4_linear" x1="37.1084" y1="79.8139" x2="40.49" y2="91.4679" gradientUnits="userSpaceOnUse">
<stop stop-color="#B4E9E4"/>
<stop offset="1" stop-color="#B4E9E4" stop-opacity="0"/>
</linearGradient>
<linearGradient id="paint5_linear" x1="40.7162" y1="80.9032" x2="46.8917" y2="102.186" gradientUnits="userSpaceOnUse">
<stop stop-color="#B4E9E4"/>
<stop offset="1" stop-color="#B4E9E4" stop-opacity="0"/>
</linearGradient>
<linearGradient id="paint6_linear" x1="52.9076" y1="95.292" x2="56.5646" y2="107.895" gradientUnits="userSpaceOnUse">
<stop stop-color="#B4E9E4"/>
<stop offset="1" stop-color="#B4E9E4" stop-opacity="0"/>
</linearGradient>
<linearGradient id="paint7_linear" x1="59.6381" y1="107.414" x2="63.1136" y2="119.391" gradientUnits="userSpaceOnUse">
<stop stop-color="#B4E9E4"/>
<stop offset="1" stop-color="#B4E9E4" stop-opacity="0"/>
</linearGradient>
<linearGradient id="paint8_linear" x1="260.114" y1="61.7756" x2="214.843" y2="126.403" gradientUnits="userSpaceOnUse">
<stop stop-color="#8FC8C2"/>
<stop offset="1" stop-color="#8FC8C2" stop-opacity="0"/>
</linearGradient>
<linearGradient id="paint9_linear" x1="261.829" y1="68.0101" x2="221.803" y2="88.4617" gradientUnits="userSpaceOnUse">
<stop stop-color="#B4E9E4"/>
<stop offset="1" stop-color="#B4E9E4" stop-opacity="0"/>
</linearGradient>
<linearGradient id="paint10_linear" x1="254.14" y1="66.7925" x2="243.335" y2="72.3138" gradientUnits="userSpaceOnUse">
<stop stop-color="#B4E9E4"/>
<stop offset="1" stop-color="#B4E9E4" stop-opacity="0"/>
</linearGradient>
<linearGradient id="paint11_linear" x1="253.751" y1="70.5424" x2="234.018" y2="80.6255" gradientUnits="userSpaceOnUse">
<stop stop-color="#B4E9E4"/>
<stop offset="1" stop-color="#B4E9E4" stop-opacity="0"/>
</linearGradient>
<linearGradient id="paint12_linear" x1="241.925" y1="85.2344" x2="230.24" y2="91.2053" gradientUnits="userSpaceOnUse">
<stop stop-color="#B4E9E4"/>
<stop offset="1" stop-color="#B4E9E4" stop-opacity="0"/>
</linearGradient>
<linearGradient id="paint13_linear" x1="231.293" y1="94.1302" x2="220.187" y2="99.8048" gradientUnits="userSpaceOnUse">
<stop stop-color="#B4E9E4"/>
<stop offset="1" stop-color="#B4E9E4" stop-opacity="0"/>
</linearGradient>
<linearGradient id="paint14_linear" x1="161.262" y1="200.81" x2="161.262" y2="32.9147" gradientUnits="userSpaceOnUse">
<stop stop-color="#23B5AF"/>
<stop offset="1" stop-color="#B1DFDD"/>
</linearGradient>
<linearGradient id="paint15_linear" x1="368.645" y1="-99.3606" x2="185.836" y2="273.828" gradientUnits="userSpaceOnUse">
<stop stop-color="#23B5AF"/>
<stop offset="0.336063" stop-color="#23B5AF"/>
<stop offset="0.703082" stop-color="#60CAC6"/>
<stop offset="1" stop-color="#B7E9E7"/>
</linearGradient>
<linearGradient id="paint16_linear" x1="228.957" y1="-41.1" x2="170.141" y2="234.115" gradientUnits="userSpaceOnUse">
<stop offset="0.336063" stop-color="#23B5AF"/>
<stop offset="0.703082" stop-color="#60CAC6"/>
<stop offset="1" stop-color="#B7E9E7"/>
</linearGradient>
<linearGradient id="paint17_linear" x1="-6.86884" y1="201.166" x2="120.143" y2="1.16864" gradientUnits="userSpaceOnUse">
<stop offset="0.336063" stop-color="#23B5AF"/>
<stop offset="0.703082" stop-color="#60CAC6"/>
<stop offset="1" stop-color="#B7E9E7"/>
</linearGradient>
<linearGradient id="paint18_linear" x1="87.6049" y1="156.805" x2="159.832" y2="-9.48985" gradientUnits="userSpaceOnUse">
<stop offset="0.336063" stop-color="#23B5AF"/>
<stop offset="0.703082" stop-color="#60CAC6"/>
<stop offset="1" stop-color="#B7E9E7"/>
</linearGradient>
<linearGradient id="paint19_linear" x1="121.152" y1="102.45" x2="196.414" y2="39.6977" gradientUnits="userSpaceOnUse">
<stop offset="0.0746594" stop-color="#FFC23D"/>
<stop offset="1" stop-color="white" stop-opacity="0"/>
</linearGradient>
</defs>
</svg>
