<svg width="300" height="420" viewBox="0 0 300 420" fill="none" xmlns="http://www.w3.org/2000/svg">
<path d="M266.556 124.755C175.308 96.4496 73.994 111.861 28.3849 124.767C25.5331 125.574 24.6544 129.097 26.6989 131.243L41.2922 146.559C42.2232 147.536 42.5987 148.917 42.2908 150.231L37.0302 172.676C36.3006 175.789 39.3608 178.462 42.3778 177.403C135.716 144.636 216.961 161.17 253.29 176.395C256.426 177.709 259.883 174.912 259.107 171.601L254.071 150.113C253.779 148.864 254.102 147.551 254.942 146.581L268.34 131.114C270.207 128.959 269.28 125.6 266.556 124.755Z" fill="url(#paint0_linear)"/>
<circle cx="147.263" cy="92.9067" r="91.6533" fill="url(#paint1_linear)" stroke="url(#paint2_linear)"/>
<circle cx="146.805" cy="92.451" r="74.7737" fill="url(#paint3_linear)" stroke="url(#paint4_linear)"/>
<path d="M142.053 61.4648C143.55 56.8583 150.067 56.8583 151.563 61.4648L155.928 74.8976C156.597 76.9577 158.517 78.3525 160.683 78.3525L174.807 78.3525C179.651 78.3525 181.665 84.5506 177.746 87.3976L166.32 95.6995C164.567 96.9728 163.834 99.2296 164.503 101.29L168.868 114.722C170.365 119.329 165.092 123.16 161.174 120.313L149.747 112.011C147.995 110.738 145.622 110.738 143.869 112.011L132.443 120.313C128.524 123.16 123.252 119.329 124.748 114.722L129.113 101.29C129.782 99.2296 129.049 96.9728 127.297 95.6995L115.87 87.3976C111.951 84.5506 113.965 78.3525 118.809 78.3525L132.933 78.3525C135.099 78.3525 137.019 76.9577 137.688 74.8976L142.053 61.4648Z" fill="#FAE0A1"/>
<path d="M142.053 61.4648C143.55 56.8583 150.067 56.8583 151.563 61.4648L155.928 74.8976C156.597 76.9577 158.517 78.3525 160.683 78.3525L174.807 78.3525C179.651 78.3525 181.665 84.5506 177.746 87.3976L166.32 95.6995C164.567 96.9728 163.834 99.2296 164.503 101.29L168.868 114.722C170.365 119.329 165.092 123.16 161.174 120.313L149.747 112.011C147.995 110.738 145.622 110.738 143.869 112.011L132.443 120.313C128.524 123.16 123.252 119.329 124.748 114.722L129.113 101.29C129.782 99.2296 129.049 96.9728 127.297 95.6995L115.87 87.3976C111.951 84.5506 113.965 78.3525 118.809 78.3525L132.933 78.3525C135.099 78.3525 137.019 76.9577 137.688 74.8976L142.053 61.4648Z" fill="url(#paint5_linear)"/>
<rect x="4" y="166.058" width="292" height="249.257" rx="20" fill="#FCFFFF"/>
<rect x="4" y="166.058" width="292" height="249.257" rx="20" fill="url(#paint6_linear)"/>
<rect x="4" y="166.058" width="292" height="249.257" rx="20" stroke="#A9DED9" stroke-width="8"/>
<path d="M300 203.308V186.058C300 172.803 289.255 162.058 276 162.058H272.922H245.845H234.432H206.977H193.178H165.582H110.388H20.626C9.2351 162.058 0.000976562 171.292 0.000976562 182.683V203.308H300Z" fill="#23B5AF"/>
<path d="M92.7953 188.683V178.251H96.3793C96.9553 178.251 97.4939 178.31 97.9953 178.427C98.4966 178.534 98.9339 178.72 99.3073 178.987C99.6806 179.243 99.9739 179.59 100.187 180.027C100.411 180.454 100.523 180.982 100.523 181.611C100.523 182.219 100.411 182.747 100.187 183.195C99.9739 183.643 99.6806 184.011 99.3073 184.299C98.9339 184.587 98.5019 184.8 98.0113 184.939C97.5206 185.078 96.9979 185.147 96.4433 185.147H95.1473V188.683H92.7953ZM95.1473 183.275H96.2993C97.5793 183.275 98.2193 182.72 98.2193 181.611C98.2193 181.067 98.0486 180.683 97.7073 180.459C97.3659 180.235 96.8753 180.123 96.2353 180.123H95.1473V183.275ZM104.778 183.403L104.522 184.363H106.746L106.506 183.403C106.356 182.88 106.212 182.326 106.074 181.739C105.935 181.152 105.796 180.587 105.658 180.043H105.594C105.466 180.598 105.332 181.168 105.194 181.755C105.066 182.331 104.927 182.88 104.778 183.403ZM101.002 188.683L104.266 178.251H107.098L110.362 188.683H107.866L107.226 186.203H104.042L103.402 188.683H101.002ZM112.302 188.683V178.251H116.062C116.616 178.251 117.134 178.304 117.614 178.411C118.104 178.518 118.531 178.699 118.894 178.955C119.256 179.2 119.544 179.531 119.758 179.947C119.971 180.363 120.078 180.88 120.078 181.499C120.078 182.267 119.907 182.902 119.566 183.403C119.235 183.894 118.787 184.262 118.222 184.507L120.59 188.683H117.95L115.95 184.923H114.654V188.683H112.302ZM114.654 183.051H115.87C116.488 183.051 116.958 182.923 117.278 182.667C117.608 182.4 117.774 182.011 117.774 181.499C117.774 180.987 117.608 180.63 117.278 180.427C116.958 180.224 116.488 180.123 115.87 180.123H114.654V183.051ZM124.665 188.683V180.235H121.801V178.251H129.897V180.235H127.033V188.683H124.665ZM132.323 188.683V178.251H134.675V188.683H132.323ZM142.288 188.875C141.627 188.875 141.003 188.763 140.416 188.539C139.829 188.304 139.312 187.963 138.864 187.515C138.427 187.067 138.08 186.512 137.824 185.851C137.568 185.179 137.44 184.406 137.44 183.531C137.44 182.667 137.573 181.899 137.84 181.227C138.107 180.544 138.464 179.968 138.912 179.499C139.36 179.03 139.883 178.672 140.48 178.427C141.077 178.182 141.707 178.059 142.368 178.059C143.04 178.059 143.643 178.198 144.176 178.475C144.709 178.742 145.152 179.056 145.504 179.419L144.256 180.923C143.989 180.678 143.707 180.48 143.408 180.331C143.12 180.171 142.789 180.091 142.416 180.091C142.064 180.091 141.728 180.171 141.408 180.331C141.099 180.48 140.827 180.699 140.592 180.987C140.368 181.275 140.187 181.627 140.048 182.043C139.92 182.459 139.856 182.928 139.856 183.451C139.856 184.528 140.085 185.366 140.544 185.963C141.003 186.55 141.616 186.843 142.384 186.843C142.811 186.843 143.189 186.752 143.52 186.571C143.861 186.379 144.16 186.144 144.416 185.867L145.664 187.339C144.789 188.363 143.664 188.875 142.288 188.875ZM148.048 188.683V178.251H150.4V188.683H148.048ZM153.661 188.683V178.251H157.245C157.821 178.251 158.36 178.31 158.861 178.427C159.362 178.534 159.8 178.72 160.173 178.987C160.546 179.243 160.84 179.59 161.053 180.027C161.277 180.454 161.389 180.982 161.389 181.611C161.389 182.219 161.277 182.747 161.053 183.195C160.84 183.643 160.546 184.011 160.173 184.299C159.8 184.587 159.368 184.8 158.877 184.939C158.386 185.078 157.864 185.147 157.309 185.147H156.013V188.683H153.661ZM156.013 183.275H157.165C158.445 183.275 159.085 182.72 159.085 181.611C159.085 181.067 158.914 180.683 158.573 180.459C158.232 180.235 157.741 180.123 157.101 180.123H156.013V183.275ZM165.643 183.403L165.387 184.363H167.611L167.371 183.403C167.222 182.88 167.078 182.326 166.939 181.739C166.801 181.152 166.662 180.587 166.523 180.043H166.459C166.331 180.598 166.198 181.168 166.059 181.755C165.931 182.331 165.793 182.88 165.643 183.403ZM161.867 188.683L165.131 178.251H167.963L171.227 188.683H168.731L168.091 186.203H164.907L164.267 188.683H161.867ZM174.027 188.683V180.235H171.163V178.251H179.259V180.235H176.395V188.683H174.027ZM181.686 188.683V178.251H184.038V188.683H181.686ZM191.538 188.875C190.834 188.875 190.189 188.752 189.602 188.507C189.026 188.251 188.53 187.888 188.114 187.419C187.698 186.95 187.373 186.379 187.138 185.707C186.914 185.035 186.802 184.272 186.802 183.419C186.802 182.566 186.914 181.808 187.138 181.147C187.373 180.475 187.698 179.915 188.114 179.467C188.53 179.008 189.026 178.662 189.602 178.427C190.189 178.182 190.834 178.059 191.538 178.059C192.242 178.059 192.882 178.182 193.458 178.427C194.045 178.662 194.546 179.008 194.962 179.467C195.378 179.926 195.698 180.491 195.922 181.163C196.157 181.824 196.274 182.576 196.274 183.419C196.274 184.272 196.157 185.035 195.922 185.707C195.698 186.379 195.378 186.95 194.962 187.419C194.546 187.888 194.045 188.251 193.458 188.507C192.882 188.752 192.242 188.875 191.538 188.875ZM191.538 186.843C192.253 186.843 192.818 186.539 193.234 185.931C193.65 185.312 193.858 184.475 193.858 183.419C193.858 182.374 193.65 181.558 193.234 180.971C192.818 180.384 192.253 180.091 191.538 180.091C190.824 180.091 190.258 180.384 189.842 180.971C189.426 181.558 189.218 182.374 189.218 183.419C189.218 184.475 189.426 185.312 189.842 185.931C190.258 186.539 190.824 186.843 191.538 186.843ZM199.036 188.683V178.251H201.452L204.172 183.435L205.196 185.739H205.26C205.207 185.184 205.143 184.566 205.068 183.883C205.004 183.2 204.972 182.55 204.972 181.931V178.251H207.212V188.683H204.796L202.076 183.483L201.052 181.211H200.988C201.041 181.787 201.1 182.406 201.164 183.067C201.239 183.728 201.276 184.368 201.276 184.987V188.683H199.036Z" fill="white"/>
<ellipse cx="28.875" cy="182.683" rx="4.875" ry="4.94081" fill="#EC9D89"/>
<ellipse cx="45.9477" cy="182.191" rx="4.38966" ry="4.44892" fill="#EDBA4B"/>
<ellipse cx="63.5074" cy="182.191" rx="4.38966" ry="4.44892" fill="#A9DED9"/>
<rect x="23.2383" y="219.308" width="252.779" height="48" rx="10" fill="#E1F7F4"/>
<path d="M72.4703 249.308V238.876H76.0543C76.6303 238.876 77.1689 238.935 77.6703 239.052C78.1716 239.159 78.6089 239.345 78.9823 239.612C79.3556 239.868 79.6489 240.215 79.8623 240.652C80.0863 241.079 80.1983 241.607 80.1983 242.236C80.1983 242.844 80.0863 243.372 79.8623 243.82C79.6489 244.268 79.3556 244.636 78.9823 244.924C78.6089 245.212 78.1769 245.425 77.6863 245.564C77.1956 245.703 76.6729 245.772 76.1183 245.772H74.8223V249.308H72.4703ZM74.8223 243.9H75.9743C77.2543 243.9 77.8943 243.345 77.8943 242.236C77.8943 241.692 77.7236 241.308 77.3823 241.084C77.0409 240.86 76.5503 240.748 75.9103 240.748H74.8223V243.9ZM82.6095 249.308V238.092H84.9615V240.844L84.8495 242.268C85.1482 242.001 85.4949 241.756 85.8895 241.532C86.2842 241.297 86.7535 241.18 87.2975 241.18C88.1615 241.18 88.7855 241.463 89.1695 242.028C89.5642 242.593 89.7615 243.377 89.7615 244.38V249.308H87.4095V244.684C87.4095 244.108 87.3295 243.713 87.1695 243.5C87.0202 243.287 86.7749 243.18 86.4335 243.18C86.1349 243.18 85.8789 243.249 85.6655 243.388C85.4522 243.516 85.2175 243.703 84.9615 243.948V249.308H82.6095ZM93.4302 252.412C93.1848 252.412 92.9768 252.396 92.8062 252.364C92.6355 252.343 92.4702 252.305 92.3102 252.252L92.7262 250.46C92.8008 250.481 92.8862 250.503 92.9822 250.524C93.0782 250.545 93.1688 250.556 93.2542 250.556C93.6488 250.556 93.9528 250.46 94.1662 250.268C94.3795 250.076 94.5395 249.825 94.6462 249.516L94.7582 249.1L91.7022 241.372H94.0702L95.2062 244.78C95.3235 245.143 95.4302 245.511 95.5262 245.884C95.6222 246.257 95.7235 246.641 95.8302 247.036H95.8942C95.9795 246.663 96.0648 246.289 96.1502 245.916C96.2462 245.532 96.3422 245.153 96.4382 244.78L97.3982 241.372H99.6542L96.9022 249.388C96.7102 249.889 96.5075 250.327 96.2942 250.7C96.0915 251.084 95.8515 251.399 95.5742 251.644C95.3075 251.9 94.9982 252.092 94.6462 252.22C94.3048 252.348 93.8995 252.412 93.4302 252.412ZM104.03 249.5C103.507 249.5 102.969 249.399 102.414 249.196C101.87 248.993 101.395 248.727 100.99 248.396L102.046 246.924C102.409 247.201 102.755 247.409 103.086 247.548C103.417 247.687 103.753 247.756 104.094 247.756C104.446 247.756 104.702 247.697 104.862 247.58C105.022 247.463 105.102 247.297 105.102 247.084C105.102 246.956 105.054 246.844 104.958 246.748C104.873 246.641 104.75 246.545 104.59 246.46C104.441 246.375 104.27 246.3 104.078 246.236C103.886 246.161 103.689 246.081 103.486 245.996C103.241 245.9 102.995 245.788 102.75 245.66C102.505 245.532 102.281 245.377 102.078 245.196C101.875 245.004 101.71 244.785 101.582 244.54C101.454 244.284 101.39 243.991 101.39 243.66C101.39 243.297 101.459 242.961 101.598 242.652C101.747 242.343 101.955 242.081 102.222 241.868C102.489 241.655 102.809 241.489 103.182 241.372C103.555 241.244 103.971 241.18 104.43 241.18C105.038 241.18 105.571 241.287 106.03 241.5C106.489 241.703 106.889 241.932 107.23 242.188L106.174 243.596C105.886 243.383 105.603 243.217 105.326 243.1C105.049 242.983 104.771 242.924 104.494 242.924C103.897 242.924 103.598 243.132 103.598 243.548C103.598 243.676 103.641 243.788 103.726 243.884C103.811 243.969 103.923 244.049 104.062 244.124C104.211 244.199 104.377 244.273 104.558 244.348C104.75 244.412 104.947 244.481 105.15 244.556C105.406 244.652 105.657 244.764 105.902 244.892C106.158 245.009 106.387 245.159 106.59 245.34C106.803 245.521 106.974 245.745 107.102 246.012C107.23 246.268 107.294 246.577 107.294 246.94C107.294 247.303 107.225 247.639 107.086 247.948C106.947 248.257 106.739 248.529 106.462 248.764C106.185 248.988 105.843 249.169 105.438 249.308C105.033 249.436 104.563 249.5 104.03 249.5ZM109.588 249.308V241.372H111.94V249.308H109.588ZM110.756 240.204C110.361 240.204 110.036 240.092 109.78 239.868C109.524 239.633 109.396 239.335 109.396 238.972C109.396 238.609 109.524 238.316 109.78 238.092C110.036 237.868 110.361 237.756 110.756 237.756C111.161 237.756 111.486 237.868 111.732 238.092C111.988 238.316 112.116 238.609 112.116 238.972C112.116 239.335 111.988 239.633 111.732 239.868C111.486 240.092 111.161 240.204 110.756 240.204ZM118.266 249.5C117.711 249.5 117.194 249.409 116.714 249.228C116.244 249.036 115.834 248.764 115.482 248.412C115.13 248.06 114.852 247.628 114.65 247.116C114.447 246.593 114.346 246.001 114.346 245.34C114.346 244.679 114.458 244.092 114.682 243.58C114.906 243.057 115.204 242.62 115.578 242.268C115.962 241.916 116.404 241.649 116.906 241.468C117.407 241.276 117.93 241.18 118.474 241.18C118.964 241.18 119.396 241.26 119.77 241.42C120.154 241.58 120.495 241.783 120.794 242.028L119.69 243.548C119.316 243.239 118.959 243.084 118.618 243.084C118.042 243.084 117.588 243.287 117.258 243.692C116.927 244.097 116.762 244.647 116.762 245.34C116.762 246.033 116.927 246.583 117.258 246.988C117.599 247.393 118.026 247.596 118.538 247.596C118.794 247.596 119.039 247.543 119.274 247.436C119.519 247.319 119.748 247.18 119.962 247.02L120.89 248.556C120.495 248.897 120.068 249.143 119.61 249.292C119.151 249.431 118.703 249.5 118.266 249.5ZM124.922 249.5C124.559 249.5 124.229 249.436 123.93 249.308C123.642 249.191 123.397 249.025 123.194 248.812C122.991 248.588 122.831 248.332 122.714 248.044C122.607 247.756 122.554 247.441 122.554 247.1C122.554 246.268 122.906 245.617 123.61 245.148C124.314 244.679 125.45 244.364 127.018 244.204C126.997 243.852 126.89 243.575 126.698 243.372C126.517 243.159 126.207 243.052 125.77 243.052C125.429 243.052 125.087 243.116 124.746 243.244C124.415 243.372 124.058 243.548 123.674 243.772L122.826 242.22C123.338 241.911 123.871 241.66 124.426 241.468C124.991 241.276 125.589 241.18 126.218 241.18C127.242 241.18 128.021 241.473 128.554 242.06C129.098 242.636 129.37 243.537 129.37 244.764V249.308H127.45L127.29 248.492H127.226C126.885 248.791 126.527 249.036 126.154 249.228C125.781 249.409 125.37 249.5 124.922 249.5ZM125.722 247.676C125.989 247.676 126.218 247.617 126.41 247.5C126.602 247.383 126.805 247.217 127.018 247.004V245.612C126.186 245.729 125.61 245.9 125.29 246.124C124.97 246.348 124.81 246.615 124.81 246.924C124.81 247.18 124.89 247.372 125.05 247.5C125.221 247.617 125.445 247.676 125.722 247.676ZM134.32 249.5C133.914 249.5 133.573 249.436 133.296 249.308C133.018 249.18 132.794 249.004 132.624 248.78C132.464 248.545 132.346 248.268 132.272 247.948C132.197 247.617 132.16 247.249 132.16 246.844V238.092H134.512V246.94C134.512 247.185 134.554 247.356 134.64 247.452C134.736 247.548 134.832 247.596 134.928 247.596C134.981 247.596 135.024 247.596 135.056 247.596C135.098 247.596 135.152 247.585 135.216 247.564L135.504 249.308C135.376 249.361 135.21 249.404 135.008 249.436C134.816 249.479 134.586 249.5 134.32 249.5ZM143.877 249.5C143.354 249.5 142.815 249.399 142.261 249.196C141.717 248.993 141.242 248.727 140.837 248.396L141.893 246.924C142.255 247.201 142.602 247.409 142.933 247.548C143.263 247.687 143.599 247.756 143.941 247.756C144.293 247.756 144.549 247.697 144.709 247.58C144.869 247.463 144.949 247.297 144.949 247.084C144.949 246.956 144.901 246.844 144.805 246.748C144.719 246.641 144.597 246.545 144.437 246.46C144.287 246.375 144.117 246.3 143.925 246.236C143.733 246.161 143.535 246.081 143.333 245.996C143.087 245.9 142.842 245.788 142.597 245.66C142.351 245.532 142.127 245.377 141.925 245.196C141.722 245.004 141.557 244.785 141.429 244.54C141.301 244.284 141.237 243.991 141.237 243.66C141.237 243.297 141.306 242.961 141.445 242.652C141.594 242.343 141.802 242.081 142.069 241.868C142.335 241.655 142.655 241.489 143.029 241.372C143.402 241.244 143.818 241.18 144.277 241.18C144.885 241.18 145.418 241.287 145.877 241.5C146.335 241.703 146.735 241.932 147.077 242.188L146.021 243.596C145.733 243.383 145.45 243.217 145.173 243.1C144.895 242.983 144.618 242.924 144.341 242.924C143.743 242.924 143.445 243.132 143.445 243.548C143.445 243.676 143.487 243.788 143.573 243.884C143.658 243.969 143.77 244.049 143.909 244.124C144.058 244.199 144.223 244.273 144.405 244.348C144.597 244.412 144.794 244.481 144.997 244.556C145.253 244.652 145.503 244.764 145.749 244.892C146.005 245.009 146.234 245.159 146.437 245.34C146.65 245.521 146.821 245.745 146.949 246.012C147.077 246.268 147.141 246.577 147.141 246.94C147.141 247.303 147.071 247.639 146.933 247.948C146.794 248.257 146.586 248.529 146.309 248.764C146.031 248.988 145.69 249.169 145.285 249.308C144.879 249.436 144.41 249.5 143.877 249.5ZM150.763 249.308L148.779 241.372H151.115L151.883 245.052C151.947 245.447 152.005 245.836 152.059 246.22C152.112 246.604 152.171 246.999 152.235 247.404H152.299C152.373 246.999 152.443 246.599 152.507 246.204C152.581 245.809 152.667 245.425 152.763 245.052L153.643 241.372H155.675L156.571 245.052C156.667 245.447 156.752 245.836 156.827 246.22C156.901 246.604 156.981 246.999 157.067 247.404H157.131C157.205 246.999 157.264 246.604 157.307 246.22C157.36 245.836 157.424 245.447 157.499 245.052L158.251 241.372H160.427L158.523 249.308H155.771L155.051 246.14C154.965 245.767 154.891 245.393 154.827 245.02C154.763 244.647 154.693 244.247 154.619 243.82H154.555C154.48 244.247 154.411 244.647 154.347 245.02C154.293 245.393 154.229 245.767 154.155 246.14L153.451 249.308H150.763ZM164.5 249.5C164.137 249.5 163.807 249.436 163.508 249.308C163.22 249.191 162.975 249.025 162.772 248.812C162.569 248.588 162.409 248.332 162.292 248.044C162.185 247.756 162.132 247.441 162.132 247.1C162.132 246.268 162.484 245.617 163.188 245.148C163.892 244.679 165.028 244.364 166.596 244.204C166.575 243.852 166.468 243.575 166.276 243.372C166.095 243.159 165.785 243.052 165.348 243.052C165.007 243.052 164.665 243.116 164.324 243.244C163.993 243.372 163.636 243.548 163.252 243.772L162.404 242.22C162.916 241.911 163.449 241.66 164.004 241.468C164.569 241.276 165.167 241.18 165.796 241.18C166.82 241.18 167.599 241.473 168.132 242.06C168.676 242.636 168.948 243.537 168.948 244.764V249.308H167.028L166.868 248.492H166.804C166.463 248.791 166.105 249.036 165.732 249.228C165.359 249.409 164.948 249.5 164.5 249.5ZM165.3 247.676C165.567 247.676 165.796 247.617 165.988 247.5C166.18 247.383 166.383 247.217 166.596 247.004V245.612C165.764 245.729 165.188 245.9 164.868 246.124C164.548 246.348 164.388 246.615 164.388 246.924C164.388 247.18 164.468 247.372 164.628 247.5C164.799 247.617 165.023 247.676 165.3 247.676ZM174.57 252.684C174.1 252.684 173.663 252.641 173.258 252.556C172.863 252.481 172.511 252.364 172.202 252.204C171.903 252.044 171.668 251.836 171.498 251.58C171.327 251.324 171.242 251.02 171.242 250.668C171.242 250.028 171.62 249.495 172.378 249.068V249.004C172.164 248.865 171.988 248.689 171.85 248.476C171.711 248.263 171.642 247.991 171.642 247.66C171.642 247.372 171.727 247.1 171.898 246.844C172.068 246.577 172.282 246.353 172.538 246.172V246.108C172.26 245.916 172.01 245.644 171.786 245.292C171.572 244.929 171.466 244.513 171.466 244.044C171.466 243.564 171.556 243.148 171.738 242.796C171.919 242.433 172.159 242.135 172.458 241.9C172.767 241.655 173.119 241.473 173.514 241.356C173.908 241.239 174.319 241.18 174.746 241.18C175.215 241.18 175.626 241.244 175.978 241.372H178.874V243.084H177.61C177.684 243.201 177.743 243.351 177.786 243.532C177.839 243.713 177.866 243.911 177.866 244.124C177.866 244.583 177.786 244.983 177.626 245.324C177.466 245.655 177.242 245.932 176.954 246.156C176.676 246.369 176.346 246.529 175.962 246.636C175.588 246.743 175.183 246.796 174.746 246.796C174.436 246.796 174.116 246.743 173.786 246.636C173.679 246.721 173.604 246.807 173.562 246.892C173.519 246.977 173.498 247.089 173.498 247.228C173.498 247.431 173.583 247.58 173.754 247.676C173.935 247.772 174.25 247.82 174.698 247.82H175.978C176.959 247.82 177.706 247.98 178.218 248.3C178.74 248.609 179.002 249.121 179.002 249.836C179.002 250.252 178.895 250.631 178.682 250.972C178.479 251.324 178.186 251.623 177.802 251.868C177.418 252.124 176.954 252.321 176.41 252.46C175.866 252.609 175.252 252.684 174.57 252.684ZM174.746 245.372C175.055 245.372 175.311 245.265 175.514 245.052C175.727 244.828 175.834 244.492 175.834 244.044C175.834 243.628 175.727 243.313 175.514 243.1C175.311 242.876 175.055 242.764 174.746 242.764C174.436 242.764 174.175 242.871 173.962 243.084C173.759 243.297 173.658 243.617 173.658 244.044C173.658 244.492 173.759 244.828 173.962 245.052C174.175 245.265 174.436 245.372 174.746 245.372ZM174.938 251.212C175.471 251.212 175.908 251.116 176.25 250.924C176.591 250.743 176.762 250.513 176.762 250.236C176.762 249.991 176.655 249.825 176.442 249.74C176.239 249.655 175.94 249.612 175.546 249.612H174.73C174.452 249.612 174.228 249.601 174.058 249.58C173.887 249.569 173.738 249.548 173.61 249.516C173.322 249.772 173.178 250.033 173.178 250.3C173.178 250.599 173.338 250.823 173.658 250.972C173.978 251.132 174.404 251.212 174.938 251.212ZM189.248 249.5C188.896 249.5 188.538 249.415 188.176 249.244C187.824 249.063 187.493 248.801 187.184 248.46H187.12L186.928 249.308H185.088V238.092H187.44V240.844L187.376 242.06C187.685 241.783 188.016 241.569 188.368 241.42C188.73 241.26 189.098 241.18 189.472 241.18C189.952 241.18 190.384 241.276 190.768 241.468C191.152 241.66 191.477 241.932 191.744 242.284C192.021 242.625 192.229 243.047 192.368 243.548C192.517 244.039 192.592 244.588 192.592 245.196C192.592 245.879 192.496 246.487 192.304 247.02C192.122 247.553 191.872 248.007 191.552 248.38C191.242 248.743 190.885 249.02 190.48 249.212C190.085 249.404 189.674 249.5 189.248 249.5ZM188.704 247.58C189.109 247.58 189.456 247.399 189.744 247.036C190.032 246.663 190.176 246.065 190.176 245.244C190.176 243.815 189.717 243.1 188.8 243.1C188.33 243.1 187.877 243.34 187.44 243.82V247.068C187.653 247.26 187.866 247.393 188.08 247.468C188.293 247.543 188.501 247.58 188.704 247.58ZM196.888 249.5C196.525 249.5 196.194 249.436 195.896 249.308C195.608 249.191 195.362 249.025 195.16 248.812C194.957 248.588 194.797 248.332 194.68 248.044C194.573 247.756 194.52 247.441 194.52 247.1C194.52 246.268 194.872 245.617 195.576 245.148C196.28 244.679 197.416 244.364 198.984 244.204C198.962 243.852 198.856 243.575 198.664 243.372C198.482 243.159 198.173 243.052 197.736 243.052C197.394 243.052 197.053 243.116 196.712 243.244C196.381 243.372 196.024 243.548 195.64 243.772L194.792 242.22C195.304 241.911 195.837 241.66 196.392 241.468C196.957 241.276 197.554 241.18 198.184 241.18C199.208 241.18 199.986 241.473 200.52 242.06C201.064 242.636 201.336 243.537 201.336 244.764V249.308H199.416L199.256 248.492H199.192C198.85 248.791 198.493 249.036 198.12 249.228C197.746 249.409 197.336 249.5 196.888 249.5ZM197.688 247.676C197.954 247.676 198.184 247.617 198.376 247.5C198.568 247.383 198.77 247.217 198.984 247.004V245.612C198.152 245.729 197.576 245.9 197.256 246.124C196.936 246.348 196.776 246.615 196.776 246.924C196.776 247.18 196.856 247.372 197.016 247.5C197.186 247.617 197.41 247.676 197.688 247.676ZM206.957 252.684C206.488 252.684 206.05 252.641 205.645 252.556C205.25 252.481 204.898 252.364 204.589 252.204C204.29 252.044 204.056 251.836 203.885 251.58C203.714 251.324 203.629 251.02 203.629 250.668C203.629 250.028 204.008 249.495 204.765 249.068V249.004C204.552 248.865 204.376 248.689 204.237 248.476C204.098 248.263 204.029 247.991 204.029 247.66C204.029 247.372 204.114 247.1 204.285 246.844C204.456 246.577 204.669 246.353 204.925 246.172V246.108C204.648 245.916 204.397 245.644 204.173 245.292C203.96 244.929 203.853 244.513 203.853 244.044C203.853 243.564 203.944 243.148 204.125 242.796C204.306 242.433 204.546 242.135 204.845 241.9C205.154 241.655 205.506 241.473 205.901 241.356C206.296 241.239 206.706 241.18 207.133 241.18C207.602 241.18 208.013 241.244 208.365 241.372H211.261V243.084H209.997C210.072 243.201 210.13 243.351 210.173 243.532C210.226 243.713 210.253 243.911 210.253 244.124C210.253 244.583 210.173 244.983 210.013 245.324C209.853 245.655 209.629 245.932 209.341 246.156C209.064 246.369 208.733 246.529 208.349 246.636C207.976 246.743 207.57 246.796 207.133 246.796C206.824 246.796 206.504 246.743 206.173 246.636C206.066 246.721 205.992 246.807 205.949 246.892C205.906 246.977 205.885 247.089 205.885 247.228C205.885 247.431 205.97 247.58 206.141 247.676C206.322 247.772 206.637 247.82 207.085 247.82H208.365C209.346 247.82 210.093 247.98 210.605 248.3C211.128 248.609 211.389 249.121 211.389 249.836C211.389 250.252 211.282 250.631 211.069 250.972C210.866 251.324 210.573 251.623 210.189 251.868C209.805 252.124 209.341 252.321 208.797 252.46C208.253 252.609 207.64 252.684 206.957 252.684ZM207.133 245.372C207.442 245.372 207.698 245.265 207.901 245.052C208.114 244.828 208.221 244.492 208.221 244.044C208.221 243.628 208.114 243.313 207.901 243.1C207.698 242.876 207.442 242.764 207.133 242.764C206.824 242.764 206.562 242.871 206.349 243.084C206.146 243.297 206.045 243.617 206.045 244.044C206.045 244.492 206.146 244.828 206.349 245.052C206.562 245.265 206.824 245.372 207.133 245.372ZM207.325 251.212C207.858 251.212 208.296 251.116 208.637 250.924C208.978 250.743 209.149 250.513 209.149 250.236C209.149 249.991 209.042 249.825 208.829 249.74C208.626 249.655 208.328 249.612 207.933 249.612H207.117C206.84 249.612 206.616 249.601 206.445 249.58C206.274 249.569 206.125 249.548 205.997 249.516C205.709 249.772 205.565 250.033 205.565 250.3C205.565 250.599 205.725 250.823 206.045 250.972C206.365 251.132 206.792 251.212 207.325 251.212Z" fill="#23B5AF"/>
<path d="M25.932 278.428L25.372 278.022L26.17 276.706L24.812 276.146L25.022 275.502L26.45 275.852L26.576 274.34H27.262L27.388 275.838L28.83 275.502L29.04 276.146L27.682 276.706L28.466 278.022L27.92 278.428L26.926 277.224L25.932 278.428ZM35.2836 284.476C34.7049 284.476 34.1729 284.369 33.6876 284.154C33.2022 283.939 32.7776 283.631 32.4136 283.23C32.0589 282.819 31.7789 282.32 31.5736 281.732C31.3776 281.135 31.2796 280.463 31.2796 279.716C31.2796 278.979 31.3822 278.316 31.5876 277.728C31.7929 277.14 32.0776 276.641 32.4416 276.23C32.8056 275.819 33.2349 275.507 33.7296 275.292C34.2242 275.068 34.7656 274.956 35.3536 274.956C35.9136 274.956 36.4036 275.073 36.8236 275.306C37.2529 275.53 37.6029 275.791 37.8736 276.09L37.2436 276.846C37.0009 276.585 36.7256 276.375 36.4176 276.216C36.1096 276.057 35.7596 275.978 35.3676 275.978C34.9289 275.978 34.5322 276.067 34.1776 276.244C33.8229 276.412 33.5196 276.659 33.2676 276.986C33.0156 277.303 32.8196 277.691 32.6796 278.148C32.5489 278.605 32.4836 279.119 32.4836 279.688C32.4836 280.267 32.5489 280.789 32.6796 281.256C32.8196 281.713 33.0109 282.105 33.2536 282.432C33.4962 282.759 33.7902 283.011 34.1356 283.188C34.4902 283.365 34.8869 283.454 35.3256 283.454C35.7736 283.454 36.1656 283.365 36.5016 283.188C36.8376 283.001 37.1549 282.745 37.4536 282.418L38.0976 283.146C37.7336 283.566 37.3229 283.893 36.8656 284.126C36.4082 284.359 35.8809 284.476 35.2836 284.476ZM41.9656 284.476C41.3963 284.476 40.9203 284.308 40.5376 283.972C40.1643 283.636 39.9776 283.16 39.9776 282.544C39.9776 281.797 40.3089 281.228 40.9716 280.836C41.6343 280.435 42.6936 280.155 44.1496 279.996C44.1496 279.781 44.1263 279.571 44.0796 279.366C44.0423 279.161 43.9723 278.979 43.8696 278.82C43.7669 278.661 43.6223 278.535 43.4356 278.442C43.2583 278.339 43.0296 278.288 42.7496 278.288C42.3576 278.288 41.9889 278.363 41.6436 278.512C41.2983 278.661 40.9903 278.829 40.7196 279.016L40.2716 278.218C40.5889 278.013 40.9763 277.817 41.4336 277.63C41.8909 277.434 42.3949 277.336 42.9456 277.336C43.7763 277.336 44.3783 277.593 44.7516 278.106C45.1249 278.61 45.3116 279.287 45.3116 280.136V284.308H44.3596L44.2616 283.496H44.2196C43.8929 283.767 43.5429 284 43.1696 284.196C42.7963 284.383 42.3949 284.476 41.9656 284.476ZM42.3016 283.552C42.6283 283.552 42.9363 283.477 43.2256 283.328C43.5149 283.169 43.8229 282.941 44.1496 282.642V280.752C43.5803 280.827 43.0996 280.915 42.7076 281.018C42.3249 281.121 42.0123 281.242 41.7696 281.382C41.5363 281.522 41.3636 281.685 41.2516 281.872C41.1489 282.049 41.0976 282.245 41.0976 282.46C41.0976 282.852 41.2143 283.132 41.4476 283.3C41.6809 283.468 41.9656 283.552 42.3016 283.552ZM48.1523 284.308V277.504H49.1043L49.2023 278.484H49.2443C49.571 278.157 49.9116 277.887 50.2663 277.672C50.6303 277.448 51.0503 277.336 51.5263 277.336C52.245 277.336 52.7676 277.56 53.0943 278.008C53.4303 278.456 53.5983 279.119 53.5983 279.996V284.308H52.4503V280.15C52.4503 279.506 52.3476 279.044 52.1423 278.764C51.937 278.475 51.6103 278.33 51.1623 278.33C50.8076 278.33 50.495 278.419 50.2243 278.596C49.9536 278.773 49.6456 279.035 49.3003 279.38V284.308H48.1523ZM58.0765 284.476C57.5072 284.476 57.0312 284.308 56.6485 283.972C56.2752 283.636 56.0885 283.16 56.0885 282.544C56.0885 281.797 56.4199 281.228 57.0825 280.836C57.7452 280.435 58.8045 280.155 60.2605 279.996C60.2605 279.781 60.2372 279.571 60.1905 279.366C60.1532 279.161 60.0832 278.979 59.9805 278.82C59.8779 278.661 59.7332 278.535 59.5465 278.442C59.3692 278.339 59.1405 278.288 58.8605 278.288C58.4685 278.288 58.0999 278.363 57.7545 278.512C57.4092 278.661 57.1012 278.829 56.8305 279.016L56.3825 278.218C56.6999 278.013 57.0872 277.817 57.5445 277.63C58.0019 277.434 58.5059 277.336 59.0565 277.336C59.8872 277.336 60.4892 277.593 60.8625 278.106C61.2359 278.61 61.4225 279.287 61.4225 280.136V284.308H60.4705L60.3725 283.496H60.3305C60.0039 283.767 59.6539 284 59.2805 284.196C58.9072 284.383 58.5059 284.476 58.0765 284.476ZM58.4125 283.552C58.7392 283.552 59.0472 283.477 59.3365 283.328C59.6259 283.169 59.9339 282.941 60.2605 282.642V280.752C59.6912 280.827 59.2105 280.915 58.8185 281.018C58.4359 281.121 58.1232 281.242 57.8805 281.382C57.6472 281.522 57.4745 281.685 57.3625 281.872C57.2599 282.049 57.2085 282.245 57.2085 282.46C57.2085 282.852 57.3252 283.132 57.5585 283.3C57.7919 283.468 58.0765 283.552 58.4125 283.552ZM66.5872 284.476C65.7286 284.476 65.0426 284.168 64.5292 283.552C64.0252 282.936 63.7732 282.059 63.7732 280.92C63.7732 280.369 63.8526 279.875 64.0112 279.436C64.1792 278.988 64.3986 278.61 64.6692 278.302C64.9399 277.994 65.2526 277.756 65.6072 277.588C65.9619 277.42 66.3352 277.336 66.7272 277.336C67.1192 277.336 67.4599 277.406 67.7492 277.546C68.0386 277.686 68.3326 277.877 68.6312 278.12L68.5752 276.958V274.34H69.7372V284.308H68.7852L68.6872 283.51H68.6452C68.3746 283.771 68.0619 284 67.7072 284.196C67.3619 284.383 66.9886 284.476 66.5872 284.476ZM66.8392 283.51C67.1566 283.51 67.4552 283.435 67.7352 283.286C68.0152 283.127 68.2952 282.889 68.5752 282.572V279.016C68.2859 278.755 68.0059 278.573 67.7352 278.47C67.4739 278.358 67.2032 278.302 66.9232 278.302C66.6526 278.302 66.3959 278.367 66.1532 278.498C65.9199 278.619 65.7146 278.797 65.5372 279.03C65.3599 279.254 65.2199 279.525 65.1172 279.842C65.0146 280.159 64.9632 280.514 64.9632 280.906C64.9632 281.727 65.1266 282.367 65.4532 282.824C65.7799 283.281 66.2419 283.51 66.8392 283.51ZM72.7289 284.308V277.504H73.8769V284.308H72.7289ZM73.3169 276.104C73.0929 276.104 72.9015 276.034 72.7429 275.894C72.5935 275.754 72.5189 275.577 72.5189 275.362C72.5189 275.138 72.5935 274.961 72.7429 274.83C72.9015 274.69 73.0929 274.62 73.3169 274.62C73.5409 274.62 73.7275 274.69 73.8769 274.83C74.0355 274.961 74.1149 275.138 74.1149 275.362C74.1149 275.577 74.0355 275.754 73.8769 275.894C73.7275 276.034 73.5409 276.104 73.3169 276.104ZM78.4422 284.476C77.8728 284.476 77.3968 284.308 77.0142 283.972C76.6408 283.636 76.4542 283.16 76.4542 282.544C76.4542 281.797 76.7855 281.228 77.4482 280.836C78.1108 280.435 79.1702 280.155 80.6262 279.996C80.6262 279.781 80.6028 279.571 80.5562 279.366C80.5188 279.161 80.4488 278.979 80.3462 278.82C80.2435 278.661 80.0988 278.535 79.9122 278.442C79.7348 278.339 79.5062 278.288 79.2262 278.288C78.8342 278.288 78.4655 278.363 78.1202 278.512C77.7748 278.661 77.4668 278.829 77.1962 279.016L76.7482 278.218C77.0655 278.013 77.4528 277.817 77.9102 277.63C78.3675 277.434 78.8715 277.336 79.4222 277.336C80.2528 277.336 80.8548 277.593 81.2282 278.106C81.6015 278.61 81.7882 279.287 81.7882 280.136V284.308H80.8362L80.7382 283.496H80.6962C80.3695 283.767 80.0195 284 79.6462 284.196C79.2728 284.383 78.8715 284.476 78.4422 284.476ZM78.7782 283.552C79.1048 283.552 79.4128 283.477 79.7022 283.328C79.9915 283.169 80.2995 282.941 80.6262 282.642V280.752C80.0568 280.827 79.5762 280.915 79.1842 281.018C78.8015 281.121 78.4888 281.242 78.2462 281.382C78.0128 281.522 77.8402 281.685 77.7282 281.872C77.6255 282.049 77.5742 282.245 77.5742 282.46C77.5742 282.852 77.6908 283.132 77.9242 283.3C78.1575 283.468 78.4422 283.552 78.7782 283.552ZM84.6289 284.308V277.504H85.5809L85.6789 278.484H85.7209C86.0475 278.157 86.3882 277.887 86.7429 277.672C87.1069 277.448 87.5269 277.336 88.0029 277.336C88.7215 277.336 89.2442 277.56 89.5709 278.008C89.9069 278.456 90.0749 279.119 90.0749 279.996V284.308H88.9269V280.15C88.9269 279.506 88.8242 279.044 88.6189 278.764C88.4135 278.475 88.0869 278.33 87.6389 278.33C87.2842 278.33 86.9715 278.419 86.7009 278.596C86.4302 278.773 86.1222 279.035 85.7769 279.38V284.308H84.6289ZM96.4878 284.308V277.504H97.4398L97.5378 278.736H97.5798C97.8132 278.307 98.0932 277.966 98.4198 277.714C98.7558 277.462 99.1198 277.336 99.5118 277.336C99.7825 277.336 100.025 277.383 100.24 277.476L100.016 278.484C99.9038 278.447 99.8012 278.419 99.7078 278.4C99.6145 278.381 99.4978 278.372 99.3578 278.372C99.0685 278.372 98.7652 278.489 98.4478 278.722C98.1398 278.955 97.8692 279.361 97.6358 279.94V284.308H96.4878ZM104.663 284.476C104.205 284.476 103.776 284.397 103.375 284.238C102.983 284.07 102.637 283.837 102.339 283.538C102.049 283.23 101.821 282.857 101.653 282.418C101.485 281.979 101.401 281.48 101.401 280.92C101.401 280.36 101.485 279.861 101.653 279.422C101.83 278.974 102.059 278.596 102.339 278.288C102.628 277.98 102.955 277.747 103.319 277.588C103.683 277.42 104.061 277.336 104.453 277.336C104.882 277.336 105.265 277.411 105.601 277.56C105.946 277.709 106.231 277.924 106.455 278.204C106.688 278.484 106.865 278.82 106.987 279.212C107.108 279.604 107.169 280.043 107.169 280.528C107.169 280.649 107.164 280.771 107.155 280.892C107.155 281.004 107.145 281.102 107.127 281.186H102.535C102.581 281.914 102.805 282.493 103.207 282.922C103.617 283.342 104.149 283.552 104.803 283.552C105.129 283.552 105.428 283.505 105.699 283.412C105.979 283.309 106.245 283.179 106.497 283.02L106.903 283.776C106.604 283.963 106.273 284.126 105.909 284.266C105.545 284.406 105.129 284.476 104.663 284.476ZM102.521 280.36H106.161C106.161 279.669 106.011 279.147 105.713 278.792C105.423 278.428 105.013 278.246 104.481 278.246C104.238 278.246 104.005 278.293 103.781 278.386C103.566 278.479 103.37 278.619 103.193 278.806C103.015 278.983 102.866 279.203 102.745 279.464C102.633 279.725 102.558 280.024 102.521 280.36ZM111.328 284.476C110.843 284.476 110.381 284.387 109.942 284.21C109.503 284.033 109.121 283.809 108.794 283.538L109.368 282.768C109.667 283.011 109.97 283.207 110.278 283.356C110.595 283.505 110.959 283.58 111.37 283.58C111.818 283.58 112.154 283.477 112.378 283.272C112.602 283.067 112.714 282.815 112.714 282.516C112.714 282.339 112.667 282.185 112.574 282.054C112.481 281.923 112.359 281.811 112.21 281.718C112.07 281.615 111.907 281.527 111.72 281.452C111.533 281.377 111.347 281.303 111.16 281.228C110.917 281.144 110.675 281.051 110.432 280.948C110.189 280.836 109.97 280.705 109.774 280.556C109.587 280.397 109.433 280.215 109.312 280.01C109.191 279.805 109.13 279.557 109.13 279.268C109.13 278.997 109.181 278.745 109.284 278.512C109.396 278.269 109.55 278.064 109.746 277.896C109.951 277.719 110.199 277.583 110.488 277.49C110.777 277.387 111.104 277.336 111.468 277.336C111.897 277.336 112.289 277.411 112.644 277.56C113.008 277.709 113.321 277.891 113.582 278.106L113.036 278.834C112.803 278.657 112.56 278.512 112.308 278.4C112.056 278.288 111.781 278.232 111.482 278.232C111.053 278.232 110.735 278.33 110.53 278.526C110.334 278.722 110.236 278.951 110.236 279.212C110.236 279.371 110.278 279.511 110.362 279.632C110.446 279.744 110.558 279.847 110.698 279.94C110.838 280.024 110.997 280.103 111.174 280.178C111.361 280.243 111.552 280.313 111.748 280.388C111.991 280.481 112.233 280.579 112.476 280.682C112.728 280.785 112.952 280.915 113.148 281.074C113.344 281.223 113.503 281.41 113.624 281.634C113.755 281.858 113.82 282.129 113.82 282.446C113.82 282.726 113.764 282.987 113.652 283.23C113.549 283.473 113.391 283.687 113.176 283.874C112.971 284.061 112.709 284.205 112.392 284.308C112.084 284.42 111.729 284.476 111.328 284.476ZM116.115 284.308V277.504H117.263V284.308H116.115ZM116.703 276.104C116.479 276.104 116.288 276.034 116.129 275.894C115.98 275.754 115.905 275.577 115.905 275.362C115.905 275.138 115.98 274.961 116.129 274.83C116.288 274.69 116.479 274.62 116.703 274.62C116.927 274.62 117.114 274.69 117.263 274.83C117.422 274.961 117.501 275.138 117.501 275.362C117.501 275.577 117.422 275.754 117.263 275.894C117.114 276.034 116.927 276.104 116.703 276.104ZM122.585 284.476C121.726 284.476 121.04 284.168 120.527 283.552C120.023 282.936 119.771 282.059 119.771 280.92C119.771 280.369 119.85 279.875 120.009 279.436C120.177 278.988 120.396 278.61 120.667 278.302C120.937 277.994 121.25 277.756 121.605 277.588C121.959 277.42 122.333 277.336 122.725 277.336C123.117 277.336 123.457 277.406 123.747 277.546C124.036 277.686 124.33 277.877 124.629 278.12L124.573 276.958V274.34H125.735V284.308H124.783L124.685 283.51H124.643C124.372 283.771 124.059 284 123.705 284.196C123.359 284.383 122.986 284.476 122.585 284.476ZM122.837 283.51C123.154 283.51 123.453 283.435 123.733 283.286C124.013 283.127 124.293 282.889 124.573 282.572V279.016C124.283 278.755 124.003 278.573 123.733 278.47C123.471 278.358 123.201 278.302 122.921 278.302C122.65 278.302 122.393 278.367 122.151 278.498C121.917 278.619 121.712 278.797 121.535 279.03C121.357 279.254 121.217 279.525 121.115 279.842C121.012 280.159 120.961 280.514 120.961 280.906C120.961 281.727 121.124 282.367 121.451 282.824C121.777 283.281 122.239 283.51 122.837 283.51ZM131.484 284.476C131.027 284.476 130.597 284.397 130.196 284.238C129.804 284.07 129.459 283.837 129.16 283.538C128.871 283.23 128.642 282.857 128.474 282.418C128.306 281.979 128.222 281.48 128.222 280.92C128.222 280.36 128.306 279.861 128.474 279.422C128.651 278.974 128.88 278.596 129.16 278.288C129.449 277.98 129.776 277.747 130.14 277.588C130.504 277.42 130.882 277.336 131.274 277.336C131.703 277.336 132.086 277.411 132.422 277.56C132.767 277.709 133.052 277.924 133.276 278.204C133.509 278.484 133.687 278.82 133.808 279.212C133.929 279.604 133.99 280.043 133.99 280.528C133.99 280.649 133.985 280.771 133.976 280.892C133.976 281.004 133.967 281.102 133.948 281.186H129.356C129.403 281.914 129.627 282.493 130.028 282.922C130.439 283.342 130.971 283.552 131.624 283.552C131.951 283.552 132.249 283.505 132.52 283.412C132.8 283.309 133.066 283.179 133.318 283.02L133.724 283.776C133.425 283.963 133.094 284.126 132.73 284.266C132.366 284.406 131.951 284.476 131.484 284.476ZM129.342 280.36H132.982C132.982 279.669 132.833 279.147 132.534 278.792C132.245 278.428 131.834 278.246 131.302 278.246C131.059 278.246 130.826 278.293 130.602 278.386C130.387 278.479 130.191 278.619 130.014 278.806C129.837 278.983 129.687 279.203 129.566 279.464C129.454 279.725 129.379 280.024 129.342 280.36ZM136.371 284.308V277.504H137.323L137.421 278.484H137.463C137.79 278.157 138.131 277.887 138.485 277.672C138.849 277.448 139.269 277.336 139.745 277.336C140.464 277.336 140.987 277.56 141.313 278.008C141.649 278.456 141.817 279.119 141.817 279.996V284.308H140.669V280.15C140.669 279.506 140.567 279.044 140.361 278.764C140.156 278.475 139.829 278.33 139.381 278.33C139.027 278.33 138.714 278.419 138.443 278.596C138.173 278.773 137.865 279.035 137.519 279.38V284.308H136.371ZM146.87 284.476C146.506 284.476 146.198 284.42 145.946 284.308C145.703 284.196 145.502 284.042 145.344 283.846C145.194 283.65 145.087 283.412 145.022 283.132C144.956 282.852 144.924 282.544 144.924 282.208V278.442H143.916V277.574L144.98 277.504L145.12 275.6H146.086V277.504H147.92V278.442H146.086V282.222C146.086 282.642 146.16 282.969 146.31 283.202C146.468 283.426 146.744 283.538 147.136 283.538C147.257 283.538 147.388 283.519 147.528 283.482C147.668 283.445 147.794 283.403 147.906 283.356L148.13 284.224C147.943 284.289 147.738 284.345 147.514 284.392C147.299 284.448 147.084 284.476 146.87 284.476ZM151.799 284.476C151.314 284.476 150.852 284.387 150.413 284.21C149.975 284.033 149.592 283.809 149.265 283.538L149.839 282.768C150.138 283.011 150.441 283.207 150.749 283.356C151.067 283.505 151.431 283.58 151.841 283.58C152.289 283.58 152.625 283.477 152.849 283.272C153.073 283.067 153.185 282.815 153.185 282.516C153.185 282.339 153.139 282.185 153.045 282.054C152.952 281.923 152.831 281.811 152.681 281.718C152.541 281.615 152.378 281.527 152.191 281.452C152.005 281.377 151.818 281.303 151.631 281.228C151.389 281.144 151.146 281.051 150.903 280.948C150.661 280.836 150.441 280.705 150.245 280.556C150.059 280.397 149.905 280.215 149.783 280.01C149.662 279.805 149.601 279.557 149.601 279.268C149.601 278.997 149.653 278.745 149.755 278.512C149.867 278.269 150.021 278.064 150.217 277.896C150.423 277.719 150.67 277.583 150.959 277.49C151.249 277.387 151.575 277.336 151.939 277.336C152.369 277.336 152.761 277.411 153.115 277.56C153.479 277.709 153.792 277.891 154.053 278.106L153.507 278.834C153.274 278.657 153.031 278.512 152.779 278.4C152.527 278.288 152.252 278.232 151.953 278.232C151.524 278.232 151.207 278.33 151.001 278.526C150.805 278.722 150.707 278.951 150.707 279.212C150.707 279.371 150.749 279.511 150.833 279.632C150.917 279.744 151.029 279.847 151.169 279.94C151.309 280.024 151.468 280.103 151.645 280.178C151.832 280.243 152.023 280.313 152.219 280.388C152.462 280.481 152.705 280.579 152.947 280.682C153.199 280.785 153.423 280.915 153.619 281.074C153.815 281.223 153.974 281.41 154.095 281.634C154.226 281.858 154.291 282.129 154.291 282.446C154.291 282.726 154.235 282.987 154.123 283.23C154.021 283.473 153.862 283.687 153.647 283.874C153.442 284.061 153.181 284.205 152.863 284.308C152.555 284.42 152.201 284.476 151.799 284.476ZM162.735 284.476C162.315 284.476 161.914 284.397 161.531 284.238C161.158 284.079 160.827 283.851 160.537 283.552C160.248 283.244 160.015 282.871 159.837 282.432C159.669 281.984 159.585 281.48 159.585 280.92C159.585 280.351 159.669 279.847 159.837 279.408C160.015 278.96 160.248 278.582 160.537 278.274C160.827 277.966 161.158 277.733 161.531 277.574C161.914 277.415 162.315 277.336 162.735 277.336C163.155 277.336 163.552 277.415 163.925 277.574C164.308 277.733 164.644 277.966 164.933 278.274C165.223 278.582 165.451 278.96 165.619 279.408C165.797 279.847 165.885 280.351 165.885 280.92C165.885 281.48 165.797 281.984 165.619 282.432C165.451 282.871 165.223 283.244 164.933 283.552C164.644 283.851 164.308 284.079 163.925 284.238C163.552 284.397 163.155 284.476 162.735 284.476ZM162.735 283.524C163.025 283.524 163.291 283.463 163.533 283.342C163.776 283.211 163.981 283.034 164.149 282.81C164.327 282.577 164.462 282.301 164.555 281.984C164.649 281.667 164.695 281.312 164.695 280.92C164.695 280.528 164.649 280.173 164.555 279.856C164.462 279.529 164.327 279.249 164.149 279.016C163.981 278.783 163.776 278.605 163.533 278.484C163.291 278.353 163.025 278.288 162.735 278.288C162.446 278.288 162.18 278.353 161.937 278.484C161.695 278.605 161.485 278.783 161.307 279.016C161.139 279.249 161.009 279.529 160.915 279.856C160.822 280.173 160.775 280.528 160.775 280.92C160.775 281.312 160.822 281.667 160.915 281.984C161.009 282.301 161.139 282.577 161.307 282.81C161.485 283.034 161.695 283.211 161.937 283.342C162.18 283.463 162.446 283.524 162.735 283.524ZM168.377 284.308V277.504H169.329L169.427 278.484H169.469C169.796 278.157 170.137 277.887 170.491 277.672C170.855 277.448 171.275 277.336 171.751 277.336C172.47 277.336 172.993 277.56 173.319 278.008C173.655 278.456 173.823 279.119 173.823 279.996V284.308H172.675V280.15C172.675 279.506 172.573 279.044 172.367 278.764C172.162 278.475 171.835 278.33 171.387 278.33C171.033 278.33 170.72 278.419 170.449 278.596C170.179 278.773 169.871 279.035 169.525 279.38V284.308H168.377ZM177.952 284.476C177.513 284.476 177.2 284.345 177.014 284.084C176.827 283.823 176.734 283.44 176.734 282.936V274.34H177.882V283.02C177.882 283.207 177.914 283.337 177.98 283.412C178.045 283.487 178.12 283.524 178.204 283.524C178.241 283.524 178.274 283.524 178.302 283.524C178.339 283.524 178.39 283.515 178.456 283.496L178.61 284.364C178.535 284.401 178.446 284.429 178.344 284.448C178.241 284.467 178.11 284.476 177.952 284.476ZM181.114 287.234C180.955 287.234 180.811 287.22 180.68 287.192C180.549 287.173 180.428 287.141 180.316 287.094L180.54 286.184C180.615 286.203 180.699 286.221 180.792 286.24C180.885 286.268 180.974 286.282 181.058 286.282C181.45 286.282 181.767 286.142 182.01 285.862C182.262 285.591 182.458 285.246 182.598 284.826L182.752 284.322L180.022 277.504H181.212L182.598 281.27C182.701 281.569 182.808 281.886 182.92 282.222C183.041 282.549 183.153 282.871 183.256 283.188H183.312C183.415 282.88 183.513 282.558 183.606 282.222C183.699 281.886 183.793 281.569 183.886 281.27L185.104 277.504H186.224L183.662 284.868C183.541 285.204 183.405 285.517 183.256 285.806C183.107 286.095 182.929 286.343 182.724 286.548C182.519 286.763 182.285 286.931 182.024 287.052C181.763 287.173 181.459 287.234 181.114 287.234Z" fill="#717171"/>
<rect x="40.2383" y="236.308" width="14" height="14" rx="3" fill="#FCFFFF"/>
<rect x="40.2383" y="236.308" width="14" height="14" rx="3" fill="url(#paint7_linear)"/>
<rect x="40.2383" y="236.308" width="14" height="14" rx="3" stroke="#A9DED9" stroke-width="2"/>
<path d="M43.875 244.645L46.168 246.634L50.6047 239.98" stroke="#A9DED9" stroke-width="2" stroke-linecap="round" stroke-linejoin="round"/>
<rect x="23.2383" y="299.308" width="252.779" height="48" rx="10" fill="#E1F7F4"/>
<path d="M73.6383 329.5C73.2329 329.5 72.8916 329.361 72.6143 329.084C72.3476 328.796 72.2143 328.444 72.2143 328.028C72.2143 327.601 72.3476 327.249 72.6143 326.972C72.8916 326.684 73.2329 326.54 73.6383 326.54C74.0436 326.54 74.3796 326.684 74.6463 326.972C74.9236 327.249 75.0623 327.601 75.0623 328.028C75.0623 328.444 74.9236 328.796 74.6463 329.084C74.3796 329.361 74.0436 329.5 73.6383 329.5ZM79.2352 329.5C78.8298 329.5 78.4885 329.361 78.2112 329.084C77.9445 328.796 77.8112 328.444 77.8112 328.028C77.8112 327.601 77.9445 327.249 78.2112 326.972C78.4885 326.684 78.8298 326.54 79.2352 326.54C79.6405 326.54 79.9765 326.684 80.2432 326.972C80.5205 327.249 80.6592 327.601 80.6592 328.028C80.6592 328.444 80.5205 328.796 80.2432 329.084C79.9765 329.361 79.6405 329.5 79.2352 329.5ZM84.832 329.5C84.4267 329.5 84.0854 329.361 83.808 329.084C83.5414 328.796 83.408 328.444 83.408 328.028C83.408 327.601 83.5414 327.249 83.808 326.972C84.0854 326.684 84.4267 326.54 84.832 326.54C85.2374 326.54 85.5734 326.684 85.84 326.972C86.1174 327.249 86.256 327.601 86.256 328.028C86.256 328.444 86.1174 328.796 85.84 329.084C85.5734 329.361 85.2374 329.5 84.832 329.5Z" fill="#23B5AF"/>
<rect x="40.2383" y="316.308" width="14" height="14" rx="3" fill="#FCFFFF"/>
<rect x="40.2383" y="316.308" width="14" height="14" rx="3" fill="url(#paint8_linear)"/>
<rect x="40.2383" y="316.308" width="14" height="14" rx="3" stroke="#A9DED9" stroke-width="2"/>
<path d="M43.875 324.645L46.168 326.634L50.6047 319.98" stroke="#A9DED9" stroke-width="2" stroke-linecap="round" stroke-linejoin="round"/>
<defs>
<linearGradient id="paint0_linear" x1="164.262" y1="190.81" x2="164.262" y2="22.9147" gradientUnits="userSpaceOnUse">
<stop stop-color="#23B5AF"/>
<stop offset="1" stop-color="#B1DFDD"/>
</linearGradient>
<linearGradient id="paint1_linear" x1="371.645" y1="-109.361" x2="188.836" y2="263.828" gradientUnits="userSpaceOnUse">
<stop stop-color="#23B5AF"/>
<stop offset="0.336063" stop-color="#23B5AF"/>
<stop offset="0.703082" stop-color="#60CAC6"/>
<stop offset="1" stop-color="#B7E9E7"/>
</linearGradient>
<linearGradient id="paint2_linear" x1="231.957" y1="-51.1" x2="173.141" y2="224.115" gradientUnits="userSpaceOnUse">
<stop offset="0.336063" stop-color="#23B5AF"/>
<stop offset="0.703082" stop-color="#60CAC6"/>
<stop offset="1" stop-color="#B7E9E7"/>
</linearGradient>
<linearGradient id="paint3_linear" x1="-3.86884" y1="191.166" x2="123.143" y2="-8.83136" gradientUnits="userSpaceOnUse">
<stop offset="0.336063" stop-color="#23B5AF"/>
<stop offset="0.703082" stop-color="#60CAC6"/>
<stop offset="1" stop-color="#B7E9E7"/>
</linearGradient>
<linearGradient id="paint4_linear" x1="90.6049" y1="146.805" x2="162.832" y2="-19.4899" gradientUnits="userSpaceOnUse">
<stop offset="0.336063" stop-color="#23B5AF"/>
<stop offset="0.703082" stop-color="#60CAC6"/>
<stop offset="1" stop-color="#B7E9E7"/>
</linearGradient>
<linearGradient id="paint5_linear" x1="124.152" y1="92.45" x2="199.414" y2="29.6977" gradientUnits="userSpaceOnUse">
<stop offset="0.0746594" stop-color="#FFC23D"/>
<stop offset="1" stop-color="white" stop-opacity="0"/>
</linearGradient>
<linearGradient id="paint6_linear" x1="150" y1="162.058" x2="150" y2="419.315" gradientUnits="userSpaceOnUse">
<stop stop-color="white"/>
<stop offset="1" stop-color="white" stop-opacity="0"/>
</linearGradient>
<linearGradient id="paint7_linear" x1="47.2383" y1="235.308" x2="47.2383" y2="251.308" gradientUnits="userSpaceOnUse">
<stop stop-color="white"/>
<stop offset="1" stop-color="white" stop-opacity="0"/>
</linearGradient>
<linearGradient id="paint8_linear" x1="47.2383" y1="315.308" x2="47.2383" y2="331.308" gradientUnits="userSpaceOnUse">
<stop stop-color="white"/>
<stop offset="1" stop-color="white" stop-opacity="0"/>
</linearGradient>
</defs>
</svg>
