<svg width="301" height="258" viewBox="0 0 301 258" fill="none" xmlns="http://www.w3.org/2000/svg">
<rect x="4" y="4.05811" width="292" height="249.257" rx="20" fill="#FCFFFF"/>
<rect x="4" y="4.05811" width="292" height="249.257" rx="20" fill="url(#paint0_linear)"/>
<rect x="4" y="4.05811" width="292" height="249.257" rx="20" stroke="#A9DED9" stroke-width="8"/>
<path d="M300.003 41.3081V24.0581C300.003 10.8033 289.258 0.0581055 276.003 0.0581055H272.925H245.848H234.435H206.98H193.181H165.584H110.391H20.6289C9.23803 0.0581055 0.00390625 9.29223 0.00390625 20.6831V41.3081H300.003Z" fill="#23B5AF"/>
<ellipse cx="28.875" cy="20.6845" rx="4.875" ry="4.94081" fill="#EC9D89"/>
<ellipse cx="45.9477" cy="20.1926" rx="4.38966" ry="4.44892" fill="#EDBA4B"/>
<ellipse cx="63.5074" cy="20.1926" rx="4.38966" ry="4.44892" fill="#A9DED9"/>
<rect x="23.2383" y="57.3081" width="252.779" height="48" rx="10" fill="#E1F7F4"/>
<rect x="40.2383" y="74.3081" width="14" height="14" rx="3" fill="#FCFFFF"/>
<rect x="40.2383" y="74.3081" width="14" height="14" rx="3" fill="url(#paint1_linear)"/>
<rect x="40.2383" y="74.3081" width="14" height="14" rx="3" stroke="#A9DED9" stroke-width="2"/>
<path d="M43.875 82.6453L46.168 84.6336L50.6047 77.98" stroke="#A9DED9" stroke-width="2" stroke-linecap="round" stroke-linejoin="round"/>
<rect x="23.2383" y="121.308" width="252.779" height="48" rx="10" fill="#E1F7F4"/>
<rect x="40.2383" y="138.308" width="14" height="14" rx="3" fill="#FCFFFF"/>
<rect x="40.2383" y="138.308" width="14" height="14" rx="3" fill="url(#paint2_linear)"/>
<rect x="40.2383" y="138.308" width="14" height="14" rx="3" stroke="#A9DED9" stroke-width="2"/>
<path d="M43.875 146.645L46.168 148.634L50.6047 141.98" stroke="#A9DED9" stroke-width="2" stroke-linecap="round" stroke-linejoin="round"/>
<rect x="23.2383" y="185.308" width="252.779" height="48" rx="10" fill="#E1F7F4"/>
<rect x="40.2383" y="202.308" width="14" height="14" rx="3" fill="#FCFFFF"/>
<rect x="40.2383" y="202.308" width="14" height="14" rx="3" fill="url(#paint3_linear)"/>
<rect x="40.2383" y="202.308" width="14" height="14" rx="3" stroke="#A9DED9" stroke-width="2"/>
<path d="M43.875 210.645L46.168 212.634L50.6047 205.98" stroke="#A9DED9" stroke-width="2" stroke-linecap="round" stroke-linejoin="round"/>
<defs>
<linearGradient id="paint0_linear" x1="150" y1="0.0581055" x2="150" y2="257.315" gradientUnits="userSpaceOnUse">
<stop stop-color="white"/>
<stop offset="1" stop-color="white" stop-opacity="0"/>
</linearGradient>
<linearGradient id="paint1_linear" x1="47.2383" y1="73.3081" x2="47.2383" y2="89.3081" gradientUnits="userSpaceOnUse">
<stop stop-color="white"/>
<stop offset="1" stop-color="white" stop-opacity="0"/>
</linearGradient>
<linearGradient id="paint2_linear" x1="47.2383" y1="137.308" x2="47.2383" y2="153.308" gradientUnits="userSpaceOnUse">
<stop stop-color="white"/>
<stop offset="1" stop-color="white" stop-opacity="0"/>
</linearGradient>
<linearGradient id="paint3_linear" x1="47.2383" y1="201.308" x2="47.2383" y2="217.308" gradientUnits="userSpaceOnUse">
<stop stop-color="white"/>
<stop offset="1" stop-color="white" stop-opacity="0"/>
</linearGradient>
</defs>
</svg>
