<svg width="225" height="111" viewBox="0 0 225 111" fill="none" xmlns="http://www.w3.org/2000/svg">
<path d="M-203.445 111H136.754H225C225 111 225 96.2445 215.408 76.9982C209.923 65.9921 193.262 40.6075 183.115 33.6941C173.494 27.1385 148.351 18.0543 136.754 18.9385C120.89 20.1482 101.264 33.6941 101.264 33.6941C101.264 33.6941 76.8153 57.619 62.5773 53.2611C51.214 49.7831 28.5344 33.7899 28.5344 33.7899C28.5344 33.7899 -0.156708 2.5958 -16.8622 0.45243C-38.0076 -2.26059 -52.8936 8.11416 -52.8936 8.11416C-52.8936 8.11416 -61.9108 11.3292 -83.2196 30.4863C-104.528 49.6435 -100.162 46.5833 -113.282 53.2611C-138.632 66.1647 -169.578 53.0319 -185.533 62.1344C-208.91 75.4706 -203.445 111 -203.445 111Z" fill="url(#paint0_linear)"/>
<defs>
<linearGradient id="paint0_linear" x1="1.18947" y1="-47.3325" x2="1.18947" y2="111" gradientUnits="userSpaceOnUse">
<stop stop-color="#23B5AF"/>
<stop offset="1" stop-color="white" stop-opacity="0"/>
</linearGradient>
</defs>
</svg>
