<svg width="251" height="185" viewBox="0 0 251 185" fill="none" xmlns="http://www.w3.org/2000/svg">
<path d="M244.841 124.303C153.593 95.9975 52.2787 111.409 6.66965 124.315C3.81783 125.122 2.93915 128.645 4.98366 130.791L19.5769 146.107C20.508 147.084 20.8835 148.464 20.5755 149.779L15.3149 172.224C14.5853 175.337 17.6455 178.01 20.6625 176.951C114 144.184 195.246 160.718 231.575 175.943C234.71 177.257 238.168 174.46 237.392 171.149L232.356 149.661C232.063 148.412 232.387 147.099 233.227 146.129L246.625 130.662C248.492 128.506 247.565 125.147 244.841 124.303Z" fill="#A9DED9"/>
<path d="M244.841 124.303C153.593 95.9975 52.2787 111.409 6.66965 124.315C3.81783 125.122 2.93915 128.645 4.98366 130.791L19.5769 146.107C20.508 147.084 20.8835 148.464 20.5755 149.779L15.3149 172.224C14.5853 175.337 17.6455 178.01 20.6625 176.951C114 144.184 195.246 160.718 231.575 175.943C234.71 177.257 238.168 174.46 237.392 171.149L232.356 149.661C232.063 148.412 232.387 147.099 233.227 146.129L246.625 130.662C248.492 128.506 247.565 125.147 244.841 124.303Z" fill="url(#paint0_linear)"/>
<circle cx="126.004" cy="92.4521" r="91.1533" fill="#C4C4C4"/>
<circle cx="126.004" cy="92.4521" r="91.1533" fill="url(#paint1_linear)"/>
<circle cx="126.004" cy="92.4521" r="91.1533" stroke="#BBBBBB" stroke-width="2"/>
<circle cx="126.004" cy="92.4521" r="91.1533" stroke="url(#paint2_linear)" stroke-width="2"/>
<circle cx="125.547" cy="91.9964" r="74.7737" fill="#717171"/>
<circle cx="125.547" cy="91.9964" r="74.7737" fill="url(#paint3_linear)"/>
<circle cx="125.547" cy="91.9964" r="74.7737" stroke="#CCCCCC"/>
<circle cx="125.547" cy="91.9964" r="74.7737" stroke="url(#paint4_linear)"/>
<path d="M103.54 125.93V116.522C107.124 113.194 110.452 110.058 113.524 107.114C116.66 104.17 119.38 101.418 121.684 98.8582C123.988 96.2342 125.78 93.7702 127.06 91.4662C128.404 89.0982 129.076 86.8902 129.076 84.8422C129.076 82.0902 128.372 80.0742 126.964 78.7942C125.62 77.4502 123.828 76.7782 121.588 76.7782C119.54 76.7782 117.716 77.3862 116.116 78.6022C114.58 79.7542 113.076 81.0662 111.604 82.5382L102.772 73.7062C104.372 72.0422 105.94 70.6022 107.476 69.3862C109.012 68.1062 110.612 67.0822 112.276 66.3142C114.004 65.4822 115.796 64.8742 117.652 64.4902C119.572 64.1062 121.652 63.9142 123.892 63.9142C126.964 63.9142 129.78 64.3942 132.34 65.3542C134.9 66.3142 137.108 67.6582 138.964 69.3862C140.82 71.1142 142.26 73.2262 143.284 75.7222C144.308 78.1542 144.82 80.8742 144.82 83.8822C144.82 86.3142 144.276 88.8102 143.188 91.3702C142.164 93.8662 140.82 96.3622 139.156 98.8582C137.492 101.354 135.604 103.786 133.492 106.154C131.444 108.522 129.396 110.762 127.348 112.874C128.884 112.682 130.612 112.522 132.532 112.394C134.516 112.202 136.18 112.106 137.524 112.106H147.7V125.93H103.54Z" fill="#D5D5D5"/>
<path d="M103.54 125.93V116.522C107.124 113.194 110.452 110.058 113.524 107.114C116.66 104.17 119.38 101.418 121.684 98.8582C123.988 96.2342 125.78 93.7702 127.06 91.4662C128.404 89.0982 129.076 86.8902 129.076 84.8422C129.076 82.0902 128.372 80.0742 126.964 78.7942C125.62 77.4502 123.828 76.7782 121.588 76.7782C119.54 76.7782 117.716 77.3862 116.116 78.6022C114.58 79.7542 113.076 81.0662 111.604 82.5382L102.772 73.7062C104.372 72.0422 105.94 70.6022 107.476 69.3862C109.012 68.1062 110.612 67.0822 112.276 66.3142C114.004 65.4822 115.796 64.8742 117.652 64.4902C119.572 64.1062 121.652 63.9142 123.892 63.9142C126.964 63.9142 129.78 64.3942 132.34 65.3542C134.9 66.3142 137.108 67.6582 138.964 69.3862C140.82 71.1142 142.26 73.2262 143.284 75.7222C144.308 78.1542 144.82 80.8742 144.82 83.8822C144.82 86.3142 144.276 88.8102 143.188 91.3702C142.164 93.8662 140.82 96.3622 139.156 98.8582C137.492 101.354 135.604 103.786 133.492 106.154C131.444 108.522 129.396 110.762 127.348 112.874C128.884 112.682 130.612 112.522 132.532 112.394C134.516 112.202 136.18 112.106 137.524 112.106H147.7V125.93H103.54Z" fill="url(#paint5_linear)"/>
<defs>
<linearGradient id="paint0_linear" x1="125.547" y1="222.397" x2="101.824" y2="46.3024" gradientUnits="userSpaceOnUse">
<stop stop-color="#23B5AF"/>
<stop offset="1" stop-color="white" stop-opacity="0"/>
</linearGradient>
<linearGradient id="paint1_linear" x1="225.913" y1="177.306" x2="33.8512" y2="92.4521" gradientUnits="userSpaceOnUse">
<stop stop-color="#717171"/>
<stop offset="1" stop-color="white" stop-opacity="0"/>
</linearGradient>
<linearGradient id="paint2_linear" x1="209.49" y1="188.255" x2="126.004" y2="184.605" gradientUnits="userSpaceOnUse">
<stop stop-color="#9A9A9A"/>
<stop offset="1" stop-color="white" stop-opacity="0"/>
</linearGradient>
<linearGradient id="paint3_linear" x1="273.813" y1="16.7227" x2="11.4957" y2="255.774" gradientUnits="userSpaceOnUse">
<stop stop-color="white"/>
<stop offset="0.0001" stop-color="#E9E9E9"/>
<stop offset="1" stop-color="white" stop-opacity="0"/>
</linearGradient>
<linearGradient id="paint4_linear" x1="188.503" y1="161.339" x2="50.2731" y2="80.5913" gradientUnits="userSpaceOnUse">
<stop stop-color="#797979"/>
<stop offset="1" stop-color="white" stop-opacity="0"/>
</linearGradient>
<linearGradient id="paint5_linear" x1="63.9616" y1="55.9302" x2="126.005" y2="121.624" gradientUnits="userSpaceOnUse">
<stop stop-color="#FCFCFC"/>
<stop offset="1" stop-color="white" stop-opacity="0"/>
</linearGradient>
</defs>
</svg>
