<svg xmlns="http://www.w3.org/2000/svg" width="251" height="186" fill="none" viewBox="0 0 251 186"><path fill="url(#paint0_linear)" d="M244.556 124.755C153.308 96.4496 51.994 111.861 6.38492 124.767C3.5331 125.574 2.65442 129.097 4.69894 131.243L19.2922 146.559C20.2232 147.536 20.5987 148.917 20.2908 150.231L15.0302 172.676C14.3006 175.789 17.3608 178.462 20.3778 177.403C113.716 144.636 194.961 161.17 231.29 176.395C234.426 177.709 237.883 174.912 237.107 171.601L232.071 150.113C231.779 148.864 232.102 147.551 232.942 146.581L246.34 131.114C248.207 128.959 247.28 125.6 244.556 124.755Z"/><circle cx="125.263" cy="92.907" r="91.653" fill="url(#paint1_linear)" stroke="url(#paint2_linear)"/><circle cx="124.805" cy="92.451" r="74.774" fill="url(#paint3_linear)" stroke="url(#paint4_linear)"/><path fill="#FAE0A1" d="M120.053 61.4648C121.55 56.8583 128.067 56.8583 129.563 61.4648L133.928 74.8976C134.597 76.9577 136.517 78.3525 138.683 78.3525L152.807 78.3525C157.651 78.3525 159.665 84.5506 155.746 87.3976L144.32 95.6995C142.567 96.9728 141.834 99.2296 142.503 101.29L146.868 114.722C148.365 119.329 143.092 123.16 139.174 120.313L127.747 112.011C125.995 110.738 123.622 110.738 121.869 112.011L110.443 120.313C106.524 123.16 101.252 119.329 102.748 114.722L107.113 101.29C107.782 99.2296 107.049 96.9728 105.297 95.6995L93.87 87.3976C89.9514 84.5506 91.9653 78.3525 96.8089 78.3525L110.933 78.3525C113.099 78.3525 115.019 76.9577 115.688 74.8976L120.053 61.4648Z"/><path fill="url(#paint5_linear)" d="M120.053 61.4648C121.55 56.8583 128.067 56.8583 129.563 61.4648L133.928 74.8976C134.597 76.9577 136.517 78.3525 138.683 78.3525L152.807 78.3525C157.651 78.3525 159.665 84.5506 155.746 87.3976L144.32 95.6995C142.567 96.9728 141.834 99.2296 142.503 101.29L146.868 114.722C148.365 119.329 143.092 123.16 139.174 120.313L127.747 112.011C125.995 110.738 123.622 110.738 121.869 112.011L110.443 120.313C106.524 123.16 101.252 119.329 102.748 114.722L107.113 101.29C107.782 99.2296 107.049 96.9728 105.297 95.6995L93.87 87.3976C89.9514 84.5506 91.9653 78.3525 96.8089 78.3525L110.933 78.3525C113.099 78.3525 115.019 76.9577 115.688 74.8976L120.053 61.4648Z"/><defs><linearGradient id="paint0_linear" x1="142.262" x2="142.262" y1="190.81" y2="22.915" gradientUnits="userSpaceOnUse"><stop stop-color="#23B5AF"/><stop offset="1" stop-color="#B1DFDD"/></linearGradient><linearGradient id="paint1_linear" x1="349.645" x2="166.836" y1="-109.361" y2="263.828" gradientUnits="userSpaceOnUse"><stop stop-color="#23B5AF"/><stop offset=".336" stop-color="#23B5AF"/><stop offset=".703" stop-color="#60CAC6"/><stop offset="1" stop-color="#B7E9E7"/></linearGradient><linearGradient id="paint2_linear" x1="209.957" x2="151.141" y1="-51.1" y2="224.115" gradientUnits="userSpaceOnUse"><stop offset=".336" stop-color="#23B5AF"/><stop offset=".703" stop-color="#60CAC6"/><stop offset="1" stop-color="#B7E9E7"/></linearGradient><linearGradient id="paint3_linear" x1="-25.869" x2="101.143" y1="191.166" y2="-8.831" gradientUnits="userSpaceOnUse"><stop offset=".336" stop-color="#23B5AF"/><stop offset=".703" stop-color="#60CAC6"/><stop offset="1" stop-color="#B7E9E7"/></linearGradient><linearGradient id="paint4_linear" x1="68.605" x2="140.832" y1="146.805" y2="-19.49" gradientUnits="userSpaceOnUse"><stop offset=".336" stop-color="#23B5AF"/><stop offset=".703" stop-color="#60CAC6"/><stop offset="1" stop-color="#B7E9E7"/></linearGradient><linearGradient id="paint5_linear" x1="102.152" x2="177.414" y1="92.45" y2="29.698" gradientUnits="userSpaceOnUse"><stop offset=".075" stop-color="#FFC23D"/><stop offset="1" stop-color="#fff" stop-opacity="0"/></linearGradient></defs></svg>