<svg xmlns="http://www.w3.org/2000/svg" width="251" height="185" fill="none" viewBox="0 0 251 185"><path fill="#EC9D89" d="M244.299 124.771C153.05 96.4657 51.7364 111.877 6.12735 124.783C3.27554 125.59 2.39686 129.114 4.44137 131.259L19.0346 146.575C19.9657 147.552 20.3412 148.933 20.0332 150.247L14.7726 172.692C14.043 175.806 17.1032 178.478 20.1202 177.419C113.458 144.652 194.704 161.187 231.032 176.411C234.168 177.725 237.626 174.928 236.85 171.618L231.814 150.129C231.521 148.88 231.845 147.567 232.685 146.597L246.083 131.13C247.95 128.975 247.022 125.616 244.299 124.771Z"/><path fill="url(#paint0_linear)" d="M244.299 124.771C153.05 96.4657 51.7364 111.877 6.12735 124.783C3.27554 125.59 2.39686 129.114 4.44137 131.259L19.0346 146.575C19.9657 147.552 20.3412 148.933 20.0332 150.247L14.7726 172.692C14.043 175.806 17.1032 178.478 20.1202 177.419C113.458 144.652 194.704 161.187 231.032 176.411C234.168 177.725 237.626 174.928 236.85 171.618L231.814 150.129C231.521 148.88 231.845 147.567 232.685 146.597L246.083 131.13C247.95 128.975 247.022 125.616 244.299 124.771Z"/><circle cx="125.005" cy="92.452" r="91.153" fill="#EDBA4B"/><circle cx="125.005" cy="92.452" r="91.153" fill="url(#paint1_linear)"/><circle cx="125.005" cy="92.452" r="91.153" stroke="#EDBA4B" stroke-width="2"/><circle cx="125.005" cy="92.452" r="91.153" stroke="url(#paint2_linear)" stroke-width="2"/><circle cx="124.544" cy="91.996" r="74.774" fill="#EDBA4B"/><circle cx="124.544" cy="91.996" r="74.774" fill="url(#paint3_linear)"/><circle cx="124.544" cy="91.996" r="74.774" stroke="#EDBA4B"/><circle cx="124.544" cy="91.996" r="74.774" stroke="url(#paint4_linear)"/><path fill="#D29818" d="M105.871 127.422V114.174H118.927V82.6864H107.407V72.5104C110.863 71.8064 113.807 71.0064 116.239 70.1104C118.671 69.2144 121.039 68.0304 123.343 66.5584H135.439V114.174H146.383V127.422H105.871Z"/><path fill="url(#paint5_linear)" d="M105.871 127.422V114.174H118.927V82.6864H107.407V72.5104C110.863 71.8064 113.807 71.0064 116.239 70.1104C118.671 69.2144 121.039 68.0304 123.343 66.5584H135.439V114.174H146.383V127.422H105.871Z"/><defs><linearGradient id="paint0_linear" x1="109.037" x2="43.344" y1="215.11" y2="1.606" gradientUnits="userSpaceOnUse"><stop stop-color="#E8795D"/><stop offset="1" stop-color="#fff" stop-opacity="0"/></linearGradient><linearGradient id="paint1_linear" x1="23.728" x2="125.005" y1="65.079" y2="184.605" gradientUnits="userSpaceOnUse"><stop stop-color="#FAE0A1"/><stop offset="1" stop-color="#fff" stop-opacity="0"/></linearGradient><linearGradient id="paint2_linear" x1="125.005" x2="187.505" y1=".298" y2="170.919" gradientUnits="userSpaceOnUse"><stop stop-color="#FAE0A1"/><stop offset="1" stop-color="#fff" stop-opacity="0"/></linearGradient><linearGradient id="paint3_linear" x1="201.642" x2="124.544" y1="19.459" y2="167.27" gradientUnits="userSpaceOnUse"><stop stop-color="#FAE0A1"/><stop offset="1" stop-color="#fff" stop-opacity="0"/></linearGradient><linearGradient id="paint4_linear" x1="13.686" x2="124.544" y1="39.532" y2="167.27" gradientUnits="userSpaceOnUse"><stop stop-color="#FAE0A1"/><stop offset="1" stop-color="#fff" stop-opacity="0"/></linearGradient><linearGradient id="paint5_linear" x1="87.637" x2="152.31" y1="23.931" y2="125.494" gradientUnits="userSpaceOnUse"><stop stop-color="#EDBA4B"/><stop offset="1" stop-color="#fff" stop-opacity="0"/></linearGradient></defs></svg>