<svg width="251" height="186" viewBox="0 0 251 186" fill="none" xmlns="http://www.w3.org/2000/svg">
<path d="M244.705 125.198C153.457 96.8925 52.1431 112.304 6.53403 125.21C3.68221 126.017 2.80353 129.54 4.84804 131.686L19.4413 147.002C20.3724 147.979 20.7479 149.359 20.4399 150.674L15.1793 173.119C14.4497 176.232 17.5099 178.905 20.5269 177.846C113.865 145.079 195.11 161.613 231.439 176.838C234.575 178.152 238.032 175.355 237.257 172.044L232.22 150.556C231.928 149.307 232.252 147.994 233.091 147.024L246.489 131.557C248.356 129.401 247.429 126.042 244.705 125.198Z" fill="url(#paint0_linear)"/>
<circle cx="125.865" cy="92.9067" r="91.6533" fill="url(#paint1_linear)" stroke="url(#paint2_linear)"/>
<circle cx="125.411" cy="92.451" r="74.7737" fill="url(#paint3_linear)" stroke="url(#paint4_linear)"/>
<path d="M126.699 127.081C121.707 127.081 117.419 126.313 113.835 124.777C110.251 123.241 107.307 121.129 105.003 118.441L112.491 108.073C114.347 109.801 116.331 111.209 118.443 112.297C120.619 113.321 122.795 113.833 124.971 113.833C127.659 113.833 129.803 113.353 131.403 112.393C133.003 111.433 133.803 109.993 133.803 108.073C133.803 106.921 133.611 105.897 133.227 105.001C132.843 104.105 132.107 103.337 131.019 102.697C129.931 102.057 128.395 101.577 126.411 101.257C124.427 100.937 121.835 100.777 118.635 100.777V89.2572C121.195 89.2572 123.307 89.0972 124.971 88.7772C126.699 88.4572 128.075 88.0092 129.099 87.4332C130.123 86.7932 130.827 86.0572 131.211 85.2252C131.659 84.3932 131.883 83.4332 131.883 82.3452C131.883 78.6332 129.771 76.7772 125.547 76.7772C123.499 76.7772 121.675 77.1932 120.075 78.0252C118.475 78.8572 116.715 80.1052 114.795 81.7692L106.539 71.7852C109.547 69.2892 112.651 67.3692 115.851 66.0252C119.051 64.6172 122.539 63.9132 126.315 63.9132C133.035 63.9132 138.379 65.4172 142.347 68.4252C146.379 71.3692 148.395 75.5932 148.395 81.0972C148.395 86.9852 145.131 91.3692 138.603 94.2492V94.6332C142.059 95.7212 144.875 97.4812 147.051 99.9132C149.227 102.281 150.315 105.385 150.315 109.225C150.315 112.105 149.675 114.665 148.395 116.905C147.115 119.081 145.387 120.937 143.211 122.473C141.099 124.009 138.603 125.161 135.723 125.929C132.843 126.697 129.835 127.081 126.699 127.081Z" fill="url(#paint5_linear)"/>
<defs>
<linearGradient id="paint0_linear" x1="125.411" y1="-18.496" x2="125.411" y2="180.409" gradientUnits="userSpaceOnUse">
<stop stop-color="#FAE0A1"/>
<stop offset="0.68419" stop-color="#FEDA8D"/>
<stop offset="1" stop-color="#EDBA4B"/>
</linearGradient>
<linearGradient id="paint1_linear" x1="218.018" y1="92.9067" x2="-36.5436" y2="185.06" gradientUnits="userSpaceOnUse">
<stop stop-color="#B08D57"/>
<stop offset="0.585156" stop-color="#DEB77B"/>
<stop offset="1" stop-color="#EDBA4B"/>
</linearGradient>
<linearGradient id="paint2_linear" x1="263.639" y1="115.717" x2="-5.52174" y2="28.1257" gradientUnits="userSpaceOnUse">
<stop stop-color="#997743"/>
<stop offset="0.507102" stop-color="#DEB77B"/>
<stop offset="1" stop-color="#EDBA4B"/>
</linearGradient>
<linearGradient id="paint3_linear" x1="222.583" y1="17.1772" x2="60.1741" y2="167.725" gradientUnits="userSpaceOnUse">
<stop stop-color="#EDBA4B"/>
<stop offset="0.551019" stop-color="#DEB77B" stop-opacity="0.7"/>
<stop offset="0.991488" stop-color="#B08D57"/>
</linearGradient>
<linearGradient id="paint4_linear" x1="212.09" y1="9.87797" x2="82.9843" y2="156.776" gradientUnits="userSpaceOnUse">
<stop stop-color="#EDBA4B"/>
<stop offset="0.380186" stop-color="#DEB77B"/>
<stop offset="1" stop-color="#B08D57"/>
</linearGradient>
<linearGradient id="paint5_linear" x1="91.1398" y1="144.433" x2="368.968" y2="-27.5562" gradientUnits="userSpaceOnUse">
<stop offset="0.0416667" stop-color="#B08D57"/>
<stop offset="0.572643" stop-color="#DEB77B" stop-opacity="0.45"/>
<stop offset="1" stop-color="#FFF0D0"/>
</linearGradient>
</defs>
</svg>
