<svg xmlns="http://www.w3.org/2000/svg" width="270" height="321" fill="none" viewBox="0 0 270 321"><path fill="url(#paint0_linear)" d="M101.314 184.213C101.314 112.105 34.6936 40.5214 1.38348 13.7427C-26.8497 -2.56568 -79.0502 -17.7311 -61.9867 52.0742C-51.4487 52.2854 -32.3481 58.493 -40.2498 81.6338C-41.3081 83.1624 -44.624 86.5018 -49.4215 87.6306C-47.735 121.35 -37.6311 190.93 -10.707 199.497C-6.28764 201.537 -0.100548 207.758 -10.707 216.325C-11.5569 250.15 -2.65018 318.31 39.7756 320.35C66.1405 322.273 120.65 321.057 127.766 300.799C140.306 274.934 122.541 235.811 112.091 219.482C81.5235 217.131 92.1698 194.989 101.314 184.213Z" opacity=".8"/><path stroke="url(#paint1_linear)" stroke-linecap="round" stroke-width="3" d="M-25.2041 72.5657C-0.580406 83.1596 69.2811 208.282 69.2811 290.742" opacity=".8"/><path fill="url(#paint2_linear)" d="M155.838 129.025C119.27 163.651 130.499 190.566 151.079 210.153C159.02 215.67 157.738 216.798 156.103 216.672C143.329 214.202 126.577 190.326 119.798 178.697C112.126 183.731 107.482 195.429 106.119 200.648C114.678 213.418 140.659 228.443 153.832 234.479C154.33 234.707 154.529 236.864 153.05 236.187C135.929 233.977 113.348 217.46 103.036 207.385C94.8797 217.388 98.3606 228.286 101.121 232.485C133.736 249.455 145.225 251.322 149.293 250.113C150.92 251.212 151.517 250.917 151.133 252.811C143.564 261.704 113.793 249.048 97.9332 239.451C91.2472 250.995 92.0949 260.65 93.3545 264.034C105.517 285.325 144.026 283.709 161.761 280.24C183.333 299.378 207.147 297.146 216.358 293.638C226.07 280.39 225.284 267.417 223.677 262.586C217.51 265.249 201.288 265.392 193.948 265.131C172.72 260.887 175.506 259.868 176.238 258.267C203.742 264.03 221.677 253.753 229.195 250.529C236.307 222.793 228.663 207.772 223.952 203.728C212.688 221.357 191.46 228.239 181.21 232.32C177.442 231.528 179.841 230.546 180.737 229.679C207.004 214.785 215.949 199.902 218.956 191.954C219.801 190.45 218.122 187.897 217.176 186.808C216.622 176.317 207.501 169.208 203.01 166.965C202.993 181.808 186.264 203.252 178.795 213.405C177.161 214.382 175.235 213.989 175.64 211.961C214.033 148.654 176.616 138.641 155.838 129.025Z"/><path stroke="url(#paint3_linear)" stroke-linecap="round" stroke-width="2" d="M158.606 140.059C164.315 150.801 175.279 217.867 162.605 269.169"/><path stroke="url(#paint4_linear)" stroke-linecap="round" stroke-width="2" d="M146.733 170.943C151.489 174.437 162.374 184.443 167.868 196.517C168.293 193.205 171.233 182.781 179.595 167.588"/><path stroke="url(#paint5_linear)" stroke-linecap="round" stroke-width="2" d="M116.754 195.757C121.51 199.251 137.211 220.31 167.91 229.726C170.35 227.366 192.481 215.792 208.73 186.883"/><path stroke="url(#paint6_linear)" stroke-linecap="round" stroke-width="2" d="M121.839 232.05C125.642 234.781 140.652 242.107 167.09 246.726C168.973 244.975 185.337 249.848 208.039 235.305"/><path stroke="url(#paint7_linear)" stroke-linecap="round" stroke-width="2" d="M101.219 258.875C105.022 261.607 124.324 272.707 162.115 269.075C163.997 267.324 185.489 283.436 214.599 276.609"/><defs><linearGradient id="paint0_linear" x1="-6.709" x2="100.412" y1="18.713" y2="321" gradientUnits="userSpaceOnUse"><stop stop-color="#A9DED9"/><stop offset="1" stop-color="#A9DED9" stop-opacity="0"/></linearGradient><linearGradient id="paint1_linear" x1="22.038" x2="22.038" y1="72.566" y2="290.742" gradientUnits="userSpaceOnUse"><stop stop-color="#7AC0BA"/><stop offset="1" stop-color="#7AC0BA" stop-opacity="0"/></linearGradient><linearGradient id="paint2_linear" x1="173.025" x2="183.949" y1="140.576" y2="343.025" gradientUnits="userSpaceOnUse"><stop stop-color="#8FC8C2"/><stop offset="1" stop-color="#8FC8C2" stop-opacity="0"/></linearGradient><linearGradient id="paint3_linear" x1="184.859" x2="136.352" y1="152.209" y2="257.019" gradientUnits="userSpaceOnUse"><stop stop-color="#B4E9E4"/><stop offset="1" stop-color="#B4E9E4" stop-opacity="0"/></linearGradient><linearGradient id="paint4_linear" x1="167.386" x2="154.291" y1="161.938" y2="190.234" gradientUnits="userSpaceOnUse"><stop stop-color="#B4E9E4"/><stop offset="1" stop-color="#B4E9E4" stop-opacity="0"/></linearGradient><linearGradient id="paint5_linear" x1="172.546" x2="148.631" y1="170.137" y2="221.811" gradientUnits="userSpaceOnUse"><stop stop-color="#B4E9E4"/><stop offset="1" stop-color="#B4E9E4" stop-opacity="0"/></linearGradient><linearGradient id="paint6_linear" x1="171.922" x2="157.76" y1="218.59" y2="249.19" gradientUnits="userSpaceOnUse"><stop stop-color="#B4E9E4"/><stop offset="1" stop-color="#B4E9E4" stop-opacity="0"/></linearGradient><linearGradient id="paint7_linear" x1="164.529" x2="151.071" y1="253.436" y2="282.517" gradientUnits="userSpaceOnUse"><stop stop-color="#B4E9E4"/><stop offset="1" stop-color="#B4E9E4" stop-opacity="0"/></linearGradient></defs></svg>