<svg width="577" height="419" viewBox="0 0 577 419" fill="none" xmlns="http://www.w3.org/2000/svg">
<path d="M157.746 418.393C157.746 343.344 168.544 315.583 173.944 311.084H127.369C132.769 315.583 143.567 343.344 143.567 418.393H157.746Z" fill="#85D4CE"/>
<path d="M5.34204 307.312H295.969" stroke="#85D4CE" stroke-width="9" stroke-linecap="round"/>
<path d="M56.7775 166.348L111.748 299.787" stroke="#A9DED9" stroke-width="7" stroke-linecap="round"/>
<path d="M256.065 299.786L111.748 299.786" stroke="#A9DED9" stroke-width="7" stroke-linecap="round"/>
<path d="M111.748 299.786L56.7776 166.348L203.919 49.205C285.954 63.3697 416.08 125.798 280.311 262.195L111.748 299.786Z" fill="url(#paint0_linear)" fill-opacity="0.4"/>
<path d="M394.123 157.594C397.571 165.805 402.606 169.101 407.945 175.998C409.883 176.304 413.602 177.372 415.154 175.834C415.987 175.008 416.447 173.634 417.157 172.672C417.968 171.574 418.847 170.493 419.938 169.713C422.791 167.671 425.134 165.58 425.377 161.598C425.476 159.966 425.063 158.058 423.986 156.84C421.152 153.636 417.324 150.941 413.752 148.777C411.277 147.279 408.592 146.199 406.42 144.172C404.795 142.654 403.403 140.95 402.152 139.066C400.966 137.278 398.673 130.586 396.54 129.932C394.767 129.389 390.811 120.381 389.112 121.462C387.003 122.803 389.849 137.639 390.052 139.92C390.467 144.574 392.367 153.414 394.123 157.594Z" fill="#FAE0A1"/>
<path d="M394.123 157.594C397.571 165.805 402.606 169.101 407.945 175.998C409.883 176.304 413.602 177.372 415.154 175.834C415.987 175.008 416.447 173.634 417.157 172.672C417.968 171.574 418.847 170.493 419.938 169.713C422.791 167.671 425.134 165.58 425.377 161.598C425.476 159.966 425.063 158.058 423.986 156.84C421.152 153.636 417.324 150.941 413.752 148.777C411.277 147.279 408.592 146.199 406.42 144.172C404.795 142.654 403.403 140.95 402.152 139.066C400.966 137.278 398.673 130.586 396.54 129.932C394.767 129.389 390.811 120.381 389.112 121.462C387.003 122.803 389.849 137.639 390.052 139.92C390.467 144.574 392.367 153.414 394.123 157.594Z" fill="url(#paint1_linear)"/>
<path d="M261.511 284.327C269.769 284.445 276.641 289.393 284.109 292.222C285.282 292.222 288.634 292.804 289.581 293.579C291.033 294.767 291.586 296.816 291.586 298.613C291.586 302.251 289.165 304.79 285.3 304.983C279.922 305.252 274.665 305.756 269.239 305.756C261.562 305.756 254.013 305.384 246.348 304.837C239.33 304.335 232.334 302.967 225.4 301.829C221.462 301.183 214.321 299.919 212.827 295.543C211.829 292.621 219.4 293.143 220.805 292.974C227.143 292.209 233.632 291.198 239.706 289.214C246.558 286.977 254.264 284.224 261.511 284.327Z" fill="url(#paint2_linear)"/>
<path d="M560.809 415.436C582.532 404.102 576.551 367.425 570.845 350.502L414.412 340.467L311.698 415.436H560.809Z" fill="#316966"/>
<path d="M453.815 160.966C453.564 145.203 447.038 131.255 443.807 126.251L468.202 113.115L484.153 149.394L453.815 160.966Z" fill="url(#paint3_linear)"/>
<path d="M379.775 288.77C377.047 287.485 376.888 283.515 377.149 281.69C373.689 277.653 391.411 240.769 389.299 176.101C386.021 161.674 390.473 158.6 393.109 158.866C399.53 164.381 416.419 167.025 424.061 167.657C429.878 169.975 429.482 175.399 428.557 177.821C434.582 250.484 441.295 257.058 433.429 274.412C435.205 289.943 417.429 295.329 408.319 296.081C387.341 303.296 380.549 294.214 379.775 288.77Z" fill="url(#paint4_linear)"/>
<path d="M446.334 183.291C449.156 208.756 444.813 274.678 389.363 352.758C416.346 366.881 489.804 383.118 574.244 349.222C564.616 284.091 557.316 243.235 516.4 176.857C500.158 156.662 492.453 154.59 491.294 154.591C465.888 154.591 443.673 159.278 446.334 183.291Z" fill="url(#paint5_linear)"/>
<path d="M448.264 162.549C448.317 160.853 448.486 157.143 450.896 157.09C454.871 157.09 459.989 156.417 463.799 155.391C467.596 154.368 471.33 153.12 474.742 151.288C477.983 149.548 481.331 148.374 484.793 147.075C487.698 145.984 492.585 145.664 492.762 149.545C492.873 151.987 492.674 154.403 491.268 156.56C489.883 158.687 486.195 159.647 483.666 159.979C480.903 160.343 478.155 160.791 475.403 161.215C471.851 161.762 468.299 162.087 464.986 163.465C461.783 164.797 459.401 166.828 456.515 168.583C454.154 170.018 451.097 170.601 448.888 168.45C447.584 167.179 448.215 164.113 448.264 162.549Z" fill="url(#paint6_linear)"/>
<path d="M450.818 171.223C450.818 174.299 450.526 177.511 450.935 180.565C451.317 183.418 451.891 186.231 452.244 189.093C452.922 194.584 453.668 200.673 452.128 206.061" stroke="#6BC2BE" stroke-width="2" stroke-linecap="round" stroke-linejoin="round"/>
<path d="M293.274 287.821C293.274 290.207 293.245 292.595 293.274 294.98C293.299 296.975 294.184 298.783 295.161 300.493" stroke="#127772" stroke-width="2" stroke-linecap="round" stroke-linejoin="round"/>
<path d="M389.725 122.002C387.846 117.292 376.322 113.359 379.944 107.858C381.122 106.07 381.897 105.126 382.461 104.553L385.221 100.928C394.392 80.2145 381.594 71.3611 381.218 59.3707C382.546 49.2259 386.148 28.3957 415.636 19.8161C441.038 7.68373 493.033 -2.45918 497.797 54.0284C500.399 67.9826 499.406 103.3 474.614 132.935C444.25 144.102 418.5 171.276 401.185 139.102L398.542 137.172C397.163 136.362 395.709 135.526 395.383 134.865C393.505 131.06 391.635 126.79 389.725 122.002Z" fill="url(#paint7_linear)"/>
<path d="M423.559 127.839C424.448 127.447 425.36 127.082 426.202 126.593C427.48 125.85 428.417 124.832 429.201 123.564C429.784 122.623 430.275 121.612 430.661 120.565" stroke="#176965" stroke-width="4" stroke-linecap="round" stroke-linejoin="round"/>
<path d="M507.296 26.8236C473.399 -0.802204 443.456 3.60383 422.744 11.7769L439.314 42.8489C444.455 51.4342 449.718 70.162 447.506 86.3078C444.491 108.323 434.047 127.478 450.13 127.478C452.098 131.662 459.182 140.081 471.777 140.281C476.045 142.398 486.449 145.067 493.922 138.812C532.306 136.106 529.478 124.298 523.267 118.732C541.574 103.513 515.457 71.7791 515.457 62.9015C515.457 55.7994 516.399 39.0753 507.296 26.8236Z" fill="url(#paint8_linear)"/>
<path d="M379.089 65.8466C376.905 40.0093 393.757 24.5417 402.457 20.0375C406.235 16.2994 415.492 9.31882 422.299 11.3019C429.105 13.2849 434.768 33.9117 436.749 43.9772C438.515 52.9911 437.485 62.3126 436.749 65.8466C404.217 72.9654 384.754 68.8128 379.089 65.8466Z" fill="url(#paint9_linear)"/>
<path d="M524.804 232.763C534.374 181.913 513.72 155.896 494.486 156.966C469.266 156.966 430.454 283.755 425.741 283.755C421.971 283.755 424.17 287.69 425.741 289.657C419.009 282.286 345.258 283.774 309.224 285.44C304.799 284.455 296.678 285.03 293.17 285.44C289.825 283.471 282.361 283.496 279.047 283.755C275.712 300.301 282.27 310.709 285.966 313.844C292.274 319.399 327.137 323.766 343.779 325.256C382.1 348.563 428.344 332.162 446.677 321.047C451.786 325.45 458.504 322.882 461.224 321.047C469.172 323.119 481.149 312.479 486.144 306.9C495.359 297.698 515.234 283.612 524.804 232.763Z" fill="url(#paint10_linear)"/>
<circle cx="403.281" cy="90.0135" r="3.39356" fill="#176965"/>
<path d="M396.229 76.9605C400.727 76.2407 405.847 76.4757 409.243 79.8715" stroke="#176965" stroke-width="4" stroke-linecap="round" stroke-linejoin="round"/>
<circle cx="424.111" cy="102.033" r="7.10584" fill="#EC9D89"/>
<defs>
<linearGradient id="paint0_linear" x1="90.9198" y1="231.647" x2="230.398" y2="216.864" gradientUnits="userSpaceOnUse">
<stop stop-color="#A9DED9"/>
<stop offset="1" stop-color="#A9DED9" stop-opacity="0"/>
</linearGradient>
<linearGradient id="paint1_linear" x1="417.051" y1="154.91" x2="377.562" y2="202.482" gradientUnits="userSpaceOnUse">
<stop stop-color="#EDBA4B"/>
<stop offset="1" stop-color="white" stop-opacity="0"/>
</linearGradient>
<linearGradient id="paint2_linear" x1="252.161" y1="271.956" x2="252.161" y2="305.756" gradientUnits="userSpaceOnUse">
<stop stop-color="#ECB94C"/>
<stop offset="1" stop-color="#FAE0A1"/>
</linearGradient>
<linearGradient id="paint3_linear" x1="463.98" y1="70.4559" x2="463.98" y2="160.966" gradientUnits="userSpaceOnUse">
<stop stop-color="#ECB94C"/>
<stop offset="1" stop-color="#FACF72"/>
</linearGradient>
<linearGradient id="paint4_linear" x1="416.059" y1="293.893" x2="414.532" y2="164.751" gradientUnits="userSpaceOnUse">
<stop stop-color="#479A96"/>
<stop offset="1" stop-color="#70C8C4"/>
</linearGradient>
<linearGradient id="paint5_linear" x1="442.559" y1="173.956" x2="492.559" y2="343.956" gradientUnits="userSpaceOnUse">
<stop stop-color="#AEEBE8"/>
<stop offset="1" stop-color="#5BCCC7"/>
</linearGradient>
<linearGradient id="paint6_linear" x1="476.059" y1="163.956" x2="459.559" y2="153.956" gradientUnits="userSpaceOnUse">
<stop stop-color="#7AD1CD"/>
<stop offset="1" stop-color="#A2DEDC"/>
</linearGradient>
<linearGradient id="paint7_linear" x1="447.059" y1="46.4561" x2="387.059" y2="137.956" gradientUnits="userSpaceOnUse">
<stop stop-color="#EEC261"/>
<stop offset="1" stop-color="#FEE29D"/>
</linearGradient>
<linearGradient id="paint8_linear" x1="476.261" y1="5.56641" x2="476.261" y2="142.702" gradientUnits="userSpaceOnUse">
<stop stop-color="#E88870"/>
<stop offset="0.71875" stop-color="#EC9782"/>
<stop offset="1" stop-color="#FFA791"/>
</linearGradient>
<linearGradient id="paint9_linear" x1="408.31" y1="10.9541" x2="408.31" y2="69.7773" gradientUnits="userSpaceOnUse">
<stop stop-color="#E88870"/>
<stop offset="0.71875" stop-color="#EC9782"/>
<stop offset="1" stop-color="#FFA791"/>
</linearGradient>
<linearGradient id="paint10_linear" x1="353.059" y1="209.456" x2="446.559" y2="351.456" gradientUnits="userSpaceOnUse">
<stop stop-color="#A9DED9"/>
<stop offset="0.776042" stop-color="#23B5AF"/>
</linearGradient>
</defs>
</svg>
