<svg width="400" height="400" viewBox="0 0 400 400" fill="none" xmlns="http://www.w3.org/2000/svg">
<rect x="4" y="4" width="392" height="392" rx="20" fill="#FCFFFF" stroke="#A9DED9" stroke-width="8"/>
<path d="M112.378 285V268.048H116.2V285H112.378ZM126.152 285.312C125.355 285.312 124.67 285.191 124.098 284.948C123.544 284.705 123.084 284.367 122.72 283.934C122.374 283.501 122.114 282.981 121.94 282.374C121.784 281.75 121.706 281.065 121.706 280.32V275.094H119.938V272.26L121.914 272.104L122.356 268.672H125.528V272.104H128.622V275.094H125.528V280.268C125.528 280.996 125.676 281.525 125.97 281.854C126.282 282.166 126.69 282.322 127.192 282.322C127.4 282.322 127.608 282.296 127.816 282.244C128.042 282.192 128.241 282.131 128.414 282.062L129.012 284.844C128.666 284.948 128.258 285.052 127.79 285.156C127.322 285.26 126.776 285.312 126.152 285.312ZM133.428 275.848L132.596 274.184C133.376 273.785 133.956 273.335 134.338 272.832C134.736 272.312 134.936 271.662 134.936 270.882C134.884 270.899 134.806 270.908 134.702 270.908C134.147 270.908 133.67 270.743 133.272 270.414C132.89 270.067 132.7 269.599 132.7 269.01C132.7 268.351 132.882 267.831 133.246 267.45C133.627 267.069 134.112 266.878 134.702 266.878C135.499 266.878 136.106 267.173 136.522 267.762C136.938 268.351 137.146 269.192 137.146 270.284C137.146 271.515 136.834 272.598 136.21 273.534C135.603 274.47 134.676 275.241 133.428 275.848ZM144.416 285.312C143.567 285.312 142.692 285.147 141.79 284.818C140.906 284.489 140.135 284.055 139.476 283.518L141.192 281.126C141.782 281.577 142.345 281.915 142.882 282.14C143.42 282.365 143.966 282.478 144.52 282.478C145.092 282.478 145.508 282.383 145.768 282.192C146.028 282.001 146.158 281.733 146.158 281.386C146.158 281.178 146.08 280.996 145.924 280.84C145.786 280.667 145.586 280.511 145.326 280.372C145.084 280.233 144.806 280.112 144.494 280.008C144.182 279.887 143.862 279.757 143.532 279.618C143.134 279.462 142.735 279.28 142.336 279.072C141.938 278.864 141.574 278.613 141.244 278.318C140.915 278.006 140.646 277.651 140.438 277.252C140.23 276.836 140.126 276.359 140.126 275.822C140.126 275.233 140.239 274.687 140.464 274.184C140.707 273.681 141.045 273.257 141.478 272.91C141.912 272.563 142.432 272.295 143.038 272.104C143.645 271.896 144.321 271.792 145.066 271.792C146.054 271.792 146.921 271.965 147.666 272.312C148.412 272.641 149.062 273.014 149.616 273.43L147.9 275.718C147.432 275.371 146.973 275.103 146.522 274.912C146.072 274.721 145.621 274.626 145.17 274.626C144.2 274.626 143.714 274.964 143.714 275.64C143.714 275.848 143.784 276.03 143.922 276.186C144.061 276.325 144.243 276.455 144.468 276.576C144.711 276.697 144.98 276.819 145.274 276.94C145.586 277.044 145.907 277.157 146.236 277.278C146.652 277.434 147.06 277.616 147.458 277.824C147.874 278.015 148.247 278.257 148.576 278.552C148.923 278.847 149.2 279.211 149.408 279.644C149.616 280.06 149.72 280.563 149.72 281.152C149.72 281.741 149.608 282.287 149.382 282.79C149.157 283.293 148.819 283.735 148.368 284.116C147.918 284.48 147.363 284.775 146.704 285C146.046 285.208 145.283 285.312 144.416 285.312ZM164.555 290.486C163.792 290.486 163.082 290.417 162.423 290.278C161.782 290.157 161.21 289.966 160.707 289.706C160.222 289.446 159.84 289.108 159.563 288.692C159.286 288.276 159.147 287.782 159.147 287.21C159.147 286.17 159.762 285.303 160.993 284.61V284.506C160.646 284.281 160.36 283.995 160.135 283.648C159.91 283.301 159.797 282.859 159.797 282.322C159.797 281.854 159.936 281.412 160.213 280.996C160.49 280.563 160.837 280.199 161.253 279.904V279.8C160.802 279.488 160.395 279.046 160.031 278.474C159.684 277.885 159.511 277.209 159.511 276.446C159.511 275.666 159.658 274.99 159.953 274.418C160.248 273.829 160.638 273.343 161.123 272.962C161.626 272.563 162.198 272.269 162.839 272.078C163.48 271.887 164.148 271.792 164.841 271.792C165.604 271.792 166.271 271.896 166.843 272.104H171.549V274.886H169.495C169.616 275.077 169.712 275.319 169.781 275.614C169.868 275.909 169.911 276.229 169.911 276.576C169.911 277.321 169.781 277.971 169.521 278.526C169.261 279.063 168.897 279.514 168.429 279.878C167.978 280.225 167.441 280.485 166.817 280.658C166.21 280.831 165.552 280.918 164.841 280.918C164.338 280.918 163.818 280.831 163.281 280.658C163.108 280.797 162.986 280.935 162.917 281.074C162.848 281.213 162.813 281.395 162.813 281.62C162.813 281.949 162.952 282.192 163.229 282.348C163.524 282.504 164.035 282.582 164.763 282.582H166.843C168.438 282.582 169.651 282.842 170.483 283.362C171.332 283.865 171.757 284.697 171.757 285.858C171.757 286.534 171.584 287.149 171.237 287.704C170.908 288.276 170.431 288.761 169.807 289.16C169.183 289.576 168.429 289.897 167.545 290.122C166.661 290.365 165.664 290.486 164.555 290.486ZM164.841 278.604C165.344 278.604 165.76 278.431 166.089 278.084C166.436 277.72 166.609 277.174 166.609 276.446C166.609 275.77 166.436 275.259 166.089 274.912C165.76 274.548 165.344 274.366 164.841 274.366C164.338 274.366 163.914 274.539 163.567 274.886C163.238 275.233 163.073 275.753 163.073 276.446C163.073 277.174 163.238 277.72 163.567 278.084C163.914 278.431 164.338 278.604 164.841 278.604ZM165.153 288.094C166.02 288.094 166.73 287.938 167.285 287.626C167.84 287.331 168.117 286.959 168.117 286.508C168.117 286.109 167.944 285.841 167.597 285.702C167.268 285.563 166.782 285.494 166.141 285.494H164.815C164.364 285.494 164 285.477 163.723 285.442C163.446 285.425 163.203 285.39 162.995 285.338C162.527 285.754 162.293 286.179 162.293 286.612C162.293 287.097 162.553 287.461 163.073 287.704C163.593 287.964 164.286 288.094 165.153 288.094ZM177.909 285.312C177.32 285.312 176.782 285.208 176.297 285C175.829 284.809 175.43 284.541 175.101 284.194C174.772 283.83 174.512 283.414 174.321 282.946C174.148 282.478 174.061 281.967 174.061 281.412C174.061 280.06 174.633 279.003 175.777 278.24C176.921 277.477 178.767 276.966 181.315 276.706C181.28 276.134 181.107 275.683 180.795 275.354C180.5 275.007 179.998 274.834 179.287 274.834C178.732 274.834 178.178 274.938 177.623 275.146C177.086 275.354 176.505 275.64 175.881 276.004L174.503 273.482C175.335 272.979 176.202 272.572 177.103 272.26C178.022 271.948 178.992 271.792 180.015 271.792C181.679 271.792 182.944 272.269 183.811 273.222C184.695 274.158 185.137 275.623 185.137 277.616V285H182.017L181.757 283.674H181.653C181.098 284.159 180.518 284.558 179.911 284.87C179.304 285.165 178.637 285.312 177.909 285.312ZM179.209 282.348C179.642 282.348 180.015 282.253 180.327 282.062C180.639 281.871 180.968 281.603 181.315 281.256V278.994C179.963 279.185 179.027 279.462 178.507 279.826C177.987 280.19 177.727 280.623 177.727 281.126C177.727 281.542 177.857 281.854 178.117 282.062C178.394 282.253 178.758 282.348 179.209 282.348ZM189.67 285V272.104H192.79L193.05 273.768H193.154C193.691 273.231 194.263 272.771 194.87 272.39C195.477 271.991 196.205 271.792 197.054 271.792C197.973 271.792 198.709 271.983 199.264 272.364C199.836 272.728 200.287 273.257 200.616 273.95C201.188 273.361 201.786 272.858 202.41 272.442C203.051 272.009 203.805 271.792 204.672 271.792C206.059 271.792 207.073 272.26 207.714 273.196C208.373 274.115 208.702 275.38 208.702 276.992V285H204.88V277.486C204.88 276.55 204.75 275.909 204.49 275.562C204.247 275.215 203.849 275.042 203.294 275.042C202.653 275.042 201.916 275.458 201.084 276.29V285H197.262V277.486C197.262 276.55 197.132 275.909 196.872 275.562C196.629 275.215 196.231 275.042 195.676 275.042C195.017 275.042 194.289 275.458 193.492 276.29V285H189.67ZM219.035 285.312C218.116 285.312 217.258 285.165 216.461 284.87C215.664 284.558 214.97 284.116 214.381 283.544C213.792 282.955 213.332 282.244 213.003 281.412C212.674 280.58 212.509 279.627 212.509 278.552C212.509 277.512 212.682 276.576 213.029 275.744C213.376 274.895 213.826 274.184 214.381 273.612C214.953 273.023 215.603 272.572 216.331 272.26C217.059 271.948 217.813 271.792 218.593 271.792C219.512 271.792 220.309 271.948 220.985 272.26C221.678 272.572 222.25 273.005 222.701 273.56C223.169 274.115 223.516 274.773 223.741 275.536C223.966 276.281 224.079 277.096 224.079 277.98C224.079 278.327 224.062 278.656 224.027 278.968C223.992 279.28 223.958 279.514 223.923 279.67H216.201C216.374 280.606 216.756 281.299 217.345 281.75C217.952 282.183 218.688 282.4 219.555 282.4C220.474 282.4 221.401 282.114 222.337 281.542L223.611 283.856C222.952 284.307 222.216 284.662 221.401 284.922C220.604 285.182 219.815 285.312 219.035 285.312ZM216.175 277.148H220.829C220.829 276.42 220.664 275.831 220.335 275.38C220.006 274.929 219.451 274.704 218.671 274.704C218.064 274.704 217.527 274.903 217.059 275.302C216.608 275.701 216.314 276.316 216.175 277.148ZM239.491 285.312C238.694 285.312 238.009 285.191 237.437 284.948C236.882 284.705 236.423 284.367 236.059 283.934C235.712 283.501 235.452 282.981 235.279 282.374C235.123 281.75 235.045 281.065 235.045 280.32V275.094H233.277V272.26L235.253 272.104L235.695 268.672H238.867V272.104H241.961V275.094H238.867V280.268C238.867 280.996 239.014 281.525 239.309 281.854C239.621 282.166 240.028 282.322 240.531 282.322C240.739 282.322 240.947 282.296 241.155 282.244C241.38 282.192 241.58 282.131 241.753 282.062L242.351 284.844C242.004 284.948 241.597 285.052 241.129 285.156C240.661 285.26 240.115 285.312 239.491 285.312ZM245.778 285V272.104H249.6V285H245.778ZM247.676 270.206C247.035 270.206 246.506 270.024 246.09 269.66C245.674 269.279 245.466 268.793 245.466 268.204C245.466 267.615 245.674 267.138 246.09 266.774C246.506 266.41 247.035 266.228 247.676 266.228C248.335 266.228 248.864 266.41 249.262 266.774C249.678 267.138 249.886 267.615 249.886 268.204C249.886 268.793 249.678 269.279 249.262 269.66C248.864 270.024 248.335 270.206 247.676 270.206ZM254.264 285V272.104H257.384L257.644 273.768H257.748C258.285 273.231 258.857 272.771 259.464 272.39C260.071 271.991 260.799 271.792 261.648 271.792C262.567 271.792 263.303 271.983 263.858 272.364C264.43 272.728 264.881 273.257 265.21 273.95C265.782 273.361 266.38 272.858 267.004 272.442C267.645 272.009 268.399 271.792 269.266 271.792C270.653 271.792 271.667 272.26 272.308 273.196C272.967 274.115 273.296 275.38 273.296 276.992V285H269.474V277.486C269.474 276.55 269.344 275.909 269.084 275.562C268.841 275.215 268.443 275.042 267.888 275.042C267.247 275.042 266.51 275.458 265.678 276.29V285H261.856V277.486C261.856 276.55 261.726 275.909 261.466 275.562C261.223 275.215 260.825 275.042 260.27 275.042C259.611 275.042 258.883 275.458 258.086 276.29V285H254.264ZM283.629 285.312C282.71 285.312 281.852 285.165 281.055 284.87C280.257 284.558 279.564 284.116 278.975 283.544C278.385 282.955 277.926 282.244 277.597 281.412C277.267 280.58 277.103 279.627 277.103 278.552C277.103 277.512 277.276 276.576 277.623 275.744C277.969 274.895 278.42 274.184 278.975 273.612C279.547 273.023 280.197 272.572 280.925 272.26C281.653 271.948 282.407 271.792 283.187 271.792C284.105 271.792 284.903 271.948 285.579 272.26C286.272 272.572 286.844 273.005 287.295 273.56C287.763 274.115 288.109 274.773 288.335 275.536C288.56 276.281 288.673 277.096 288.673 277.98C288.673 278.327 288.655 278.656 288.621 278.968C288.586 279.28 288.551 279.514 288.517 279.67H280.795C280.968 280.606 281.349 281.299 281.939 281.75C282.545 282.183 283.282 282.4 284.149 282.4C285.067 282.4 285.995 282.114 286.931 281.542L288.205 283.856C287.546 284.307 286.809 284.662 285.995 284.922C285.197 285.182 284.409 285.312 283.629 285.312ZM280.769 277.148H285.423C285.423 276.42 285.258 275.831 284.929 275.38C284.599 274.929 284.045 274.704 283.265 274.704C282.658 274.704 282.121 274.903 281.653 275.302C281.202 275.701 280.907 276.316 280.769 277.148Z" fill="#717171"/>
<path d="M58.7119 322V311.504H60.0399V320.864H64.6319V322H58.7119ZM67.1651 322V314.224H68.4771V322H67.1651ZM67.8371 312.624C67.5811 312.624 67.3625 312.544 67.1811 312.384C67.0105 312.224 66.9251 312.021 66.9251 311.776C66.9251 311.52 67.0105 311.317 67.1811 311.168C67.3625 311.008 67.5811 310.928 67.8371 310.928C68.0931 310.928 68.3065 311.008 68.4771 311.168C68.6585 311.317 68.7491 311.52 68.7491 311.776C68.7491 312.021 68.6585 312.224 68.4771 312.384C68.3065 312.544 68.0931 312.624 67.8371 312.624ZM74.5266 325.584C74.0466 325.584 73.6093 325.536 73.2146 325.44C72.82 325.355 72.4786 325.221 72.1906 325.04C71.9133 324.859 71.6946 324.64 71.5346 324.384C71.3853 324.128 71.3106 323.829 71.3106 323.488C71.3106 323.157 71.412 322.843 71.6146 322.544C71.8173 322.245 72.0946 321.973 72.4466 321.728V321.664C72.2546 321.547 72.0893 321.387 71.9506 321.184C71.8226 320.971 71.7586 320.709 71.7586 320.4C71.7586 320.069 71.8493 319.781 72.0306 319.536C72.212 319.291 72.404 319.099 72.6066 318.96V318.896C72.3506 318.683 72.116 318.4 71.9026 318.048C71.7 317.685 71.5986 317.269 71.5986 316.8C71.5986 316.373 71.6733 315.989 71.8226 315.648C71.9826 315.307 72.196 315.019 72.4626 314.784C72.7293 314.539 73.0386 314.352 73.3906 314.224C73.7533 314.096 74.132 314.032 74.5266 314.032C74.74 314.032 74.9373 314.053 75.1186 314.096C75.3106 314.128 75.4813 314.171 75.6306 314.224H78.3346V315.232H76.7346C76.916 315.413 77.0653 315.643 77.1826 315.92C77.3106 316.197 77.3746 316.501 77.3746 316.832C77.3746 317.248 77.3 317.627 77.1506 317.968C77.0013 318.299 76.7986 318.581 76.5426 318.816C76.2866 319.04 75.9826 319.216 75.6306 319.344C75.2893 319.472 74.9213 319.536 74.5266 319.536C74.3346 319.536 74.1373 319.515 73.9346 319.472C73.732 319.419 73.54 319.349 73.3586 319.264C73.22 319.381 73.1026 319.515 73.0066 319.664C72.9106 319.803 72.8626 319.979 72.8626 320.192C72.8626 320.437 72.9586 320.64 73.1506 320.8C73.3426 320.96 73.7053 321.04 74.2386 321.04H75.7426C76.6493 321.04 77.3266 321.189 77.7746 321.488C78.2333 321.776 78.4626 322.245 78.4626 322.896C78.4626 323.259 78.372 323.6 78.1906 323.92C78.0093 324.251 77.748 324.539 77.4066 324.784C77.0653 325.029 76.6493 325.221 76.1586 325.36C75.6786 325.509 75.1346 325.584 74.5266 325.584ZM74.5266 318.656C74.7506 318.656 74.9586 318.613 75.1506 318.528C75.3533 318.443 75.5293 318.32 75.6786 318.16C75.8386 318 75.9613 317.808 76.0466 317.584C76.132 317.349 76.1746 317.088 76.1746 316.8C76.1746 316.224 76.0146 315.781 75.6946 315.472C75.3746 315.152 74.9853 314.992 74.5266 314.992C74.068 314.992 73.6786 315.152 73.3586 315.472C73.0386 315.781 72.8786 316.224 72.8786 316.8C72.8786 317.088 72.9213 317.349 73.0066 317.584C73.092 317.808 73.2093 318 73.3586 318.16C73.5186 318.32 73.6946 318.443 73.8866 318.528C74.0893 318.613 74.3026 318.656 74.5266 318.656ZM74.7186 324.672C75.092 324.672 75.428 324.624 75.7266 324.528C76.036 324.443 76.2973 324.325 76.5106 324.176C76.724 324.037 76.8893 323.872 77.0066 323.68C77.124 323.488 77.1826 323.291 77.1826 323.088C77.1826 322.725 77.0493 322.475 76.7826 322.336C76.516 322.197 76.1266 322.128 75.6146 322.128H74.2706C74.1213 322.128 73.956 322.117 73.7746 322.096C73.604 322.085 73.4333 322.053 73.2626 322C72.9853 322.203 72.7826 322.416 72.6546 322.64C72.5266 322.864 72.4626 323.088 72.4626 323.312C72.4626 323.728 72.66 324.059 73.0546 324.304C73.46 324.549 74.0146 324.672 74.7186 324.672ZM80.7651 322V310.608H82.0771V313.712L82.0291 315.312C82.4025 314.96 82.7918 314.661 83.1971 314.416C83.6025 314.16 84.0771 314.032 84.6211 314.032C85.4425 314.032 86.0398 314.288 86.4131 314.8C86.7971 315.312 86.9891 316.069 86.9891 317.072V322H85.6771V317.248C85.6771 316.512 85.5598 315.984 85.3251 315.664C85.0905 315.333 84.7171 315.168 84.2051 315.168C83.7998 315.168 83.4425 315.269 83.1331 315.472C82.8238 315.675 82.4718 315.973 82.0771 316.368V322H80.7651ZM92.7163 322.192C92.3003 322.192 91.9483 322.128 91.6603 322C91.3829 321.872 91.1536 321.696 90.9723 321.472C90.8016 321.248 90.6789 320.976 90.6043 320.656C90.5296 320.336 90.4923 319.984 90.4923 319.6V315.296H89.3403V314.304L90.5563 314.224L90.7163 312.048H91.8203V314.224H93.9163V315.296H91.8203V319.616C91.8203 320.096 91.9056 320.469 92.0763 320.736C92.2576 320.992 92.5723 321.12 93.0203 321.12C93.1589 321.12 93.3083 321.099 93.4683 321.056C93.6283 321.013 93.7723 320.965 93.9003 320.912L94.1563 321.904C93.9429 321.979 93.7083 322.043 93.4523 322.096C93.2069 322.16 92.9616 322.192 92.7163 322.192ZM99.4078 322.192C98.8851 322.192 98.3944 322.101 97.9358 321.92C97.4878 321.728 97.0931 321.461 96.7518 321.12C96.4211 320.768 96.1598 320.341 95.9678 319.84C95.7758 319.339 95.6798 318.768 95.6798 318.128C95.6798 317.488 95.7758 316.917 95.9678 316.416C96.1704 315.904 96.4318 315.472 96.7518 315.12C97.0824 314.768 97.4558 314.501 97.8718 314.32C98.2878 314.128 98.7198 314.032 99.1678 314.032C99.6584 314.032 100.096 314.117 100.48 314.288C100.874 314.459 101.2 314.704 101.456 315.024C101.722 315.344 101.925 315.728 102.064 316.176C102.202 316.624 102.272 317.125 102.272 317.68C102.272 317.819 102.266 317.957 102.256 318.096C102.256 318.224 102.245 318.336 102.224 318.432H96.9758C97.0291 319.264 97.2851 319.925 97.7438 320.416C98.2131 320.896 98.8211 321.136 99.5678 321.136C99.9411 321.136 100.282 321.083 100.592 320.976C100.912 320.859 101.216 320.709 101.504 320.528L101.968 321.392C101.626 321.605 101.248 321.792 100.832 321.952C100.416 322.112 99.9411 322.192 99.4078 322.192ZM96.9598 317.488H101.12C101.12 316.699 100.949 316.101 100.608 315.696C100.277 315.28 99.8078 315.072 99.1998 315.072C98.9224 315.072 98.6558 315.125 98.3998 315.232C98.1544 315.339 97.9304 315.499 97.7278 315.712C97.5251 315.915 97.3544 316.165 97.2158 316.464C97.0878 316.763 97.0024 317.104 96.9598 317.488ZM104.993 322V314.224H106.081L106.193 315.344H106.241C106.615 314.971 107.004 314.661 107.409 314.416C107.825 314.16 108.305 314.032 108.849 314.032C109.671 314.032 110.268 314.288 110.641 314.8C111.025 315.312 111.217 316.069 111.217 317.072V322H109.905V317.248C109.905 316.512 109.788 315.984 109.553 315.664C109.319 315.333 108.945 315.168 108.433 315.168C108.028 315.168 107.671 315.269 107.361 315.472C107.052 315.675 106.7 315.973 106.305 316.368V322H104.993ZM120.994 322.192C120.578 322.192 120.226 322.128 119.938 322C119.661 321.872 119.432 321.696 119.25 321.472C119.08 321.248 118.957 320.976 118.882 320.656C118.808 320.336 118.77 319.984 118.77 319.6V315.296H117.618V314.304L118.834 314.224L118.994 312.048H120.098V314.224H122.194V315.296H120.098V319.616C120.098 320.096 120.184 320.469 120.354 320.736C120.536 320.992 120.85 321.12 121.298 321.12C121.437 321.12 121.586 321.099 121.746 321.056C121.906 321.013 122.05 320.965 122.178 320.912L122.434 321.904C122.221 321.979 121.986 322.043 121.73 322.096C121.485 322.16 121.24 322.192 120.994 322.192ZM124.753 322V310.608H126.065V313.712L126.017 315.312C126.39 314.96 126.779 314.661 127.185 314.416C127.59 314.16 128.065 314.032 128.609 314.032C129.43 314.032 130.027 314.288 130.401 314.8C130.785 315.312 130.977 316.069 130.977 317.072V322H129.665V317.248C129.665 316.512 129.547 315.984 129.313 315.664C129.078 315.333 128.705 315.168 128.193 315.168C127.787 315.168 127.43 315.269 127.121 315.472C126.811 315.675 126.459 315.973 126.065 316.368V322H124.753ZM137.408 322.192C136.885 322.192 136.394 322.101 135.936 321.92C135.488 321.728 135.093 321.461 134.752 321.12C134.421 320.768 134.16 320.341 133.968 319.84C133.776 319.339 133.68 318.768 133.68 318.128C133.68 317.488 133.776 316.917 133.968 316.416C134.17 315.904 134.432 315.472 134.752 315.12C135.082 314.768 135.456 314.501 135.872 314.32C136.288 314.128 136.72 314.032 137.168 314.032C137.658 314.032 138.096 314.117 138.48 314.288C138.874 314.459 139.2 314.704 139.456 315.024C139.722 315.344 139.925 315.728 140.064 316.176C140.202 316.624 140.272 317.125 140.272 317.68C140.272 317.819 140.266 317.957 140.256 318.096C140.256 318.224 140.245 318.336 140.224 318.432H134.976C135.029 319.264 135.285 319.925 135.744 320.416C136.213 320.896 136.821 321.136 137.568 321.136C137.941 321.136 138.282 321.083 138.592 320.976C138.912 320.859 139.216 320.709 139.504 320.528L139.968 321.392C139.626 321.605 139.248 321.792 138.832 321.952C138.416 322.112 137.941 322.192 137.408 322.192ZM134.96 317.488H139.12C139.12 316.699 138.949 316.101 138.608 315.696C138.277 315.28 137.808 315.072 137.2 315.072C136.922 315.072 136.656 315.125 136.4 315.232C136.154 315.339 135.93 315.499 135.728 315.712C135.525 315.915 135.354 316.165 135.216 316.464C135.088 316.763 135.002 317.104 134.96 317.488ZM146.996 322V314.224H148.084L148.196 315.344H148.244C148.586 314.971 148.954 314.661 149.348 314.416C149.754 314.16 150.191 314.032 150.66 314.032C151.258 314.032 151.722 314.165 152.052 314.432C152.394 314.688 152.644 315.051 152.804 315.52C153.21 315.072 153.615 314.715 154.02 314.448C154.436 314.171 154.884 314.032 155.364 314.032C156.164 314.032 156.756 314.288 157.14 314.8C157.535 315.312 157.732 316.069 157.732 317.072V322H156.42V317.248C156.42 316.512 156.303 315.984 156.068 315.664C155.834 315.333 155.471 315.168 154.98 315.168C154.394 315.168 153.743 315.568 153.028 316.368V322H151.716V317.248C151.716 316.512 151.599 315.984 151.364 315.664C151.13 315.333 150.762 315.168 150.26 315.168C149.674 315.168 149.023 315.568 148.308 316.368V322H146.996ZM164.086 322.192C163.606 322.192 163.147 322.101 162.71 321.92C162.283 321.739 161.905 321.477 161.574 321.136C161.243 320.784 160.977 320.357 160.774 319.856C160.582 319.344 160.486 318.768 160.486 318.128C160.486 317.477 160.582 316.901 160.774 316.4C160.977 315.888 161.243 315.456 161.574 315.104C161.905 314.752 162.283 314.485 162.71 314.304C163.147 314.123 163.606 314.032 164.086 314.032C164.566 314.032 165.019 314.123 165.446 314.304C165.883 314.485 166.267 314.752 166.598 315.104C166.929 315.456 167.19 315.888 167.382 316.4C167.585 316.901 167.686 317.477 167.686 318.128C167.686 318.768 167.585 319.344 167.382 319.856C167.19 320.357 166.929 320.784 166.598 321.136C166.267 321.477 165.883 321.739 165.446 321.92C165.019 322.101 164.566 322.192 164.086 322.192ZM164.086 321.104C164.417 321.104 164.721 321.035 164.998 320.896C165.275 320.747 165.51 320.544 165.702 320.288C165.905 320.021 166.059 319.707 166.166 319.344C166.273 318.981 166.326 318.576 166.326 318.128C166.326 317.68 166.273 317.275 166.166 316.912C166.059 316.539 165.905 316.219 165.702 315.952C165.51 315.685 165.275 315.483 164.998 315.344C164.721 315.195 164.417 315.12 164.086 315.12C163.755 315.12 163.451 315.195 163.174 315.344C162.897 315.483 162.657 315.685 162.454 315.952C162.262 316.219 162.113 316.539 162.006 316.912C161.899 317.275 161.846 317.68 161.846 318.128C161.846 318.576 161.899 318.981 162.006 319.344C162.113 319.707 162.262 320.021 162.454 320.288C162.657 320.544 162.897 320.747 163.174 320.896C163.451 321.035 163.755 321.104 164.086 321.104ZM173.558 322.192C173.078 322.192 172.619 322.101 172.182 321.92C171.755 321.739 171.377 321.477 171.046 321.136C170.715 320.784 170.449 320.357 170.246 319.856C170.054 319.344 169.958 318.768 169.958 318.128C169.958 317.477 170.054 316.901 170.246 316.4C170.449 315.888 170.715 315.456 171.046 315.104C171.377 314.752 171.755 314.485 172.182 314.304C172.619 314.123 173.078 314.032 173.558 314.032C174.038 314.032 174.491 314.123 174.918 314.304C175.355 314.485 175.739 314.752 176.07 315.104C176.401 315.456 176.662 315.888 176.854 316.4C177.057 316.901 177.158 317.477 177.158 318.128C177.158 318.768 177.057 319.344 176.854 319.856C176.662 320.357 176.401 320.784 176.07 321.136C175.739 321.477 175.355 321.739 174.918 321.92C174.491 322.101 174.038 322.192 173.558 322.192ZM173.558 321.104C173.889 321.104 174.193 321.035 174.47 320.896C174.747 320.747 174.982 320.544 175.174 320.288C175.377 320.021 175.531 319.707 175.638 319.344C175.745 318.981 175.798 318.576 175.798 318.128C175.798 317.68 175.745 317.275 175.638 316.912C175.531 316.539 175.377 316.219 175.174 315.952C174.982 315.685 174.747 315.483 174.47 315.344C174.193 315.195 173.889 315.12 173.558 315.12C173.227 315.12 172.923 315.195 172.646 315.344C172.369 315.483 172.129 315.685 171.926 315.952C171.734 316.219 171.585 316.539 171.478 316.912C171.371 317.275 171.318 317.68 171.318 318.128C171.318 318.576 171.371 318.981 171.478 319.344C171.585 319.707 171.734 320.021 171.926 320.288C172.129 320.544 172.369 320.747 172.646 320.896C172.923 321.035 173.227 321.104 173.558 321.104ZM182.662 322.192C181.68 322.192 180.896 321.84 180.31 321.136C179.734 320.432 179.446 319.429 179.446 318.128C179.446 317.499 179.536 316.933 179.718 316.432C179.91 315.92 180.16 315.488 180.47 315.136C180.779 314.784 181.136 314.512 181.542 314.32C181.947 314.128 182.374 314.032 182.822 314.032C183.27 314.032 183.659 314.112 183.99 314.272C184.32 314.432 184.656 314.651 184.998 314.928L184.934 313.6V310.608H186.262V322H185.174L185.062 321.088H185.014C184.704 321.387 184.347 321.648 183.942 321.872C183.547 322.085 183.12 322.192 182.662 322.192ZM182.95 321.088C183.312 321.088 183.654 321.003 183.974 320.832C184.294 320.651 184.614 320.379 184.934 320.016V315.952C184.603 315.653 184.283 315.445 183.974 315.328C183.675 315.2 183.366 315.136 183.046 315.136C182.736 315.136 182.443 315.211 182.166 315.36C181.899 315.499 181.664 315.701 181.462 315.968C181.259 316.224 181.099 316.533 180.982 316.896C180.864 317.259 180.806 317.664 180.806 318.112C180.806 319.051 180.992 319.781 181.366 320.304C181.739 320.827 182.267 321.088 182.95 321.088ZM195.476 322.192C194.825 322.192 194.281 322 193.844 321.616C193.417 321.232 193.204 320.688 193.204 319.984C193.204 319.131 193.583 318.48 194.34 318.032C195.097 317.573 196.308 317.253 197.972 317.072C197.972 316.827 197.945 316.587 197.892 316.352C197.849 316.117 197.769 315.909 197.652 315.728C197.535 315.547 197.369 315.403 197.156 315.296C196.953 315.179 196.692 315.12 196.372 315.12C195.924 315.12 195.503 315.205 195.108 315.376C194.713 315.547 194.361 315.739 194.052 315.952L193.54 315.04C193.903 314.805 194.345 314.581 194.868 314.368C195.391 314.144 195.967 314.032 196.596 314.032C197.545 314.032 198.233 314.325 198.66 314.912C199.087 315.488 199.3 316.261 199.3 317.232V322H198.212L198.1 321.072H198.052C197.679 321.381 197.279 321.648 196.852 321.872C196.425 322.085 195.967 322.192 195.476 322.192ZM195.86 321.136C196.233 321.136 196.585 321.051 196.916 320.88C197.247 320.699 197.599 320.437 197.972 320.096V317.936C197.321 318.021 196.772 318.123 196.324 318.24C195.887 318.357 195.529 318.496 195.252 318.656C194.985 318.816 194.788 319.003 194.66 319.216C194.543 319.419 194.484 319.643 194.484 319.888C194.484 320.336 194.617 320.656 194.884 320.848C195.151 321.04 195.476 321.136 195.86 321.136ZM202.546 322V314.224H203.634L203.746 315.344H203.794C204.168 314.971 204.557 314.661 204.962 314.416C205.378 314.16 205.858 314.032 206.402 314.032C207.224 314.032 207.821 314.288 208.194 314.8C208.578 315.312 208.77 316.069 208.77 317.072V322H207.458V317.248C207.458 316.512 207.341 315.984 207.106 315.664C206.872 315.333 206.498 315.168 205.986 315.168C205.581 315.168 205.224 315.269 204.914 315.472C204.605 315.675 204.253 315.973 203.858 316.368V322H202.546ZM214.752 322.192C213.771 322.192 212.987 321.84 212.4 321.136C211.824 320.432 211.536 319.429 211.536 318.128C211.536 317.499 211.627 316.933 211.808 316.432C212 315.92 212.251 315.488 212.56 315.136C212.87 314.784 213.227 314.512 213.632 314.32C214.038 314.128 214.464 314.032 214.912 314.032C215.36 314.032 215.75 314.112 216.08 314.272C216.411 314.432 216.747 314.651 217.088 314.928L217.024 313.6V310.608H218.352V322H217.264L217.152 321.088H217.104C216.795 321.387 216.438 321.648 216.032 321.872C215.638 322.085 215.211 322.192 214.752 322.192ZM215.04 321.088C215.403 321.088 215.744 321.003 216.064 320.832C216.384 320.651 216.704 320.379 217.024 320.016V315.952C216.694 315.653 216.374 315.445 216.064 315.328C215.766 315.2 215.456 315.136 215.136 315.136C214.827 315.136 214.534 315.211 214.256 315.36C213.99 315.499 213.755 315.701 213.552 315.968C213.35 316.224 213.19 316.533 213.072 316.896C212.955 317.259 212.896 317.664 212.896 318.112C212.896 319.051 213.083 319.781 213.456 320.304C213.83 320.827 214.358 321.088 215.04 321.088ZM227.807 322.192C227.252 322.192 226.724 322.091 226.223 321.888C225.721 321.685 225.284 321.429 224.911 321.12L225.567 320.24C225.908 320.517 226.255 320.741 226.607 320.912C226.969 321.083 227.385 321.168 227.855 321.168C228.367 321.168 228.751 321.051 229.007 320.816C229.263 320.581 229.391 320.293 229.391 319.952C229.391 319.749 229.337 319.573 229.231 319.424C229.124 319.275 228.985 319.147 228.815 319.04C228.655 318.923 228.468 318.821 228.255 318.736C228.041 318.651 227.828 318.565 227.615 318.48C227.337 318.384 227.06 318.277 226.783 318.16C226.505 318.032 226.255 317.883 226.031 317.712C225.817 317.531 225.641 317.323 225.503 317.088C225.364 316.853 225.295 316.571 225.295 316.24C225.295 315.931 225.353 315.643 225.471 315.376C225.599 315.099 225.775 314.864 225.999 314.672C226.233 314.469 226.516 314.315 226.847 314.208C227.177 314.091 227.551 314.032 227.967 314.032C228.457 314.032 228.905 314.117 229.311 314.288C229.727 314.459 230.084 314.667 230.383 314.912L229.759 315.744C229.492 315.541 229.215 315.376 228.927 315.248C228.639 315.12 228.324 315.056 227.983 315.056C227.492 315.056 227.129 315.168 226.895 315.392C226.671 315.616 226.559 315.877 226.559 316.176C226.559 316.357 226.607 316.517 226.703 316.656C226.799 316.784 226.927 316.901 227.087 317.008C227.247 317.104 227.428 317.195 227.631 317.28C227.844 317.355 228.063 317.435 228.287 317.52C228.564 317.627 228.841 317.739 229.119 317.856C229.407 317.973 229.663 318.123 229.887 318.304C230.111 318.475 230.292 318.688 230.431 318.944C230.58 319.2 230.655 319.509 230.655 319.872C230.655 320.192 230.591 320.491 230.463 320.768C230.345 321.045 230.164 321.291 229.919 321.504C229.684 321.717 229.385 321.883 229.023 322C228.671 322.128 228.265 322.192 227.807 322.192ZM235.413 322.192C234.997 322.192 234.645 322.128 234.357 322C234.08 321.872 233.85 321.696 233.669 321.472C233.498 321.248 233.376 320.976 233.301 320.656C233.226 320.336 233.189 319.984 233.189 319.6V315.296H232.037V314.304L233.253 314.224L233.413 312.048H234.517V314.224H236.613V315.296H234.517V319.616C234.517 320.096 234.602 320.469 234.773 320.736C234.954 320.992 235.269 321.12 235.717 321.12C235.856 321.12 236.005 321.099 236.165 321.056C236.325 321.013 236.469 320.965 236.597 320.912L236.853 321.904C236.64 321.979 236.405 322.043 236.149 322.096C235.904 322.16 235.658 322.192 235.413 322.192ZM239.171 322V314.224H240.259L240.371 315.632H240.419C240.686 315.141 241.006 314.752 241.379 314.464C241.763 314.176 242.179 314.032 242.627 314.032C242.937 314.032 243.214 314.085 243.459 314.192L243.203 315.344C243.075 315.301 242.958 315.269 242.851 315.248C242.745 315.227 242.611 315.216 242.451 315.216C242.121 315.216 241.774 315.349 241.411 315.616C241.059 315.883 240.75 316.347 240.483 317.008V322H239.171ZM248.514 322.192C247.991 322.192 247.501 322.101 247.042 321.92C246.594 321.728 246.199 321.461 245.858 321.12C245.527 320.768 245.266 320.341 245.074 319.84C244.882 319.339 244.786 318.768 244.786 318.128C244.786 317.488 244.882 316.917 245.074 316.416C245.277 315.904 245.538 315.472 245.858 315.12C246.189 314.768 246.562 314.501 246.978 314.32C247.394 314.128 247.826 314.032 248.274 314.032C248.765 314.032 249.202 314.117 249.586 314.288C249.981 314.459 250.306 314.704 250.562 315.024C250.829 315.344 251.031 315.728 251.17 316.176C251.309 316.624 251.378 317.125 251.378 317.68C251.378 317.819 251.373 317.957 251.362 318.096C251.362 318.224 251.351 318.336 251.33 318.432H246.082C246.135 319.264 246.391 319.925 246.85 320.416C247.319 320.896 247.927 321.136 248.674 321.136C249.047 321.136 249.389 321.083 249.698 320.976C250.018 320.859 250.322 320.709 250.61 320.528L251.074 321.392C250.733 321.605 250.354 321.792 249.938 321.952C249.522 322.112 249.047 322.192 248.514 322.192ZM246.066 317.488H250.226C250.226 316.699 250.055 316.101 249.714 315.696C249.383 315.28 248.914 315.072 248.306 315.072C248.029 315.072 247.762 315.125 247.506 315.232C247.261 315.339 247.037 315.499 246.834 315.712C246.631 315.915 246.461 316.165 246.322 316.464C246.194 316.763 246.109 317.104 246.066 317.488ZM254.1 322V314.224H255.188L255.3 315.344H255.348C255.721 314.971 256.11 314.661 256.516 314.416C256.932 314.16 257.412 314.032 257.956 314.032C258.777 314.032 259.374 314.288 259.748 314.8C260.132 315.312 260.324 316.069 260.324 317.072V322H259.012V317.248C259.012 316.512 258.894 315.984 258.66 315.664C258.425 315.333 258.052 315.168 257.54 315.168C257.134 315.168 256.777 315.269 256.468 315.472C256.158 315.675 255.806 315.973 255.412 316.368V322H254.1ZM266.274 325.584C265.794 325.584 265.356 325.536 264.962 325.44C264.567 325.355 264.226 325.221 263.938 325.04C263.66 324.859 263.442 324.64 263.282 324.384C263.132 324.128 263.058 323.829 263.058 323.488C263.058 323.157 263.159 322.843 263.362 322.544C263.564 322.245 263.842 321.973 264.194 321.728V321.664C264.002 321.547 263.836 321.387 263.698 321.184C263.57 320.971 263.506 320.709 263.506 320.4C263.506 320.069 263.596 319.781 263.778 319.536C263.959 319.291 264.151 319.099 264.354 318.96V318.896C264.098 318.683 263.863 318.4 263.65 318.048C263.447 317.685 263.346 317.269 263.346 316.8C263.346 316.373 263.42 315.989 263.57 315.648C263.73 315.307 263.943 315.019 264.21 314.784C264.476 314.539 264.786 314.352 265.138 314.224C265.5 314.096 265.879 314.032 266.274 314.032C266.487 314.032 266.684 314.053 266.866 314.096C267.058 314.128 267.228 314.171 267.378 314.224H270.082V315.232H268.482C268.663 315.413 268.812 315.643 268.93 315.92C269.058 316.197 269.122 316.501 269.122 316.832C269.122 317.248 269.047 317.627 268.898 317.968C268.748 318.299 268.546 318.581 268.29 318.816C268.034 319.04 267.73 319.216 267.378 319.344C267.036 319.472 266.668 319.536 266.274 319.536C266.082 319.536 265.884 319.515 265.682 319.472C265.479 319.419 265.287 319.349 265.106 319.264C264.967 319.381 264.85 319.515 264.754 319.664C264.658 319.803 264.61 319.979 264.61 320.192C264.61 320.437 264.706 320.64 264.898 320.8C265.09 320.96 265.452 321.04 265.986 321.04H267.49C268.396 321.04 269.074 321.189 269.522 321.488C269.98 321.776 270.21 322.245 270.21 322.896C270.21 323.259 270.119 323.6 269.938 323.92C269.756 324.251 269.495 324.539 269.154 324.784C268.812 325.029 268.396 325.221 267.906 325.36C267.426 325.509 266.882 325.584 266.274 325.584ZM266.274 318.656C266.498 318.656 266.706 318.613 266.898 318.528C267.1 318.443 267.276 318.32 267.426 318.16C267.586 318 267.708 317.808 267.794 317.584C267.879 317.349 267.922 317.088 267.922 316.8C267.922 316.224 267.762 315.781 267.442 315.472C267.122 315.152 266.732 314.992 266.274 314.992C265.815 314.992 265.426 315.152 265.106 315.472C264.786 315.781 264.626 316.224 264.626 316.8C264.626 317.088 264.668 317.349 264.754 317.584C264.839 317.808 264.956 318 265.106 318.16C265.266 318.32 265.442 318.443 265.634 318.528C265.836 318.613 266.05 318.656 266.274 318.656ZM266.466 324.672C266.839 324.672 267.175 324.624 267.474 324.528C267.783 324.443 268.044 324.325 268.258 324.176C268.471 324.037 268.636 323.872 268.754 323.68C268.871 323.488 268.93 323.291 268.93 323.088C268.93 322.725 268.796 322.475 268.53 322.336C268.263 322.197 267.874 322.128 267.362 322.128H266.018C265.868 322.128 265.703 322.117 265.522 322.096C265.351 322.085 265.18 322.053 265.01 322C264.732 322.203 264.53 322.416 264.402 322.64C264.274 322.864 264.21 323.088 264.21 323.312C264.21 323.728 264.407 324.059 264.802 324.304C265.207 324.549 265.762 324.672 266.466 324.672ZM274.96 322.192C274.544 322.192 274.192 322.128 273.904 322C273.627 321.872 273.397 321.696 273.216 321.472C273.045 321.248 272.923 320.976 272.848 320.656C272.773 320.336 272.736 319.984 272.736 319.6V315.296H271.584V314.304L272.8 314.224L272.96 312.048H274.064V314.224H276.16V315.296H274.064V319.616C274.064 320.096 274.149 320.469 274.32 320.736C274.501 320.992 274.816 321.12 275.264 321.12C275.403 321.12 275.552 321.099 275.712 321.056C275.872 321.013 276.016 320.965 276.144 320.912L276.4 321.904C276.187 321.979 275.952 322.043 275.696 322.096C275.451 322.16 275.205 322.192 274.96 322.192ZM278.718 322V310.608H280.03V313.712L279.982 315.312C280.356 314.96 280.745 314.661 281.15 314.416C281.556 314.16 282.03 314.032 282.574 314.032C283.396 314.032 283.993 314.288 284.366 314.8C284.75 315.312 284.942 316.069 284.942 317.072V322H283.63V317.248C283.63 316.512 283.513 315.984 283.278 315.664C283.044 315.333 282.67 315.168 282.158 315.168C281.753 315.168 281.396 315.269 281.086 315.472C280.777 315.675 280.425 315.973 280.03 316.368V322H278.718ZM291.373 322.192C290.851 322.192 290.36 322.101 289.901 321.92C289.453 321.728 289.059 321.461 288.717 321.12C288.387 320.768 288.125 320.341 287.933 319.84C287.741 319.339 287.645 318.768 287.645 318.128C287.645 317.488 287.741 316.917 287.933 316.416C288.136 315.904 288.397 315.472 288.717 315.12C289.048 314.768 289.421 314.501 289.837 314.32C290.253 314.128 290.685 314.032 291.133 314.032C291.624 314.032 292.061 314.117 292.445 314.288C292.84 314.459 293.165 314.704 293.421 315.024C293.688 315.344 293.891 315.728 294.029 316.176C294.168 316.624 294.237 317.125 294.237 317.68C294.237 317.819 294.232 317.957 294.221 318.096C294.221 318.224 294.211 318.336 294.189 318.432H288.941C288.995 319.264 289.251 319.925 289.709 320.416C290.179 320.896 290.787 321.136 291.533 321.136C291.907 321.136 292.248 321.083 292.557 320.976C292.877 320.859 293.181 320.709 293.469 320.528L293.933 321.392C293.592 321.605 293.213 321.792 292.797 321.952C292.381 322.112 291.907 322.192 291.373 322.192ZM288.925 317.488H293.085C293.085 316.699 292.915 316.101 292.573 315.696C292.243 315.28 291.773 315.072 291.165 315.072C290.888 315.072 290.621 315.125 290.365 315.232C290.12 315.339 289.896 315.499 289.693 315.712C289.491 315.915 289.32 316.165 289.181 316.464C289.053 316.763 288.968 317.104 288.925 317.488ZM296.959 322V314.224H298.047L298.159 315.344H298.207C298.58 314.971 298.97 314.661 299.375 314.416C299.791 314.16 300.271 314.032 300.815 314.032C301.636 314.032 302.234 314.288 302.607 314.8C302.991 315.312 303.183 316.069 303.183 317.072V322H301.871V317.248C301.871 316.512 301.754 315.984 301.519 315.664C301.284 315.333 300.911 315.168 300.399 315.168C299.994 315.168 299.636 315.269 299.327 315.472C299.018 315.675 298.666 315.973 298.271 316.368V322H296.959ZM310.64 325.344C310.459 325.344 310.293 325.328 310.144 325.296C309.995 325.275 309.856 325.237 309.728 325.184L309.984 324.144C310.069 324.165 310.165 324.187 310.272 324.208C310.379 324.24 310.48 324.256 310.576 324.256C311.024 324.256 311.387 324.096 311.664 323.776C311.952 323.467 312.176 323.072 312.336 322.592L312.512 322.016L309.392 314.224H310.752L312.336 318.528C312.453 318.869 312.576 319.232 312.704 319.616C312.843 319.989 312.971 320.357 313.088 320.72H313.152C313.269 320.368 313.381 320 313.488 319.616C313.595 319.232 313.701 318.869 313.808 318.528L315.2 314.224H316.48L313.552 322.64C313.413 323.024 313.259 323.381 313.088 323.712C312.917 324.043 312.715 324.325 312.48 324.56C312.245 324.805 311.979 324.997 311.68 325.136C311.381 325.275 311.035 325.344 310.64 325.344ZM321.742 322.192C321.262 322.192 320.804 322.101 320.366 321.92C319.94 321.739 319.561 321.477 319.23 321.136C318.9 320.784 318.633 320.357 318.43 319.856C318.238 319.344 318.142 318.768 318.142 318.128C318.142 317.477 318.238 316.901 318.43 316.4C318.633 315.888 318.9 315.456 319.23 315.104C319.561 314.752 319.94 314.485 320.366 314.304C320.804 314.123 321.262 314.032 321.742 314.032C322.222 314.032 322.676 314.123 323.102 314.304C323.54 314.485 323.924 314.752 324.254 315.104C324.585 315.456 324.846 315.888 325.038 316.4C325.241 316.901 325.342 317.477 325.342 318.128C325.342 318.768 325.241 319.344 325.038 319.856C324.846 320.357 324.585 320.784 324.254 321.136C323.924 321.477 323.54 321.739 323.102 321.92C322.676 322.101 322.222 322.192 321.742 322.192ZM321.742 321.104C322.073 321.104 322.377 321.035 322.654 320.896C322.932 320.747 323.166 320.544 323.358 320.288C323.561 320.021 323.716 319.707 323.822 319.344C323.929 318.981 323.982 318.576 323.982 318.128C323.982 317.68 323.929 317.275 323.822 316.912C323.716 316.539 323.561 316.219 323.358 315.952C323.166 315.685 322.932 315.483 322.654 315.344C322.377 315.195 322.073 315.12 321.742 315.12C321.412 315.12 321.108 315.195 320.83 315.344C320.553 315.483 320.313 315.685 320.11 315.952C319.918 316.219 319.769 316.539 319.662 316.912C319.556 317.275 319.502 317.68 319.502 318.128C319.502 318.576 319.556 318.981 319.662 319.344C319.769 319.707 319.918 320.021 320.11 320.288C320.313 320.544 320.553 320.747 320.83 320.896C321.108 321.035 321.412 321.104 321.742 321.104ZM330.462 322.192C329.63 322.192 329.022 321.936 328.638 321.424C328.265 320.912 328.078 320.155 328.078 319.152V314.224H329.406V318.976C329.406 319.712 329.518 320.245 329.742 320.576C329.977 320.896 330.35 321.056 330.862 321.056C331.267 321.056 331.625 320.955 331.934 320.752C332.243 320.539 332.585 320.203 332.958 319.744V314.224H334.27V322H333.182L333.07 320.784H333.022C332.659 321.211 332.275 321.552 331.87 321.808C331.475 322.064 331.006 322.192 330.462 322.192ZM337.693 322V314.224H338.781L338.893 315.632H338.941C339.208 315.141 339.528 314.752 339.901 314.464C340.285 314.176 340.701 314.032 341.149 314.032C341.459 314.032 341.736 314.085 341.981 314.192L341.725 315.344C341.597 315.301 341.48 315.269 341.373 315.248C341.267 315.227 341.133 315.216 340.973 315.216C340.643 315.216 340.296 315.349 339.933 315.616C339.581 315.883 339.272 316.347 339.005 317.008V322H337.693ZM89.0553 346.192C88.6393 346.192 88.2873 346.128 87.9993 346C87.722 345.872 87.4926 345.696 87.3113 345.472C87.1406 345.248 87.018 344.976 86.9433 344.656C86.8686 344.336 86.8313 343.984 86.8313 343.6V339.296H85.6793V338.304L86.8953 338.224L87.0553 336.048H88.1593V338.224H90.2553V339.296H88.1593V343.616C88.1593 344.096 88.2446 344.469 88.4153 344.736C88.5966 344.992 88.9113 345.12 89.3593 345.12C89.498 345.12 89.6473 345.099 89.8073 345.056C89.9673 345.013 90.1113 344.965 90.2393 344.912L90.4953 345.904C90.282 345.979 90.0473 346.043 89.7913 346.096C89.546 346.16 89.3006 346.192 89.0553 346.192ZM95.7468 346.192C95.2241 346.192 94.7335 346.101 94.2748 345.92C93.8268 345.728 93.4321 345.461 93.0908 345.12C92.7601 344.768 92.4988 344.341 92.3068 343.84C92.1148 343.339 92.0188 342.768 92.0188 342.128C92.0188 341.488 92.1148 340.917 92.3068 340.416C92.5095 339.904 92.7708 339.472 93.0908 339.12C93.4215 338.768 93.7948 338.501 94.2108 338.32C94.6268 338.128 95.0588 338.032 95.5068 338.032C95.9975 338.032 96.4348 338.117 96.8188 338.288C97.2135 338.459 97.5388 338.704 97.7948 339.024C98.0615 339.344 98.2641 339.728 98.4028 340.176C98.5415 340.624 98.6108 341.125 98.6108 341.68C98.6108 341.819 98.6055 341.957 98.5948 342.096C98.5948 342.224 98.5841 342.336 98.5628 342.432H93.3148C93.3681 343.264 93.6241 343.925 94.0828 344.416C94.5521 344.896 95.1601 345.136 95.9068 345.136C96.2801 345.136 96.6215 345.083 96.9308 344.976C97.2508 344.859 97.5548 344.709 97.8428 344.528L98.3068 345.392C97.9655 345.605 97.5868 345.792 97.1708 345.952C96.7548 346.112 96.2801 346.192 95.7468 346.192ZM93.2988 341.488H97.4588C97.4588 340.699 97.2881 340.101 96.9468 339.696C96.6161 339.28 96.1468 339.072 95.5388 339.072C95.2615 339.072 94.9948 339.125 94.7388 339.232C94.4935 339.339 94.2695 339.499 94.0668 339.712C93.8641 339.915 93.6935 340.165 93.5548 340.464C93.4268 340.763 93.3415 341.104 93.2988 341.488ZM102.906 346.192C102.255 346.192 101.711 346 101.274 345.616C100.847 345.232 100.634 344.688 100.634 343.984C100.634 343.131 101.012 342.48 101.77 342.032C102.527 341.573 103.738 341.253 105.402 341.072C105.402 340.827 105.375 340.587 105.322 340.352C105.279 340.117 105.199 339.909 105.082 339.728C104.964 339.547 104.799 339.403 104.586 339.296C104.383 339.179 104.122 339.12 103.802 339.12C103.354 339.12 102.932 339.205 102.538 339.376C102.143 339.547 101.791 339.739 101.482 339.952L100.97 339.04C101.332 338.805 101.775 338.581 102.298 338.368C102.82 338.144 103.396 338.032 104.026 338.032C104.975 338.032 105.663 338.325 106.09 338.912C106.516 339.488 106.73 340.261 106.73 341.232V346H105.642L105.53 345.072H105.482C105.108 345.381 104.708 345.648 104.282 345.872C103.855 346.085 103.396 346.192 102.906 346.192ZM103.29 345.136C103.663 345.136 104.015 345.051 104.346 344.88C104.676 344.699 105.028 344.437 105.402 344.096V341.936C104.751 342.021 104.202 342.123 103.754 342.24C103.316 342.357 102.959 342.496 102.682 342.656C102.415 342.816 102.218 343.003 102.09 343.216C101.972 343.419 101.914 343.643 101.914 343.888C101.914 344.336 102.047 344.656 102.314 344.848C102.58 345.04 102.906 345.136 103.29 345.136ZM109.976 346V338.224H111.064L111.176 339.344H111.224C111.565 338.971 111.933 338.661 112.328 338.416C112.733 338.16 113.171 338.032 113.64 338.032C114.237 338.032 114.701 338.165 115.032 338.432C115.373 338.688 115.624 339.051 115.784 339.52C116.189 339.072 116.595 338.715 117 338.448C117.416 338.171 117.864 338.032 118.344 338.032C119.144 338.032 119.736 338.288 120.12 338.8C120.515 339.312 120.712 340.069 120.712 341.072V346H119.4V341.248C119.4 340.512 119.283 339.984 119.048 339.664C118.813 339.333 118.451 339.168 117.96 339.168C117.373 339.168 116.723 339.568 116.008 340.368V346H114.696V341.248C114.696 340.512 114.579 339.984 114.344 339.664C114.109 339.333 113.741 339.168 113.24 339.168C112.653 339.168 112.003 339.568 111.288 340.368V346H109.976ZM130.493 346.192C130.077 346.192 129.725 346.128 129.437 346C129.159 345.872 128.93 345.696 128.749 345.472C128.578 345.248 128.455 344.976 128.381 344.656C128.306 344.336 128.269 343.984 128.269 343.6V339.296H127.117V338.304L128.333 338.224L128.493 336.048H129.597V338.224H131.693V339.296H129.597V343.616C129.597 344.096 129.682 344.469 129.853 344.736C130.034 344.992 130.349 345.12 130.797 345.12C130.935 345.12 131.085 345.099 131.245 345.056C131.405 345.013 131.549 344.965 131.677 344.912L131.933 345.904C131.719 345.979 131.485 346.043 131.229 346.096C130.983 346.16 130.738 346.192 130.493 346.192ZM134.251 346V334.608H135.563V337.712L135.515 339.312C135.888 338.96 136.278 338.661 136.683 338.416C137.088 338.16 137.563 338.032 138.107 338.032C138.928 338.032 139.526 338.288 139.899 338.8C140.283 339.312 140.475 340.069 140.475 341.072V346H139.163V341.248C139.163 340.512 139.046 339.984 138.811 339.664C138.576 339.333 138.203 339.168 137.691 339.168C137.286 339.168 136.928 339.269 136.619 339.472C136.31 339.675 135.958 339.973 135.563 340.368V346H134.251ZM143.754 346V338.224H144.842L144.954 339.632H145.002C145.269 339.141 145.589 338.752 145.962 338.464C146.346 338.176 146.762 338.032 147.21 338.032C147.52 338.032 147.797 338.085 148.042 338.192L147.786 339.344C147.658 339.301 147.541 339.269 147.434 339.248C147.328 339.227 147.194 339.216 147.034 339.216C146.704 339.216 146.357 339.349 145.994 339.616C145.642 339.883 145.333 340.347 145.066 341.008V346H143.754ZM152.969 346.192C152.489 346.192 152.03 346.101 151.593 345.92C151.166 345.739 150.787 345.477 150.457 345.136C150.126 344.784 149.859 344.357 149.657 343.856C149.465 343.344 149.369 342.768 149.369 342.128C149.369 341.477 149.465 340.901 149.657 340.4C149.859 339.888 150.126 339.456 150.457 339.104C150.787 338.752 151.166 338.485 151.593 338.304C152.03 338.123 152.489 338.032 152.969 338.032C153.449 338.032 153.902 338.123 154.329 338.304C154.766 338.485 155.15 338.752 155.481 339.104C155.811 339.456 156.073 339.888 156.265 340.4C156.467 340.901 156.569 341.477 156.569 342.128C156.569 342.768 156.467 343.344 156.265 343.856C156.073 344.357 155.811 344.784 155.481 345.136C155.15 345.477 154.766 345.739 154.329 345.92C153.902 346.101 153.449 346.192 152.969 346.192ZM152.969 345.104C153.299 345.104 153.603 345.035 153.881 344.896C154.158 344.747 154.393 344.544 154.585 344.288C154.787 344.021 154.942 343.707 155.049 343.344C155.155 342.981 155.209 342.576 155.209 342.128C155.209 341.68 155.155 341.275 155.049 340.912C154.942 340.539 154.787 340.219 154.585 339.952C154.393 339.685 154.158 339.483 153.881 339.344C153.603 339.195 153.299 339.12 152.969 339.12C152.638 339.12 152.334 339.195 152.057 339.344C151.779 339.483 151.539 339.685 151.337 339.952C151.145 340.219 150.995 340.539 150.889 340.912C150.782 341.275 150.729 341.68 150.729 342.128C150.729 342.576 150.782 342.981 150.889 343.344C150.995 343.707 151.145 344.021 151.337 344.288C151.539 344.544 151.779 344.747 152.057 344.896C152.334 345.035 152.638 345.104 152.969 345.104ZM161.689 346.192C160.857 346.192 160.249 345.936 159.865 345.424C159.491 344.912 159.305 344.155 159.305 343.152V338.224H160.633V342.976C160.633 343.712 160.745 344.245 160.969 344.576C161.203 344.896 161.577 345.056 162.089 345.056C162.494 345.056 162.851 344.955 163.161 344.752C163.47 344.539 163.811 344.203 164.185 343.744V338.224H165.497V346H164.409L164.297 344.784H164.249C163.886 345.211 163.502 345.552 163.097 345.808C162.702 346.064 162.233 346.192 161.689 346.192ZM171.544 349.584C171.064 349.584 170.626 349.536 170.232 349.44C169.837 349.355 169.496 349.221 169.208 349.04C168.93 348.859 168.712 348.64 168.552 348.384C168.402 348.128 168.328 347.829 168.328 347.488C168.328 347.157 168.429 346.843 168.632 346.544C168.834 346.245 169.112 345.973 169.464 345.728V345.664C169.272 345.547 169.106 345.387 168.968 345.184C168.84 344.971 168.776 344.709 168.776 344.4C168.776 344.069 168.866 343.781 169.048 343.536C169.229 343.291 169.421 343.099 169.624 342.96V342.896C169.368 342.683 169.133 342.4 168.92 342.048C168.717 341.685 168.616 341.269 168.616 340.8C168.616 340.373 168.69 339.989 168.84 339.648C169 339.307 169.213 339.019 169.48 338.784C169.746 338.539 170.056 338.352 170.408 338.224C170.77 338.096 171.149 338.032 171.544 338.032C171.757 338.032 171.954 338.053 172.136 338.096C172.328 338.128 172.498 338.171 172.648 338.224H175.352V339.232H173.752C173.933 339.413 174.082 339.643 174.2 339.92C174.328 340.197 174.392 340.501 174.392 340.832C174.392 341.248 174.317 341.627 174.168 341.968C174.018 342.299 173.816 342.581 173.56 342.816C173.304 343.04 173 343.216 172.648 343.344C172.306 343.472 171.938 343.536 171.544 343.536C171.352 343.536 171.154 343.515 170.952 343.472C170.749 343.419 170.557 343.349 170.376 343.264C170.237 343.381 170.12 343.515 170.024 343.664C169.928 343.803 169.88 343.979 169.88 344.192C169.88 344.437 169.976 344.64 170.168 344.8C170.36 344.96 170.722 345.04 171.256 345.04H172.76C173.666 345.04 174.344 345.189 174.792 345.488C175.25 345.776 175.48 346.245 175.48 346.896C175.48 347.259 175.389 347.6 175.208 347.92C175.026 348.251 174.765 348.539 174.424 348.784C174.082 349.029 173.666 349.221 173.176 349.36C172.696 349.509 172.152 349.584 171.544 349.584ZM171.544 342.656C171.768 342.656 171.976 342.613 172.168 342.528C172.37 342.443 172.546 342.32 172.696 342.16C172.856 342 172.978 341.808 173.064 341.584C173.149 341.349 173.192 341.088 173.192 340.8C173.192 340.224 173.032 339.781 172.712 339.472C172.392 339.152 172.002 338.992 171.544 338.992C171.085 338.992 170.696 339.152 170.376 339.472C170.056 339.781 169.896 340.224 169.896 340.8C169.896 341.088 169.938 341.349 170.024 341.584C170.109 341.808 170.226 342 170.376 342.16C170.536 342.32 170.712 342.443 170.904 342.528C171.106 342.613 171.32 342.656 171.544 342.656ZM171.736 348.672C172.109 348.672 172.445 348.624 172.744 348.528C173.053 348.443 173.314 348.325 173.528 348.176C173.741 348.037 173.906 347.872 174.024 347.68C174.141 347.488 174.2 347.291 174.2 347.088C174.2 346.725 174.066 346.475 173.8 346.336C173.533 346.197 173.144 346.128 172.632 346.128H171.288C171.138 346.128 170.973 346.117 170.792 346.096C170.621 346.085 170.45 346.053 170.28 346C170.002 346.203 169.8 346.416 169.672 346.64C169.544 346.864 169.48 347.088 169.48 347.312C169.48 347.728 169.677 348.059 170.072 348.304C170.477 348.549 171.032 348.672 171.736 348.672ZM177.782 346V334.608H179.094V337.712L179.046 339.312C179.42 338.96 179.809 338.661 180.214 338.416C180.62 338.16 181.094 338.032 181.638 338.032C182.46 338.032 183.057 338.288 183.43 338.8C183.814 339.312 184.006 340.069 184.006 341.072V346H182.694V341.248C182.694 340.512 182.577 339.984 182.342 339.664C182.108 339.333 181.734 339.168 181.222 339.168C180.817 339.168 180.46 339.269 180.15 339.472C179.841 339.675 179.489 339.973 179.094 340.368V346H177.782ZM192.969 346L190.169 338.224H191.529L193.001 342.64C193.118 343.024 193.235 343.408 193.353 343.792C193.481 344.176 193.603 344.555 193.721 344.928H193.785C193.902 344.555 194.019 344.176 194.137 343.792C194.254 343.408 194.371 343.024 194.489 342.64L195.961 338.224H197.257L194.505 346H192.969ZM199.557 346V338.224H200.869V346H199.557ZM200.229 336.624C199.973 336.624 199.755 336.544 199.573 336.384C199.403 336.224 199.317 336.021 199.317 335.776C199.317 335.52 199.403 335.317 199.573 335.168C199.755 335.008 199.973 334.928 200.229 334.928C200.485 334.928 200.699 335.008 200.869 335.168C201.051 335.317 201.141 335.52 201.141 335.776C201.141 336.021 201.051 336.224 200.869 336.384C200.699 336.544 200.485 336.624 200.229 336.624ZM204.295 346V338.224H205.383L205.495 339.632H205.543C205.809 339.141 206.129 338.752 206.503 338.464C206.887 338.176 207.303 338.032 207.751 338.032C208.06 338.032 208.337 338.085 208.583 338.192L208.327 339.344C208.199 339.301 208.081 339.269 207.975 339.248C207.868 339.227 207.735 339.216 207.575 339.216C207.244 339.216 206.897 339.349 206.535 339.616C206.183 339.883 205.873 340.347 205.607 341.008V346H204.295ZM213.09 346.192C212.674 346.192 212.322 346.128 212.034 346C211.756 345.872 211.527 345.696 211.346 345.472C211.175 345.248 211.052 344.976 210.978 344.656C210.903 344.336 210.866 343.984 210.866 343.6V339.296H209.714V338.304L210.93 338.224L211.09 336.048H212.194V338.224H214.29V339.296H212.194V343.616C212.194 344.096 212.279 344.469 212.45 344.736C212.631 344.992 212.946 345.12 213.394 345.12C213.532 345.12 213.682 345.099 213.842 345.056C214.002 345.013 214.146 344.965 214.274 344.912L214.53 345.904C214.316 345.979 214.082 346.043 213.826 346.096C213.58 346.16 213.335 346.192 213.09 346.192ZM219.12 346.192C218.288 346.192 217.68 345.936 217.296 345.424C216.923 344.912 216.736 344.155 216.736 343.152V338.224H218.064V342.976C218.064 343.712 218.176 344.245 218.4 344.576C218.635 344.896 219.008 345.056 219.52 345.056C219.925 345.056 220.283 344.955 220.592 344.752C220.901 344.539 221.243 344.203 221.616 343.744V338.224H222.928V346H221.84L221.728 344.784H221.68C221.317 345.211 220.933 345.552 220.528 345.808C220.133 346.064 219.664 346.192 219.12 346.192ZM228.143 346.192C227.492 346.192 226.948 346 226.511 345.616C226.084 345.232 225.871 344.688 225.871 343.984C225.871 343.131 226.25 342.48 227.007 342.032C227.764 341.573 228.975 341.253 230.639 341.072C230.639 340.827 230.612 340.587 230.559 340.352C230.516 340.117 230.436 339.909 230.319 339.728C230.202 339.547 230.036 339.403 229.823 339.296C229.62 339.179 229.359 339.12 229.039 339.12C228.591 339.12 228.17 339.205 227.775 339.376C227.38 339.547 227.028 339.739 226.719 339.952L226.207 339.04C226.57 338.805 227.012 338.581 227.535 338.368C228.058 338.144 228.634 338.032 229.263 338.032C230.212 338.032 230.9 338.325 231.327 338.912C231.754 339.488 231.967 340.261 231.967 341.232V346H230.879L230.767 345.072H230.719C230.346 345.381 229.946 345.648 229.519 345.872C229.092 346.085 228.634 346.192 228.143 346.192ZM228.527 345.136C228.9 345.136 229.252 345.051 229.583 344.88C229.914 344.699 230.266 344.437 230.639 344.096V341.936C229.988 342.021 229.439 342.123 228.991 342.24C228.554 342.357 228.196 342.496 227.919 342.656C227.652 342.816 227.455 343.003 227.327 343.216C227.21 343.419 227.151 343.643 227.151 343.888C227.151 344.336 227.284 344.656 227.551 344.848C227.818 345.04 228.143 345.136 228.527 345.136ZM236.606 346.192C236.104 346.192 235.747 346.043 235.534 345.744C235.32 345.445 235.214 345.008 235.214 344.432V334.608H236.526V344.528C236.526 344.741 236.563 344.891 236.638 344.976C236.712 345.061 236.798 345.104 236.894 345.104C236.936 345.104 236.974 345.104 237.006 345.104C237.048 345.104 237.107 345.093 237.182 345.072L237.358 346.064C237.272 346.107 237.171 346.139 237.054 346.16C236.936 346.181 236.787 346.192 236.606 346.192ZM245.887 346.192C245.236 346.192 244.692 346 244.255 345.616C243.828 345.232 243.615 344.688 243.615 343.984C243.615 343.131 243.993 342.48 244.751 342.032C245.508 341.573 246.719 341.253 248.383 341.072C248.383 340.827 248.356 340.587 248.303 340.352C248.26 340.117 248.18 339.909 248.063 339.728C247.945 339.547 247.78 339.403 247.567 339.296C247.364 339.179 247.103 339.12 246.783 339.12C246.335 339.12 245.913 339.205 245.519 339.376C245.124 339.547 244.772 339.739 244.463 339.952L243.951 339.04C244.313 338.805 244.756 338.581 245.279 338.368C245.801 338.144 246.377 338.032 247.007 338.032C247.956 338.032 248.644 338.325 249.071 338.912C249.497 339.488 249.711 340.261 249.711 341.232V346H248.623L248.511 345.072H248.463C248.089 345.381 247.689 345.648 247.263 345.872C246.836 346.085 246.377 346.192 245.887 346.192ZM246.271 345.136C246.644 345.136 246.996 345.051 247.327 344.88C247.657 344.699 248.009 344.437 248.383 344.096V341.936C247.732 342.021 247.183 342.123 246.735 342.24C246.297 342.357 245.94 342.496 245.663 342.656C245.396 342.816 245.199 343.003 245.071 343.216C244.953 343.419 244.895 343.643 244.895 343.888C244.895 344.336 245.028 344.656 245.295 344.848C245.561 345.04 245.887 345.136 246.271 345.136ZM256.029 346.192C255.517 346.192 255.037 346.101 254.589 345.92C254.141 345.739 253.752 345.477 253.421 345.136C253.101 344.784 252.845 344.357 252.653 343.856C252.472 343.344 252.381 342.768 252.381 342.128C252.381 341.477 252.483 340.901 252.685 340.4C252.888 339.888 253.16 339.456 253.501 339.104C253.843 338.752 254.237 338.485 254.685 338.304C255.144 338.123 255.624 338.032 256.125 338.032C256.637 338.032 257.075 338.123 257.437 338.304C257.8 338.485 258.12 338.699 258.397 338.944L257.725 339.808C257.501 339.605 257.261 339.44 257.005 339.312C256.76 339.184 256.483 339.12 256.173 339.12C255.821 339.12 255.496 339.195 255.197 339.344C254.899 339.483 254.643 339.685 254.429 339.952C254.216 340.219 254.045 340.539 253.917 340.912C253.8 341.275 253.741 341.68 253.741 342.128C253.741 342.576 253.8 342.981 253.917 343.344C254.035 343.707 254.195 344.021 254.397 344.288C254.611 344.544 254.867 344.747 255.165 344.896C255.464 345.035 255.789 345.104 256.141 345.104C256.504 345.104 256.835 345.029 257.133 344.88C257.443 344.72 257.72 344.533 257.965 344.32L258.541 345.2C258.189 345.509 257.8 345.755 257.373 345.936C256.947 346.107 256.499 346.192 256.029 346.192ZM263.346 346.192C262.93 346.192 262.578 346.128 262.29 346C262.013 345.872 261.783 345.696 261.602 345.472C261.431 345.248 261.309 344.976 261.234 344.656C261.159 344.336 261.122 343.984 261.122 343.6V339.296H259.97V338.304L261.186 338.224L261.346 336.048H262.45V338.224H264.546V339.296H262.45V343.616C262.45 344.096 262.535 344.469 262.706 344.736C262.887 344.992 263.202 345.12 263.65 345.12C263.789 345.12 263.938 345.099 264.098 345.056C264.258 345.013 264.402 344.965 264.53 344.912L264.786 345.904C264.573 345.979 264.338 346.043 264.082 346.096C263.837 346.16 263.591 346.192 263.346 346.192ZM267.104 346V338.224H268.416V346H267.104ZM267.776 336.624C267.52 336.624 267.302 336.544 267.12 336.384C266.95 336.224 266.864 336.021 266.864 335.776C266.864 335.52 266.95 335.317 267.12 335.168C267.302 335.008 267.52 334.928 267.776 334.928C268.032 334.928 268.246 335.008 268.416 335.168C268.598 335.317 268.688 335.52 268.688 335.776C268.688 336.021 268.598 336.224 268.416 336.384C268.246 336.544 268.032 336.624 267.776 336.624ZM273.522 346L270.722 338.224H272.082L273.554 342.64C273.671 343.024 273.788 343.408 273.906 343.792C274.034 344.176 274.156 344.555 274.274 344.928H274.338C274.455 344.555 274.572 344.176 274.69 343.792C274.807 343.408 274.924 343.024 275.042 342.64L276.514 338.224H277.81L275.058 346H273.522ZM280.11 346V338.224H281.422V346H280.11ZM280.782 336.624C280.526 336.624 280.308 336.544 280.126 336.384C279.956 336.224 279.87 336.021 279.87 335.776C279.87 335.52 279.956 335.317 280.126 335.168C280.308 335.008 280.526 334.928 280.782 334.928C281.038 334.928 281.252 335.008 281.422 335.168C281.604 335.317 281.694 335.52 281.694 335.776C281.694 336.021 281.604 336.224 281.422 336.384C281.252 336.544 281.038 336.624 280.782 336.624ZM287.296 346.192C286.88 346.192 286.528 346.128 286.24 346C285.963 345.872 285.733 345.696 285.552 345.472C285.381 345.248 285.259 344.976 285.184 344.656C285.109 344.336 285.072 343.984 285.072 343.6V339.296H283.92V338.304L285.136 338.224L285.296 336.048H286.4V338.224H288.496V339.296H286.4V343.616C286.4 344.096 286.485 344.469 286.656 344.736C286.837 344.992 287.152 345.12 287.6 345.12C287.739 345.12 287.888 345.099 288.048 345.056C288.208 345.013 288.352 344.965 288.48 344.912L288.736 345.904C288.523 345.979 288.288 346.043 288.032 346.096C287.787 346.16 287.541 346.192 287.296 346.192ZM291.054 346V338.224H292.366V346H291.054ZM291.726 336.624C291.47 336.624 291.252 336.544 291.07 336.384C290.9 336.224 290.814 336.021 290.814 335.776C290.814 335.52 290.9 335.317 291.07 335.168C291.252 335.008 291.47 334.928 291.726 334.928C291.982 334.928 292.196 335.008 292.366 335.168C292.548 335.317 292.638 335.52 292.638 335.776C292.638 336.021 292.548 336.224 292.366 336.384C292.196 336.544 291.982 336.624 291.726 336.624ZM298.944 346.192C298.421 346.192 297.93 346.101 297.472 345.92C297.024 345.728 296.629 345.461 296.288 345.12C295.957 344.768 295.696 344.341 295.504 343.84C295.312 343.339 295.216 342.768 295.216 342.128C295.216 341.488 295.312 340.917 295.504 340.416C295.706 339.904 295.968 339.472 296.288 339.12C296.618 338.768 296.992 338.501 297.408 338.32C297.824 338.128 298.256 338.032 298.704 338.032C299.194 338.032 299.632 338.117 300.016 338.288C300.41 338.459 300.736 338.704 300.992 339.024C301.258 339.344 301.461 339.728 301.6 340.176C301.738 340.624 301.808 341.125 301.808 341.68C301.808 341.819 301.802 341.957 301.792 342.096C301.792 342.224 301.781 342.336 301.76 342.432H296.512C296.565 343.264 296.821 343.925 297.28 344.416C297.749 344.896 298.357 345.136 299.104 345.136C299.477 345.136 299.818 345.083 300.128 344.976C300.448 344.859 300.752 344.709 301.04 344.528L301.504 345.392C301.162 345.605 300.784 345.792 300.368 345.952C299.952 346.112 299.477 346.192 298.944 346.192ZM296.496 341.488H300.656C300.656 340.699 300.485 340.101 300.144 339.696C299.813 339.28 299.344 339.072 298.736 339.072C298.458 339.072 298.192 339.125 297.936 339.232C297.69 339.339 297.466 339.499 297.264 339.712C297.061 339.915 296.89 340.165 296.752 340.464C296.624 340.763 296.538 341.104 296.496 341.488ZM306.561 346.192C306.007 346.192 305.479 346.091 304.977 345.888C304.476 345.685 304.039 345.429 303.665 345.12L304.321 344.24C304.663 344.517 305.009 344.741 305.361 344.912C305.724 345.083 306.14 345.168 306.609 345.168C307.121 345.168 307.505 345.051 307.761 344.816C308.017 344.581 308.145 344.293 308.145 343.952C308.145 343.749 308.092 343.573 307.985 343.424C307.879 343.275 307.74 343.147 307.569 343.04C307.409 342.923 307.223 342.821 307.009 342.736C306.796 342.651 306.583 342.565 306.369 342.48C306.092 342.384 305.815 342.277 305.537 342.16C305.26 342.032 305.009 341.883 304.785 341.712C304.572 341.531 304.396 341.323 304.257 341.088C304.119 340.853 304.049 340.571 304.049 340.24C304.049 339.931 304.108 339.643 304.225 339.376C304.353 339.099 304.529 338.864 304.753 338.672C304.988 338.469 305.271 338.315 305.601 338.208C305.932 338.091 306.305 338.032 306.721 338.032C307.212 338.032 307.66 338.117 308.065 338.288C308.481 338.459 308.839 338.667 309.137 338.912L308.513 339.744C308.247 339.541 307.969 339.376 307.681 339.248C307.393 339.12 307.079 339.056 306.737 339.056C306.247 339.056 305.884 339.168 305.649 339.392C305.425 339.616 305.313 339.877 305.313 340.176C305.313 340.357 305.361 340.517 305.457 340.656C305.553 340.784 305.681 340.901 305.841 341.008C306.001 341.104 306.183 341.195 306.385 341.28C306.599 341.355 306.817 341.435 307.041 341.52C307.319 341.627 307.596 341.739 307.873 341.856C308.161 341.973 308.417 342.123 308.641 342.304C308.865 342.475 309.047 342.688 309.185 342.944C309.335 343.2 309.409 343.509 309.409 343.872C309.409 344.192 309.345 344.491 309.217 344.768C309.1 345.045 308.919 345.291 308.673 345.504C308.439 345.717 308.14 345.883 307.777 346C307.425 346.128 307.02 346.192 306.561 346.192ZM312.72 346.192C312.454 346.192 312.224 346.101 312.032 345.92C311.851 345.728 311.76 345.488 311.76 345.2C311.76 344.891 311.851 344.645 312.032 344.464C312.224 344.272 312.454 344.176 312.72 344.176C312.976 344.176 313.195 344.272 313.376 344.464C313.568 344.645 313.664 344.891 313.664 345.2C313.664 345.488 313.568 345.728 313.376 345.92C313.195 346.101 312.976 346.192 312.72 346.192Z" fill="#717171"/>
<path d="M400 55V24C400 10.7452 389.255 0 376 0H363.896H327.793H312.576H275.969H257.571H220.775H147.184H24.001C10.7461 0 0.000976562 10.7452 0.000976562 24V27.5V55H400Z" fill="#23B5AF"/>
<ellipse cx="30.5" cy="27.4999" rx="6.5" ry="6.58776" fill="#EC9D89"/>
<ellipse cx="53.2644" cy="26.844" rx="5.85288" ry="5.9319" fill="#EDBA4B"/>
<ellipse cx="76.6762" cy="26.844" rx="5.85288" ry="5.9319" fill="#A9DED9"/>
<path d="M265.285 151.823C266.786 148.452 267.599 144.404 267.322 142.355L278.158 144.686C276.212 150.807 276.121 154.154 276.121 154.154C271.365 155.198 268.234 154.495 265.285 151.823Z" fill="#88D2EE" stroke="#88D2EE" stroke-width="3" stroke-linecap="square" stroke-linejoin="round"/>
<path d="M245.862 110.214C247.641 92.9751 263.057 80.4416 280.296 82.22V82.22C297.536 83.9983 310.069 99.415 308.291 116.654L306.001 138.851C305.914 139.694 305.16 140.307 304.318 140.22L244.941 134.095C244.098 134.008 243.486 133.254 243.572 132.411L245.862 110.214Z" fill="url(#paint0_linear)"/>
<circle cx="276.461" cy="117.366" r="28.2419" transform="rotate(5.88959 276.461 117.366)" fill="#88D2EE"/>
<circle cx="276.461" cy="117.366" r="28.2419" transform="rotate(5.88959 276.461 117.366)" fill="url(#paint1_linear)"/>
<mask id="path-11-inside-1" fill="white">
<ellipse cx="266.179" cy="118.328" rx="2.30119" ry="2.092" transform="rotate(6.1467 266.179 118.328)"/>
</mask>
<ellipse cx="266.179" cy="118.328" rx="2.30119" ry="2.092" transform="rotate(6.1467 266.179 118.328)" fill="#23B5AF"/>
<path d="M265.485 118.253C265.522 117.907 265.71 117.667 265.87 117.55C266.025 117.437 266.174 117.415 266.277 117.426L265.634 123.391C268.271 123.675 271.121 121.953 271.45 118.896L265.485 118.253ZM266.277 117.426C266.379 117.437 266.52 117.491 266.647 117.634C266.778 117.782 266.911 118.056 266.874 118.403L260.909 117.761C260.579 120.818 262.997 123.107 265.634 123.391L266.277 117.426ZM266.874 118.403C266.837 118.75 266.648 118.99 266.489 119.106C266.334 119.219 266.185 119.242 266.082 119.231L266.725 113.266C264.087 112.982 261.238 114.703 260.909 117.761L266.874 118.403ZM266.082 119.231C265.98 119.22 265.838 119.166 265.711 119.023C265.58 118.875 265.447 118.6 265.485 118.253L271.45 118.896C271.779 115.839 269.362 113.55 266.725 113.266L266.082 119.231Z" fill="#23B5AF" mask="url(#path-11-inside-1)"/>
<circle cx="292.819" cy="119.093" r="1.5" transform="rotate(6.1467 292.819 119.093)" fill="#23B5AF" stroke="#23B5AF" stroke-width="1.18399"/>
<path d="M282.211 126.788C283.314 126.64 284.436 126.987 285.549 126.809C286.067 126.726 285.369 125.984 285.267 125.747C283.843 122.427 282.668 118.991 282.27 115.442" stroke="#23B5AF" stroke-width="3" stroke-linecap="round" stroke-linejoin="round"/>
<path d="M269.261 134.65C270.446 136.396 271.675 137.74 273.911 138.066C275.692 138.326 277.017 138.513 278.614 137.669" stroke="#23B5AF" stroke-width="3" stroke-linecap="round" stroke-linejoin="round"/>
<path d="M248.809 119.338C249.759 124.575 247.674 127.147 244.636 128.226C242.559 128.964 240.786 123.193 241.891 121.287C243.363 118.749 244.767 115.355 245.868 110.873C249.717 95.2013 272.289 82.7088 290.919 92.7695C292.136 93.427 292.21 95.1345 291.252 96.1332C287.294 100.263 283.655 106.84 278.91 109.207C275.565 110.876 269.617 108.626 268.378 107.069C266.008 104.09 258.8 103.297 253.999 106.217C250.44 108.381 247.774 113.633 248.809 119.338Z" fill="url(#paint2_linear)"/>
<path d="M184.982 224.588C187.881 219.757 187.559 211.848 187.035 208.497L201.815 210.383C198.104 221.573 200.097 223.847 199.761 226.474C193.489 227.947 190.255 227.523 184.982 224.588Z" fill="#FAE0A1" stroke="#FAE0A1" stroke-width="3" stroke-linecap="round" stroke-linejoin="round"/>
<path d="M225.191 187.076C225.191 210.131 214.072 218.323 195.717 218.323C177.363 218.323 167.61 207.734 164.584 187.076C164.584 168.093 177.363 149.578 195.717 149.578C214.072 149.578 225.191 170.177 225.191 187.076Z" fill="#FAE0A1"/>
<path d="M225.191 187.076C225.191 210.131 214.072 218.323 195.717 218.323C177.363 218.323 167.61 207.734 164.584 187.076C164.584 168.093 177.363 149.578 195.717 149.578C214.072 149.578 225.191 170.177 225.191 187.076Z" fill="url(#paint3_linear)"/>
<path d="M187.439 185.563C187.331 186.563 186.353 187.277 185.253 187.159C184.153 187.041 182.759 186.053 182.867 185.054C182.975 184.054 184.539 183.124 185.639 183.242C186.738 183.36 187.547 184.564 187.439 185.563Z" fill="#23B5AF"/>
<path d="M212.809 186.195C212.683 187.372 211.347 187.884 210.17 187.757C208.993 187.631 208.142 186.574 208.269 185.397C208.395 184.221 209.452 183.369 210.629 183.496C211.805 183.623 212.936 185.018 212.809 186.195Z" fill="#23B5AF"/>
<path d="M200.062 206.935C198.226 208.071 196.516 208.814 194.29 208.186C192.516 207.686 191.201 207.307 190.06 205.851" stroke="#23B5AF" stroke-width="3" stroke-linecap="round" stroke-linejoin="round"/>
<path d="M172.663 158.631C175.666 155.131 180.488 149.357 189.768 147.632C191.07 147.39 192.541 147.579 193.863 147.579C201.357 147.579 209.845 148.556 216.015 153.473C217.926 154.996 220.95 156.926 224.292 167.028C225.664 170.861 226.136 173.577 226.349 175.43C226.514 176.864 225.115 178.461 223.671 178.461H222.827H205.096C203.693 178.461 201.776 178.855 200.412 178.448C199.861 178.283 199.759 176.8 199.661 176.365C198.888 172.954 197.836 169.683 196.681 166.36C196.461 165.728 195.361 173.416 194.89 176.624C194.769 177.449 194.129 177.996 193.295 178.017C188.198 178.148 176.026 178.672 172.663 179.063C170.401 179.326 168.128 179.55 165.851 179.626C164.697 179.665 163.568 178.406 163.812 177.277L163.85 177.102C164.638 173.461 165.558 169.209 166.978 166.334C168.517 163.218 170.474 161.181 172.663 158.631Z" fill="url(#paint4_linear)"/>
<path d="M198.872 183.476C198.872 185.523 198.519 188.018 199.25 189.983C199.611 190.951 200.14 191.835 200.619 192.741C200.953 193.371 201.853 194.333 201.814 195.059C201.788 195.561 197.398 195.795 196.666 195.795" stroke="#23B5AF" stroke-width="3" stroke-linecap="round" stroke-linejoin="round"/>
<path d="M122.322 163.345V154.955L132.95 152.173C133.149 156.902 135.36 158.331 136.44 158.454C134.196 165.843 126.426 165.122 122.322 163.345Z" fill="#88D2EE" stroke="#88D2EE" stroke-width="3" stroke-linecap="round" stroke-linejoin="round"/>
<path d="M149.676 129.482C149.676 146.676 140.015 156.585 123.021 156.585C106.027 156.585 95.8516 146.676 95.8516 129.482C95.8516 112.287 106.027 98.3486 123.021 98.3486C140.015 98.3486 149.676 112.287 149.676 129.482Z" fill="url(#paint5_linear)"/>
<mask id="path-26-inside-2" fill="white">
<ellipse cx="113.939" cy="127.467" rx="2.20591" ry="1.76473"/>
</mask>
<ellipse cx="113.939" cy="127.467" rx="2.20591" ry="1.76473" fill="#23B5AF"/>
<path d="M113.145 127.467C113.145 126.88 113.451 126.512 113.625 126.373C113.794 126.238 113.915 126.232 113.939 126.232V132.232C116.155 132.232 119.145 130.689 119.145 127.467H113.145ZM113.939 126.232C113.964 126.232 114.085 126.238 114.254 126.373C114.428 126.512 114.733 126.88 114.733 127.467H108.733C108.733 130.689 111.724 132.232 113.939 132.232V126.232ZM114.733 127.467C114.733 128.055 114.428 128.423 114.254 128.562C114.085 128.697 113.964 128.703 113.939 128.703V122.703C111.724 122.703 108.733 124.246 108.733 127.467H114.733ZM113.939 128.703C113.915 128.703 113.794 128.697 113.625 128.562C113.451 128.423 113.145 128.055 113.145 127.467H119.145C119.145 124.246 116.155 122.703 113.939 122.703V128.703Z" fill="#23B5AF" mask="url(#path-26-inside-2)"/>
<circle cx="139.087" cy="125.703" r="1.5" fill="#23B5AF" stroke="#23B5AF" stroke-width="0.529463"/>
<path d="M130.036 133.644C131.473 133.332 133.005 133.597 134.45 133.249C135.122 133.088 134.094 132.31 133.926 132.047C131.572 128.355 129.53 124.495 128.499 120.408" stroke="#23B5AF" stroke-width="3" stroke-linecap="round" stroke-linejoin="round"/>
<path d="M118.793 142.467C120.045 143.92 121.297 145.009 123.368 145.086C125.017 145.148 126.243 145.187 127.616 144.274" stroke="#23B5AF" stroke-width="3" stroke-linecap="round" stroke-linejoin="round"/>
<path d="M96.1907 108.469C98.5373 103.229 102.31 100.674 107.371 98.6213C107.474 98.5795 107.57 98.5314 107.665 98.4743C114.096 94.6282 130.171 90.6914 144.216 105.158C146.45 107.459 149.1 111.621 152.669 115.623C153.898 117.001 152.955 119.371 151.11 119.303C144.719 119.071 138.801 118.202 132.698 115.176C130.609 114.14 128.403 113.118 126.475 111.793C125.63 111.212 124.71 110.237 123.667 109.811C123.072 109.568 122.445 109.919 122.062 110.436C112.781 122.987 107.66 122.296 103.6 125.483C99.8447 128.43 95.57 131.338 90.7639 131.663C89.5598 131.744 88.7919 130.594 89.247 129.476C90.6006 126.151 93.3532 120.167 96.0756 108.81C96.1033 108.694 96.142 108.577 96.1907 108.469Z" fill="url(#paint6_linear)"/>
<path fill-rule="evenodd" clip-rule="evenodd" d="M348.403 40.9001H344.476V36H340.945V40.9001H338.529V43.7001H335.555V46.3252H332.768V54.0253H327.75V56.6503H332.768V61.7254H338.529V66.8005H344.476V61.7254H348.403H348.75H352.748V66.8005H358.794V61.7254H364.651V56.6503H369.753V54.0253H364.651V46.3252H361.817V43.7001H358.794V40.9001H356.338V36H352.748V40.9001H348.75H348.403Z" fill="#A9DED9"/>
<rect x="368.7" y="43.7002" width="2.80004" height="10.5002" fill="#A9DED9"/>
<rect x="326" y="43.7002" width="2.80004" height="10.5002" fill="#A9DED9"/>
<rect x="341.638" y="49.4043" width="2.97876" height="6.7022" fill="#FCFFFF"/>
<rect x="354.298" y="49.4043" width="2.97876" height="6.7022" fill="#FCFFFF"/>
<path fill-rule="evenodd" clip-rule="evenodd" d="M332.777 38.6265H329.723V38.627V41.6816V44.3538H332.777V41.6816H335.45V38.627L332.777 38.627V38.6265Z" fill="#A9DED9"/>
<path fill-rule="evenodd" clip-rule="evenodd" d="M364.128 38.4062H367.302V38.4065V41.5799V44.3563H364.128V41.5799H361.351V38.4065L364.128 38.4065V38.4062Z" fill="#A9DED9"/>
<rect x="334.4" y="66.7998" width="4.20006" height="4.20006" fill="#A9DED9"/>
<rect x="358.766" y="66.7998" width="4.20006" height="4.20006" fill="#A9DED9"/>
<path fill-rule="evenodd" clip-rule="evenodd" d="M342.749 254.165L347.419 256.861L350.459 251.596L354.317 253.823L351.277 259.088L353.916 260.612L352.179 263.621L355.428 265.497L353.799 268.318L356.845 270.076L352.067 278.351L357.549 281.516L355.921 284.337L350.439 281.171L347.29 286.625L340.996 282.991L337.847 288.445L331.35 284.694L334.499 279.24L330.202 276.76L330.202 276.76L325.609 274.108L322.46 279.561L316.07 275.872L319.218 270.418L313.027 266.844L316.176 261.39L310.784 258.277L312.412 255.456L317.805 258.569L322.582 250.295L325.578 252.024L327.206 249.203L330.401 251.048L332.139 248.039L334.735 249.538L337.775 244.272L341.569 246.463L338.529 251.729L342.749 254.165L342.749 254.165Z" fill="#A9DED9"/>
<rect x="362.822" y="269.768" width="3.47441" height="13.029" transform="rotate(30 362.822 269.768)" fill="#A9DED9"/>
<rect x="316.938" y="243.274" width="3.47441" height="13.029" transform="rotate(30 316.938 243.274)" fill="#A9DED9"/>
<rect x="330.205" y="259.107" width="3.69617" height="8.31638" transform="rotate(30 330.205 259.107)" fill="#FCFFFF"/>
<rect x="343.807" y="266.961" width="3.69617" height="8.31638" transform="rotate(30 343.807 266.961)" fill="#FCFFFF"/>
<path fill-rule="evenodd" clip-rule="evenodd" d="M327.368 242.029L324.086 240.134L320.532 246.289L323.815 248.184L325.472 245.313L328.345 246.972L330.24 243.689L327.368 242.03L327.368 242.029Z" fill="#A9DED9"/>
<path fill-rule="evenodd" clip-rule="evenodd" d="M364.605 263.209L362.636 266.62L362.635 266.619L360.912 269.604L357.502 267.635L359.225 264.65L356.242 262.928L358.211 259.518L364.605 263.209Z" fill="#A9DED9"/>
<rect x="311.633" y="273.309" width="5.21162" height="5.21162" transform="rotate(30 311.633 273.309)" fill="#A9DED9"/>
<rect x="337.816" y="288.427" width="5.21162" height="5.21162" transform="rotate(30 337.816 288.427)" fill="#A9DED9"/>
<path fill-rule="evenodd" clip-rule="evenodd" d="M51.9074 168.712L48.1144 169.728L46.8462 164.995L43.4355 165.909L44.7037 170.642L42.3701 171.268L43.0948 173.972L40.2226 174.742L40.902 177.277L38.2093 177.999L40.2023 185.437L35.3555 186.735L36.0349 189.271L40.8817 187.972L42.1952 192.874L47.76 191.383L49.0736 196.285L54.8179 194.746L53.5044 189.844L57.2974 188.828L57.6332 188.738L61.4949 187.703L62.8085 192.605L68.6486 191.04L67.335 186.138L72.9926 184.622L71.6791 179.72L76.6067 178.4L75.9273 175.864L70.9997 177.184L69.0068 169.747L66.2692 170.48L65.5898 167.945L62.6698 168.727L61.9451 166.022L59.5725 166.658L58.3043 161.925L54.8367 162.854L56.105 167.587L52.2432 168.622L51.9074 168.712Z" fill="#A9DED9"/>
<rect x="72.2383" y="166.163" width="2.80004" height="10.5002" transform="rotate(-15 72.2383 166.163)" fill="#A9DED9"/>
<rect x="30.9929" y="177.215" width="2.80004" height="10.5002" transform="rotate(-15 30.9929 177.215)" fill="#A9DED9"/>
<rect x="47.575" y="178.677" width="2.97876" height="6.7022" transform="rotate(-15 47.575 178.677)" fill="#FCFFFF"/>
<rect x="59.8033" y="175.401" width="2.97876" height="6.7022" transform="rotate(-15 59.8033 175.401)" fill="#FCFFFF"/>
<path fill-rule="evenodd" clip-rule="evenodd" d="M36.226 170.56L33.2755 171.351L33.2756 171.352L34.0662 174.302L34.7579 176.883L37.7084 176.093L37.0167 173.512L39.5984 172.82L38.8079 169.869L36.2262 170.561L36.226 170.56Z" fill="#A9DED9"/>
<path fill-rule="evenodd" clip-rule="evenodd" d="M66.4518 162.233L69.517 161.412L69.5171 161.412L70.3384 164.477L71.057 167.159L67.9918 167.98L67.2732 165.298L64.5911 166.017L63.7698 162.952L66.4518 162.233L66.4518 162.233Z" fill="#A9DED9"/>
<rect x="45.0859" y="197.354" width="4.20006" height="4.20006" transform="rotate(-15 45.0859 197.354)" fill="#A9DED9"/>
<rect x="68.6215" y="191.047" width="4.20006" height="4.20006" transform="rotate(-15 68.6215 191.047)" fill="#A9DED9"/>
<path d="M103.149 199.293C113.144 205.62 119.14 207.842 130.026 208.646L122.605 229.972C113.266 223.997 107.345 222.021 95.7278 220.619L103.149 199.293Z" fill="#717171"/>
<path fill-rule="evenodd" clip-rule="evenodd" d="M118.938 224.404C115.149 221.647 113.435 216.641 115.054 211.987C117.036 206.292 123.259 203.282 128.953 205.264C134.532 207.205 137.534 213.215 135.792 218.813C135.895 219.223 135.988 219.643 136.071 220.074C137.753 228.881 130.097 240.137 125.48 238.531C121.292 237.073 120.812 234.487 119.504 227.448C119.369 226.726 119.227 225.958 119.07 225.139C119.023 224.893 118.979 224.648 118.938 224.404Z" fill="url(#paint7_linear)"/>
<path fill-rule="evenodd" clip-rule="evenodd" d="M101.343 218.279C106.025 218.471 110.478 215.61 112.097 210.956C114.079 205.261 111.069 199.038 105.375 197.057C99.7971 195.116 93.7129 197.963 91.6031 203.432C91.267 203.689 90.9323 203.961 90.5995 204.249C83.8137 210.109 82.8276 223.686 87.4444 225.293C91.6319 226.75 93.614 225.021 99.0101 220.314C99.5631 219.832 100.152 219.318 100.783 218.773C100.972 218.61 101.159 218.445 101.343 218.279Z" fill="url(#paint8_linear)"/>
<g opacity="0.5">
<rect x="102.174" y="203.059" width="2.09872" height="8.39488" rx="1.04936" transform="rotate(19.1875 102.174 203.059)" fill="white"/>
<rect x="106.095" y="207.756" width="2.09872" height="8.39488" rx="1.04936" transform="rotate(109.187 106.095 207.756)" fill="white"/>
</g>
<circle cx="126.285" cy="212.929" r="1.39915" transform="rotate(19.1875 126.285 212.929)" fill="#FAE0A1"/>
<circle cx="126.285" cy="212.929" r="1.39915" transform="rotate(19.1875 126.285 212.929)" fill="url(#paint9_linear)"/>
<circle cx="124.444" cy="218.217" r="1.39915" transform="rotate(19.1875 124.444 218.217)" fill="url(#paint10_linear)"/>
<circle cx="128.007" cy="216.493" r="1.39915" transform="rotate(19.1875 128.007 216.493)" fill="url(#paint11_linear)"/>
<circle cx="122.722" cy="214.654" r="1.39915" transform="rotate(19.1875 122.722 214.654)" fill="url(#paint12_linear)"/>
<path d="M117.336 188.232C111.314 187.689 104.301 195.329 113.241 201.49C119.827 206.028 116.604 211.866 111.513 213.499" stroke="#717171" stroke-width="2" stroke-linecap="round"/>
<path d="M255.281 190.252C269.771 186.376 276.996 182.699 287.105 173.245L300.6 198.496C287.002 202.062 280.071 205.882 268.776 215.503L255.281 190.252Z" fill="#717171"/>
<path fill-rule="evenodd" clip-rule="evenodd" d="M292.255 197.123C286.429 198.286 280.288 195.579 277.343 190.068C273.739 183.325 276.284 174.938 283.027 171.335C289.631 167.805 297.813 170.174 301.532 176.609C302.003 176.865 302.476 177.14 302.949 177.434C312.602 183.438 316.51 200.25 311.044 203.172C306.086 205.822 303.263 204.046 295.577 199.213C294.789 198.718 293.95 198.19 293.053 197.632C292.784 197.464 292.518 197.295 292.255 197.123Z" fill="url(#paint13_linear)"/>
<path fill-rule="evenodd" clip-rule="evenodd" d="M271.422 208.258C275.627 204.06 276.789 197.45 273.844 191.938C270.241 185.196 261.853 182.651 255.111 186.254C248.507 189.783 245.93 197.901 249.212 204.569C249.163 205.103 249.129 205.649 249.11 206.206C248.737 217.568 260.543 230.161 266.01 227.239C270.968 224.589 271.061 221.256 271.314 212.18C271.339 211.25 271.367 210.259 271.402 209.203C271.412 208.886 271.419 208.571 271.422 208.258Z" fill="url(#paint14_linear)"/>
<g opacity="0.5">
<rect x="257.953" y="194.396" width="2.66107" height="10.6443" rx="1.33054" transform="rotate(-28.1207 257.953 194.396)" fill="white"/>
<rect x="265.703" y="194.781" width="2.66107" height="10.6443" rx="1.33054" transform="rotate(61.8793 265.703 194.781)" fill="white"/>
</g>
<circle cx="287.879" cy="180.414" r="1.77405" transform="rotate(-28.1207 287.879 180.414)" fill="#FAE0A1"/>
<circle cx="287.879" cy="180.414" r="1.77405" transform="rotate(-28.1207 287.879 180.414)" fill="url(#paint15_linear)"/>
<circle cx="291.225" cy="186.674" r="1.77405" transform="rotate(-28.1207 291.225 186.674)" fill="url(#paint16_linear)"/>
<circle cx="292.682" cy="181.871" r="1.77405" transform="rotate(-28.1207 292.682 181.871)" fill="url(#paint17_linear)"/>
<circle cx="286.424" cy="185.217" r="1.77405" transform="rotate(-28.1207 286.424 185.217)" fill="url(#paint18_linear)"/>
<path d="M253.226 163.884C247.543 169.03 248.633 182.134 262.061 179.099C271.953 176.862 274.622 184.885 271.767 191.034" stroke="#717171" stroke-width="2" stroke-linecap="round"/>
<defs>
<linearGradient id="paint0_linear" x1="248.524" y1="84.4118" x2="316.245" y2="121.263" gradientUnits="userSpaceOnUse">
<stop offset="0.336063" stop-color="#23B5AF"/>
<stop offset="0.703082" stop-color="#60CAC6"/>
<stop offset="1" stop-color="#B7E9E7"/>
</linearGradient>
<linearGradient id="paint1_linear" x1="303.287" y1="105.262" x2="276.461" y2="145.608" gradientUnits="userSpaceOnUse">
<stop stop-color="#BDE1EF"/>
<stop offset="1" stop-color="white" stop-opacity="0"/>
</linearGradient>
<linearGradient id="paint2_linear" x1="238.34" y1="89.3518" x2="295.519" y2="123.564" gradientUnits="userSpaceOnUse">
<stop offset="0.336063" stop-color="#23B5AF"/>
<stop offset="0.703082" stop-color="#60CAC6"/>
<stop offset="1" stop-color="#B7E9E7"/>
</linearGradient>
<linearGradient id="paint3_linear" x1="201.942" y1="128.033" x2="237.675" y2="225.527" gradientUnits="userSpaceOnUse">
<stop stop-color="#EDBA4B"/>
<stop offset="1" stop-color="white" stop-opacity="0"/>
</linearGradient>
<linearGradient id="paint4_linear" x1="174.021" y1="150.307" x2="183.493" y2="183.931" gradientUnits="userSpaceOnUse">
<stop stop-color="#88D2EE"/>
<stop offset="0.223958" stop-color="#8CD3EE"/>
<stop offset="1" stop-color="#CAE8F4"/>
</linearGradient>
<linearGradient id="paint5_linear" x1="104.989" y1="103.389" x2="133.794" y2="151.514" gradientUnits="userSpaceOnUse">
<stop stop-color="#88D2EE"/>
<stop offset="0.223958" stop-color="#8CD3EE"/>
<stop offset="1" stop-color="#CAE8F4"/>
</linearGradient>
<linearGradient id="paint6_linear" x1="122.461" y1="94.9092" x2="122.461" y2="131.693" gradientUnits="userSpaceOnUse">
<stop stop-color="#E88971"/>
<stop offset="0.7519" stop-color="#EC9782"/>
<stop offset="1" stop-color="#F6BAAA"/>
</linearGradient>
<linearGradient id="paint7_linear" x1="130.244" y1="205.713" x2="108.353" y2="268.619" gradientUnits="userSpaceOnUse">
<stop stop-color="#717171"/>
<stop offset="1" stop-color="#919191"/>
</linearGradient>
<linearGradient id="paint8_linear" x1="104.084" y1="196.608" x2="82.193" y2="259.514" gradientUnits="userSpaceOnUse">
<stop stop-color="#717171"/>
<stop offset="1" stop-color="#919191"/>
</linearGradient>
<linearGradient id="paint9_linear" x1="126.537" y1="211.53" x2="127.551" y2="215.734" gradientUnits="userSpaceOnUse">
<stop stop-color="#EDBA4B"/>
<stop offset="1" stop-color="white" stop-opacity="0"/>
</linearGradient>
<linearGradient id="paint10_linear" x1="124.444" y1="216.818" x2="124.444" y2="219.616" gradientUnits="userSpaceOnUse">
<stop stop-color="#419FC2"/>
<stop offset="1" stop-color="#7CD6F8"/>
</linearGradient>
<linearGradient id="paint11_linear" x1="128.007" y1="214.684" x2="129.527" y2="218.475" gradientUnits="userSpaceOnUse">
<stop offset="0.336063" stop-color="#23B5AF"/>
<stop offset="0.703082" stop-color="#60CAC6"/>
<stop offset="1" stop-color="#B7E9E7"/>
</linearGradient>
<linearGradient id="paint12_linear" x1="122.722" y1="211.209" x2="122.722" y2="216.053" gradientUnits="userSpaceOnUse">
<stop stop-color="#E0502C"/>
<stop offset="1" stop-color="#EC9D89"/>
</linearGradient>
<linearGradient id="paint13_linear" x1="284.555" y1="170.518" x2="324.359" y2="245.001" gradientUnits="userSpaceOnUse">
<stop stop-color="#717171"/>
<stop offset="1" stop-color="#919191"/>
</linearGradient>
<linearGradient id="paint14_linear" x1="253.583" y1="187.071" x2="293.387" y2="261.554" gradientUnits="userSpaceOnUse">
<stop stop-color="#717171"/>
<stop offset="1" stop-color="#919191"/>
</linearGradient>
<linearGradient id="paint15_linear" x1="288.199" y1="178.64" x2="289.485" y2="183.972" gradientUnits="userSpaceOnUse">
<stop stop-color="#EDBA4B"/>
<stop offset="1" stop-color="white" stop-opacity="0"/>
</linearGradient>
<linearGradient id="paint16_linear" x1="291.225" y1="184.9" x2="291.225" y2="188.448" gradientUnits="userSpaceOnUse">
<stop stop-color="#419FC2"/>
<stop offset="1" stop-color="#7CD6F8"/>
</linearGradient>
<linearGradient id="paint17_linear" x1="292.682" y1="179.578" x2="294.61" y2="184.384" gradientUnits="userSpaceOnUse">
<stop offset="0.336063" stop-color="#23B5AF"/>
<stop offset="0.703082" stop-color="#60CAC6"/>
<stop offset="1" stop-color="#B7E9E7"/>
</linearGradient>
<linearGradient id="paint18_linear" x1="286.424" y1="180.848" x2="286.424" y2="186.991" gradientUnits="userSpaceOnUse">
<stop stop-color="#E0502C"/>
<stop offset="1" stop-color="#EC9D89"/>
</linearGradient>
</defs>
</svg>
