<svg width="400" height="401" viewBox="0 0 400 401" fill="none" xmlns="http://www.w3.org/2000/svg">
<rect x="4" y="4.32861" width="392" height="392" rx="20" fill="#FCFFFF" stroke="#A9DED9" stroke-width="8"/>
<path d="M101.06 285.329V282.235H104.648V272.693H101.554V270.327C102.455 270.153 103.218 269.945 103.842 269.703C104.466 269.46 105.073 269.165 105.662 268.819H108.47V282.235H111.564V285.329H101.06ZM118.176 277.217C117.518 277.217 116.963 276.991 116.512 276.541C116.079 276.073 115.862 275.501 115.862 274.825C115.862 274.131 116.079 273.559 116.512 273.109C116.963 272.641 117.518 272.407 118.176 272.407C118.835 272.407 119.381 272.641 119.814 273.109C120.265 273.559 120.49 274.131 120.49 274.825C120.49 275.501 120.265 276.073 119.814 276.541C119.381 276.991 118.835 277.217 118.176 277.217ZM118.176 285.641C117.518 285.641 116.963 285.415 116.512 284.965C116.079 284.497 115.862 283.925 115.862 283.249C115.862 282.555 116.079 281.983 116.512 281.533C116.963 281.065 117.518 280.831 118.176 280.831C118.835 280.831 119.381 281.065 119.814 281.533C120.265 281.983 120.49 282.555 120.49 283.249C120.49 283.925 120.265 284.497 119.814 284.965C119.381 285.415 118.835 285.641 118.176 285.641ZM125.191 285.329V282.235H128.779V272.693H125.685V270.327C126.586 270.153 127.349 269.945 127.973 269.703C128.597 269.46 129.204 269.165 129.793 268.819H132.601V282.235H135.695V285.329H125.191ZM153.987 285.641C152.912 285.641 151.898 285.459 150.945 285.095C149.991 284.713 149.151 284.159 148.423 283.431C147.712 282.703 147.149 281.801 146.733 280.727C146.317 279.635 146.109 278.378 146.109 276.957C146.109 275.553 146.325 274.305 146.759 273.213C147.192 272.103 147.773 271.167 148.501 270.405C149.229 269.642 150.078 269.061 151.049 268.663C152.019 268.264 153.042 268.065 154.117 268.065C155.209 268.065 156.188 268.29 157.055 268.741C157.921 269.174 158.641 269.685 159.213 270.275L157.185 272.719C156.751 272.32 156.292 271.999 155.807 271.757C155.339 271.497 154.801 271.367 154.195 271.367C153.623 271.367 153.077 271.497 152.557 271.757C152.054 271.999 151.612 272.355 151.231 272.823C150.867 273.291 150.572 273.863 150.347 274.539C150.139 275.215 150.035 275.977 150.035 276.827C150.035 278.577 150.407 279.938 151.153 280.909C151.898 281.862 152.895 282.339 154.143 282.339C154.836 282.339 155.451 282.191 155.989 281.897C156.543 281.585 157.029 281.203 157.445 280.753L159.473 283.145C158.051 284.809 156.223 285.641 153.987 285.641ZM168.573 285.641C167.759 285.641 166.97 285.493 166.207 285.199C165.445 284.887 164.769 284.445 164.179 283.873C163.607 283.301 163.148 282.599 162.801 281.767C162.455 280.917 162.281 279.955 162.281 278.881C162.281 277.806 162.455 276.853 162.801 276.021C163.148 275.171 163.607 274.461 164.179 273.889C164.769 273.317 165.445 272.883 166.207 272.589C166.97 272.277 167.759 272.121 168.573 272.121C169.388 272.121 170.168 272.277 170.913 272.589C171.676 272.883 172.343 273.317 172.915 273.889C173.505 274.461 173.973 275.171 174.319 276.021C174.666 276.853 174.839 277.806 174.839 278.881C174.839 279.955 174.666 280.917 174.319 281.767C173.973 282.599 173.505 283.301 172.915 283.873C172.343 284.445 171.676 284.887 170.913 285.199C170.168 285.493 169.388 285.641 168.573 285.641ZM168.573 282.547C169.353 282.547 169.943 282.217 170.341 281.559C170.74 280.9 170.939 280.007 170.939 278.881C170.939 277.754 170.74 276.861 170.341 276.203C169.943 275.544 169.353 275.215 168.573 275.215C167.776 275.215 167.178 275.544 166.779 276.203C166.398 276.861 166.207 277.754 166.207 278.881C166.207 280.007 166.398 280.9 166.779 281.559C167.178 282.217 167.776 282.547 168.573 282.547ZM187.496 285.329V275.423H183.102V285.329H179.28V275.423H177.564V272.589L179.28 272.459V271.861C179.28 271.202 179.367 270.578 179.54 269.989C179.731 269.399 180.017 268.888 180.398 268.455C180.797 268.021 181.3 267.683 181.906 267.441C182.53 267.181 183.284 267.051 184.168 267.051C184.723 267.051 185.234 267.103 185.702 267.207C186.17 267.293 186.552 267.397 186.846 267.519L186.144 270.353C185.936 270.266 185.72 270.197 185.494 270.145C185.269 270.093 184.983 270.067 184.636 270.067C184.186 270.067 183.813 270.214 183.518 270.509C183.241 270.786 183.102 271.228 183.102 271.835V272.433H187.496V271.757C187.496 271.081 187.574 270.439 187.73 269.833C187.904 269.226 188.181 268.697 188.562 268.247C188.944 267.796 189.438 267.441 190.044 267.181C190.651 266.921 191.388 266.791 192.254 266.791C192.792 266.791 193.277 266.843 193.71 266.947C194.161 267.051 194.534 267.155 194.828 267.259L194.126 270.067C193.641 269.893 193.199 269.807 192.8 269.807C192.332 269.807 191.968 269.954 191.708 270.249C191.448 270.526 191.318 270.994 191.318 271.653V272.433H193.632V275.423H191.318V285.329H187.496ZM202.536 285.641C201.618 285.641 200.76 285.493 199.962 285.199C199.165 284.887 198.472 284.445 197.882 283.873C197.293 283.283 196.834 282.573 196.504 281.741C196.175 280.909 196.01 279.955 196.01 278.881C196.01 277.841 196.184 276.905 196.53 276.073C196.877 275.223 197.328 274.513 197.882 273.941C198.454 273.351 199.104 272.901 199.832 272.589C200.56 272.277 201.314 272.121 202.094 272.121C203.013 272.121 203.81 272.277 204.486 272.589C205.18 272.901 205.752 273.334 206.202 273.889C206.67 274.443 207.017 275.102 207.242 275.865C207.468 276.61 207.58 277.425 207.58 278.309C207.58 278.655 207.563 278.985 207.528 279.297C207.494 279.609 207.459 279.843 207.424 279.999H199.702C199.876 280.935 200.257 281.628 200.846 282.079C201.453 282.512 202.19 282.729 203.056 282.729C203.975 282.729 204.902 282.443 205.838 281.871L207.112 284.185C206.454 284.635 205.717 284.991 204.902 285.251C204.105 285.511 203.316 285.641 202.536 285.641ZM199.676 277.477H204.33C204.33 276.749 204.166 276.159 203.836 275.709C203.507 275.258 202.952 275.033 202.172 275.033C201.566 275.033 201.028 275.232 200.56 275.631C200.11 276.029 199.815 276.645 199.676 277.477ZM217.293 285.641C216.375 285.641 215.517 285.493 214.719 285.199C213.922 284.887 213.229 284.445 212.639 283.873C212.05 283.283 211.591 282.573 211.261 281.741C210.932 280.909 210.767 279.955 210.767 278.881C210.767 277.841 210.941 276.905 211.287 276.073C211.634 275.223 212.085 274.513 212.639 273.941C213.211 273.351 213.861 272.901 214.589 272.589C215.317 272.277 216.071 272.121 216.851 272.121C217.77 272.121 218.567 272.277 219.243 272.589C219.937 272.901 220.509 273.334 220.959 273.889C221.427 274.443 221.774 275.102 221.999 275.865C222.225 276.61 222.337 277.425 222.337 278.309C222.337 278.655 222.32 278.985 222.285 279.297C222.251 279.609 222.216 279.843 222.181 279.999H214.459C214.633 280.935 215.014 281.628 215.603 282.079C216.21 282.512 216.947 282.729 217.813 282.729C218.732 282.729 219.659 282.443 220.595 281.871L221.869 284.185C221.211 284.635 220.474 284.991 219.659 285.251C218.862 285.511 218.073 285.641 217.293 285.641ZM214.433 277.477H219.087C219.087 276.749 218.923 276.159 218.593 275.709C218.264 275.258 217.709 275.033 216.929 275.033C216.323 275.033 215.785 275.232 215.317 275.631C214.867 276.029 214.572 276.645 214.433 277.477ZM240.167 285.641C239.093 285.641 238.079 285.459 237.125 285.095C236.172 284.713 235.331 284.159 234.603 283.431C233.893 282.703 233.329 281.801 232.913 280.727C232.497 279.635 232.289 278.378 232.289 276.957C232.289 275.553 232.506 274.305 232.939 273.213C233.373 272.103 233.953 271.167 234.681 270.405C235.409 269.642 236.259 269.061 237.229 268.663C238.2 268.264 239.223 268.065 240.297 268.065C241.389 268.065 242.369 268.29 243.235 268.741C244.102 269.174 244.821 269.685 245.393 270.275L243.365 272.719C242.932 272.32 242.473 271.999 241.987 271.757C241.519 271.497 240.982 271.367 240.375 271.367C239.803 271.367 239.257 271.497 238.737 271.757C238.235 271.999 237.793 272.355 237.411 272.823C237.047 273.291 236.753 273.863 236.527 274.539C236.319 275.215 236.215 275.977 236.215 276.827C236.215 278.577 236.588 279.938 237.333 280.909C238.079 281.862 239.075 282.339 240.323 282.339C241.017 282.339 241.632 282.191 242.169 281.897C242.724 281.585 243.209 281.203 243.625 280.753L245.653 283.145C244.232 284.809 242.403 285.641 240.167 285.641ZM249.216 285.329V267.103H253.038V271.575L252.856 273.889C253.342 273.455 253.905 273.057 254.546 272.693C255.188 272.311 255.95 272.121 256.834 272.121C258.238 272.121 259.252 272.58 259.876 273.499C260.518 274.417 260.838 275.691 260.838 277.321V285.329H257.016V277.815C257.016 276.879 256.886 276.237 256.626 275.891C256.384 275.544 255.985 275.371 255.43 275.371C254.945 275.371 254.529 275.483 254.182 275.709C253.836 275.917 253.454 276.22 253.038 276.619V285.329H249.216ZM268.62 285.641C268.03 285.641 267.493 285.537 267.008 285.329C266.54 285.138 266.141 284.869 265.812 284.523C265.482 284.159 265.222 283.743 265.032 283.275C264.858 282.807 264.772 282.295 264.772 281.741C264.772 280.389 265.344 279.331 266.488 278.569C267.632 277.806 269.478 277.295 272.026 277.035C271.991 276.463 271.818 276.012 271.506 275.683C271.211 275.336 270.708 275.163 269.998 275.163C269.443 275.163 268.888 275.267 268.334 275.475C267.796 275.683 267.216 275.969 266.592 276.333L265.214 273.811C266.046 273.308 266.912 272.901 267.814 272.589C268.732 272.277 269.703 272.121 270.726 272.121C272.39 272.121 273.655 272.597 274.522 273.551C275.406 274.487 275.848 275.951 275.848 277.945V285.329H272.728L272.468 284.003H272.364C271.809 284.488 271.228 284.887 270.622 285.199C270.015 285.493 269.348 285.641 268.62 285.641ZM269.92 282.677C270.353 282.677 270.726 282.581 271.038 282.391C271.35 282.2 271.679 281.931 272.026 281.585V279.323C270.674 279.513 269.738 279.791 269.218 280.155C268.698 280.519 268.438 280.952 268.438 281.455C268.438 281.871 268.568 282.183 268.828 282.391C269.105 282.581 269.469 282.677 269.92 282.677ZM284.89 285.641C284.092 285.641 283.408 285.519 282.836 285.277C282.281 285.034 281.822 284.696 281.458 284.263C281.111 283.829 280.851 283.309 280.678 282.703C280.522 282.079 280.444 281.394 280.444 280.649V275.423H278.676V272.589L280.652 272.433L281.094 269.001H284.266V272.433H287.36V275.423H284.266V280.597C284.266 281.325 284.413 281.853 284.708 282.183C285.02 282.495 285.427 282.651 285.93 282.651C286.138 282.651 286.346 282.625 286.554 282.573C286.779 282.521 286.978 282.46 287.152 282.391L287.75 285.173C287.403 285.277 286.996 285.381 286.528 285.485C286.06 285.589 285.514 285.641 284.89 285.641ZM294.719 285.641C293.869 285.641 292.994 285.476 292.093 285.147C291.209 284.817 290.437 284.384 289.779 283.847L291.495 281.455C292.084 281.905 292.647 282.243 293.185 282.469C293.722 282.694 294.268 282.807 294.823 282.807C295.395 282.807 295.811 282.711 296.071 282.521C296.331 282.33 296.461 282.061 296.461 281.715C296.461 281.507 296.383 281.325 296.227 281.169C296.088 280.995 295.889 280.839 295.629 280.701C295.386 280.562 295.109 280.441 294.797 280.337C294.485 280.215 294.164 280.085 293.835 279.947C293.436 279.791 293.037 279.609 292.639 279.401C292.24 279.193 291.876 278.941 291.547 278.647C291.217 278.335 290.949 277.979 290.741 277.581C290.533 277.165 290.429 276.688 290.429 276.151C290.429 275.561 290.541 275.015 290.767 274.513C291.009 274.01 291.347 273.585 291.781 273.239C292.214 272.892 292.734 272.623 293.341 272.433C293.947 272.225 294.623 272.121 295.369 272.121C296.357 272.121 297.223 272.294 297.969 272.641C298.714 272.97 299.364 273.343 299.919 273.759L298.203 276.047C297.735 275.7 297.275 275.431 296.825 275.241C296.374 275.05 295.923 274.955 295.473 274.955C294.502 274.955 294.017 275.293 294.017 275.969C294.017 276.177 294.086 276.359 294.225 276.515C294.363 276.653 294.545 276.783 294.771 276.905C295.013 277.026 295.282 277.147 295.577 277.269C295.889 277.373 296.209 277.485 296.539 277.607C296.955 277.763 297.362 277.945 297.761 278.153C298.177 278.343 298.549 278.586 298.879 278.881C299.225 279.175 299.503 279.539 299.711 279.973C299.919 280.389 300.023 280.891 300.023 281.481C300.023 282.07 299.91 282.616 299.685 283.119C299.459 283.621 299.121 284.063 298.671 284.445C298.22 284.809 297.665 285.103 297.007 285.329C296.348 285.537 295.585 285.641 294.719 285.641Z" fill="#717171"/>
<path d="M72.6019 322.329V311.833H74.2019L76.2179 317.433C76.3459 317.795 76.4686 318.163 76.5859 318.537C76.7139 318.899 76.8419 319.262 76.9699 319.625H77.0339C77.1619 319.262 77.2792 318.899 77.3859 318.537C77.5032 318.163 77.6259 317.795 77.7539 317.433L79.7379 311.833H81.3539V322.329H80.1059V316.553C80.1059 316.083 80.1272 315.566 80.1699 315.001C80.2126 314.435 80.2499 313.918 80.2819 313.449H80.2179L79.3859 315.833L77.4019 321.273H76.5219L74.5379 315.833L73.7059 313.449H73.6419C73.6739 313.918 73.7059 314.435 73.7379 315.001C73.7806 315.566 73.8019 316.083 73.8019 316.553V322.329H72.6019ZM86.6909 322.521C86.0402 322.521 85.4962 322.329 85.0589 321.945C84.6322 321.561 84.4189 321.017 84.4189 320.313C84.4189 319.459 84.7976 318.809 85.5549 318.361C86.3122 317.902 87.5229 317.582 89.1869 317.401C89.1869 317.155 89.1602 316.915 89.1069 316.681C89.0642 316.446 88.9842 316.238 88.8669 316.057C88.7496 315.875 88.5842 315.731 88.3709 315.625C88.1682 315.507 87.9069 315.449 87.5869 315.449C87.1389 315.449 86.7176 315.534 86.3229 315.705C85.9282 315.875 85.5762 316.067 85.2669 316.281L84.7549 315.369C85.1176 315.134 85.5602 314.91 86.0829 314.697C86.6056 314.473 87.1816 314.361 87.8109 314.361C88.7602 314.361 89.4482 314.654 89.8749 315.241C90.3016 315.817 90.5149 316.59 90.5149 317.561V322.329H89.4269L89.3149 321.401H89.2669C88.8936 321.71 88.4936 321.977 88.0669 322.201C87.6402 322.414 87.1816 322.521 86.6909 322.521ZM87.0749 321.465C87.4482 321.465 87.8002 321.379 88.1309 321.209C88.4616 321.027 88.8136 320.766 89.1869 320.425V318.265C88.5362 318.35 87.9869 318.451 87.5389 318.569C87.1016 318.686 86.7442 318.825 86.4669 318.985C86.2002 319.145 86.0029 319.331 85.8749 319.545C85.7576 319.747 85.6989 319.971 85.6989 320.217C85.6989 320.665 85.8322 320.985 86.0989 321.177C86.3656 321.369 86.6909 321.465 87.0749 321.465ZM93.7614 322.329V310.937H95.0574V318.649H95.1054L98.4174 314.553H99.8734L97.2654 317.673L100.225 322.329H98.7854L96.5134 318.585L95.0574 320.281V322.329H93.7614ZM105.354 322.521C104.831 322.521 104.341 322.43 103.882 322.249C103.434 322.057 103.039 321.79 102.698 321.449C102.367 321.097 102.106 320.67 101.914 320.169C101.722 319.667 101.626 319.097 101.626 318.457C101.626 317.817 101.722 317.246 101.914 316.745C102.117 316.233 102.378 315.801 102.698 315.449C103.029 315.097 103.402 314.83 103.818 314.649C104.234 314.457 104.666 314.361 105.114 314.361C105.605 314.361 106.042 314.446 106.426 314.617C106.821 314.787 107.146 315.033 107.402 315.353C107.669 315.673 107.871 316.057 108.01 316.505C108.149 316.953 108.218 317.454 108.218 318.009C108.218 318.147 108.213 318.286 108.202 318.425C108.202 318.553 108.191 318.665 108.17 318.761H102.922C102.975 319.593 103.231 320.254 103.69 320.745C104.159 321.225 104.767 321.465 105.514 321.465C105.887 321.465 106.229 321.411 106.538 321.305C106.858 321.187 107.162 321.038 107.45 320.857L107.914 321.721C107.573 321.934 107.194 322.121 106.778 322.281C106.362 322.441 105.887 322.521 105.354 322.521ZM102.906 317.817H107.066C107.066 317.027 106.895 316.43 106.554 316.025C106.223 315.609 105.754 315.401 105.146 315.401C104.869 315.401 104.602 315.454 104.346 315.561C104.101 315.667 103.877 315.827 103.674 316.041C103.471 316.243 103.301 316.494 103.162 316.793C103.034 317.091 102.949 317.433 102.906 317.817ZM114.943 322.329V314.553H116.031L116.143 315.673H116.191C116.532 315.299 116.9 314.99 117.295 314.745C117.7 314.489 118.137 314.361 118.607 314.361C119.204 314.361 119.668 314.494 119.999 314.761C120.34 315.017 120.591 315.379 120.751 315.849C121.156 315.401 121.561 315.043 121.967 314.777C122.383 314.499 122.831 314.361 123.311 314.361C124.111 314.361 124.703 314.617 125.087 315.129C125.481 315.641 125.679 316.398 125.679 317.401V322.329H124.367V317.577C124.367 316.841 124.249 316.313 124.015 315.993C123.78 315.662 123.417 315.497 122.927 315.497C122.34 315.497 121.689 315.897 120.975 316.697V322.329H119.663V317.577C119.663 316.841 119.545 316.313 119.311 315.993C119.076 315.662 118.708 315.497 118.207 315.497C117.62 315.497 116.969 315.897 116.255 316.697V322.329H114.943ZM132.16 322.521C131.638 322.521 131.147 322.43 130.688 322.249C130.24 322.057 129.846 321.79 129.504 321.449C129.174 321.097 128.912 320.67 128.72 320.169C128.528 319.667 128.432 319.097 128.432 318.457C128.432 317.817 128.528 317.246 128.72 316.745C128.923 316.233 129.184 315.801 129.504 315.449C129.835 315.097 130.208 314.83 130.624 314.649C131.04 314.457 131.472 314.361 131.92 314.361C132.411 314.361 132.848 314.446 133.232 314.617C133.627 314.787 133.952 315.033 134.208 315.353C134.475 315.673 134.678 316.057 134.816 316.505C134.955 316.953 135.024 317.454 135.024 318.009C135.024 318.147 135.019 318.286 135.008 318.425C135.008 318.553 134.998 318.665 134.976 318.761H129.728C129.782 319.593 130.038 320.254 130.496 320.745C130.966 321.225 131.574 321.465 132.32 321.465C132.694 321.465 133.035 321.411 133.344 321.305C133.664 321.187 133.968 321.038 134.256 320.857L134.72 321.721C134.379 321.934 134 322.121 133.584 322.281C133.168 322.441 132.694 322.521 132.16 322.521ZM129.712 317.817H133.872C133.872 317.027 133.702 316.43 133.36 316.025C133.03 315.609 132.56 315.401 131.952 315.401C131.675 315.401 131.408 315.454 131.152 315.561C130.907 315.667 130.683 315.827 130.48 316.041C130.278 316.243 130.107 316.494 129.968 316.793C129.84 317.091 129.755 317.433 129.712 317.817ZM139.319 322.521C138.668 322.521 138.124 322.329 137.687 321.945C137.26 321.561 137.047 321.017 137.047 320.313C137.047 319.459 137.426 318.809 138.183 318.361C138.94 317.902 140.151 317.582 141.815 317.401C141.815 317.155 141.788 316.915 141.735 316.681C141.692 316.446 141.612 316.238 141.495 316.057C141.378 315.875 141.212 315.731 140.999 315.625C140.796 315.507 140.535 315.449 140.215 315.449C139.767 315.449 139.346 315.534 138.951 315.705C138.556 315.875 138.204 316.067 137.895 316.281L137.383 315.369C137.746 315.134 138.188 314.91 138.711 314.697C139.234 314.473 139.81 314.361 140.439 314.361C141.388 314.361 142.076 314.654 142.503 315.241C142.93 315.817 143.143 316.59 143.143 317.561V322.329H142.055L141.943 321.401H141.895C141.522 321.71 141.122 321.977 140.695 322.201C140.268 322.414 139.81 322.521 139.319 322.521ZM139.703 321.465C140.076 321.465 140.428 321.379 140.759 321.209C141.09 321.027 141.442 320.766 141.815 320.425V318.265C141.164 318.35 140.615 318.451 140.167 318.569C139.73 318.686 139.372 318.825 139.095 318.985C138.828 319.145 138.631 319.331 138.503 319.545C138.386 319.747 138.327 319.971 138.327 320.217C138.327 320.665 138.46 320.985 138.727 321.177C138.994 321.369 139.319 321.465 139.703 321.465ZM146.39 322.329V314.553H147.478L147.59 315.673H147.638C148.011 315.299 148.4 314.99 148.806 314.745C149.222 314.489 149.702 314.361 150.246 314.361C151.067 314.361 151.664 314.617 152.038 315.129C152.422 315.641 152.614 316.398 152.614 317.401V322.329H151.302V317.577C151.302 316.841 151.184 316.313 150.95 315.993C150.715 315.662 150.342 315.497 149.83 315.497C149.424 315.497 149.067 315.598 148.758 315.801C148.448 316.003 148.096 316.302 147.702 316.697V322.329H146.39ZM155.94 322.329V314.553H157.252V322.329H155.94ZM156.612 312.953C156.356 312.953 156.137 312.873 155.956 312.713C155.785 312.553 155.7 312.35 155.7 312.105C155.7 311.849 155.785 311.646 155.956 311.497C156.137 311.337 156.356 311.257 156.612 311.257C156.868 311.257 157.081 311.337 157.252 311.497C157.433 311.646 157.524 311.849 157.524 312.105C157.524 312.35 157.433 312.553 157.252 312.713C157.081 312.873 156.868 312.953 156.612 312.953ZM160.677 322.329V314.553H161.765L161.877 315.673H161.925C162.298 315.299 162.688 314.99 163.093 314.745C163.509 314.489 163.989 314.361 164.533 314.361C165.354 314.361 165.952 314.617 166.325 315.129C166.709 315.641 166.901 316.398 166.901 317.401V322.329H165.589V317.577C165.589 316.841 165.472 316.313 165.237 315.993C165.002 315.662 164.629 315.497 164.117 315.497C163.712 315.497 163.354 315.598 163.045 315.801C162.736 316.003 162.384 316.302 161.989 316.697V322.329H160.677ZM172.851 325.913C172.371 325.913 171.934 325.865 171.539 325.769C171.144 325.683 170.803 325.55 170.515 325.369C170.238 325.187 170.019 324.969 169.859 324.713C169.71 324.457 169.635 324.158 169.635 323.817C169.635 323.486 169.736 323.171 169.939 322.873C170.142 322.574 170.419 322.302 170.771 322.057V321.993C170.579 321.875 170.414 321.715 170.275 321.513C170.147 321.299 170.083 321.038 170.083 320.729C170.083 320.398 170.174 320.11 170.355 319.865C170.536 319.619 170.728 319.427 170.931 319.289V319.225C170.675 319.011 170.44 318.729 170.227 318.377C170.024 318.014 169.923 317.598 169.923 317.129C169.923 316.702 169.998 316.318 170.147 315.977C170.307 315.635 170.52 315.347 170.787 315.113C171.054 314.867 171.363 314.681 171.715 314.553C172.078 314.425 172.456 314.361 172.851 314.361C173.064 314.361 173.262 314.382 173.443 314.425C173.635 314.457 173.806 314.499 173.955 314.553H176.659V315.561H175.059C175.24 315.742 175.39 315.971 175.507 316.249C175.635 316.526 175.699 316.83 175.699 317.161C175.699 317.577 175.624 317.955 175.475 318.297C175.326 318.627 175.123 318.91 174.867 319.145C174.611 319.369 174.307 319.545 173.955 319.673C173.614 319.801 173.246 319.865 172.851 319.865C172.659 319.865 172.462 319.843 172.259 319.801C172.056 319.747 171.864 319.678 171.683 319.593C171.544 319.71 171.427 319.843 171.331 319.993C171.235 320.131 171.187 320.307 171.187 320.521C171.187 320.766 171.283 320.969 171.475 321.129C171.667 321.289 172.03 321.369 172.563 321.369H174.067C174.974 321.369 175.651 321.518 176.099 321.817C176.558 322.105 176.787 322.574 176.787 323.225C176.787 323.587 176.696 323.929 176.515 324.249C176.334 324.579 176.072 324.867 175.731 325.113C175.39 325.358 174.974 325.55 174.483 325.689C174.003 325.838 173.459 325.913 172.851 325.913ZM172.851 318.985C173.075 318.985 173.283 318.942 173.475 318.857C173.678 318.771 173.854 318.649 174.003 318.489C174.163 318.329 174.286 318.137 174.371 317.913C174.456 317.678 174.499 317.417 174.499 317.129C174.499 316.553 174.339 316.11 174.019 315.801C173.699 315.481 173.31 315.321 172.851 315.321C172.392 315.321 172.003 315.481 171.683 315.801C171.363 316.11 171.203 316.553 171.203 317.129C171.203 317.417 171.246 317.678 171.331 317.913C171.416 318.137 171.534 318.329 171.683 318.489C171.843 318.649 172.019 318.771 172.211 318.857C172.414 318.942 172.627 318.985 172.851 318.985ZM173.043 325.001C173.416 325.001 173.752 324.953 174.051 324.857C174.36 324.771 174.622 324.654 174.835 324.505C175.048 324.366 175.214 324.201 175.331 324.009C175.448 323.817 175.507 323.619 175.507 323.417C175.507 323.054 175.374 322.803 175.107 322.665C174.84 322.526 174.451 322.457 173.939 322.457H172.595C172.446 322.457 172.28 322.446 172.099 322.425C171.928 322.414 171.758 322.382 171.587 322.329C171.31 322.531 171.107 322.745 170.979 322.969C170.851 323.193 170.787 323.417 170.787 323.641C170.787 324.057 170.984 324.387 171.379 324.633C171.784 324.878 172.339 325.001 173.043 325.001ZM179.314 322.329V315.625H178.258V314.633L179.314 314.553V313.321C179.314 312.521 179.495 311.891 179.858 311.433C180.231 310.974 180.807 310.745 181.586 310.745C181.831 310.745 182.06 310.771 182.274 310.825C182.498 310.867 182.7 310.926 182.882 311.001L182.594 312.009C182.306 311.881 182.012 311.817 181.714 311.817C180.988 311.817 180.626 312.318 180.626 313.321V314.553H182.274V315.625H180.626V322.329H179.314ZM186.833 322.521C186.001 322.521 185.393 322.265 185.009 321.753C184.636 321.241 184.449 320.483 184.449 319.481V314.553H185.777V319.305C185.777 320.041 185.889 320.574 186.113 320.905C186.348 321.225 186.721 321.385 187.233 321.385C187.639 321.385 187.996 321.283 188.305 321.081C188.615 320.867 188.956 320.531 189.329 320.073V314.553H190.641V322.329H189.553L189.441 321.113H189.393C189.031 321.539 188.647 321.881 188.241 322.137C187.847 322.393 187.377 322.521 186.833 322.521ZM195.457 322.521C194.955 322.521 194.598 322.371 194.385 322.073C194.171 321.774 194.065 321.337 194.065 320.761V310.937H195.377V320.857C195.377 321.07 195.414 321.219 195.489 321.305C195.563 321.39 195.649 321.433 195.745 321.433C195.787 321.433 195.825 321.433 195.857 321.433C195.899 321.433 195.958 321.422 196.033 321.401L196.209 322.393C196.123 322.435 196.022 322.467 195.905 322.489C195.787 322.51 195.638 322.521 195.457 322.521ZM206.018 322.521C205.506 322.521 205.026 322.43 204.578 322.249C204.13 322.067 203.74 321.806 203.41 321.465C203.09 321.113 202.834 320.686 202.642 320.185C202.46 319.673 202.37 319.097 202.37 318.457C202.37 317.806 202.471 317.23 202.674 316.729C202.876 316.217 203.148 315.785 203.49 315.433C203.831 315.081 204.226 314.814 204.674 314.633C205.132 314.451 205.612 314.361 206.114 314.361C206.626 314.361 207.063 314.451 207.426 314.633C207.788 314.814 208.108 315.027 208.386 315.273L207.714 316.137C207.49 315.934 207.25 315.769 206.994 315.641C206.748 315.513 206.471 315.449 206.162 315.449C205.81 315.449 205.484 315.523 205.186 315.673C204.887 315.811 204.631 316.014 204.418 316.281C204.204 316.547 204.034 316.867 203.906 317.241C203.788 317.603 203.73 318.009 203.73 318.457C203.73 318.905 203.788 319.31 203.906 319.673C204.023 320.035 204.183 320.35 204.386 320.617C204.599 320.873 204.855 321.075 205.154 321.225C205.452 321.363 205.778 321.433 206.13 321.433C206.492 321.433 206.823 321.358 207.122 321.209C207.431 321.049 207.708 320.862 207.954 320.649L208.53 321.529C208.178 321.838 207.788 322.083 207.362 322.265C206.935 322.435 206.487 322.521 206.018 322.521ZM213.723 322.521C213.243 322.521 212.784 322.43 212.347 322.249C211.92 322.067 211.542 321.806 211.211 321.465C210.88 321.113 210.614 320.686 210.411 320.185C210.219 319.673 210.123 319.097 210.123 318.457C210.123 317.806 210.219 317.23 210.411 316.729C210.614 316.217 210.88 315.785 211.211 315.433C211.542 315.081 211.92 314.814 212.347 314.633C212.784 314.451 213.243 314.361 213.723 314.361C214.203 314.361 214.656 314.451 215.083 314.633C215.52 314.814 215.904 315.081 216.235 315.433C216.566 315.785 216.827 316.217 217.019 316.729C217.222 317.23 217.323 317.806 217.323 318.457C217.323 319.097 217.222 319.673 217.019 320.185C216.827 320.686 216.566 321.113 216.235 321.465C215.904 321.806 215.52 322.067 215.083 322.249C214.656 322.43 214.203 322.521 213.723 322.521ZM213.723 321.433C214.054 321.433 214.358 321.363 214.635 321.225C214.912 321.075 215.147 320.873 215.339 320.617C215.542 320.35 215.696 320.035 215.803 319.673C215.91 319.31 215.963 318.905 215.963 318.457C215.963 318.009 215.91 317.603 215.803 317.241C215.696 316.867 215.542 316.547 215.339 316.281C215.147 316.014 214.912 315.811 214.635 315.673C214.358 315.523 214.054 315.449 213.723 315.449C213.392 315.449 213.088 315.523 212.811 315.673C212.534 315.811 212.294 316.014 212.091 316.281C211.899 316.547 211.75 316.867 211.643 317.241C211.536 317.603 211.483 318.009 211.483 318.457C211.483 318.905 211.536 319.31 211.643 319.673C211.75 320.035 211.899 320.35 212.091 320.617C212.294 320.873 212.534 321.075 212.811 321.225C213.088 321.363 213.392 321.433 213.723 321.433ZM220.171 322.329V314.553H221.259L221.371 315.673H221.419C221.792 315.299 222.181 314.99 222.587 314.745C223.003 314.489 223.483 314.361 224.027 314.361C224.848 314.361 225.445 314.617 225.819 315.129C226.203 315.641 226.395 316.398 226.395 317.401V322.329H225.083V317.577C225.083 316.841 224.965 316.313 224.731 315.993C224.496 315.662 224.123 315.497 223.611 315.497C223.205 315.497 222.848 315.598 222.539 315.801C222.229 316.003 221.877 316.302 221.483 316.697V322.329H220.171ZM229.721 322.329V314.553H230.809L230.921 315.673H230.969C231.342 315.299 231.731 314.99 232.137 314.745C232.553 314.489 233.033 314.361 233.577 314.361C234.398 314.361 234.995 314.617 235.369 315.129C235.753 315.641 235.945 316.398 235.945 317.401V322.329H234.633V317.577C234.633 316.841 234.515 316.313 234.281 315.993C234.046 315.662 233.673 315.497 233.161 315.497C232.755 315.497 232.398 315.598 232.089 315.801C231.779 316.003 231.427 316.302 231.033 316.697V322.329H229.721ZM242.423 322.521C241.9 322.521 241.409 322.43 240.951 322.249C240.503 322.057 240.108 321.79 239.767 321.449C239.436 321.097 239.175 320.67 238.983 320.169C238.791 319.667 238.695 319.097 238.695 318.457C238.695 317.817 238.791 317.246 238.983 316.745C239.185 316.233 239.447 315.801 239.767 315.449C240.097 315.097 240.471 314.83 240.887 314.649C241.303 314.457 241.735 314.361 242.183 314.361C242.673 314.361 243.111 314.446 243.495 314.617C243.889 314.787 244.215 315.033 244.471 315.353C244.737 315.673 244.94 316.057 245.079 316.505C245.217 316.953 245.287 317.454 245.287 318.009C245.287 318.147 245.281 318.286 245.271 318.425C245.271 318.553 245.26 318.665 245.239 318.761H239.991C240.044 319.593 240.3 320.254 240.759 320.745C241.228 321.225 241.836 321.465 242.583 321.465C242.956 321.465 243.297 321.411 243.607 321.305C243.927 321.187 244.231 321.038 244.519 320.857L244.983 321.721C244.641 321.934 244.263 322.121 243.847 322.281C243.431 322.441 242.956 322.521 242.423 322.521ZM239.975 317.817H244.135C244.135 317.027 243.964 316.43 243.623 316.025C243.292 315.609 242.823 315.401 242.215 315.401C241.937 315.401 241.671 315.454 241.415 315.561C241.169 315.667 240.945 315.827 240.743 316.041C240.54 316.243 240.369 316.494 240.231 316.793C240.103 317.091 240.017 317.433 239.975 317.817ZM251.08 322.521C250.568 322.521 250.088 322.43 249.64 322.249C249.192 322.067 248.803 321.806 248.472 321.465C248.152 321.113 247.896 320.686 247.704 320.185C247.523 319.673 247.432 319.097 247.432 318.457C247.432 317.806 247.534 317.23 247.736 316.729C247.939 316.217 248.211 315.785 248.552 315.433C248.894 315.081 249.288 314.814 249.736 314.633C250.195 314.451 250.675 314.361 251.176 314.361C251.688 314.361 252.126 314.451 252.488 314.633C252.851 314.814 253.171 315.027 253.448 315.273L252.776 316.137C252.552 315.934 252.312 315.769 252.056 315.641C251.811 315.513 251.534 315.449 251.224 315.449C250.872 315.449 250.547 315.523 250.248 315.673C249.95 315.811 249.694 316.014 249.48 316.281C249.267 316.547 249.096 316.867 248.968 317.241C248.851 317.603 248.792 318.009 248.792 318.457C248.792 318.905 248.851 319.31 248.968 319.673C249.086 320.035 249.246 320.35 249.448 320.617C249.662 320.873 249.918 321.075 250.216 321.225C250.515 321.363 250.84 321.433 251.192 321.433C251.555 321.433 251.886 321.358 252.184 321.209C252.494 321.049 252.771 320.862 253.016 320.649L253.592 321.529C253.24 321.838 252.851 322.083 252.424 322.265C251.998 322.435 251.55 322.521 251.08 322.521ZM258.397 322.521C257.981 322.521 257.629 322.457 257.341 322.329C257.064 322.201 256.834 322.025 256.653 321.801C256.482 321.577 256.36 321.305 256.285 320.985C256.21 320.665 256.173 320.313 256.173 319.929V315.625H255.021V314.633L256.237 314.553L256.397 312.377H257.501V314.553H259.597V315.625H257.501V319.945C257.501 320.425 257.586 320.798 257.757 321.065C257.938 321.321 258.253 321.449 258.701 321.449C258.84 321.449 258.989 321.427 259.149 321.385C259.309 321.342 259.453 321.294 259.581 321.241L259.837 322.233C259.624 322.307 259.389 322.371 259.133 322.425C258.888 322.489 258.642 322.521 258.397 322.521ZM262.155 322.329V314.553H263.467V322.329H262.155ZM262.827 312.953C262.571 312.953 262.352 312.873 262.171 312.713C262 312.553 261.915 312.35 261.915 312.105C261.915 311.849 262 311.646 262.171 311.497C262.352 311.337 262.571 311.257 262.827 311.257C263.083 311.257 263.296 311.337 263.467 311.497C263.648 311.646 263.739 311.849 263.739 312.105C263.739 312.35 263.648 312.553 263.467 312.713C263.296 312.873 263.083 312.953 262.827 312.953ZM269.917 322.521C269.437 322.521 268.978 322.43 268.541 322.249C268.114 322.067 267.735 321.806 267.405 321.465C267.074 321.113 266.807 320.686 266.605 320.185C266.413 319.673 266.317 319.097 266.317 318.457C266.317 317.806 266.413 317.23 266.605 316.729C266.807 316.217 267.074 315.785 267.405 315.433C267.735 315.081 268.114 314.814 268.541 314.633C268.978 314.451 269.437 314.361 269.917 314.361C270.397 314.361 270.85 314.451 271.277 314.633C271.714 314.814 272.098 315.081 272.429 315.433C272.759 315.785 273.021 316.217 273.213 316.729C273.415 317.23 273.517 317.806 273.517 318.457C273.517 319.097 273.415 319.673 273.213 320.185C273.021 320.686 272.759 321.113 272.429 321.465C272.098 321.806 271.714 322.067 271.277 322.249C270.85 322.43 270.397 322.521 269.917 322.521ZM269.917 321.433C270.247 321.433 270.551 321.363 270.829 321.225C271.106 321.075 271.341 320.873 271.533 320.617C271.735 320.35 271.89 320.035 271.997 319.673C272.103 319.31 272.157 318.905 272.157 318.457C272.157 318.009 272.103 317.603 271.997 317.241C271.89 316.867 271.735 316.547 271.533 316.281C271.341 316.014 271.106 315.811 270.829 315.673C270.551 315.523 270.247 315.449 269.917 315.449C269.586 315.449 269.282 315.523 269.005 315.673C268.727 315.811 268.487 316.014 268.285 316.281C268.093 316.547 267.943 316.867 267.837 317.241C267.73 317.603 267.677 318.009 267.677 318.457C267.677 318.905 267.73 319.31 267.837 319.673C267.943 320.035 268.093 320.35 268.285 320.617C268.487 320.873 268.727 321.075 269.005 321.225C269.282 321.363 269.586 321.433 269.917 321.433ZM276.365 322.329V314.553H277.453L277.565 315.673H277.613C277.986 315.299 278.375 314.99 278.781 314.745C279.197 314.489 279.677 314.361 280.221 314.361C281.042 314.361 281.639 314.617 282.013 315.129C282.397 315.641 282.589 316.398 282.589 317.401V322.329H281.277V317.577C281.277 316.841 281.159 316.313 280.925 315.993C280.69 315.662 280.317 315.497 279.805 315.497C279.399 315.497 279.042 315.598 278.733 315.801C278.423 316.003 278.071 316.302 277.677 316.697V322.329H276.365ZM287.947 322.521C287.392 322.521 286.864 322.419 286.363 322.217C285.861 322.014 285.424 321.758 285.051 321.449L285.707 320.569C286.048 320.846 286.395 321.07 286.747 321.241C287.109 321.411 287.525 321.497 287.995 321.497C288.507 321.497 288.891 321.379 289.147 321.145C289.403 320.91 289.531 320.622 289.531 320.281C289.531 320.078 289.477 319.902 289.371 319.753C289.264 319.603 289.125 319.475 288.955 319.369C288.795 319.251 288.608 319.15 288.395 319.065C288.181 318.979 287.968 318.894 287.755 318.809C287.477 318.713 287.2 318.606 286.923 318.489C286.645 318.361 286.395 318.211 286.171 318.041C285.957 317.859 285.781 317.651 285.643 317.417C285.504 317.182 285.435 316.899 285.435 316.569C285.435 316.259 285.493 315.971 285.611 315.705C285.739 315.427 285.915 315.193 286.139 315.001C286.373 314.798 286.656 314.643 286.987 314.537C287.317 314.419 287.691 314.361 288.107 314.361C288.597 314.361 289.045 314.446 289.451 314.617C289.867 314.787 290.224 314.995 290.523 315.241L289.899 316.073C289.632 315.87 289.355 315.705 289.067 315.577C288.779 315.449 288.464 315.385 288.123 315.385C287.632 315.385 287.269 315.497 287.035 315.721C286.811 315.945 286.699 316.206 286.699 316.505C286.699 316.686 286.747 316.846 286.843 316.985C286.939 317.113 287.067 317.23 287.227 317.337C287.387 317.433 287.568 317.523 287.771 317.609C287.984 317.683 288.203 317.763 288.427 317.849C288.704 317.955 288.981 318.067 289.259 318.185C289.547 318.302 289.803 318.451 290.027 318.633C290.251 318.803 290.432 319.017 290.571 319.273C290.72 319.529 290.795 319.838 290.795 320.201C290.795 320.521 290.731 320.819 290.603 321.097C290.485 321.374 290.304 321.619 290.059 321.833C289.824 322.046 289.525 322.211 289.163 322.329C288.811 322.457 288.405 322.521 287.947 322.521ZM298.653 322.329L296.493 314.553H297.837L298.989 319.049C299.074 319.422 299.154 319.785 299.229 320.137C299.303 320.489 299.378 320.846 299.453 321.209H299.517C299.602 320.846 299.687 320.489 299.773 320.137C299.858 319.774 299.949 319.411 300.045 319.049L301.245 314.553H302.525L303.741 319.049C303.837 319.422 303.927 319.785 304.013 320.137C304.109 320.489 304.199 320.846 304.285 321.209H304.349C304.434 320.846 304.514 320.489 304.589 320.137C304.663 319.785 304.743 319.422 304.829 319.049L305.965 314.553H307.213L305.133 322.329H303.533L302.413 318.153C302.317 317.779 302.226 317.411 302.141 317.049C302.066 316.686 301.981 316.307 301.885 315.913H301.821C301.735 316.307 301.65 316.691 301.565 317.065C301.479 317.427 301.383 317.795 301.277 318.169L300.189 322.329H298.653ZM309.705 322.329V314.553H311.017V322.329H309.705ZM310.377 312.953C310.121 312.953 309.902 312.873 309.721 312.713C309.55 312.553 309.465 312.35 309.465 312.105C309.465 311.849 309.55 311.646 309.721 311.497C309.902 311.337 310.121 311.257 310.377 311.257C310.633 311.257 310.846 311.337 311.017 311.497C311.198 311.646 311.289 311.849 311.289 312.105C311.289 312.35 311.198 312.553 311.017 312.713C310.846 312.873 310.633 312.953 310.377 312.953ZM316.891 322.521C316.475 322.521 316.123 322.457 315.835 322.329C315.557 322.201 315.328 322.025 315.147 321.801C314.976 321.577 314.853 321.305 314.779 320.985C314.704 320.665 314.667 320.313 314.667 319.929V315.625H313.515V314.633L314.731 314.553L314.891 312.377H315.995V314.553H318.091V315.625H315.995V319.945C315.995 320.425 316.08 320.798 316.251 321.065C316.432 321.321 316.747 321.449 317.195 321.449C317.333 321.449 317.483 321.427 317.643 321.385C317.803 321.342 317.947 321.294 318.075 321.241L318.331 322.233C318.117 322.307 317.883 322.371 317.627 322.425C317.381 322.489 317.136 322.521 316.891 322.521ZM320.649 322.329V310.937H321.961V314.041L321.913 315.641C322.286 315.289 322.676 314.99 323.081 314.745C323.486 314.489 323.961 314.361 324.505 314.361C325.326 314.361 325.924 314.617 326.297 315.129C326.681 315.641 326.873 316.398 326.873 317.401V322.329H325.561V317.577C325.561 316.841 325.444 316.313 325.209 315.993C324.974 315.662 324.601 315.497 324.089 315.497C323.684 315.497 323.326 315.598 323.017 315.801C322.708 316.003 322.356 316.302 321.961 316.697V322.329H320.649ZM75.0239 349.609V338.553H76.1119L76.2239 339.449H76.2719C76.6239 339.15 77.0079 338.894 77.4239 338.681C77.8506 338.467 78.2932 338.361 78.7519 338.361C79.2532 338.361 79.6959 338.457 80.0799 338.649C80.4639 338.83 80.7839 339.097 81.0399 339.449C81.2959 339.79 81.4879 340.206 81.6159 340.697C81.7546 341.177 81.8239 341.721 81.8239 342.329C81.8239 342.99 81.7332 343.582 81.5519 344.105C81.3706 344.617 81.1252 345.054 80.8159 345.417C80.5066 345.779 80.1492 346.057 79.7439 346.249C79.3386 346.43 78.9119 346.521 78.4639 346.521C78.1012 346.521 77.7386 346.441 77.3759 346.281C77.0239 346.121 76.6666 345.902 76.3039 345.625L76.3359 346.985V349.609H75.0239ZM78.2399 345.417C78.5599 345.417 78.8532 345.347 79.1199 345.209C79.3972 345.059 79.6319 344.857 79.8239 344.601C80.0266 344.334 80.1812 344.009 80.2879 343.625C80.4052 343.241 80.4639 342.809 80.4639 342.329C80.4639 341.902 80.4266 341.513 80.3519 341.161C80.2772 340.809 80.1546 340.51 79.9839 340.265C79.8239 340.009 79.6106 339.811 79.3439 339.673C79.0879 339.534 78.7786 339.465 78.4159 339.465C78.0852 339.465 77.7492 339.555 77.4079 339.737C77.0772 339.918 76.7199 340.179 76.3359 340.521V344.601C76.6879 344.899 77.0292 345.113 77.3599 345.241C77.6906 345.358 77.9839 345.417 78.2399 345.417ZM84.6989 346.329V338.553H85.7869L85.8989 339.961H85.9469C86.2136 339.47 86.5336 339.081 86.9069 338.793C87.2909 338.505 87.7069 338.361 88.1549 338.361C88.4642 338.361 88.7416 338.414 88.9869 338.521L88.7309 339.673C88.6029 339.63 88.4856 339.598 88.3789 339.577C88.2722 339.555 88.1389 339.545 87.9789 339.545C87.6482 339.545 87.3016 339.678 86.9389 339.945C86.5869 340.211 86.2776 340.675 86.0109 341.337V346.329H84.6989ZM93.9135 346.521C93.4335 346.521 92.9749 346.43 92.5375 346.249C92.1109 346.067 91.7322 345.806 91.4015 345.465C91.0709 345.113 90.8042 344.686 90.6015 344.185C90.4095 343.673 90.3135 343.097 90.3135 342.457C90.3135 341.806 90.4095 341.23 90.6015 340.729C90.8042 340.217 91.0709 339.785 91.4015 339.433C91.7322 339.081 92.1109 338.814 92.5375 338.633C92.9749 338.451 93.4335 338.361 93.9135 338.361C94.3935 338.361 94.8469 338.451 95.2735 338.633C95.7109 338.814 96.0949 339.081 96.4255 339.433C96.7562 339.785 97.0175 340.217 97.2095 340.729C97.4122 341.23 97.5135 341.806 97.5135 342.457C97.5135 343.097 97.4122 343.673 97.2095 344.185C97.0175 344.686 96.7562 345.113 96.4255 345.465C96.0949 345.806 95.7109 346.067 95.2735 346.249C94.8469 346.43 94.3935 346.521 93.9135 346.521ZM93.9135 345.433C94.2442 345.433 94.5482 345.363 94.8255 345.225C95.1029 345.075 95.3375 344.873 95.5295 344.617C95.7322 344.35 95.8869 344.035 95.9935 343.673C96.1002 343.31 96.1535 342.905 96.1535 342.457C96.1535 342.009 96.1002 341.603 95.9935 341.241C95.8869 340.867 95.7322 340.547 95.5295 340.281C95.3375 340.014 95.1029 339.811 94.8255 339.673C94.5482 339.523 94.2442 339.449 93.9135 339.449C93.5829 339.449 93.2789 339.523 93.0015 339.673C92.7242 339.811 92.4842 340.014 92.2815 340.281C92.0895 340.547 91.9402 340.867 91.8335 341.241C91.7269 341.603 91.6735 342.009 91.6735 342.457C91.6735 342.905 91.7269 343.31 91.8335 343.673C91.9402 344.035 92.0895 344.35 92.2815 344.617C92.4842 344.873 92.7242 345.075 93.0015 345.225C93.2789 345.363 93.5829 345.433 93.9135 345.433ZM100.585 346.329V339.625H99.5294V338.633L100.585 338.553V337.321C100.585 336.521 100.767 335.891 101.129 335.433C101.503 334.974 102.079 334.745 102.857 334.745C103.103 334.745 103.332 334.771 103.545 334.825C103.769 334.867 103.972 334.926 104.153 335.001L103.865 336.009C103.577 335.881 103.284 335.817 102.985 335.817C102.26 335.817 101.897 336.318 101.897 337.321V338.553H103.545V339.625H101.897V346.329H100.585ZM108.829 346.521C108.306 346.521 107.816 346.43 107.357 346.249C106.909 346.057 106.514 345.79 106.173 345.449C105.842 345.097 105.581 344.67 105.389 344.169C105.197 343.667 105.101 343.097 105.101 342.457C105.101 341.817 105.197 341.246 105.389 340.745C105.592 340.233 105.853 339.801 106.173 339.449C106.504 339.097 106.877 338.83 107.293 338.649C107.709 338.457 108.141 338.361 108.589 338.361C109.08 338.361 109.517 338.446 109.901 338.617C110.296 338.787 110.621 339.033 110.877 339.353C111.144 339.673 111.346 340.057 111.485 340.505C111.624 340.953 111.693 341.454 111.693 342.009C111.693 342.147 111.688 342.286 111.677 342.425C111.677 342.553 111.666 342.665 111.645 342.761H106.397C106.45 343.593 106.706 344.254 107.165 344.745C107.634 345.225 108.242 345.465 108.989 345.465C109.362 345.465 109.704 345.411 110.013 345.305C110.333 345.187 110.637 345.038 110.925 344.857L111.389 345.721C111.048 345.934 110.669 346.121 110.253 346.281C109.837 346.441 109.362 346.521 108.829 346.521ZM106.381 341.817H110.541C110.541 341.027 110.37 340.43 110.029 340.025C109.698 339.609 109.229 339.401 108.621 339.401C108.344 339.401 108.077 339.454 107.821 339.561C107.576 339.667 107.352 339.827 107.149 340.041C106.946 340.243 106.776 340.494 106.637 340.793C106.509 341.091 106.424 341.433 106.381 341.817ZM116.447 346.521C115.892 346.521 115.364 346.419 114.863 346.217C114.361 346.014 113.924 345.758 113.551 345.449L114.207 344.569C114.548 344.846 114.895 345.07 115.247 345.241C115.609 345.411 116.025 345.497 116.495 345.497C117.007 345.497 117.391 345.379 117.647 345.145C117.903 344.91 118.031 344.622 118.031 344.281C118.031 344.078 117.977 343.902 117.871 343.753C117.764 343.603 117.625 343.475 117.455 343.369C117.295 343.251 117.108 343.15 116.895 343.065C116.681 342.979 116.468 342.894 116.255 342.809C115.977 342.713 115.7 342.606 115.423 342.489C115.145 342.361 114.895 342.211 114.671 342.041C114.457 341.859 114.281 341.651 114.143 341.417C114.004 341.182 113.935 340.899 113.935 340.569C113.935 340.259 113.993 339.971 114.111 339.705C114.239 339.427 114.415 339.193 114.639 339.001C114.873 338.798 115.156 338.643 115.487 338.537C115.817 338.419 116.191 338.361 116.607 338.361C117.097 338.361 117.545 338.446 117.951 338.617C118.367 338.787 118.724 338.995 119.023 339.241L118.399 340.073C118.132 339.87 117.855 339.705 117.567 339.577C117.279 339.449 116.964 339.385 116.623 339.385C116.132 339.385 115.769 339.497 115.535 339.721C115.311 339.945 115.199 340.206 115.199 340.505C115.199 340.686 115.247 340.846 115.343 340.985C115.439 341.113 115.567 341.23 115.727 341.337C115.887 341.433 116.068 341.523 116.271 341.609C116.484 341.683 116.703 341.763 116.927 341.849C117.204 341.955 117.481 342.067 117.759 342.185C118.047 342.302 118.303 342.451 118.527 342.633C118.751 342.803 118.932 343.017 119.071 343.273C119.22 343.529 119.295 343.838 119.295 344.201C119.295 344.521 119.231 344.819 119.103 345.097C118.985 345.374 118.804 345.619 118.559 345.833C118.324 346.046 118.025 346.211 117.663 346.329C117.311 346.457 116.905 346.521 116.447 346.521ZM123.95 346.521C123.395 346.521 122.867 346.419 122.366 346.217C121.864 346.014 121.427 345.758 121.054 345.449L121.71 344.569C122.051 344.846 122.398 345.07 122.75 345.241C123.112 345.411 123.528 345.497 123.998 345.497C124.51 345.497 124.894 345.379 125.15 345.145C125.406 344.91 125.534 344.622 125.534 344.281C125.534 344.078 125.48 343.902 125.374 343.753C125.267 343.603 125.128 343.475 124.958 343.369C124.798 343.251 124.611 343.15 124.398 343.065C124.184 342.979 123.971 342.894 123.758 342.809C123.48 342.713 123.203 342.606 122.926 342.489C122.648 342.361 122.398 342.211 122.174 342.041C121.96 341.859 121.784 341.651 121.646 341.417C121.507 341.182 121.438 340.899 121.438 340.569C121.438 340.259 121.496 339.971 121.614 339.705C121.742 339.427 121.918 339.193 122.142 339.001C122.376 338.798 122.659 338.643 122.99 338.537C123.32 338.419 123.694 338.361 124.11 338.361C124.6 338.361 125.048 338.446 125.454 338.617C125.87 338.787 126.227 338.995 126.526 339.241L125.902 340.073C125.635 339.87 125.358 339.705 125.07 339.577C124.782 339.449 124.467 339.385 124.126 339.385C123.635 339.385 123.272 339.497 123.038 339.721C122.814 339.945 122.702 340.206 122.702 340.505C122.702 340.686 122.75 340.846 122.846 340.985C122.942 341.113 123.07 341.23 123.23 341.337C123.39 341.433 123.571 341.523 123.774 341.609C123.987 341.683 124.206 341.763 124.43 341.849C124.707 341.955 124.984 342.067 125.262 342.185C125.55 342.302 125.806 342.451 126.03 342.633C126.254 342.803 126.435 343.017 126.574 343.273C126.723 343.529 126.798 343.838 126.798 344.201C126.798 344.521 126.734 344.819 126.606 345.097C126.488 345.374 126.307 345.619 126.062 345.833C125.827 346.046 125.528 346.211 125.166 346.329C124.814 346.457 124.408 346.521 123.95 346.521ZM129.421 346.329V338.553H130.733V346.329H129.421ZM130.093 336.953C129.837 336.953 129.618 336.873 129.437 336.713C129.266 336.553 129.181 336.35 129.181 336.105C129.181 335.849 129.266 335.646 129.437 335.497C129.618 335.337 129.837 335.257 130.093 335.257C130.349 335.257 130.562 335.337 130.733 335.497C130.914 335.646 131.005 335.849 131.005 336.105C131.005 336.35 130.914 336.553 130.733 336.713C130.562 336.873 130.349 336.953 130.093 336.953ZM137.182 346.521C136.702 346.521 136.244 346.43 135.806 346.249C135.38 346.067 135.001 345.806 134.67 345.465C134.34 345.113 134.073 344.686 133.87 344.185C133.678 343.673 133.582 343.097 133.582 342.457C133.582 341.806 133.678 341.23 133.87 340.729C134.073 340.217 134.34 339.785 134.67 339.433C135.001 339.081 135.38 338.814 135.806 338.633C136.244 338.451 136.702 338.361 137.182 338.361C137.662 338.361 138.116 338.451 138.542 338.633C138.98 338.814 139.364 339.081 139.694 339.433C140.025 339.785 140.286 340.217 140.478 340.729C140.681 341.23 140.782 341.806 140.782 342.457C140.782 343.097 140.681 343.673 140.478 344.185C140.286 344.686 140.025 345.113 139.694 345.465C139.364 345.806 138.98 346.067 138.542 346.249C138.116 346.43 137.662 346.521 137.182 346.521ZM137.182 345.433C137.513 345.433 137.817 345.363 138.094 345.225C138.372 345.075 138.606 344.873 138.798 344.617C139.001 344.35 139.156 344.035 139.262 343.673C139.369 343.31 139.422 342.905 139.422 342.457C139.422 342.009 139.369 341.603 139.262 341.241C139.156 340.867 139.001 340.547 138.798 340.281C138.606 340.014 138.372 339.811 138.094 339.673C137.817 339.523 137.513 339.449 137.182 339.449C136.852 339.449 136.548 339.523 136.27 339.673C135.993 339.811 135.753 340.014 135.55 340.281C135.358 340.547 135.209 340.867 135.102 341.241C134.996 341.603 134.942 342.009 134.942 342.457C134.942 342.905 134.996 343.31 135.102 343.673C135.209 344.035 135.358 344.35 135.55 344.617C135.753 344.873 135.993 345.075 136.27 345.225C136.548 345.363 136.852 345.433 137.182 345.433ZM143.63 346.329V338.553H144.718L144.83 339.673H144.878C145.251 339.299 145.641 338.99 146.046 338.745C146.462 338.489 146.942 338.361 147.486 338.361C148.307 338.361 148.905 338.617 149.278 339.129C149.662 339.641 149.854 340.398 149.854 341.401V346.329H148.542V341.577C148.542 340.841 148.425 340.313 148.19 339.993C147.955 339.662 147.582 339.497 147.07 339.497C146.665 339.497 146.307 339.598 145.998 339.801C145.689 340.003 145.337 340.302 144.942 340.697V346.329H143.63ZM154.972 346.521C154.321 346.521 153.777 346.329 153.34 345.945C152.913 345.561 152.7 345.017 152.7 344.313C152.7 343.459 153.079 342.809 153.836 342.361C154.593 341.902 155.804 341.582 157.468 341.401C157.468 341.155 157.441 340.915 157.388 340.681C157.345 340.446 157.265 340.238 157.148 340.057C157.031 339.875 156.865 339.731 156.652 339.625C156.449 339.507 156.188 339.449 155.868 339.449C155.42 339.449 154.999 339.534 154.604 339.705C154.209 339.875 153.857 340.067 153.548 340.281L153.036 339.369C153.399 339.134 153.841 338.91 154.364 338.697C154.887 338.473 155.463 338.361 156.092 338.361C157.041 338.361 157.729 338.654 158.156 339.241C158.583 339.817 158.796 340.59 158.796 341.561V346.329H157.708L157.596 345.401H157.548C157.175 345.71 156.775 345.977 156.348 346.201C155.921 346.414 155.463 346.521 154.972 346.521ZM155.356 345.465C155.729 345.465 156.081 345.379 156.412 345.209C156.743 345.027 157.095 344.766 157.468 344.425V342.265C156.817 342.35 156.268 342.451 155.82 342.569C155.383 342.686 155.025 342.825 154.748 342.985C154.481 343.145 154.284 343.331 154.156 343.545C154.039 343.747 153.98 343.971 153.98 344.217C153.98 344.665 154.113 344.985 154.38 345.177C154.647 345.369 154.972 345.465 155.356 345.465ZM163.435 346.521C162.933 346.521 162.576 346.371 162.363 346.073C162.149 345.774 162.043 345.337 162.043 344.761V334.937H163.355V344.857C163.355 345.07 163.392 345.219 163.467 345.305C163.541 345.39 163.627 345.433 163.723 345.433C163.765 345.433 163.803 345.433 163.835 345.433C163.877 345.433 163.936 345.422 164.011 345.401L164.187 346.393C164.101 346.435 164 346.467 163.883 346.489C163.765 346.51 163.616 346.521 163.435 346.521ZM168.953 346.521C168.398 346.521 167.87 346.419 167.369 346.217C166.867 346.014 166.43 345.758 166.057 345.449L166.713 344.569C167.054 344.846 167.401 345.07 167.753 345.241C168.115 345.411 168.531 345.497 169.001 345.497C169.513 345.497 169.897 345.379 170.153 345.145C170.409 344.91 170.537 344.622 170.537 344.281C170.537 344.078 170.483 343.902 170.377 343.753C170.27 343.603 170.131 343.475 169.961 343.369C169.801 343.251 169.614 343.15 169.401 343.065C169.187 342.979 168.974 342.894 168.761 342.809C168.483 342.713 168.206 342.606 167.929 342.489C167.651 342.361 167.401 342.211 167.177 342.041C166.963 341.859 166.787 341.651 166.649 341.417C166.51 341.182 166.441 340.899 166.441 340.569C166.441 340.259 166.499 339.971 166.617 339.705C166.745 339.427 166.921 339.193 167.145 339.001C167.379 338.798 167.662 338.643 167.993 338.537C168.323 338.419 168.697 338.361 169.113 338.361C169.603 338.361 170.051 338.446 170.457 338.617C170.873 338.787 171.23 338.995 171.529 339.241L170.905 340.073C170.638 339.87 170.361 339.705 170.073 339.577C169.785 339.449 169.47 339.385 169.129 339.385C168.638 339.385 168.275 339.497 168.041 339.721C167.817 339.945 167.705 340.206 167.705 340.505C167.705 340.686 167.753 340.846 167.849 340.985C167.945 341.113 168.073 341.23 168.233 341.337C168.393 341.433 168.574 341.523 168.777 341.609C168.99 341.683 169.209 341.763 169.433 341.849C169.71 341.955 169.987 342.067 170.265 342.185C170.553 342.302 170.809 342.451 171.033 342.633C171.257 342.803 171.438 343.017 171.577 343.273C171.726 343.529 171.801 343.838 171.801 344.201C171.801 344.521 171.737 344.819 171.609 345.097C171.491 345.374 171.31 345.619 171.065 345.833C170.83 346.046 170.531 346.211 170.169 346.329C169.817 346.457 169.411 346.521 168.953 346.521ZM178.427 346.329V338.553H179.739V346.329H178.427ZM179.099 336.953C178.843 336.953 178.624 336.873 178.443 336.713C178.272 336.553 178.187 336.35 178.187 336.105C178.187 335.849 178.272 335.646 178.443 335.497C178.624 335.337 178.843 335.257 179.099 335.257C179.355 335.257 179.568 335.337 179.739 335.497C179.92 335.646 180.011 335.849 180.011 336.105C180.011 336.35 179.92 336.553 179.739 336.713C179.568 336.873 179.355 336.953 179.099 336.953ZM183.165 346.329V338.553H184.253L184.365 339.673H184.413C184.786 339.299 185.175 338.99 185.581 338.745C185.997 338.489 186.477 338.361 187.021 338.361C187.842 338.361 188.439 338.617 188.813 339.129C189.197 339.641 189.389 340.398 189.389 341.401V346.329H188.077V341.577C188.077 340.841 187.959 340.313 187.725 339.993C187.49 339.662 187.117 339.497 186.605 339.497C186.199 339.497 185.842 339.598 185.533 339.801C185.223 340.003 184.871 340.302 184.477 340.697V346.329H183.165ZM199.166 346.521C198.75 346.521 198.398 346.457 198.11 346.329C197.832 346.201 197.603 346.025 197.422 345.801C197.251 345.577 197.128 345.305 197.054 344.985C196.979 344.665 196.942 344.313 196.942 343.929V339.625H195.79V338.633L197.006 338.553L197.166 336.377H198.27V338.553H200.366V339.625H198.27V343.945C198.27 344.425 198.355 344.798 198.526 345.065C198.707 345.321 199.022 345.449 199.47 345.449C199.608 345.449 199.758 345.427 199.918 345.385C200.078 345.342 200.222 345.294 200.35 345.241L200.606 346.233C200.392 346.307 200.158 346.371 199.902 346.425C199.656 346.489 199.411 346.521 199.166 346.521ZM202.924 346.329V334.937H204.236V338.041L204.188 339.641C204.561 339.289 204.951 338.99 205.356 338.745C205.761 338.489 206.236 338.361 206.78 338.361C207.601 338.361 208.199 338.617 208.572 339.129C208.956 339.641 209.148 340.398 209.148 341.401V346.329H207.836V341.577C207.836 340.841 207.719 340.313 207.484 339.993C207.249 339.662 206.876 339.497 206.364 339.497C205.959 339.497 205.601 339.598 205.292 339.801C204.983 340.003 204.631 340.302 204.236 340.697V346.329H202.924ZM215.579 346.521C215.056 346.521 214.566 346.43 214.107 346.249C213.659 346.057 213.264 345.79 212.923 345.449C212.592 345.097 212.331 344.67 212.139 344.169C211.947 343.667 211.851 343.097 211.851 342.457C211.851 341.817 211.947 341.246 212.139 340.745C212.342 340.233 212.603 339.801 212.923 339.449C213.254 339.097 213.627 338.83 214.043 338.649C214.459 338.457 214.891 338.361 215.339 338.361C215.83 338.361 216.267 338.446 216.651 338.617C217.046 338.787 217.371 339.033 217.627 339.353C217.894 339.673 218.096 340.057 218.235 340.505C218.374 340.953 218.443 341.454 218.443 342.009C218.443 342.147 218.438 342.286 218.427 342.425C218.427 342.553 218.416 342.665 218.395 342.761H213.147C213.2 343.593 213.456 344.254 213.915 344.745C214.384 345.225 214.992 345.465 215.739 345.465C216.112 345.465 216.454 345.411 216.763 345.305C217.083 345.187 217.387 345.038 217.675 344.857L218.139 345.721C217.798 345.934 217.419 346.121 217.003 346.281C216.587 346.441 216.112 346.521 215.579 346.521ZM213.131 341.817H217.291C217.291 341.027 217.12 340.43 216.779 340.025C216.448 339.609 215.979 339.401 215.371 339.401C215.094 339.401 214.827 339.454 214.571 339.561C214.326 339.667 214.102 339.827 213.899 340.041C213.696 340.243 213.526 340.494 213.387 340.793C213.259 341.091 213.174 341.433 213.131 341.817ZM227.616 346.521C227.2 346.521 226.848 346.457 226.56 346.329C226.282 346.201 226.053 346.025 225.872 345.801C225.701 345.577 225.578 345.305 225.504 344.985C225.429 344.665 225.392 344.313 225.392 343.929V339.625H224.24V338.633L225.456 338.553L225.616 336.377H226.72V338.553H228.816V339.625H226.72V343.945C226.72 344.425 226.805 344.798 226.976 345.065C227.157 345.321 227.472 345.449 227.92 345.449C228.058 345.449 228.208 345.427 228.368 345.385C228.528 345.342 228.672 345.294 228.8 345.241L229.056 346.233C228.842 346.307 228.608 346.371 228.352 346.425C228.106 346.489 227.861 346.521 227.616 346.521ZM234.307 346.521C233.785 346.521 233.294 346.43 232.835 346.249C232.387 346.057 231.993 345.79 231.651 345.449C231.321 345.097 231.059 344.67 230.867 344.169C230.675 343.667 230.579 343.097 230.579 342.457C230.579 341.817 230.675 341.246 230.867 340.745C231.07 340.233 231.331 339.801 231.651 339.449C231.982 339.097 232.355 338.83 232.771 338.649C233.187 338.457 233.619 338.361 234.067 338.361C234.558 338.361 234.995 338.446 235.379 338.617C235.774 338.787 236.099 339.033 236.355 339.353C236.622 339.673 236.825 340.057 236.963 340.505C237.102 340.953 237.171 341.454 237.171 342.009C237.171 342.147 237.166 342.286 237.155 342.425C237.155 342.553 237.145 342.665 237.123 342.761H231.875C231.929 343.593 232.185 344.254 232.643 344.745C233.113 345.225 233.721 345.465 234.467 345.465C234.841 345.465 235.182 345.411 235.491 345.305C235.811 345.187 236.115 345.038 236.403 344.857L236.867 345.721C236.526 345.934 236.147 346.121 235.731 346.281C235.315 346.441 234.841 346.521 234.307 346.521ZM231.859 341.817H236.019C236.019 341.027 235.849 340.43 235.507 340.025C235.177 339.609 234.707 339.401 234.099 339.401C233.822 339.401 233.555 339.454 233.299 339.561C233.054 339.667 232.83 339.827 232.627 340.041C232.425 340.243 232.254 340.494 232.115 340.793C231.987 341.091 231.902 341.433 231.859 341.817ZM242.965 346.521C242.453 346.521 241.973 346.43 241.525 346.249C241.077 346.067 240.687 345.806 240.357 345.465C240.037 345.113 239.781 344.686 239.589 344.185C239.407 343.673 239.317 343.097 239.317 342.457C239.317 341.806 239.418 341.23 239.621 340.729C239.823 340.217 240.095 339.785 240.437 339.433C240.778 339.081 241.173 338.814 241.621 338.633C242.079 338.451 242.559 338.361 243.061 338.361C243.573 338.361 244.01 338.451 244.373 338.633C244.735 338.814 245.055 339.027 245.333 339.273L244.661 340.137C244.437 339.934 244.197 339.769 243.941 339.641C243.695 339.513 243.418 339.449 243.109 339.449C242.757 339.449 242.431 339.523 242.133 339.673C241.834 339.811 241.578 340.014 241.365 340.281C241.151 340.547 240.981 340.867 240.853 341.241C240.735 341.603 240.677 342.009 240.677 342.457C240.677 342.905 240.735 343.31 240.853 343.673C240.97 344.035 241.13 344.35 241.333 344.617C241.546 344.873 241.802 345.075 242.101 345.225C242.399 345.363 242.725 345.433 243.077 345.433C243.439 345.433 243.77 345.358 244.069 345.209C244.378 345.049 244.655 344.862 244.901 344.649L245.477 345.529C245.125 345.838 244.735 346.083 244.309 346.265C243.882 346.435 243.434 346.521 242.965 346.521ZM247.99 346.329V334.937H249.302V338.041L249.254 339.641C249.627 339.289 250.016 338.99 250.422 338.745C250.827 338.489 251.302 338.361 251.846 338.361C252.667 338.361 253.264 338.617 253.638 339.129C254.022 339.641 254.214 340.398 254.214 341.401V346.329H252.902V341.577C252.902 340.841 252.784 340.313 252.55 339.993C252.315 339.662 251.942 339.497 251.43 339.497C251.024 339.497 250.667 339.598 250.358 339.801C250.048 340.003 249.696 340.302 249.302 340.697V346.329H247.99ZM261.496 346.329V338.553H262.808V346.329H261.496ZM262.168 336.953C261.912 336.953 261.693 336.873 261.512 336.713C261.341 336.553 261.256 336.35 261.256 336.105C261.256 335.849 261.341 335.646 261.512 335.497C261.693 335.337 261.912 335.257 262.168 335.257C262.424 335.257 262.637 335.337 262.808 335.497C262.989 335.646 263.08 335.849 263.08 336.105C263.08 336.35 262.989 336.553 262.808 336.713C262.637 336.873 262.424 336.953 262.168 336.953ZM266.233 346.329V338.553H267.321L267.433 339.673H267.481C267.855 339.299 268.244 338.99 268.649 338.745C269.065 338.489 269.545 338.361 270.089 338.361C270.911 338.361 271.508 338.617 271.881 339.129C272.265 339.641 272.457 340.398 272.457 341.401V346.329H271.145V341.577C271.145 340.841 271.028 340.313 270.793 339.993C270.559 339.662 270.185 339.497 269.673 339.497C269.268 339.497 268.911 339.598 268.601 339.801C268.292 340.003 267.94 340.302 267.545 340.697V346.329H266.233ZM278.439 346.521C277.458 346.521 276.674 346.169 276.087 345.465C275.511 344.761 275.223 343.758 275.223 342.457C275.223 341.827 275.314 341.262 275.495 340.761C275.687 340.249 275.938 339.817 276.247 339.465C276.557 339.113 276.914 338.841 277.319 338.649C277.725 338.457 278.151 338.361 278.599 338.361C279.047 338.361 279.437 338.441 279.767 338.601C280.098 338.761 280.434 338.979 280.775 339.257L280.711 337.929V334.937H282.039V346.329H280.951L280.839 345.417H280.791C280.482 345.715 280.125 345.977 279.719 346.201C279.325 346.414 278.898 346.521 278.439 346.521ZM278.727 345.417C279.09 345.417 279.431 345.331 279.751 345.161C280.071 344.979 280.391 344.707 280.711 344.345V340.281C280.381 339.982 280.061 339.774 279.751 339.657C279.453 339.529 279.143 339.465 278.823 339.465C278.514 339.465 278.221 339.539 277.943 339.689C277.677 339.827 277.442 340.03 277.239 340.297C277.037 340.553 276.877 340.862 276.759 341.225C276.642 341.587 276.583 341.993 276.583 342.441C276.583 343.379 276.77 344.11 277.143 344.633C277.517 345.155 278.045 345.417 278.727 345.417ZM287.73 346.521C286.898 346.521 286.29 346.265 285.906 345.753C285.533 345.241 285.346 344.483 285.346 343.481V338.553H286.674V343.305C286.674 344.041 286.786 344.574 287.01 344.905C287.245 345.225 287.618 345.385 288.13 345.385C288.536 345.385 288.893 345.283 289.202 345.081C289.512 344.867 289.853 344.531 290.226 344.073V338.553H291.538V346.329H290.45L290.338 345.113H290.29C289.928 345.539 289.544 345.881 289.138 346.137C288.744 346.393 288.274 346.521 287.73 346.521ZM296.993 346.521C296.439 346.521 295.911 346.419 295.409 346.217C294.908 346.014 294.471 345.758 294.097 345.449L294.753 344.569C295.095 344.846 295.441 345.07 295.793 345.241C296.156 345.411 296.572 345.497 297.041 345.497C297.553 345.497 297.937 345.379 298.193 345.145C298.449 344.91 298.577 344.622 298.577 344.281C298.577 344.078 298.524 343.902 298.417 343.753C298.311 343.603 298.172 343.475 298.001 343.369C297.841 343.251 297.655 343.15 297.441 343.065C297.228 342.979 297.015 342.894 296.801 342.809C296.524 342.713 296.247 342.606 295.969 342.489C295.692 342.361 295.441 342.211 295.217 342.041C295.004 341.859 294.828 341.651 294.689 341.417C294.551 341.182 294.481 340.899 294.481 340.569C294.481 340.259 294.54 339.971 294.657 339.705C294.785 339.427 294.961 339.193 295.185 339.001C295.42 338.798 295.703 338.643 296.033 338.537C296.364 338.419 296.737 338.361 297.153 338.361C297.644 338.361 298.092 338.446 298.497 338.617C298.913 338.787 299.271 338.995 299.569 339.241L298.945 340.073C298.679 339.87 298.401 339.705 298.113 339.577C297.825 339.449 297.511 339.385 297.169 339.385C296.679 339.385 296.316 339.497 296.081 339.721C295.857 339.945 295.745 340.206 295.745 340.505C295.745 340.686 295.793 340.846 295.889 340.985C295.985 341.113 296.113 341.23 296.273 341.337C296.433 341.433 296.615 341.523 296.817 341.609C297.031 341.683 297.249 341.763 297.473 341.849C297.751 341.955 298.028 342.067 298.305 342.185C298.593 342.302 298.849 342.451 299.073 342.633C299.297 342.803 299.479 343.017 299.617 343.273C299.767 343.529 299.841 343.838 299.841 344.201C299.841 344.521 299.777 344.819 299.649 345.097C299.532 345.374 299.351 345.619 299.105 345.833C298.871 346.046 298.572 346.211 298.209 346.329C297.857 346.457 297.452 346.521 296.993 346.521ZM304.6 346.521C304.184 346.521 303.832 346.457 303.544 346.329C303.267 346.201 303.037 346.025 302.856 345.801C302.685 345.577 302.563 345.305 302.488 344.985C302.413 344.665 302.376 344.313 302.376 343.929V339.625H301.224V338.633L302.44 338.553L302.6 336.377H303.704V338.553H305.8V339.625H303.704V343.945C303.704 344.425 303.789 344.798 303.96 345.065C304.141 345.321 304.456 345.449 304.904 345.449C305.043 345.449 305.192 345.427 305.352 345.385C305.512 345.342 305.656 345.294 305.784 345.241L306.04 346.233C305.827 346.307 305.592 346.371 305.336 346.425C305.091 346.489 304.845 346.521 304.6 346.521ZM308.358 346.329V338.553H309.446L309.558 339.961H309.606C309.873 339.47 310.193 339.081 310.566 338.793C310.95 338.505 311.366 338.361 311.814 338.361C312.124 338.361 312.401 338.414 312.646 338.521L312.39 339.673C312.262 339.63 312.145 339.598 312.038 339.577C311.932 339.555 311.798 339.545 311.638 339.545C311.308 339.545 310.961 339.678 310.598 339.945C310.246 340.211 309.937 340.675 309.67 341.337V346.329H308.358ZM315.239 349.673C315.058 349.673 314.893 349.657 314.743 349.625C314.594 349.603 314.455 349.566 314.327 349.513L314.583 348.473C314.669 348.494 314.765 348.515 314.871 348.537C314.978 348.569 315.079 348.585 315.175 348.585C315.623 348.585 315.986 348.425 316.263 348.105C316.551 347.795 316.775 347.401 316.935 346.921L317.111 346.345L313.991 338.553H315.351L316.935 342.857C317.053 343.198 317.175 343.561 317.303 343.945C317.442 344.318 317.57 344.686 317.687 345.049H317.751C317.869 344.697 317.981 344.329 318.087 343.945C318.194 343.561 318.301 343.198 318.407 342.857L319.799 338.553H321.079L318.151 346.969C318.013 347.353 317.858 347.71 317.687 348.041C317.517 348.371 317.314 348.654 317.079 348.889C316.845 349.134 316.578 349.326 316.279 349.465C315.981 349.603 315.634 349.673 315.239 349.673ZM323.506 346.521C323.239 346.521 323.01 346.43 322.818 346.249C322.636 346.057 322.546 345.817 322.546 345.529C322.546 345.219 322.636 344.974 322.818 344.793C323.01 344.601 323.239 344.505 323.506 344.505C323.762 344.505 323.98 344.601 324.162 344.793C324.354 344.974 324.45 345.219 324.45 345.529C324.45 345.817 324.354 346.057 324.162 346.249C323.98 346.43 323.762 346.521 323.506 346.521Z" fill="#717171"/>
<path d="M400 55.3286V24.3286C400 11.0738 389.255 0.328613 376 0.328613H363.896H327.793H312.576H275.969H257.571H220.775H147.184H24.001C10.7461 0.328613 0.000976562 11.0738 0.000976562 24.3286V27.8286V55.3286H400Z" fill="#23B5AF"/>
<ellipse cx="30.502" cy="27.8285" rx="6.5" ry="6.58776" fill="#EC9D89"/>
<ellipse cx="53.2669" cy="27.1726" rx="5.85288" ry="5.9319" fill="#EDBA4B"/>
<ellipse cx="76.6791" cy="27.1726" rx="5.85288" ry="5.9319" fill="#A9DED9"/>
<rect x="95.6797" y="97.3096" width="118.299" height="90.014" rx="11" fill="#FCFFFF" stroke="#A9DED9" stroke-width="4"/>
<path d="M215.98 108.236V106.348C215.98 100.251 211.038 95.3091 204.941 95.3091H193.903H189.25H178.058H172.432H161.182H138.682H100.145C96.5749 95.3091 93.6811 98.2029 93.6811 101.773V108.236H215.98Z" fill="#A9DED9"/>
<path d="M134.837 148.436C134.837 158.36 142.517 165.511 153.788 165.511C165.058 165.511 172.72 156.256 172.72 145.506C172.72 134.756 165.058 126.583 153.788 126.583C142.517 126.583 134.837 132.826 134.837 148.436Z" fill="url(#paint0_linear)"/>
<path d="M135.961 138.559C137.493 140.252 139.227 139.763 141.095 139.294C141.227 140.211 142.081 141.046 142.84 140.937L142.867 140.933C143.615 140.826 144.176 140.745 144.821 140.274C145.035 140.117 145.293 139.866 145.415 139.61C145.504 139.422 145.505 138.813 145.598 139.005C146.297 140.437 148.453 141.043 149.958 140.795C152.175 140.477 151.955 138.87 153.243 137.507C153.46 138.569 155.304 139.931 156.611 139.84C158.481 139.709 159.403 139.812 160.959 138.713C161.6 141.556 163.898 142.688 166.669 142.29C166.115 143.738 167.366 145.098 168.352 145.772C169.969 146.879 171.462 146.069 172.134 144.404C173.56 144.319 176.037 143.322 174.541 140.022C175.303 139.138 176.386 137.035 174.614 135.689C175.293 134.822 176.031 132.833 173.554 131.811C173.457 130.614 173.632 127.605 171.217 125.782C169.981 124.85 168.263 125.071 166.886 125.194C166.418 125.236 165.133 125.76 165.016 124.948C164.759 123.161 164.688 120.267 160.796 120.098C158.109 119.981 156.871 121.015 154.918 122.979C155.238 119.577 153.341 120.201 153.013 119.897C151.404 118.404 148.847 119.431 147.555 120.797C143.004 122.829 144.124 125.464 144.201 128.243C144.207 128.446 143.902 127.935 143.795 127.817C143.346 127.321 142.791 126.912 142.204 126.657C140.87 126.078 139.279 126.58 139.043 128.248C138.894 129.295 139.149 130.411 139.298 131.451C139.31 131.534 139.58 132.913 139.294 132.588C138.673 131.883 138.25 131.106 137.243 131.147C136.242 131.187 134.974 131.579 134.668 132.8C134.288 134.319 134.909 137.396 135.961 138.559Z" fill="url(#paint1_linear)"/>
<path d="M163.175 147.194C163.175 148.022 163.847 148.694 164.675 148.694C165.504 148.694 166.175 148.022 166.175 147.194C166.175 145.869 165.504 145.694 164.675 145.694C163.847 145.694 163.175 146.365 163.175 147.194Z" fill="#23B5AF"/>
<path d="M150.252 147.194C150.252 148.022 149.58 148.694 148.752 148.694C147.923 148.694 147.252 148.022 147.252 147.194C147.252 145.869 147.923 145.694 148.752 145.694C149.58 145.694 150.252 146.365 150.252 147.194Z" fill="#23B5AF"/>
<path d="M156.276 158.958C154.696 158.958 153.13 159.109 151.652 158.457C150.645 158.013 149.592 156.386 149.24 155.33" stroke="#23B5AF" stroke-width="2" stroke-linecap="round" stroke-linejoin="round"/>
<path d="M158.493 148.551C158.493 149.795 158.581 150.604 159.141 151.777C159.385 152.288 159.914 152.551 160.298 152.934C160.757 153.394 159.896 153.192 159.547 153.192C158.658 153.192 157.817 153.502 156.946 153.502" stroke="#23B5AF" stroke-width="2" stroke-linecap="round" stroke-linejoin="round"/>
<rect x="186.02" y="144.315" width="118.299" height="90.014" rx="11" fill="#FCFFFF" stroke="#A9DED9" stroke-width="4"/>
<path d="M306.32 155.242V153.354C306.32 147.258 301.378 142.315 295.281 142.315H284.243H279.59H268.398H262.772H251.522H229.022H190.485C186.915 142.315 184.021 145.209 184.021 148.779V155.242H306.32Z" fill="#A9DED9"/>
<path d="M228.205 183.275C230.708 175.111 238.557 172.617 242.207 172.467L246.378 174.485L234.088 202.939C235.161 207.289 230.066 206.688 227.385 205.844C214.349 201.524 225.076 193.479 228.205 183.275Z" fill="#FAE0A1"/>
<path d="M228.205 183.275C230.708 175.111 238.557 172.617 242.207 172.467L246.378 174.485L234.088 202.939C235.161 207.289 230.066 206.688 227.385 205.844C214.349 201.524 225.076 193.479 228.205 183.275Z" fill="url(#paint2_linear)"/>
<path d="M264.09 199.649C261.742 209.292 250.94 213.717 239.989 211.052C229.039 208.386 225.432 198.286 227.975 187.842C230.517 177.397 239.895 171.267 250.846 173.933C261.796 176.599 267.782 184.482 264.09 199.649Z" fill="url(#paint3_linear)"/>
<path d="M244.096 192.9C244.083 193.59 243.832 194.338 243.246 194.764C242.541 195.277 241.548 195.122 240.851 195.618C240.548 195.833 240.405 196.1 240.323 196.458C240.191 197.036 240.31 197.413 240.795 197.742C241.353 198.121 241.99 198.345 242.666 198.397C242.986 198.422 243.306 198.355 243.627 198.355" stroke="#FAE0A1" stroke-width="2" stroke-linecap="round" stroke-linejoin="round"/>
<path d="M237.771 191.776C237.575 192.581 236.763 193.075 235.958 192.879C235.154 192.683 234.66 191.872 234.856 191.067C235.169 189.779 235.863 189.768 236.668 189.964C237.473 190.16 237.967 190.971 237.771 191.776Z" fill="#FAE0A1"/>
<path d="M250.328 194.834C250.132 195.639 250.626 196.451 251.431 196.647C252.236 196.842 253.047 196.349 253.243 195.544C253.557 194.256 252.945 193.928 252.141 193.732C251.336 193.536 250.524 194.029 250.328 194.834Z" fill="#FAE0A1"/>
<path d="M246.303 205.445C244.712 205.729 244.534 205.599 242.999 205.225C243.277 206.28 245.138 206.733 246.303 206.574C247.468 206.416 248.723 205.445 249.048 203.8C248.456 204.743 247.387 205.251 246.303 205.445Z" stroke="#FAE0A1" stroke-width="2" stroke-linecap="round" stroke-linejoin="round"/>
<path d="M261.754 189.39C246.623 188.69 242.403 177.801 242.185 172.444C257.666 169.82 264.087 178.42 265.362 183.049C266.565 191.904 267.871 195.546 268.927 200.721C270.677 211.916 262.52 215.082 258.475 213.442C248.766 213.267 256.616 197.334 261.754 189.39Z" fill="#FAE0A1"/>
<path d="M261.754 189.39C246.623 188.69 242.403 177.801 242.185 172.444C257.666 169.82 264.087 178.42 265.362 183.049C266.565 191.904 267.871 195.546 268.927 200.721C270.677 211.916 262.52 215.082 258.475 213.442C248.766 213.267 256.616 197.334 261.754 189.39Z" fill="url(#paint4_linear)"/>
<path fill-rule="evenodd" clip-rule="evenodd" d="M281.6 127.301C277.181 127.301 273.6 130.883 273.6 135.301V151.262C273.6 155.68 277.181 159.262 281.6 159.262H284.772L288.091 165.011C288.476 165.677 289.439 165.677 289.823 165.011L293.143 159.262H315.538C319.956 159.262 323.538 155.68 323.538 151.262V135.301C323.538 130.883 319.956 127.301 315.538 127.301H281.6Z" fill="url(#paint5_linear)"/>
<ellipse rx="2.19339" ry="2.26939" transform="matrix(-1 0 0 1 298.566 144.137)" fill="white"/>
<ellipse rx="2.19339" ry="2.26939" transform="matrix(-1 0 0 1 307.051 144.137)" fill="white"/>
<ellipse rx="2.19336" ry="2.26939" transform="matrix(-1 0 0 1 290.086 144.137)" fill="white"/>
<path fill-rule="evenodd" clip-rule="evenodd" d="M120.874 80.2954C125.292 80.2954 128.874 83.8771 128.874 88.2954V104.256C128.874 108.674 125.292 112.256 120.874 112.256H117.702L114.383 118.005C113.998 118.671 113.036 118.671 112.651 118.005L109.332 112.256H86.9356C82.5173 112.256 78.9356 108.674 78.9356 104.256V88.2954C78.9356 83.8771 82.5173 80.2954 86.9356 80.2954H120.874Z" fill="url(#paint6_linear)"/>
<ellipse rx="2.19339" ry="2.26939" transform="matrix(-1 0 0 1 103.903 97.1312)" fill="white"/>
<ellipse rx="2.19339" ry="2.26939" transform="matrix(-1 0 0 1 112.387 97.1312)" fill="white"/>
<ellipse rx="2.19336" ry="2.26939" transform="matrix(-1 0 0 1 95.4225 97.1312)" fill="white"/>
<defs>
<linearGradient id="paint0_linear" x1="166.289" y1="129.952" x2="147.516" y2="162.975" gradientUnits="userSpaceOnUse">
<stop stop-color="#88D2EE"/>
<stop offset="0.223958" stop-color="#8CD3EE"/>
<stop offset="1" stop-color="#CAE8F4"/>
</linearGradient>
<linearGradient id="paint1_linear" x1="138.131" y1="119.205" x2="180.697" y2="126.652" gradientUnits="userSpaceOnUse">
<stop offset="0.336063" stop-color="#23B5AF"/>
<stop offset="0.703082" stop-color="#60CAC6"/>
<stop offset="1" stop-color="#B7E9E7"/>
</linearGradient>
<linearGradient id="paint2_linear" x1="224.008" y1="175.939" x2="248.911" y2="193.41" gradientUnits="userSpaceOnUse">
<stop stop-color="#FFC23D"/>
<stop offset="1" stop-color="white" stop-opacity="0"/>
</linearGradient>
<linearGradient id="paint3_linear" x1="268.015" y1="103.445" x2="241.647" y2="211.759" gradientUnits="userSpaceOnUse">
<stop stop-color="#E88971"/>
<stop offset="0.7519" stop-color="#EC9782"/>
<stop offset="1" stop-color="#F6BAAA"/>
</linearGradient>
<linearGradient id="paint4_linear" x1="279.118" y1="185.436" x2="253.444" y2="228.435" gradientUnits="userSpaceOnUse">
<stop stop-color="#FFC23D"/>
<stop offset="1" stop-color="white" stop-opacity="0"/>
</linearGradient>
<linearGradient id="paint5_linear" x1="298.569" y1="127.301" x2="298.569" y2="165.511" gradientUnits="userSpaceOnUse">
<stop stop-color="#E88971"/>
<stop offset="0.7519" stop-color="#EC9782"/>
<stop offset="1" stop-color="#F6BAAA"/>
</linearGradient>
<linearGradient id="paint6_linear" x1="103.905" y1="80.2954" x2="103.905" y2="118.505" gradientUnits="userSpaceOnUse">
<stop stop-color="#E88971"/>
<stop offset="0.7519" stop-color="#EC9782"/>
<stop offset="1" stop-color="#F6BAAA"/>
</linearGradient>
</defs>
</svg>
