<svg xmlns="http://www.w3.org/2000/svg" width="240" height="97" fill="none" viewBox="0 0 240 97"><path fill="url(#paint0_linear)" d="M372.622 96.4242H77.4984H0.945312C0.945312 96.4242 0.945312 83.6797 9.26628 67.0564C14.0246 57.5504 28.4783 35.6254 37.2802 29.6542C45.6266 23.992 67.4381 16.146 77.4984 16.9097C91.261 17.9544 108.286 29.6542 108.286 29.6542C108.286 29.6542 129.495 50.3184 141.847 46.5545C151.705 43.5505 171.379 29.737 171.379 29.737C171.379 29.737 196.269 2.79427 210.761 0.943015C229.104 -1.40025 242.018 7.56054 242.018 7.56054C242.018 7.56054 249.84 10.3374 268.326 26.8836C286.811 43.4299 283.024 40.7868 294.405 46.5545C316.396 57.6994 343.241 46.3565 357.083 54.2185C377.362 65.7371 372.622 96.4242 372.622 96.4242Z"/><defs><linearGradient id="paint0_linear" x1="195.101" x2="195.101" y1="-40.329" y2="96.424" gradientUnits="userSpaceOnUse"><stop stop-color="#23B5AF"/><stop offset="1" stop-color="#fff" stop-opacity="0"/></linearGradient></defs></svg>