<svg width="231" height="65" viewBox="0 0 231 65" fill="none" xmlns="http://www.w3.org/2000/svg">
<path d="M230.448 64.1879H34.2996H-16.5801C-16.5801 64.1879 -16.5801 55.7175 -11.0497 44.6691C-7.88714 38.3511 1.71924 23.779 7.56929 19.8104C13.1166 16.0471 27.6132 10.8324 34.2996 11.3399C43.4467 12.0343 54.7619 19.8104 54.7619 19.8104C54.7619 19.8104 68.8586 33.5445 77.0677 31.0428C83.6195 29.0463 96.6958 19.8654 96.6958 19.8654C96.6958 19.8654 113.238 1.95838 122.87 0.727979C135.062 -0.82943 143.645 5.1262 143.645 5.1262C143.645 5.1262 148.844 6.97179 161.13 17.969C173.416 28.9661 170.898 27.2095 178.462 31.0428C193.079 38.4501 210.921 30.9113 220.12 36.1366C233.599 43.7922 230.448 64.1879 230.448 64.1879Z" fill="url(#paint0_linear)"/>
<defs>
<linearGradient id="paint0_linear" x1="112.462" y1="-26.703" x2="112.462" y2="64.188" gradientUnits="userSpaceOnUse">
<stop stop-color="#23B5AF"/>
<stop offset="1" stop-color="white" stop-opacity="0"/>
</linearGradient>
</defs>
</svg>
