<svg width="131" height="28" viewBox="0 0 131 28" fill="none" xmlns="http://www.w3.org/2000/svg">
<path d="M50.2662 17.1434H45.076L44.1463 19.9918H40.6114L46.1183 5.23291H49.2139L54.7411 19.9918H51.2064L50.2662 17.1434ZM49.3981 14.4876L47.6712 9.2267L45.9548 14.4876H49.3981Z" fill="#111111"/>
<path d="M65.383 9.02393V19.9917H62.3895L62.2975 18.8361C61.9559 19.2656 61.5188 19.6108 61.0204 19.8447C60.4851 20.086 59.9022 20.2056 59.3143 20.1947C58.8184 20.2225 58.3221 20.1486 57.8563 19.9777C57.3904 19.8068 56.9651 19.5425 56.6068 19.2013C55.9529 18.539 55.626 17.5119 55.626 16.1198V9.02393H58.8135V16.1397C58.7967 16.3448 58.823 16.5512 58.8907 16.7457C58.9583 16.9402 59.0659 17.1187 59.2066 17.2699C59.5064 17.5302 59.8972 17.6631 60.2949 17.6399C60.6665 17.6768 61.041 17.6089 61.3754 17.4439C61.7098 17.2789 61.9904 17.0236 62.185 16.7074V9.02393H65.383Z" fill="#111111"/>
<path d="M73.1989 17.5289V19.911C72.5991 20.1065 71.9708 20.2025 71.3394 20.1948C70.4465 20.255 69.5651 19.9678 68.8821 19.394C68.3134 18.8603 68.0291 18.019 68.0292 16.87V11.3253H66.5172V9.0243H68.0292V6.30774H71.2169V9.0243H73.0661V11.3253H71.2169V16.4851C71.1982 16.6415 71.2112 16.8001 71.255 16.9516C71.2989 17.103 71.3727 17.2442 71.4723 17.367C71.7235 17.5469 72.0323 17.6298 72.3407 17.6001C72.6284 17.6028 72.9157 17.5789 73.1989 17.5289V17.5289Z" fill="#111111"/>
<path d="M74.539 11.5292C74.932 10.7052 75.5608 10.0142 76.3471 9.54248C77.2227 9.07018 78.2035 8.82275 79.2002 8.82275C80.1968 8.82275 81.1776 9.07018 82.0533 9.54248C82.8407 10.0121 83.4713 10.7013 83.8665 11.5241C84.2919 12.426 84.5034 13.4125 84.4848 14.408V14.6209C84.5024 15.6147 84.2909 16.5993 83.8665 17.4997C83.4742 18.3228 82.8451 19.0123 82.0586 19.4814C81.1819 19.9504 80.2015 20.196 79.2054 20.196C78.2094 20.196 77.229 19.9504 76.3523 19.4814C75.5643 19.0148 74.9333 18.327 74.539 17.5049C74.1134 16.6031 73.9019 15.6166 73.9207 14.621V14.4081C73.903 13.4143 74.1145 12.4296 74.539 11.5292V11.5292ZM77.6042 16.8256C77.7709 17.0952 78.0092 17.314 78.2931 17.458C78.5769 17.6019 78.8952 17.6654 79.2131 17.6416C79.5285 17.6636 79.8438 17.5985 80.1242 17.4536C80.4046 17.3087 80.6391 17.0895 80.8016 16.8205C81.1629 16.1447 81.3341 15.3849 81.2973 14.6209V14.408C81.3313 13.6458 81.1602 12.8884 80.8016 12.2135C80.6385 11.9392 80.4015 11.7156 80.1172 11.5678C79.8329 11.4201 79.5127 11.354 79.1926 11.3772C78.8756 11.3557 78.5589 11.4227 78.2782 11.5705C77.9975 11.7183 77.764 11.941 77.6042 12.2135C77.2455 12.8883 77.0744 13.6458 77.1085 14.408V14.6209C77.0702 15.3867 77.2415 16.1485 77.6041 16.8256H77.6042Z" fill="#111111"/>
<path d="M95.4877 16.1207C95.4997 16.87 95.2863 17.6058 94.8747 18.2341C94.4616 18.8563 93.8861 19.3556 93.2094 19.6786C92.3915 20.0509 91.4967 20.2265 90.5976 20.1913C89.6985 20.1561 88.8205 19.911 88.0348 19.4759C87.27 19.006 86.6649 18.3192 86.298 17.5043C85.8989 16.6024 85.7019 15.6254 85.7205 14.6406V14.3872C85.7023 13.4009 85.8993 12.4223 86.298 11.5186C86.6632 10.7029 87.2663 10.0145 88.0295 9.54211C88.8811 9.04059 89.8595 8.79092 90.8493 8.82249C91.6849 8.80556 92.5128 8.98441 93.2658 9.34451C93.948 9.67827 94.5164 10.2035 94.9004 10.8549C95.3055 11.5666 95.5084 12.3741 95.4877 13.1912H92.4942C92.5077 12.715 92.3462 12.2502 92.0397 11.8835C91.8806 11.7113 91.6848 11.5764 91.4665 11.4887C91.2482 11.401 91.013 11.3628 90.7779 11.3767C90.4785 11.3469 90.1771 11.408 89.9135 11.5519C89.6499 11.6958 89.4366 11.9157 89.3017 12.1826C89.0085 12.8797 88.8741 13.6326 88.9082 14.3873V14.6407C88.8708 15.3989 89.0053 16.1557 89.3017 16.8555C89.4436 17.1198 89.662 17.3358 89.9287 17.4758C90.1954 17.6158 90.4983 17.6734 90.7983 17.6411C91.2446 17.6633 91.6828 17.5166 92.0243 17.2306C92.1783 17.0898 92.2999 16.9178 92.381 16.7263C92.4621 16.5348 92.5007 16.3282 92.4943 16.1206L95.4877 16.1207Z" fill="#111111"/>
<path d="M97.2375 11.5292C97.6305 10.7052 98.2593 10.0143 99.0454 9.54248C99.9211 9.07018 100.902 8.82275 101.899 8.82275C102.895 8.82275 103.876 9.07018 104.752 9.54248C105.539 10.0121 106.17 10.7013 106.565 11.5241C106.99 12.426 107.202 13.4125 107.183 14.408V14.6209C107.201 15.6147 106.989 16.5993 106.565 17.4997C106.173 18.3228 105.544 19.0123 104.757 19.4814C103.88 19.9504 102.9 20.196 101.904 20.196C100.908 20.196 99.9274 19.9504 99.0508 19.4814C98.2628 19.0148 97.6318 18.327 97.2375 17.5049C96.8119 16.6031 96.6003 15.6166 96.6192 14.621V14.4081C96.6014 13.4143 96.8129 12.4296 97.2375 11.5292V11.5292ZM100.303 16.8256C100.469 17.0952 100.708 17.314 100.992 17.458C101.275 17.6019 101.594 17.6654 101.912 17.6416C102.227 17.6636 102.542 17.5985 102.823 17.4536C103.103 17.3087 103.338 17.0895 103.5 16.8205C103.861 16.1447 104.033 15.3849 103.996 14.6209V14.408C104.03 13.6458 103.859 12.8884 103.5 12.2135C103.337 11.9392 103.1 11.7156 102.816 11.5679C102.531 11.4201 102.211 11.3541 101.891 11.3772C101.574 11.3557 101.257 11.4227 100.977 11.5705C100.696 11.7182 100.463 11.941 100.303 12.2135C99.944 12.8883 99.7729 13.6458 99.807 14.408V14.6209C99.7687 15.3867 99.9399 16.1485 100.302 16.8256H100.303Z" fill="#111111"/>
<path d="M118.513 4.42261V19.9924H115.642L115.489 18.8064C115.175 19.242 114.759 19.5958 114.276 19.8376C113.794 20.0794 113.261 20.202 112.72 20.1951C111.889 20.2162 111.074 19.9651 110.401 19.4804C109.732 18.9743 109.22 18.2909 108.925 17.5088C108.574 16.5933 108.402 15.6196 108.419 14.6402V14.4274C108.4 13.4247 108.571 12.4273 108.925 11.4878C109.215 10.7047 109.728 10.0217 110.401 9.52116C111.085 9.04368 111.905 8.79833 112.741 8.82175C113.232 8.81248 113.718 8.91343 114.164 9.11705C114.61 9.32068 115.003 9.6217 115.316 9.99759V4.42261H118.513ZM114.616 17.3721C114.919 17.1853 115.162 16.9162 115.315 16.5966V12.4203C115.164 12.0874 114.914 11.8087 114.598 11.6219C114.281 11.4351 113.915 11.3494 113.548 11.3763C113.249 11.359 112.95 11.4272 112.689 11.5727C112.427 11.7182 112.213 11.9349 112.071 12.1973C111.729 12.8898 111.569 13.657 111.607 14.4274V14.6402C111.571 15.3958 111.726 16.1482 112.056 16.8297C112.197 17.0911 112.41 17.3067 112.671 17.4506C112.932 17.5944 113.23 17.6604 113.528 17.6406C113.908 17.6529 114.285 17.5599 114.616 17.3721V17.3721Z" fill="#111111"/>
<path d="M130.457 15.5434H123.52C123.613 16.1381 123.913 16.6817 124.368 17.0791C124.845 17.466 125.449 17.6661 126.064 17.6416C126.569 17.6468 127.069 17.5502 127.535 17.3578C127.989 17.1655 128.387 16.8621 128.69 16.4759L130.192 18.2498C129.747 18.8438 129.161 19.3192 128.486 19.6335C127.667 20.0238 126.768 20.2165 125.86 20.1961C124.823 20.2207 123.798 19.9742 122.887 19.4814C122.069 19.032 121.397 18.3626 120.946 17.5504C120.494 16.7303 120.262 15.8089 120.271 14.8743V14.4891C120.254 13.4834 120.467 12.4868 120.895 11.5749C121.288 10.7446 121.914 10.0443 122.698 9.55766C123.534 9.09 124.474 8.83755 125.433 8.82338C126.392 8.80922 127.34 9.03379 128.189 9.47658C128.932 9.91241 129.522 10.5633 129.88 11.3417C130.284 12.2386 130.481 13.2133 130.457 14.1952L130.457 15.5434ZM127.331 13.1917C127.36 12.7039 127.192 12.2247 126.866 11.8587C126.683 11.6887 126.466 11.5582 126.23 11.4754C125.993 11.3925 125.742 11.3591 125.492 11.3772C124.409 11.3772 123.755 12.0665 123.53 13.4451H127.331L127.331 13.1917Z" fill="#111111"/>
<path d="M32.4232 11.1084V11.1035C32.3586 10.9063 32.2841 10.7191 32.1996 10.5268C32.0286 10.1386 31.81 9.77274 31.5488 9.43754C31.4119 9.25947 31.266 9.08838 31.1117 8.92493L30.8881 8.6982C30.7242 8.54047 30.5503 8.39754 30.3665 8.24967L21.8665 1.65484C21.3416 1.24727 20.7633 0.912333 20.1476 0.659203C19.8865 0.549191 19.6195 0.45375 19.3477 0.373327C17.6621 -0.124442 15.8668 -0.124442 14.1811 0.373327C13.9129 0.457118 13.6496 0.550767 13.3863 0.659203C12.77 0.911221 12.1916 1.24625 11.6674 1.65484L3.16737 8.24972C2.98853 8.39759 2.80968 8.54052 2.65568 8.69332C2.606 8.74261 2.55135 8.7919 2.50168 8.84612L2.41225 8.93976C2.3427 9.00877 2.27812 9.0827 2.22347 9.14678C1.97297 9.42861 1.75316 9.73591 1.56771 10.0636C1.56275 10.0734 1.55778 10.0882 1.55281 10.0981C1.46836 10.2509 1.38887 10.4037 1.30939 10.5762C1.27574 10.6485 1.24589 10.7225 1.21996 10.798C1.17551 10.8985 1.13897 11.0023 1.11067 11.1085C1.07093 11.2416 1.03118 11.3796 0.991441 11.5176C0.991441 11.5274 0.986474 11.5422 0.986474 11.5521C0.956666 11.6901 0.926859 11.833 0.911955 11.9661C0.88108 12.1915 0.86614 12.4188 0.867245 12.6463V15.4706C0.905734 16.2932 1.12645 17.0973 1.51369 17.8256C1.90094 18.554 2.4452 19.1888 3.10776 19.6848L4.06159 20.5621C4.39849 20.8742 4.83795 21.0545 5.29859 21.0698C5.42292 21.3725 5.62504 21.6376 5.8848 21.8387L11.6376 26.3043C13.1062 27.4016 14.9013 27.9825 16.7396 27.9555C18.5763 27.9817 20.3695 27.4008 21.8366 26.3043L23.0836 25.3382C23.3116 25.1618 23.4959 24.9359 23.6225 24.6779C23.7491 24.4199 23.8145 24.1366 23.8139 23.8497V21.6021C23.8002 21.399 23.7669 21.1976 23.7145 21.0008C23.6948 20.9404 23.6716 20.8811 23.6449 20.8234C23.5155 20.5442 23.3215 20.2993 23.0786 20.1087L15.1896 13.987L16.7644 12.7646L26.884 20.6213C27.2231 20.871 27.6342 21.0058 28.0564 21.0058C28.4787 21.0058 28.8898 20.871 29.2288 20.6213L30.3665 19.7291C31.0618 19.2209 31.6303 18.5611 32.0282 17.8006C32.4261 17.0401 32.6428 16.1991 32.6616 15.3424V12.6463C32.6637 12.1245 32.5832 11.6055 32.4232 11.1084V11.1084ZM21.8764 21.3852L20.7636 22.2527C19.6012 23.1076 18.1862 23.5565 16.7396 23.5293C15.2913 23.5573 13.8745 23.1084 12.7107 22.2527L7.08702 17.8808L12.1394 13.9672C12.1641 13.9458 12.1959 13.934 12.2288 13.934C12.2616 13.934 12.2934 13.9458 12.3182 13.9672L21.8764 21.3852ZM29.2885 15.6775L28.0564 16.6387L16.9483 8.02294C16.8968 7.98027 16.8315 7.95751 16.7644 7.95886C16.6975 7.95831 16.6325 7.98098 16.5806 8.02294L5.47743 16.6387L4.2454 15.6775C3.76111 15.3347 3.36243 14.8863 3.07997 14.3669C2.7975 13.8474 2.63876 13.2706 2.61594 12.6808C2.62287 12.1647 2.73671 11.6555 2.95036 11.1849C3.16402 10.7143 3.47293 10.2923 3.85791 9.94521C3.85922 9.94521 3.86049 9.94469 3.86142 9.94377C3.86235 9.94284 3.86287 9.94159 3.86287 9.94028C3.91752 9.88607 3.98707 9.82692 4.04172 9.77763C4.1063 9.72341 4.17088 9.66919 4.2454 9.61005L12.7405 3.0201C13.3014 2.59048 13.9358 2.26488 14.6134 2.05896C14.7823 2.00475 14.9561 1.95546 15.135 1.91603C16.7403 1.54912 18.424 1.74053 19.9041 2.4582C20.2169 2.61879 20.5145 2.80684 20.7934 3.0201L29.2885 9.61498C29.363 9.66919 29.4276 9.72341 29.4822 9.76777C29.5468 9.82692 29.6114 9.88607 29.671 9.94521C30.0611 10.2927 30.3736 10.7174 30.5883 11.1919C30.8031 11.6664 30.9154 12.1803 30.9179 12.7005C30.8899 13.2864 30.7288 13.8586 30.4467 14.3741C30.1645 14.8896 29.7686 15.3352 29.2885 15.6776V15.6775Z" fill="#111111"/>
<path d="M21.8804 21.3853L20.7675 22.2528C19.6052 23.1077 18.1902 23.5566 16.7436 23.5294C15.2953 23.5574 13.8785 23.1085 12.7146 22.2528L7.09099 17.8809L12.1433 13.9673C12.1681 13.9459 12.1999 13.9341 12.2327 13.9341C12.2656 13.9341 12.2974 13.9459 12.3222 13.9673L21.8804 21.3853Z" fill="white"/>
<path d="M30.9201 12.7013C30.8921 13.2873 30.731 13.8594 30.4489 14.3749C30.1667 14.8904 29.7708 15.336 29.2907 15.6784L28.0586 16.6395L16.9505 8.02377C16.899 7.98109 16.8337 7.95833 16.7667 7.95969C16.6997 7.95914 16.6347 7.9818 16.5829 8.02377L5.47966 16.6395L4.24763 15.6784C3.76334 15.3355 3.36466 14.8872 3.08219 14.3677C2.79973 13.8482 2.64099 13.2714 2.61816 12.6816C2.6251 12.1655 2.73893 11.6563 2.95259 11.1857C3.16624 10.7151 3.47516 10.2932 3.86013 9.94604C3.86145 9.94604 3.86271 9.94552 3.86365 9.9446C3.86458 9.94367 3.8651 9.94242 3.8651 9.94111C3.91975 9.88689 3.9893 9.82775 4.04394 9.77846C4.10853 9.72424 4.17311 9.67002 4.24763 9.61087L12.7427 3.02093C13.3036 2.59131 13.9381 2.26571 14.6156 2.05979C14.7845 2.00557 14.9584 1.95628 15.1372 1.91685C16.7426 1.54995 18.4263 1.74136 19.9064 2.45903C20.2191 2.61962 20.5167 2.80767 20.7956 3.02093L29.2907 9.6158C29.3652 9.67002 29.4298 9.72424 29.4844 9.7686C29.549 9.82775 29.6136 9.88689 29.6732 9.94604C30.0633 10.2936 30.3758 10.7182 30.5905 11.1927C30.8053 11.6673 30.9176 12.1811 30.9201 12.7013V12.7013Z" fill="white"/>
</svg>
