<svg width="268" height="227" viewBox="0 0 268 227" fill="none" xmlns="http://www.w3.org/2000/svg">
<path d="M4 28.9961C4 15.7413 14.7452 4.99609 28 4.99609H240C253.255 4.99609 264 15.7413 264 28.9961V198.996C264 212.251 253.255 222.996 240 222.996H28C14.7452 222.996 4 212.251 4 198.996V28.9961Z" stroke="#A9DED9" stroke-width="8" stroke-linecap="round" stroke-linejoin="round"/>
<path d="M112.601 121.813C110.425 121.813 108.385 121.541 106.481 120.997C104.623 120.408 102.991 119.592 101.585 118.549C100.225 117.506 99.16 116.26 98.3893 114.809C97.6187 113.358 97.2333 111.749 97.2333 109.981C97.2333 107.442 97.8907 105.38 99.2053 103.793C100.565 102.206 102.265 100.869 104.305 99.7811V99.5091C102.583 98.1944 101.2 96.7437 100.157 95.1571C99.1147 93.5251 98.5933 91.5757 98.5933 89.3091C98.5933 87.4051 98.9333 85.7051 99.6133 84.2091C100.339 82.6677 101.336 81.3757 102.605 80.3331C103.92 79.2904 105.439 78.4971 107.161 77.9531C108.929 77.3637 110.879 77.0691 113.009 77.0691C115.004 77.0691 116.817 77.3637 118.449 77.9531C120.127 78.4971 121.555 79.2904 122.733 80.3331C123.912 81.3304 124.819 82.5771 125.453 84.0731C126.133 85.5691 126.473 87.2237 126.473 89.0371C126.473 91.0317 125.929 92.7997 124.841 94.3411C123.799 95.8371 122.507 97.0837 120.965 98.0811V98.3531C123.096 99.4864 124.864 100.96 126.269 102.773C127.675 104.541 128.377 106.853 128.377 109.709C128.377 111.432 127.992 113.041 127.221 114.537C126.496 115.988 125.431 117.257 124.025 118.345C122.665 119.433 121.011 120.294 119.061 120.929C117.112 121.518 114.959 121.813 112.601 121.813ZM115.185 95.2931C116.455 93.4797 117.089 91.6664 117.089 89.8531C117.089 88.3571 116.704 87.2011 115.933 86.3851C115.163 85.5237 114.097 85.0931 112.737 85.0931C111.695 85.0931 110.765 85.4331 109.949 86.1131C109.179 86.7477 108.793 87.8131 108.793 89.3091C108.793 90.7597 109.337 91.9157 110.425 92.7771C111.559 93.6384 113.145 94.4771 115.185 95.2931ZM112.873 113.789C114.188 113.789 115.299 113.449 116.205 112.769C117.112 112.089 117.565 110.933 117.565 109.301C117.565 108.53 117.384 107.85 117.021 107.261C116.659 106.672 116.115 106.15 115.389 105.697C114.709 105.198 113.871 104.722 112.873 104.269C111.876 103.816 110.743 103.317 109.473 102.773C108.839 103.544 108.295 104.45 107.841 105.493C107.433 106.49 107.229 107.533 107.229 108.621C107.229 110.344 107.796 111.636 108.929 112.497C110.063 113.358 111.377 113.789 112.873 113.789ZM156.26 121.813C153.857 121.813 151.681 121.337 149.732 120.385C147.783 119.388 146.083 117.937 144.632 116.033C143.227 114.129 142.139 111.772 141.368 108.961C140.597 106.15 140.212 102.909 140.212 99.2371C140.212 95.5651 140.597 92.3464 141.368 89.5811C142.139 86.7704 143.227 84.4584 144.632 82.6451C146.083 80.7864 147.783 79.4037 149.732 78.4971C151.681 77.5451 153.857 77.0691 156.26 77.0691C158.617 77.0691 160.771 77.5451 162.72 78.4971C164.715 79.4037 166.415 80.7864 167.82 82.6451C169.271 84.5037 170.381 86.8157 171.152 89.5811C171.923 92.3464 172.308 95.5651 172.308 99.2371C172.308 102.909 171.923 106.15 171.152 108.961C170.381 111.772 169.271 114.129 167.82 116.033C166.415 117.937 164.715 119.388 162.72 120.385C160.771 121.337 158.617 121.813 156.26 121.813ZM156.26 112.837C156.94 112.837 157.575 112.678 158.164 112.361C158.799 111.998 159.343 111.318 159.796 110.321C160.249 109.324 160.612 107.941 160.884 106.173C161.156 104.405 161.292 102.093 161.292 99.2371C161.292 96.3811 161.156 94.0917 160.884 92.3691C160.612 90.6464 160.249 89.3091 159.796 88.3571C159.343 87.4051 158.799 86.7931 158.164 86.5211C157.575 86.2037 156.94 86.0451 156.26 86.0451C155.58 86.0451 154.923 86.2037 154.288 86.5211C153.699 86.7931 153.177 87.4051 152.724 88.3571C152.271 89.3091 151.908 90.6464 151.636 92.3691C151.364 94.0917 151.228 96.3811 151.228 99.2371C151.228 102.093 151.364 104.405 151.636 106.173C151.908 107.941 152.271 109.324 152.724 110.321C153.177 111.318 153.699 111.998 154.288 112.361C154.923 112.678 155.58 112.837 156.26 112.837Z" fill="#EDBA4B"/>
<path d="M72.2791 165.997V149.045H78.1031C79.0391 149.045 79.9145 149.14 80.7291 149.331C81.5438 149.504 82.2545 149.808 82.8611 150.241C83.4678 150.657 83.9445 151.22 84.2912 151.931C84.6551 152.624 84.8371 153.482 84.8371 154.505C84.8371 155.493 84.6551 156.351 84.2912 157.079C83.9445 157.807 83.4678 158.405 82.8611 158.873C82.2545 159.341 81.5525 159.688 80.7551 159.913C79.9578 160.138 79.1085 160.251 78.2071 160.251H76.1011V165.997H72.2791ZM76.1011 157.209H77.9731C80.0531 157.209 81.0931 156.308 81.0931 154.505C81.0931 153.621 80.8158 152.997 80.2611 152.633C79.7065 152.269 78.9091 152.087 77.8691 152.087H76.1011V157.209ZM89.0674 165.997V149.045H95.1774C96.0788 149.045 96.9194 149.132 97.6994 149.305C98.4968 149.478 99.1901 149.773 99.7794 150.189C100.369 150.588 100.837 151.125 101.183 151.801C101.53 152.477 101.703 153.318 101.703 154.323C101.703 155.571 101.426 156.602 100.871 157.417C100.334 158.214 99.6061 158.812 98.6874 159.211L102.535 165.997H98.2454L94.9954 159.887H92.8894V165.997H89.0674ZM92.8894 156.845H94.8654C95.8708 156.845 96.6334 156.637 97.1534 156.221C97.6908 155.788 97.9594 155.155 97.9594 154.323C97.9594 153.491 97.6908 152.91 97.1534 152.581C96.6334 152.252 95.8708 152.087 94.8654 152.087H92.8894V156.845ZM113.203 166.309C112.059 166.309 111.01 166.11 110.057 165.711C109.121 165.295 108.315 164.706 107.639 163.943C106.963 163.18 106.434 162.253 106.053 161.161C105.689 160.069 105.507 158.83 105.507 157.443C105.507 156.056 105.689 154.826 106.053 153.751C106.434 152.659 106.963 151.749 107.639 151.021C108.315 150.276 109.121 149.712 110.057 149.331C111.01 148.932 112.059 148.733 113.203 148.733C114.347 148.733 115.387 148.932 116.323 149.331C117.276 149.712 118.091 150.276 118.767 151.021C119.443 151.766 119.963 152.685 120.327 153.777C120.708 154.852 120.899 156.074 120.899 157.443C120.899 158.83 120.708 160.069 120.327 161.161C119.963 162.253 119.443 163.18 118.767 163.943C118.091 164.706 117.276 165.295 116.323 165.711C115.387 166.11 114.347 166.309 113.203 166.309ZM113.203 163.007C114.364 163.007 115.283 162.513 115.959 161.525C116.635 160.52 116.973 159.159 116.973 157.443C116.973 155.744 116.635 154.418 115.959 153.465C115.283 152.512 114.364 152.035 113.203 152.035C112.041 152.035 111.123 152.512 110.447 153.465C109.771 154.418 109.433 155.744 109.433 157.443C109.433 159.159 109.771 160.52 110.447 161.525C111.123 162.513 112.041 163.007 113.203 163.007ZM127.864 166.309C126.564 166.309 125.472 166.058 124.588 165.555C123.721 165.052 122.993 164.281 122.404 163.241L125.004 161.317C125.316 161.889 125.68 162.314 126.096 162.591C126.512 162.868 126.936 163.007 127.37 163.007C128.063 163.007 128.583 162.799 128.93 162.383C129.294 161.95 129.476 161.17 129.476 160.043V149.045H133.298V160.355C133.298 161.17 133.185 161.941 132.96 162.669C132.752 163.397 132.422 164.03 131.972 164.567C131.538 165.104 130.975 165.529 130.282 165.841C129.606 166.153 128.8 166.309 127.864 166.309ZM138.518 165.997V149.045H149.126V152.269H142.34V155.675H148.112V158.873H142.34V162.773H149.386V165.997H138.518ZM161.134 166.309C160.06 166.309 159.046 166.127 158.092 165.763C157.139 165.382 156.298 164.827 155.57 164.099C154.86 163.371 154.296 162.47 153.88 161.395C153.464 160.303 153.256 159.046 153.256 157.625C153.256 156.221 153.473 154.973 153.906 153.881C154.34 152.772 154.92 151.836 155.648 151.073C156.376 150.31 157.226 149.73 158.196 149.331C159.167 148.932 160.19 148.733 161.264 148.733C162.356 148.733 163.336 148.958 164.202 149.409C165.069 149.842 165.788 150.354 166.36 150.943L164.332 153.387C163.899 152.988 163.44 152.668 162.954 152.425C162.486 152.165 161.949 152.035 161.342 152.035C160.77 152.035 160.224 152.165 159.704 152.425C159.202 152.668 158.76 153.023 158.378 153.491C158.014 153.959 157.72 154.531 157.494 155.207C157.286 155.883 157.182 156.646 157.182 157.495C157.182 159.246 157.555 160.606 158.3 161.577C159.046 162.53 160.042 163.007 161.29 163.007C161.984 163.007 162.599 162.86 163.136 162.565C163.691 162.253 164.176 161.872 164.592 161.421L166.62 163.813C165.199 165.477 163.37 166.309 161.134 166.309ZM173.492 165.997V152.269H168.838V149.045H181.994V152.269H177.34V165.997H173.492ZM190.452 166.309C189.342 166.309 188.233 166.11 187.124 165.711C186.032 165.295 185.052 164.68 184.186 163.865L186.37 161.239C186.976 161.759 187.644 162.184 188.372 162.513C189.117 162.842 189.845 163.007 190.556 163.007C191.353 163.007 191.942 162.86 192.324 162.565C192.722 162.27 192.922 161.872 192.922 161.369C192.922 161.109 192.861 160.884 192.74 160.693C192.636 160.502 192.471 160.338 192.246 160.199C192.038 160.043 191.778 159.904 191.466 159.783C191.171 159.644 190.842 159.497 190.478 159.341L188.268 158.405C187.834 158.232 187.41 158.006 186.994 157.729C186.595 157.452 186.231 157.131 185.902 156.767C185.59 156.386 185.338 155.952 185.148 155.467C184.957 154.964 184.862 154.401 184.862 153.777C184.862 153.084 185.009 152.434 185.304 151.827C185.598 151.203 186.014 150.666 186.552 150.215C187.089 149.747 187.722 149.383 188.45 149.123C189.195 148.863 190.01 148.733 190.894 148.733C191.882 148.733 192.852 148.924 193.806 149.305C194.776 149.686 195.626 150.241 196.354 150.969L194.404 153.387C193.849 152.954 193.294 152.624 192.74 152.399C192.185 152.156 191.57 152.035 190.894 152.035C190.235 152.035 189.706 152.174 189.308 152.451C188.926 152.711 188.736 153.084 188.736 153.569C188.736 153.829 188.796 154.054 188.918 154.245C189.056 154.418 189.238 154.583 189.464 154.739C189.706 154.878 189.984 155.016 190.296 155.155C190.608 155.276 190.946 155.415 191.31 155.571L193.494 156.455C194.534 156.871 195.348 157.443 195.938 158.171C196.544 158.899 196.848 159.861 196.848 161.057C196.848 161.768 196.7 162.444 196.406 163.085C196.128 163.709 195.712 164.264 195.158 164.749C194.62 165.217 193.953 165.598 193.156 165.893C192.358 166.17 191.457 166.309 190.452 166.309Z" fill="#A9DED9"/>
<path d="M4 28.9961C4 15.7413 14.7452 4.99609 28 4.99609H240C253.255 4.99609 264 15.7413 264 28.9961V198.996C264 212.251 253.255 222.996 240 222.996H28C14.7452 222.996 4 212.251 4 198.996V28.9961Z" stroke="#A9DED9" stroke-width="8" stroke-linecap="round" stroke-linejoin="round"/>
<path d="M69 4.99609H28C14.7452 4.99609 4 15.7413 4 28.9961V59.4961M199 222.996H231.5H240C253.255 222.996 264 212.251 264 198.996V195.746V168.496M69 222.996H28C14.7452 222.996 4 212.251 4 198.996V168.496" stroke="#EDBA4B" stroke-width="8" stroke-linecap="round" stroke-linejoin="round"/>
<path d="M112.601 121.813C110.425 121.813 108.385 121.541 106.481 120.997C104.623 120.408 102.991 119.592 101.585 118.549C100.225 117.506 99.16 116.26 98.3893 114.809C97.6187 113.358 97.2333 111.749 97.2333 109.981C97.2333 107.442 97.8907 105.38 99.2053 103.793C100.565 102.206 102.265 100.869 104.305 99.7811V99.5091C102.583 98.1944 101.2 96.7437 100.157 95.1571C99.1147 93.5251 98.5933 91.5757 98.5933 89.3091C98.5933 87.4051 98.9333 85.7051 99.6133 84.2091C100.339 82.6677 101.336 81.3757 102.605 80.3331C103.92 79.2904 105.439 78.4971 107.161 77.9531C108.929 77.3637 110.879 77.0691 113.009 77.0691C115.004 77.0691 116.817 77.3637 118.449 77.9531C120.127 78.4971 121.555 79.2904 122.733 80.3331C123.912 81.3304 124.819 82.5771 125.453 84.0731C126.133 85.5691 126.473 87.2237 126.473 89.0371C126.473 91.0317 125.929 92.7997 124.841 94.3411C123.799 95.8371 122.507 97.0837 120.965 98.0811V98.3531C123.096 99.4864 124.864 100.96 126.269 102.773C127.675 104.541 128.377 106.853 128.377 109.709C128.377 111.432 127.992 113.041 127.221 114.537C126.496 115.988 125.431 117.257 124.025 118.345C122.665 119.433 121.011 120.294 119.061 120.929C117.112 121.518 114.959 121.813 112.601 121.813ZM115.185 95.2931C116.455 93.4797 117.089 91.6664 117.089 89.8531C117.089 88.3571 116.704 87.2011 115.933 86.3851C115.163 85.5237 114.097 85.0931 112.737 85.0931C111.695 85.0931 110.765 85.4331 109.949 86.1131C109.179 86.7477 108.793 87.8131 108.793 89.3091C108.793 90.7597 109.337 91.9157 110.425 92.7771C111.559 93.6384 113.145 94.4771 115.185 95.2931ZM112.873 113.789C114.188 113.789 115.299 113.449 116.205 112.769C117.112 112.089 117.565 110.933 117.565 109.301C117.565 108.53 117.384 107.85 117.021 107.261C116.659 106.672 116.115 106.15 115.389 105.697C114.709 105.198 113.871 104.722 112.873 104.269C111.876 103.816 110.743 103.317 109.473 102.773C108.839 103.544 108.295 104.45 107.841 105.493C107.433 106.49 107.229 107.533 107.229 108.621C107.229 110.344 107.796 111.636 108.929 112.497C110.063 113.358 111.377 113.789 112.873 113.789ZM156.26 121.813C153.857 121.813 151.681 121.337 149.732 120.385C147.783 119.388 146.083 117.937 144.632 116.033C143.227 114.129 142.139 111.772 141.368 108.961C140.597 106.15 140.212 102.909 140.212 99.2371C140.212 95.5651 140.597 92.3464 141.368 89.5811C142.139 86.7704 143.227 84.4584 144.632 82.6451C146.083 80.7864 147.783 79.4037 149.732 78.4971C151.681 77.5451 153.857 77.0691 156.26 77.0691C158.617 77.0691 160.771 77.5451 162.72 78.4971C164.715 79.4037 166.415 80.7864 167.82 82.6451C169.271 84.5037 170.381 86.8157 171.152 89.5811C171.923 92.3464 172.308 95.5651 172.308 99.2371C172.308 102.909 171.923 106.15 171.152 108.961C170.381 111.772 169.271 114.129 167.82 116.033C166.415 117.937 164.715 119.388 162.72 120.385C160.771 121.337 158.617 121.813 156.26 121.813ZM156.26 112.837C156.94 112.837 157.575 112.678 158.164 112.361C158.799 111.998 159.343 111.318 159.796 110.321C160.249 109.324 160.612 107.941 160.884 106.173C161.156 104.405 161.292 102.093 161.292 99.2371C161.292 96.3811 161.156 94.0917 160.884 92.3691C160.612 90.6464 160.249 89.3091 159.796 88.3571C159.343 87.4051 158.799 86.7931 158.164 86.5211C157.575 86.2037 156.94 86.0451 156.26 86.0451C155.58 86.0451 154.923 86.2037 154.288 86.5211C153.699 86.7931 153.177 87.4051 152.724 88.3571C152.271 89.3091 151.908 90.6464 151.636 92.3691C151.364 94.0917 151.228 96.3811 151.228 99.2371C151.228 102.093 151.364 104.405 151.636 106.173C151.908 107.941 152.271 109.324 152.724 110.321C153.177 111.318 153.699 111.998 154.288 112.361C154.923 112.678 155.58 112.837 156.26 112.837Z" fill="#EDBA4B"/>
<path d="M72.2791 165.997V149.045H78.1031C79.0391 149.045 79.9145 149.14 80.7291 149.331C81.5438 149.504 82.2545 149.808 82.8611 150.241C83.4678 150.657 83.9445 151.22 84.2912 151.931C84.6551 152.624 84.8371 153.482 84.8371 154.505C84.8371 155.493 84.6551 156.351 84.2912 157.079C83.9445 157.807 83.4678 158.405 82.8611 158.873C82.2545 159.341 81.5525 159.688 80.7551 159.913C79.9578 160.138 79.1085 160.251 78.2071 160.251H76.1011V165.997H72.2791ZM76.1011 157.209H77.9731C80.0531 157.209 81.0931 156.308 81.0931 154.505C81.0931 153.621 80.8158 152.997 80.2611 152.633C79.7065 152.269 78.9091 152.087 77.8691 152.087H76.1011V157.209ZM89.0674 165.997V149.045H95.1774C96.0788 149.045 96.9194 149.132 97.6994 149.305C98.4968 149.478 99.1901 149.773 99.7794 150.189C100.369 150.588 100.837 151.125 101.183 151.801C101.53 152.477 101.703 153.318 101.703 154.323C101.703 155.571 101.426 156.602 100.871 157.417C100.334 158.214 99.6061 158.812 98.6874 159.211L102.535 165.997H98.2454L94.9954 159.887H92.8894V165.997H89.0674ZM92.8894 156.845H94.8654C95.8708 156.845 96.6334 156.637 97.1534 156.221C97.6908 155.788 97.9594 155.155 97.9594 154.323C97.9594 153.491 97.6908 152.91 97.1534 152.581C96.6334 152.252 95.8708 152.087 94.8654 152.087H92.8894V156.845ZM113.203 166.309C112.059 166.309 111.01 166.11 110.057 165.711C109.121 165.295 108.315 164.706 107.639 163.943C106.963 163.18 106.434 162.253 106.053 161.161C105.689 160.069 105.507 158.83 105.507 157.443C105.507 156.056 105.689 154.826 106.053 153.751C106.434 152.659 106.963 151.749 107.639 151.021C108.315 150.276 109.121 149.712 110.057 149.331C111.01 148.932 112.059 148.733 113.203 148.733C114.347 148.733 115.387 148.932 116.323 149.331C117.276 149.712 118.091 150.276 118.767 151.021C119.443 151.766 119.963 152.685 120.327 153.777C120.708 154.852 120.899 156.074 120.899 157.443C120.899 158.83 120.708 160.069 120.327 161.161C119.963 162.253 119.443 163.18 118.767 163.943C118.091 164.706 117.276 165.295 116.323 165.711C115.387 166.11 114.347 166.309 113.203 166.309ZM113.203 163.007C114.364 163.007 115.283 162.513 115.959 161.525C116.635 160.52 116.973 159.159 116.973 157.443C116.973 155.744 116.635 154.418 115.959 153.465C115.283 152.512 114.364 152.035 113.203 152.035C112.041 152.035 111.123 152.512 110.447 153.465C109.771 154.418 109.433 155.744 109.433 157.443C109.433 159.159 109.771 160.52 110.447 161.525C111.123 162.513 112.041 163.007 113.203 163.007ZM127.864 166.309C126.564 166.309 125.472 166.058 124.588 165.555C123.721 165.052 122.993 164.281 122.404 163.241L125.004 161.317C125.316 161.889 125.68 162.314 126.096 162.591C126.512 162.868 126.936 163.007 127.37 163.007C128.063 163.007 128.583 162.799 128.93 162.383C129.294 161.95 129.476 161.17 129.476 160.043V149.045H133.298V160.355C133.298 161.17 133.185 161.941 132.96 162.669C132.752 163.397 132.422 164.03 131.972 164.567C131.538 165.104 130.975 165.529 130.282 165.841C129.606 166.153 128.8 166.309 127.864 166.309ZM138.518 165.997V149.045H149.126V152.269H142.34V155.675H148.112V158.873H142.34V162.773H149.386V165.997H138.518ZM161.134 166.309C160.06 166.309 159.046 166.127 158.092 165.763C157.139 165.382 156.298 164.827 155.57 164.099C154.86 163.371 154.296 162.47 153.88 161.395C153.464 160.303 153.256 159.046 153.256 157.625C153.256 156.221 153.473 154.973 153.906 153.881C154.34 152.772 154.92 151.836 155.648 151.073C156.376 150.31 157.226 149.73 158.196 149.331C159.167 148.932 160.19 148.733 161.264 148.733C162.356 148.733 163.336 148.958 164.202 149.409C165.069 149.842 165.788 150.354 166.36 150.943L164.332 153.387C163.899 152.988 163.44 152.668 162.954 152.425C162.486 152.165 161.949 152.035 161.342 152.035C160.77 152.035 160.224 152.165 159.704 152.425C159.202 152.668 158.76 153.023 158.378 153.491C158.014 153.959 157.72 154.531 157.494 155.207C157.286 155.883 157.182 156.646 157.182 157.495C157.182 159.246 157.555 160.606 158.3 161.577C159.046 162.53 160.042 163.007 161.29 163.007C161.984 163.007 162.599 162.86 163.136 162.565C163.691 162.253 164.176 161.872 164.592 161.421L166.62 163.813C165.199 165.477 163.37 166.309 161.134 166.309ZM173.492 165.997V152.269H168.838V149.045H181.994V152.269H177.34V165.997H173.492ZM190.452 166.309C189.342 166.309 188.233 166.11 187.124 165.711C186.032 165.295 185.052 164.68 184.186 163.865L186.37 161.239C186.976 161.759 187.644 162.184 188.372 162.513C189.117 162.842 189.845 163.007 190.556 163.007C191.353 163.007 191.942 162.86 192.324 162.565C192.722 162.27 192.922 161.872 192.922 161.369C192.922 161.109 192.861 160.884 192.74 160.693C192.636 160.502 192.471 160.338 192.246 160.199C192.038 160.043 191.778 159.904 191.466 159.783C191.171 159.644 190.842 159.497 190.478 159.341L188.268 158.405C187.834 158.232 187.41 158.006 186.994 157.729C186.595 157.452 186.231 157.131 185.902 156.767C185.59 156.386 185.338 155.952 185.148 155.467C184.957 154.964 184.862 154.401 184.862 153.777C184.862 153.084 185.009 152.434 185.304 151.827C185.598 151.203 186.014 150.666 186.552 150.215C187.089 149.747 187.722 149.383 188.45 149.123C189.195 148.863 190.01 148.733 190.894 148.733C191.882 148.733 192.852 148.924 193.806 149.305C194.776 149.686 195.626 150.241 196.354 150.969L194.404 153.387C193.849 152.954 193.294 152.624 192.74 152.399C192.185 152.156 191.57 152.035 190.894 152.035C190.235 152.035 189.706 152.174 189.308 152.451C188.926 152.711 188.736 153.084 188.736 153.569C188.736 153.829 188.796 154.054 188.918 154.245C189.056 154.418 189.238 154.583 189.464 154.739C189.706 154.878 189.984 155.016 190.296 155.155C190.608 155.276 190.946 155.415 191.31 155.571L193.494 156.455C194.534 156.871 195.348 157.443 195.938 158.171C196.544 158.899 196.848 159.861 196.848 161.057C196.848 161.768 196.7 162.444 196.406 163.085C196.128 163.709 195.712 164.264 195.158 164.749C194.62 165.217 193.953 165.598 193.156 165.893C192.358 166.17 191.457 166.309 190.452 166.309Z" fill="#A9DED9"/>
<path d="M112.601 121.813C110.425 121.813 108.385 121.541 106.481 120.997C104.623 120.408 102.991 119.592 101.585 118.549C100.225 117.506 99.16 116.26 98.3893 114.809C97.6187 113.358 97.2333 111.749 97.2333 109.981C97.2333 107.442 97.8907 105.38 99.2053 103.793C100.565 102.206 102.265 100.869 104.305 99.7811V99.5091C102.583 98.1944 101.2 96.7437 100.157 95.1571C99.1147 93.5251 98.5933 91.5757 98.5933 89.3091C98.5933 87.4051 98.9333 85.7051 99.6133 84.2091C100.339 82.6677 101.336 81.3757 102.605 80.3331C103.92 79.2904 105.439 78.4971 107.161 77.9531C108.929 77.3637 110.879 77.0691 113.009 77.0691C115.004 77.0691 116.817 77.3637 118.449 77.9531C120.127 78.4971 121.555 79.2904 122.733 80.3331C123.912 81.3304 124.819 82.5771 125.453 84.0731C126.133 85.5691 126.473 87.2237 126.473 89.0371C126.473 91.0317 125.929 92.7997 124.841 94.3411C123.799 95.8371 122.507 97.0837 120.965 98.0811V98.3531C123.096 99.4864 124.864 100.96 126.269 102.773C127.675 104.541 128.377 106.853 128.377 109.709C128.377 111.432 127.992 113.041 127.221 114.537C126.496 115.988 125.431 117.257 124.025 118.345C122.665 119.433 121.011 120.294 119.061 120.929C117.112 121.518 114.959 121.813 112.601 121.813ZM115.185 95.2931C116.455 93.4797 117.089 91.6664 117.089 89.8531C117.089 88.3571 116.704 87.2011 115.933 86.3851C115.163 85.5237 114.097 85.0931 112.737 85.0931C111.695 85.0931 110.765 85.4331 109.949 86.1131C109.179 86.7477 108.793 87.8131 108.793 89.3091C108.793 90.7597 109.337 91.9157 110.425 92.7771C111.559 93.6384 113.145 94.4771 115.185 95.2931ZM112.873 113.789C114.188 113.789 115.299 113.449 116.205 112.769C117.112 112.089 117.565 110.933 117.565 109.301C117.565 108.53 117.384 107.85 117.021 107.261C116.659 106.672 116.115 106.15 115.389 105.697C114.709 105.198 113.871 104.722 112.873 104.269C111.876 103.816 110.743 103.317 109.473 102.773C108.839 103.544 108.295 104.45 107.841 105.493C107.433 106.49 107.229 107.533 107.229 108.621C107.229 110.344 107.796 111.636 108.929 112.497C110.063 113.358 111.377 113.789 112.873 113.789ZM156.26 121.813C153.857 121.813 151.681 121.337 149.732 120.385C147.783 119.388 146.083 117.937 144.632 116.033C143.227 114.129 142.139 111.772 141.368 108.961C140.597 106.15 140.212 102.909 140.212 99.2371C140.212 95.5651 140.597 92.3464 141.368 89.5811C142.139 86.7704 143.227 84.4584 144.632 82.6451C146.083 80.7864 147.783 79.4037 149.732 78.4971C151.681 77.5451 153.857 77.0691 156.26 77.0691C158.617 77.0691 160.771 77.5451 162.72 78.4971C164.715 79.4037 166.415 80.7864 167.82 82.6451C169.271 84.5037 170.381 86.8157 171.152 89.5811C171.923 92.3464 172.308 95.5651 172.308 99.2371C172.308 102.909 171.923 106.15 171.152 108.961C170.381 111.772 169.271 114.129 167.82 116.033C166.415 117.937 164.715 119.388 162.72 120.385C160.771 121.337 158.617 121.813 156.26 121.813ZM156.26 112.837C156.94 112.837 157.575 112.678 158.164 112.361C158.799 111.998 159.343 111.318 159.796 110.321C160.249 109.324 160.612 107.941 160.884 106.173C161.156 104.405 161.292 102.093 161.292 99.2371C161.292 96.3811 161.156 94.0917 160.884 92.3691C160.612 90.6464 160.249 89.3091 159.796 88.3571C159.343 87.4051 158.799 86.7931 158.164 86.5211C157.575 86.2037 156.94 86.0451 156.26 86.0451C155.58 86.0451 154.923 86.2037 154.288 86.5211C153.699 86.7931 153.177 87.4051 152.724 88.3571C152.271 89.3091 151.908 90.6464 151.636 92.3691C151.364 94.0917 151.228 96.3811 151.228 99.2371C151.228 102.093 151.364 104.405 151.636 106.173C151.908 107.941 152.271 109.324 152.724 110.321C153.177 111.318 153.699 111.998 154.288 112.361C154.923 112.678 155.58 112.837 156.26 112.837Z" fill="#EDBA4B"/>
<path d="M72.2791 165.997V149.045H78.1031C79.0391 149.045 79.9145 149.14 80.7291 149.331C81.5438 149.504 82.2545 149.808 82.8611 150.241C83.4678 150.657 83.9445 151.22 84.2912 151.931C84.6551 152.624 84.8371 153.482 84.8371 154.505C84.8371 155.493 84.6551 156.351 84.2912 157.079C83.9445 157.807 83.4678 158.405 82.8611 158.873C82.2545 159.341 81.5525 159.688 80.7551 159.913C79.9578 160.138 79.1085 160.251 78.2071 160.251H76.1011V165.997H72.2791ZM76.1011 157.209H77.9731C80.0531 157.209 81.0931 156.308 81.0931 154.505C81.0931 153.621 80.8158 152.997 80.2611 152.633C79.7065 152.269 78.9091 152.087 77.8691 152.087H76.1011V157.209ZM89.0674 165.997V149.045H95.1774C96.0788 149.045 96.9194 149.132 97.6994 149.305C98.4968 149.478 99.1901 149.773 99.7794 150.189C100.369 150.588 100.837 151.125 101.183 151.801C101.53 152.477 101.703 153.318 101.703 154.323C101.703 155.571 101.426 156.602 100.871 157.417C100.334 158.214 99.6061 158.812 98.6874 159.211L102.535 165.997H98.2454L94.9954 159.887H92.8894V165.997H89.0674ZM92.8894 156.845H94.8654C95.8708 156.845 96.6334 156.637 97.1534 156.221C97.6908 155.788 97.9594 155.155 97.9594 154.323C97.9594 153.491 97.6908 152.91 97.1534 152.581C96.6334 152.252 95.8708 152.087 94.8654 152.087H92.8894V156.845ZM113.203 166.309C112.059 166.309 111.01 166.11 110.057 165.711C109.121 165.295 108.315 164.706 107.639 163.943C106.963 163.18 106.434 162.253 106.053 161.161C105.689 160.069 105.507 158.83 105.507 157.443C105.507 156.056 105.689 154.826 106.053 153.751C106.434 152.659 106.963 151.749 107.639 151.021C108.315 150.276 109.121 149.712 110.057 149.331C111.01 148.932 112.059 148.733 113.203 148.733C114.347 148.733 115.387 148.932 116.323 149.331C117.276 149.712 118.091 150.276 118.767 151.021C119.443 151.766 119.963 152.685 120.327 153.777C120.708 154.852 120.899 156.074 120.899 157.443C120.899 158.83 120.708 160.069 120.327 161.161C119.963 162.253 119.443 163.18 118.767 163.943C118.091 164.706 117.276 165.295 116.323 165.711C115.387 166.11 114.347 166.309 113.203 166.309ZM113.203 163.007C114.364 163.007 115.283 162.513 115.959 161.525C116.635 160.52 116.973 159.159 116.973 157.443C116.973 155.744 116.635 154.418 115.959 153.465C115.283 152.512 114.364 152.035 113.203 152.035C112.041 152.035 111.123 152.512 110.447 153.465C109.771 154.418 109.433 155.744 109.433 157.443C109.433 159.159 109.771 160.52 110.447 161.525C111.123 162.513 112.041 163.007 113.203 163.007ZM127.864 166.309C126.564 166.309 125.472 166.058 124.588 165.555C123.721 165.052 122.993 164.281 122.404 163.241L125.004 161.317C125.316 161.889 125.68 162.314 126.096 162.591C126.512 162.868 126.936 163.007 127.37 163.007C128.063 163.007 128.583 162.799 128.93 162.383C129.294 161.95 129.476 161.17 129.476 160.043V149.045H133.298V160.355C133.298 161.17 133.185 161.941 132.96 162.669C132.752 163.397 132.422 164.03 131.972 164.567C131.538 165.104 130.975 165.529 130.282 165.841C129.606 166.153 128.8 166.309 127.864 166.309ZM138.518 165.997V149.045H149.126V152.269H142.34V155.675H148.112V158.873H142.34V162.773H149.386V165.997H138.518ZM161.134 166.309C160.06 166.309 159.046 166.127 158.092 165.763C157.139 165.382 156.298 164.827 155.57 164.099C154.86 163.371 154.296 162.47 153.88 161.395C153.464 160.303 153.256 159.046 153.256 157.625C153.256 156.221 153.473 154.973 153.906 153.881C154.34 152.772 154.92 151.836 155.648 151.073C156.376 150.31 157.226 149.73 158.196 149.331C159.167 148.932 160.19 148.733 161.264 148.733C162.356 148.733 163.336 148.958 164.202 149.409C165.069 149.842 165.788 150.354 166.36 150.943L164.332 153.387C163.899 152.988 163.44 152.668 162.954 152.425C162.486 152.165 161.949 152.035 161.342 152.035C160.77 152.035 160.224 152.165 159.704 152.425C159.202 152.668 158.76 153.023 158.378 153.491C158.014 153.959 157.72 154.531 157.494 155.207C157.286 155.883 157.182 156.646 157.182 157.495C157.182 159.246 157.555 160.606 158.3 161.577C159.046 162.53 160.042 163.007 161.29 163.007C161.984 163.007 162.599 162.86 163.136 162.565C163.691 162.253 164.176 161.872 164.592 161.421L166.62 163.813C165.199 165.477 163.37 166.309 161.134 166.309ZM173.492 165.997V152.269H168.838V149.045H181.994V152.269H177.34V165.997H173.492ZM190.452 166.309C189.342 166.309 188.233 166.11 187.124 165.711C186.032 165.295 185.052 164.68 184.186 163.865L186.37 161.239C186.976 161.759 187.644 162.184 188.372 162.513C189.117 162.842 189.845 163.007 190.556 163.007C191.353 163.007 191.942 162.86 192.324 162.565C192.722 162.27 192.922 161.872 192.922 161.369C192.922 161.109 192.861 160.884 192.74 160.693C192.636 160.502 192.471 160.338 192.246 160.199C192.038 160.043 191.778 159.904 191.466 159.783C191.171 159.644 190.842 159.497 190.478 159.341L188.268 158.405C187.834 158.232 187.41 158.006 186.994 157.729C186.595 157.452 186.231 157.131 185.902 156.767C185.59 156.386 185.338 155.952 185.148 155.467C184.957 154.964 184.862 154.401 184.862 153.777C184.862 153.084 185.009 152.434 185.304 151.827C185.598 151.203 186.014 150.666 186.552 150.215C187.089 149.747 187.722 149.383 188.45 149.123C189.195 148.863 190.01 148.733 190.894 148.733C191.882 148.733 192.852 148.924 193.806 149.305C194.776 149.686 195.626 150.241 196.354 150.969L194.404 153.387C193.849 152.954 193.294 152.624 192.74 152.399C192.185 152.156 191.57 152.035 190.894 152.035C190.235 152.035 189.706 152.174 189.308 152.451C188.926 152.711 188.736 153.084 188.736 153.569C188.736 153.829 188.796 154.054 188.918 154.245C189.056 154.418 189.238 154.583 189.464 154.739C189.706 154.878 189.984 155.016 190.296 155.155C190.608 155.276 190.946 155.415 191.31 155.571L193.494 156.455C194.534 156.871 195.348 157.443 195.938 158.171C196.544 158.899 196.848 159.861 196.848 161.057C196.848 161.768 196.7 162.444 196.406 163.085C196.128 163.709 195.712 164.264 195.158 164.749C194.62 165.217 193.953 165.598 193.156 165.893C192.358 166.17 191.457 166.309 190.452 166.309Z" fill="#A9DED9"/>
</svg>
