<svg width="269" height="227" viewBox="0 0 269 227" fill="none" xmlns="http://www.w3.org/2000/svg">
<path d="M76.1411 120.997V111.613H85.3891V89.3091H77.2291V82.1011C79.6771 81.6024 81.7625 81.0357 83.4851 80.4011C85.2078 79.7664 86.8851 78.9277 88.5171 77.8851H97.0851V111.613H104.837V120.997H76.1411ZM119.12 120.997V73.6691H130.544V98.8291H130.816L140.2 86.9971H152.848L140.744 101.141L153.528 120.997H140.88L134.08 108.893L130.544 112.837V120.997H119.12ZM174.768 114.877V102.637H162.936V94.4771H174.768V82.2371H183.2V94.4771H195.032V102.637H183.2V114.877H174.768Z" fill="#EC9D89"/>
<path d="M63.2697 157.417L62.8537 158.977H66.4677L66.0777 157.417C65.835 156.568 65.601 155.666 65.3757 154.713C65.1503 153.76 64.925 152.841 64.6997 151.957H64.5957C64.3877 152.858 64.171 153.786 63.9457 154.739C63.7377 155.675 63.5123 156.568 63.2697 157.417ZM57.1336 165.997L62.4377 149.045H67.0397L72.3437 165.997H68.2877L67.2477 161.967H62.0737L61.0337 165.997H57.1336ZM75.4959 165.997V149.045H81.3199C82.2559 149.045 83.1313 149.14 83.9459 149.331C84.7606 149.504 85.4713 149.808 86.0779 150.241C86.6846 150.657 87.1613 151.22 87.5079 151.931C87.8719 152.624 88.0539 153.482 88.0539 154.505C88.0539 155.493 87.8719 156.351 87.5079 157.079C87.1613 157.807 86.6846 158.405 86.0779 158.873C85.4713 159.341 84.7693 159.688 83.9719 159.913C83.1746 160.138 82.3253 160.251 81.4239 160.251H79.3179V165.997H75.4959ZM79.3179 157.209H81.1899C83.2699 157.209 84.3099 156.308 84.3099 154.505C84.3099 153.621 84.0326 152.997 83.4779 152.633C82.9233 152.269 82.1259 152.087 81.0859 152.087H79.3179V157.209ZM92.2842 165.997V149.045H98.1082C99.0442 149.045 99.9196 149.14 100.734 149.331C101.549 149.504 102.26 149.808 102.866 150.241C103.473 150.657 103.95 151.22 104.296 151.931C104.66 152.624 104.842 153.482 104.842 154.505C104.842 155.493 104.66 156.351 104.296 157.079C103.95 157.807 103.473 158.405 102.866 158.873C102.26 159.341 101.558 159.688 100.76 159.913C99.9629 160.138 99.1136 160.251 98.2122 160.251H96.1062V165.997H92.2842ZM96.1062 157.209H97.9782C100.058 157.209 101.098 156.308 101.098 154.505C101.098 153.621 100.821 152.997 100.266 152.633C99.7116 152.269 98.9142 152.087 97.8742 152.087H96.1062V157.209ZM109.073 165.997V149.045H112.895V162.773H119.603V165.997H109.073ZM123.83 165.997V149.045H127.652V165.997H123.83ZM140.022 166.309C138.947 166.309 137.933 166.127 136.98 165.763C136.027 165.382 135.186 164.827 134.458 164.099C133.747 163.371 133.184 162.47 132.768 161.395C132.352 160.303 132.144 159.046 132.144 157.625C132.144 156.221 132.361 154.973 132.794 153.881C133.227 152.772 133.808 151.836 134.536 151.073C135.264 150.31 136.113 149.73 137.084 149.331C138.055 148.932 139.077 148.733 140.152 148.733C141.244 148.733 142.223 148.958 143.09 149.409C143.957 149.842 144.676 150.354 145.248 150.943L143.22 153.387C142.787 152.988 142.327 152.668 141.842 152.425C141.374 152.165 140.837 152.035 140.23 152.035C139.658 152.035 139.112 152.165 138.592 152.425C138.089 152.668 137.647 153.023 137.266 153.491C136.902 153.959 136.607 154.531 136.382 155.207C136.174 155.883 136.07 156.646 136.07 157.495C136.07 159.246 136.443 160.606 137.188 161.577C137.933 162.53 138.93 163.007 140.178 163.007C140.871 163.007 141.487 162.86 142.024 162.565C142.579 162.253 143.064 161.872 143.48 161.421L145.508 163.813C144.087 165.477 142.258 166.309 140.022 166.309ZM153.361 157.417L152.945 158.977H156.559L156.169 157.417C155.926 156.568 155.692 155.666 155.467 154.713C155.241 153.76 155.016 152.841 154.791 151.957H154.687C154.479 152.858 154.262 153.786 154.037 154.739C153.829 155.675 153.603 156.568 153.361 157.417ZM147.225 165.997L152.529 149.045H157.131L162.435 165.997H158.379L157.339 161.967H152.165L151.125 165.997H147.225ZM165.587 165.997V149.045H169.513L173.933 157.469L175.597 161.213H175.701C175.614 160.312 175.51 159.306 175.389 158.197C175.285 157.088 175.233 156.03 175.233 155.025V149.045H178.873V165.997H174.947L170.527 157.547L168.863 153.855H168.759C168.846 154.791 168.941 155.796 169.045 156.871C169.166 157.946 169.227 158.986 169.227 159.991V165.997H165.587ZM187.48 165.997V152.269H182.826V149.045H195.982V152.269H191.328V165.997H187.48ZM204.439 166.309C203.33 166.309 202.22 166.11 201.111 165.711C200.019 165.295 199.04 164.68 198.173 163.865L200.357 161.239C200.964 161.759 201.631 162.184 202.359 162.513C203.104 162.842 203.832 163.007 204.543 163.007C205.34 163.007 205.93 162.86 206.311 162.565C206.71 162.27 206.909 161.872 206.909 161.369C206.909 161.109 206.848 160.884 206.727 160.693C206.623 160.502 206.458 160.338 206.233 160.199C206.025 160.043 205.765 159.904 205.453 159.783C205.158 159.644 204.829 159.497 204.465 159.341L202.255 158.405C201.822 158.232 201.397 158.006 200.981 157.729C200.582 157.452 200.218 157.131 199.889 156.767C199.577 156.386 199.326 155.952 199.135 155.467C198.944 154.964 198.849 154.401 198.849 153.777C198.849 153.084 198.996 152.434 199.291 151.827C199.586 151.203 200.002 150.666 200.539 150.215C201.076 149.747 201.709 149.383 202.437 149.123C203.182 148.863 203.997 148.733 204.881 148.733C205.869 148.733 206.84 148.924 207.793 149.305C208.764 149.686 209.613 150.241 210.341 150.969L208.391 153.387C207.836 152.954 207.282 152.624 206.727 152.399C206.172 152.156 205.557 152.035 204.881 152.035C204.222 152.035 203.694 152.174 203.295 152.451C202.914 152.711 202.723 153.084 202.723 153.569C202.723 153.829 202.784 154.054 202.905 154.245C203.044 154.418 203.226 154.583 203.451 154.739C203.694 154.878 203.971 155.016 204.283 155.155C204.595 155.276 204.933 155.415 205.297 155.571L207.481 156.455C208.521 156.871 209.336 157.443 209.925 158.171C210.532 158.899 210.835 159.861 210.835 161.057C210.835 161.768 210.688 162.444 210.393 163.085C210.116 163.709 209.7 164.264 209.145 164.749C208.608 165.217 207.94 165.598 207.143 165.893C206.346 166.17 205.444 166.309 204.439 166.309Z" fill="#A9DED9"/>
<path d="M4.5 28.9961C4.5 15.7413 15.2452 4.99609 28.5 4.99609H240.5C253.755 4.99609 264.5 15.7413 264.5 28.9961V198.996C264.5 212.251 253.755 222.996 240.5 222.996H28.5C15.2452 222.996 4.5 212.251 4.5 198.996V28.9961Z" stroke="#A9DED9" stroke-width="8" stroke-linecap="round" stroke-linejoin="round"/>
<path d="M76.1411 120.997V111.613H85.3891V89.3091H77.2291V82.1011C79.6771 81.6024 81.7625 81.0357 83.4851 80.4011C85.2078 79.7664 86.8851 78.9277 88.5171 77.8851H97.0851V111.613H104.837V120.997H76.1411ZM119.12 120.997V73.6691H130.544V98.8291H130.816L140.2 86.9971H152.848L140.744 101.141L153.528 120.997H140.88L134.08 108.893L130.544 112.837V120.997H119.12ZM174.768 114.877V102.637H162.936V94.4771H174.768V82.2371H183.2V94.4771H195.032V102.637H183.2V114.877H174.768Z" fill="#EC9D89"/>
<path d="M63.2697 157.417L62.8537 158.977H66.4677L66.0777 157.417C65.835 156.568 65.601 155.666 65.3757 154.713C65.1503 153.76 64.925 152.841 64.6997 151.957H64.5957C64.3877 152.858 64.171 153.786 63.9457 154.739C63.7377 155.675 63.5123 156.568 63.2697 157.417ZM57.1336 165.997L62.4377 149.045H67.0397L72.3437 165.997H68.2877L67.2477 161.967H62.0737L61.0337 165.997H57.1336ZM75.4959 165.997V149.045H81.3199C82.2559 149.045 83.1313 149.14 83.9459 149.331C84.7606 149.504 85.4713 149.808 86.0779 150.241C86.6846 150.657 87.1613 151.22 87.5079 151.931C87.8719 152.624 88.0539 153.482 88.0539 154.505C88.0539 155.493 87.8719 156.351 87.5079 157.079C87.1613 157.807 86.6846 158.405 86.0779 158.873C85.4713 159.341 84.7693 159.688 83.9719 159.913C83.1746 160.138 82.3253 160.251 81.4239 160.251H79.3179V165.997H75.4959ZM79.3179 157.209H81.1899C83.2699 157.209 84.3099 156.308 84.3099 154.505C84.3099 153.621 84.0326 152.997 83.4779 152.633C82.9233 152.269 82.1259 152.087 81.0859 152.087H79.3179V157.209ZM92.2842 165.997V149.045H98.1082C99.0442 149.045 99.9196 149.14 100.734 149.331C101.549 149.504 102.26 149.808 102.866 150.241C103.473 150.657 103.95 151.22 104.296 151.931C104.66 152.624 104.842 153.482 104.842 154.505C104.842 155.493 104.66 156.351 104.296 157.079C103.95 157.807 103.473 158.405 102.866 158.873C102.26 159.341 101.558 159.688 100.76 159.913C99.9629 160.138 99.1136 160.251 98.2122 160.251H96.1062V165.997H92.2842ZM96.1062 157.209H97.9782C100.058 157.209 101.098 156.308 101.098 154.505C101.098 153.621 100.821 152.997 100.266 152.633C99.7116 152.269 98.9142 152.087 97.8742 152.087H96.1062V157.209ZM109.073 165.997V149.045H112.895V162.773H119.603V165.997H109.073ZM123.83 165.997V149.045H127.652V165.997H123.83ZM140.022 166.309C138.947 166.309 137.933 166.127 136.98 165.763C136.027 165.382 135.186 164.827 134.458 164.099C133.747 163.371 133.184 162.47 132.768 161.395C132.352 160.303 132.144 159.046 132.144 157.625C132.144 156.221 132.361 154.973 132.794 153.881C133.227 152.772 133.808 151.836 134.536 151.073C135.264 150.31 136.113 149.73 137.084 149.331C138.055 148.932 139.077 148.733 140.152 148.733C141.244 148.733 142.223 148.958 143.09 149.409C143.957 149.842 144.676 150.354 145.248 150.943L143.22 153.387C142.787 152.988 142.327 152.668 141.842 152.425C141.374 152.165 140.837 152.035 140.23 152.035C139.658 152.035 139.112 152.165 138.592 152.425C138.089 152.668 137.647 153.023 137.266 153.491C136.902 153.959 136.607 154.531 136.382 155.207C136.174 155.883 136.07 156.646 136.07 157.495C136.07 159.246 136.443 160.606 137.188 161.577C137.933 162.53 138.93 163.007 140.178 163.007C140.871 163.007 141.487 162.86 142.024 162.565C142.579 162.253 143.064 161.872 143.48 161.421L145.508 163.813C144.087 165.477 142.258 166.309 140.022 166.309ZM153.361 157.417L152.945 158.977H156.559L156.169 157.417C155.926 156.568 155.692 155.666 155.467 154.713C155.241 153.76 155.016 152.841 154.791 151.957H154.687C154.479 152.858 154.262 153.786 154.037 154.739C153.829 155.675 153.603 156.568 153.361 157.417ZM147.225 165.997L152.529 149.045H157.131L162.435 165.997H158.379L157.339 161.967H152.165L151.125 165.997H147.225ZM165.587 165.997V149.045H169.513L173.933 157.469L175.597 161.213H175.701C175.614 160.312 175.51 159.306 175.389 158.197C175.285 157.088 175.233 156.03 175.233 155.025V149.045H178.873V165.997H174.947L170.527 157.547L168.863 153.855H168.759C168.846 154.791 168.941 155.796 169.045 156.871C169.166 157.946 169.227 158.986 169.227 159.991V165.997H165.587ZM187.48 165.997V152.269H182.826V149.045H195.982V152.269H191.328V165.997H187.48ZM204.439 166.309C203.33 166.309 202.22 166.11 201.111 165.711C200.019 165.295 199.04 164.68 198.173 163.865L200.357 161.239C200.964 161.759 201.631 162.184 202.359 162.513C203.104 162.842 203.832 163.007 204.543 163.007C205.34 163.007 205.93 162.86 206.311 162.565C206.71 162.27 206.909 161.872 206.909 161.369C206.909 161.109 206.848 160.884 206.727 160.693C206.623 160.502 206.458 160.338 206.233 160.199C206.025 160.043 205.765 159.904 205.453 159.783C205.158 159.644 204.829 159.497 204.465 159.341L202.255 158.405C201.822 158.232 201.397 158.006 200.981 157.729C200.582 157.452 200.218 157.131 199.889 156.767C199.577 156.386 199.326 155.952 199.135 155.467C198.944 154.964 198.849 154.401 198.849 153.777C198.849 153.084 198.996 152.434 199.291 151.827C199.586 151.203 200.002 150.666 200.539 150.215C201.076 149.747 201.709 149.383 202.437 149.123C203.182 148.863 203.997 148.733 204.881 148.733C205.869 148.733 206.84 148.924 207.793 149.305C208.764 149.686 209.613 150.241 210.341 150.969L208.391 153.387C207.836 152.954 207.282 152.624 206.727 152.399C206.172 152.156 205.557 152.035 204.881 152.035C204.222 152.035 203.694 152.174 203.295 152.451C202.914 152.711 202.723 153.084 202.723 153.569C202.723 153.829 202.784 154.054 202.905 154.245C203.044 154.418 203.226 154.583 203.451 154.739C203.694 154.878 203.971 155.016 204.283 155.155C204.595 155.276 204.933 155.415 205.297 155.571L207.481 156.455C208.521 156.871 209.336 157.443 209.925 158.171C210.532 158.899 210.835 159.861 210.835 161.057C210.835 161.768 210.688 162.444 210.393 163.085C210.116 163.709 209.7 164.264 209.145 164.749C208.608 165.217 207.94 165.598 207.143 165.893C206.346 166.17 205.444 166.309 204.439 166.309Z" fill="#A9DED9"/>
<path d="M199.5 4.99609H240.5C253.755 4.99609 264.5 15.7413 264.5 28.9961V32.2461M69.5 4.99609H37H28.5C15.2452 4.99609 4.5 15.7413 4.5 28.9961V32.2461M69.5 222.996H37H28.5C15.2452 222.996 4.5 212.251 4.5 198.996V177.496" stroke="#EC9D89" stroke-width="8" stroke-linecap="round" stroke-linejoin="round"/>
</svg>
