<svg width="176" height="46" viewBox="0 0 176 46" fill="none" xmlns="http://www.w3.org/2000/svg">
<path d="M175.394 46.0003H36.6526H0.664062C0.664062 46.0003 0.664062 40.009 4.57586 32.1942C6.81282 27.7253 13.6077 17.418 17.7456 14.6109C21.6693 11.949 31.9232 8.2605 36.6526 8.61953C43.1227 9.11068 51.1263 14.6109 51.1263 14.6109C51.1263 14.6109 61.0972 24.3254 66.9038 22.5559C71.538 21.1437 80.7872 14.6498 80.7872 14.6498C80.7872 14.6498 92.4881 1.98369 99.301 1.11339C107.925 0.0117944 113.995 4.22438 113.995 4.22438C113.995 4.22438 117.673 5.52981 126.363 13.3084C135.053 21.087 133.273 19.8445 138.623 22.5559C148.962 27.7953 161.582 22.4629 168.089 26.1589C177.622 31.5739 175.394 46.0003 175.394 46.0003Z" fill="url(#paint0_linear)"/>
<defs>
<linearGradient id="paint0_linear" x1="91.9391" y1="-18.2893" x2="91.9391" y2="46.0004" gradientUnits="userSpaceOnUse">
<stop stop-color="#23B5AF"/>
<stop offset="1" stop-color="white" stop-opacity="0"/>
</linearGradient>
</defs>
</svg>
