<svg xmlns="http://www.w3.org/2000/svg" width="270" height="70" fill="none" viewBox="0 0 270 70"><path fill="url(#paint0_linear)" d="M1.00134 69.6426H214.285H269.61C269.61 69.6426 269.61 60.4322 263.596 48.4187C260.158 41.5487 249.712 25.7036 243.351 21.3883C237.319 17.2963 221.556 11.626 214.285 12.1779C204.339 12.9329 192.035 21.3883 192.035 21.3883C192.035 21.3883 176.707 36.3222 167.781 33.602C160.657 31.431 146.438 21.4481 146.438 21.4481C146.438 21.4481 128.451 1.97674 117.977 0.638852C104.721 -1.05461 95.3879 5.4213 95.3879 5.4213C95.3879 5.4213 89.7347 7.42812 76.3754 19.386C63.0161 31.3439 65.7534 29.4338 57.5285 33.602C41.6353 41.6564 22.2343 33.459 12.2312 39.1408C-2.4245 47.4652 1.00134 69.6426 1.00134 69.6426Z"/><defs><linearGradient id="paint0_linear" x1="129.295" x2="129.295" y1="-29.189" y2="69.643" gradientUnits="userSpaceOnUse"><stop stop-color="#23B5AF"/><stop offset="1" stop-color="#fff" stop-opacity="0"/></linearGradient></defs></svg>