<svg xmlns="http://www.w3.org/2000/svg" width="66" height="18" fill="none" viewBox="0 0 66 18"><path fill="url(#paint0_linear)" d="M65.1989 17.2127H14.5545H0.6875C0.6875 17.2127 0.6875 14.9189 2.19478 11.927C3.05671 10.2161 5.125 6.82899 7.09723 5.46987C9.42541 3.86546 11.8634 2.90152 14.5545 2.90152C17.0546 2.90152 19.9715 5.30678 19.9715 5.30678C19.9715 5.30678 24.2446 7.97329 26.0508 8.34852C29.5039 9.06588 31.2349 5.19529 31.2349 5.19529C31.2349 5.19529 35.9917 0.34788 38.3191 0.158962C43.0355 -0.223867 43.7956 1.25598 43.7956 1.25598C43.7956 1.25598 45.2526 1.25598 49.1213 4.69664C52.99 8.1373 55.2006 6.79096 55.2006 6.79096C55.2006 6.79096 60.6317 4.82744 63.139 6.24245C66.8124 8.31559 65.1989 17.2127 65.1989 17.2127Z"/><defs><linearGradient id="paint0_linear" x1="35.857" x2="35.857" y1="-4.345" y2="17.213" gradientUnits="userSpaceOnUse"><stop stop-color="#23B5AF"/><stop offset="1" stop-color="#fff" stop-opacity="0"/></linearGradient></defs></svg>