<svg width="125" height="32" viewBox="0 0 125 32" fill="none" xmlns="http://www.w3.org/2000/svg">
<path d="M1.06505 31.9338H98.9462H124.336C124.336 31.9338 124.336 27.7069 121.576 22.1936C119.998 19.0408 115.204 11.7691 112.285 9.78872C109.517 7.9108 102.283 5.30856 98.9462 5.56186C94.3817 5.90836 88.7352 9.78872 88.7352 9.78872C88.7352 9.78872 81.7007 16.6423 77.6042 15.3939C74.3348 14.3976 67.8095 9.81618 67.8095 9.81618C67.8095 9.81618 59.5546 0.880311 54.7482 0.266322C48.6643 -0.510849 44.3813 2.4611 44.3813 2.4611C44.3813 2.4611 41.7869 3.38208 35.656 8.86984C29.5251 14.3576 30.7813 13.481 27.0067 15.3939C19.7129 19.0903 10.8094 15.3283 6.2187 17.9358C-0.507156 21.7561 1.06505 31.9338 1.06505 31.9338Z" fill="url(#paint0_linear)"/>
<defs>
<linearGradient id="paint0_linear" x1="59.9419" y1="-13.4222" x2="59.9419" y2="31.9338" gradientUnits="userSpaceOnUse">
<stop stop-color="#23B5AF"/>
<stop offset="1" stop-color="white" stop-opacity="0"/>
</linearGradient>
</defs>
</svg>
