<svg xmlns="http://www.w3.org/2000/svg" width="201" height="53" fill="none" viewBox="0 0 201 53"><path fill="url(#paint0_linear)" d="M200.664 52.3257H41.6364H0.385742C0.385742 52.3257 0.385742 45.4583 4.8695 36.5008C7.43354 31.3785 15.2219 19.5642 19.9648 16.3466C24.4623 13.2956 36.2154 9.06772 41.6364 9.47924C49.0524 10.0422 58.2262 16.3466 58.2262 16.3466C58.2262 16.3466 69.6551 27.4816 76.3106 25.4534C81.6224 23.8346 92.2241 16.3912 92.2241 16.3912C92.2241 16.3912 105.636 1.87315 113.445 0.875605C123.329 -0.387063 130.288 4.44146 130.288 4.44146C130.288 4.44146 134.503 5.93777 144.464 14.8537C154.425 23.7697 152.384 22.3454 158.516 25.4534C170.367 31.4588 184.832 25.3467 192.291 29.5831C203.218 35.7899 200.664 52.3257 200.664 52.3257Z"/><defs><linearGradient id="paint0_linear" x1="105.007" x2="105.007" y1="-21.364" y2="52.326" gradientUnits="userSpaceOnUse"><stop stop-color="#23B5AF"/><stop offset="1" stop-color="#fff" stop-opacity="0"/></linearGradient></defs></svg>