<svg xmlns="http://www.w3.org/2000/svg" width="90" height="168" fill="none" viewBox="0 0 90 168"><path fill="#189D98" d="M25.6719 155.335L31.7546 147.611H38.7064L43.0512 155.335H25.6719Z"/><path fill="#189D98" d="M48.8438 155.335L54.2507 147.611H60.43L64.2921 155.335H48.8438Z"/><path fill="url(#paint0_linear)" d="M22.2316 113.932C-0.168445 120.883 -1.2627 152.874 0.990179 168.001L11.6113 165.104C11.6113 145.021 22.5538 136.782 28.0251 135.173L22.2316 113.932Z"/><path fill="url(#paint1_linear)" d="M67.7645 112.002C90.1645 118.954 91.2588 150.945 89.0059 166.071L78.3848 163.174C78.3848 143.092 67.4423 134.853 61.971 133.243L67.7645 112.002Z"/><path fill="#FF3400" d="M34.3628 166.922C30.5007 165.377 29.5352 158.554 29.5352 155.336H41.1214C40.4777 159.842 38.2248 168.467 34.3628 166.922Z"/><path fill="url(#paint2_linear)" d="M34.3628 166.922C30.5007 165.377 29.5352 158.554 29.5352 155.336H41.1214C40.4777 159.842 38.2248 168.467 34.3628 166.922Z"/><path fill="#FF3400" d="M55.602 166.922C51.7399 165.377 50.7744 158.554 50.7744 155.336H62.3606C61.717 159.842 59.4641 168.467 55.602 166.922Z"/><path fill="url(#paint3_linear)" d="M55.602 166.922C51.7399 165.377 50.7744 158.554 50.7744 155.336H62.3606C61.717 159.842 59.4641 168.467 55.602 166.922Z"/><path fill="#23B5AF" d="M43.0488 0.852981C10.6074 36.3841 18.589 113.497 26.635 147.612H64.2906C81.67 38.5088 48.8423 2.78402 46.9113 0.852981C45.3665 -0.69185 43.6926 0.209301 43.0488 0.852981Z"/><path fill="url(#paint4_linear)" d="M43.0488 0.852981C10.6074 36.3841 18.589 113.497 26.635 147.612H64.2906C81.67 38.5088 48.8423 2.78402 46.9113 0.852981C45.3665 -0.69185 43.6926 0.209301 43.0488 0.852981Z"/><circle cx="44.981" cy="51.061" r="11.586" fill="#A9DED9"/><circle cx="44.981" cy="51.061" r="11.586" fill="url(#paint5_linear)"/><defs><linearGradient id="paint0_linear" x1="14.102" x2="14.102" y1="74.389" y2="168.001" gradientUnits="userSpaceOnUse"><stop stop-color="#E0502C"/><stop offset="1" stop-color="#EC9D89"/></linearGradient><linearGradient id="paint1_linear" x1="75.894" x2="75.894" y1="72.46" y2="166.071" gradientUnits="userSpaceOnUse"><stop stop-color="#E0502C"/><stop offset="1" stop-color="#EC9D89"/></linearGradient><linearGradient id="paint2_linear" x1="43.052" x2="24.708" y1="182.37" y2="151.474" gradientUnits="userSpaceOnUse"><stop stop-color="#EC9D89"/><stop offset="1" stop-color="#fff" stop-opacity="0"/></linearGradient><linearGradient id="paint3_linear" x1="64.292" x2="45.947" y1="182.37" y2="151.474" gradientUnits="userSpaceOnUse"><stop stop-color="#EC9D89"/><stop offset="1" stop-color="#fff" stop-opacity="0"/></linearGradient><linearGradient id="paint4_linear" x1="95.187" x2="44.419" y1="140.853" y2="147.612" gradientUnits="userSpaceOnUse"><stop stop-color="#fff" stop-opacity=".62"/><stop offset="1" stop-color="#fff" stop-opacity="0"/></linearGradient><linearGradient id="paint5_linear" x1="63.326" x2="44.981" y1="39.475" y2="62.647" gradientUnits="userSpaceOnUse"><stop stop-color="#fff"/><stop offset="1" stop-color="#fff" stop-opacity="0"/></linearGradient></defs></svg>