<svg width="90" height="168" viewBox="0 0 90 168" fill="none" xmlns="http://www.w3.org/2000/svg">
<path d="M25.6719 155.335L31.7546 147.611H38.7064L43.0512 155.335H25.6719Z" fill="#189D98"/>
<path d="M48.8438 155.335L54.2507 147.611H60.43L64.2921 155.335H48.8438Z" fill="#189D98"/>
<path d="M22.2316 113.932C-0.168445 120.883 -1.2627 152.874 0.990179 168.001L11.6113 165.104C11.6113 145.021 22.5538 136.782 28.0251 135.173L22.2316 113.932Z" fill="url(#paint0_linear)"/>
<path d="M67.7645 112.002C90.1645 118.954 91.2588 150.945 89.0059 166.071L78.3848 163.174C78.3848 143.092 67.4423 134.853 61.971 133.243L67.7645 112.002Z" fill="url(#paint1_linear)"/>
<path d="M34.3628 166.922C30.5007 165.377 29.5352 158.554 29.5352 155.336H41.1214C40.4777 159.842 38.2248 168.467 34.3628 166.922Z" fill="#FF3400"/>
<path d="M34.3628 166.922C30.5007 165.377 29.5352 158.554 29.5352 155.336H41.1214C40.4777 159.842 38.2248 168.467 34.3628 166.922Z" fill="url(#paint2_linear)"/>
<path d="M55.602 166.922C51.7399 165.377 50.7744 158.554 50.7744 155.336H62.3606C61.717 159.842 59.4641 168.467 55.602 166.922Z" fill="#FF3400"/>
<path d="M55.602 166.922C51.7399 165.377 50.7744 158.554 50.7744 155.336H62.3606C61.717 159.842 59.4641 168.467 55.602 166.922Z" fill="url(#paint3_linear)"/>
<path d="M43.0488 0.852981C10.6074 36.3841 18.589 113.497 26.635 147.612H64.2906C81.67 38.5088 48.8423 2.78402 46.9113 0.852981C45.3665 -0.69185 43.6926 0.209301 43.0488 0.852981Z" fill="#23B5AF"/>
<path d="M43.0488 0.852981C10.6074 36.3841 18.589 113.497 26.635 147.612H64.2906C81.67 38.5088 48.8423 2.78402 46.9113 0.852981C45.3665 -0.69185 43.6926 0.209301 43.0488 0.852981Z" fill="url(#paint4_linear)"/>
<circle cx="44.9808" cy="51.0608" r="11.5862" fill="#A9DED9"/>
<circle cx="44.9808" cy="51.0608" r="11.5862" fill="url(#paint5_linear)"/>
<defs>
<linearGradient id="paint0_linear" x1="14.1024" y1="74.3893" x2="14.1024" y2="168.001" gradientUnits="userSpaceOnUse">
<stop stop-color="#E0502C"/>
<stop offset="1" stop-color="#EC9D89"/>
</linearGradient>
<linearGradient id="paint1_linear" x1="75.8937" y1="72.4596" x2="75.8937" y2="166.071" gradientUnits="userSpaceOnUse">
<stop stop-color="#E0502C"/>
<stop offset="1" stop-color="#EC9D89"/>
</linearGradient>
<linearGradient id="paint2_linear" x1="43.0524" y1="182.37" x2="24.7076" y2="151.474" gradientUnits="userSpaceOnUse">
<stop stop-color="#EC9D89"/>
<stop offset="1" stop-color="white" stop-opacity="0"/>
</linearGradient>
<linearGradient id="paint3_linear" x1="64.2917" y1="182.37" x2="45.9468" y2="151.474" gradientUnits="userSpaceOnUse">
<stop stop-color="#EC9D89"/>
<stop offset="1" stop-color="white" stop-opacity="0"/>
</linearGradient>
<linearGradient id="paint4_linear" x1="95.1873" y1="140.853" x2="44.4185" y2="147.612" gradientUnits="userSpaceOnUse">
<stop stop-color="white" stop-opacity="0.62"/>
<stop offset="1" stop-color="white" stop-opacity="0"/>
</linearGradient>
<linearGradient id="paint5_linear" x1="63.3256" y1="39.4746" x2="44.9808" y2="62.6471" gradientUnits="userSpaceOnUse">
<stop stop-color="white"/>
<stop offset="1" stop-color="white" stop-opacity="0"/>
</linearGradient>
</defs>
</svg>
