<svg width="1440" height="282" viewBox="0 0 1440 282" fill="none" xmlns="http://www.w3.org/2000/svg">
<g opacity="0.7">
<path d="M-5.16797 43.298C91.3755 68.1733 171.043 27.9357 399.601 32.4582C590.793 32.4582 686.497 61.7652 771.665 81.0352L897.786 97.5017C1052.24 97.9751 1391.47 -4.17731 1444.61 7.16083V235.698C1344.97 192.439 1022.24 125.8 528.369 205.325C414.117 226.494 147.458 238.46 -5.16797 116.964V43.298Z" fill="#A9DED9"/>
<path d="M399.601 32.4582C171.043 27.9357 91.3755 68.1733 -5.16797 43.298L-5.16797 116.964C147.458 238.46 414.117 226.494 528.369 205.325C1022.24 125.8 1344.97 192.439 1444.61 235.698V7.16083C1391.47 -4.17731 1052.24 97.9751 897.786 97.5017M399.601 32.4582C683.484 32.4582 756.85 97.0697 897.786 97.5017M399.601 32.4582L897.786 97.5017" stroke="#A9DED9"/>
</g>
<g opacity="0.5">
<path d="M-5.16406 27.6636C89.2375 27.6628 42.9735 6.83269 271.531 11.5747C462.988 11.5747 616.945 44.537 740.134 66.1397L897.79 84.4975C946.177 84.4978 1030.74 42.5209 1117.87 41.0444C1259.99 38.636 1411.67 77.1276 1444.61 84.4976V229.4C1344.98 184.042 1022.24 114.17 528.373 197.553C414.121 219.75 147.462 232.296 -5.16406 104.905V27.6636Z" fill="#A9DED9"/>
<path d="M271.531 11.5747C42.9735 6.83269 89.2375 27.6628 -5.16406 27.6636V104.905C147.462 232.296 414.121 219.75 528.373 197.553C1022.24 114.17 1344.98 184.042 1444.61 229.4V84.4976M271.531 11.5747C555.415 11.5747 756.853 84.0446 897.79 84.4975M271.531 11.5747L897.79 84.4975M1444.61 84.4976C1411.67 77.1276 1259.99 38.636 1117.87 41.0444M1444.61 84.4976L1117.87 41.0444M897.79 84.4975C946.177 84.4978 1030.74 42.5209 1117.87 41.0444" stroke="#A9DED9"/>
</g>
<path d="M570.16 81.0574C341.602 76.5348 91.3755 25.6538 -5.16797 0.778564V140.195C147.458 261.691 414.117 249.725 528.369 228.556C1022.24 149.031 1344.97 215.67 1444.61 258.929V55.6892C1342.98 34.0049 1165.15 81.0574 570.16 81.0574Z" fill="#A9DED9" stroke="#A9DED9"/>
<path d="M570.16 81.0574C341.602 76.5348 91.3755 25.6538 -5.16797 0.778564V140.195C147.458 261.691 414.117 249.725 528.369 228.556C1022.24 149.031 1344.97 215.67 1444.61 258.929V55.6892C1342.98 34.0049 1165.15 81.0574 570.16 81.0574Z" fill="#A9DED9" stroke="#A9DED9"/>
<path opacity="0.7" d="M570.16 102.907C341.602 98.384 91.3755 47.5029 -5.16797 22.6277V162.045C376.526 162.045 583.205 262.603 794.819 219.063C1214.76 132.66 1344.97 237.519 1444.61 280.778V77.5383C1342.98 55.854 1165.15 102.907 570.16 102.907Z" fill="#A9DED9" stroke="#A9DED9"/>
<path opacity="0.5" d="M570.16 102.907C341.602 98.384 91.3755 47.5029 -5.16797 22.6277V249.903C282.79 171.594 285.117 225.861 496.731 182.321C916.668 95.919 1344.97 237.519 1444.61 280.778V77.5383C1342.98 55.854 1165.15 102.907 570.16 102.907Z" fill="#A9DED9" stroke="#A9DED9"/>
<path opacity="0.5" d="M570.16 112.088C341.602 108.764 91.3755 71.366 -5.16797 53.0825V220.132C282.79 162.574 285.117 202.46 496.731 170.458C916.668 106.952 1344.97 211.029 1444.61 242.825V93.4422C1342.98 77.5041 1165.15 112.088 570.16 112.088Z" fill="#23B5AF" stroke="#A9DED9"/>
<path d="M1477.33 215.865H1344H1307.49C1307.49 215.865 1307.49 209.824 1311.46 201.944C1313.73 197.438 1319.18 188.518 1324.37 184.939C1330.5 180.713 1336.92 178.175 1344 178.175C1350.58 178.175 1358.26 184.509 1358.26 184.509C1358.26 184.509 1369.51 191.532 1374.27 192.52C1383.36 194.409 1387.92 184.216 1387.92 184.216C1387.92 184.216 1400.44 171.449 1406.57 170.952C1418.98 169.944 1420.99 173.841 1420.99 173.841C1420.99 173.841 1424.82 173.841 1435.01 182.902C1445.19 191.964 1451.01 188.418 1451.01 188.418C1451.01 188.418 1465.31 183.247 1471.91 186.973C1481.58 192.433 1477.33 215.865 1477.33 215.865Z" fill="url(#paint0_linear)"/>
<path d="M665.191 242.645L743.63 240.659L767.087 240.065C774.161 239.886 773.184 235.624 768.824 230.199C764.464 224.774 762.435 222.72 759.436 219.697C757.295 217.539 754.851 215.412 748.844 216.041C743.987 216.549 736.35 223.381 736.35 223.381C736.35 223.381 732.366 226.746 728.689 225.68C725.39 224.724 720.367 220.686 720.367 220.686C720.367 220.686 715.221 216.892 709.784 213.193C704.685 209.724 698.799 209.57 694.791 209.974C689.558 210.502 685.915 211.568 679.406 214.814C672.897 218.059 668.473 221.115 662.254 227.362C654.866 234.783 655.404 242.893 665.191 242.645Z" fill="url(#paint1_linear)"/>
<path d="M309.257 225.393H135.143H83.0738C67.3705 225.393 69.2989 216.204 78.6658 204.339C88.0327 192.474 93.4758 185.725 98.9017 181.319C106.388 175.238 115.6 172.402 122.194 172.906C136.557 174.004 145.889 183.524 145.889 183.524C145.889 183.524 160.181 194.703 167.445 192.474C174.709 190.245 185.626 181.319 185.626 181.319C185.626 181.319 200.827 167.421 211.261 162.848C224.674 156.968 235.452 156.509 241.76 156.968C257.23 158.094 258.271 161.723 272.891 168.326C287.512 174.93 295.984 180.053 311.736 192.474C328.542 207.98 330.981 225.393 309.257 225.393Z" fill="url(#paint2_linear)"/>
<path d="M70.9612 50.8994H1.47212H-17.5547C-17.5547 50.8994 -17.5547 47.8122 -15.4866 43.7853C-14.3039 41.4826 -10.7115 36.1714 -8.52386 34.7249C-6.44942 33.3533 -3.71627 31.2538 1.47212 31.6376C6.32336 31.9966 9.12417 34.7249 9.12417 34.7249C9.12417 34.7249 14.3008 39.3265 17.4656 38.8189C20.4331 38.3429 24.3593 34.7249 24.3593 34.7249C24.3593 34.7249 29.9301 28.2766 34.0795 27.9464C38.613 27.5856 41.5937 29.4229 41.5937 29.4229C41.5937 29.4229 44.3112 30.3281 48.9011 34.0538C53.4911 37.7794 57.2426 36.8725 57.2426 36.8725C57.2426 36.8725 64.6945 34.2298 68.1347 36.1343C73.175 38.9246 70.9612 50.8994 70.9612 50.8994Z" fill="url(#paint3_linear)"/>
<defs>
<linearGradient id="paint0_linear" x1="1400.09" y1="173.578" x2="1400.09" y2="215.865" gradientUnits="userSpaceOnUse">
<stop stop-color="white"/>
<stop offset="1" stop-color="white" stop-opacity="0"/>
</linearGradient>
<linearGradient id="paint1_linear" x1="712.657" y1="213.971" x2="713.352" y2="241.426" gradientUnits="userSpaceOnUse">
<stop stop-color="white"/>
<stop offset="1" stop-color="white" stop-opacity="0"/>
</linearGradient>
<linearGradient id="paint2_linear" x1="202.352" y1="166.505" x2="202.352" y2="225.393" gradientUnits="userSpaceOnUse">
<stop stop-color="white"/>
<stop offset="1" stop-color="white" stop-opacity="0"/>
</linearGradient>
<linearGradient id="paint3_linear" x1="30.7015" y1="29.2886" x2="30.7015" y2="50.8994" gradientUnits="userSpaceOnUse">
<stop stop-color="white"/>
<stop offset="1" stop-color="white" stop-opacity="0"/>
</linearGradient>
</defs>
</svg>
