<svg xmlns="http://www.w3.org/2000/svg" width="1440" height="162" fill="none" viewBox="0 0 1440 162"><g opacity=".7"><path fill="#A9DED9" d="M1444.61 25.2971C1348.07 39.5115 1268.4 16.5186 1039.84 19.1029C848.652 19.1029 752.948 35.8498 667.78 46.8612L541.659 56.2706C387.209 56.5411 47.9746 -1.83161 -5.16321 4.64732V135.24C94.4709 110.52 417.207 72.4413 911.077 117.884C1025.33 129.981 1291.99 136.818 1444.61 67.3922V25.2971Z"/><path stroke="#A9DED9" d="M1039.84 19.1029C1268.4 16.5186 1348.07 39.5115 1444.61 25.2971L1444.61 67.3922C1291.99 136.818 1025.33 129.981 911.077 117.884C417.207 72.4413 94.4709 110.52 -5.16321 135.24V4.64732C47.9746 -1.83161 387.209 56.5411 541.659 56.2706M1039.84 19.1029C755.962 19.1029 682.596 56.0237 541.659 56.2706M1039.84 19.1029L541.659 56.2706"/></g><g opacity=".5"><path fill="#A9DED9" d="M1444.61 16.3629C1350.21 16.3625 1396.47 4.45957 1167.91 7.16929C976.458 7.16929 822.5 26.0049 699.311 38.3493L541.655 48.8394C493.268 48.8396 408.701 24.8528 321.571 24.0091C179.451 22.6329 27.7749 44.628 -5.16699 48.8394V131.641C94.4672 105.722 417.203 65.7948 911.073 113.442C1025.32 126.126 1291.98 133.295 1444.61 60.5007V16.3629Z"/><path stroke="#A9DED9" d="M1167.91 7.16929C1396.47 4.45957 1350.21 16.3625 1444.61 16.3629V60.5007C1291.98 133.295 1025.32 126.126 911.073 113.442C417.203 65.7948 94.4671 105.722 -5.16699 131.641V48.8394M1167.91 7.16929C884.031 7.16929 682.592 48.5806 541.655 48.8394M1167.91 7.16929L541.655 48.8394M-5.16699 48.8394C27.7749 44.628 179.451 22.6329 321.571 24.0091M-5.16699 48.8394L321.571 24.0091M541.655 48.8394C493.268 48.8396 408.701 24.8528 321.571 24.0091"/></g><path fill="#A9DED9" stroke="#A9DED9" d="M869.285 46.8736C1097.84 44.2892 1348.07 15.2144 1444.61 1V80.6667C1291.99 150.092 1025.33 143.255 911.077 131.158C417.207 85.7158 94.4709 123.795 -5.16321 148.515V32.3775C96.4633 19.9865 274.3 46.8736 869.285 46.8736Z"/><path fill="#A9DED9" stroke="#A9DED9" d="M869.285 46.8736C1097.84 44.2892 1348.07 15.2144 1444.61 1V80.6667C1291.99 150.092 1025.33 143.255 911.077 131.158C417.207 85.7158 94.4709 123.795 -5.16321 148.515V32.3775C96.4633 19.9865 274.3 46.8736 869.285 46.8736Z"/><path fill="#A9DED9" stroke="#A9DED9" d="M869.285 59.3587C1097.84 56.7743 1348.07 27.6995 1444.61 13.4851V93.1518C1062.92 93.1518 856.24 150.613 644.626 125.734C224.689 76.3608 94.4709 136.28 -5.16321 161V44.8626C96.4633 32.4716 274.3 59.3587 869.285 59.3587Z" opacity=".7"/><path fill="#A9DED9" stroke="#A9DED9" d="M869.285 59.3587C1097.84 56.7743 1348.07 27.6995 1444.61 13.4851V143.357C1156.65 98.6087 1154.33 129.618 942.714 104.739C522.777 55.3658 94.4709 136.28 -5.16321 161V44.8626C96.4633 32.4716 274.3 59.3587 869.285 59.3587Z" opacity=".5"/><path fill="#23B5AF" stroke="#A9DED9" d="M869.285 64.6048C1097.84 62.7053 1348.07 41.3351 1444.61 30.8875V126.344C1156.65 93.4538 1154.33 116.246 942.714 97.9593C522.777 61.67 94.4709 121.142 -5.16321 139.312V53.9501C96.4633 44.8426 274.3 64.6048 869.285 64.6048Z" opacity=".5"/></svg>