<svg width="1440" height="282" viewBox="0 0 1440 282" fill="none" xmlns="http://www.w3.org/2000/svg">
<g opacity="0.7">
<path d="M-5.16797 43.4233C91.3755 68.2983 171.043 28.061 399.601 32.5835C590.793 32.5835 686.497 61.8903 771.665 81.1602L897.786 97.6266C1052.24 98.1 1391.47 -4.05175 1444.61 7.28632V235.822C1344.97 192.563 1022.24 125.925 528.369 205.449C414.117 226.618 147.458 238.584 -5.16797 117.089V43.4233Z" fill="#A9DED9"/>
<path d="M399.601 32.5835C171.043 28.061 91.3755 68.2983 -5.16797 43.4233L-5.16797 117.089C147.458 238.584 414.117 226.618 528.369 205.449C1022.24 125.925 1344.97 192.563 1444.61 235.822V7.28632C1391.47 -4.05175 1052.24 98.1 897.786 97.6266M399.601 32.5835C683.484 32.5835 756.85 97.1946 897.786 97.6266M399.601 32.5835L897.786 97.6266" stroke="#A9DED9"/>
</g>
<g opacity="0.5">
<path d="M-5.16406 27.7924C89.2375 27.7916 42.9735 6.96162 271.531 11.7036C462.988 11.7036 616.945 44.6657 740.134 66.2683L897.79 84.6259C946.177 84.6262 1030.74 42.6496 1117.87 41.1731C1259.99 38.7647 1411.67 77.256 1444.61 84.626V229.528C1344.98 184.169 1022.24 114.298 528.373 197.68C414.121 219.877 147.462 232.423 -5.16406 105.033V27.7924Z" fill="#A9DED9"/>
<path d="M271.531 11.7036C42.9735 6.96162 89.2375 27.7916 -5.16406 27.7924V105.033C147.462 232.423 414.121 219.877 528.373 197.68C1022.24 114.298 1344.98 184.169 1444.61 229.528V84.626M271.531 11.7036C555.415 11.7036 756.853 84.173 897.79 84.6259M271.531 11.7036L897.79 84.6259M1444.61 84.626C1411.67 77.256 1259.99 38.7647 1117.87 41.1731M1444.61 84.626L1117.87 41.1731M897.79 84.6259C946.177 84.6262 1030.74 42.6496 1117.87 41.1731" stroke="#A9DED9"/>
</g>
<path d="M570.16 81.187C341.602 76.6645 91.3755 25.7837 -5.16797 0.908691V140.325C147.458 261.819 414.117 249.854 528.369 228.684C1022.24 149.161 1344.97 215.798 1444.61 259.058V55.819C1342.98 34.1348 1165.15 81.187 570.16 81.187Z" fill="#A9DED9" stroke="#A9DED9"/>
<path d="M570.16 81.187C341.602 76.6645 91.3755 25.7837 -5.16797 0.908691V140.325C147.458 261.819 414.117 249.854 528.369 228.684C1022.24 149.161 1344.97 215.798 1444.61 259.058V55.819C1342.98 34.1348 1165.15 81.187 570.16 81.187Z" fill="#A9DED9" stroke="#A9DED9"/>
<path opacity="0.7" d="M570.16 103.038C341.602 98.5151 91.3755 47.6343 -5.16797 22.7593V162.175C376.526 162.175 583.205 262.733 794.819 219.193C1214.76 132.791 1344.97 237.649 1444.61 280.908V77.6695C1342.98 55.9854 1165.15 103.038 570.16 103.038Z" fill="#A9DED9" stroke="#A9DED9"/>
<path opacity="0.5" d="M570.16 103.038C341.602 98.5151 91.3755 47.6343 -5.16797 22.7593V250.033C282.79 171.725 285.117 225.991 496.731 182.452C916.668 96.0501 1344.97 237.649 1444.61 280.908V77.6695C1342.98 55.9854 1165.15 103.038 570.16 103.038Z" fill="#A9DED9" stroke="#A9DED9"/>
<path opacity="0.5" d="M570.16 112.22C341.602 108.896 91.3755 71.4982 -5.16797 53.2148V220.263C282.79 162.705 285.117 202.592 496.731 170.59C916.668 107.084 1344.97 211.16 1444.61 242.956V93.5742C1342.98 77.6363 1165.15 112.22 570.16 112.22Z" fill="#23B5AF" stroke="#A9DED9"/>
</svg>
