<svg width="584" height="608" viewBox="0 0 584 608" fill="none" xmlns="http://www.w3.org/2000/svg">
<g opacity="0.5">
<path d="M321.922 112.002C257.349 206.137 372.646 297.372 438.367 331.222C493.768 366.83 584.266 279.04 517.039 260.51C463.257 245.685 469.03 170.846 456.087 136.433C438.271 89.0664 386.496 17.8661 321.922 112.002Z" fill="#EDBA4B"/>
<path d="M321.922 112.002C257.349 206.137 372.646 297.372 438.367 331.222C493.768 366.83 584.266 279.04 517.039 260.51C463.257 245.685 469.03 170.846 456.087 136.433C438.271 89.0664 386.496 17.8661 321.922 112.002Z" fill="url(#paint0_linear)"/>
</g>
<path opacity="0.5" d="M379.337 274.947C362.145 306.789 404.159 321.505 412.301 361.744C421.652 397.926 393.568 407.694 408.221 433.947C436.992 485.495 354.864 433.947 352.358 482.429C349.852 530.911 326.269 542.446 308.011 544.169C262.293 548.482 240.138 533.635 235.121 489.393C231.107 454 210.328 455.736 184.613 461.308C158.041 467.96 104.023 472.543 100.529 437.665C97.0339 402.786 108.49 385.832 121.192 384.5C133.758 380.404 149.849 364.701 142.21 351.505C134.57 338.309 85.7151 366.317 92.517 287.472C99.319 208.626 151.984 210.723 208.641 242.528C265.298 274.333 269.935 220.37 314.42 195.679C358.906 170.989 400.827 235.145 379.337 274.947Z" fill="url(#paint1_linear)"/>
<path d="M461.234 314.27L463.353 294.978L488.492 291.266C487.757 302.19 490.536 303.879 493.048 307.122C482.658 319.926 470.221 319.391 461.234 314.27Z" fill="#88D2EE" stroke="#88D2EE" stroke-width="2" stroke-linecap="round" stroke-linejoin="round"/>
<path d="M403.743 238.844C403.743 278.618 426.092 301.538 465.402 301.538C504.711 301.538 528.25 278.618 528.25 238.844C528.25 199.069 504.711 166.826 465.402 166.826C426.092 166.826 403.743 199.069 403.743 238.844Z" fill="url(#paint2_linear)"/>
<path d="M475.185 228.916C475.185 231.824 476.854 234.182 478.914 234.182C480.973 234.182 483.051 233.682 483.051 229.898C483.051 226.989 480.973 223.649 478.914 223.649C476.854 223.649 475.185 226.007 475.185 228.916Z" fill="#176965"/>
<path d="M424.159 228.917C424.159 231.827 425.986 234.186 428.241 234.186C430.495 234.186 432.383 233.562 432.383 229.547C432.383 226.637 430.495 223.648 428.241 223.648C425.986 223.648 424.159 226.007 424.159 228.917Z" fill="#176965"/>
<path d="M449.176 256.638C445.851 255.918 442.308 256.53 438.965 255.726C437.41 255.352 439.787 253.553 440.175 252.944C445.623 244.403 450.344 235.476 452.73 226.021" stroke="#176965" stroke-width="4" stroke-linecap="round" stroke-linejoin="round"/>
<path d="M475.184 268.875C472.287 272.237 469.391 274.756 464.601 274.935C460.786 275.077 457.951 275.168 454.773 273.055" stroke="#176965" stroke-width="4" stroke-linecap="round" stroke-linejoin="round"/>
<path d="M272.487 471.291C275.766 452.747 269.807 425.869 266.418 414.748L300.687 411.07C299.807 451.958 304.175 459.794 308.079 467.526C292.964 475.148 286.742 476.059 272.487 471.291Z" fill="#FAE0A1" stroke="#FAE0A1" stroke-width="3" stroke-linecap="round" stroke-linejoin="round"/>
<path d="M345.298 344.739C347.233 391.849 335.258 429.501 294.165 440.183C253.073 450.865 226.047 438.129 199.757 382.572C188.71 340.072 213.066 296.96 254.158 286.278C282.385 278.941 310.06 282.15 327.931 303.077C336.076 312.615 341.839 331.433 345.298 344.739Z" fill="#FAE0A1"/>
<path d="M345.298 344.739C347.233 391.849 335.258 429.501 294.165 440.183C253.073 450.865 226.047 438.129 199.757 382.572C188.71 340.072 213.066 296.96 254.158 286.278C282.385 278.941 310.06 282.15 327.931 303.077C336.076 312.615 341.839 331.433 345.298 344.739Z" fill="url(#paint3_linear)"/>
<ellipse cx="257.722" cy="373.216" rx="5.79212" ry="4.93639" transform="rotate(-8.42456 257.722 373.216)" fill="#176965"/>
<path d="M313.987 356.654C314.414 359.531 312.003 363.484 309.127 363.91C306.25 364.336 303.572 362.349 303.146 359.472C302.72 356.596 304.707 353.918 307.584 353.492C310.46 353.066 313.561 353.778 313.987 356.654Z" fill="#176965"/>
<path d="M331.443 311.507C309.916 325.808 245.84 335.21 216.493 338.123L220.997 355.45C225.342 372.165 207.994 380.774 198.777 382.988L183.277 323.363C185.334 281.044 254.878 268.118 289.392 266.944C326.543 218.986 343.821 223.78 347.816 232.171C338.591 242.73 337.256 250.15 348.161 269.078C356.884 284.22 345.217 300.31 338.292 306.462L345.314 333.472C347.164 345.613 343.549 349.708 341.511 350.238L331.443 311.507Z" fill="#EC9D89"/>
<path d="M331.443 311.507C309.916 325.808 245.84 335.21 216.493 338.123L220.997 355.45C225.342 372.165 207.994 380.774 198.777 382.988L183.277 323.363C185.334 281.044 254.878 268.118 289.392 266.944C326.543 218.986 343.821 223.78 347.816 232.171C338.591 242.73 337.256 250.15 348.161 269.078C356.884 284.22 345.217 300.31 338.292 306.462L345.314 333.472C347.164 345.613 343.549 349.708 341.511 350.238L331.443 311.507Z" fill="url(#paint4_linear)"/>
<path d="M285.066 368.931C286.358 372.673 288.201 375.579 291.478 377.985C294.804 380.427 298.62 382.037 302.696 382.569C305.112 382.884 307.473 382.682 309.888 382.784C310.72 382.819 311.437 382.909 311.662 383.775C312.491 386.965 308.674 388.925 306.221 390.116C302.016 392.156 297.275 393.041 292.775 394.211" stroke="#176965" stroke-width="4" stroke-linecap="round" stroke-linejoin="round"/>
<path d="M292.343 420.15C287.748 422.958 281.205 422.175 279.973 419.369C277.434 412.032 289.912 411.989 292.559 413.507C295.134 414.985 294.605 418.768 292.343 420.15Z" fill="#176965" stroke="#176965" stroke-width="4" stroke-linecap="round" stroke-linejoin="round"/>
<circle cx="163.437" cy="94.6055" r="93.9297" fill="#FAE0A1"/>
<path d="M150.42 115.42C149.92 112.22 150.02 109.27 150.72 106.57C151.42 103.87 152.42 101.42 153.72 99.2195C155.12 96.9195 156.67 94.8195 158.37 92.9195C160.17 91.0195 161.82 89.2195 163.32 87.5195C164.82 85.8195 166.07 84.2195 167.07 82.7195C168.17 81.1195 168.72 79.5195 168.72 77.9195C168.72 75.2195 167.87 73.3195 166.17 72.2195C164.57 71.0195 162.62 70.4195 160.32 70.4195C157.72 70.4195 155.52 71.0195 153.72 72.2195C151.92 73.4195 150.02 74.9195 148.02 76.7195L133.92 63.8195C137.62 59.6195 141.97 56.2195 146.97 53.6195C152.07 51.0195 157.62 49.7195 163.62 49.7195C167.72 49.7195 171.57 50.2195 175.17 51.2195C178.77 52.2195 181.92 53.7695 184.62 55.8695C187.32 57.9695 189.42 60.7195 190.92 64.1195C192.52 67.4195 193.32 71.4195 193.32 76.1195C193.32 79.1195 192.77 81.8195 191.67 84.2195C190.57 86.5195 189.22 88.6695 187.62 90.6695C186.12 92.6695 184.42 94.5695 182.52 96.3695C180.72 98.1695 179.07 100.02 177.57 101.92C176.07 103.82 174.82 105.87 173.82 108.07C172.92 110.27 172.62 112.72 172.92 115.42H150.42ZM161.52 153.82C157.12 153.82 153.52 152.32 150.72 149.32C147.92 146.32 146.52 142.62 146.52 138.22C146.52 133.82 147.92 130.12 150.72 127.12C153.52 124.12 157.12 122.62 161.52 122.62C165.92 122.62 169.52 124.12 172.32 127.12C175.12 130.12 176.52 133.82 176.52 138.22C176.52 142.62 175.12 146.32 172.32 149.32C169.52 152.32 165.92 153.82 161.52 153.82Z" fill="#EC9D89"/>
<circle cx="433.73" cy="171.156" r="18.9994" fill="url(#paint5_linear)"/>
<circle cx="422.362" cy="152.157" r="13.6316" fill="url(#paint6_linear)"/>
<circle cx="494.718" cy="176.025" r="18.9994" fill="url(#paint7_linear)"/>
<circle cx="506.542" cy="159.372" r="13.6316" fill="url(#paint8_linear)"/>
<defs>
<linearGradient id="paint0_linear" x1="381.768" y1="357.924" x2="489.081" y2="154.863" gradientUnits="userSpaceOnUse">
<stop stop-color="white"/>
<stop offset="1" stop-color="white" stop-opacity="0"/>
</linearGradient>
<linearGradient id="paint1_linear" x1="275.774" y1="158.736" x2="174.86" y2="498.818" gradientUnits="userSpaceOnUse">
<stop stop-color="#88D2EE"/>
<stop offset="0.223958" stop-color="#8CD3EE"/>
<stop offset="1" stop-color="#CAE8F4"/>
</linearGradient>
<linearGradient id="paint2_linear" x1="507.113" y1="178.486" x2="440.482" y2="289.809" gradientUnits="userSpaceOnUse">
<stop stop-color="#88D2EE"/>
<stop offset="0.223958" stop-color="#8CD3EE"/>
<stop offset="1" stop-color="#CAE8F4"/>
</linearGradient>
<linearGradient id="paint3_linear" x1="200.674" y1="316.97" x2="347.453" y2="392.183" gradientUnits="userSpaceOnUse">
<stop stop-color="#FFC23D"/>
<stop offset="1" stop-color="white" stop-opacity="0"/>
</linearGradient>
<linearGradient id="paint4_linear" x1="330.252" y1="106.002" x2="388.411" y2="275.318" gradientUnits="userSpaceOnUse">
<stop stop-color="#F3BDAF"/>
<stop offset="1" stop-color="white" stop-opacity="0"/>
</linearGradient>
<linearGradient id="paint5_linear" x1="433.73" y1="152.156" x2="433.73" y2="190.155" gradientUnits="userSpaceOnUse">
<stop stop-color="#E88971"/>
<stop offset="0.7519" stop-color="#EC9782"/>
<stop offset="1" stop-color="#F6BAAA"/>
</linearGradient>
<linearGradient id="paint6_linear" x1="422.362" y1="138.525" x2="422.362" y2="165.789" gradientUnits="userSpaceOnUse">
<stop stop-color="#E88971"/>
<stop offset="0.7519" stop-color="#EC9782"/>
<stop offset="1" stop-color="#F6BAAA"/>
</linearGradient>
<linearGradient id="paint7_linear" x1="494.718" y1="157.025" x2="494.718" y2="195.024" gradientUnits="userSpaceOnUse">
<stop stop-color="#E88971"/>
<stop offset="0.7519" stop-color="#EC9782"/>
<stop offset="1" stop-color="#F6BAAA"/>
</linearGradient>
<linearGradient id="paint8_linear" x1="506.542" y1="145.74" x2="506.542" y2="173.003" gradientUnits="userSpaceOnUse">
<stop stop-color="#E88971"/>
<stop offset="0.7519" stop-color="#EC9782"/>
<stop offset="1" stop-color="#F6BAAA"/>
</linearGradient>
</defs>
</svg>
