<svg xmlns="http://www.w3.org/2000/svg" width="1440" height="444" fill="none" viewBox="0 0 1440 444"><path fill="url(#paint0_linear)" d="M83.2957 129.322C83.2957 78.8681 36.6813 28.7804 13.3741 10.0433C-6.3808 -1.36775 -42.9057 -11.979 -30.9663 36.864C-23.5928 37.0117 -10.228 41.3552 -15.7569 57.5469C-16.4974 58.6165 -18.8175 60.9531 -22.1743 61.7429C-20.9943 85.3365 -13.9246 134.022 4.91431 140.016C8.00654 141.444 12.3357 145.797 4.91431 151.791C4.31964 175.458 10.5517 223.15 40.2372 224.577C58.6848 225.923 96.8249 225.072 101.804 210.897C110.579 192.8 98.1483 165.425 90.8362 154C69.4484 152.355 76.8976 136.862 83.2957 129.322Z" opacity=".8"/><path stroke="url(#paint1_linear)" stroke-linecap="round" stroke-width="3" d="M-5.23047 51.2012C11.9988 58.6138 60.8812 146.162 60.8812 203.86" opacity=".8"/><path fill="url(#paint2_linear)" d="M188.126 82.9522C142.609 106.29 145.886 135.728 160.368 160.689C166.539 168.33 164.967 169.064 163.409 168.476C151.659 162.428 142.131 134.377 138.836 121.107C129.922 123.83 122.061 133.91 119.245 138.61C123.95 153.498 144.998 175.55 156.12 185.189C156.541 185.553 156.121 187.712 154.872 186.631C138.809 179.598 121.502 157.06 114.32 144.3C103.518 151.728 103.806 163.344 105.3 168.224C132.262 194.062 142.93 199.156 147.24 199.137C148.513 200.672 149.18 200.554 148.265 202.291C138.352 208.804 112.935 187.983 100.208 174.107C90.3999 183.456 88.4751 193.11 88.7386 196.768C94.5285 220.991 132.532 230.389 150.81 232.061C166.388 256.865 190.24 261.476 200.22 260.68C213.463 250.532 216.394 237.661 216.204 232.494C209.432 233.332 193.577 228.849 186.496 226.502C167.01 216.316 170.016 216.117 171.186 214.765C196.357 228.221 216.771 223.312 225.018 222.311C239.856 197.298 236.684 180.475 233.244 175.19C217.239 189.167 194.583 189.827 183.427 190.885C179.979 189.04 182.598 188.765 183.718 188.176C213.571 181.14 226.532 169.18 231.728 162.288C232.981 161.063 232.071 158.095 231.46 156.764C233.908 146.378 227.043 136.849 223.304 133.382C219.057 147.848 196.637 163.987 186.463 171.757C184.591 172.243 182.826 171.312 183.798 169.45C239.268 118.672 205.643 98.2476 188.126 82.9522Z"/><path stroke="url(#paint3_linear)" stroke-linecap="round" stroke-width="2" d="M187.684 94.498C190.188 106.597 181.766 175.105 154.791 221.508"/><path stroke="url(#paint4_linear)" stroke-linecap="round" stroke-width="2" d="M167.307 121.225C170.948 125.986 178.709 138.843 180.625 152.18C181.983 149.071 187.82 139.747 200.3 127.318"/><path stroke="url(#paint5_linear)" stroke-linecap="round" stroke-width="2" d="M131.011 136.874C134.652 141.635 143.958 166.64 171.203 184.568C174.255 182.962 199.128 177.985 223.207 154.432"/><path stroke="url(#paint6_linear)" stroke-linecap="round" stroke-width="2" d="M125.622 173.706C128.551 177.453 141.097 188.872 165.556 200.909C167.89 199.738 182.455 209.153 208.732 201.444"/><path stroke="url(#paint7_linear)" stroke-linecap="round" stroke-width="2" d="M97.8792 193.981C100.808 197.728 116.463 214.051 154.341 221.278C156.675 220.107 173.036 241.94 203.36 243.579"/><g opacity=".5"><path fill="url(#paint8_linear)" d="M1346.33 100.236C1338.45 126.717 1351.17 136.424 1366.32 140.085C1371.6 140.527 1371.3 141.415 1370.49 141.803C1363.75 144.134 1349.24 137.386 1342.83 133.72C1340.56 138.217 1341.57 145.048 1342.35 147.901C1349.92 151.62 1366.38 151.632 1374.3 150.887C1374.6 150.858 1375.28 151.828 1374.39 151.912C1365.65 155.559 1350.4 153.905 1342.73 151.948C1341.6 158.937 1346.24 163.16 1348.71 164.398C1368.86 163.513 1374.83 161.249 1376.43 159.559C1377.5 159.635 1377.71 159.331 1378.04 160.336C1376.89 166.637 1359.27 168.791 1349.1 168.581C1349.09 175.899 1352.15 180.254 1353.67 181.516C1365.29 188.295 1383.14 176.965 1390.62 170.452C1406.11 173.627 1416.82 166.035 1420.23 161.842C1421.21 152.884 1417.28 146.936 1415.19 145.082C1412.99 148.039 1405.32 152.556 1401.76 154.445C1390.51 158.252 1391.56 157.004 1391.47 156.042C1406.11 151.236 1411.82 141.434 1414.5 137.84C1410.28 122.712 1402.52 117.673 1399.18 117.044C1398.66 128.509 1390.46 137.601 1386.71 142.351C1384.7 143.008 1385.58 141.884 1385.76 141.226C1394.16 126.945 1394.32 117.421 1393.57 112.82C1393.56 111.874 1392.06 111.122 1391.32 110.864C1388.17 106.031 1381.89 105.156 1379.14 105.322C1383.21 112.379 1381.14 127.155 1380.38 134.027C1379.87 134.94 1378.85 135.281 1378.48 134.207C1379.36 93.5993 1358.83 99.1053 1346.33 100.236Z"/><path stroke="url(#paint9_linear)" stroke-linecap="round" stroke-width="2" d="M1350.67 104.719C1356.33 108.256 1379.93 137.111 1387.98 164.961"/><path stroke="url(#paint10_linear)" stroke-linecap="round" stroke-width="2" d="M1353.5 122.648C1356.72 123.003 1364.63 124.771 1370.56 129.001C1369.85 127.31 1368.39 121.551 1368.19 112.04"/><path stroke="url(#paint11_linear)" stroke-linecap="round" stroke-width="2" d="M1346.06 142.66C1349.28 143.016 1362.52 148.714 1379.68 144.767C1380.2 142.976 1387.53 131.407 1387.32 113.216"/><path stroke="url(#paint12_linear)" stroke-linecap="round" stroke-width="2" d="M1358.43 158.508C1360.99 158.763 1370.13 158.127 1383.96 153.069C1384.37 151.72 1393.48 149.547 1400.28 136.411"/><path stroke="url(#paint13_linear)" stroke-linecap="round" stroke-width="2" d="M1355.99 176.908C1358.55 177.163 1370.77 177.142 1387.72 165.051C1388.14 163.703 1402.77 165.463 1414.72 154.234"/></g><path fill="url(#paint14_linear)" d="M1460.12 144.997C1482.46 112.351 1474.47 59.3034 1467.69 36.8606C1459.96 20.731 1441.02 -2.30567 1427.12 34.5847C1431.83 37.9448 1438.55 46.6722 1427.81 54.7015C1426.85 55.0658 1424.32 55.5505 1421.8 54.5754C1412.11 70.3644 1395.13 104.997 1404.67 117.216C1406.04 119.509 1406.91 124.242 1399.46 124.835C1388.59 139.886 1371.51 173.505 1390.09 187.571C1401.43 196.609 1426.49 212.944 1435.98 205.976C1449.67 198.151 1453.75 174.934 1454.08 164.304C1440.97 153.771 1452.64 147.044 1460.12 144.997Z"/><path stroke="url(#paint15_linear)" stroke-linecap="round" stroke-width="3" d="M1445.84 53.0039C1453.71 65.4282 1438.16 145.971 1412.62 183.305" opacity=".5"/><g opacity=".7"><path fill="#A9DED9" d="M-5.92581 202.487C90.6177 246.56 170.285 175.269 398.843 183.282C590.035 183.282 685.739 235.206 770.907 269.348L897.028 298.522C1051.48 299.361 1390.71 118.373 1443.85 138.461V543.372C1344.22 466.727 1021.48 348.66 527.611 489.557C413.359 527.064 146.7 548.264 -5.92581 333.005V202.487Z"/><path stroke="#A9DED9" d="M398.843 183.282C170.285 175.269 90.6177 246.56 -5.92581 202.487L-5.92581 333.005C146.7 548.264 413.359 527.064 527.611 489.557C1021.48 348.66 1344.22 466.727 1443.85 543.372V138.461C1390.71 118.373 1051.48 299.361 897.028 298.522M398.843 183.282C682.726 183.282 756.092 297.757 897.028 298.522M398.843 183.282L897.028 298.522"/></g><g opacity=".5"><path fill="#A9DED9" d="M-5.92191 174.786C88.4796 174.784 42.2157 137.879 270.774 146.28C462.23 146.28 616.187 204.681 739.376 242.956L897.032 275.481C945.419 275.481 1029.99 201.109 1117.12 198.493C1259.24 194.226 1410.91 262.423 1443.85 275.481V532.212C1344.22 451.848 1021.48 328.052 527.615 475.786C413.363 515.114 146.704 537.342 -5.92191 311.637V174.786Z"/><path stroke="#A9DED9" d="M270.774 146.28C42.2157 137.879 88.4796 174.784 -5.92191 174.786V311.637C146.704 537.342 413.363 515.114 527.615 475.786C1021.48 328.052 1344.22 451.848 1443.85 532.212V275.481M270.774 146.28C554.657 146.28 756.096 274.678 897.032 275.481M270.774 146.28L897.032 275.481M1443.85 275.481C1410.91 262.423 1259.24 194.226 1117.12 198.493M1443.85 275.481L1117.12 198.493M897.032 275.481C945.419 275.481 1029.99 201.109 1117.12 198.493"/></g><path fill="#A9DED9" stroke="#A9DED9" d="M569.402 269.386C340.844 261.373 90.6177 171.225 -5.92581 127.152V374.164C146.7 589.423 413.359 568.223 527.611 530.716C1021.48 389.819 1344.22 507.885 1443.85 584.53V224.44C1342.22 186.021 1164.39 269.386 569.402 269.386Z"/><path fill="#A9DED9" stroke="#A9DED9" d="M569.402 269.386C340.844 261.373 90.6177 171.225 -5.92581 127.152V436.12C146.7 651.379 413.359 568.223 527.611 530.716C1021.48 389.819 1344.22 507.885 1443.85 584.53V224.44C1342.22 186.021 1164.39 269.386 569.402 269.386Z"/><path fill="#A9DED9" stroke="#A9DED9" d="M569.402 308.096C340.844 300.083 90.6177 209.935 -5.92581 165.862V412.874C375.768 412.874 582.448 591.037 794.062 513.896C1214 360.812 1344.22 546.595 1443.85 623.24V263.15C1342.22 224.731 1164.39 308.096 569.402 308.096Z" opacity=".7"/><path fill="#23B5AF" stroke="#A9DED9" d="M646.436 285.706C349.135 183.098 90.6177 209.935 -5.92581 165.862V490.923H646.436H1443.85V263.15C1342.22 224.731 943.736 388.314 646.436 285.706Z" opacity=".5"/><path fill="url(#paint16_linear)" d="M77.2971 234.9H7.80805H-11.2188C-11.2188 234.9 -11.2188 231.813 -9.15062 227.786C-7.96796 225.484 -4.37559 220.172 -2.18792 218.726C-0.113482 217.354 2.61967 215.255 7.80805 215.639C12.6593 215.998 15.4601 218.726 15.4601 218.726C15.4601 218.726 20.6367 223.327 23.8015 222.82C26.7691 222.344 30.6953 218.726 30.6953 218.726C30.6953 218.726 36.266 212.278 40.4155 211.947C44.9489 211.587 47.9297 213.424 47.9297 213.424C47.9297 213.424 50.6471 214.329 55.2371 218.055C59.827 221.78 63.5785 220.874 63.5785 220.874C63.5785 220.874 71.0304 218.231 74.4706 220.135C79.5109 222.926 77.2971 234.9 77.2971 234.9Z"/><path fill="url(#paint17_linear)" d="M1070.86 289.482H1171.12H1197.13C1197.13 289.482 1197.13 285.152 1194.31 279.504C1192.69 276.275 1187.78 268.826 1184.79 266.797C1181.95 264.874 1174.54 262.208 1171.12 262.467C1166.45 262.822 1160.66 266.797 1160.66 266.797C1160.66 266.797 1153.46 273.818 1149.26 272.539C1145.91 271.518 1139.23 266.825 1139.23 266.825C1139.23 266.825 1130.77 257.672 1125.85 257.043C1119.62 256.247 1115.23 259.291 1115.23 259.291C1115.23 259.291 1112.57 260.235 1106.29 265.856C1100.01 271.477 1101.3 270.58 1097.43 272.539C1089.96 276.325 1080.84 272.472 1076.14 275.143C1069.25 279.056 1070.86 289.482 1070.86 289.482Z"/><defs><linearGradient id="paint0_linear" x1="7.712" x2="82.665" y1="13.521" y2="225.032" gradientUnits="userSpaceOnUse"><stop stop-color="#A9DED9"/><stop offset="1" stop-color="#A9DED9" stop-opacity="0"/></linearGradient><linearGradient id="paint1_linear" x1="27.825" x2="27.825" y1="51.201" y2="203.86" gradientUnits="userSpaceOnUse"><stop stop-color="#7AC0BA"/><stop offset="1" stop-color="#7AC0BA" stop-opacity="0"/></linearGradient><linearGradient id="paint2_linear" x1="201.591" x2="154.551" y1="99.111" y2="299.593" gradientUnits="userSpaceOnUse"><stop stop-color="#8FC8C2"/><stop offset="1" stop-color="#8FC8C2" stop-opacity="0"/></linearGradient><linearGradient id="paint3_linear" x1="209.815" x2="132.659" y1="113.824" y2="202.181" gradientUnits="userSpaceOnUse"><stop stop-color="#B4E9E4"/><stop offset="1" stop-color="#B4E9E4" stop-opacity="0"/></linearGradient><linearGradient id="paint4_linear" x1="190.009" x2="169.179" y1="118.331" y2="142.185" gradientUnits="userSpaceOnUse"><stop stop-color="#B4E9E4"/><stop offset="1" stop-color="#B4E9E4" stop-opacity="0"/></linearGradient><linearGradient id="paint5_linear" x1="192.703" x2="154.663" y1="127.795" y2="171.357" gradientUnits="userSpaceOnUse"><stop stop-color="#B4E9E4"/><stop offset="1" stop-color="#B4E9E4" stop-opacity="0"/></linearGradient><linearGradient id="paint6_linear" x1="178.284" x2="155.758" y1="174.856" y2="200.652" gradientUnits="userSpaceOnUse"><stop stop-color="#B4E9E4"/><stop offset="1" stop-color="#B4E9E4" stop-opacity="0"/></linearGradient><linearGradient id="paint7_linear" x1="161.151" x2="139.743" y1="206.72" y2="231.236" gradientUnits="userSpaceOnUse"><stop stop-color="#B4E9E4"/><stop offset="1" stop-color="#B4E9E4" stop-opacity="0"/></linearGradient><linearGradient id="paint8_linear" x1="1379.88" x2="1412.92" y1="125.372" y2="185.266" gradientUnits="userSpaceOnUse"><stop stop-color="#8FC8C2"/><stop offset=".898" stop-color="#8FC8C2" stop-opacity="0"/></linearGradient><linearGradient id="paint9_linear" x1="1366.47" x2="1372.18" y1="103.29" y2="166.389" gradientUnits="userSpaceOnUse"><stop stop-color="#B4E9E4"/><stop offset="1" stop-color="#B4E9E4" stop-opacity="0"/></linearGradient><linearGradient id="paint10_linear" x1="1360.84" x2="1362.38" y1="112.705" y2="129.739" gradientUnits="userSpaceOnUse"><stop stop-color="#B4E9E4"/><stop offset="1" stop-color="#B4E9E4" stop-opacity="0"/></linearGradient><linearGradient id="paint11_linear" x1="1365.54" x2="1368.35" y1="115.185" y2="146.294" gradientUnits="userSpaceOnUse"><stop stop-color="#B4E9E4"/><stop offset="1" stop-color="#B4E9E4" stop-opacity="0"/></linearGradient><linearGradient id="paint12_linear" x1="1378.53" x2="1380.2" y1="138.376" y2="156.799" gradientUnits="userSpaceOnUse"><stop stop-color="#B4E9E4"/><stop offset="1" stop-color="#B4E9E4" stop-opacity="0"/></linearGradient><linearGradient id="paint13_linear" x1="1384.58" x2="1386.16" y1="156.959" y2="174.467" gradientUnits="userSpaceOnUse"><stop stop-color="#B4E9E4"/><stop offset="1" stop-color="#B4E9E4" stop-opacity="0"/></linearGradient><linearGradient id="paint14_linear" x1="1486.43" x2="1386.99" y1="40.549" y2="185.881" gradientUnits="userSpaceOnUse"><stop stop-color="#A9DED9"/><stop offset="1" stop-color="#A9DED9" stop-opacity="0"/></linearGradient><linearGradient id="paint15_linear" x1="1458.82" x2="1391.23" y1="69.891" y2="168.67" gradientUnits="userSpaceOnUse"><stop stop-color="#7AC0BA"/><stop offset="1" stop-color="#7AC0BA" stop-opacity="0"/></linearGradient><linearGradient id="paint16_linear" x1="37.038" x2="37.038" y1="213.29" y2="234.9" gradientUnits="userSpaceOnUse"><stop stop-color="#fff"/><stop offset="1" stop-color="#fff" stop-opacity="0"/></linearGradient><linearGradient id="paint17_linear" x1="1131.17" x2="1131.17" y1="259.173" y2="289.482" gradientUnits="userSpaceOnUse"><stop stop-color="#fff"/><stop offset="1" stop-color="#fff" stop-opacity="0"/></linearGradient></defs></svg>