<svg width="423" height="401" viewBox="0 0 423 401" fill="none" xmlns="http://www.w3.org/2000/svg">
<rect x="4.75" y="4.32861" width="392" height="392" rx="20" fill="#FCFFFF" stroke="#A9DED9" stroke-width="8"/>
<path d="M50.5528 285.329L47.4068 268.377H51.3328L52.5028 276.307C52.6068 277.191 52.7194 278.083 52.8408 278.985C52.9621 279.869 53.0748 280.761 53.1788 281.663H53.2828C53.4561 280.761 53.6208 279.869 53.7768 278.985C53.9501 278.083 54.1234 277.191 54.2968 276.307L56.1168 268.377H59.3668L61.1868 276.307C61.3601 277.173 61.5248 278.057 61.6808 278.959C61.8541 279.843 62.0274 280.744 62.2008 281.663H62.3048C62.4261 280.744 62.5388 279.843 62.6428 278.959C62.7641 278.075 62.8854 277.191 63.0068 276.307L64.1768 268.377H67.8428L64.8268 285.329H60.0168L58.3528 277.633C58.2141 276.974 58.0841 276.315 57.9628 275.657C57.8588 274.981 57.7634 274.331 57.6768 273.707H57.5728C57.4688 274.331 57.3561 274.981 57.2348 275.657C57.1308 276.315 57.0094 276.974 56.8708 277.633L55.2848 285.329H50.5528ZM76.7212 285.641C75.9065 285.641 75.1178 285.493 74.3552 285.199C73.5925 284.887 72.9165 284.445 72.3272 283.873C71.7552 283.301 71.2958 282.599 70.9492 281.767C70.6025 280.917 70.4292 279.955 70.4292 278.881C70.4292 277.806 70.6025 276.853 70.9492 276.021C71.2958 275.171 71.7552 274.461 72.3272 273.889C72.9165 273.317 73.5925 272.883 74.3552 272.589C75.1178 272.277 75.9065 272.121 76.7212 272.121C77.5358 272.121 78.3158 272.277 79.0612 272.589C79.8238 272.883 80.4912 273.317 81.0632 273.889C81.6525 274.461 82.1205 275.171 82.4672 276.021C82.8138 276.853 82.9872 277.806 82.9872 278.881C82.9872 279.955 82.8138 280.917 82.4672 281.767C82.1205 282.599 81.6525 283.301 81.0632 283.873C80.4912 284.445 79.8238 284.887 79.0612 285.199C78.3158 285.493 77.5358 285.641 76.7212 285.641ZM76.7212 282.547C77.5012 282.547 78.0905 282.217 78.4892 281.559C78.8878 280.9 79.0872 280.007 79.0872 278.881C79.0872 277.754 78.8878 276.861 78.4892 276.203C78.0905 275.544 77.5012 275.215 76.7212 275.215C75.9238 275.215 75.3258 275.544 74.9272 276.203C74.5458 276.861 74.3552 277.754 74.3552 278.881C74.3552 280.007 74.5458 280.9 74.9272 281.559C75.3258 282.217 75.9238 282.547 76.7212 282.547ZM86.905 285.329V272.433H90.025L90.285 274.695H90.389C90.857 273.811 91.4204 273.161 92.079 272.745C92.7377 272.329 93.3964 272.121 94.055 272.121C94.419 272.121 94.7137 272.147 94.939 272.199C95.1817 272.233 95.3984 272.294 95.589 272.381L94.965 275.683C94.7224 275.613 94.497 275.561 94.289 275.527C94.081 275.492 93.8384 275.475 93.561 275.475C93.0757 275.475 92.5644 275.648 92.027 275.995C91.507 276.341 91.0737 276.957 90.727 277.841V285.329H86.905ZM98.5644 285.329V267.103H102.282V277.555H102.386L106.468 272.433H110.628L106.104 277.737L110.966 285.329H106.832L103.92 280.311L102.282 282.157V285.329H98.5644ZM125.58 285.641C124.782 285.641 124.098 285.519 123.526 285.277C122.971 285.034 122.512 284.696 122.148 284.263C121.801 283.829 121.541 283.309 121.368 282.703C121.212 282.079 121.134 281.394 121.134 280.649V275.423H119.366V272.589L121.342 272.433L121.784 269.001H124.956V272.433H128.05V275.423H124.956V280.597C124.956 281.325 125.103 281.853 125.398 282.183C125.71 282.495 126.117 282.651 126.62 282.651C126.828 282.651 127.036 282.625 127.244 282.573C127.469 282.521 127.668 282.46 127.842 282.391L128.44 285.173C128.093 285.277 127.686 285.381 127.218 285.485C126.75 285.589 126.204 285.641 125.58 285.641ZM136.948 285.641C136.133 285.641 135.344 285.493 134.582 285.199C133.819 284.887 133.143 284.445 132.554 283.873C131.982 283.301 131.522 282.599 131.176 281.767C130.829 280.917 130.656 279.955 130.656 278.881C130.656 277.806 130.829 276.853 131.176 276.021C131.522 275.171 131.982 274.461 132.554 273.889C133.143 273.317 133.819 272.883 134.582 272.589C135.344 272.277 136.133 272.121 136.948 272.121C137.762 272.121 138.542 272.277 139.288 272.589C140.05 272.883 140.718 273.317 141.29 273.889C141.879 274.461 142.347 275.171 142.694 276.021C143.04 276.853 143.214 277.806 143.214 278.881C143.214 279.955 143.04 280.917 142.694 281.767C142.347 282.599 141.879 283.301 141.29 283.873C140.718 284.445 140.05 284.887 139.288 285.199C138.542 285.493 137.762 285.641 136.948 285.641ZM136.948 282.547C137.728 282.547 138.317 282.217 138.716 281.559C139.114 280.9 139.314 280.007 139.314 278.881C139.314 277.754 139.114 276.861 138.716 276.203C138.317 275.544 137.728 275.215 136.948 275.215C136.15 275.215 135.552 275.544 135.154 276.203C134.772 276.861 134.582 277.754 134.582 278.881C134.582 280.007 134.772 280.9 135.154 281.559C135.552 282.217 136.15 282.547 136.948 282.547ZM151.734 290.815C150.971 290.815 150.26 290.745 149.602 290.607C148.96 290.485 148.388 290.295 147.886 290.035C147.4 289.775 147.019 289.437 146.742 289.021C146.464 288.605 146.326 288.111 146.326 287.539C146.326 286.499 146.941 285.632 148.172 284.939V284.835C147.825 284.609 147.539 284.323 147.314 283.977C147.088 283.63 146.976 283.188 146.976 282.651C146.976 282.183 147.114 281.741 147.392 281.325C147.669 280.891 148.016 280.527 148.432 280.233V280.129C147.981 279.817 147.574 279.375 147.21 278.803C146.863 278.213 146.69 277.537 146.69 276.775C146.69 275.995 146.837 275.319 147.132 274.747C147.426 274.157 147.816 273.672 148.302 273.291C148.804 272.892 149.376 272.597 150.018 272.407C150.659 272.216 151.326 272.121 152.02 272.121C152.782 272.121 153.45 272.225 154.022 272.433H158.728V275.215H156.674C156.795 275.405 156.89 275.648 156.96 275.943C157.046 276.237 157.09 276.558 157.09 276.905C157.09 277.65 156.96 278.3 156.7 278.855C156.44 279.392 156.076 279.843 155.608 280.207C155.157 280.553 154.62 280.813 153.996 280.987C153.389 281.16 152.73 281.247 152.02 281.247C151.517 281.247 150.997 281.16 150.46 280.987C150.286 281.125 150.165 281.264 150.096 281.403C150.026 281.541 149.992 281.723 149.992 281.949C149.992 282.278 150.13 282.521 150.408 282.677C150.702 282.833 151.214 282.911 151.942 282.911H154.022C155.616 282.911 156.83 283.171 157.662 283.691C158.511 284.193 158.936 285.025 158.936 286.187C158.936 286.863 158.762 287.478 158.416 288.033C158.086 288.605 157.61 289.09 156.986 289.489C156.362 289.905 155.608 290.225 154.724 290.451C153.84 290.693 152.843 290.815 151.734 290.815ZM152.02 278.933C152.522 278.933 152.938 278.759 153.268 278.413C153.614 278.049 153.788 277.503 153.788 276.775C153.788 276.099 153.614 275.587 153.268 275.241C152.938 274.877 152.522 274.695 152.02 274.695C151.517 274.695 151.092 274.868 150.746 275.215C150.416 275.561 150.252 276.081 150.252 276.775C150.252 277.503 150.416 278.049 150.746 278.413C151.092 278.759 151.517 278.933 152.02 278.933ZM152.332 288.423C153.198 288.423 153.909 288.267 154.464 287.955C155.018 287.66 155.296 287.287 155.296 286.837C155.296 286.438 155.122 286.169 154.776 286.031C154.446 285.892 153.961 285.823 153.32 285.823H151.994C151.543 285.823 151.179 285.805 150.902 285.771C150.624 285.753 150.382 285.719 150.174 285.667C149.706 286.083 149.472 286.507 149.472 286.941C149.472 287.426 149.732 287.79 150.252 288.033C150.772 288.293 151.465 288.423 152.332 288.423ZM167.635 285.641C166.717 285.641 165.859 285.493 165.061 285.199C164.264 284.887 163.571 284.445 162.981 283.873C162.392 283.283 161.933 282.573 161.603 281.741C161.274 280.909 161.109 279.955 161.109 278.881C161.109 277.841 161.283 276.905 161.629 276.073C161.976 275.223 162.427 274.513 162.981 273.941C163.553 273.351 164.203 272.901 164.931 272.589C165.659 272.277 166.413 272.121 167.193 272.121C168.112 272.121 168.909 272.277 169.585 272.589C170.279 272.901 170.851 273.334 171.301 273.889C171.769 274.443 172.116 275.102 172.341 275.865C172.567 276.61 172.679 277.425 172.679 278.309C172.679 278.655 172.662 278.985 172.627 279.297C172.593 279.609 172.558 279.843 172.523 279.999H164.801C164.975 280.935 165.356 281.628 165.945 282.079C166.552 282.512 167.289 282.729 168.155 282.729C169.074 282.729 170.001 282.443 170.937 281.871L172.211 284.185C171.553 284.635 170.816 284.991 170.001 285.251C169.204 285.511 168.415 285.641 167.635 285.641ZM164.775 277.477H169.429C169.429 276.749 169.265 276.159 168.935 275.709C168.606 275.258 168.051 275.033 167.271 275.033C166.665 275.033 166.127 275.232 165.659 275.631C165.209 276.029 164.914 276.645 164.775 277.477ZM181.332 285.641C180.535 285.641 179.85 285.519 179.278 285.277C178.724 285.034 178.264 284.696 177.9 284.263C177.554 283.829 177.294 283.309 177.12 282.703C176.964 282.079 176.886 281.394 176.886 280.649V275.423H175.118V272.589L177.094 272.433L177.536 269.001H180.708V272.433H183.802V275.423H180.708V280.597C180.708 281.325 180.856 281.853 181.15 282.183C181.462 282.495 181.87 282.651 182.372 282.651C182.58 282.651 182.788 282.625 182.996 282.573C183.222 282.521 183.421 282.46 183.594 282.391L184.192 285.173C183.846 285.277 183.438 285.381 182.97 285.485C182.502 285.589 181.956 285.641 181.332 285.641ZM187.619 285.329V267.103H191.441V271.575L191.259 273.889C191.745 273.455 192.308 273.057 192.949 272.693C193.591 272.311 194.353 272.121 195.237 272.121C196.641 272.121 197.655 272.58 198.279 273.499C198.921 274.417 199.241 275.691 199.241 277.321V285.329H195.419V277.815C195.419 276.879 195.289 276.237 195.029 275.891C194.787 275.544 194.388 275.371 193.833 275.371C193.348 275.371 192.932 275.483 192.585 275.709C192.239 275.917 191.857 276.22 191.441 276.619V285.329H187.619ZM209.545 285.641C208.626 285.641 207.768 285.493 206.971 285.199C206.174 284.887 205.48 284.445 204.891 283.873C204.302 283.283 203.842 282.573 203.513 281.741C203.184 280.909 203.019 279.955 203.019 278.881C203.019 277.841 203.192 276.905 203.539 276.073C203.886 275.223 204.336 274.513 204.891 273.941C205.463 273.351 206.113 272.901 206.841 272.589C207.569 272.277 208.323 272.121 209.103 272.121C210.022 272.121 210.819 272.277 211.495 272.589C212.188 272.901 212.76 273.334 213.211 273.889C213.679 274.443 214.026 275.102 214.251 275.865C214.476 276.61 214.589 277.425 214.589 278.309C214.589 278.655 214.572 278.985 214.537 279.297C214.502 279.609 214.468 279.843 214.433 279.999H206.711C206.884 280.935 207.266 281.628 207.855 282.079C208.462 282.512 209.198 282.729 210.065 282.729C210.984 282.729 211.911 282.443 212.847 281.871L214.121 284.185C213.462 284.635 212.726 284.991 211.911 285.251C211.114 285.511 210.325 285.641 209.545 285.641ZM206.685 277.477H211.339C211.339 276.749 211.174 276.159 210.845 275.709C210.516 275.258 209.961 275.033 209.181 275.033C208.574 275.033 208.037 275.232 207.569 275.631C207.118 276.029 206.824 276.645 206.685 277.477ZM218.53 285.329V272.433H221.65L221.91 274.695H222.014C222.482 273.811 223.045 273.161 223.704 272.745C224.363 272.329 225.021 272.121 225.68 272.121C226.044 272.121 226.339 272.147 226.564 272.199C226.807 272.233 227.023 272.294 227.214 272.381L226.59 275.683C226.347 275.613 226.122 275.561 225.914 275.527C225.706 275.492 225.463 275.475 225.186 275.475C224.701 275.475 224.189 275.648 223.652 275.995C223.132 276.341 222.699 276.957 222.352 277.841V285.329H218.53ZM228.19 290.373L227.41 288.345C228.381 287.998 229.118 287.547 229.62 286.993C230.123 286.438 230.366 285.831 230.348 285.173H230.14C229.534 285.173 228.996 284.991 228.528 284.627C228.06 284.245 227.826 283.708 227.826 283.015C227.826 282.356 228.06 281.827 228.528 281.429C228.996 281.03 229.56 280.831 230.218 280.831C231.085 280.831 231.744 281.151 232.194 281.793C232.645 282.417 232.87 283.301 232.87 284.445C232.87 285.883 232.472 287.114 231.674 288.137C230.877 289.177 229.716 289.922 228.19 290.373ZM243.504 285.329V272.433H246.624L246.884 274.695H246.988C247.456 273.811 248.02 273.161 248.678 272.745C249.337 272.329 249.996 272.121 250.654 272.121C251.018 272.121 251.313 272.147 251.538 272.199C251.781 272.233 251.998 272.294 252.188 272.381L251.564 275.683C251.322 275.613 251.096 275.561 250.888 275.527C250.68 275.492 250.438 275.475 250.16 275.475C249.675 275.475 249.164 275.648 248.626 275.995C248.106 276.341 247.673 276.957 247.326 277.841V285.329H243.504ZM260.682 285.641C259.763 285.641 258.905 285.493 258.108 285.199C257.31 284.887 256.617 284.445 256.028 283.873C255.438 283.283 254.979 282.573 254.65 281.741C254.32 280.909 254.156 279.955 254.156 278.881C254.156 277.841 254.329 276.905 254.676 276.073C255.022 275.223 255.473 274.513 256.028 273.941C256.6 273.351 257.25 272.901 257.978 272.589C258.706 272.277 259.46 272.121 260.24 272.121C261.158 272.121 261.956 272.277 262.632 272.589C263.325 272.901 263.897 273.334 264.348 273.889C264.816 274.443 265.162 275.102 265.388 275.865C265.613 276.61 265.726 277.425 265.726 278.309C265.726 278.655 265.708 278.985 265.674 279.297C265.639 279.609 265.604 279.843 265.57 279.999H257.848C258.021 280.935 258.402 281.628 258.992 282.079C259.598 282.512 260.335 282.729 261.202 282.729C262.12 282.729 263.048 282.443 263.984 281.871L265.258 284.185C264.599 284.635 263.862 284.991 263.048 285.251C262.25 285.511 261.462 285.641 260.682 285.641ZM257.822 277.477H262.476C262.476 276.749 262.311 276.159 261.982 275.709C261.652 275.258 261.098 275.033 260.318 275.033C259.711 275.033 259.174 275.232 258.706 275.631C258.255 276.029 257.96 276.645 257.822 277.477ZM269.667 285.329V272.433H272.787L273.047 274.097H273.151C273.688 273.559 274.26 273.1 274.867 272.719C275.473 272.32 276.201 272.121 277.051 272.121C277.969 272.121 278.706 272.311 279.261 272.693C279.833 273.057 280.283 273.585 280.613 274.279C281.185 273.689 281.783 273.187 282.407 272.771C283.048 272.337 283.802 272.121 284.669 272.121C286.055 272.121 287.069 272.589 287.711 273.525C288.369 274.443 288.699 275.709 288.699 277.321V285.329H284.877V277.815C284.877 276.879 284.747 276.237 284.487 275.891C284.244 275.544 283.845 275.371 283.291 275.371C282.649 275.371 281.913 275.787 281.081 276.619V285.329H277.259V277.815C277.259 276.879 277.129 276.237 276.869 275.891C276.626 275.544 276.227 275.371 275.673 275.371C275.014 275.371 274.286 275.787 273.489 276.619V285.329H269.667ZM298.798 285.641C297.983 285.641 297.194 285.493 296.432 285.199C295.669 284.887 294.993 284.445 294.404 283.873C293.832 283.301 293.372 282.599 293.026 281.767C292.679 280.917 292.506 279.955 292.506 278.881C292.506 277.806 292.679 276.853 293.026 276.021C293.372 275.171 293.832 274.461 294.404 273.889C294.993 273.317 295.669 272.883 296.432 272.589C297.194 272.277 297.983 272.121 298.798 272.121C299.612 272.121 300.392 272.277 301.138 272.589C301.9 272.883 302.568 273.317 303.14 273.889C303.729 274.461 304.197 275.171 304.544 276.021C304.89 276.853 305.064 277.806 305.064 278.881C305.064 279.955 304.89 280.917 304.544 281.767C304.197 282.599 303.729 283.301 303.14 283.873C302.568 284.445 301.9 284.887 301.138 285.199C300.392 285.493 299.612 285.641 298.798 285.641ZM298.798 282.547C299.578 282.547 300.167 282.217 300.566 281.559C300.964 280.9 301.164 280.007 301.164 278.881C301.164 277.754 300.964 276.861 300.566 276.203C300.167 275.544 299.578 275.215 298.798 275.215C298 275.215 297.402 275.544 297.004 276.203C296.622 276.861 296.432 277.754 296.432 278.881C296.432 280.007 296.622 280.9 297.004 281.559C297.402 282.217 298 282.547 298.798 282.547ZM313.262 285.641C312.465 285.641 311.78 285.519 311.208 285.277C310.653 285.034 310.194 284.696 309.83 284.263C309.483 283.829 309.223 283.309 309.05 282.703C308.894 282.079 308.816 281.394 308.816 280.649V275.423H307.048V272.589L309.024 272.433L309.466 269.001H312.638V272.433H315.732V275.423H312.638V280.597C312.638 281.325 312.785 281.853 313.08 282.183C313.392 282.495 313.799 282.651 314.302 282.651C314.51 282.651 314.718 282.625 314.926 282.573C315.151 282.521 315.351 282.46 315.524 282.391L316.122 285.173C315.775 285.277 315.368 285.381 314.9 285.485C314.432 285.589 313.886 285.641 313.262 285.641ZM324.864 285.641C323.945 285.641 323.087 285.493 322.29 285.199C321.493 284.887 320.799 284.445 320.21 283.873C319.621 283.283 319.161 282.573 318.832 281.741C318.503 280.909 318.338 279.955 318.338 278.881C318.338 277.841 318.511 276.905 318.858 276.073C319.205 275.223 319.655 274.513 320.21 273.941C320.782 273.351 321.432 272.901 322.16 272.589C322.888 272.277 323.642 272.121 324.422 272.121C325.341 272.121 326.138 272.277 326.814 272.589C327.507 272.901 328.079 273.334 328.53 273.889C328.998 274.443 329.345 275.102 329.57 275.865C329.795 276.61 329.908 277.425 329.908 278.309C329.908 278.655 329.891 278.985 329.856 279.297C329.821 279.609 329.787 279.843 329.752 279.999H322.03C322.203 280.935 322.585 281.628 323.174 282.079C323.781 282.512 324.517 282.729 325.384 282.729C326.303 282.729 327.23 282.443 328.166 281.871L329.44 284.185C328.781 284.635 328.045 284.991 327.23 285.251C326.433 285.511 325.644 285.641 324.864 285.641ZM322.004 277.477H326.658C326.658 276.749 326.493 276.159 326.164 275.709C325.835 275.258 325.28 275.033 324.5 275.033C323.893 275.033 323.356 275.232 322.888 275.631C322.437 276.029 322.143 276.645 322.004 277.477ZM337.359 285.641C336.701 285.641 336.146 285.537 335.695 285.329C335.245 285.121 334.881 284.835 334.603 284.471C334.343 284.089 334.153 283.639 334.031 283.119C333.91 282.581 333.849 281.983 333.849 281.325V267.103H337.671V281.481C337.671 281.879 337.741 282.157 337.879 282.313C338.035 282.469 338.191 282.547 338.347 282.547C338.434 282.547 338.503 282.547 338.555 282.547C338.625 282.547 338.711 282.529 338.815 282.495L339.283 285.329C339.075 285.415 338.807 285.485 338.477 285.537C338.165 285.606 337.793 285.641 337.359 285.641ZM344.019 290.373C343.62 290.373 343.282 290.347 343.005 290.295C342.727 290.26 342.459 290.199 342.199 290.113L342.875 287.201C342.996 287.235 343.135 287.27 343.291 287.305C343.447 287.339 343.594 287.357 343.733 287.357C344.374 287.357 344.868 287.201 345.215 286.889C345.561 286.577 345.821 286.169 345.995 285.667L346.177 284.991L341.211 272.433H345.059L346.905 277.971C347.095 278.56 347.269 279.158 347.425 279.765C347.581 280.371 347.745 280.995 347.919 281.637H348.023C348.161 281.03 348.3 280.423 348.439 279.817C348.595 279.193 348.751 278.577 348.907 277.971L350.467 272.433H354.133L349.661 285.459C349.349 286.273 349.019 286.984 348.673 287.591C348.343 288.215 347.953 288.726 347.503 289.125C347.069 289.541 346.567 289.853 345.995 290.061C345.44 290.269 344.781 290.373 344.019 290.373Z" fill="#717171"/>
<path d="M97.2869 322.329V311.833H103.335V312.953H98.6149V316.505H102.615V317.625H98.6149V322.329H97.2869ZM108.67 322.521C108.19 322.521 107.732 322.43 107.294 322.249C106.868 322.067 106.489 321.806 106.158 321.465C105.828 321.113 105.561 320.686 105.358 320.185C105.166 319.673 105.07 319.097 105.07 318.457C105.07 317.806 105.166 317.23 105.358 316.729C105.561 316.217 105.828 315.785 106.158 315.433C106.489 315.081 106.868 314.814 107.294 314.633C107.732 314.451 108.19 314.361 108.67 314.361C109.15 314.361 109.604 314.451 110.03 314.633C110.468 314.814 110.852 315.081 111.182 315.433C111.513 315.785 111.774 316.217 111.966 316.729C112.169 317.23 112.27 317.806 112.27 318.457C112.27 319.097 112.169 319.673 111.966 320.185C111.774 320.686 111.513 321.113 111.182 321.465C110.852 321.806 110.468 322.067 110.03 322.249C109.604 322.43 109.15 322.521 108.67 322.521ZM108.67 321.433C109.001 321.433 109.305 321.363 109.582 321.225C109.86 321.075 110.094 320.873 110.286 320.617C110.489 320.35 110.644 320.035 110.75 319.673C110.857 319.31 110.91 318.905 110.91 318.457C110.91 318.009 110.857 317.603 110.75 317.241C110.644 316.867 110.489 316.547 110.286 316.281C110.094 316.014 109.86 315.811 109.582 315.673C109.305 315.523 109.001 315.449 108.67 315.449C108.34 315.449 108.036 315.523 107.758 315.673C107.481 315.811 107.241 316.014 107.038 316.281C106.846 316.547 106.697 316.867 106.59 317.241C106.484 317.603 106.43 318.009 106.43 318.457C106.43 318.905 106.484 319.31 106.59 319.673C106.697 320.035 106.846 320.35 107.038 320.617C107.241 320.873 107.481 321.075 107.758 321.225C108.036 321.363 108.34 321.433 108.67 321.433ZM115.118 322.329V314.553H116.206L116.318 315.961H116.366C116.633 315.47 116.953 315.081 117.326 314.793C117.71 314.505 118.126 314.361 118.574 314.361C118.884 314.361 119.161 314.414 119.406 314.521L119.15 315.673C119.022 315.63 118.905 315.598 118.798 315.577C118.692 315.555 118.558 315.545 118.398 315.545C118.068 315.545 117.721 315.678 117.358 315.945C117.006 316.211 116.697 316.675 116.43 317.337V322.329H115.118ZM121.465 322.329V314.553H122.553L122.665 315.673H122.713C123.054 315.299 123.422 314.99 123.817 314.745C124.222 314.489 124.66 314.361 125.129 314.361C125.726 314.361 126.19 314.494 126.521 314.761C126.862 315.017 127.113 315.379 127.273 315.849C127.678 315.401 128.084 315.043 128.489 314.777C128.905 314.499 129.353 314.361 129.833 314.361C130.633 314.361 131.225 314.617 131.609 315.129C132.004 315.641 132.201 316.398 132.201 317.401V322.329H130.889V317.577C130.889 316.841 130.772 316.313 130.537 315.993C130.302 315.662 129.94 315.497 129.449 315.497C128.862 315.497 128.212 315.897 127.497 316.697V322.329H126.185V317.577C126.185 316.841 126.068 316.313 125.833 315.993C125.598 315.662 125.23 315.497 124.729 315.497C124.142 315.497 123.492 315.897 122.777 316.697V322.329H121.465ZM142.558 322.521C142.078 322.521 141.619 322.43 141.182 322.249C140.755 322.067 140.377 321.806 140.046 321.465C139.715 321.113 139.449 320.686 139.246 320.185C139.054 319.673 138.958 319.097 138.958 318.457C138.958 317.806 139.054 317.23 139.246 316.729C139.449 316.217 139.715 315.785 140.046 315.433C140.377 315.081 140.755 314.814 141.182 314.633C141.619 314.451 142.078 314.361 142.558 314.361C143.038 314.361 143.491 314.451 143.918 314.633C144.355 314.814 144.739 315.081 145.07 315.433C145.401 315.785 145.662 316.217 145.854 316.729C146.057 317.23 146.158 317.806 146.158 318.457C146.158 319.097 146.057 319.673 145.854 320.185C145.662 320.686 145.401 321.113 145.07 321.465C144.739 321.806 144.355 322.067 143.918 322.249C143.491 322.43 143.038 322.521 142.558 322.521ZM142.558 321.433C142.889 321.433 143.193 321.363 143.47 321.225C143.747 321.075 143.982 320.873 144.174 320.617C144.377 320.35 144.531 320.035 144.638 319.673C144.745 319.31 144.798 318.905 144.798 318.457C144.798 318.009 144.745 317.603 144.638 317.241C144.531 316.867 144.377 316.547 144.174 316.281C143.982 316.014 143.747 315.811 143.47 315.673C143.193 315.523 142.889 315.449 142.558 315.449C142.227 315.449 141.923 315.523 141.646 315.673C141.369 315.811 141.129 316.014 140.926 316.281C140.734 316.547 140.585 316.867 140.478 317.241C140.371 317.603 140.318 318.009 140.318 318.457C140.318 318.905 140.371 319.31 140.478 319.673C140.585 320.035 140.734 320.35 140.926 320.617C141.129 320.873 141.369 321.075 141.646 321.225C141.923 321.363 142.227 321.433 142.558 321.433ZM149.006 322.329V314.553H150.094L150.206 315.961H150.254C150.52 315.47 150.84 315.081 151.214 314.793C151.598 314.505 152.014 314.361 152.462 314.361C152.771 314.361 153.048 314.414 153.294 314.521L153.038 315.673C152.91 315.63 152.792 315.598 152.686 315.577C152.579 315.555 152.446 315.545 152.286 315.545C151.955 315.545 151.608 315.678 151.246 315.945C150.894 316.211 150.584 316.675 150.318 317.337V322.329H149.006ZM158.556 325.801C158.31 325.801 158.092 325.779 157.9 325.737C157.708 325.694 157.542 325.646 157.404 325.593L157.676 324.601C157.772 324.633 157.884 324.659 158.012 324.681C158.14 324.713 158.273 324.729 158.412 324.729C158.796 324.729 159.052 324.595 159.18 324.329C159.308 324.062 159.372 323.689 159.372 323.209V314.553H160.684V323.209C160.684 323.998 160.524 324.627 160.204 325.097C159.884 325.566 159.334 325.801 158.556 325.801ZM160.044 312.953C159.788 312.953 159.569 312.873 159.388 312.713C159.217 312.553 159.132 312.35 159.132 312.105C159.132 311.849 159.217 311.646 159.388 311.497C159.569 311.337 159.788 311.257 160.044 311.257C160.289 311.257 160.497 311.337 160.668 311.497C160.849 311.646 160.94 311.849 160.94 312.105C160.94 312.35 160.849 312.553 160.668 312.713C160.497 312.873 160.289 312.953 160.044 312.953ZM167.133 322.521C166.653 322.521 166.194 322.43 165.757 322.249C165.33 322.067 164.952 321.806 164.621 321.465C164.29 321.113 164.024 320.686 163.821 320.185C163.629 319.673 163.533 319.097 163.533 318.457C163.533 317.806 163.629 317.23 163.821 316.729C164.024 316.217 164.29 315.785 164.621 315.433C164.952 315.081 165.33 314.814 165.757 314.633C166.194 314.451 166.653 314.361 167.133 314.361C167.613 314.361 168.066 314.451 168.493 314.633C168.93 314.814 169.314 315.081 169.645 315.433C169.976 315.785 170.237 316.217 170.429 316.729C170.632 317.23 170.733 317.806 170.733 318.457C170.733 319.097 170.632 319.673 170.429 320.185C170.237 320.686 169.976 321.113 169.645 321.465C169.314 321.806 168.93 322.067 168.493 322.249C168.066 322.43 167.613 322.521 167.133 322.521ZM167.133 321.433C167.464 321.433 167.768 321.363 168.045 321.225C168.322 321.075 168.557 320.873 168.749 320.617C168.952 320.35 169.106 320.035 169.213 319.673C169.32 319.31 169.373 318.905 169.373 318.457C169.373 318.009 169.32 317.603 169.213 317.241C169.106 316.867 168.952 316.547 168.749 316.281C168.557 316.014 168.322 315.811 168.045 315.673C167.768 315.523 167.464 315.449 167.133 315.449C166.802 315.449 166.498 315.523 166.221 315.673C165.944 315.811 165.704 316.014 165.501 316.281C165.309 316.547 165.16 316.867 165.053 317.241C164.946 317.603 164.893 318.009 164.893 318.457C164.893 318.905 164.946 319.31 165.053 319.673C165.16 320.035 165.309 320.35 165.501 320.617C165.704 320.873 165.944 321.075 166.221 321.225C166.498 321.363 166.802 321.433 167.133 321.433ZM173.581 322.329V314.553H174.893V322.329H173.581ZM174.253 312.953C173.997 312.953 173.778 312.873 173.597 312.713C173.426 312.553 173.341 312.35 173.341 312.105C173.341 311.849 173.426 311.646 173.597 311.497C173.778 311.337 173.997 311.257 174.253 311.257C174.509 311.257 174.722 311.337 174.893 311.497C175.074 311.646 175.165 311.849 175.165 312.105C175.165 312.35 175.074 312.553 174.893 312.713C174.722 312.873 174.509 312.953 174.253 312.953ZM178.318 322.329V314.553H179.406L179.518 315.673H179.566C179.94 315.299 180.329 314.99 180.734 314.745C181.15 314.489 181.63 314.361 182.174 314.361C182.996 314.361 183.593 314.617 183.966 315.129C184.35 315.641 184.542 316.398 184.542 317.401V322.329H183.23V317.577C183.23 316.841 183.113 316.313 182.878 315.993C182.644 315.662 182.27 315.497 181.758 315.497C181.353 315.497 180.996 315.598 180.686 315.801C180.377 316.003 180.025 316.302 179.63 316.697V322.329H178.318ZM193.663 322.521C193.013 322.521 192.469 322.329 192.031 321.945C191.605 321.561 191.391 321.017 191.391 320.313C191.391 319.459 191.77 318.809 192.527 318.361C193.285 317.902 194.495 317.582 196.159 317.401C196.159 317.155 196.133 316.915 196.079 316.681C196.037 316.446 195.957 316.238 195.839 316.057C195.722 315.875 195.557 315.731 195.343 315.625C195.141 315.507 194.879 315.449 194.559 315.449C194.111 315.449 193.69 315.534 193.295 315.705C192.901 315.875 192.549 316.067 192.239 316.281L191.727 315.369C192.09 315.134 192.533 314.91 193.055 314.697C193.578 314.473 194.154 314.361 194.783 314.361C195.733 314.361 196.421 314.654 196.847 315.241C197.274 315.817 197.487 316.59 197.487 317.561V322.329H196.399L196.287 321.401H196.239C195.866 321.71 195.466 321.977 195.039 322.201C194.613 322.414 194.154 322.521 193.663 322.521ZM194.047 321.465C194.421 321.465 194.773 321.379 195.103 321.209C195.434 321.027 195.786 320.766 196.159 320.425V318.265C195.509 318.35 194.959 318.451 194.511 318.569C194.074 318.686 193.717 318.825 193.439 318.985C193.173 319.145 192.975 319.331 192.847 319.545C192.73 319.747 192.671 319.971 192.671 320.217C192.671 320.665 192.805 320.985 193.071 321.177C193.338 321.369 193.663 321.465 194.047 321.465ZM207.185 322.521C206.769 322.521 206.417 322.457 206.129 322.329C205.852 322.201 205.622 322.025 205.441 321.801C205.27 321.577 205.148 321.305 205.073 320.985C204.998 320.665 204.961 320.313 204.961 319.929V315.625H203.809V314.633L205.025 314.553L205.185 312.377H206.289V314.553H208.385V315.625H206.289V319.945C206.289 320.425 206.374 320.798 206.545 321.065C206.726 321.321 207.041 321.449 207.489 321.449C207.628 321.449 207.777 321.427 207.937 321.385C208.097 321.342 208.241 321.294 208.369 321.241L208.625 322.233C208.412 322.307 208.177 322.371 207.921 322.425C207.676 322.489 207.43 322.521 207.185 322.521ZM213.877 322.521C213.354 322.521 212.863 322.43 212.405 322.249C211.957 322.057 211.562 321.79 211.221 321.449C210.89 321.097 210.629 320.67 210.437 320.169C210.245 319.667 210.149 319.097 210.149 318.457C210.149 317.817 210.245 317.246 210.437 316.745C210.639 316.233 210.901 315.801 211.221 315.449C211.551 315.097 211.925 314.83 212.341 314.649C212.757 314.457 213.189 314.361 213.637 314.361C214.127 314.361 214.565 314.446 214.949 314.617C215.343 314.787 215.669 315.033 215.925 315.353C216.191 315.673 216.394 316.057 216.533 316.505C216.671 316.953 216.741 317.454 216.741 318.009C216.741 318.147 216.735 318.286 216.725 318.425C216.725 318.553 216.714 318.665 216.693 318.761H211.445C211.498 319.593 211.754 320.254 212.213 320.745C212.682 321.225 213.29 321.465 214.037 321.465C214.41 321.465 214.751 321.411 215.061 321.305C215.381 321.187 215.685 321.038 215.973 320.857L216.437 321.721C216.095 321.934 215.717 322.121 215.301 322.281C214.885 322.441 214.41 322.521 213.877 322.521ZM211.429 317.817H215.589C215.589 317.027 215.418 316.43 215.077 316.025C214.746 315.609 214.277 315.401 213.669 315.401C213.391 315.401 213.125 315.454 212.869 315.561C212.623 315.667 212.399 315.827 212.197 316.041C211.994 316.243 211.823 316.494 211.685 316.793C211.557 317.091 211.471 317.433 211.429 317.817ZM221.035 322.521C220.385 322.521 219.841 322.329 219.403 321.945C218.977 321.561 218.763 321.017 218.763 320.313C218.763 319.459 219.142 318.809 219.899 318.361C220.657 317.902 221.867 317.582 223.531 317.401C223.531 317.155 223.505 316.915 223.451 316.681C223.409 316.446 223.329 316.238 223.211 316.057C223.094 315.875 222.929 315.731 222.715 315.625C222.513 315.507 222.251 315.449 221.931 315.449C221.483 315.449 221.062 315.534 220.667 315.705C220.273 315.875 219.921 316.067 219.611 316.281L219.099 315.369C219.462 315.134 219.905 314.91 220.427 314.697C220.95 314.473 221.526 314.361 222.155 314.361C223.105 314.361 223.793 314.654 224.219 315.241C224.646 315.817 224.859 316.59 224.859 317.561V322.329H223.771L223.659 321.401H223.611C223.238 321.71 222.838 321.977 222.411 322.201C221.985 322.414 221.526 322.521 221.035 322.521ZM221.419 321.465C221.793 321.465 222.145 321.379 222.475 321.209C222.806 321.027 223.158 320.766 223.531 320.425V318.265C222.881 318.35 222.331 318.451 221.883 318.569C221.446 318.686 221.089 318.825 220.811 318.985C220.545 319.145 220.347 319.331 220.219 319.545C220.102 319.747 220.043 319.971 220.043 320.217C220.043 320.665 220.177 320.985 220.443 321.177C220.71 321.369 221.035 321.465 221.419 321.465ZM228.106 322.329V314.553H229.194L229.306 315.673H229.354C229.695 315.299 230.063 314.99 230.458 314.745C230.863 314.489 231.3 314.361 231.77 314.361C232.367 314.361 232.831 314.494 233.162 314.761C233.503 315.017 233.754 315.379 233.914 315.849C234.319 315.401 234.724 315.043 235.13 314.777C235.546 314.499 235.994 314.361 236.474 314.361C237.274 314.361 237.866 314.617 238.25 315.129C238.644 315.641 238.842 316.398 238.842 317.401V322.329H237.53V317.577C237.53 316.841 237.412 316.313 237.178 315.993C236.943 315.662 236.58 315.497 236.09 315.497C235.503 315.497 234.852 315.897 234.138 316.697V322.329H232.826V317.577C232.826 316.841 232.708 316.313 232.474 315.993C232.239 315.662 231.871 315.497 231.37 315.497C230.783 315.497 230.132 315.897 229.418 316.697V322.329H228.106ZM249.199 322.521C248.719 322.521 248.26 322.43 247.823 322.249C247.396 322.067 247.017 321.806 246.687 321.465C246.356 321.113 246.089 320.686 245.887 320.185C245.695 319.673 245.599 319.097 245.599 318.457C245.599 317.806 245.695 317.23 245.887 316.729C246.089 316.217 246.356 315.785 246.687 315.433C247.017 315.081 247.396 314.814 247.823 314.633C248.26 314.451 248.719 314.361 249.199 314.361C249.679 314.361 250.132 314.451 250.559 314.633C250.996 314.814 251.38 315.081 251.711 315.433C252.041 315.785 252.303 316.217 252.495 316.729C252.697 317.23 252.799 317.806 252.799 318.457C252.799 319.097 252.697 319.673 252.495 320.185C252.303 320.686 252.041 321.113 251.711 321.465C251.38 321.806 250.996 322.067 250.559 322.249C250.132 322.43 249.679 322.521 249.199 322.521ZM249.199 321.433C249.529 321.433 249.833 321.363 250.111 321.225C250.388 321.075 250.623 320.873 250.815 320.617C251.017 320.35 251.172 320.035 251.279 319.673C251.385 319.31 251.439 318.905 251.439 318.457C251.439 318.009 251.385 317.603 251.279 317.241C251.172 316.867 251.017 316.547 250.815 316.281C250.623 316.014 250.388 315.811 250.111 315.673C249.833 315.523 249.529 315.449 249.199 315.449C248.868 315.449 248.564 315.523 248.287 315.673C248.009 315.811 247.769 316.014 247.567 316.281C247.375 316.547 247.225 316.867 247.119 317.241C247.012 317.603 246.959 318.009 246.959 318.457C246.959 318.905 247.012 319.31 247.119 319.673C247.225 320.035 247.375 320.35 247.567 320.617C247.769 320.873 248.009 321.075 248.287 321.225C248.564 321.363 248.868 321.433 249.199 321.433ZM255.87 322.329V315.625H254.814V314.633L255.87 314.553V313.321C255.87 312.521 256.052 311.891 256.414 311.433C256.788 310.974 257.364 310.745 258.142 310.745C258.388 310.745 258.617 310.771 258.83 310.825C259.054 310.867 259.257 310.926 259.438 311.001L259.15 312.009C258.862 311.881 258.569 311.817 258.27 311.817C257.545 311.817 257.182 312.318 257.182 313.321V314.553H258.83V315.625H257.182V322.329H255.87ZM267.393 322.521C266.561 322.521 265.953 322.265 265.569 321.753C265.196 321.241 265.009 320.483 265.009 319.481V314.553H266.337V319.305C266.337 320.041 266.449 320.574 266.673 320.905C266.908 321.225 267.281 321.385 267.793 321.385C268.199 321.385 268.556 321.283 268.865 321.081C269.175 320.867 269.516 320.531 269.889 320.073V314.553H271.201V322.329H270.113L270.001 321.113H269.953C269.591 321.539 269.207 321.881 268.801 322.137C268.407 322.393 267.937 322.521 267.393 322.521ZM274.625 325.609V314.553H275.713L275.825 315.449H275.873C276.225 315.15 276.609 314.894 277.025 314.681C277.451 314.467 277.894 314.361 278.353 314.361C278.854 314.361 279.297 314.457 279.681 314.649C280.065 314.83 280.385 315.097 280.641 315.449C280.897 315.79 281.089 316.206 281.217 316.697C281.355 317.177 281.425 317.721 281.425 318.329C281.425 318.99 281.334 319.582 281.153 320.105C280.971 320.617 280.726 321.054 280.417 321.417C280.107 321.779 279.75 322.057 279.345 322.249C278.939 322.43 278.513 322.521 278.065 322.521C277.702 322.521 277.339 322.441 276.977 322.281C276.625 322.121 276.267 321.902 275.905 321.625L275.937 322.985V325.609H274.625ZM277.841 321.417C278.161 321.417 278.454 321.347 278.721 321.209C278.998 321.059 279.233 320.857 279.425 320.601C279.627 320.334 279.782 320.009 279.889 319.625C280.006 319.241 280.065 318.809 280.065 318.329C280.065 317.902 280.027 317.513 279.953 317.161C279.878 316.809 279.755 316.51 279.585 316.265C279.425 316.009 279.211 315.811 278.945 315.673C278.689 315.534 278.379 315.465 278.016 315.465C277.686 315.465 277.35 315.555 277.009 315.737C276.678 315.918 276.321 316.179 275.937 316.521V320.601C276.289 320.899 276.63 321.113 276.961 321.241C277.291 321.358 277.585 321.417 277.841 321.417ZM290.751 322.521C290.335 322.521 289.983 322.457 289.695 322.329C289.417 322.201 289.188 322.025 289.007 321.801C288.836 321.577 288.713 321.305 288.639 320.985C288.564 320.665 288.527 320.313 288.527 319.929V315.625H287.375V314.633L288.591 314.553L288.751 312.377H289.855V314.553H291.951V315.625H289.855V319.945C289.855 320.425 289.94 320.798 290.111 321.065C290.292 321.321 290.607 321.449 291.055 321.449C291.193 321.449 291.343 321.427 291.503 321.385C291.663 321.342 291.807 321.294 291.935 321.241L292.191 322.233C291.977 322.307 291.743 322.371 291.487 322.425C291.241 322.489 290.996 322.521 290.751 322.521ZM297.314 322.521C296.834 322.521 296.375 322.43 295.938 322.249C295.511 322.067 295.133 321.806 294.802 321.465C294.471 321.113 294.205 320.686 294.002 320.185C293.81 319.673 293.714 319.097 293.714 318.457C293.714 317.806 293.81 317.23 294.002 316.729C294.205 316.217 294.471 315.785 294.802 315.433C295.133 315.081 295.511 314.814 295.938 314.633C296.375 314.451 296.834 314.361 297.314 314.361C297.794 314.361 298.247 314.451 298.674 314.633C299.111 314.814 299.495 315.081 299.826 315.433C300.157 315.785 300.418 316.217 300.61 316.729C300.813 317.23 300.914 317.806 300.914 318.457C300.914 319.097 300.813 319.673 300.61 320.185C300.418 320.686 300.157 321.113 299.826 321.465C299.495 321.806 299.111 322.067 298.674 322.249C298.247 322.43 297.794 322.521 297.314 322.521ZM297.314 321.433C297.645 321.433 297.949 321.363 298.226 321.225C298.503 321.075 298.738 320.873 298.93 320.617C299.133 320.35 299.287 320.035 299.394 319.673C299.501 319.31 299.554 318.905 299.554 318.457C299.554 318.009 299.501 317.603 299.394 317.241C299.287 316.867 299.133 316.547 298.93 316.281C298.738 316.014 298.503 315.811 298.226 315.673C297.949 315.523 297.645 315.449 297.314 315.449C296.983 315.449 296.679 315.523 296.402 315.673C296.125 315.811 295.885 316.014 295.682 316.281C295.49 316.547 295.341 316.867 295.234 317.241C295.127 317.603 295.074 318.009 295.074 318.457C295.074 318.905 295.127 319.31 295.234 319.673C295.341 320.035 295.49 320.35 295.682 320.617C295.885 320.873 296.125 321.075 296.402 321.225C296.679 321.363 296.983 321.433 297.314 321.433ZM152.311 346.329V343.513H147.719V342.649L152.087 336.121H153.559V342.457H154.951V343.513H153.559V346.329H152.311ZM149.111 342.457H152.311V339.497C152.311 339.219 152.316 338.894 152.327 338.521C152.348 338.137 152.37 337.806 152.391 337.529H152.327C152.199 337.774 152.066 338.014 151.927 338.249C151.788 338.483 151.644 338.723 151.495 338.969L149.111 342.457ZM161.515 349.609V338.553H162.603L162.715 339.449H162.763C163.115 339.15 163.499 338.894 163.915 338.681C164.342 338.467 164.784 338.361 165.243 338.361C165.744 338.361 166.187 338.457 166.571 338.649C166.955 338.83 167.275 339.097 167.531 339.449C167.787 339.79 167.979 340.206 168.107 340.697C168.246 341.177 168.315 341.721 168.315 342.329C168.315 342.99 168.224 343.582 168.043 344.105C167.862 344.617 167.616 345.054 167.307 345.417C166.998 345.779 166.64 346.057 166.235 346.249C165.83 346.43 165.403 346.521 164.955 346.521C164.592 346.521 164.23 346.441 163.867 346.281C163.515 346.121 163.158 345.902 162.795 345.625L162.827 346.985V349.609H161.515ZM164.731 345.417C165.051 345.417 165.344 345.347 165.611 345.209C165.888 345.059 166.123 344.857 166.315 344.601C166.518 344.334 166.672 344.009 166.779 343.625C166.896 343.241 166.955 342.809 166.955 342.329C166.955 341.902 166.918 341.513 166.843 341.161C166.768 340.809 166.646 340.51 166.475 340.265C166.315 340.009 166.102 339.811 165.835 339.673C165.579 339.534 165.27 339.465 164.907 339.465C164.576 339.465 164.24 339.555 163.899 339.737C163.568 339.918 163.211 340.179 162.827 340.521V344.601C163.179 344.899 163.52 345.113 163.851 345.241C164.182 345.358 164.475 345.417 164.731 345.417ZM172.763 346.521C172.113 346.521 171.569 346.329 171.131 345.945C170.705 345.561 170.491 345.017 170.491 344.313C170.491 343.459 170.87 342.809 171.627 342.361C172.385 341.902 173.595 341.582 175.259 341.401C175.259 341.155 175.233 340.915 175.179 340.681C175.137 340.446 175.057 340.238 174.939 340.057C174.822 339.875 174.657 339.731 174.443 339.625C174.241 339.507 173.979 339.449 173.659 339.449C173.211 339.449 172.79 339.534 172.395 339.705C172.001 339.875 171.649 340.067 171.339 340.281L170.827 339.369C171.19 339.134 171.633 338.91 172.155 338.697C172.678 338.473 173.254 338.361 173.883 338.361C174.833 338.361 175.521 338.654 175.947 339.241C176.374 339.817 176.587 340.59 176.587 341.561V346.329H175.499L175.387 345.401H175.339C174.966 345.71 174.566 345.977 174.139 346.201C173.713 346.414 173.254 346.521 172.763 346.521ZM173.147 345.465C173.521 345.465 173.873 345.379 174.203 345.209C174.534 345.027 174.886 344.766 175.259 344.425V342.265C174.609 342.35 174.059 342.451 173.611 342.569C173.174 342.686 172.817 342.825 172.539 342.985C172.273 343.145 172.075 343.331 171.947 343.545C171.83 343.747 171.771 343.971 171.771 344.217C171.771 344.665 171.905 344.985 172.171 345.177C172.438 345.369 172.763 345.465 173.147 345.465ZM179.834 346.329V338.553H180.922L181.034 339.961H181.082C181.349 339.47 181.669 339.081 182.042 338.793C182.426 338.505 182.842 338.361 183.29 338.361C183.599 338.361 183.877 338.414 184.122 338.521L183.866 339.673C183.738 339.63 183.621 339.598 183.514 339.577C183.407 339.555 183.274 339.545 183.114 339.545C182.783 339.545 182.437 339.678 182.074 339.945C181.722 340.211 181.413 340.675 181.146 341.337V346.329H179.834ZM188.629 346.521C188.213 346.521 187.861 346.457 187.573 346.329C187.295 346.201 187.066 346.025 186.885 345.801C186.714 345.577 186.591 345.305 186.517 344.985C186.442 344.665 186.405 344.313 186.405 343.929V339.625H185.253V338.633L186.469 338.553L186.629 336.377H187.733V338.553H189.829V339.625H187.733V343.945C187.733 344.425 187.818 344.798 187.989 345.065C188.17 345.321 188.485 345.449 188.933 345.449C189.071 345.449 189.221 345.427 189.381 345.385C189.541 345.342 189.685 345.294 189.813 345.241L190.069 346.233C189.855 346.307 189.621 346.371 189.365 346.425C189.119 346.489 188.874 346.521 188.629 346.521ZM192.387 346.329V338.553H193.699V346.329H192.387ZM193.059 336.953C192.803 336.953 192.584 336.873 192.403 336.713C192.232 336.553 192.147 336.35 192.147 336.105C192.147 335.849 192.232 335.646 192.403 335.497C192.584 335.337 192.803 335.257 193.059 335.257C193.315 335.257 193.528 335.337 193.699 335.497C193.88 335.646 193.971 335.849 193.971 336.105C193.971 336.35 193.88 336.553 193.699 336.713C193.528 336.873 193.315 336.953 193.059 336.953ZM200.197 346.521C199.685 346.521 199.205 346.43 198.757 346.249C198.309 346.067 197.919 345.806 197.589 345.465C197.269 345.113 197.013 344.686 196.821 344.185C196.639 343.673 196.549 343.097 196.549 342.457C196.549 341.806 196.65 341.23 196.853 340.729C197.055 340.217 197.327 339.785 197.669 339.433C198.01 339.081 198.405 338.814 198.853 338.633C199.311 338.451 199.791 338.361 200.293 338.361C200.805 338.361 201.242 338.451 201.605 338.633C201.967 338.814 202.287 339.027 202.565 339.273L201.893 340.137C201.669 339.934 201.429 339.769 201.173 339.641C200.927 339.513 200.65 339.449 200.341 339.449C199.989 339.449 199.663 339.523 199.365 339.673C199.066 339.811 198.81 340.014 198.597 340.281C198.383 340.547 198.213 340.867 198.085 341.241C197.967 341.603 197.909 342.009 197.909 342.457C197.909 342.905 197.967 343.31 198.085 343.673C198.202 344.035 198.362 344.35 198.565 344.617C198.778 344.873 199.034 345.075 199.333 345.225C199.631 345.363 199.957 345.433 200.309 345.433C200.671 345.433 201.002 345.358 201.301 345.209C201.61 345.049 201.887 344.862 202.133 344.649L202.709 345.529C202.357 345.838 201.967 346.083 201.541 346.265C201.114 346.435 200.666 346.521 200.197 346.521ZM205.221 346.329V338.553H206.533V346.329H205.221ZM205.893 336.953C205.637 336.953 205.419 336.873 205.237 336.713C205.067 336.553 204.981 336.35 204.981 336.105C204.981 335.849 205.067 335.646 205.237 335.497C205.419 335.337 205.637 335.257 205.893 335.257C206.149 335.257 206.363 335.337 206.533 335.497C206.715 335.646 206.805 335.849 206.805 336.105C206.805 336.35 206.715 336.553 206.533 336.713C206.363 336.873 206.149 336.953 205.893 336.953ZM209.959 349.609V338.553H211.047L211.159 339.449H211.207C211.559 339.15 211.943 338.894 212.359 338.681C212.786 338.467 213.228 338.361 213.687 338.361C214.188 338.361 214.631 338.457 215.015 338.649C215.399 338.83 215.719 339.097 215.975 339.449C216.231 339.79 216.423 340.206 216.551 340.697C216.69 341.177 216.759 341.721 216.759 342.329C216.759 342.99 216.668 343.582 216.487 344.105C216.306 344.617 216.06 345.054 215.751 345.417C215.442 345.779 215.084 346.057 214.679 346.249C214.274 346.43 213.847 346.521 213.399 346.521C213.036 346.521 212.674 346.441 212.311 346.281C211.959 346.121 211.602 345.902 211.239 345.625L211.271 346.985V349.609H209.959ZM213.175 345.417C213.495 345.417 213.788 345.347 214.055 345.209C214.332 345.059 214.567 344.857 214.759 344.601C214.962 344.334 215.116 344.009 215.223 343.625C215.34 343.241 215.399 342.809 215.399 342.329C215.399 341.902 215.362 341.513 215.287 341.161C215.212 340.809 215.09 340.51 214.919 340.265C214.759 340.009 214.546 339.811 214.279 339.673C214.023 339.534 213.714 339.465 213.351 339.465C213.02 339.465 212.684 339.555 212.343 339.737C212.012 339.918 211.655 340.179 211.271 340.521V344.601C211.623 344.899 211.964 345.113 212.295 345.241C212.626 345.358 212.919 345.417 213.175 345.417ZM221.207 346.521C220.556 346.521 220.012 346.329 219.575 345.945C219.148 345.561 218.935 345.017 218.935 344.313C218.935 343.459 219.314 342.809 220.071 342.361C220.828 341.902 222.039 341.582 223.703 341.401C223.703 341.155 223.676 340.915 223.623 340.681C223.58 340.446 223.5 340.238 223.383 340.057C223.266 339.875 223.1 339.731 222.887 339.625C222.684 339.507 222.423 339.449 222.103 339.449C221.655 339.449 221.234 339.534 220.839 339.705C220.444 339.875 220.092 340.067 219.783 340.281L219.271 339.369C219.634 339.134 220.076 338.91 220.599 338.697C221.122 338.473 221.698 338.361 222.327 338.361C223.276 338.361 223.964 338.654 224.391 339.241C224.818 339.817 225.031 340.59 225.031 341.561V346.329H223.943L223.831 345.401H223.783C223.41 345.71 223.01 345.977 222.583 346.201C222.156 346.414 221.698 346.521 221.207 346.521ZM221.591 345.465C221.964 345.465 222.316 345.379 222.647 345.209C222.978 345.027 223.33 344.766 223.703 344.425V342.265C223.052 342.35 222.503 342.451 222.055 342.569C221.618 342.686 221.26 342.825 220.983 342.985C220.716 343.145 220.519 343.331 220.391 343.545C220.274 343.747 220.215 343.971 220.215 344.217C220.215 344.665 220.348 344.985 220.615 345.177C220.882 345.369 221.207 345.465 221.591 345.465ZM228.278 346.329V338.553H229.366L229.478 339.673H229.526C229.899 339.299 230.288 338.99 230.694 338.745C231.11 338.489 231.59 338.361 232.134 338.361C232.955 338.361 233.552 338.617 233.926 339.129C234.31 339.641 234.502 340.398 234.502 341.401V346.329H233.19V341.577C233.19 340.841 233.072 340.313 232.838 339.993C232.603 339.662 232.23 339.497 231.718 339.497C231.312 339.497 230.955 339.598 230.646 339.801C230.336 340.003 229.984 340.302 229.59 340.697V346.329H228.278ZM240.276 346.521C239.86 346.521 239.508 346.457 239.22 346.329C238.942 346.201 238.713 346.025 238.532 345.801C238.361 345.577 238.238 345.305 238.164 344.985C238.089 344.665 238.052 344.313 238.052 343.929V339.625H236.9V338.633L238.116 338.553L238.276 336.377H239.38V338.553H241.476V339.625H239.38V343.945C239.38 344.425 239.465 344.798 239.636 345.065C239.817 345.321 240.132 345.449 240.58 345.449C240.718 345.449 240.868 345.427 241.028 345.385C241.188 345.342 241.332 345.294 241.46 345.241L241.716 346.233C241.502 346.307 241.268 346.371 241.012 346.425C240.766 346.489 240.521 346.521 240.276 346.521ZM245.91 346.521C245.355 346.521 244.827 346.419 244.326 346.217C243.824 346.014 243.387 345.758 243.014 345.449L243.67 344.569C244.011 344.846 244.358 345.07 244.71 345.241C245.072 345.411 245.488 345.497 245.958 345.497C246.47 345.497 246.854 345.379 247.11 345.145C247.366 344.91 247.494 344.622 247.494 344.281C247.494 344.078 247.44 343.902 247.334 343.753C247.227 343.603 247.088 343.475 246.918 343.369C246.758 343.251 246.571 343.15 246.358 343.065C246.144 342.979 245.931 342.894 245.718 342.809C245.44 342.713 245.163 342.606 244.886 342.489C244.608 342.361 244.358 342.211 244.134 342.041C243.92 341.859 243.744 341.651 243.606 341.417C243.467 341.182 243.398 340.899 243.398 340.569C243.398 340.259 243.456 339.971 243.574 339.705C243.702 339.427 243.878 339.193 244.102 339.001C244.336 338.798 244.619 338.643 244.95 338.537C245.28 338.419 245.654 338.361 246.07 338.361C246.56 338.361 247.008 338.446 247.414 338.617C247.83 338.787 248.187 338.995 248.486 339.241L247.862 340.073C247.595 339.87 247.318 339.705 247.03 339.577C246.742 339.449 246.427 339.385 246.086 339.385C245.595 339.385 245.232 339.497 244.998 339.721C244.774 339.945 244.662 340.206 244.662 340.505C244.662 340.686 244.71 340.846 244.806 340.985C244.902 341.113 245.03 341.23 245.19 341.337C245.35 341.433 245.531 341.523 245.734 341.609C245.947 341.683 246.166 341.763 246.39 341.849C246.667 341.955 246.944 342.067 247.222 342.185C247.51 342.302 247.766 342.451 247.99 342.633C248.214 342.803 248.395 343.017 248.534 343.273C248.683 343.529 248.758 343.838 248.758 344.201C248.758 344.521 248.694 344.819 248.566 345.097C248.448 345.374 248.267 345.619 248.022 345.833C247.787 346.046 247.488 346.211 247.126 346.329C246.774 346.457 246.368 346.521 245.91 346.521ZM252.069 346.521C251.802 346.521 251.573 346.43 251.381 346.249C251.199 346.057 251.109 345.817 251.109 345.529C251.109 345.219 251.199 344.974 251.381 344.793C251.573 344.601 251.802 344.505 252.069 344.505C252.325 344.505 252.543 344.601 252.725 344.793C252.917 344.974 253.013 345.219 253.013 345.529C253.013 345.817 252.917 346.057 252.725 346.249C252.543 346.43 252.325 346.521 252.069 346.521Z" fill="#717171"/>
<path d="M400.75 55.3286V24.3286C400.75 11.0738 390.005 0.328613 376.75 0.328613H364.646H328.543H313.326H276.719H258.321H221.525H147.934H24.751C11.4961 0.328613 0.750977 11.0738 0.750977 24.3286V27.8286V55.3286H400.75Z" fill="#23B5AF"/>
<ellipse cx="31.25" cy="27.8287" rx="6.5" ry="6.58776" fill="#EC9D89"/>
<ellipse cx="54.013" cy="27.1729" rx="5.85288" ry="5.9319" fill="#EDBA4B"/>
<ellipse cx="77.4262" cy="27.1729" rx="5.85288" ry="5.9319" fill="#A9DED9"/>
<rect x="124.25" y="120.579" width="113.75" height="113.75" stroke="url(#paint0_linear)" stroke-width="4"/>
<rect x="122.25" y="84.04" width="34.5399" height="34.5399" rx="17.2699" fill="url(#paint1_linear)"/>
<rect x="202.75" y="81.3286" width="74.4997" height="74.4997" rx="35.8306" stroke="#88D2EE" stroke-width="4"/>
<rect x="202.75" y="81.3286" width="74.4997" height="74.4997" rx="35.8306" stroke="url(#paint2_linear)" stroke-width="4"/>
<path d="M348.625 199.279C348.365 198.498 349.109 197.754 349.89 198.015L365.979 203.377C366.926 203.693 366.877 205.048 365.911 205.295L358.516 207.184C358.162 207.275 357.885 207.551 357.795 207.905L355.906 215.3C355.659 216.266 354.304 216.315 353.988 215.368L348.625 199.279Z" fill="#EC9D89"/>
<rect x="362.977" y="212.347" width="60" height="32" rx="2" fill="#EC9D89"/>
<path d="M377.495 228.715L377.239 229.675H379.463L379.223 228.715C379.074 228.192 378.93 227.638 378.791 227.051C378.653 226.464 378.514 225.899 378.375 225.355H378.311C378.183 225.91 378.05 226.48 377.911 227.067C377.783 227.643 377.645 228.192 377.495 228.715ZM373.719 233.995L376.983 223.563H379.815L383.079 233.995H380.583L379.943 231.515H376.759L376.119 233.995H373.719ZM384.827 233.995V226.059H386.747L386.907 227.067H386.971C387.313 226.747 387.686 226.47 388.091 226.235C388.497 225.99 388.971 225.867 389.515 225.867C390.379 225.867 391.003 226.15 391.387 226.715C391.782 227.28 391.979 228.064 391.979 229.067V233.995H389.627V229.371C389.627 228.795 389.547 228.4 389.387 228.187C389.238 227.974 388.993 227.867 388.651 227.867C388.353 227.867 388.097 227.936 387.883 228.075C387.67 228.203 387.435 228.39 387.179 228.635V233.995H384.827ZM394.784 233.995V226.059H396.704L396.864 227.067H396.928C397.269 226.747 397.642 226.47 398.048 226.235C398.453 225.99 398.928 225.867 399.472 225.867C400.336 225.867 400.96 226.15 401.344 226.715C401.738 227.28 401.936 228.064 401.936 229.067V233.995H399.584V229.371C399.584 228.795 399.504 228.4 399.344 228.187C399.194 227.974 398.949 227.867 398.608 227.867C398.309 227.867 398.053 227.936 397.84 228.075C397.626 228.203 397.392 228.39 397.136 228.635V233.995H394.784ZM406.74 234.187C406.377 234.187 406.047 234.123 405.748 233.995C405.46 233.878 405.215 233.712 405.012 233.499C404.809 233.275 404.649 233.019 404.532 232.731C404.425 232.443 404.372 232.128 404.372 231.787C404.372 230.955 404.724 230.304 405.428 229.835C406.132 229.366 407.268 229.051 408.836 228.891C408.815 228.539 408.708 228.262 408.516 228.059C408.335 227.846 408.025 227.739 407.588 227.739C407.247 227.739 406.905 227.803 406.564 227.931C406.233 228.059 405.876 228.235 405.492 228.459L404.644 226.907C405.156 226.598 405.689 226.347 406.244 226.155C406.809 225.963 407.407 225.867 408.036 225.867C409.06 225.867 409.839 226.16 410.372 226.747C410.916 227.323 411.188 228.224 411.188 229.451V233.995H409.268L409.108 233.179H409.044C408.703 233.478 408.345 233.723 407.972 233.915C407.599 234.096 407.188 234.187 406.74 234.187ZM407.54 232.363C407.807 232.363 408.036 232.304 408.228 232.187C408.42 232.07 408.623 231.904 408.836 231.691V230.299C408.004 230.416 407.428 230.587 407.108 230.811C406.788 231.035 406.628 231.302 406.628 231.611C406.628 231.867 406.708 232.059 406.868 232.187C407.039 232.304 407.263 232.363 407.54 232.363Z" fill="white"/>
<path d="M304.723 88.6173C304.462 87.8356 305.206 87.0918 305.988 87.3524L322.077 92.7154C323.023 93.0309 322.975 94.386 322.008 94.633L314.614 96.522C314.26 96.6125 313.983 96.8891 313.893 97.2434L312.004 104.638C311.757 105.604 310.402 105.653 310.086 104.706L304.723 88.6173Z" fill="#FAE0A1"/>
<rect x="319.074" y="101.685" width="84" height="32" rx="2" fill="#FAE0A1"/>
<path d="M336.752 123.525C335.952 123.525 335.28 123.37 334.736 123.061C334.203 122.752 333.755 122.277 333.392 121.637L334.992 120.453C335.184 120.805 335.408 121.066 335.664 121.237C335.92 121.408 336.182 121.493 336.448 121.493C336.875 121.493 337.195 121.365 337.408 121.109C337.632 120.842 337.744 120.362 337.744 119.669V112.901H340.096V119.861C340.096 120.362 340.027 120.837 339.888 121.285C339.76 121.733 339.558 122.122 339.28 122.453C339.014 122.784 338.667 123.045 338.24 123.237C337.824 123.429 337.328 123.525 336.752 123.525ZM346.525 123.525C346.024 123.525 345.538 123.434 345.069 123.253C344.6 123.061 344.184 122.789 343.821 122.437C343.469 122.085 343.186 121.653 342.973 121.141C342.76 120.618 342.653 120.026 342.653 119.365C342.653 118.704 342.76 118.117 342.973 117.605C343.186 117.082 343.469 116.645 343.821 116.293C344.184 115.941 344.6 115.674 345.069 115.493C345.538 115.301 346.024 115.205 346.525 115.205C347.026 115.205 347.506 115.301 347.965 115.493C348.434 115.674 348.845 115.941 349.197 116.293C349.56 116.645 349.848 117.082 350.061 117.605C350.274 118.117 350.381 118.704 350.381 119.365C350.381 120.026 350.274 120.618 350.061 121.141C349.848 121.653 349.56 122.085 349.197 122.437C348.845 122.789 348.434 123.061 347.965 123.253C347.506 123.434 347.026 123.525 346.525 123.525ZM346.525 121.621C347.005 121.621 347.368 121.418 347.613 121.013C347.858 120.608 347.981 120.058 347.981 119.365C347.981 118.672 347.858 118.122 347.613 117.717C347.368 117.312 347.005 117.109 346.525 117.109C346.034 117.109 345.666 117.312 345.421 117.717C345.186 118.122 345.069 118.672 345.069 119.365C345.069 120.058 345.186 120.608 345.421 121.013C345.666 121.418 346.034 121.621 346.525 121.621ZM354.62 123.525C354.257 123.525 353.927 123.461 353.628 123.333C353.34 123.216 353.095 123.05 352.892 122.837C352.689 122.613 352.529 122.357 352.412 122.069C352.305 121.781 352.252 121.466 352.252 121.125C352.252 120.293 352.604 119.642 353.308 119.173C354.012 118.704 355.148 118.389 356.716 118.229C356.695 117.877 356.588 117.6 356.396 117.397C356.215 117.184 355.905 117.077 355.468 117.077C355.127 117.077 354.785 117.141 354.444 117.269C354.113 117.397 353.756 117.573 353.372 117.797L352.524 116.245C353.036 115.936 353.569 115.685 354.124 115.493C354.689 115.301 355.287 115.205 355.916 115.205C356.94 115.205 357.719 115.498 358.252 116.085C358.796 116.661 359.068 117.562 359.068 118.789V123.333H357.148L356.988 122.517H356.924C356.583 122.816 356.225 123.061 355.852 123.253C355.479 123.434 355.068 123.525 354.62 123.525ZM355.42 121.701C355.687 121.701 355.916 121.642 356.108 121.525C356.3 121.408 356.503 121.242 356.716 121.029V119.637C355.884 119.754 355.308 119.925 354.988 120.149C354.668 120.373 354.508 120.64 354.508 120.949C354.508 121.205 354.588 121.397 354.748 121.525C354.919 121.642 355.143 121.701 355.42 121.701ZM361.857 123.333V115.397H363.777L363.937 116.405H364.001C364.343 116.085 364.716 115.808 365.121 115.573C365.527 115.328 366.001 115.205 366.545 115.205C367.409 115.205 368.033 115.488 368.417 116.053C368.812 116.618 369.009 117.402 369.009 118.405V123.333H366.657V118.709C366.657 118.133 366.577 117.738 366.417 117.525C366.268 117.312 366.023 117.205 365.681 117.205C365.383 117.205 365.127 117.274 364.913 117.413C364.7 117.541 364.465 117.728 364.209 117.973V123.333H361.857ZM371.814 123.333V115.397H373.734L373.894 116.405H373.958C374.299 116.085 374.672 115.808 375.078 115.573C375.483 115.328 375.958 115.205 376.502 115.205C377.366 115.205 377.99 115.488 378.374 116.053C378.768 116.618 378.966 117.402 378.966 118.405V123.333H376.614V118.709C376.614 118.133 376.534 117.738 376.374 117.525C376.224 117.312 375.979 117.205 375.638 117.205C375.339 117.205 375.083 117.274 374.87 117.413C374.656 117.541 374.422 117.728 374.166 117.973V123.333H371.814ZM385.322 123.525C384.757 123.525 384.229 123.434 383.738 123.253C383.247 123.061 382.821 122.789 382.458 122.437C382.095 122.074 381.813 121.637 381.61 121.125C381.407 120.613 381.306 120.026 381.306 119.365C381.306 118.725 381.413 118.149 381.626 117.637C381.839 117.114 382.117 116.677 382.458 116.325C382.81 115.962 383.21 115.685 383.658 115.493C384.106 115.301 384.57 115.205 385.05 115.205C385.615 115.205 386.106 115.301 386.522 115.493C386.949 115.685 387.301 115.952 387.578 116.293C387.866 116.634 388.079 117.04 388.218 117.509C388.357 117.968 388.426 118.469 388.426 119.013C388.426 119.226 388.415 119.429 388.394 119.621C388.373 119.813 388.351 119.957 388.33 120.053H383.578C383.685 120.629 383.919 121.056 384.282 121.333C384.655 121.6 385.109 121.733 385.642 121.733C386.207 121.733 386.778 121.557 387.354 121.205L388.138 122.629C387.733 122.906 387.279 123.125 386.778 123.285C386.287 123.445 385.802 123.525 385.322 123.525ZM383.562 118.501H386.426C386.426 118.053 386.325 117.69 386.122 117.413C385.919 117.136 385.578 116.997 385.098 116.997C384.725 116.997 384.394 117.12 384.106 117.365C383.829 117.61 383.647 117.989 383.562 118.501Z" fill="white"/>
<path d="M223.282 141.927C223.021 141.145 223.765 140.401 224.547 140.662L240.636 146.025C241.582 146.34 241.534 147.696 240.567 147.943L233.173 149.832C232.818 149.922 232.542 150.199 232.451 150.553L230.562 157.947C230.315 158.914 228.96 158.962 228.645 158.016L223.282 141.927Z" fill="#8B3763"/>
<rect x="237.633" y="154.995" width="84" height="32" rx="2" fill="#8B3763"/>
<path d="M256.208 176.644L254.272 166.212H256.688L257.408 171.092C257.472 171.636 257.541 172.185 257.616 172.74C257.691 173.284 257.76 173.833 257.824 174.388H257.888C257.995 173.833 258.096 173.284 258.192 172.74C258.299 172.185 258.405 171.636 258.512 171.092L259.632 166.212H261.632L262.752 171.092C262.859 171.625 262.96 172.169 263.056 172.724C263.163 173.268 263.269 173.822 263.376 174.388H263.44C263.515 173.822 263.584 173.268 263.648 172.724C263.723 172.18 263.797 171.636 263.872 171.092L264.592 166.212H266.848L264.992 176.644H262.032L261.008 171.908C260.923 171.502 260.843 171.097 260.768 170.692C260.704 170.276 260.645 169.876 260.592 169.492H260.528C260.464 169.876 260.395 170.276 260.32 170.692C260.256 171.097 260.181 171.502 260.096 171.908L259.12 176.644H256.208ZM272.456 176.836C271.89 176.836 271.362 176.745 270.872 176.564C270.381 176.372 269.954 176.1 269.592 175.748C269.229 175.385 268.946 174.948 268.744 174.436C268.541 173.924 268.44 173.337 268.44 172.676C268.44 172.036 268.546 171.46 268.76 170.948C268.973 170.425 269.25 169.988 269.592 169.636C269.944 169.273 270.344 168.996 270.792 168.804C271.24 168.612 271.704 168.516 272.184 168.516C272.749 168.516 273.24 168.612 273.656 168.804C274.082 168.996 274.434 169.262 274.712 169.604C275 169.945 275.213 170.35 275.352 170.82C275.49 171.278 275.56 171.78 275.56 172.324C275.56 172.537 275.549 172.74 275.528 172.932C275.506 173.124 275.485 173.268 275.464 173.364H270.712C270.818 173.94 271.053 174.366 271.416 174.644C271.789 174.91 272.242 175.044 272.776 175.044C273.341 175.044 273.912 174.868 274.488 174.516L275.272 175.94C274.866 176.217 274.413 176.436 273.912 176.596C273.421 176.756 272.936 176.836 272.456 176.836ZM270.696 171.812H273.56C273.56 171.364 273.458 171.001 273.256 170.724C273.053 170.446 272.712 170.308 272.232 170.308C271.858 170.308 271.528 170.43 271.24 170.676C270.962 170.921 270.781 171.3 270.696 171.812ZM277.985 176.644V168.708H279.905L280.065 169.716H280.129C280.47 169.396 280.843 169.118 281.249 168.884C281.654 168.638 282.129 168.516 282.673 168.516C283.537 168.516 284.161 168.798 284.545 169.364C284.939 169.929 285.137 170.713 285.137 171.716V176.644H282.785V172.02C282.785 171.444 282.705 171.049 282.545 170.836C282.395 170.622 282.15 170.516 281.809 170.516C281.51 170.516 281.254 170.585 281.041 170.724C280.827 170.852 280.593 171.038 280.337 171.284V176.644H277.985ZM290.773 176.836C290.282 176.836 289.834 176.74 289.429 176.548C289.034 176.356 288.693 176.084 288.405 175.732C288.128 175.369 287.909 174.932 287.749 174.42C287.6 173.908 287.525 173.326 287.525 172.676C287.525 172.025 287.616 171.444 287.797 170.932C287.989 170.42 288.234 169.988 288.533 169.636C288.842 169.273 289.194 168.996 289.589 168.804C289.994 168.612 290.405 168.516 290.821 168.516C291.269 168.516 291.637 168.59 291.925 168.74C292.213 168.889 292.496 169.092 292.773 169.348L292.677 168.132V165.428H295.029V176.644H293.109L292.949 175.86H292.885C292.608 176.137 292.282 176.372 291.909 176.564C291.536 176.745 291.157 176.836 290.773 176.836ZM291.381 174.916C291.637 174.916 291.866 174.862 292.069 174.756C292.282 174.649 292.485 174.462 292.677 174.196V170.948C292.464 170.756 292.245 170.622 292.021 170.548C291.797 170.473 291.578 170.436 291.365 170.436C290.992 170.436 290.661 170.617 290.373 170.98C290.085 171.332 289.941 171.886 289.941 172.644C289.941 173.433 290.064 174.009 290.309 174.372C290.565 174.734 290.922 174.916 291.381 174.916ZM298.793 179.748C298.548 179.748 298.34 179.732 298.169 179.7C297.998 179.678 297.833 179.641 297.673 179.588L298.089 177.796C298.164 177.817 298.249 177.838 298.345 177.86C298.441 177.881 298.532 177.892 298.617 177.892C299.012 177.892 299.316 177.796 299.529 177.604C299.742 177.412 299.902 177.161 300.009 176.852L300.121 176.436L297.065 168.708H299.433L300.569 172.116C300.686 172.478 300.793 172.846 300.889 173.22C300.985 173.593 301.086 173.977 301.193 174.372H301.257C301.342 173.998 301.428 173.625 301.513 173.252C301.609 172.868 301.705 172.489 301.801 172.116L302.761 168.708H305.017L302.265 176.724C302.073 177.225 301.87 177.662 301.657 178.036C301.454 178.42 301.214 178.734 300.937 178.98C300.67 179.236 300.361 179.428 300.009 179.556C299.668 179.684 299.262 179.748 298.793 179.748Z" fill="white"/>
<path d="M41.8598 143.595C41.5992 142.813 42.3429 142.069 43.1247 142.33L59.2136 147.693C60.1602 148.008 60.1117 149.364 59.1449 149.61L51.7507 151.5C51.3965 151.59 51.1199 151.867 51.0294 152.221L49.1403 159.615C48.8934 160.582 47.5383 160.63 47.2228 159.684L41.8598 143.595Z" fill="#88D2EE"/>
<rect x="56.2109" y="156.662" width="82" height="32" rx="2" fill="#88D2EE"/>
<path d="M75.3694 178.503C74.6867 178.503 74.0041 178.38 73.3214 178.135C72.6494 177.879 72.0467 177.5 71.5134 176.999L72.8574 175.383C73.2307 175.703 73.6414 175.964 74.0894 176.167C74.5481 176.369 74.9961 176.471 75.4334 176.471C75.9241 176.471 76.2867 176.38 76.5214 176.199C76.7667 176.017 76.8894 175.772 76.8894 175.463C76.8894 175.303 76.8521 175.164 76.7774 175.047C76.7134 174.929 76.6121 174.828 76.4734 174.743C76.3454 174.647 76.1854 174.561 75.9934 174.487C75.8121 174.401 75.6094 174.311 75.3854 174.215L74.0254 173.639C73.7587 173.532 73.4974 173.393 73.2414 173.223C72.9961 173.052 72.7721 172.855 72.5694 172.631C72.3774 172.396 72.2227 172.129 72.1054 171.831C71.9881 171.521 71.9294 171.175 71.9294 170.791C71.9294 170.364 72.0201 169.964 72.2014 169.591C72.3827 169.207 72.6387 168.876 72.9694 168.599C73.3001 168.311 73.6894 168.087 74.1374 167.927C74.5961 167.767 75.0974 167.687 75.6414 167.687C76.2494 167.687 76.8467 167.804 77.4334 168.039C78.0307 168.273 78.5534 168.615 79.0014 169.063L77.8014 170.551C77.4601 170.284 77.1187 170.081 76.7774 169.943C76.4361 169.793 76.0574 169.719 75.6414 169.719C75.2361 169.719 74.9107 169.804 74.6654 169.975C74.4307 170.135 74.3134 170.364 74.3134 170.663C74.3134 170.823 74.3507 170.961 74.4254 171.079C74.5107 171.185 74.6227 171.287 74.7614 171.383C74.9107 171.468 75.0814 171.553 75.2734 171.639C75.4654 171.713 75.6734 171.799 75.8974 171.895L77.2414 172.439C77.8814 172.695 78.3827 173.047 78.7454 173.495C79.1187 173.943 79.3054 174.535 79.3054 175.271C79.3054 175.708 79.2147 176.124 79.0334 176.519C78.8627 176.903 78.6067 177.244 78.2654 177.543C77.9347 177.831 77.5241 178.065 77.0334 178.247C76.5427 178.417 75.9881 178.503 75.3694 178.503ZM83.684 178.503C83.3213 178.503 82.9907 178.439 82.692 178.311C82.404 178.193 82.1587 178.028 81.956 177.815C81.7533 177.591 81.5933 177.335 81.476 177.047C81.3693 176.759 81.316 176.444 81.316 176.103C81.316 175.271 81.668 174.62 82.372 174.151C83.076 173.681 84.212 173.367 85.78 173.207C85.7587 172.855 85.652 172.577 85.46 172.375C85.2787 172.161 84.9693 172.055 84.532 172.055C84.1907 172.055 83.8493 172.119 83.508 172.247C83.1773 172.375 82.82 172.551 82.436 172.775L81.588 171.223C82.1 170.913 82.6333 170.663 83.188 170.471C83.7533 170.279 84.3507 170.183 84.98 170.183C86.004 170.183 86.7827 170.476 87.316 171.063C87.86 171.639 88.132 172.54 88.132 173.767V178.311H86.212L86.052 177.495H85.988C85.6467 177.793 85.2893 178.039 84.916 178.231C84.5427 178.412 84.132 178.503 83.684 178.503ZM84.484 176.679C84.7507 176.679 84.98 176.62 85.172 176.503C85.364 176.385 85.5667 176.22 85.78 176.007V174.615C84.948 174.732 84.372 174.903 84.052 175.127C83.732 175.351 83.572 175.617 83.572 175.927C83.572 176.183 83.652 176.375 83.812 176.503C83.9827 176.62 84.2067 176.679 84.484 176.679ZM95.0815 178.503C94.7295 178.503 94.3722 178.417 94.0095 178.247C93.6575 178.065 93.3268 177.804 93.0175 177.463H92.9535L92.7615 178.311H90.9215V167.095H93.2735V169.847L93.2095 171.063C93.5188 170.785 93.8495 170.572 94.2015 170.423C94.5642 170.263 94.9322 170.183 95.3055 170.183C95.7855 170.183 96.2175 170.279 96.6015 170.471C96.9855 170.663 97.3108 170.935 97.5775 171.287C97.8548 171.628 98.0628 172.049 98.2015 172.551C98.3508 173.041 98.4255 173.591 98.4255 174.199C98.4255 174.881 98.3295 175.489 98.1375 176.023C97.9562 176.556 97.7055 177.009 97.3855 177.383C97.0762 177.745 96.7188 178.023 96.3135 178.215C95.9188 178.407 95.5082 178.503 95.0815 178.503ZM94.5375 176.583C94.9428 176.583 95.2895 176.401 95.5775 176.039C95.8655 175.665 96.0095 175.068 96.0095 174.247C96.0095 172.817 95.5508 172.103 94.6335 172.103C94.1642 172.103 93.7108 172.343 93.2735 172.823V176.071C93.4868 176.263 93.7002 176.396 93.9135 176.471C94.1268 176.545 94.3348 176.583 94.5375 176.583ZM100.893 178.311V170.375H103.245V178.311H100.893ZM102.061 169.207C101.667 169.207 101.341 169.095 101.085 168.871C100.829 168.636 100.701 168.337 100.701 167.975C100.701 167.612 100.829 167.319 101.085 167.095C101.341 166.871 101.667 166.759 102.061 166.759C102.467 166.759 102.792 166.871 103.037 167.095C103.293 167.319 103.421 167.612 103.421 167.975C103.421 168.337 103.293 168.636 103.037 168.871C102.792 169.095 102.467 169.207 102.061 169.207ZM108.115 178.503C107.753 178.503 107.422 178.439 107.123 178.311C106.835 178.193 106.59 178.028 106.387 177.815C106.185 177.591 106.025 177.335 105.907 177.047C105.801 176.759 105.747 176.444 105.747 176.103C105.747 175.271 106.099 174.62 106.803 174.151C107.507 173.681 108.643 173.367 110.211 173.207C110.19 172.855 110.083 172.577 109.891 172.375C109.71 172.161 109.401 172.055 108.963 172.055C108.622 172.055 108.281 172.119 107.939 172.247C107.609 172.375 107.251 172.551 106.867 172.775L106.019 171.223C106.531 170.913 107.065 170.663 107.619 170.471C108.185 170.279 108.782 170.183 109.411 170.183C110.435 170.183 111.214 170.476 111.747 171.063C112.291 171.639 112.563 172.54 112.563 173.767V178.311H110.643L110.483 177.495H110.419C110.078 177.793 109.721 178.039 109.347 178.231C108.974 178.412 108.563 178.503 108.115 178.503ZM108.915 176.679C109.182 176.679 109.411 176.62 109.603 176.503C109.795 176.385 109.998 176.22 110.211 176.007V174.615C109.379 174.732 108.803 174.903 108.483 175.127C108.163 175.351 108.003 175.617 108.003 175.927C108.003 176.183 108.083 176.375 108.243 176.503C108.414 176.62 108.638 176.679 108.915 176.679ZM115.353 178.311V170.375H117.273L117.433 171.383H117.497C117.838 171.063 118.211 170.785 118.617 170.551C119.022 170.305 119.497 170.183 120.041 170.183C120.905 170.183 121.529 170.465 121.913 171.031C122.307 171.596 122.505 172.38 122.505 173.383V178.311H120.153V173.687C120.153 173.111 120.073 172.716 119.913 172.503C119.763 172.289 119.518 172.183 119.177 172.183C118.878 172.183 118.622 172.252 118.409 172.391C118.195 172.519 117.961 172.705 117.705 172.951V178.311H115.353Z" fill="white"/>
<defs>
<linearGradient id="paint0_linear" x1="181.125" y1="32.4656" x2="181.125" y2="236.329" gradientUnits="userSpaceOnUse">
<stop stop-color="#E0502C"/>
<stop offset="1" stop-color="#EC9D89"/>
</linearGradient>
<linearGradient id="paint1_linear" x1="139.52" y1="84.04" x2="139.52" y2="118.58" gradientUnits="userSpaceOnUse">
<stop stop-color="#E88971"/>
<stop offset="0.7519" stop-color="#EC9782"/>
<stop offset="1" stop-color="#F6BAAA"/>
</linearGradient>
<linearGradient id="paint2_linear" x1="277.283" y1="101.756" x2="240" y2="157.828" gradientUnits="userSpaceOnUse">
<stop stop-color="#BDE1EF"/>
<stop offset="1" stop-color="white" stop-opacity="0"/>
</linearGradient>
</defs>
</svg>
