<svg width="116" height="30" viewBox="0 0 116 30" fill="none" xmlns="http://www.w3.org/2000/svg">
<path d="M1.0968 29.5584H91.6266H115.109C115.109 29.5584 115.109 25.649 112.557 20.5497C111.097 17.6337 106.664 10.9082 103.964 9.0765C101.403 7.33962 94.7126 4.93283 91.6266 5.16709C87.4048 5.48758 82.1824 9.0765 82.1824 9.0765C82.1824 9.0765 75.6763 15.4153 71.8875 14.2607C68.8636 13.3392 62.8284 9.1019 62.8284 9.1019C62.8284 9.1019 55.1935 0.837159 50.748 0.269283C45.1211 -0.449518 41.1598 2.29922 41.1598 2.29922C41.1598 2.29922 38.7602 3.15103 33.0898 8.22663C27.4194 13.3022 28.5812 12.4915 25.0901 14.2607C18.3441 17.6794 10.1093 14.2 5.86339 16.6117C-0.357323 20.145 1.0968 29.5584 1.0968 29.5584Z" fill="url(#paint0_linear)"/>
<defs>
<linearGradient id="paint0_linear" x1="55.5517" y1="-12.3911" x2="55.5517" y2="29.5584" gradientUnits="userSpaceOnUse">
<stop stop-color="#23B5AF"/>
<stop offset="1" stop-color="white" stop-opacity="0"/>
</linearGradient>
</defs>
</svg>
