<svg width="268" height="85" viewBox="0 0 268 85" fill="none" xmlns="http://www.w3.org/2000/svg">
<path d="M266.791 84.1235H9.47321H-57.2734C-57.2734 84.1235 -57.2734 73.0116 -50.0184 58.5178C-45.8696 50.2295 -33.2674 31.113 -25.593 25.9067C-18.3158 20.9699 0.701649 14.1289 9.47321 14.7948C21.4729 15.7057 36.3169 25.9067 36.3169 25.9067C36.3169 25.9067 54.8096 43.9239 65.5788 40.6421C74.1737 38.0229 91.328 25.9789 91.328 25.9789C91.328 25.9789 113.029 2.48753 125.665 0.873426C141.659 -1.16967 152.918 6.64325 152.918 6.64325C152.918 6.64325 159.738 9.06439 175.856 23.4911C191.973 37.9178 188.671 35.6132 198.594 40.6421C217.768 50.3594 241.175 40.4695 253.243 47.3243C270.925 57.3674 266.791 84.1235 266.791 84.1235Z" fill="url(#paint0_linear)"/>
<defs>
<linearGradient id="paint0_linear" x1="112.011" y1="-35.112" x2="112.011" y2="84.1236" gradientUnits="userSpaceOnUse">
<stop stop-color="#23B5AF"/>
<stop offset="1" stop-color="white" stop-opacity="0"/>
</linearGradient>
</defs>
</svg>
