<svg width="219" height="386" viewBox="0 0 219 386" fill="none" xmlns="http://www.w3.org/2000/svg">
<path d="M101.715 134.614V122.637L116.703 118.666C116.984 125.417 120.101 127.456 121.625 127.632C118.461 138.179 107.502 137.15 101.715 134.614Z" fill="#88D2EE" stroke="#88D2EE" stroke-width="2" stroke-linecap="round" stroke-linejoin="round"/>
<path d="M141.792 84.7634C141.792 109.975 127.458 124.504 102.246 124.504C77.0345 124.504 61.9375 109.975 61.9375 84.7634C61.9375 59.5515 77.0345 39.1133 102.246 39.1133C127.458 39.1133 141.792 59.5515 141.792 84.7634Z" fill="url(#paint0_linear)"/>
<circle cx="89.1949" cy="82.3004" r="2.98789" fill="#23B5AF"/>
<circle cx="125.906" cy="79.3131" r="2.98789" fill="#23B5AF"/>
<path d="M112.722 91.5074C114.562 91.0474 116.524 91.4388 118.374 90.9247C119.235 90.6857 117.919 89.5367 117.704 89.1474C114.689 83.691 112.075 77.9876 110.754 71.9473" stroke="#23B5AF" stroke-width="4" stroke-linecap="round" stroke-linejoin="round"/>
<path d="M95.6797 104.356C97.5779 106.676 99.4753 108.414 102.614 108.537C105.113 108.635 106.971 108.698 109.053 107.241" stroke="#23B5AF" stroke-width="4" stroke-linecap="round" stroke-linejoin="round"/>
<path d="M65.3892 69.4153H65.5407C71.315 69.9219 81.9003 68.0566 78.0478 56.5427C83.5544 59.631 94.8341 63.1579 95.8999 52.5589C99.2668 56.0284 107.604 60.8858 114.018 52.5589C115.884 54.4369 120.573 57.0662 124.41 52.5589C124.021 57.2618 125.821 66.0815 136.134 63.7368C134.98 68.7614 135.551 77.8712 147.06 74.1131C150.253 71.9843 154.379 69.79 155.872 66.0072C157.513 61.8485 155.066 56.0047 153.047 52.5589C151.969 50.7179 149.65 48.9565 149.025 46.9247C148.934 46.6298 148.947 46.1249 149.117 45.8654C150.744 43.3773 153.415 42.5188 154.306 39.3101C156.069 32.9644 147.382 32.11 143.084 32.11C142.2 32.11 137.27 32.8337 137.787 31.3117C138.326 29.7261 138.563 28.2449 138.432 26.5526C137.764 17.9317 128.725 17.5641 122.036 18.2011C117.833 18.6014 114.199 19.5879 110.461 21.5171C110.34 21.5796 108.508 22.6383 108.388 21.9777C108.106 20.4233 108.491 18.7362 108.311 17.1572C107.871 13.2934 106.428 9.36609 104.197 6.19584C100.935 1.56079 96.3099 0.286755 90.7794 0.515603C84.2389 0.786244 78.7254 1.52261 73.2321 5.19796C68.5442 8.33447 64.9188 13.3538 64.3433 19.0915C63.7342 25.1642 64.4946 31.8946 66.1088 37.7749C66.7931 40.268 68.0321 42.1738 69.5016 44.2381C69.8301 44.6997 69.9146 44.9844 69.4094 44.5451C66.0903 41.6589 61.1058 40.1787 56.9436 42.1502C51.016 44.9581 47.1473 52.0695 47.3179 58.4694C47.4226 62.3957 49.6405 65.7859 53.1517 67.481C57.1596 69.4159 61.075 69.4156 65.3892 69.4153Z" fill="url(#paint1_linear)"/>
<path d="M142.022 290.105L121.488 229.873L162.898 221.659L167.992 267.518C175.353 275.731 201.886 274.134 214.233 272.309C214.233 278.606 216.971 295.238 218.34 302.768L173.85 307.901C154.411 311.186 144.532 297.406 142.022 290.105Z" fill="url(#paint2_linear)"/>
<path d="M9.66107 343.681C19.4079 339.25 32.6741 349.465 38.0888 355.126C43.4978 357.362 57.638 365.096 64.0319 368.683L53.2106 385.276C24.5462 380.274 6.15794 361.229 0.546875 352.331C2.85542 347.522 7.5849 344.56 9.66107 343.681Z" fill="url(#paint3_linear)"/>
<path d="M29.9922 348.534L93.2432 224.308L130.167 228.448L77.025 371.654C55.7684 369.17 36.8129 355.206 29.9922 348.534Z" fill="url(#paint4_linear)"/>
<path d="M83.3867 234.248C87.3583 219.397 89.7902 179.422 90.5098 161.291V133.35L102.02 133.93C114.935 140.288 120.979 132.274 122.386 127.472L127.077 120.253C131.403 113.804 136.392 113.283 138.428 113.804L143.992 138.411C150.343 173.292 162.638 212.663 167.992 227.988C141.049 243.356 100.362 238.565 83.3867 234.248Z" fill="url(#paint5_linear)"/>
<path d="M134.974 113.879C131.774 114.828 129.972 116.748 127.578 119.498L138.188 136.316C142.334 141.89 159.784 151.264 167.991 155.254V131.49C166.869 130.469 161.383 127.86 158.78 126.684C154.546 124.566 149.809 122.942 146.434 119.498C143.86 116.871 142.554 112.697 134.974 113.879Z" fill="url(#paint6_linear)"/>
<defs>
<linearGradient id="paint0_linear" x1="75.4941" y1="46.5039" x2="117.494" y2="117.504" gradientUnits="userSpaceOnUse">
<stop stop-color="#88D2EE"/>
<stop offset="0.223958" stop-color="#8CD3EE"/>
<stop offset="1" stop-color="#CAE8F4"/>
</linearGradient>
<linearGradient id="paint1_linear" x1="101.862" y1="0.490234" x2="101.862" y2="74.9986" gradientUnits="userSpaceOnUse">
<stop stop-color="#E88971"/>
<stop offset="0.7519" stop-color="#EC9782"/>
<stop offset="1" stop-color="#F6BAAA"/>
</linearGradient>
<linearGradient id="paint2_linear" x1="169.914" y1="221.659" x2="169.914" y2="308.399" gradientUnits="userSpaceOnUse">
<stop offset="0.348958" stop-color="#23B5AF"/>
<stop offset="1" stop-color="#A9DED9"/>
</linearGradient>
<linearGradient id="paint3_linear" x1="63.9922" y1="392.004" x2="-19.5078" y2="328.504" gradientUnits="userSpaceOnUse">
<stop stop-color="#88D2EE"/>
<stop offset="1" stop-color="#CFEAF4"/>
</linearGradient>
<linearGradient id="paint4_linear" x1="118.492" y1="248.004" x2="5.99219" y2="386.504" gradientUnits="userSpaceOnUse">
<stop offset="0.322917" stop-color="#23B5AF"/>
<stop offset="1" stop-color="#A9DED9"/>
</linearGradient>
<linearGradient id="paint5_linear" x1="109.992" y1="113.504" x2="210.908" y2="196.926" gradientUnits="userSpaceOnUse">
<stop offset="0.1028" stop-color="#23B5AF"/>
<stop offset="0.609375" stop-color="#49D7D1"/>
</linearGradient>
<linearGradient id="paint6_linear" x1="132.99" y1="116.504" x2="166.49" y2="147.504" gradientUnits="userSpaceOnUse">
<stop offset="0.119792" stop-color="#2CBCB7"/>
<stop offset="0.515375" stop-color="#34C4BE"/>
<stop offset="0.992449" stop-color="#34C4BE"/>
</linearGradient>
</defs>
</svg>
