<svg width="279" height="116" viewBox="0 0 279 116" fill="none" xmlns="http://www.w3.org/2000/svg">
<ellipse cx="96.9062" cy="32.1475" rx="33" ry="32" fill="url(#paint0_linear)" fill-opacity="0.9"/>
<path d="M0.745544 115.533H295.869H372.422C372.422 115.533 372.422 102.789 364.101 86.1653C359.343 76.6593 344.889 54.7343 336.087 48.7631C327.741 43.1009 305.929 35.2549 295.869 36.0186C282.106 37.0633 265.081 48.7631 265.081 48.7631C265.081 48.7631 243.872 69.4273 231.52 65.6634C221.663 62.6594 201.988 48.8459 201.988 48.8459C201.988 48.8459 177.098 21.9032 162.606 20.0519C144.263 17.7086 131.349 26.6694 131.349 26.6694C131.349 26.6694 123.527 29.4463 105.041 45.9925C86.556 62.5388 90.3436 59.8957 78.9626 65.6634C56.9711 76.8083 30.1258 65.4654 16.2844 73.3274C-3.99484 84.846 0.745544 115.533 0.745544 115.533Z" fill="url(#paint1_linear)"/>
<defs>
<linearGradient id="paint0_linear" x1="96.9062" y1="0.147461" x2="96.9062" y2="64.1475" gradientUnits="userSpaceOnUse">
<stop stop-color="#FFE3A6"/>
<stop offset="1" stop-color="#FFC2B3"/>
</linearGradient>
<linearGradient id="paint1_linear" x1="178.266" y1="-21.2205" x2="178.266" y2="115.533" gradientUnits="userSpaceOnUse">
<stop stop-color="#23B5AF"/>
<stop offset="1" stop-color="white" stop-opacity="0"/>
</linearGradient>
</defs>
</svg>
