<svg xmlns="http://www.w3.org/2000/svg" viewBox="0 0 133 324"><g style="fill:none;stroke-linejoin:round;stroke-width:5.4;stroke:#23b5af"><polygon fill="#FFF" points="76.14 196 100.63 181.02 50.63 150 50.63 179.95"/><polygon fill="#FFF" points="76.14 223.5 25.12 255.12 25.12 0 .63 15.26 .63 302 100.63 240.95 100.63 180.98 76.14 196.25"/><polygon fill="#23B5AF" points=".79 302.86 25.83 318 124.63 256.48 99.43 240 .63 301.52"/><polygon fill="#23B5AF" points="126.42 166.67 51.83 119.83 51.83 49.74 101.22 83.04 101.22 111.18 126.63 128.86 126.42 63.18 26.63 0 26.63 254.03 51.83 237.14 51.83 149.24 101.22 180.83 101.22 239.66 126.42 256"/><polygon fill="#FFF" points="82.63 123.7 82.63 94.59 98.63 80 98.63 114.78"/><polygon fill="#FFF" points="48.63 72.88 48.63 46 100.63 78.25 83.63 94"/><polygon fill="#23B5AF" points="126.6 130.19 111.17 139.74 84.03 123.08 98.64 114"/></g></svg>