<svg width="249" height="64" viewBox="0 0 249 64" fill="none" xmlns="http://www.w3.org/2000/svg">
<path d="M1.13982 63.912H197.288H248.168C248.168 63.912 248.168 55.4416 242.638 44.3932C239.475 38.0752 229.869 23.5031 224.019 19.5345C218.471 15.7712 203.975 10.5565 197.288 11.0641C188.141 11.7584 176.826 19.5345 176.826 19.5345C176.826 19.5345 162.729 33.2686 154.52 30.767C147.968 28.7704 134.892 19.5895 134.892 19.5895C134.892 19.5895 118.35 1.6825 108.718 0.4521C96.5261 -1.10531 87.9432 4.85032 87.9432 4.85032C87.9432 4.85032 82.7442 6.69591 70.4582 17.6931C58.1722 28.6903 60.6896 26.9336 53.1254 30.767C38.5091 38.1743 20.6669 30.6354 11.4675 35.8607C-2.0108 43.5164 1.13982 63.912 1.13982 63.912Z" fill="url(#paint0_linear)"/>
<defs>
<linearGradient id="paint0_linear" x1="119.126" y1="-26.9789" x2="119.126" y2="63.9121" gradientUnits="userSpaceOnUse">
<stop stop-color="#23B5AF"/>
<stop offset="1" stop-color="white" stop-opacity="0"/>
</linearGradient>
</defs>
</svg>
