<svg width="249" height="65" viewBox="0 0 249 65" fill="none" xmlns="http://www.w3.org/2000/svg">
<path d="M247.983 64.2606H51.8347H0.955078C0.955078 64.2606 0.955078 55.7902 6.48546 44.7419C9.64802 38.4238 19.2544 23.8518 25.1045 19.8831C30.6517 16.1199 45.1483 10.9051 51.8347 11.4127C60.9818 12.1071 72.2971 19.8831 72.2971 19.8831C72.2971 19.8831 86.3937 33.6172 94.6029 31.1156C101.155 29.119 114.231 19.9381 114.231 19.9381C114.231 19.9381 130.773 2.03113 140.405 0.800733C152.597 -0.756676 161.18 5.19895 161.18 5.19895C161.18 5.19895 166.379 7.04454 178.665 18.0417C190.951 29.0389 188.433 27.2822 195.998 31.1156C210.614 38.5229 228.456 30.984 237.656 36.2093C251.134 43.865 247.983 64.2606 247.983 64.2606Z" fill="url(#paint0_linear)"/>
<defs>
<linearGradient id="paint0_linear" x1="129.997" y1="-26.6302" x2="129.997" y2="64.2607" gradientUnits="userSpaceOnUse">
<stop stop-color="#23B5AF"/>
<stop offset="1" stop-color="white" stop-opacity="0"/>
</linearGradient>
</defs>
</svg>
