<svg xmlns="http://www.w3.org/2000/svg" width="456" height="432" fill="none" viewBox="0 0 456 432"><rect width="392" height="392" x="47" y="36" fill="#FCFFFF" stroke="#A9DED9" stroke-width="8" rx="20"/><path fill="#717171" d="M147.139 277V260.048H150.961V273.776H157.669V277H147.139ZM161.584 277V264.104H165.406V277H161.584ZM163.482 262.206C162.841 262.206 162.312 262.024 161.896 261.66C161.48 261.279 161.272 260.793 161.272 260.204C161.272 259.615 161.48 259.138 161.896 258.774C162.312 258.41 162.841 258.228 163.482 258.228C164.141 258.228 164.669 258.41 165.068 258.774C165.484 259.138 165.692 259.615 165.692 260.204C165.692 260.793 165.484 261.279 165.068 261.66C164.669 262.024 164.141 262.206 163.482 262.206ZM173.033 277L168.691 264.104H172.539L174.203 270.188C174.377 270.829 174.541 271.488 174.697 272.164C174.871 272.823 175.044 273.49 175.217 274.166H175.321C175.477 273.49 175.633 272.823 175.789 272.164C175.963 271.488 176.136 270.829 176.309 270.188L177.999 264.104H181.665L177.453 277H173.033ZM190.548 277.312C189.629 277.312 188.771 277.165 187.974 276.87C187.176 276.558 186.483 276.116 185.894 275.544C185.304 274.955 184.845 274.244 184.516 273.412C184.186 272.58 184.022 271.627 184.022 270.552C184.022 269.512 184.195 268.576 184.542 267.744C184.888 266.895 185.339 266.184 185.894 265.612C186.466 265.023 187.116 264.572 187.844 264.26C188.572 263.948 189.326 263.792 190.106 263.792C191.024 263.792 191.822 263.948 192.498 264.26C193.191 264.572 193.763 265.005 194.214 265.56C194.682 266.115 195.028 266.773 195.254 267.536C195.479 268.281 195.592 269.096 195.592 269.98C195.592 270.327 195.574 270.656 195.54 270.968C195.505 271.28 195.47 271.514 195.436 271.67H187.714C187.887 272.606 188.268 273.299 188.858 273.75C189.464 274.183 190.201 274.4 191.068 274.4C191.986 274.4 192.914 274.114 193.85 273.542L195.124 275.856C194.465 276.307 193.728 276.662 192.914 276.922C192.116 277.182 191.328 277.312 190.548 277.312ZM187.688 269.148H192.342C192.342 268.42 192.177 267.831 191.848 267.38C191.518 266.929 190.964 266.704 190.184 266.704C189.577 266.704 189.04 266.903 188.572 267.302C188.121 267.701 187.826 268.316 187.688 269.148ZM208.196 277L204.972 264.104H208.768L210.016 270.084C210.12 270.725 210.215 271.358 210.302 271.982C210.389 272.606 210.484 273.247 210.588 273.906H210.692C210.813 273.247 210.926 272.597 211.03 271.956C211.151 271.315 211.29 270.691 211.446 270.084L212.876 264.104H216.178L217.634 270.084C217.79 270.725 217.929 271.358 218.05 271.982C218.171 272.606 218.301 273.247 218.44 273.906H218.544C218.665 273.247 218.761 272.606 218.83 271.982C218.917 271.358 219.021 270.725 219.142 270.084L220.364 264.104H223.9L220.806 277H216.334L215.164 271.852C215.025 271.245 214.904 270.639 214.8 270.032C214.696 269.425 214.583 268.775 214.462 268.082H214.358C214.237 268.775 214.124 269.425 214.02 270.032C213.933 270.639 213.829 271.245 213.708 271.852L212.564 277H208.196ZM232.858 277.312C232.044 277.312 231.255 277.165 230.492 276.87C229.73 276.558 229.054 276.116 228.464 275.544C227.892 274.972 227.433 274.27 227.086 273.438C226.74 272.589 226.566 271.627 226.566 270.552C226.566 269.477 226.74 268.524 227.086 267.692C227.433 266.843 227.892 266.132 228.464 265.56C229.054 264.988 229.73 264.555 230.492 264.26C231.255 263.948 232.044 263.792 232.858 263.792C233.673 263.792 234.453 263.948 235.198 264.26C235.961 264.555 236.628 264.988 237.2 265.56C237.79 266.132 238.258 266.843 238.604 267.692C238.951 268.524 239.124 269.477 239.124 270.552C239.124 271.627 238.951 272.589 238.604 273.438C238.258 274.27 237.79 274.972 237.2 275.544C236.628 276.116 235.961 276.558 235.198 276.87C234.453 277.165 233.673 277.312 232.858 277.312ZM232.858 274.218C233.638 274.218 234.228 273.889 234.626 273.23C235.025 272.571 235.224 271.679 235.224 270.552C235.224 269.425 235.025 268.533 234.626 267.874C234.228 267.215 233.638 266.886 232.858 266.886C232.061 266.886 231.463 267.215 231.064 267.874C230.683 268.533 230.492 269.425 230.492 270.552C230.492 271.679 230.683 272.571 231.064 273.23C231.463 273.889 232.061 274.218 232.858 274.218ZM243.042 277V264.104H246.162L246.422 266.366H246.526C246.994 265.482 247.557 264.832 248.216 264.416C248.875 264 249.533 263.792 250.192 263.792C250.556 263.792 250.851 263.818 251.076 263.87C251.319 263.905 251.535 263.965 251.726 264.052L251.102 267.354C250.859 267.285 250.634 267.233 250.426 267.198C250.218 267.163 249.975 267.146 249.698 267.146C249.213 267.146 248.701 267.319 248.164 267.666C247.644 268.013 247.211 268.628 246.864 269.512V277H243.042ZM254.702 277V258.774H258.42V269.226H258.524L262.606 264.104H266.766L262.242 269.408L267.104 277H262.97L260.058 271.982L258.42 273.828V277H254.702ZM274.042 277.312C273.192 277.312 272.317 277.147 271.416 276.818C270.532 276.489 269.76 276.055 269.102 275.518L270.818 273.126C271.407 273.577 271.97 273.915 272.508 274.14C273.045 274.365 273.591 274.478 274.146 274.478C274.718 274.478 275.134 274.383 275.394 274.192C275.654 274.001 275.784 273.733 275.784 273.386C275.784 273.178 275.706 272.996 275.55 272.84C275.411 272.667 275.212 272.511 274.952 272.372C274.709 272.233 274.432 272.112 274.12 272.008C273.808 271.887 273.487 271.757 273.158 271.618C272.759 271.462 272.36 271.28 271.962 271.072C271.563 270.864 271.199 270.613 270.87 270.318C270.54 270.006 270.272 269.651 270.064 269.252C269.856 268.836 269.752 268.359 269.752 267.822C269.752 267.233 269.864 266.687 270.09 266.184C270.332 265.681 270.67 265.257 271.104 264.91C271.537 264.563 272.057 264.295 272.664 264.104C273.27 263.896 273.946 263.792 274.692 263.792C275.68 263.792 276.546 263.965 277.292 264.312C278.037 264.641 278.687 265.014 279.242 265.43L277.526 267.718C277.058 267.371 276.598 267.103 276.148 266.912C275.697 266.721 275.246 266.626 274.796 266.626C273.825 266.626 273.34 266.964 273.34 267.64C273.34 267.848 273.409 268.03 273.548 268.186C273.686 268.325 273.868 268.455 274.094 268.576C274.336 268.697 274.605 268.819 274.9 268.94C275.212 269.044 275.532 269.157 275.862 269.278C276.278 269.434 276.685 269.616 277.084 269.824C277.5 270.015 277.872 270.257 278.202 270.552C278.548 270.847 278.826 271.211 279.034 271.644C279.242 272.06 279.346 272.563 279.346 273.152C279.346 273.741 279.233 274.287 279.008 274.79C278.782 275.293 278.444 275.735 277.994 276.116C277.543 276.48 276.988 276.775 276.33 277C275.671 277.208 274.908 277.312 274.042 277.312ZM283.073 277V258.774H286.895V263.246L286.713 265.56C287.198 265.127 287.762 264.728 288.403 264.364C289.044 263.983 289.807 263.792 290.691 263.792C292.095 263.792 293.109 264.251 293.733 265.17C294.374 266.089 294.695 267.363 294.695 268.992V277H290.873V269.486C290.873 268.55 290.743 267.909 290.483 267.562C290.24 267.215 289.842 267.042 289.287 267.042C288.802 267.042 288.386 267.155 288.039 267.38C287.692 267.588 287.311 267.891 286.895 268.29V277H283.073ZM304.765 277.312C303.95 277.312 303.161 277.165 302.399 276.87C301.636 276.558 300.96 276.116 300.371 275.544C299.799 274.972 299.339 274.27 298.993 273.438C298.646 272.589 298.473 271.627 298.473 270.552C298.473 269.477 298.646 268.524 298.993 267.692C299.339 266.843 299.799 266.132 300.371 265.56C300.96 264.988 301.636 264.555 302.399 264.26C303.161 263.948 303.95 263.792 304.765 263.792C305.579 263.792 306.359 263.948 307.105 264.26C307.867 264.555 308.535 264.988 309.107 265.56C309.696 266.132 310.164 266.843 310.511 267.692C310.857 268.524 311.031 269.477 311.031 270.552C311.031 271.627 310.857 272.589 310.511 273.438C310.164 274.27 309.696 274.972 309.107 275.544C308.535 276.116 307.867 276.558 307.105 276.87C306.359 277.165 305.579 277.312 304.765 277.312ZM304.765 274.218C305.545 274.218 306.134 273.889 306.533 273.23C306.931 272.571 307.131 271.679 307.131 270.552C307.131 269.425 306.931 268.533 306.533 267.874C306.134 267.215 305.545 266.886 304.765 266.886C303.967 266.886 303.369 267.215 302.971 267.874C302.589 268.533 302.399 269.425 302.399 270.552C302.399 271.679 302.589 272.571 302.971 273.23C303.369 273.889 303.967 274.218 304.765 274.218ZM314.948 281.784V264.104H318.068L318.328 265.378H318.432C318.935 264.927 319.498 264.555 320.122 264.26C320.764 263.948 321.422 263.792 322.098 263.792C322.878 263.792 323.58 263.948 324.204 264.26C324.828 264.572 325.357 265.014 325.79 265.586C326.224 266.158 326.553 266.851 326.778 267.666C327.021 268.463 327.142 269.356 327.142 270.344C327.142 271.453 326.986 272.441 326.674 273.308C326.38 274.157 325.972 274.885 325.452 275.492C324.95 276.081 324.369 276.532 323.71 276.844C323.069 277.156 322.402 277.312 321.708 277.312C321.154 277.312 320.616 277.199 320.096 276.974C319.576 276.731 319.091 276.393 318.64 275.96L318.77 278.014V281.784H314.948ZM320.824 274.192C321.483 274.192 322.046 273.897 322.514 273.308C322.982 272.701 323.216 271.731 323.216 270.396C323.216 268.073 322.471 266.912 320.98 266.912C320.235 266.912 319.498 267.302 318.77 268.082V273.36C319.117 273.672 319.464 273.889 319.81 274.01C320.157 274.131 320.495 274.192 320.824 274.192ZM334.822 277.312C333.972 277.312 333.097 277.147 332.196 276.818C331.312 276.489 330.54 276.055 329.882 275.518L331.598 273.126C332.187 273.577 332.75 273.915 333.288 274.14C333.825 274.365 334.371 274.478 334.926 274.478C335.498 274.478 335.914 274.383 336.174 274.192C336.434 274.001 336.564 273.733 336.564 273.386C336.564 273.178 336.486 272.996 336.33 272.84C336.191 272.667 335.992 272.511 335.732 272.372C335.489 272.233 335.212 272.112 334.9 272.008C334.588 271.887 334.267 271.757 333.938 271.618C333.539 271.462 333.14 271.28 332.742 271.072C332.343 270.864 331.979 270.613 331.65 270.318C331.32 270.006 331.052 269.651 330.844 269.252C330.636 268.836 330.532 268.359 330.532 267.822C330.532 267.233 330.644 266.687 330.87 266.184C331.112 265.681 331.45 265.257 331.884 264.91C332.317 264.563 332.837 264.295 333.444 264.104C334.05 263.896 334.726 263.792 335.472 263.792C336.46 263.792 337.326 263.965 338.072 264.312C338.817 264.641 339.467 265.014 340.022 265.43L338.306 267.718C337.838 267.371 337.378 267.103 336.928 266.912C336.477 266.721 336.026 266.626 335.576 266.626C334.605 266.626 334.12 266.964 334.12 267.64C334.12 267.848 334.189 268.03 334.328 268.186C334.466 268.325 334.648 268.455 334.874 268.576C335.116 268.697 335.385 268.819 335.68 268.94C335.992 269.044 336.312 269.157 336.642 269.278C337.058 269.434 337.465 269.616 337.864 269.824C338.28 270.015 338.652 270.257 338.982 270.552C339.328 270.847 339.606 271.211 339.814 271.644C340.022 272.06 340.126 272.563 340.126 273.152C340.126 273.741 340.013 274.287 339.788 274.79C339.562 275.293 339.224 275.735 338.774 276.116C338.323 276.48 337.768 276.775 337.11 277C336.451 277.208 335.688 277.312 334.822 277.312Z"/><path fill="#717171" d="M105.684 314L103.46 303.504H104.836L105.94 309.216C106.036 309.792 106.137 310.357 106.244 310.912C106.35 311.467 106.452 312.032 106.548 312.608H106.612C106.729 312.032 106.852 311.467 106.98 310.912C107.108 310.347 107.23 309.781 107.348 309.216L108.804 303.504H110.02L111.476 309.216C111.604 309.771 111.732 310.331 111.86 310.896C111.988 311.461 112.116 312.032 112.244 312.608H112.308C112.404 312.032 112.5 311.467 112.596 310.912C112.692 310.347 112.793 309.781 112.9 309.216L114.004 303.504H115.284L113.108 314H111.508L109.924 307.68C109.828 307.275 109.737 306.88 109.652 306.496C109.577 306.101 109.497 305.701 109.412 305.296H109.348C109.262 305.701 109.172 306.101 109.076 306.496C108.99 306.88 108.905 307.275 108.82 307.68L107.268 314H105.684ZM120.934 314.192C120.411 314.192 119.92 314.101 119.462 313.92C119.014 313.728 118.619 313.461 118.278 313.12C117.947 312.768 117.686 312.341 117.494 311.84C117.302 311.339 117.206 310.768 117.206 310.128C117.206 309.488 117.302 308.917 117.494 308.416C117.696 307.904 117.958 307.472 118.278 307.12C118.608 306.768 118.982 306.501 119.398 306.32C119.814 306.128 120.246 306.032 120.694 306.032C121.184 306.032 121.622 306.117 122.006 306.288C122.4 306.459 122.726 306.704 122.982 307.024C123.248 307.344 123.451 307.728 123.59 308.176C123.728 308.624 123.798 309.125 123.798 309.68C123.798 309.819 123.792 309.957 123.782 310.096C123.782 310.224 123.771 310.336 123.75 310.432H118.502C118.555 311.264 118.811 311.925 119.27 312.416C119.739 312.896 120.347 313.136 121.094 313.136C121.467 313.136 121.808 313.083 122.118 312.976C122.438 312.859 122.742 312.709 123.03 312.528L123.494 313.392C123.152 313.605 122.774 313.792 122.358 313.952C121.942 314.112 121.467 314.192 120.934 314.192ZM118.486 309.488H122.646C122.646 308.699 122.475 308.101 122.134 307.696C121.803 307.28 121.334 307.072 120.726 307.072C120.448 307.072 120.182 307.125 119.926 307.232C119.68 307.339 119.456 307.499 119.254 307.712C119.051 307.915 118.88 308.165 118.742 308.464C118.614 308.763 118.528 309.104 118.486 309.488ZM126.427 307.104L126.059 306.496C126.464 306.229 126.763 305.947 126.955 305.648C127.158 305.339 127.259 304.955 127.259 304.496C127.227 304.507 127.184 304.512 127.131 304.512C126.907 304.512 126.71 304.443 126.539 304.304C126.368 304.165 126.283 303.968 126.283 303.712C126.283 303.435 126.363 303.216 126.523 303.056C126.683 302.896 126.886 302.816 127.131 302.816C127.44 302.816 127.686 302.944 127.867 303.2C128.048 303.445 128.139 303.803 128.139 304.272C128.139 304.912 127.99 305.467 127.691 305.936C127.403 306.395 126.982 306.784 126.427 307.104ZM132.827 314L130.027 306.224H131.387L132.859 310.64C132.977 311.024 133.094 311.408 133.211 311.792C133.339 312.176 133.462 312.555 133.579 312.928H133.643C133.761 312.555 133.878 312.176 133.995 311.792C134.113 311.408 134.23 311.024 134.347 310.64L135.819 306.224H137.115L134.363 314H132.827ZM142.506 314.192C141.983 314.192 141.492 314.101 141.034 313.92C140.586 313.728 140.191 313.461 139.85 313.12C139.519 312.768 139.258 312.341 139.066 311.84C138.874 311.339 138.778 310.768 138.778 310.128C138.778 309.488 138.874 308.917 139.066 308.416C139.268 307.904 139.53 307.472 139.85 307.12C140.18 306.768 140.554 306.501 140.97 306.32C141.386 306.128 141.818 306.032 142.266 306.032C142.756 306.032 143.194 306.117 143.578 306.288C143.972 306.459 144.298 306.704 144.554 307.024C144.82 307.344 145.023 307.728 145.162 308.176C145.3 308.624 145.37 309.125 145.37 309.68C145.37 309.819 145.364 309.957 145.354 310.096C145.354 310.224 145.343 310.336 145.322 310.432H140.074C140.127 311.264 140.383 311.925 140.842 312.416C141.311 312.896 141.919 313.136 142.666 313.136C143.039 313.136 143.38 313.083 143.69 312.976C144.01 312.859 144.314 312.709 144.602 312.528L145.066 313.392C144.724 313.605 144.346 313.792 143.93 313.952C143.514 314.112 143.039 314.192 142.506 314.192ZM140.058 309.488H144.218C144.218 308.699 144.047 308.101 143.706 307.696C143.375 307.28 142.906 307.072 142.298 307.072C142.02 307.072 141.754 307.125 141.498 307.232C141.252 307.339 141.028 307.499 140.826 307.712C140.623 307.915 140.452 308.165 140.314 308.464C140.186 308.763 140.1 309.104 140.058 309.488ZM152.094 317.28V306.224H153.182L153.294 307.12H153.342C153.694 306.821 154.078 306.565 154.494 306.352C154.921 306.139 155.364 306.032 155.822 306.032C156.324 306.032 156.766 306.128 157.15 306.32C157.534 306.501 157.854 306.768 158.11 307.12C158.366 307.461 158.558 307.877 158.686 308.368C158.825 308.848 158.894 309.392 158.894 310C158.894 310.661 158.804 311.253 158.622 311.776C158.441 312.288 158.196 312.725 157.886 313.088C157.577 313.451 157.22 313.728 156.814 313.92C156.409 314.101 155.982 314.192 155.534 314.192C155.172 314.192 154.809 314.112 154.446 313.952C154.094 313.792 153.737 313.573 153.374 313.296L153.406 314.656V317.28H152.094ZM155.31 313.088C155.63 313.088 155.924 313.019 156.19 312.88C156.468 312.731 156.702 312.528 156.894 312.272C157.097 312.005 157.252 311.68 157.358 311.296C157.476 310.912 157.534 310.48 157.534 310C157.534 309.573 157.497 309.184 157.422 308.832C157.348 308.48 157.225 308.181 157.054 307.936C156.894 307.68 156.681 307.483 156.414 307.344C156.158 307.205 155.849 307.136 155.486 307.136C155.156 307.136 154.82 307.227 154.478 307.408C154.148 307.589 153.79 307.851 153.406 308.192V312.272C153.758 312.571 154.1 312.784 154.43 312.912C154.761 313.029 155.054 313.088 155.31 313.088ZM163.161 314.192C162.66 314.192 162.303 314.043 162.089 313.744C161.876 313.445 161.769 313.008 161.769 312.432V302.608H163.081V312.528C163.081 312.741 163.119 312.891 163.193 312.976C163.268 313.061 163.353 313.104 163.449 313.104C163.492 313.104 163.529 313.104 163.561 313.104C163.604 313.104 163.663 313.093 163.737 313.072L163.913 314.064C163.828 314.107 163.727 314.139 163.609 314.16C163.492 314.181 163.343 314.192 163.161 314.192ZM168.439 314.192C167.789 314.192 167.245 314 166.807 313.616C166.381 313.232 166.167 312.688 166.167 311.984C166.167 311.131 166.546 310.48 167.303 310.032C168.061 309.573 169.271 309.253 170.935 309.072C170.935 308.827 170.909 308.587 170.855 308.352C170.813 308.117 170.733 307.909 170.615 307.728C170.498 307.547 170.333 307.403 170.119 307.296C169.917 307.179 169.655 307.12 169.335 307.12C168.887 307.12 168.466 307.205 168.071 307.376C167.677 307.547 167.325 307.739 167.015 307.952L166.503 307.04C166.866 306.805 167.309 306.581 167.831 306.368C168.354 306.144 168.93 306.032 169.559 306.032C170.509 306.032 171.197 306.325 171.623 306.912C172.05 307.488 172.263 308.261 172.263 309.232V314H171.175L171.063 313.072H171.015C170.642 313.381 170.242 313.648 169.815 313.872C169.389 314.085 168.93 314.192 168.439 314.192ZM168.823 313.136C169.197 313.136 169.549 313.051 169.879 312.88C170.21 312.699 170.562 312.437 170.935 312.096V309.936C170.285 310.021 169.735 310.123 169.287 310.24C168.85 310.357 168.493 310.496 168.215 310.656C167.949 310.816 167.751 311.003 167.623 311.216C167.506 311.419 167.447 311.643 167.447 311.888C167.447 312.336 167.581 312.656 167.847 312.848C168.114 313.04 168.439 313.136 168.823 313.136ZM175.51 314V306.224H176.598L176.71 307.344H176.758C177.131 306.971 177.521 306.661 177.926 306.416C178.342 306.16 178.822 306.032 179.366 306.032C180.187 306.032 180.785 306.288 181.158 306.8C181.542 307.312 181.734 308.069 181.734 309.072V314H180.422V309.248C180.422 308.512 180.305 307.984 180.07 307.664C179.835 307.333 179.462 307.168 178.95 307.168C178.545 307.168 178.187 307.269 177.878 307.472C177.569 307.675 177.217 307.973 176.822 308.368V314H175.51ZM185.06 314V306.224H186.148L186.26 307.344H186.308C186.681 306.971 187.071 306.661 187.476 306.416C187.892 306.16 188.372 306.032 188.916 306.032C189.737 306.032 190.335 306.288 190.708 306.8C191.092 307.312 191.284 308.069 191.284 309.072V314H189.972V309.248C189.972 308.512 189.855 307.984 189.62 307.664C189.385 307.333 189.012 307.168 188.5 307.168C188.095 307.168 187.737 307.269 187.428 307.472C187.119 307.675 186.767 307.973 186.372 308.368V314H185.06ZM197.762 314.192C197.239 314.192 196.749 314.101 196.29 313.92C195.842 313.728 195.447 313.461 195.106 313.12C194.775 312.768 194.514 312.341 194.322 311.84C194.13 311.339 194.034 310.768 194.034 310.128C194.034 309.488 194.13 308.917 194.322 308.416C194.525 307.904 194.786 307.472 195.106 307.12C195.437 306.768 195.81 306.501 196.226 306.32C196.642 306.128 197.074 306.032 197.522 306.032C198.013 306.032 198.45 306.117 198.834 306.288C199.229 306.459 199.554 306.704 199.81 307.024C200.077 307.344 200.279 307.728 200.418 308.176C200.557 308.624 200.626 309.125 200.626 309.68C200.626 309.819 200.621 309.957 200.61 310.096C200.61 310.224 200.599 310.336 200.578 310.432H195.33C195.383 311.264 195.639 311.925 196.098 312.416C196.567 312.896 197.175 313.136 197.922 313.136C198.295 313.136 198.637 313.083 198.946 312.976C199.266 312.859 199.57 312.709 199.858 312.528L200.322 313.392C199.981 313.605 199.602 313.792 199.186 313.952C198.77 314.112 198.295 314.192 197.762 314.192ZM195.314 309.488H199.474C199.474 308.699 199.303 308.101 198.962 307.696C198.631 307.28 198.162 307.072 197.554 307.072C197.277 307.072 197.01 307.125 196.754 307.232C196.509 307.339 196.285 307.499 196.082 307.712C195.879 307.915 195.709 308.165 195.57 308.464C195.442 308.763 195.357 309.104 195.314 309.488ZM206.003 314.192C205.022 314.192 204.238 313.84 203.651 313.136C203.075 312.432 202.787 311.429 202.787 310.128C202.787 309.499 202.878 308.933 203.059 308.432C203.251 307.92 203.502 307.488 203.811 307.136C204.121 306.784 204.478 306.512 204.883 306.32C205.289 306.128 205.715 306.032 206.163 306.032C206.611 306.032 207.001 306.112 207.331 306.272C207.662 306.432 207.998 306.651 208.339 306.928L208.275 305.6V302.608H209.603V314H208.515L208.403 313.088H208.355C208.046 313.387 207.689 313.648 207.283 313.872C206.889 314.085 206.462 314.192 206.003 314.192ZM206.291 313.088C206.654 313.088 206.995 313.003 207.315 312.832C207.635 312.651 207.955 312.379 208.275 312.016V307.952C207.945 307.653 207.625 307.445 207.315 307.328C207.017 307.2 206.707 307.136 206.387 307.136C206.078 307.136 205.785 307.211 205.507 307.36C205.241 307.499 205.006 307.701 204.803 307.968C204.601 308.224 204.441 308.533 204.323 308.896C204.206 309.259 204.147 309.664 204.147 310.112C204.147 311.051 204.334 311.781 204.707 312.304C205.081 312.827 205.609 313.088 206.291 313.088ZM218.818 314.192C218.167 314.192 217.623 314 217.186 313.616C216.759 313.232 216.546 312.688 216.546 311.984C216.546 311.131 216.924 310.48 217.682 310.032C218.439 309.573 219.65 309.253 221.314 309.072C221.314 308.827 221.287 308.587 221.234 308.352C221.191 308.117 221.111 307.909 220.994 307.728C220.876 307.547 220.711 307.403 220.498 307.296C220.295 307.179 220.034 307.12 219.714 307.12C219.266 307.12 218.844 307.205 218.45 307.376C218.055 307.547 217.703 307.739 217.394 307.952L216.882 307.04C217.244 306.805 217.687 306.581 218.21 306.368C218.732 306.144 219.308 306.032 219.938 306.032C220.887 306.032 221.575 306.325 222.002 306.912C222.428 307.488 222.642 308.261 222.642 309.232V314H221.554L221.442 313.072H221.394C221.02 313.381 220.62 313.648 220.194 313.872C219.767 314.085 219.308 314.192 218.818 314.192ZM219.202 313.136C219.575 313.136 219.927 313.051 220.258 312.88C220.588 312.699 220.94 312.437 221.314 312.096V309.936C220.663 310.021 220.114 310.123 219.666 310.24C219.228 310.357 218.871 310.496 218.594 310.656C218.327 310.816 218.13 311.003 218.002 311.216C217.884 311.419 217.826 311.643 217.826 311.888C217.826 312.336 217.959 312.656 218.226 312.848C218.492 313.04 218.818 313.136 219.202 313.136ZM231.571 314L228.771 306.224H230.131L231.603 310.64C231.72 311.024 231.838 311.408 231.955 311.792C232.083 312.176 232.206 312.555 232.323 312.928H232.387C232.504 312.555 232.622 312.176 232.739 311.792C232.856 311.408 232.974 311.024 233.091 310.64L234.563 306.224H235.859L233.107 314H231.571ZM239.639 314.192C238.989 314.192 238.445 314 238.007 313.616C237.581 313.232 237.367 312.688 237.367 311.984C237.367 311.131 237.746 310.48 238.503 310.032C239.261 309.573 240.471 309.253 242.135 309.072C242.135 308.827 242.109 308.587 242.055 308.352C242.013 308.117 241.933 307.909 241.815 307.728C241.698 307.547 241.533 307.403 241.319 307.296C241.117 307.179 240.855 307.12 240.535 307.12C240.087 307.12 239.666 307.205 239.271 307.376C238.877 307.547 238.525 307.739 238.215 307.952L237.703 307.04C238.066 306.805 238.509 306.581 239.031 306.368C239.554 306.144 240.13 306.032 240.759 306.032C241.709 306.032 242.397 306.325 242.823 306.912C243.25 307.488 243.463 308.261 243.463 309.232V314H242.375L242.263 313.072H242.215C241.842 313.381 241.442 313.648 241.015 313.872C240.589 314.085 240.13 314.192 239.639 314.192ZM240.023 313.136C240.397 313.136 240.749 313.051 241.079 312.88C241.41 312.699 241.762 312.437 242.135 312.096V309.936C241.485 310.021 240.935 310.123 240.487 310.24C240.05 310.357 239.693 310.496 239.415 310.656C239.149 310.816 238.951 311.003 238.823 311.216C238.706 311.419 238.647 311.643 238.647 311.888C238.647 312.336 238.781 312.656 239.047 312.848C239.314 313.04 239.639 313.136 240.023 313.136ZM246.71 314V306.224H247.798L247.91 307.632H247.958C248.225 307.141 248.545 306.752 248.918 306.464C249.302 306.176 249.718 306.032 250.166 306.032C250.475 306.032 250.753 306.085 250.998 306.192L250.742 307.344C250.614 307.301 250.497 307.269 250.39 307.248C250.283 307.227 250.15 307.216 249.99 307.216C249.659 307.216 249.313 307.349 248.95 307.616C248.598 307.883 248.289 308.347 248.022 309.008V314H246.71ZM253.057 314V306.224H254.369V314H253.057ZM253.729 304.624C253.473 304.624 253.254 304.544 253.073 304.384C252.902 304.224 252.817 304.021 252.817 303.776C252.817 303.52 252.902 303.317 253.073 303.168C253.254 303.008 253.473 302.928 253.729 302.928C253.985 302.928 254.198 303.008 254.369 303.168C254.55 303.317 254.641 303.52 254.641 303.776C254.641 304.021 254.55 304.224 254.369 304.384C254.198 304.544 253.985 304.624 253.729 304.624ZM260.946 314.192C260.424 314.192 259.933 314.101 259.474 313.92C259.026 313.728 258.632 313.461 258.29 313.12C257.96 312.768 257.698 312.341 257.506 311.84C257.314 311.339 257.218 310.768 257.218 310.128C257.218 309.488 257.314 308.917 257.506 308.416C257.709 307.904 257.97 307.472 258.29 307.12C258.621 306.768 258.994 306.501 259.41 306.32C259.826 306.128 260.258 306.032 260.706 306.032C261.197 306.032 261.634 306.117 262.018 306.288C262.413 306.459 262.738 306.704 262.994 307.024C263.261 307.344 263.464 307.728 263.602 308.176C263.741 308.624 263.81 309.125 263.81 309.68C263.81 309.819 263.805 309.957 263.794 310.096C263.794 310.224 263.784 310.336 263.762 310.432H258.514C258.568 311.264 258.824 311.925 259.282 312.416C259.752 312.896 260.36 313.136 261.106 313.136C261.48 313.136 261.821 313.083 262.13 312.976C262.45 312.859 262.754 312.709 263.042 312.528L263.506 313.392C263.165 313.605 262.786 313.792 262.37 313.952C261.954 314.112 261.48 314.192 260.946 314.192ZM258.498 309.488H262.658C262.658 308.699 262.488 308.101 262.146 307.696C261.816 307.28 261.346 307.072 260.738 307.072C260.461 307.072 260.194 307.125 259.938 307.232C259.693 307.339 259.469 307.499 259.266 307.712C259.064 307.915 258.893 308.165 258.754 308.464C258.626 308.763 258.541 309.104 258.498 309.488ZM268.824 314.192C268.408 314.192 268.056 314.128 267.768 314C267.49 313.872 267.261 313.696 267.08 313.472C266.909 313.248 266.786 312.976 266.712 312.656C266.637 312.336 266.6 311.984 266.6 311.6V307.296H265.448V306.304L266.664 306.224L266.824 304.048H267.928V306.224H270.024V307.296H267.928V311.616C267.928 312.096 268.013 312.469 268.184 312.736C268.365 312.992 268.68 313.12 269.128 313.12C269.266 313.12 269.416 313.099 269.576 313.056C269.736 313.013 269.88 312.965 270.008 312.912L270.264 313.904C270.05 313.979 269.816 314.043 269.56 314.096C269.314 314.16 269.069 314.192 268.824 314.192ZM272.71 317.344C272.528 317.344 272.363 317.328 272.214 317.296C272.064 317.275 271.926 317.237 271.798 317.184L272.054 316.144C272.139 316.165 272.235 316.187 272.342 316.208C272.448 316.24 272.55 316.256 272.646 316.256C273.094 316.256 273.456 316.096 273.734 315.776C274.022 315.467 274.246 315.072 274.406 314.592L274.582 314.016L271.462 306.224H272.822L274.406 310.528C274.523 310.869 274.646 311.232 274.774 311.616C274.912 311.989 275.04 312.357 275.158 312.72H275.222C275.339 312.368 275.451 312 275.558 311.616C275.664 311.232 275.771 310.869 275.878 310.528L277.27 306.224H278.55L275.622 314.64C275.483 315.024 275.328 315.381 275.158 315.712C274.987 316.043 274.784 316.325 274.55 316.56C274.315 316.805 274.048 316.997 273.75 317.136C273.451 317.275 273.104 317.344 272.71 317.344ZM287.878 314.192C287.398 314.192 286.939 314.101 286.502 313.92C286.075 313.739 285.696 313.477 285.366 313.136C285.035 312.784 284.768 312.357 284.566 311.856C284.374 311.344 284.278 310.768 284.278 310.128C284.278 309.477 284.374 308.901 284.566 308.4C284.768 307.888 285.035 307.456 285.366 307.104C285.696 306.752 286.075 306.485 286.502 306.304C286.939 306.123 287.398 306.032 287.878 306.032C288.358 306.032 288.811 306.123 289.238 306.304C289.675 306.485 290.059 306.752 290.39 307.104C290.72 307.456 290.982 307.888 291.174 308.4C291.376 308.901 291.478 309.477 291.478 310.128C291.478 310.768 291.376 311.344 291.174 311.856C290.982 312.357 290.72 312.784 290.39 313.136C290.059 313.477 289.675 313.739 289.238 313.92C288.811 314.101 288.358 314.192 287.878 314.192ZM287.878 313.104C288.208 313.104 288.512 313.035 288.79 312.896C289.067 312.747 289.302 312.544 289.494 312.288C289.696 312.021 289.851 311.707 289.958 311.344C290.064 310.981 290.118 310.576 290.118 310.128C290.118 309.68 290.064 309.275 289.958 308.912C289.851 308.539 289.696 308.219 289.494 307.952C289.302 307.685 289.067 307.483 288.79 307.344C288.512 307.195 288.208 307.12 287.878 307.12C287.547 307.12 287.243 307.195 286.966 307.344C286.688 307.483 286.448 307.685 286.246 307.952C286.054 308.219 285.904 308.539 285.798 308.912C285.691 309.275 285.638 309.68 285.638 310.128C285.638 310.576 285.691 310.981 285.798 311.344C285.904 311.707 286.054 312.021 286.246 312.288C286.448 312.544 286.688 312.747 286.966 312.896C287.243 313.035 287.547 313.104 287.878 313.104ZM294.55 314V307.296H293.494V306.304L294.55 306.224V304.992C294.55 304.192 294.731 303.563 295.094 303.104C295.467 302.645 296.043 302.416 296.822 302.416C297.067 302.416 297.296 302.443 297.51 302.496C297.734 302.539 297.936 302.597 298.118 302.672L297.83 303.68C297.542 303.552 297.248 303.488 296.95 303.488C296.224 303.488 295.862 303.989 295.862 304.992V306.224H297.51V307.296H295.862V314H294.55ZM305.033 314L302.873 306.224H304.217L305.369 310.72C305.454 311.093 305.534 311.456 305.609 311.808C305.683 312.16 305.758 312.517 305.833 312.88H305.897C305.982 312.517 306.067 312.16 306.153 311.808C306.238 311.445 306.329 311.083 306.425 310.72L307.625 306.224H308.905L310.121 310.72C310.217 311.093 310.307 311.456 310.393 311.808C310.489 312.16 310.579 312.517 310.665 312.88H310.729C310.814 312.517 310.894 312.16 310.969 311.808C311.043 311.456 311.123 311.093 311.209 310.72L312.345 306.224H313.593L311.513 314H309.913L308.793 309.824C308.697 309.451 308.606 309.083 308.521 308.72C308.446 308.357 308.361 307.979 308.265 307.584H308.201C308.115 307.979 308.03 308.363 307.945 308.736C307.859 309.099 307.763 309.467 307.657 309.84L306.569 314H305.033ZM319.046 314.192C318.566 314.192 318.108 314.101 317.67 313.92C317.244 313.739 316.865 313.477 316.534 313.136C316.204 312.784 315.937 312.357 315.734 311.856C315.542 311.344 315.446 310.768 315.446 310.128C315.446 309.477 315.542 308.901 315.734 308.4C315.937 307.888 316.204 307.456 316.534 307.104C316.865 306.752 317.244 306.485 317.67 306.304C318.108 306.123 318.566 306.032 319.046 306.032C319.526 306.032 319.98 306.123 320.406 306.304C320.844 306.485 321.228 306.752 321.558 307.104C321.889 307.456 322.15 307.888 322.342 308.4C322.545 308.901 322.646 309.477 322.646 310.128C322.646 310.768 322.545 311.344 322.342 311.856C322.15 312.357 321.889 312.784 321.558 313.136C321.228 313.477 320.844 313.739 320.406 313.92C319.98 314.101 319.526 314.192 319.046 314.192ZM319.046 313.104C319.377 313.104 319.681 313.035 319.958 312.896C320.236 312.747 320.47 312.544 320.662 312.288C320.865 312.021 321.02 311.707 321.126 311.344C321.233 310.981 321.286 310.576 321.286 310.128C321.286 309.68 321.233 309.275 321.126 308.912C321.02 308.539 320.865 308.219 320.662 307.952C320.47 307.685 320.236 307.483 319.958 307.344C319.681 307.195 319.377 307.12 319.046 307.12C318.716 307.12 318.412 307.195 318.134 307.344C317.857 307.483 317.617 307.685 317.414 307.952C317.222 308.219 317.073 308.539 316.966 308.912C316.86 309.275 316.806 309.68 316.806 310.128C316.806 310.576 316.86 310.981 316.966 311.344C317.073 311.707 317.222 312.021 317.414 312.288C317.617 312.544 317.857 312.747 318.134 312.896C318.412 313.035 318.716 313.104 319.046 313.104ZM325.494 314V306.224H326.582L326.694 307.632H326.742C327.009 307.141 327.329 306.752 327.702 306.464C328.086 306.176 328.502 306.032 328.95 306.032C329.26 306.032 329.537 306.085 329.782 306.192L329.526 307.344C329.398 307.301 329.281 307.269 329.174 307.248C329.068 307.227 328.934 307.216 328.774 307.216C328.444 307.216 328.097 307.349 327.734 307.616C327.382 307.883 327.073 308.347 326.806 309.008V314H325.494ZM331.841 314V302.608H333.137V310.32H333.185L336.497 306.224H337.953L335.345 309.344L338.305 314H336.865L334.593 310.256L333.137 311.952V314H331.841ZM342.595 314.192C342.04 314.192 341.512 314.091 341.011 313.888C340.51 313.685 340.072 313.429 339.699 313.12L340.355 312.24C340.696 312.517 341.043 312.741 341.395 312.912C341.758 313.083 342.174 313.168 342.643 313.168C343.155 313.168 343.539 313.051 343.795 312.816C344.051 312.581 344.179 312.293 344.179 311.952C344.179 311.749 344.126 311.573 344.019 311.424C343.912 311.275 343.774 311.147 343.603 311.04C343.443 310.923 343.256 310.821 343.043 310.736C342.83 310.651 342.616 310.565 342.403 310.48C342.126 310.384 341.848 310.277 341.571 310.16C341.294 310.032 341.043 309.883 340.819 309.712C340.606 309.531 340.43 309.323 340.291 309.088C340.152 308.853 340.083 308.571 340.083 308.24C340.083 307.931 340.142 307.643 340.259 307.376C340.387 307.099 340.563 306.864 340.787 306.672C341.022 306.469 341.304 306.315 341.635 306.208C341.966 306.091 342.339 306.032 342.755 306.032C343.246 306.032 343.694 306.117 344.099 306.288C344.515 306.459 344.872 306.667 345.171 306.912L344.547 307.744C344.28 307.541 344.003 307.376 343.715 307.248C343.427 307.12 343.112 307.056 342.771 307.056C342.28 307.056 341.918 307.168 341.683 307.392C341.459 307.616 341.347 307.877 341.347 308.176C341.347 308.357 341.395 308.517 341.491 308.656C341.587 308.784 341.715 308.901 341.875 309.008C342.035 309.104 342.216 309.195 342.419 309.28C342.632 309.355 342.851 309.435 343.075 309.52C343.352 309.627 343.63 309.739 343.907 309.856C344.195 309.973 344.451 310.123 344.675 310.304C344.899 310.475 345.08 310.688 345.219 310.944C345.368 311.2 345.443 311.509 345.443 311.872C345.443 312.192 345.379 312.491 345.251 312.768C345.134 313.045 344.952 313.291 344.707 313.504C344.472 313.717 344.174 313.883 343.811 314C343.459 314.128 343.054 314.192 342.595 314.192ZM348.066 314V302.608H349.378V305.712L349.33 307.312C349.703 306.96 350.093 306.661 350.498 306.416C350.903 306.16 351.378 306.032 351.922 306.032C352.743 306.032 353.341 306.288 353.714 306.8C354.098 307.312 354.29 308.069 354.29 309.072V314H352.978V309.248C352.978 308.512 352.861 307.984 352.626 307.664C352.391 307.333 352.018 307.168 351.506 307.168C351.101 307.168 350.743 307.269 350.434 307.472C350.125 307.675 349.773 307.973 349.378 308.368V314H348.066ZM360.593 314.192C360.113 314.192 359.655 314.101 359.217 313.92C358.791 313.739 358.412 313.477 358.081 313.136C357.751 312.784 357.484 312.357 357.281 311.856C357.089 311.344 356.993 310.768 356.993 310.128C356.993 309.477 357.089 308.901 357.281 308.4C357.484 307.888 357.751 307.456 358.081 307.104C358.412 306.752 358.791 306.485 359.217 306.304C359.655 306.123 360.113 306.032 360.593 306.032C361.073 306.032 361.527 306.123 361.953 306.304C362.391 306.485 362.775 306.752 363.105 307.104C363.436 307.456 363.697 307.888 363.889 308.4C364.092 308.901 364.193 309.477 364.193 310.128C364.193 310.768 364.092 311.344 363.889 311.856C363.697 312.357 363.436 312.784 363.105 313.136C362.775 313.477 362.391 313.739 361.953 313.92C361.527 314.101 361.073 314.192 360.593 314.192ZM360.593 313.104C360.924 313.104 361.228 313.035 361.505 312.896C361.783 312.747 362.017 312.544 362.209 312.288C362.412 312.021 362.567 311.707 362.673 311.344C362.78 310.981 362.833 310.576 362.833 310.128C362.833 309.68 362.78 309.275 362.673 308.912C362.567 308.539 362.412 308.219 362.209 307.952C362.017 307.685 361.783 307.483 361.505 307.344C361.228 307.195 360.924 307.12 360.593 307.12C360.263 307.12 359.959 307.195 359.681 307.344C359.404 307.483 359.164 307.685 358.961 307.952C358.769 308.219 358.62 308.539 358.513 308.912C358.407 309.275 358.353 309.68 358.353 310.128C358.353 310.576 358.407 310.981 358.513 311.344C358.62 311.707 358.769 312.021 358.961 312.288C359.164 312.544 359.404 312.747 359.681 312.896C359.959 313.035 360.263 313.104 360.593 313.104ZM367.041 317.28V306.224H368.129L368.241 307.12H368.289C368.641 306.821 369.025 306.565 369.441 306.352C369.868 306.139 370.31 306.032 370.769 306.032C371.27 306.032 371.713 306.128 372.097 306.32C372.481 306.501 372.801 306.768 373.057 307.12C373.313 307.461 373.505 307.877 373.633 308.368C373.772 308.848 373.841 309.392 373.841 310C373.841 310.661 373.75 311.253 373.569 311.776C373.388 312.288 373.142 312.725 372.833 313.088C372.524 313.451 372.166 313.728 371.761 313.92C371.356 314.101 370.929 314.192 370.481 314.192C370.118 314.192 369.756 314.112 369.393 313.952C369.041 313.792 368.684 313.573 368.321 313.296L368.353 314.656V317.28H367.041ZM370.257 313.088C370.577 313.088 370.87 313.019 371.137 312.88C371.414 312.731 371.649 312.528 371.841 312.272C372.044 312.005 372.198 311.68 372.305 311.296C372.422 310.912 372.481 310.48 372.481 310C372.481 309.573 372.444 309.184 372.369 308.832C372.294 308.48 372.172 308.181 372.001 307.936C371.841 307.68 371.628 307.483 371.361 307.344C371.105 307.205 370.796 307.136 370.433 307.136C370.102 307.136 369.766 307.227 369.425 307.408C369.094 307.589 368.737 307.851 368.353 308.192V312.272C368.705 312.571 369.046 312.784 369.377 312.912C369.708 313.029 370.001 313.088 370.257 313.088ZM378.748 314.192C378.193 314.192 377.665 314.091 377.164 313.888C376.663 313.685 376.225 313.429 375.852 313.12L376.508 312.24C376.849 312.517 377.196 312.741 377.548 312.912C377.911 313.083 378.327 313.168 378.796 313.168C379.308 313.168 379.692 313.051 379.948 312.816C380.204 312.581 380.332 312.293 380.332 311.952C380.332 311.749 380.279 311.573 380.172 311.424C380.065 311.275 379.927 311.147 379.756 311.04C379.596 310.923 379.409 310.821 379.196 310.736C378.983 310.651 378.769 310.565 378.556 310.48C378.279 310.384 378.001 310.277 377.724 310.16C377.447 310.032 377.196 309.883 376.972 309.712C376.759 309.531 376.583 309.323 376.444 309.088C376.305 308.853 376.236 308.571 376.236 308.24C376.236 307.931 376.295 307.643 376.412 307.376C376.54 307.099 376.716 306.864 376.94 306.672C377.175 306.469 377.457 306.315 377.788 306.208C378.119 306.091 378.492 306.032 378.908 306.032C379.399 306.032 379.847 306.117 380.252 306.288C380.668 306.459 381.025 306.667 381.324 306.912L380.7 307.744C380.433 307.541 380.156 307.376 379.868 307.248C379.58 307.12 379.265 307.056 378.924 307.056C378.433 307.056 378.071 307.168 377.836 307.392C377.612 307.616 377.5 307.877 377.5 308.176C377.5 308.357 377.548 308.517 377.644 308.656C377.74 308.784 377.868 308.901 378.028 309.008C378.188 309.104 378.369 309.195 378.572 309.28C378.785 309.355 379.004 309.435 379.228 309.52C379.505 309.627 379.783 309.739 380.06 309.856C380.348 309.973 380.604 310.123 380.828 310.304C381.052 310.475 381.233 310.688 381.372 310.944C381.521 311.2 381.596 311.509 381.596 311.872C381.596 312.192 381.532 312.491 381.404 312.768C381.287 313.045 381.105 313.291 380.86 313.504C380.625 313.717 380.327 313.883 379.964 314C379.612 314.128 379.207 314.192 378.748 314.192ZM120.828 338V331.296H119.772V330.304L120.828 330.224V328.992C120.828 328.192 121.009 327.563 121.372 327.104C121.745 326.645 122.321 326.416 123.1 326.416C123.345 326.416 123.574 326.443 123.788 326.496C124.012 326.539 124.214 326.597 124.396 326.672L124.108 327.68C123.82 327.552 123.526 327.488 123.228 327.488C122.502 327.488 122.14 327.989 122.14 328.992V330.224H123.788V331.296H122.14V338H120.828ZM128.943 338.192C128.463 338.192 128.005 338.101 127.567 337.92C127.141 337.739 126.762 337.477 126.431 337.136C126.101 336.784 125.834 336.357 125.631 335.856C125.439 335.344 125.343 334.768 125.343 334.128C125.343 333.477 125.439 332.901 125.631 332.4C125.834 331.888 126.101 331.456 126.431 331.104C126.762 330.752 127.141 330.485 127.567 330.304C128.005 330.123 128.463 330.032 128.943 330.032C129.423 330.032 129.877 330.123 130.303 330.304C130.741 330.485 131.125 330.752 131.455 331.104C131.786 331.456 132.047 331.888 132.239 332.4C132.442 332.901 132.543 333.477 132.543 334.128C132.543 334.768 132.442 335.344 132.239 335.856C132.047 336.357 131.786 336.784 131.455 337.136C131.125 337.477 130.741 337.739 130.303 337.92C129.877 338.101 129.423 338.192 128.943 338.192ZM128.943 337.104C129.274 337.104 129.578 337.035 129.855 336.896C130.133 336.747 130.367 336.544 130.559 336.288C130.762 336.021 130.917 335.707 131.023 335.344C131.13 334.981 131.183 334.576 131.183 334.128C131.183 333.68 131.13 333.275 131.023 332.912C130.917 332.539 130.762 332.219 130.559 331.952C130.367 331.685 130.133 331.483 129.855 331.344C129.578 331.195 129.274 331.12 128.943 331.12C128.613 331.12 128.309 331.195 128.031 331.344C127.754 331.483 127.514 331.685 127.311 331.952C127.119 332.219 126.97 332.539 126.863 332.912C126.757 333.275 126.703 333.68 126.703 334.128C126.703 334.576 126.757 334.981 126.863 335.344C126.97 335.707 127.119 336.021 127.311 336.288C127.514 336.544 127.754 336.747 128.031 336.896C128.309 337.035 128.613 337.104 128.943 337.104ZM135.391 338V330.224H136.479L136.591 331.632H136.639C136.906 331.141 137.226 330.752 137.599 330.464C137.983 330.176 138.399 330.032 138.847 330.032C139.156 330.032 139.434 330.085 139.679 330.192L139.423 331.344C139.295 331.301 139.178 331.269 139.071 331.248C138.964 331.227 138.831 331.216 138.671 331.216C138.34 331.216 137.994 331.349 137.631 331.616C137.279 331.883 136.97 332.347 136.703 333.008V338H135.391ZM145.869 341.344C145.688 341.344 145.522 341.328 145.373 341.296C145.224 341.275 145.085 341.237 144.957 341.184L145.213 340.144C145.298 340.165 145.394 340.187 145.501 340.208C145.608 340.24 145.709 340.256 145.805 340.256C146.253 340.256 146.616 340.096 146.893 339.776C147.181 339.467 147.405 339.072 147.565 338.592L147.741 338.016L144.621 330.224H145.981L147.565 334.528C147.682 334.869 147.805 335.232 147.933 335.616C148.072 335.989 148.2 336.357 148.317 336.72H148.381C148.498 336.368 148.61 336 148.717 335.616C148.824 335.232 148.93 334.869 149.037 334.528L150.429 330.224H151.709L148.781 338.64C148.642 339.024 148.488 339.381 148.317 339.712C148.146 340.043 147.944 340.325 147.709 340.56C147.474 340.805 147.208 340.997 146.909 341.136C146.61 341.275 146.264 341.344 145.869 341.344ZM156.971 338.192C156.491 338.192 156.033 338.101 155.595 337.92C155.169 337.739 154.79 337.477 154.459 337.136C154.129 336.784 153.862 336.357 153.659 335.856C153.467 335.344 153.371 334.768 153.371 334.128C153.371 333.477 153.467 332.901 153.659 332.4C153.862 331.888 154.129 331.456 154.459 331.104C154.79 330.752 155.169 330.485 155.595 330.304C156.033 330.123 156.491 330.032 156.971 330.032C157.451 330.032 157.905 330.123 158.331 330.304C158.769 330.485 159.153 330.752 159.483 331.104C159.814 331.456 160.075 331.888 160.267 332.4C160.47 332.901 160.571 333.477 160.571 334.128C160.571 334.768 160.47 335.344 160.267 335.856C160.075 336.357 159.814 336.784 159.483 337.136C159.153 337.477 158.769 337.739 158.331 337.92C157.905 338.101 157.451 338.192 156.971 338.192ZM156.971 337.104C157.302 337.104 157.606 337.035 157.883 336.896C158.161 336.747 158.395 336.544 158.587 336.288C158.79 336.021 158.945 335.707 159.051 335.344C159.158 334.981 159.211 334.576 159.211 334.128C159.211 333.68 159.158 333.275 159.051 332.912C158.945 332.539 158.79 332.219 158.587 331.952C158.395 331.685 158.161 331.483 157.883 331.344C157.606 331.195 157.302 331.12 156.971 331.12C156.641 331.12 156.337 331.195 156.059 331.344C155.782 331.483 155.542 331.685 155.339 331.952C155.147 332.219 154.998 332.539 154.891 332.912C154.785 333.275 154.731 333.68 154.731 334.128C154.731 334.576 154.785 334.981 154.891 335.344C154.998 335.707 155.147 336.021 155.339 336.288C155.542 336.544 155.782 336.747 156.059 336.896C156.337 337.035 156.641 337.104 156.971 337.104ZM165.691 338.192C164.859 338.192 164.251 337.936 163.867 337.424C163.494 336.912 163.307 336.155 163.307 335.152V330.224H164.635V334.976C164.635 335.712 164.747 336.245 164.971 336.576C165.206 336.896 165.579 337.056 166.091 337.056C166.497 337.056 166.854 336.955 167.163 336.752C167.473 336.539 167.814 336.203 168.187 335.744V330.224H169.499V338H168.411L168.299 336.784H168.251C167.889 337.211 167.505 337.552 167.099 337.808C166.705 338.064 166.235 338.192 165.691 338.192ZM179.374 338.192C178.958 338.192 178.606 338.128 178.318 338C178.04 337.872 177.811 337.696 177.63 337.472C177.459 337.248 177.336 336.976 177.262 336.656C177.187 336.336 177.15 335.984 177.15 335.6V331.296H175.998V330.304L177.214 330.224L177.374 328.048H178.478V330.224H180.574V331.296H178.478V335.616C178.478 336.096 178.563 336.469 178.734 336.736C178.915 336.992 179.23 337.12 179.678 337.12C179.816 337.12 179.966 337.099 180.126 337.056C180.286 337.013 180.43 336.965 180.558 336.912L180.814 337.904C180.6 337.979 180.366 338.043 180.11 338.096C179.864 338.16 179.619 338.192 179.374 338.192ZM185.937 338.192C185.457 338.192 184.998 338.101 184.561 337.92C184.134 337.739 183.756 337.477 183.425 337.136C183.094 336.784 182.828 336.357 182.625 335.856C182.433 335.344 182.337 334.768 182.337 334.128C182.337 333.477 182.433 332.901 182.625 332.4C182.828 331.888 183.094 331.456 183.425 331.104C183.756 330.752 184.134 330.485 184.561 330.304C184.998 330.123 185.457 330.032 185.937 330.032C186.417 330.032 186.87 330.123 187.297 330.304C187.734 330.485 188.118 330.752 188.449 331.104C188.78 331.456 189.041 331.888 189.233 332.4C189.436 332.901 189.537 333.477 189.537 334.128C189.537 334.768 189.436 335.344 189.233 335.856C189.041 336.357 188.78 336.784 188.449 337.136C188.118 337.477 187.734 337.739 187.297 337.92C186.87 338.101 186.417 338.192 185.937 338.192ZM185.937 337.104C186.268 337.104 186.572 337.035 186.849 336.896C187.126 336.747 187.361 336.544 187.553 336.288C187.756 336.021 187.91 335.707 188.017 335.344C188.124 334.981 188.177 334.576 188.177 334.128C188.177 333.68 188.124 333.275 188.017 332.912C187.91 332.539 187.756 332.219 187.553 331.952C187.361 331.685 187.126 331.483 186.849 331.344C186.572 331.195 186.268 331.12 185.937 331.12C185.606 331.12 185.302 331.195 185.025 331.344C184.748 331.483 184.508 331.685 184.305 331.952C184.113 332.219 183.964 332.539 183.857 332.912C183.75 333.275 183.697 333.68 183.697 334.128C183.697 334.576 183.75 334.981 183.857 335.344C183.964 335.707 184.113 336.021 184.305 336.288C184.508 336.544 184.748 336.747 185.025 336.896C185.302 337.035 185.606 337.104 185.937 337.104ZM199.412 338.192C198.932 338.192 198.473 338.101 198.036 337.92C197.609 337.739 197.231 337.477 196.9 337.136C196.569 336.784 196.303 336.357 196.1 335.856C195.908 335.344 195.812 334.768 195.812 334.128C195.812 333.477 195.908 332.901 196.1 332.4C196.303 331.888 196.569 331.456 196.9 331.104C197.231 330.752 197.609 330.485 198.036 330.304C198.473 330.123 198.932 330.032 199.412 330.032C199.892 330.032 200.345 330.123 200.772 330.304C201.209 330.485 201.593 330.752 201.924 331.104C202.255 331.456 202.516 331.888 202.708 332.4C202.911 332.901 203.012 333.477 203.012 334.128C203.012 334.768 202.911 335.344 202.708 335.856C202.516 336.357 202.255 336.784 201.924 337.136C201.593 337.477 201.209 337.739 200.772 337.92C200.345 338.101 199.892 338.192 199.412 338.192ZM199.412 337.104C199.743 337.104 200.047 337.035 200.324 336.896C200.601 336.747 200.836 336.544 201.028 336.288C201.231 336.021 201.385 335.707 201.492 335.344C201.599 334.981 201.652 334.576 201.652 334.128C201.652 333.68 201.599 333.275 201.492 332.912C201.385 332.539 201.231 332.219 201.028 331.952C200.836 331.685 200.601 331.483 200.324 331.344C200.047 331.195 199.743 331.12 199.412 331.12C199.081 331.12 198.777 331.195 198.5 331.344C198.223 331.483 197.983 331.685 197.78 331.952C197.588 332.219 197.439 332.539 197.332 332.912C197.225 333.275 197.172 333.68 197.172 334.128C197.172 334.576 197.225 334.981 197.332 335.344C197.439 335.707 197.588 336.021 197.78 336.288C197.983 336.544 198.223 336.747 198.5 336.896C198.777 337.035 199.081 337.104 199.412 337.104ZM205.86 341.28V330.224H206.948L207.06 331.12H207.108C207.46 330.821 207.844 330.565 208.26 330.352C208.687 330.139 209.129 330.032 209.588 330.032C210.089 330.032 210.532 330.128 210.916 330.32C211.3 330.501 211.62 330.768 211.876 331.12C212.132 331.461 212.324 331.877 212.452 332.368C212.591 332.848 212.66 333.392 212.66 334C212.66 334.661 212.569 335.253 212.388 335.776C212.207 336.288 211.961 336.725 211.652 337.088C211.343 337.451 210.985 337.728 210.58 337.92C210.175 338.101 209.748 338.192 209.3 338.192C208.937 338.192 208.575 338.112 208.212 337.952C207.86 337.792 207.503 337.573 207.14 337.296L207.172 338.656V341.28H205.86ZM209.076 337.088C209.396 337.088 209.689 337.019 209.956 336.88C210.233 336.731 210.468 336.528 210.66 336.272C210.863 336.005 211.017 335.68 211.124 335.296C211.241 334.912 211.3 334.48 211.3 334C211.3 333.573 211.263 333.184 211.188 332.832C211.113 332.48 210.991 332.181 210.82 331.936C210.66 331.68 210.447 331.483 210.18 331.344C209.924 331.205 209.615 331.136 209.252 331.136C208.921 331.136 208.585 331.227 208.244 331.408C207.913 331.589 207.556 331.851 207.172 332.192V336.272C207.524 336.571 207.865 336.784 208.196 336.912C208.527 337.029 208.82 337.088 209.076 337.088ZM217.717 338.192C217.301 338.192 216.949 338.128 216.661 338C216.384 337.872 216.155 337.696 215.973 337.472C215.803 337.248 215.68 336.976 215.605 336.656C215.531 336.336 215.493 335.984 215.493 335.6V331.296H214.341V330.304L215.557 330.224L215.717 328.048H216.821V330.224H218.917V331.296H216.821V335.616C216.821 336.096 216.907 336.469 217.077 336.736C217.259 336.992 217.573 337.12 218.021 337.12C218.16 337.12 218.309 337.099 218.469 337.056C218.629 337.013 218.773 336.965 218.901 336.912L219.157 337.904C218.944 337.979 218.709 338.043 218.453 338.096C218.208 338.16 217.963 338.192 217.717 338.192ZM221.475 338V330.224H222.787V338H221.475ZM222.147 328.624C221.891 328.624 221.673 328.544 221.491 328.384C221.321 328.224 221.235 328.021 221.235 327.776C221.235 327.52 221.321 327.317 221.491 327.168C221.673 327.008 221.891 326.928 222.147 326.928C222.403 326.928 222.617 327.008 222.787 327.168C222.969 327.317 223.059 327.52 223.059 327.776C223.059 328.021 222.969 328.224 222.787 328.384C222.617 328.544 222.403 328.624 222.147 328.624ZM226.213 338V330.224H227.301L227.413 331.344H227.461C227.802 330.971 228.17 330.661 228.565 330.416C228.97 330.16 229.408 330.032 229.877 330.032C230.474 330.032 230.938 330.165 231.269 330.432C231.61 330.688 231.861 331.051 232.021 331.52C232.426 331.072 232.832 330.715 233.237 330.448C233.653 330.171 234.101 330.032 234.581 330.032C235.381 330.032 235.973 330.288 236.357 330.8C236.752 331.312 236.949 332.069 236.949 333.072V338H235.637V333.248C235.637 332.512 235.52 331.984 235.285 331.664C235.05 331.333 234.688 331.168 234.197 331.168C233.61 331.168 232.96 331.568 232.245 332.368V338H230.933V333.248C230.933 332.512 230.816 331.984 230.581 331.664C230.346 331.333 229.978 331.168 229.477 331.168C228.89 331.168 228.24 331.568 227.525 332.368V338H226.213ZM240.279 338V330.224H241.591V338H240.279ZM240.951 328.624C240.695 328.624 240.476 328.544 240.295 328.384C240.124 328.224 240.039 328.021 240.039 327.776C240.039 327.52 240.124 327.317 240.295 327.168C240.476 327.008 240.695 326.928 240.951 326.928C241.207 326.928 241.42 327.008 241.591 327.168C241.772 327.317 241.863 327.52 241.863 327.776C241.863 328.021 241.772 328.224 241.591 328.384C241.42 328.544 241.207 328.624 240.951 328.624ZM244.2 338V337.296L248.296 331.296H244.648V330.224H249.96V330.928L245.864 336.928H250.088V338H244.2ZM255.609 338.192C255.086 338.192 254.595 338.101 254.137 337.92C253.689 337.728 253.294 337.461 252.953 337.12C252.622 336.768 252.361 336.341 252.169 335.84C251.977 335.339 251.881 334.768 251.881 334.128C251.881 333.488 251.977 332.917 252.169 332.416C252.371 331.904 252.633 331.472 252.953 331.12C253.283 330.768 253.657 330.501 254.073 330.32C254.489 330.128 254.921 330.032 255.369 330.032C255.859 330.032 256.297 330.117 256.681 330.288C257.075 330.459 257.401 330.704 257.657 331.024C257.923 331.344 258.126 331.728 258.265 332.176C258.403 332.624 258.473 333.125 258.473 333.68C258.473 333.819 258.467 333.957 258.457 334.096C258.457 334.224 258.446 334.336 258.425 334.432H253.177C253.23 335.264 253.486 335.925 253.945 336.416C254.414 336.896 255.022 337.136 255.769 337.136C256.142 337.136 256.483 337.083 256.793 336.976C257.113 336.859 257.417 336.709 257.705 336.528L258.169 337.392C257.827 337.605 257.449 337.792 257.033 337.952C256.617 338.112 256.142 338.192 255.609 338.192ZM253.161 333.488H257.321C257.321 332.699 257.15 332.101 256.809 331.696C256.478 331.28 256.009 331.072 255.401 331.072C255.123 331.072 254.857 331.125 254.601 331.232C254.355 331.339 254.131 331.499 253.929 331.712C253.726 331.915 253.555 332.165 253.417 332.464C253.289 332.763 253.203 333.104 253.161 333.488ZM265.325 341.344C265.144 341.344 264.979 341.328 264.829 341.296C264.68 341.275 264.541 341.237 264.413 341.184L264.669 340.144C264.755 340.165 264.851 340.187 264.957 340.208C265.064 340.24 265.165 340.256 265.261 340.256C265.709 340.256 266.072 340.096 266.349 339.776C266.637 339.467 266.861 339.072 267.021 338.592L267.197 338.016L264.077 330.224H265.437L267.021 334.528C267.139 334.869 267.261 335.232 267.389 335.616C267.528 335.989 267.656 336.357 267.773 336.72H267.837C267.955 336.368 268.067 336 268.173 335.616C268.28 335.232 268.387 334.869 268.493 334.528L269.885 330.224H271.165L268.237 338.64C268.099 339.024 267.944 339.381 267.773 339.712C267.603 340.043 267.4 340.325 267.165 340.56C266.931 340.805 266.664 340.997 266.365 341.136C266.067 341.275 265.72 341.344 265.325 341.344ZM276.428 338.192C275.948 338.192 275.489 338.101 275.052 337.92C274.625 337.739 274.246 337.477 273.916 337.136C273.585 336.784 273.318 336.357 273.116 335.856C272.924 335.344 272.828 334.768 272.828 334.128C272.828 333.477 272.924 332.901 273.116 332.4C273.318 331.888 273.585 331.456 273.916 331.104C274.246 330.752 274.625 330.485 275.052 330.304C275.489 330.123 275.948 330.032 276.428 330.032C276.908 330.032 277.361 330.123 277.788 330.304C278.225 330.485 278.609 330.752 278.94 331.104C279.27 331.456 279.532 331.888 279.724 332.4C279.926 332.901 280.028 333.477 280.028 334.128C280.028 334.768 279.926 335.344 279.724 335.856C279.532 336.357 279.27 336.784 278.94 337.136C278.609 337.477 278.225 337.739 277.788 337.92C277.361 338.101 276.908 338.192 276.428 338.192ZM276.428 337.104C276.758 337.104 277.062 337.035 277.34 336.896C277.617 336.747 277.852 336.544 278.044 336.288C278.246 336.021 278.401 335.707 278.508 335.344C278.614 334.981 278.668 334.576 278.668 334.128C278.668 333.68 278.614 333.275 278.508 332.912C278.401 332.539 278.246 332.219 278.044 331.952C277.852 331.685 277.617 331.483 277.34 331.344C277.062 331.195 276.758 331.12 276.428 331.12C276.097 331.12 275.793 331.195 275.516 331.344C275.238 331.483 274.998 331.685 274.796 331.952C274.604 332.219 274.454 332.539 274.348 332.912C274.241 333.275 274.188 333.68 274.188 334.128C274.188 334.576 274.241 334.981 274.348 335.344C274.454 335.707 274.604 336.021 274.796 336.288C274.998 336.544 275.238 336.747 275.516 336.896C275.793 337.035 276.097 337.104 276.428 337.104ZM285.148 338.192C284.316 338.192 283.708 337.936 283.324 337.424C282.95 336.912 282.764 336.155 282.764 335.152V330.224H284.092V334.976C284.092 335.712 284.204 336.245 284.428 336.576C284.662 336.896 285.036 337.056 285.548 337.056C285.953 337.056 286.31 336.955 286.62 336.752C286.929 336.539 287.27 336.203 287.644 335.744V330.224H288.956V338H287.868L287.756 336.784H287.708C287.345 337.211 286.961 337.552 286.556 337.808C286.161 338.064 285.692 338.192 285.148 338.192ZM292.379 338V330.224H293.467L293.579 331.632H293.627C293.893 331.141 294.213 330.752 294.587 330.464C294.971 330.176 295.387 330.032 295.835 330.032C296.144 330.032 296.421 330.085 296.667 330.192L296.411 331.344C296.283 331.301 296.165 331.269 296.059 331.248C295.952 331.227 295.819 331.216 295.659 331.216C295.328 331.216 294.981 331.349 294.619 331.616C294.267 331.883 293.957 332.347 293.691 333.008V338H292.379ZM304.121 338.192C303.619 338.192 303.262 338.043 303.049 337.744C302.835 337.445 302.729 337.008 302.729 336.432V326.608H304.041V336.528C304.041 336.741 304.078 336.891 304.153 336.976C304.227 337.061 304.313 337.104 304.409 337.104C304.451 337.104 304.489 337.104 304.521 337.104C304.563 337.104 304.622 337.093 304.697 337.072L304.873 338.064C304.787 338.107 304.686 338.139 304.569 338.16C304.451 338.181 304.302 338.192 304.121 338.192ZM310.759 338.192C310.236 338.192 309.745 338.101 309.287 337.92C308.839 337.728 308.444 337.461 308.103 337.12C307.772 336.768 307.511 336.341 307.319 335.84C307.127 335.339 307.031 334.768 307.031 334.128C307.031 333.488 307.127 332.917 307.319 332.416C307.521 331.904 307.783 331.472 308.103 331.12C308.433 330.768 308.807 330.501 309.223 330.32C309.639 330.128 310.071 330.032 310.519 330.032C311.009 330.032 311.447 330.117 311.831 330.288C312.225 330.459 312.551 330.704 312.807 331.024C313.073 331.344 313.276 331.728 313.415 332.176C313.553 332.624 313.623 333.125 313.623 333.68C313.623 333.819 313.617 333.957 313.607 334.096C313.607 334.224 313.596 334.336 313.575 334.432H308.327C308.38 335.264 308.636 335.925 309.095 336.416C309.564 336.896 310.172 337.136 310.919 337.136C311.292 337.136 311.633 337.083 311.943 336.976C312.263 336.859 312.567 336.709 312.855 336.528L313.319 337.392C312.977 337.605 312.599 337.792 312.183 337.952C311.767 338.112 311.292 338.192 310.759 338.192ZM308.311 333.488H312.471C312.471 332.699 312.3 332.101 311.959 331.696C311.628 331.28 311.159 331.072 310.551 331.072C310.273 331.072 310.007 331.125 309.751 331.232C309.505 331.339 309.281 331.499 309.079 331.712C308.876 331.915 308.705 332.165 308.567 332.464C308.439 332.763 308.353 333.104 308.311 333.488ZM317.918 338.192C317.267 338.192 316.723 338 316.286 337.616C315.859 337.232 315.646 336.688 315.646 335.984C315.646 335.131 316.024 334.48 316.782 334.032C317.539 333.573 318.75 333.253 320.414 333.072C320.414 332.827 320.387 332.587 320.334 332.352C320.291 332.117 320.211 331.909 320.094 331.728C319.976 331.547 319.811 331.403 319.598 331.296C319.395 331.179 319.134 331.12 318.814 331.12C318.366 331.12 317.944 331.205 317.55 331.376C317.155 331.547 316.803 331.739 316.494 331.952L315.982 331.04C316.344 330.805 316.787 330.581 317.31 330.368C317.832 330.144 318.408 330.032 319.038 330.032C319.987 330.032 320.675 330.325 321.102 330.912C321.528 331.488 321.742 332.261 321.742 333.232V338H320.654L320.542 337.072H320.494C320.12 337.381 319.72 337.648 319.294 337.872C318.867 338.085 318.408 338.192 317.918 338.192ZM318.302 337.136C318.675 337.136 319.027 337.051 319.358 336.88C319.688 336.699 320.04 336.437 320.414 336.096V333.936C319.763 334.021 319.214 334.123 318.766 334.24C318.328 334.357 317.971 334.496 317.694 334.656C317.427 334.816 317.23 335.003 317.102 335.216C316.984 335.419 316.926 335.643 316.926 335.888C316.926 336.336 317.059 336.656 317.326 336.848C317.592 337.04 317.918 337.136 318.302 337.136ZM324.988 338V330.224H326.076L326.188 331.632H326.236C326.503 331.141 326.823 330.752 327.196 330.464C327.58 330.176 327.996 330.032 328.444 330.032C328.753 330.032 329.031 330.085 329.276 330.192L329.02 331.344C328.892 331.301 328.775 331.269 328.668 331.248C328.561 331.227 328.428 331.216 328.268 331.216C327.937 331.216 327.591 331.349 327.228 331.616C326.876 331.883 326.567 332.347 326.3 333.008V338H324.988ZM331.335 338V330.224H332.423L332.535 331.344H332.583C332.956 330.971 333.346 330.661 333.751 330.416C334.167 330.16 334.647 330.032 335.191 330.032C336.012 330.032 336.61 330.288 336.983 330.8C337.367 331.312 337.559 332.069 337.559 333.072V338H336.247V333.248C336.247 332.512 336.13 331.984 335.895 331.664C335.66 331.333 335.287 331.168 334.775 331.168C334.37 331.168 334.012 331.269 333.703 331.472C333.394 331.675 333.042 331.973 332.647 332.368V338H331.335ZM340.885 338V330.224H342.197V338H340.885ZM341.557 328.624C341.301 328.624 341.082 328.544 340.901 328.384C340.73 328.224 340.645 328.021 340.645 327.776C340.645 327.52 340.73 327.317 340.901 327.168C341.082 327.008 341.301 326.928 341.557 326.928C341.813 326.928 342.026 327.008 342.197 327.168C342.378 327.317 342.469 327.52 342.469 327.776C342.469 328.021 342.378 328.224 342.197 328.384C342.026 328.544 341.813 328.624 341.557 328.624ZM345.622 338V330.224H346.71L346.822 331.344H346.87C347.244 330.971 347.633 330.661 348.038 330.416C348.454 330.16 348.934 330.032 349.478 330.032C350.3 330.032 350.897 330.288 351.27 330.8C351.654 331.312 351.846 332.069 351.846 333.072V338H350.534V333.248C350.534 332.512 350.417 331.984 350.182 331.664C349.948 331.333 349.574 331.168 349.062 331.168C348.657 331.168 348.3 331.269 347.99 331.472C347.681 331.675 347.329 331.973 346.934 332.368V338H345.622ZM357.796 341.584C357.316 341.584 356.879 341.536 356.484 341.44C356.09 341.355 355.748 341.221 355.46 341.04C355.183 340.859 354.964 340.64 354.804 340.384C354.655 340.128 354.58 339.829 354.58 339.488C354.58 339.157 354.682 338.843 354.884 338.544C355.087 338.245 355.364 337.973 355.716 337.728V337.664C355.524 337.547 355.359 337.387 355.22 337.184C355.092 336.971 355.028 336.709 355.028 336.4C355.028 336.069 355.119 335.781 355.3 335.536C355.482 335.291 355.674 335.099 355.876 334.96V334.896C355.62 334.683 355.386 334.4 355.172 334.048C354.97 333.685 354.868 333.269 354.868 332.8C354.868 332.373 354.943 331.989 355.092 331.648C355.252 331.307 355.466 331.019 355.732 330.784C355.999 330.539 356.308 330.352 356.66 330.224C357.023 330.096 357.402 330.032 357.796 330.032C358.01 330.032 358.207 330.053 358.388 330.096C358.58 330.128 358.751 330.171 358.9 330.224H361.604V331.232H360.004C360.186 331.413 360.335 331.643 360.452 331.92C360.58 332.197 360.644 332.501 360.644 332.832C360.644 333.248 360.57 333.627 360.42 333.968C360.271 334.299 360.068 334.581 359.812 334.816C359.556 335.04 359.252 335.216 358.9 335.344C358.559 335.472 358.191 335.536 357.796 335.536C357.604 335.536 357.407 335.515 357.204 335.472C357.002 335.419 356.81 335.349 356.628 335.264C356.49 335.381 356.372 335.515 356.276 335.664C356.18 335.803 356.132 335.979 356.132 336.192C356.132 336.437 356.228 336.64 356.42 336.8C356.612 336.96 356.975 337.04 357.508 337.04H359.012C359.919 337.04 360.596 337.189 361.044 337.488C361.503 337.776 361.732 338.245 361.732 338.896C361.732 339.259 361.642 339.6 361.46 339.92C361.279 340.251 361.018 340.539 360.676 340.784C360.335 341.029 359.919 341.221 359.428 341.36C358.948 341.509 358.404 341.584 357.796 341.584ZM357.796 334.656C358.02 334.656 358.228 334.613 358.42 334.528C358.623 334.443 358.799 334.32 358.948 334.16C359.108 334 359.231 333.808 359.316 333.584C359.402 333.349 359.444 333.088 359.444 332.8C359.444 332.224 359.284 331.781 358.964 331.472C358.644 331.152 358.255 330.992 357.796 330.992C357.338 330.992 356.948 331.152 356.628 331.472C356.308 331.781 356.148 332.224 356.148 332.8C356.148 333.088 356.191 333.349 356.276 333.584C356.362 333.808 356.479 334 356.628 334.16C356.788 334.32 356.964 334.443 357.156 334.528C357.359 334.613 357.572 334.656 357.796 334.656ZM357.988 340.672C358.362 340.672 358.698 340.624 358.996 340.528C359.306 340.443 359.567 340.325 359.78 340.176C359.994 340.037 360.159 339.872 360.276 339.68C360.394 339.488 360.452 339.291 360.452 339.088C360.452 338.725 360.319 338.475 360.052 338.336C359.786 338.197 359.396 338.128 358.884 338.128H357.54C357.391 338.128 357.226 338.117 357.044 338.096C356.874 338.085 356.703 338.053 356.532 338C356.255 338.203 356.052 338.416 355.924 338.64C355.796 338.864 355.732 339.088 355.732 339.312C355.732 339.728 355.93 340.059 356.324 340.304C356.73 340.549 357.284 340.672 357.988 340.672ZM364.723 338.192C364.456 338.192 364.227 338.101 364.035 337.92C363.854 337.728 363.763 337.488 363.763 337.2C363.763 336.891 363.854 336.645 364.035 336.464C364.227 336.272 364.456 336.176 364.723 336.176C364.979 336.176 365.198 336.272 365.379 336.464C365.571 336.645 365.667 336.891 365.667 337.2C365.667 337.488 365.571 337.728 365.379 337.92C365.198 338.101 364.979 338.192 364.723 338.192Z"/><path fill="#23B5AF" d="M190.224 378L187.072 367.568H189.568L190.816 372.432C190.976 373.008 191.114 373.568 191.232 374.112C191.36 374.645 191.504 375.2 191.664 375.776H191.728C191.877 375.2 192.016 374.645 192.144 374.112C192.272 373.568 192.41 373.008 192.56 372.432L193.792 367.568H196.192L193.056 378H190.224ZM197.914 378V370.064H200.266V378H197.914ZM199.082 368.896C198.688 368.896 198.362 368.784 198.106 368.56C197.85 368.325 197.722 368.027 197.722 367.664C197.722 367.301 197.85 367.008 198.106 366.784C198.362 366.56 198.688 366.448 199.082 366.448C199.488 366.448 199.813 366.56 200.058 366.784C200.314 367.008 200.442 367.301 200.442 367.664C200.442 368.027 200.314 368.325 200.058 368.56C199.813 368.784 199.488 368.896 199.082 368.896ZM206.688 378.192C206.123 378.192 205.595 378.101 205.104 377.92C204.614 377.728 204.187 377.456 203.824 377.104C203.462 376.741 203.179 376.304 202.976 375.792C202.774 375.28 202.672 374.693 202.672 374.032C202.672 373.392 202.779 372.816 202.992 372.304C203.206 371.781 203.483 371.344 203.824 370.992C204.176 370.629 204.576 370.352 205.024 370.16C205.472 369.968 205.936 369.872 206.416 369.872C206.982 369.872 207.472 369.968 207.888 370.16C208.315 370.352 208.667 370.619 208.944 370.96C209.232 371.301 209.446 371.707 209.584 372.176C209.723 372.635 209.792 373.136 209.792 373.68C209.792 373.893 209.782 374.096 209.76 374.288C209.739 374.48 209.718 374.624 209.696 374.72H204.944C205.051 375.296 205.286 375.723 205.648 376C206.022 376.267 206.475 376.4 207.008 376.4C207.574 376.4 208.144 376.224 208.72 375.872L209.504 377.296C209.099 377.573 208.646 377.792 208.144 377.952C207.654 378.112 207.168 378.192 206.688 378.192ZM204.928 373.168H207.792C207.792 372.72 207.691 372.357 207.488 372.08C207.286 371.803 206.944 371.664 206.464 371.664C206.091 371.664 205.76 371.787 205.472 372.032C205.195 372.277 205.014 372.656 204.928 373.168ZM213.452 378L211.468 370.064H213.804L214.572 373.744C214.636 374.139 214.694 374.528 214.748 374.912C214.801 375.296 214.86 375.691 214.924 376.096H214.988C215.062 375.691 215.132 375.291 215.196 374.896C215.27 374.501 215.356 374.117 215.452 373.744L216.332 370.064H218.364L219.26 373.744C219.356 374.139 219.441 374.528 219.516 374.912C219.59 375.296 219.67 375.691 219.756 376.096H219.82C219.894 375.691 219.953 375.296 219.996 374.912C220.049 374.528 220.113 374.139 220.188 373.744L220.94 370.064H223.116L221.212 378H218.46L217.74 374.832C217.654 374.459 217.58 374.085 217.516 373.712C217.452 373.339 217.382 372.939 217.308 372.512H217.244C217.169 372.939 217.1 373.339 217.036 373.712C216.982 374.085 216.918 374.459 216.844 374.832L216.14 378H213.452ZM232.725 378.192C232.042 378.192 231.359 378.069 230.677 377.824C230.005 377.568 229.402 377.189 228.869 376.688L230.213 375.072C230.586 375.392 230.997 375.653 231.445 375.856C231.903 376.059 232.351 376.16 232.789 376.16C233.279 376.16 233.642 376.069 233.877 375.888C234.122 375.707 234.245 375.461 234.245 375.152C234.245 374.992 234.207 374.853 234.133 374.736C234.069 374.619 233.967 374.517 233.829 374.432C233.701 374.336 233.541 374.251 233.349 374.176C233.167 374.091 232.965 374 232.741 373.904L231.381 373.328C231.114 373.221 230.853 373.083 230.597 372.912C230.351 372.741 230.127 372.544 229.925 372.32C229.733 372.085 229.578 371.819 229.461 371.52C229.343 371.211 229.285 370.864 229.285 370.48C229.285 370.053 229.375 369.653 229.557 369.28C229.738 368.896 229.994 368.565 230.325 368.288C230.655 368 231.045 367.776 231.493 367.616C231.951 367.456 232.453 367.376 232.997 367.376C233.605 367.376 234.202 367.493 234.789 367.728C235.386 367.963 235.909 368.304 236.357 368.752L235.157 370.24C234.815 369.973 234.474 369.771 234.133 369.632C233.791 369.483 233.413 369.408 232.997 369.408C232.591 369.408 232.266 369.493 232.021 369.664C231.786 369.824 231.669 370.053 231.669 370.352C231.669 370.512 231.706 370.651 231.781 370.768C231.866 370.875 231.978 370.976 232.117 371.072C232.266 371.157 232.437 371.243 232.629 371.328C232.821 371.403 233.029 371.488 233.253 371.584L234.597 372.128C235.237 372.384 235.738 372.736 236.101 373.184C236.474 373.632 236.661 374.224 236.661 374.96C236.661 375.397 236.57 375.813 236.389 376.208C236.218 376.592 235.962 376.933 235.621 377.232C235.29 377.52 234.879 377.755 234.389 377.936C233.898 378.107 233.343 378.192 232.725 378.192ZM242.495 378.192C241.941 378.192 241.423 378.101 240.943 377.92C240.474 377.728 240.063 377.456 239.711 377.104C239.359 376.752 239.082 376.32 238.879 375.808C238.677 375.285 238.575 374.693 238.575 374.032C238.575 373.371 238.687 372.784 238.911 372.272C239.135 371.749 239.434 371.312 239.807 370.96C240.191 370.608 240.634 370.341 241.135 370.16C241.637 369.968 242.159 369.872 242.703 369.872C243.194 369.872 243.626 369.952 243.999 370.112C244.383 370.272 244.725 370.475 245.023 370.72L243.919 372.24C243.546 371.931 243.189 371.776 242.847 371.776C242.271 371.776 241.818 371.979 241.487 372.384C241.157 372.789 240.991 373.339 240.991 374.032C240.991 374.725 241.157 375.275 241.487 375.68C241.829 376.085 242.255 376.288 242.767 376.288C243.023 376.288 243.269 376.235 243.503 376.128C243.749 376.011 243.978 375.872 244.191 375.712L245.119 377.248C244.725 377.589 244.298 377.835 243.839 377.984C243.381 378.123 242.933 378.192 242.495 378.192ZM247.308 378V366.784H249.66V369.536L249.548 370.96C249.847 370.693 250.194 370.448 250.588 370.224C250.983 369.989 251.452 369.872 251.996 369.872C252.86 369.872 253.484 370.155 253.868 370.72C254.263 371.285 254.46 372.069 254.46 373.072V378H252.108V373.376C252.108 372.8 252.028 372.405 251.868 372.192C251.719 371.979 251.474 371.872 251.132 371.872C250.834 371.872 250.578 371.941 250.364 372.08C250.151 372.208 249.916 372.395 249.66 372.64V378H247.308ZM260.801 378.192C260.235 378.192 259.707 378.101 259.217 377.92C258.726 377.728 258.299 377.456 257.937 377.104C257.574 376.741 257.291 376.304 257.089 375.792C256.886 375.28 256.785 374.693 256.785 374.032C256.785 373.392 256.891 372.816 257.105 372.304C257.318 371.781 257.595 371.344 257.937 370.992C258.289 370.629 258.689 370.352 259.137 370.16C259.585 369.968 260.049 369.872 260.529 369.872C261.094 369.872 261.585 369.968 262.001 370.16C262.427 370.352 262.779 370.619 263.057 370.96C263.345 371.301 263.558 371.707 263.697 372.176C263.835 372.635 263.905 373.136 263.905 373.68C263.905 373.893 263.894 374.096 263.873 374.288C263.851 374.48 263.83 374.624 263.809 374.72H259.057C259.163 375.296 259.398 375.723 259.761 376C260.134 376.267 260.587 376.4 261.121 376.4C261.686 376.4 262.257 376.224 262.833 375.872L263.617 377.296C263.211 377.573 262.758 377.792 262.257 377.952C261.766 378.112 261.281 378.192 260.801 378.192ZM259.041 373.168H261.905C261.905 372.72 261.803 372.357 261.601 372.08C261.398 371.803 261.057 371.664 260.577 371.664C260.203 371.664 259.873 371.787 259.585 372.032C259.307 372.277 259.126 372.656 259.041 373.168ZM269.162 378.192C268.671 378.192 268.223 378.096 267.818 377.904C267.423 377.712 267.082 377.44 266.794 377.088C266.517 376.725 266.298 376.288 266.138 375.776C265.989 375.264 265.914 374.683 265.914 374.032C265.914 373.381 266.005 372.8 266.186 372.288C266.378 371.776 266.623 371.344 266.922 370.992C267.231 370.629 267.583 370.352 267.978 370.16C268.383 369.968 268.794 369.872 269.21 369.872C269.658 369.872 270.026 369.947 270.314 370.096C270.602 370.245 270.885 370.448 271.162 370.704L271.066 369.488V366.784H273.418V378H271.498L271.338 377.216H271.274C270.997 377.493 270.671 377.728 270.298 377.92C269.925 378.101 269.546 378.192 269.162 378.192ZM269.77 376.272C270.026 376.272 270.255 376.219 270.458 376.112C270.671 376.005 270.874 375.819 271.066 375.552V372.304C270.853 372.112 270.634 371.979 270.41 371.904C270.186 371.829 269.967 371.792 269.754 371.792C269.381 371.792 269.05 371.973 268.762 372.336C268.474 372.688 268.33 373.243 268.33 374C268.33 374.789 268.453 375.365 268.698 375.728C268.954 376.091 269.311 376.272 269.77 376.272ZM278.686 378.192C277.822 378.192 277.193 377.909 276.798 377.344C276.414 376.779 276.222 375.995 276.222 374.992V370.064H278.574V374.688C278.574 375.264 278.654 375.659 278.814 375.872C278.974 376.085 279.225 376.192 279.566 376.192C279.865 376.192 280.115 376.123 280.318 375.984C280.521 375.845 280.739 375.621 280.974 375.312V370.064H283.326V378H281.406L281.23 376.896H281.182C280.841 377.301 280.473 377.621 280.078 377.856C279.694 378.08 279.23 378.192 278.686 378.192ZM288.356 378.192C287.95 378.192 287.609 378.128 287.332 378C287.054 377.872 286.83 377.696 286.66 377.472C286.5 377.237 286.382 376.96 286.308 376.64C286.233 376.309 286.196 375.941 286.196 375.536V366.784H288.548V375.632C288.548 375.877 288.59 376.048 288.676 376.144C288.772 376.24 288.868 376.288 288.964 376.288C289.017 376.288 289.06 376.288 289.092 376.288C289.134 376.288 289.188 376.277 289.252 376.256L289.54 378C289.412 378.053 289.246 378.096 289.044 378.128C288.852 378.171 288.622 378.192 288.356 378.192ZM295.126 378.192C294.56 378.192 294.032 378.101 293.542 377.92C293.051 377.728 292.624 377.456 292.262 377.104C291.899 376.741 291.616 376.304 291.414 375.792C291.211 375.28 291.11 374.693 291.11 374.032C291.11 373.392 291.216 372.816 291.43 372.304C291.643 371.781 291.92 371.344 292.262 370.992C292.614 370.629 293.014 370.352 293.462 370.16C293.91 369.968 294.374 369.872 294.854 369.872C295.419 369.872 295.91 369.968 296.326 370.16C296.752 370.352 297.104 370.619 297.382 370.96C297.67 371.301 297.883 371.707 298.022 372.176C298.16 372.635 298.23 373.136 298.23 373.68C298.23 373.893 298.219 374.096 298.198 374.288C298.176 374.48 298.155 374.624 298.134 374.72H293.382C293.488 375.296 293.723 375.723 294.086 376C294.459 376.267 294.912 376.4 295.446 376.4C296.011 376.4 296.582 376.224 297.158 375.872L297.942 377.296C297.536 377.573 297.083 377.792 296.582 377.952C296.091 378.112 295.606 378.192 295.126 378.192ZM293.366 373.168H296.23C296.23 372.72 296.128 372.357 295.926 372.08C295.723 371.803 295.382 371.664 294.902 371.664C294.528 371.664 294.198 371.787 293.91 372.032C293.632 372.277 293.451 372.656 293.366 373.168Z"/><path fill="#23B5AF" d="M443 87V56C443 42.7452 432.255 32 419 32H406.896H370.793H355.576H318.969H300.571H263.775H190.184H67.001C53.7461 32 43.001 42.7452 43.001 56V59.5V87H443Z"/><ellipse cx="73.5" cy="59.5" fill="#EC9D89" rx="6.5" ry="6.588"/><ellipse cx="96.264" cy="58.844" fill="#EDBA4B" rx="5.853" ry="5.932"/><ellipse cx="119.676" cy="58.844" fill="#A9DED9" rx="5.853" ry="5.932"/><rect width="149.962" height="100.193" x="141.533" y="127.806" fill="#A9DED9" rx="10"/><rect width="149.962" height="100.193" x="141.533" y="127.806" fill="url(#paint0_linear)" rx="10"/><path fill="#fff" d="M235.83 169.721L207.835 185.6L207.835 153.841L235.83 169.721Z"/><rect width="132.936" height="1.965" x="150.702" y="217.524" fill="#fff"/><circle cx="167.729" cy="218.834" r="3.274" fill="#fff"/><rect width="72.315" height="95.291" x="301.261" y="129.846" fill="#fff" rx="8"/><rect width="72.315" height="95.291" x="301.261" y="129.846" stroke="#EDBA4B" stroke-width="4" rx="8"/><rect width="72.315" height="95.291" x="301.261" y="129.846" stroke="url(#paint1_linear)" stroke-width="4" rx="8"/><circle cx="312.8" cy="139.747" r="4.513" fill="#EC9D89"/><circle cx="312.8" cy="139.747" r="4.513" fill="url(#paint2_linear)"/><circle cx="312.8" cy="160.261" r="4.513" fill="#EC9D89"/><circle cx="312.8" cy="160.261" r="4.513" fill="url(#paint3_linear)"/><circle cx="312.8" cy="181.598" r="4.513" fill="#EC9D89"/><circle cx="312.8" cy="181.598" r="4.513" fill="url(#paint4_linear)"/><circle cx="312.8" cy="202.114" r="4.513" fill="#EC9D89"/><circle cx="312.8" cy="202.114" r="4.513" fill="url(#paint5_linear)"/><rect width="40.209" height="2.462" x="323.877" y="135.233" fill="#A9DED9" rx="1.231"/><rect width="21.335" height="3.282" x="323.877" y="141.796" fill="#A9DED9" rx="1.641"/><rect width="40.209" height="3.282" x="323.877" y="155.748" fill="#A9DED9" rx="1.641"/><rect width="45.132" height="2.462" x="323.877" y="163.131" fill="#A9DED9" rx="1.231"/><rect width="40.209" height="2.462" x="323.877" y="177.085" fill="#A9DED9" rx="1.231"/><rect width="40.209" height="3.282" x="323.877" y="183.647" fill="#A9DED9" rx="1.641"/><rect width="32.003" height="3.282" x="323.877" y="197.601" fill="#A9DED9" rx="1.641"/><rect width="22.156" height="3.282" x="323.877" y="211.547" fill="#A9DED9" rx="1.641"/><rect width="45.132" height="2.462" x="323.877" y="204.982" fill="#A9DED9" rx="1.231"/><rect width="62.215" height="37.087" x="110.425" y="111" fill="url(#paint6_linear)" rx="4"/><path fill="#fff" d="M125.687 135.241V124.841H128.439V132.937H132.375V135.241H125.687ZM134.971 135.241V124.841H137.723V135.241H134.971ZM142.594 135.241L139.522 124.841H142.434L143.522 129.385C143.671 129.94 143.799 130.489 143.906 131.033C144.012 131.567 144.14 132.116 144.29 132.681H144.354C144.503 132.116 144.631 131.567 144.738 131.033C144.855 130.489 144.983 129.94 145.122 129.385L146.178 124.841H148.994L145.922 135.241H142.594ZM150.79 135.241V124.841H157.51V127.145H153.542V128.777H156.934V131.081H153.542V132.937H157.67V135.241H150.79Z"/><circle cx="47.932" cy="185.908" r="17.215" fill="url(#paint7_linear)" transform="rotate(10.8591 47.9319 185.908)"/><circle cx="47.932" cy="185.908" r="17.215" stroke="url(#paint8_linear)" stroke-width="5" transform="rotate(10.8591 47.9319 185.908)"/><circle cx="47.932" cy="185.908" r="17.215" stroke="url(#paint9_linear)" stroke-width="5" transform="rotate(10.8591 47.9319 185.908)"/><circle cx="47.931" cy="185.907" r="12.806" stroke="#fff" stroke-width="3" transform="rotate(10.8591 47.9314 185.907)"/><rect width="8.497" height="11.585" x="50.609" y="157.477" fill="url(#paint10_linear)" rx="4" transform="rotate(12.0756 50.6095 157.477)"/><rect width="8.497" height="11.585" x="53.554" y="202.618" fill="url(#paint11_linear)" rx="4.249" transform="rotate(-29.8805 53.5543 202.618)"/><rect width="8.497" height="11.585" x="62.761" y="194.231" fill="url(#paint12_linear)" rx="4.249" transform="rotate(-73.1141 62.761 194.231)"/><rect width="8.497" height="11.585" x="64.679" y="181.646" fill="url(#paint13_linear)" rx="4" transform="rotate(-118.75 64.6792 181.646)"/><rect width="8.497" height="11.585" x="40.3" y="201.236" fill="url(#paint14_linear)" rx="4.249" transform="rotate(14.1778 40.3004 201.236)"/><rect width="8.497" height="11.585" x="31.336" y="191.777" fill="url(#paint15_linear)" rx="4.249" transform="rotate(59.4087 31.3363 191.777)"/><rect width="8.497" height="11.585" x="31.924" y="178.415" fill="url(#paint16_linear)" rx="4.249" transform="rotate(99.9113 31.9243 178.415)"/><rect width="8.497" height="11.585" x="42.682" y="168.896" fill="url(#paint17_linear)" rx="4.249" transform="rotate(147.937 42.6818 168.896)"/><circle cx="47.932" cy="185.908" r="9.766" fill="#fff" stroke="url(#paint18_linear)" stroke-width="5" transform="rotate(10.8591 47.9319 185.908)"/><circle cx="414.181" cy="27.307" r="13.217" fill="url(#paint19_linear)" transform="rotate(10.8591 414.181 27.3068)"/><circle cx="414.181" cy="27.307" r="13.217" stroke="url(#paint20_linear)" stroke-width="5" transform="rotate(10.8591 414.181 27.3068)"/><circle cx="414.181" cy="27.307" r="13.217" stroke="url(#paint21_linear)" stroke-width="5" transform="rotate(10.8591 414.181 27.3068)"/><circle cx="414.18" cy="27.307" r="9.905" stroke="#fff" stroke-width="3" transform="rotate(10.8591 414.18 27.3068)"/><rect width="6.774" height="9.236" x="416.315" y="4.642" fill="url(#paint22_linear)" rx="3.387" transform="rotate(12.0756 416.315 4.6416)"/><rect width="6.774" height="9.236" x="418.662" y="40.628" fill="url(#paint23_linear)" rx="3.387" transform="rotate(-29.8805 418.662 40.6279)"/><rect width="6.774" height="9.236" x="426.002" y="33.943" fill="url(#paint24_linear)" rx="3.387" transform="rotate(-73.1141 426.002 33.9434)"/><rect width="6.774" height="9.236" x="427.531" y="23.91" fill="url(#paint25_linear)" rx="3.387" transform="rotate(-118.75 427.531 23.9102)"/><rect width="6.774" height="9.236" x="408.096" y="39.526" fill="url(#paint26_linear)" rx="3.387" transform="rotate(14.1778 408.096 39.5264)"/><rect width="6.774" height="9.236" x="400.95" y="31.986" fill="url(#paint27_linear)" rx="3.387" transform="rotate(59.4087 400.95 31.9863)"/><rect width="6.774" height="9.236" x="401.42" y="21.333" fill="url(#paint28_linear)" rx="3.387" transform="rotate(99.9113 401.42 21.333)"/><rect width="6.774" height="9.236" x="409.994" y="13.743" fill="url(#paint29_linear)" rx="3.387" transform="rotate(147.937 409.994 13.7432)"/><circle cx="414.181" cy="27.308" r="7.279" fill="#fff" stroke="url(#paint30_linear)" stroke-width="5" transform="rotate(10.8591 414.181 27.3078)"/><circle cx="22.323" cy="218.979" r="10.357" fill="url(#paint31_linear)" transform="rotate(-12.5493 22.3225 218.979)"/><circle cx="22.323" cy="218.979" r="10.357" stroke="url(#paint32_linear)" stroke-width="5" transform="rotate(-12.5493 22.3225 218.979)"/><circle cx="22.323" cy="218.979" r="10.357" stroke="url(#paint33_linear)" stroke-width="5" transform="rotate(-12.5493 22.3225 218.979)"/><circle cx="22.322" cy="218.978" r="7.83" stroke="#fff" stroke-width="3" transform="rotate(-12.5493 22.3223 218.978)"/><rect width="5.541" height="7.555" x="16.555" y="201.271" fill="url(#paint34_linear)" rx="2.771" transform="rotate(-11.3328 16.5555 201.271)"/><rect width="5.541" height="7.555" x="30.013" y="227.523" fill="url(#paint35_linear)" rx="2.771" transform="rotate(-53.2889 30.0126 227.523)"/><rect width="5.541" height="7.555" x="33.352" y="220.121" fill="url(#paint36_linear)" rx="2.771" transform="rotate(-96.5225 33.3524 220.121)"/><rect width="5.541" height="7.555" x="31.237" y="212.092" fill="url(#paint37_linear)" rx="2.771" transform="rotate(-142.159 31.2372 212.092)"/><rect width="5.541" height="7.555" x="21.726" y="230.131" fill="url(#paint38_linear)" rx="2.771" transform="rotate(-9.23064 21.7255 230.131)"/><rect width="5.541" height="7.555" x="13.909" y="226.791" fill="url(#paint39_linear)" rx="2.771" transform="rotate(36.0004 13.9091 226.791)"/><rect width="5.541" height="7.555" x="10.802" y="218.643" fill="url(#paint40_linear)" rx="2.771" transform="rotate(76.5029 10.8016 218.643)"/><rect width="5.541" height="7.555" x="14.77" y="210.16" fill="url(#paint41_linear)" rx="2.771" transform="rotate(124.529 14.7704 210.16)"/><circle cx="22.323" cy="218.98" r="5.5" fill="#fff" stroke="url(#paint42_linear)" stroke-width="5" transform="rotate(-12.5493 22.3228 218.98)"/><circle cx="42.078" cy="243.109" r="8.75" fill="url(#paint43_linear)" transform="rotate(-3.99238 42.0776 243.109)"/><circle cx="42.078" cy="243.109" r="8.75" stroke="url(#paint44_linear)" stroke-width="5" transform="rotate(-3.99238 42.0776 243.109)"/><circle cx="42.078" cy="243.109" r="8.75" stroke="url(#paint45_linear)" stroke-width="5" transform="rotate(-3.99238 42.0776 243.109)"/><circle cx="42.077" cy="243.109" r="6.663" stroke="#fff" stroke-width="3" transform="rotate(-3.99238 42.0767 243.109)"/><rect width="4.849" height="6.611" x="39.396" y="227.038" fill="url(#paint46_linear)" rx="2.424" transform="rotate(-2.77589 39.3964 227.038)"/><rect width="4.849" height="6.611" x="47.621" y="251.505" fill="url(#paint47_linear)" rx="2.424" transform="rotate(-44.732 47.6206 251.505)"/><rect width="4.849" height="6.611" x="51.472" y="245.534" fill="url(#paint48_linear)" rx="2.424" transform="rotate(-87.9655 51.4718 245.534)"/><rect width="4.849" height="6.611" x="50.69" y="238.312" fill="url(#paint49_linear)" rx="2.424" transform="rotate(-133.602 50.6903 238.312)"/><rect width="4.849" height="6.611" x="40.109" y="252.681" fill="url(#paint50_linear)" rx="2.424" transform="rotate(-0.673692 40.1093 252.681)"/><rect width="4.849" height="6.611" x="33.781" y="248.775" fill="url(#paint51_linear)" rx="2.424" transform="rotate(44.5573 33.7812 248.775)"/><rect width="4.849" height="6.611" x="32.152" y="241.32" fill="url(#paint52_linear)" rx="2.424" transform="rotate(85.0599 32.152 241.32)"/><rect width="4.849" height="6.611" x="36.692" y="234.495" fill="url(#paint53_linear)" rx="2.424" transform="rotate(133.086 36.6917 234.495)"/><circle cx="42.079" cy="243.112" r="4.5" fill="#fff" stroke="url(#paint54_linear)" stroke-width="5" transform="rotate(-3.99238 42.0791 243.112)"/><circle cx="440.553" cy="51.244" r="7.75" fill="url(#paint55_linear)"/><circle cx="440.553" cy="51.244" r="7.75" stroke="url(#paint56_linear)" stroke-width="5"/><circle cx="440.553" cy="51.244" r="7.75" stroke="url(#paint57_linear)" stroke-width="5"/><circle cx="440.553" cy="51.244" r="5.938" stroke="#fff" stroke-width="3"/><rect width="4.418" height="6.023" x="439.135" y="36.465" fill="url(#paint58_linear)" rx="2.209" transform="rotate(1.21648 439.135 36.4648)"/><rect width="4.418" height="6.023" x="445.06" y="59.226" fill="url(#paint59_linear)" rx="2.209" transform="rotate(-40.7396 445.06 59.2256)"/><rect width="4.418" height="6.023" x="448.939" y="54.042" fill="url(#paint60_linear)" rx="2.209" transform="rotate(-83.9731 448.939 54.042)"/><rect width="4.418" height="6.023" x="448.686" y="47.429" fill="url(#paint61_linear)" rx="2.209" transform="rotate(-129.609 448.686 47.4287)"/><rect width="4.418" height="6.023" x="438.157" y="59.818" fill="url(#paint62_linear)" rx="2.209" transform="rotate(3.31869 438.157 59.8184)"/><rect width="4.418" height="6.023" x="432.654" y="55.866" fill="url(#paint63_linear)" rx="2.209" transform="rotate(48.5497 432.654 55.8662)"/><rect width="4.418" height="6.023" x="431.646" y="48.986" fill="url(#paint64_linear)" rx="2.209" transform="rotate(89.0523 431.646 48.9863)"/><rect width="4.418" height="6.023" x="436.205" y="43.072" fill="url(#paint65_linear)" rx="2.209" transform="rotate(137.078 436.205 43.0723)"/><circle cx="440.553" cy="51.245" r="3.877" fill="#fff" stroke="url(#paint66_linear)" stroke-width="5"/><defs><linearGradient id="paint0_linear" x1="233.96" x2="216.514" y1="88.276" y2="227.999" gradientUnits="userSpaceOnUse"><stop stop-color="#23B5AF"/><stop offset="1" stop-color="#fff" stop-opacity="0"/></linearGradient><linearGradient id="paint1_linear" x1="416.792" x2="324.633" y1="97.753" y2="224.237" gradientUnits="userSpaceOnUse"><stop stop-color="#fff"/><stop offset="1" stop-color="#fff" stop-opacity="0"/></linearGradient><linearGradient id="paint2_linear" x1="312.8" x2="312.8" y1="135.233" y2="144.26" gradientUnits="userSpaceOnUse"><stop stop-color="#fff" stop-opacity=".39"/><stop offset="1" stop-color="#fff" stop-opacity="0"/></linearGradient><linearGradient id="paint3_linear" x1="312.8" x2="312.8" y1="155.748" y2="164.775" gradientUnits="userSpaceOnUse"><stop stop-color="#fff" stop-opacity=".39"/><stop offset="1" stop-color="#fff" stop-opacity="0"/></linearGradient><linearGradient id="paint4_linear" x1="312.8" x2="312.8" y1="177.085" y2="186.111" gradientUnits="userSpaceOnUse"><stop stop-color="#fff" stop-opacity=".39"/><stop offset="1" stop-color="#fff" stop-opacity="0"/></linearGradient><linearGradient id="paint5_linear" x1="312.8" x2="312.8" y1="197.601" y2="206.627" gradientUnits="userSpaceOnUse"><stop stop-color="#fff" stop-opacity=".39"/><stop offset="1" stop-color="#fff" stop-opacity="0"/></linearGradient><linearGradient id="paint6_linear" x1="141.532" x2="141.532" y1="111" y2="148.087" gradientUnits="userSpaceOnUse"><stop stop-color="#E88971"/><stop offset=".752" stop-color="#EC9782"/><stop offset="1" stop-color="#F6BAAA"/></linearGradient><linearGradient id="paint7_linear" x1="47.932" x2="47.932" y1="166.193" y2="205.622" gradientUnits="userSpaceOnUse"><stop stop-color="#FAE0A1"/><stop offset="1" stop-color="#FFD571"/></linearGradient><linearGradient id="paint8_linear" x1="47.932" x2="47.932" y1="166.193" y2="205.622" gradientUnits="userSpaceOnUse"><stop stop-color="#FAE0A1"/><stop offset="1" stop-color="#FFD571"/></linearGradient><linearGradient id="paint9_linear" x1="47.932" x2="47.932" y1="166.193" y2="205.622" gradientUnits="userSpaceOnUse"><stop stop-color="#FAE0A1"/><stop offset="1" stop-color="#FFD571"/></linearGradient><linearGradient id="paint10_linear" x1="54.858" x2="54.858" y1="157.477" y2="169.061" gradientUnits="userSpaceOnUse"><stop stop-color="#FAE0A1"/><stop offset="1" stop-color="#FFD571"/></linearGradient><linearGradient id="paint11_linear" x1="57.803" x2="57.803" y1="202.618" y2="214.203" gradientUnits="userSpaceOnUse"><stop stop-color="#FAE0A1"/><stop offset="1" stop-color="#FFD571"/></linearGradient><linearGradient id="paint12_linear" x1="67.01" x2="67.01" y1="194.231" y2="205.816" gradientUnits="userSpaceOnUse"><stop stop-color="#FAE0A1"/><stop offset="1" stop-color="#FFD571"/></linearGradient><linearGradient id="paint13_linear" x1="68.928" x2="68.928" y1="181.646" y2="193.231" gradientUnits="userSpaceOnUse"><stop stop-color="#FAE0A1"/><stop offset="1" stop-color="#FFD571"/></linearGradient><linearGradient id="paint14_linear" x1="44.549" x2="44.549" y1="201.236" y2="212.821" gradientUnits="userSpaceOnUse"><stop stop-color="#FAE0A1"/><stop offset="1" stop-color="#FFD571"/></linearGradient><linearGradient id="paint15_linear" x1="35.585" x2="35.585" y1="191.777" y2="203.362" gradientUnits="userSpaceOnUse"><stop stop-color="#FAE0A1"/><stop offset="1" stop-color="#FFD571"/></linearGradient><linearGradient id="paint16_linear" x1="36.173" x2="36.173" y1="178.415" y2="190" gradientUnits="userSpaceOnUse"><stop stop-color="#FAE0A1"/><stop offset="1" stop-color="#FFD571"/></linearGradient><linearGradient id="paint17_linear" x1="46.93" x2="46.93" y1="168.895" y2="180.48" gradientUnits="userSpaceOnUse"><stop stop-color="#FAE0A1"/><stop offset="1" stop-color="#FFD571"/></linearGradient><linearGradient id="paint18_linear" x1="47.932" x2="47.932" y1="173.642" y2="198.175" gradientUnits="userSpaceOnUse"><stop stop-color="#FAE0A1"/><stop offset="1" stop-color="#FFD571"/></linearGradient><linearGradient id="paint19_linear" x1="414.181" x2="414.181" y1="11.59" y2="43.024" gradientUnits="userSpaceOnUse"><stop stop-color="#FAE0A1"/><stop offset="1" stop-color="#FFD571"/></linearGradient><linearGradient id="paint20_linear" x1="414.181" x2="414.181" y1="11.59" y2="43.024" gradientUnits="userSpaceOnUse"><stop stop-color="#FAE0A1"/><stop offset="1" stop-color="#FFD571"/></linearGradient><linearGradient id="paint21_linear" x1="414.181" x2="414.181" y1="11.59" y2="43.024" gradientUnits="userSpaceOnUse"><stop stop-color="#FAE0A1"/><stop offset="1" stop-color="#FFD571"/></linearGradient><linearGradient id="paint22_linear" x1="419.702" x2="419.702" y1="4.642" y2="13.877" gradientUnits="userSpaceOnUse"><stop stop-color="#FAE0A1"/><stop offset="1" stop-color="#FFD571"/></linearGradient><linearGradient id="paint23_linear" x1="422.05" x2="422.05" y1="40.628" y2="49.864" gradientUnits="userSpaceOnUse"><stop stop-color="#FAE0A1"/><stop offset="1" stop-color="#FFD571"/></linearGradient><linearGradient id="paint24_linear" x1="429.389" x2="429.389" y1="33.943" y2="43.179" gradientUnits="userSpaceOnUse"><stop stop-color="#FAE0A1"/><stop offset="1" stop-color="#FFD571"/></linearGradient><linearGradient id="paint25_linear" x1="430.918" x2="430.918" y1="23.91" y2="33.146" gradientUnits="userSpaceOnUse"><stop stop-color="#FAE0A1"/><stop offset="1" stop-color="#FFD571"/></linearGradient><linearGradient id="paint26_linear" x1="411.483" x2="411.483" y1="39.526" y2="48.762" gradientUnits="userSpaceOnUse"><stop stop-color="#FAE0A1"/><stop offset="1" stop-color="#FFD571"/></linearGradient><linearGradient id="paint27_linear" x1="404.338" x2="404.338" y1="31.986" y2="41.222" gradientUnits="userSpaceOnUse"><stop stop-color="#FAE0A1"/><stop offset="1" stop-color="#FFD571"/></linearGradient><linearGradient id="paint28_linear" x1="404.807" x2="404.807" y1="21.333" y2="30.569" gradientUnits="userSpaceOnUse"><stop stop-color="#FAE0A1"/><stop offset="1" stop-color="#FFD571"/></linearGradient><linearGradient id="paint29_linear" x1="413.381" x2="413.381" y1="13.743" y2="22.979" gradientUnits="userSpaceOnUse"><stop stop-color="#FAE0A1"/><stop offset="1" stop-color="#FFD571"/></linearGradient><linearGradient id="paint30_linear" x1="414.181" x2="414.181" y1="17.529" y2="37.087" gradientUnits="userSpaceOnUse"><stop stop-color="#FAE0A1"/><stop offset="1" stop-color="#FFD571"/></linearGradient><linearGradient id="paint31_linear" x1="22.323" x2="22.323" y1="206.122" y2="231.836" gradientUnits="userSpaceOnUse"><stop stop-color="#FAE0A1"/><stop offset="1" stop-color="#FFD571"/></linearGradient><linearGradient id="paint32_linear" x1="22.323" x2="22.323" y1="206.122" y2="231.836" gradientUnits="userSpaceOnUse"><stop stop-color="#FAE0A1"/><stop offset="1" stop-color="#FFD571"/></linearGradient><linearGradient id="paint33_linear" x1="22.323" x2="22.323" y1="206.122" y2="231.836" gradientUnits="userSpaceOnUse"><stop stop-color="#FAE0A1"/><stop offset="1" stop-color="#FFD571"/></linearGradient><linearGradient id="paint34_linear" x1="19.326" x2="19.326" y1="201.271" y2="208.826" gradientUnits="userSpaceOnUse"><stop stop-color="#FAE0A1"/><stop offset="1" stop-color="#FFD571"/></linearGradient><linearGradient id="paint35_linear" x1="32.783" x2="32.783" y1="227.523" y2="235.078" gradientUnits="userSpaceOnUse"><stop stop-color="#FAE0A1"/><stop offset="1" stop-color="#FFD571"/></linearGradient><linearGradient id="paint36_linear" x1="36.123" x2="36.123" y1="220.121" y2="227.676" gradientUnits="userSpaceOnUse"><stop stop-color="#FAE0A1"/><stop offset="1" stop-color="#FFD571"/></linearGradient><linearGradient id="paint37_linear" x1="34.008" x2="34.008" y1="212.092" y2="219.647" gradientUnits="userSpaceOnUse"><stop stop-color="#FAE0A1"/><stop offset="1" stop-color="#FFD571"/></linearGradient><linearGradient id="paint38_linear" x1="24.496" x2="24.496" y1="230.131" y2="237.686" gradientUnits="userSpaceOnUse"><stop stop-color="#FAE0A1"/><stop offset="1" stop-color="#FFD571"/></linearGradient><linearGradient id="paint39_linear" x1="16.68" x2="16.68" y1="226.791" y2="234.346" gradientUnits="userSpaceOnUse"><stop stop-color="#FAE0A1"/><stop offset="1" stop-color="#FFD571"/></linearGradient><linearGradient id="paint40_linear" x1="13.572" x2="13.572" y1="218.643" y2="226.197" gradientUnits="userSpaceOnUse"><stop stop-color="#FAE0A1"/><stop offset="1" stop-color="#FFD571"/></linearGradient><linearGradient id="paint41_linear" x1="17.541" x2="17.541" y1="210.16" y2="217.715" gradientUnits="userSpaceOnUse"><stop stop-color="#FAE0A1"/><stop offset="1" stop-color="#FFD571"/></linearGradient><linearGradient id="paint42_linear" x1="22.323" x2="22.323" y1="210.981" y2="226.98" gradientUnits="userSpaceOnUse"><stop stop-color="#FAE0A1"/><stop offset="1" stop-color="#FFD571"/></linearGradient><linearGradient id="paint43_linear" x1="42.078" x2="42.078" y1="231.859" y2="254.359" gradientUnits="userSpaceOnUse"><stop stop-color="#FAE0A1"/><stop offset="1" stop-color="#FFD571"/></linearGradient><linearGradient id="paint44_linear" x1="42.078" x2="42.078" y1="231.859" y2="254.359" gradientUnits="userSpaceOnUse"><stop stop-color="#FAE0A1"/><stop offset="1" stop-color="#FFD571"/></linearGradient><linearGradient id="paint45_linear" x1="42.078" x2="42.078" y1="231.859" y2="254.359" gradientUnits="userSpaceOnUse"><stop stop-color="#FAE0A1"/><stop offset="1" stop-color="#FFD571"/></linearGradient><linearGradient id="paint46_linear" x1="41.821" x2="41.821" y1="227.038" y2="233.649" gradientUnits="userSpaceOnUse"><stop stop-color="#FAE0A1"/><stop offset="1" stop-color="#FFD571"/></linearGradient><linearGradient id="paint47_linear" x1="50.045" x2="50.045" y1="251.505" y2="258.115" gradientUnits="userSpaceOnUse"><stop stop-color="#FAE0A1"/><stop offset="1" stop-color="#FFD571"/></linearGradient><linearGradient id="paint48_linear" x1="53.896" x2="53.896" y1="245.534" y2="252.145" gradientUnits="userSpaceOnUse"><stop stop-color="#FAE0A1"/><stop offset="1" stop-color="#FFD571"/></linearGradient><linearGradient id="paint49_linear" x1="53.115" x2="53.115" y1="238.313" y2="244.923" gradientUnits="userSpaceOnUse"><stop stop-color="#FAE0A1"/><stop offset="1" stop-color="#FFD571"/></linearGradient><linearGradient id="paint50_linear" x1="42.534" x2="42.534" y1="252.681" y2="259.291" gradientUnits="userSpaceOnUse"><stop stop-color="#FAE0A1"/><stop offset="1" stop-color="#FFD571"/></linearGradient><linearGradient id="paint51_linear" x1="36.206" x2="36.206" y1="248.775" y2="255.386" gradientUnits="userSpaceOnUse"><stop stop-color="#FAE0A1"/><stop offset="1" stop-color="#FFD571"/></linearGradient><linearGradient id="paint52_linear" x1="34.576" x2="34.576" y1="241.32" y2="247.931" gradientUnits="userSpaceOnUse"><stop stop-color="#FAE0A1"/><stop offset="1" stop-color="#FFD571"/></linearGradient><linearGradient id="paint53_linear" x1="39.116" x2="39.116" y1="234.495" y2="241.106" gradientUnits="userSpaceOnUse"><stop stop-color="#FAE0A1"/><stop offset="1" stop-color="#FFD571"/></linearGradient><linearGradient id="paint54_linear" x1="42.079" x2="42.079" y1="236.113" y2="250.112" gradientUnits="userSpaceOnUse"><stop stop-color="#FAE0A1"/><stop offset="1" stop-color="#FFD571"/></linearGradient><linearGradient id="paint55_linear" x1="440.553" x2="440.553" y1="40.994" y2="61.494" gradientUnits="userSpaceOnUse"><stop stop-color="#FAE0A1"/><stop offset="1" stop-color="#FFD571"/></linearGradient><linearGradient id="paint56_linear" x1="440.553" x2="440.553" y1="40.994" y2="61.494" gradientUnits="userSpaceOnUse"><stop stop-color="#FAE0A1"/><stop offset="1" stop-color="#FFD571"/></linearGradient><linearGradient id="paint57_linear" x1="440.553" x2="440.553" y1="40.994" y2="61.494" gradientUnits="userSpaceOnUse"><stop stop-color="#FAE0A1"/><stop offset="1" stop-color="#FFD571"/></linearGradient><linearGradient id="paint58_linear" x1="441.344" x2="441.344" y1="36.465" y2="42.488" gradientUnits="userSpaceOnUse"><stop stop-color="#FAE0A1"/><stop offset="1" stop-color="#FFD571"/></linearGradient><linearGradient id="paint59_linear" x1="447.269" x2="447.269" y1="59.226" y2="65.249" gradientUnits="userSpaceOnUse"><stop stop-color="#FAE0A1"/><stop offset="1" stop-color="#FFD571"/></linearGradient><linearGradient id="paint60_linear" x1="451.148" x2="451.148" y1="54.042" y2="60.065" gradientUnits="userSpaceOnUse"><stop stop-color="#FAE0A1"/><stop offset="1" stop-color="#FFD571"/></linearGradient><linearGradient id="paint61_linear" x1="450.895" x2="450.895" y1="47.429" y2="53.452" gradientUnits="userSpaceOnUse"><stop stop-color="#FAE0A1"/><stop offset="1" stop-color="#FFD571"/></linearGradient><linearGradient id="paint62_linear" x1="440.366" x2="440.366" y1="59.818" y2="65.841" gradientUnits="userSpaceOnUse"><stop stop-color="#FAE0A1"/><stop offset="1" stop-color="#FFD571"/></linearGradient><linearGradient id="paint63_linear" x1="434.863" x2="434.863" y1="55.866" y2="61.889" gradientUnits="userSpaceOnUse"><stop stop-color="#FAE0A1"/><stop offset="1" stop-color="#FFD571"/></linearGradient><linearGradient id="paint64_linear" x1="433.855" x2="433.855" y1="48.986" y2="55.009" gradientUnits="userSpaceOnUse"><stop stop-color="#FAE0A1"/><stop offset="1" stop-color="#FFD571"/></linearGradient><linearGradient id="paint65_linear" x1="438.414" x2="438.414" y1="43.072" y2="49.095" gradientUnits="userSpaceOnUse"><stop stop-color="#FAE0A1"/><stop offset="1" stop-color="#FFD571"/></linearGradient><linearGradient id="paint66_linear" x1="440.553" x2="440.553" y1="44.867" y2="57.622" gradientUnits="userSpaceOnUse"><stop stop-color="#FAE0A1"/><stop offset="1" stop-color="#FFD571"/></linearGradient></defs></svg>