<svg xmlns="http://www.w3.org/2000/svg" width="400" height="400" fill="none" viewBox="0 0 400 400"><rect width="392" height="392" x="4" y="4" fill="#FCFFFF" stroke="#A9DED9" stroke-width="8" rx="20"/><path fill="#717171" d="M53.6389 285.312C52.5296 285.312 51.4202 285.113 50.3109 284.714C49.2189 284.298 48.2396 283.683 47.3729 282.868L49.5569 280.242C50.1636 280.762 50.8309 281.187 51.5589 281.516C52.3042 281.845 53.0322 282.01 53.7429 282.01C54.5402 282.01 55.1296 281.863 55.5109 281.568C55.9096 281.273 56.1089 280.875 56.1089 280.372C56.1089 280.112 56.0482 279.887 55.9269 279.696C55.8229 279.505 55.6582 279.341 55.4329 279.202C55.2249 279.046 54.9649 278.907 54.6529 278.786C54.3582 278.647 54.0289 278.5 53.6649 278.344L51.4549 277.408C51.0216 277.235 50.5969 277.009 50.1809 276.732C49.7822 276.455 49.4182 276.134 49.0889 275.77C48.7769 275.389 48.5256 274.955 48.3349 274.47C48.1442 273.967 48.0489 273.404 48.0489 272.78C48.0489 272.087 48.1962 271.437 48.4909 270.83C48.7856 270.206 49.2016 269.669 49.7389 269.218C50.2762 268.75 50.9089 268.386 51.6369 268.126C52.3822 267.866 53.1969 267.736 54.0809 267.736C55.0689 267.736 56.0396 267.927 56.9929 268.308C57.9636 268.689 58.8129 269.244 59.5409 269.972L57.5909 272.39C57.0362 271.957 56.4816 271.627 55.9269 271.402C55.3722 271.159 54.7569 271.038 54.0809 271.038C53.4222 271.038 52.8936 271.177 52.4949 271.454C52.1136 271.714 51.9229 272.087 51.9229 272.572C51.9229 272.832 51.9836 273.057 52.1049 273.248C52.2436 273.421 52.4256 273.586 52.6509 273.742C52.8936 273.881 53.1709 274.019 53.4829 274.158C53.7949 274.279 54.1329 274.418 54.4969 274.574L56.6809 275.458C57.7209 275.874 58.5356 276.446 59.1249 277.174C59.7316 277.902 60.0349 278.864 60.0349 280.06C60.0349 280.771 59.8876 281.447 59.5929 282.088C59.3156 282.712 58.8996 283.267 58.3449 283.752C57.8076 284.22 57.1402 284.601 56.3429 284.896C55.5456 285.173 54.6442 285.312 53.6389 285.312ZM63.9002 285V266.774H67.7222V271.246L67.5402 273.56C68.0255 273.127 68.5888 272.728 69.2302 272.364C69.8715 271.983 70.6342 271.792 71.5182 271.792C72.9222 271.792 73.9362 272.251 74.5602 273.17C75.2015 274.089 75.5222 275.363 75.5222 276.992V285H71.7002V277.486C71.7002 276.55 71.5702 275.909 71.3102 275.562C71.0675 275.215 70.6688 275.042 70.1142 275.042C69.6288 275.042 69.2128 275.155 68.8662 275.38C68.5195 275.588 68.1382 275.891 67.7222 276.29V285H63.9002ZM85.5917 285.312C84.777 285.312 83.9883 285.165 83.2257 284.87C82.463 284.558 81.787 284.116 81.1977 283.544C80.6257 282.972 80.1663 282.27 79.8197 281.438C79.473 280.589 79.2997 279.627 79.2997 278.552C79.2997 277.477 79.473 276.524 79.8197 275.692C80.1663 274.843 80.6257 274.132 81.1977 273.56C81.787 272.988 82.463 272.555 83.2257 272.26C83.9883 271.948 84.777 271.792 85.5917 271.792C86.4063 271.792 87.1863 271.948 87.9317 272.26C88.6943 272.555 89.3617 272.988 89.9337 273.56C90.523 274.132 90.991 274.843 91.3377 275.692C91.6843 276.524 91.8577 277.477 91.8577 278.552C91.8577 279.627 91.6843 280.589 91.3377 281.438C90.991 282.27 90.523 282.972 89.9337 283.544C89.3617 284.116 88.6943 284.558 87.9317 284.87C87.1863 285.165 86.4063 285.312 85.5917 285.312ZM85.5917 282.218C86.3717 282.218 86.961 281.889 87.3597 281.23C87.7583 280.571 87.9577 279.679 87.9577 278.552C87.9577 277.425 87.7583 276.533 87.3597 275.874C86.961 275.215 86.3717 274.886 85.5917 274.886C84.7943 274.886 84.1963 275.215 83.7977 275.874C83.4163 276.533 83.2257 277.425 83.2257 278.552C83.2257 279.679 83.4163 280.571 83.7977 281.23C84.1963 281.889 84.7943 282.218 85.5917 282.218ZM97.7304 285L94.5064 272.104H98.3024L99.5504 278.084C99.6544 278.725 99.7498 279.358 99.8364 279.982C99.9231 280.606 100.018 281.247 100.122 281.906H100.226C100.348 281.247 100.46 280.597 100.564 279.956C100.686 279.315 100.824 278.691 100.98 278.084L102.41 272.104H105.712L107.168 278.084C107.324 278.725 107.463 279.358 107.584 279.982C107.706 280.606 107.836 281.247 107.974 281.906H108.078C108.2 281.247 108.295 280.606 108.364 279.982C108.451 279.358 108.555 278.725 108.676 278.084L109.898 272.104H113.434L110.34 285H105.868L104.698 279.852C104.56 279.245 104.438 278.639 104.334 278.032C104.23 277.425 104.118 276.775 103.996 276.082H103.892C103.771 276.775 103.658 277.425 103.554 278.032C103.468 278.639 103.364 279.245 103.242 279.852L102.098 285H97.7304ZM129.101 285.312C128.286 285.312 127.498 285.165 126.735 284.87C125.972 284.558 125.296 284.116 124.707 283.544C124.135 282.972 123.676 282.27 123.329 281.438C122.982 280.589 122.809 279.627 122.809 278.552C122.809 277.477 122.982 276.524 123.329 275.692C123.676 274.843 124.135 274.132 124.707 273.56C125.296 272.988 125.972 272.555 126.735 272.26C127.498 271.948 128.286 271.792 129.101 271.792C129.916 271.792 130.696 271.948 131.441 272.26C132.204 272.555 132.871 272.988 133.443 273.56C134.032 274.132 134.5 274.843 134.847 275.692C135.194 276.524 135.367 277.477 135.367 278.552C135.367 279.627 135.194 280.589 134.847 281.438C134.5 282.27 134.032 282.972 133.443 283.544C132.871 284.116 132.204 284.558 131.441 284.87C130.696 285.165 129.916 285.312 129.101 285.312ZM129.101 282.218C129.881 282.218 130.47 281.889 130.869 281.23C131.268 280.571 131.467 279.679 131.467 278.552C131.467 277.425 131.268 276.533 130.869 275.874C130.47 275.215 129.881 274.886 129.101 274.886C128.304 274.886 127.706 275.215 127.307 275.874C126.926 276.533 126.735 277.425 126.735 278.552C126.735 279.679 126.926 280.571 127.307 281.23C127.706 281.889 128.304 282.218 129.101 282.218ZM148.024 285V275.094H143.63V285H139.808V275.094H138.092V272.26L139.808 272.13V271.532C139.808 270.873 139.895 270.249 140.068 269.66C140.259 269.071 140.545 268.559 140.926 268.126C141.325 267.693 141.827 267.355 142.434 267.112C143.058 266.852 143.812 266.722 144.696 266.722C145.251 266.722 145.762 266.774 146.23 266.878C146.698 266.965 147.079 267.069 147.374 267.19L146.672 270.024C146.464 269.937 146.247 269.868 146.022 269.816C145.797 269.764 145.511 269.738 145.164 269.738C144.713 269.738 144.341 269.885 144.046 270.18C143.769 270.457 143.63 270.899 143.63 271.506V272.104H148.024V271.428C148.024 270.752 148.102 270.111 148.258 269.504C148.431 268.897 148.709 268.369 149.09 267.918C149.471 267.467 149.965 267.112 150.572 266.852C151.179 266.592 151.915 266.462 152.782 266.462C153.319 266.462 153.805 266.514 154.238 266.618C154.689 266.722 155.061 266.826 155.356 266.93L154.654 269.738C154.169 269.565 153.727 269.478 153.328 269.478C152.86 269.478 152.496 269.625 152.236 269.92C151.976 270.197 151.846 270.665 151.846 271.324V272.104H154.16V275.094H151.846V285H148.024ZM166.209 285L162.985 272.104H166.781L168.029 278.084C168.133 278.725 168.228 279.358 168.315 279.982C168.402 280.606 168.497 281.247 168.601 281.906H168.705C168.826 281.247 168.939 280.597 169.043 279.956C169.164 279.315 169.303 278.691 169.459 278.084L170.889 272.104H174.191L175.647 278.084C175.803 278.725 175.942 279.358 176.063 279.982C176.184 280.606 176.314 281.247 176.453 281.906H176.557C176.678 281.247 176.774 280.606 176.843 279.982C176.93 279.358 177.034 278.725 177.155 278.084L178.377 272.104H181.913L178.819 285H174.347L173.177 279.852C173.038 279.245 172.917 278.639 172.813 278.032C172.709 277.425 172.596 276.775 172.475 276.082H172.371C172.25 276.775 172.137 277.425 172.033 278.032C171.946 278.639 171.842 279.245 171.721 279.852L170.577 285H166.209ZM185.536 285V266.774H189.358V271.246L189.176 273.56C189.662 273.127 190.225 272.728 190.866 272.364C191.508 271.983 192.27 271.792 193.154 271.792C194.558 271.792 195.572 272.251 196.196 273.17C196.838 274.089 197.158 275.363 197.158 276.992V285H193.336V277.486C193.336 276.55 193.206 275.909 192.946 275.562C192.704 275.215 192.305 275.042 191.75 275.042C191.265 275.042 190.849 275.155 190.502 275.38C190.156 275.588 189.774 275.891 189.358 276.29V285H185.536ZM204.94 285.312C204.351 285.312 203.813 285.208 203.328 285C202.86 284.809 202.461 284.541 202.132 284.194C201.803 283.83 201.543 283.414 201.352 282.946C201.179 282.478 201.092 281.967 201.092 281.412C201.092 280.06 201.664 279.003 202.808 278.24C203.952 277.477 205.798 276.966 208.346 276.706C208.311 276.134 208.138 275.683 207.826 275.354C207.531 275.007 207.029 274.834 206.318 274.834C205.763 274.834 205.209 274.938 204.654 275.146C204.117 275.354 203.536 275.64 202.912 276.004L201.534 273.482C202.366 272.979 203.233 272.572 204.134 272.26C205.053 271.948 206.023 271.792 207.046 271.792C208.71 271.792 209.975 272.269 210.842 273.222C211.726 274.158 212.168 275.623 212.168 277.616V285H209.048L208.788 283.674H208.684C208.129 284.159 207.549 284.558 206.942 284.87C206.335 285.165 205.668 285.312 204.94 285.312ZM206.24 282.348C206.673 282.348 207.046 282.253 207.358 282.062C207.67 281.871 207.999 281.603 208.346 281.256V278.994C206.994 279.185 206.058 279.462 205.538 279.826C205.018 280.19 204.758 280.623 204.758 281.126C204.758 281.542 204.888 281.854 205.148 282.062C205.425 282.253 205.789 282.348 206.24 282.348ZM221.21 285.312C220.413 285.312 219.728 285.191 219.156 284.948C218.601 284.705 218.142 284.367 217.778 283.934C217.431 283.501 217.171 282.981 216.998 282.374C216.842 281.75 216.764 281.065 216.764 280.32V275.094H214.996V272.26L216.972 272.104L217.414 268.672H220.586V272.104H223.68V275.094H220.586V280.268C220.586 280.996 220.733 281.525 221.028 281.854C221.34 282.166 221.747 282.322 222.25 282.322C222.458 282.322 222.666 282.296 222.874 282.244C223.099 282.192 223.299 282.131 223.472 282.062L224.07 284.844C223.723 284.948 223.316 285.052 222.848 285.156C222.38 285.26 221.834 285.312 221.21 285.312ZM235.432 290.044C235.033 290.044 234.695 290.018 234.418 289.966C234.141 289.931 233.872 289.871 233.612 289.784L234.288 286.872C234.409 286.907 234.548 286.941 234.704 286.976C234.86 287.011 235.007 287.028 235.146 287.028C235.787 287.028 236.281 286.872 236.628 286.56C236.975 286.248 237.235 285.841 237.408 285.338L237.59 284.662L232.624 272.104H236.472L238.318 277.642C238.509 278.231 238.682 278.829 238.838 279.436C238.994 280.043 239.159 280.667 239.332 281.308H239.436C239.575 280.701 239.713 280.095 239.852 279.488C240.008 278.864 240.164 278.249 240.32 277.642L241.88 272.104H245.546L241.074 285.13C240.762 285.945 240.433 286.655 240.086 287.262C239.757 287.886 239.367 288.397 238.916 288.796C238.483 289.212 237.98 289.524 237.408 289.732C236.853 289.94 236.195 290.044 235.432 290.044ZM254.196 285.312C253.381 285.312 252.592 285.165 251.83 284.87C251.067 284.558 250.391 284.116 249.802 283.544C249.23 282.972 248.77 282.27 248.424 281.438C248.077 280.589 247.904 279.627 247.904 278.552C247.904 277.477 248.077 276.524 248.424 275.692C248.77 274.843 249.23 274.132 249.802 273.56C250.391 272.988 251.067 272.555 251.83 272.26C252.592 271.948 253.381 271.792 254.196 271.792C255.01 271.792 255.79 271.948 256.536 272.26C257.298 272.555 257.966 272.988 258.538 273.56C259.127 274.132 259.595 274.843 259.942 275.692C260.288 276.524 260.462 277.477 260.462 278.552C260.462 279.627 260.288 280.589 259.942 281.438C259.595 282.27 259.127 282.972 258.538 283.544C257.966 284.116 257.298 284.558 256.536 284.87C255.79 285.165 255.01 285.312 254.196 285.312ZM254.196 282.218C254.976 282.218 255.565 281.889 255.964 281.23C256.362 280.571 256.562 279.679 256.562 278.552C256.562 277.425 256.362 276.533 255.964 275.874C255.565 275.215 254.976 274.886 254.196 274.886C253.398 274.886 252.8 275.215 252.402 275.874C252.02 276.533 251.83 277.425 251.83 278.552C251.83 279.679 252.02 280.571 252.402 281.23C252.8 281.889 253.398 282.218 254.196 282.218ZM268.253 285.312C266.849 285.312 265.827 284.853 265.185 283.934C264.561 283.015 264.249 281.741 264.249 280.112V272.104H268.071V279.618C268.071 280.554 268.201 281.195 268.461 281.542C268.721 281.889 269.129 282.062 269.683 282.062C270.169 282.062 270.576 281.949 270.905 281.724C271.235 281.499 271.59 281.135 271.971 280.632V272.104H275.793V285H272.673L272.387 283.206H272.309C271.755 283.865 271.157 284.385 270.515 284.766C269.891 285.13 269.137 285.312 268.253 285.312ZM286.962 285V272.104H290.082L290.342 273.768H290.446C290.983 273.231 291.555 272.771 292.162 272.39C292.769 271.991 293.497 271.792 294.346 271.792C295.265 271.792 296.001 271.983 296.556 272.364C297.128 272.728 297.579 273.257 297.908 273.95C298.48 273.361 299.078 272.858 299.702 272.442C300.343 272.009 301.097 271.792 301.964 271.792C303.351 271.792 304.365 272.26 305.006 273.196C305.665 274.115 305.994 275.38 305.994 276.992V285H302.172V277.486C302.172 276.55 302.042 275.909 301.782 275.562C301.539 275.215 301.141 275.042 300.586 275.042C299.945 275.042 299.208 275.458 298.376 276.29V285H294.554V277.486C294.554 276.55 294.424 275.909 294.164 275.562C293.921 275.215 293.523 275.042 292.968 275.042C292.309 275.042 291.581 275.458 290.784 276.29V285H286.962ZM313.805 285.312C313.216 285.312 312.678 285.208 312.193 285C311.725 284.809 311.326 284.541 310.997 284.194C310.668 283.83 310.408 283.414 310.217 282.946C310.044 282.478 309.957 281.967 309.957 281.412C309.957 280.06 310.529 279.003 311.673 278.24C312.817 277.477 314.663 276.966 317.211 276.706C317.176 276.134 317.003 275.683 316.691 275.354C316.396 275.007 315.894 274.834 315.183 274.834C314.628 274.834 314.074 274.938 313.519 275.146C312.982 275.354 312.401 275.64 311.777 276.004L310.399 273.482C311.231 272.979 312.098 272.572 312.999 272.26C313.918 271.948 314.888 271.792 315.911 271.792C317.575 271.792 318.84 272.269 319.707 273.222C320.591 274.158 321.033 275.623 321.033 277.616V285H317.913L317.653 283.674H317.549C316.994 284.159 316.414 284.558 315.807 284.87C315.2 285.165 314.533 285.312 313.805 285.312ZM315.105 282.348C315.538 282.348 315.911 282.253 316.223 282.062C316.535 281.871 316.864 281.603 317.211 281.256V278.994C315.859 279.185 314.923 279.462 314.403 279.826C313.883 280.19 313.623 280.623 313.623 281.126C313.623 281.542 313.753 281.854 314.013 282.062C314.29 282.253 314.654 282.348 315.105 282.348ZM330.168 285.312C329.37 285.312 328.642 285.156 327.984 284.844C327.342 284.532 326.788 284.09 326.32 283.518C325.869 282.929 325.514 282.218 325.254 281.386C325.011 280.554 324.89 279.609 324.89 278.552C324.89 277.495 325.037 276.55 325.332 275.718C325.644 274.886 326.042 274.184 326.528 273.612C327.03 273.023 327.602 272.572 328.244 272.26C328.902 271.948 329.57 271.792 330.246 271.792C330.974 271.792 331.572 271.913 332.04 272.156C332.508 272.399 332.967 272.728 333.418 273.144L333.262 271.168V266.774H337.084V285H333.964L333.704 283.726H333.6C333.149 284.177 332.62 284.558 332.014 284.87C331.407 285.165 330.792 285.312 330.168 285.312ZM331.156 282.192C331.572 282.192 331.944 282.105 332.274 281.932C332.62 281.759 332.95 281.455 333.262 281.022V275.744C332.915 275.432 332.56 275.215 332.196 275.094C331.832 274.973 331.476 274.912 331.13 274.912C330.523 274.912 329.986 275.207 329.518 275.796C329.05 276.368 328.816 277.269 328.816 278.5C328.816 279.783 329.015 280.719 329.414 281.308C329.83 281.897 330.41 282.192 331.156 282.192ZM347.542 285.312C346.623 285.312 345.765 285.165 344.968 284.87C344.171 284.558 343.477 284.116 342.888 283.544C342.299 282.955 341.839 282.244 341.51 281.412C341.181 280.58 341.016 279.627 341.016 278.552C341.016 277.512 341.189 276.576 341.536 275.744C341.883 274.895 342.333 274.184 342.888 273.612C343.46 273.023 344.11 272.572 344.838 272.26C345.566 271.948 346.32 271.792 347.1 271.792C348.019 271.792 348.816 271.948 349.492 272.26C350.185 272.572 350.757 273.005 351.208 273.56C351.676 274.115 352.023 274.773 352.248 275.536C352.473 276.281 352.586 277.096 352.586 277.98C352.586 278.327 352.569 278.656 352.534 278.968C352.499 279.28 352.465 279.514 352.43 279.67H344.708C344.881 280.606 345.263 281.299 345.852 281.75C346.459 282.183 347.195 282.4 348.062 282.4C348.981 282.4 349.908 282.114 350.844 281.542L352.118 283.856C351.459 284.307 350.723 284.662 349.908 284.922C349.111 285.182 348.322 285.312 347.542 285.312ZM344.682 277.148H349.336C349.336 276.42 349.171 275.831 348.842 275.38C348.513 274.929 347.958 274.704 347.178 274.704C346.571 274.704 346.034 274.903 345.566 275.302C345.115 275.701 344.821 276.316 344.682 277.148Z"/><path fill="#717171" d="M50.273 322.192C49.6117 322.192 49.0037 322.069 48.449 321.824C47.8944 321.579 47.409 321.227 46.993 320.768C46.5877 320.299 46.2677 319.728 46.033 319.056C45.809 318.373 45.697 317.605 45.697 316.752C45.697 315.909 45.8144 315.152 46.049 314.48C46.2837 313.808 46.609 313.237 47.025 312.768C47.441 312.299 47.9317 311.941 48.497 311.696C49.0624 311.44 49.681 311.312 50.353 311.312C50.993 311.312 51.553 311.445 52.033 311.712C52.5237 311.968 52.9237 312.267 53.233 312.608L52.513 313.472C52.2357 313.173 51.921 312.933 51.569 312.752C51.217 312.571 50.817 312.48 50.369 312.48C49.8677 312.48 49.4144 312.581 49.009 312.784C48.6037 312.976 48.257 313.259 47.969 313.632C47.681 313.995 47.457 314.437 47.297 314.96C47.1477 315.483 47.073 316.069 47.073 316.72C47.073 317.381 47.1477 317.979 47.297 318.512C47.457 319.035 47.6757 319.483 47.953 319.856C48.2304 320.229 48.5664 320.517 48.961 320.72C49.3664 320.923 49.8197 321.024 50.321 321.024C50.833 321.024 51.281 320.923 51.665 320.72C52.049 320.507 52.4117 320.213 52.753 319.84L53.489 320.672C53.073 321.152 52.6037 321.525 52.081 321.792C51.5584 322.059 50.9557 322.192 50.273 322.192ZM59.1417 322.192C58.6617 322.192 58.203 322.101 57.7657 321.92C57.339 321.739 56.9603 321.477 56.6297 321.136C56.299 320.784 56.0323 320.357 55.8297 319.856C55.6377 319.344 55.5417 318.768 55.5417 318.128C55.5417 317.477 55.6377 316.901 55.8297 316.4C56.0323 315.888 56.299 315.456 56.6297 315.104C56.9603 314.752 57.339 314.485 57.7657 314.304C58.203 314.123 58.6617 314.032 59.1417 314.032C59.6217 314.032 60.075 314.123 60.5017 314.304C60.939 314.485 61.323 314.752 61.6537 315.104C61.9843 315.456 62.2457 315.888 62.4377 316.4C62.6403 316.901 62.7417 317.477 62.7417 318.128C62.7417 318.768 62.6403 319.344 62.4377 319.856C62.2457 320.357 61.9843 320.784 61.6537 321.136C61.323 321.477 60.939 321.739 60.5017 321.92C60.075 322.101 59.6217 322.192 59.1417 322.192ZM59.1417 321.104C59.4723 321.104 59.7763 321.035 60.0537 320.896C60.331 320.747 60.5657 320.544 60.7577 320.288C60.9603 320.021 61.115 319.707 61.2217 319.344C61.3283 318.981 61.3817 318.576 61.3817 318.128C61.3817 317.68 61.3283 317.275 61.2217 316.912C61.115 316.539 60.9603 316.219 60.7577 315.952C60.5657 315.685 60.331 315.483 60.0537 315.344C59.7763 315.195 59.4723 315.12 59.1417 315.12C58.811 315.12 58.507 315.195 58.2297 315.344C57.9523 315.483 57.7123 315.685 57.5097 315.952C57.3177 316.219 57.1683 316.539 57.0617 316.912C56.955 317.275 56.9017 317.68 56.9017 318.128C56.9017 318.576 56.955 318.981 57.0617 319.344C57.1683 319.707 57.3177 320.021 57.5097 320.288C57.7123 320.544 57.9523 320.747 58.2297 320.896C58.507 321.035 58.811 321.104 59.1417 321.104ZM65.5895 322V314.224H66.6775L66.7895 315.344H66.8375C67.1789 314.971 67.5469 314.661 67.9415 314.416C68.3469 314.16 68.7842 314.032 69.2535 314.032C69.8509 314.032 70.3149 314.165 70.6455 314.432C70.9869 314.688 71.2375 315.051 71.3975 315.52C71.8029 315.072 72.2082 314.715 72.6135 314.448C73.0295 314.171 73.4775 314.032 73.9575 314.032C74.7575 314.032 75.3495 314.288 75.7335 314.8C76.1282 315.312 76.3255 316.069 76.3255 317.072V322H75.0135V317.248C75.0135 316.512 74.8962 315.984 74.6615 315.664C74.4269 315.333 74.0642 315.168 73.5735 315.168C72.9869 315.168 72.3362 315.568 71.6215 316.368V322H70.3095V317.248C70.3095 316.512 70.1922 315.984 69.9575 315.664C69.7229 315.333 69.3549 315.168 68.8535 315.168C68.2669 315.168 67.6162 315.568 66.9015 316.368V322H65.5895ZM79.6552 325.28V314.224H80.7432L80.8552 315.12H80.9032C81.2552 314.821 81.6392 314.565 82.0552 314.352C82.4818 314.139 82.9245 314.032 83.3832 314.032C83.8845 314.032 84.3272 314.128 84.7112 314.32C85.0952 314.501 85.4152 314.768 85.6712 315.12C85.9272 315.461 86.1192 315.877 86.2472 316.368C86.3858 316.848 86.4552 317.392 86.4552 318C86.4552 318.661 86.3645 319.253 86.1832 319.776C86.0018 320.288 85.7565 320.725 85.4472 321.088C85.1378 321.451 84.7805 321.728 84.3752 321.92C83.9698 322.101 83.5432 322.192 83.0952 322.192C82.7325 322.192 82.3698 322.112 82.0072 321.952C81.6552 321.792 81.2978 321.573 80.9352 321.296L80.9672 322.656V325.28H79.6552ZM82.8712 321.088C83.1912 321.088 83.4845 321.019 83.7512 320.88C84.0285 320.731 84.2632 320.528 84.4552 320.272C84.6578 320.005 84.8125 319.68 84.9192 319.296C85.0365 318.912 85.0952 318.48 85.0952 318C85.0952 317.573 85.0578 317.184 84.9832 316.832C84.9085 316.48 84.7858 316.181 84.6152 315.936C84.4552 315.68 84.2418 315.483 83.9752 315.344C83.7192 315.205 83.4098 315.136 83.0472 315.136C82.7165 315.136 82.3805 315.227 82.0392 315.408C81.7085 315.589 81.3512 315.851 80.9672 316.192V320.272C81.3192 320.571 81.6605 320.784 81.9912 320.912C82.3218 321.029 82.6152 321.088 82.8712 321.088ZM90.7222 322.192C90.2208 322.192 89.8635 322.043 89.6502 321.744C89.4368 321.445 89.3302 321.008 89.3302 320.432V310.608H90.6422V320.528C90.6422 320.741 90.6795 320.891 90.7542 320.976C90.8288 321.061 90.9142 321.104 91.0102 321.104C91.0528 321.104 91.0902 321.104 91.1222 321.104C91.1648 321.104 91.2235 321.093 91.2982 321.072L91.4742 322.064C91.3888 322.107 91.2875 322.139 91.1702 322.16C91.0528 322.181 90.9035 322.192 90.7222 322.192ZM97.3603 322.192C96.8376 322.192 96.347 322.101 95.8883 321.92C95.4403 321.728 95.0456 321.461 94.7043 321.12C94.3736 320.768 94.1123 320.341 93.9203 319.84C93.7283 319.339 93.6323 318.768 93.6323 318.128C93.6323 317.488 93.7283 316.917 93.9203 316.416C94.123 315.904 94.3843 315.472 94.7043 315.12C95.035 314.768 95.4083 314.501 95.8243 314.32C96.2403 314.128 96.6723 314.032 97.1203 314.032C97.611 314.032 98.0483 314.117 98.4323 314.288C98.827 314.459 99.1523 314.704 99.4083 315.024C99.675 315.344 99.8776 315.728 100.016 316.176C100.155 316.624 100.224 317.125 100.224 317.68C100.224 317.819 100.219 317.957 100.208 318.096C100.208 318.224 100.198 318.336 100.176 318.432H94.9283C94.9816 319.264 95.2376 319.925 95.6963 320.416C96.1656 320.896 96.7736 321.136 97.5203 321.136C97.8936 321.136 98.235 321.083 98.5443 320.976C98.8643 320.859 99.1683 320.709 99.4563 320.528L99.9203 321.392C99.579 321.605 99.2003 321.792 98.7843 321.952C98.3683 322.112 97.8936 322.192 97.3603 322.192ZM94.9123 317.488H99.0723C99.0723 316.699 98.9016 316.101 98.5603 315.696C98.2296 315.28 97.7603 315.072 97.1523 315.072C96.875 315.072 96.6083 315.125 96.3523 315.232C96.107 315.339 95.883 315.499 95.6803 315.712C95.4776 315.915 95.307 316.165 95.1683 316.464C95.0403 316.763 94.955 317.104 94.9123 317.488ZM105.238 322.192C104.822 322.192 104.47 322.128 104.182 322C103.904 321.872 103.675 321.696 103.494 321.472C103.323 321.248 103.2 320.976 103.126 320.656C103.051 320.336 103.014 319.984 103.014 319.6V315.296H101.862V314.304L103.078 314.224L103.238 312.048H104.342V314.224H106.438V315.296H104.342V319.616C104.342 320.096 104.427 320.469 104.598 320.736C104.779 320.992 105.094 321.12 105.542 321.12C105.68 321.12 105.83 321.099 105.99 321.056C106.15 321.013 106.294 320.965 106.422 320.912L106.678 321.904C106.464 321.979 106.23 322.043 105.974 322.096C105.728 322.16 105.483 322.192 105.238 322.192ZM111.929 322.192C111.406 322.192 110.916 322.101 110.457 321.92C110.009 321.728 109.614 321.461 109.273 321.12C108.942 320.768 108.681 320.341 108.489 319.84C108.297 319.339 108.201 318.768 108.201 318.128C108.201 317.488 108.297 316.917 108.489 316.416C108.692 315.904 108.953 315.472 109.273 315.12C109.604 314.768 109.977 314.501 110.393 314.32C110.809 314.128 111.241 314.032 111.689 314.032C112.18 314.032 112.617 314.117 113.001 314.288C113.396 314.459 113.721 314.704 113.977 315.024C114.244 315.344 114.446 315.728 114.585 316.176C114.724 316.624 114.793 317.125 114.793 317.68C114.793 317.819 114.788 317.957 114.777 318.096C114.777 318.224 114.766 318.336 114.745 318.432H109.497C109.55 319.264 109.806 319.925 110.265 320.416C110.734 320.896 111.342 321.136 112.089 321.136C112.462 321.136 112.804 321.083 113.113 320.976C113.433 320.859 113.737 320.709 114.025 320.528L114.489 321.392C114.148 321.605 113.769 321.792 113.353 321.952C112.937 322.112 112.462 322.192 111.929 322.192ZM109.481 317.488H113.641C113.641 316.699 113.47 316.101 113.129 315.696C112.798 315.28 112.329 315.072 111.721 315.072C111.444 315.072 111.177 315.125 110.921 315.232C110.676 315.339 110.452 315.499 110.249 315.712C110.046 315.915 109.876 316.165 109.737 316.464C109.609 316.763 109.524 317.104 109.481 317.488ZM123.31 322.192C122.659 322.192 122.115 322 121.678 321.616C121.251 321.232 121.038 320.688 121.038 319.984C121.038 319.131 121.416 318.48 122.174 318.032C122.931 317.573 124.142 317.253 125.806 317.072C125.806 316.827 125.779 316.587 125.726 316.352C125.683 316.117 125.603 315.909 125.486 315.728C125.368 315.547 125.203 315.403 124.99 315.296C124.787 315.179 124.526 315.12 124.206 315.12C123.758 315.12 123.336 315.205 122.942 315.376C122.547 315.547 122.195 315.739 121.886 315.952L121.374 315.04C121.736 314.805 122.179 314.581 122.702 314.368C123.224 314.144 123.8 314.032 124.43 314.032C125.379 314.032 126.067 314.325 126.494 314.912C126.92 315.488 127.134 316.261 127.134 317.232V322H126.046L125.934 321.072H125.886C125.512 321.381 125.112 321.648 124.686 321.872C124.259 322.085 123.8 322.192 123.31 322.192ZM123.694 321.136C124.067 321.136 124.419 321.051 124.75 320.88C125.08 320.699 125.432 320.437 125.806 320.096V317.936C125.155 318.021 124.606 318.123 124.158 318.24C123.72 318.357 123.363 318.496 123.086 318.656C122.819 318.816 122.622 319.003 122.494 319.216C122.376 319.419 122.318 319.643 122.318 319.888C122.318 320.336 122.451 320.656 122.718 320.848C122.984 321.04 123.31 321.136 123.694 321.136ZM134.383 325.28V314.224H135.471L135.583 315.12H135.631C135.983 314.821 136.367 314.565 136.783 314.352C137.21 314.139 137.653 314.032 138.111 314.032C138.613 314.032 139.055 314.128 139.439 314.32C139.823 314.501 140.143 314.768 140.399 315.12C140.655 315.461 140.847 315.877 140.975 316.368C141.114 316.848 141.183 317.392 141.183 318C141.183 318.661 141.093 319.253 140.911 319.776C140.73 320.288 140.485 320.725 140.175 321.088C139.866 321.451 139.509 321.728 139.103 321.92C138.698 322.101 138.271 322.192 137.823 322.192C137.461 322.192 137.098 322.112 136.735 321.952C136.383 321.792 136.026 321.573 135.663 321.296L135.695 322.656V325.28H134.383ZM137.599 321.088C137.919 321.088 138.213 321.019 138.479 320.88C138.757 320.731 138.991 320.528 139.183 320.272C139.386 320.005 139.541 319.68 139.647 319.296C139.765 318.912 139.823 318.48 139.823 318C139.823 317.573 139.786 317.184 139.711 316.832C139.637 316.48 139.514 316.181 139.343 315.936C139.183 315.68 138.97 315.483 138.703 315.344C138.447 315.205 138.138 315.136 137.775 315.136C137.445 315.136 137.109 315.227 136.767 315.408C136.437 315.589 136.079 315.851 135.695 316.192V320.272C136.047 320.571 136.389 320.784 136.719 320.912C137.05 321.029 137.343 321.088 137.599 321.088ZM144.058 322V314.224H145.146L145.258 315.632H145.306C145.573 315.141 145.893 314.752 146.266 314.464C146.65 314.176 147.066 314.032 147.514 314.032C147.824 314.032 148.101 314.085 148.346 314.192L148.09 315.344C147.962 315.301 147.845 315.269 147.738 315.248C147.632 315.227 147.498 315.216 147.338 315.216C147.008 315.216 146.661 315.349 146.298 315.616C145.946 315.883 145.637 316.347 145.37 317.008V322H144.058ZM153.273 322.192C152.793 322.192 152.334 322.101 151.897 321.92C151.47 321.739 151.092 321.477 150.761 321.136C150.43 320.784 150.164 320.357 149.961 319.856C149.769 319.344 149.673 318.768 149.673 318.128C149.673 317.477 149.769 316.901 149.961 316.4C150.164 315.888 150.43 315.456 150.761 315.104C151.092 314.752 151.47 314.485 151.897 314.304C152.334 314.123 152.793 314.032 153.273 314.032C153.753 314.032 154.206 314.123 154.633 314.304C155.07 314.485 155.454 314.752 155.785 315.104C156.116 315.456 156.377 315.888 156.569 316.4C156.772 316.901 156.873 317.477 156.873 318.128C156.873 318.768 156.772 319.344 156.569 319.856C156.377 320.357 156.116 320.784 155.785 321.136C155.454 321.477 155.07 321.739 154.633 321.92C154.206 322.101 153.753 322.192 153.273 322.192ZM153.273 321.104C153.604 321.104 153.908 321.035 154.185 320.896C154.462 320.747 154.697 320.544 154.889 320.288C155.092 320.021 155.246 319.707 155.353 319.344C155.46 318.981 155.513 318.576 155.513 318.128C155.513 317.68 155.46 317.275 155.353 316.912C155.246 316.539 155.092 316.219 154.889 315.952C154.697 315.685 154.462 315.483 154.185 315.344C153.908 315.195 153.604 315.12 153.273 315.12C152.942 315.12 152.638 315.195 152.361 315.344C152.084 315.483 151.844 315.685 151.641 315.952C151.449 316.219 151.3 316.539 151.193 316.912C151.086 317.275 151.033 317.68 151.033 318.128C151.033 318.576 151.086 318.981 151.193 319.344C151.3 319.707 151.449 320.021 151.641 320.288C151.844 320.544 152.084 320.747 152.361 320.896C152.638 321.035 152.942 321.104 153.273 321.104ZM158.921 325.472C158.675 325.472 158.457 325.451 158.265 325.408C158.073 325.365 157.907 325.317 157.769 325.264L158.041 324.272C158.137 324.304 158.249 324.331 158.377 324.352C158.505 324.384 158.638 324.4 158.777 324.4C159.161 324.4 159.417 324.267 159.545 324C159.673 323.733 159.737 323.36 159.737 322.88V314.224H161.049V322.88C161.049 323.669 160.889 324.299 160.569 324.768C160.249 325.237 159.699 325.472 158.921 325.472ZM160.409 312.624C160.153 312.624 159.934 312.544 159.753 312.384C159.582 312.224 159.497 312.021 159.497 311.776C159.497 311.52 159.582 311.317 159.753 311.168C159.934 311.008 160.153 310.928 160.409 310.928C160.654 310.928 160.862 311.008 161.033 311.168C161.214 311.317 161.305 311.52 161.305 311.776C161.305 312.021 161.214 312.224 161.033 312.384C160.862 312.544 160.654 312.624 160.409 312.624ZM167.626 322.192C167.103 322.192 166.613 322.101 166.154 321.92C165.706 321.728 165.311 321.461 164.97 321.12C164.639 320.768 164.378 320.341 164.186 319.84C163.994 319.339 163.898 318.768 163.898 318.128C163.898 317.488 163.994 316.917 164.186 316.416C164.389 315.904 164.65 315.472 164.97 315.12C165.301 314.768 165.674 314.501 166.09 314.32C166.506 314.128 166.938 314.032 167.386 314.032C167.877 314.032 168.314 314.117 168.698 314.288C169.093 314.459 169.418 314.704 169.674 315.024C169.941 315.344 170.143 315.728 170.282 316.176C170.421 316.624 170.49 317.125 170.49 317.68C170.49 317.819 170.485 317.957 170.474 318.096C170.474 318.224 170.463 318.336 170.442 318.432H165.194C165.247 319.264 165.503 319.925 165.962 320.416C166.431 320.896 167.039 321.136 167.786 321.136C168.159 321.136 168.501 321.083 168.81 320.976C169.13 320.859 169.434 320.709 169.722 320.528L170.186 321.392C169.845 321.605 169.466 321.792 169.05 321.952C168.634 322.112 168.159 322.192 167.626 322.192ZM165.178 317.488H169.338C169.338 316.699 169.167 316.101 168.826 315.696C168.495 315.28 168.026 315.072 167.418 315.072C167.141 315.072 166.874 315.125 166.618 315.232C166.373 315.339 166.149 315.499 165.946 315.712C165.743 315.915 165.573 316.165 165.434 316.464C165.306 316.763 165.221 317.104 165.178 317.488ZM176.283 322.192C175.771 322.192 175.291 322.101 174.843 321.92C174.395 321.739 174.006 321.477 173.675 321.136C173.355 320.784 173.099 320.357 172.907 319.856C172.726 319.344 172.635 318.768 172.635 318.128C172.635 317.477 172.737 316.901 172.939 316.4C173.142 315.888 173.414 315.456 173.755 315.104C174.097 314.752 174.491 314.485 174.939 314.304C175.398 314.123 175.878 314.032 176.379 314.032C176.891 314.032 177.329 314.123 177.691 314.304C178.054 314.485 178.374 314.699 178.651 314.944L177.979 315.808C177.755 315.605 177.515 315.44 177.259 315.312C177.014 315.184 176.737 315.12 176.427 315.12C176.075 315.12 175.75 315.195 175.451 315.344C175.153 315.483 174.897 315.685 174.683 315.952C174.47 316.219 174.299 316.539 174.171 316.912C174.054 317.275 173.995 317.68 173.995 318.128C173.995 318.576 174.054 318.981 174.171 319.344C174.289 319.707 174.449 320.021 174.651 320.288C174.865 320.544 175.121 320.747 175.419 320.896C175.718 321.035 176.043 321.104 176.395 321.104C176.758 321.104 177.089 321.029 177.387 320.88C177.697 320.72 177.974 320.533 178.219 320.32L178.795 321.2C178.443 321.509 178.054 321.755 177.627 321.936C177.201 322.107 176.753 322.192 176.283 322.192ZM183.6 322.192C183.184 322.192 182.832 322.128 182.544 322C182.267 321.872 182.037 321.696 181.856 321.472C181.685 321.248 181.563 320.976 181.488 320.656C181.413 320.336 181.376 319.984 181.376 319.6V315.296H180.224V314.304L181.44 314.224L181.6 312.048H182.704V314.224H184.8V315.296H182.704V319.616C182.704 320.096 182.789 320.469 182.96 320.736C183.141 320.992 183.456 321.12 183.904 321.12C184.043 321.12 184.192 321.099 184.352 321.056C184.512 321.013 184.656 320.965 184.784 320.912L185.04 321.904C184.827 321.979 184.592 322.043 184.336 322.096C184.091 322.16 183.845 322.192 183.6 322.192ZM193.809 322.192C193.393 322.192 193.041 322.128 192.753 322C192.476 321.872 192.247 321.696 192.065 321.472C191.895 321.248 191.772 320.976 191.697 320.656C191.623 320.336 191.585 319.984 191.585 319.6V315.296H190.433V314.304L191.649 314.224L191.809 312.048H192.913V314.224H195.009V315.296H192.913V319.616C192.913 320.096 192.999 320.469 193.169 320.736C193.351 320.992 193.665 321.12 194.113 321.12C194.252 321.12 194.401 321.099 194.561 321.056C194.721 321.013 194.865 320.965 194.993 320.912L195.249 321.904C195.036 321.979 194.801 322.043 194.545 322.096C194.3 322.16 194.055 322.192 193.809 322.192ZM197.568 322V310.608H198.88V313.712L198.832 315.312C199.205 314.96 199.594 314.661 200 314.416C200.405 314.16 200.88 314.032 201.424 314.032C202.245 314.032 202.842 314.288 203.216 314.8C203.6 315.312 203.792 316.069 203.792 317.072V322H202.48V317.248C202.48 316.512 202.362 315.984 202.128 315.664C201.893 315.333 201.52 315.168 201.008 315.168C200.602 315.168 200.245 315.269 199.936 315.472C199.626 315.675 199.274 315.973 198.88 316.368V322H197.568ZM208.863 322.192C208.212 322.192 207.668 322 207.231 321.616C206.804 321.232 206.591 320.688 206.591 319.984C206.591 319.131 206.969 318.48 207.727 318.032C208.484 317.573 209.695 317.253 211.359 317.072C211.359 316.827 211.332 316.587 211.279 316.352C211.236 316.117 211.156 315.909 211.039 315.728C210.921 315.547 210.756 315.403 210.543 315.296C210.34 315.179 210.079 315.12 209.759 315.12C209.311 315.12 208.889 315.205 208.495 315.376C208.1 315.547 207.748 315.739 207.439 315.952L206.927 315.04C207.289 314.805 207.732 314.581 208.255 314.368C208.777 314.144 209.353 314.032 209.983 314.032C210.932 314.032 211.62 314.325 212.047 314.912C212.473 315.488 212.687 316.261 212.687 317.232V322H211.599L211.487 321.072H211.439C211.065 321.381 210.665 321.648 210.239 321.872C209.812 322.085 209.353 322.192 208.863 322.192ZM209.247 321.136C209.62 321.136 209.972 321.051 210.303 320.88C210.633 320.699 210.985 320.437 211.359 320.096V317.936C210.708 318.021 210.159 318.123 209.711 318.24C209.273 318.357 208.916 318.496 208.639 318.656C208.372 318.816 208.175 319.003 208.047 319.216C207.929 319.419 207.871 319.643 207.871 319.888C207.871 320.336 208.004 320.656 208.271 320.848C208.537 321.04 208.863 321.136 209.247 321.136ZM218.163 322.192C217.747 322.192 217.395 322.128 217.107 322C216.829 321.872 216.6 321.696 216.419 321.472C216.248 321.248 216.125 320.976 216.051 320.656C215.976 320.336 215.939 319.984 215.939 319.6V315.296H214.787V314.304L216.003 314.224L216.163 312.048H217.267V314.224H219.363V315.296H217.267V319.616C217.267 320.096 217.352 320.469 217.523 320.736C217.704 320.992 218.019 321.12 218.467 321.12C218.605 321.12 218.755 321.099 218.915 321.056C219.075 321.013 219.219 320.965 219.347 320.912L219.603 321.904C219.389 321.979 219.155 322.043 218.899 322.096C218.653 322.16 218.408 322.192 218.163 322.192ZM227.156 322L224.996 314.224H226.34L227.492 318.72C227.577 319.093 227.657 319.456 227.732 319.808C227.807 320.16 227.881 320.517 227.956 320.88H228.02C228.105 320.517 228.191 320.16 228.276 319.808C228.361 319.445 228.452 319.083 228.548 318.72L229.748 314.224H231.028L232.244 318.72C232.34 319.093 232.431 319.456 232.516 319.808C232.612 320.16 232.703 320.517 232.788 320.88H232.852C232.937 320.517 233.017 320.16 233.092 319.808C233.167 319.456 233.247 319.093 233.332 318.72L234.468 314.224H235.716L233.636 322H232.036L230.916 317.824C230.82 317.451 230.729 317.083 230.644 316.72C230.569 316.357 230.484 315.979 230.388 315.584H230.324C230.239 315.979 230.153 316.363 230.068 316.736C229.983 317.099 229.887 317.467 229.78 317.84L228.692 322H227.156ZM238.208 322V314.224H239.52V322H238.208ZM238.88 312.624C238.624 312.624 238.406 312.544 238.224 312.384C238.054 312.224 237.968 312.021 237.968 311.776C237.968 311.52 238.054 311.317 238.224 311.168C238.406 311.008 238.624 310.928 238.88 310.928C239.136 310.928 239.35 311.008 239.52 311.168C239.702 311.317 239.792 311.52 239.792 311.776C239.792 312.021 239.702 312.224 239.52 312.384C239.35 312.544 239.136 312.624 238.88 312.624ZM244.338 322.192C243.836 322.192 243.479 322.043 243.266 321.744C243.052 321.445 242.946 321.008 242.946 320.432V310.608H244.258V320.528C244.258 320.741 244.295 320.891 244.37 320.976C244.444 321.061 244.53 321.104 244.626 321.104C244.668 321.104 244.706 321.104 244.738 321.104C244.78 321.104 244.839 321.093 244.914 321.072L245.09 322.064C245.004 322.107 244.903 322.139 244.786 322.16C244.668 322.181 244.519 322.192 244.338 322.192ZM249.216 322.192C248.715 322.192 248.357 322.043 248.144 321.744C247.931 321.445 247.824 321.008 247.824 320.432V310.608H249.136V320.528C249.136 320.741 249.173 320.891 249.248 320.976C249.323 321.061 249.408 321.104 249.504 321.104C249.547 321.104 249.584 321.104 249.616 321.104C249.659 321.104 249.717 321.093 249.792 321.072L249.968 322.064C249.883 322.107 249.781 322.139 249.664 322.16C249.547 322.181 249.397 322.192 249.216 322.192ZM256.705 322V310.608H258.017V313.712L257.969 315.312C258.342 314.96 258.732 314.661 259.137 314.416C259.542 314.16 260.017 314.032 260.561 314.032C261.382 314.032 261.98 314.288 262.353 314.8C262.737 315.312 262.929 316.069 262.929 317.072V322H261.617V317.248C261.617 316.512 261.5 315.984 261.265 315.664C261.03 315.333 260.657 315.168 260.145 315.168C259.74 315.168 259.382 315.269 259.073 315.472C258.764 315.675 258.412 315.973 258.017 316.368V322H256.705ZM269.36 322.192C268.838 322.192 268.347 322.101 267.888 321.92C267.44 321.728 267.046 321.461 266.704 321.12C266.374 320.768 266.112 320.341 265.92 319.84C265.728 319.339 265.632 318.768 265.632 318.128C265.632 317.488 265.728 316.917 265.92 316.416C266.123 315.904 266.384 315.472 266.704 315.12C267.035 314.768 267.408 314.501 267.824 314.32C268.24 314.128 268.672 314.032 269.12 314.032C269.611 314.032 270.048 314.117 270.432 314.288C270.827 314.459 271.152 314.704 271.408 315.024C271.675 315.344 271.878 315.728 272.016 316.176C272.155 316.624 272.224 317.125 272.224 317.68C272.224 317.819 272.219 317.957 272.208 318.096C272.208 318.224 272.198 318.336 272.176 318.432H266.928C266.982 319.264 267.238 319.925 267.696 320.416C268.166 320.896 268.774 321.136 269.52 321.136C269.894 321.136 270.235 321.083 270.544 320.976C270.864 320.859 271.168 320.709 271.456 320.528L271.92 321.392C271.579 321.605 271.2 321.792 270.784 321.952C270.368 322.112 269.894 322.192 269.36 322.192ZM266.912 317.488H271.072C271.072 316.699 270.902 316.101 270.56 315.696C270.23 315.28 269.76 315.072 269.152 315.072C268.875 315.072 268.608 315.125 268.352 315.232C268.107 315.339 267.883 315.499 267.68 315.712C267.478 315.915 267.307 316.165 267.168 316.464C267.04 316.763 266.955 317.104 266.912 317.488ZM276.338 322.192C275.836 322.192 275.479 322.043 275.266 321.744C275.052 321.445 274.946 321.008 274.946 320.432V310.608H276.258V320.528C276.258 320.741 276.295 320.891 276.37 320.976C276.444 321.061 276.53 321.104 276.626 321.104C276.668 321.104 276.706 321.104 276.738 321.104C276.78 321.104 276.839 321.093 276.914 321.072L277.09 322.064C277.004 322.107 276.903 322.139 276.786 322.16C276.668 322.181 276.519 322.192 276.338 322.192ZM279.824 325.28V314.224H280.912L281.024 315.12H281.072C281.424 314.821 281.808 314.565 282.224 314.352C282.651 314.139 283.093 314.032 283.552 314.032C284.053 314.032 284.496 314.128 284.88 314.32C285.264 314.501 285.584 314.768 285.84 315.12C286.096 315.461 286.288 315.877 286.416 316.368C286.555 316.848 286.624 317.392 286.624 318C286.624 318.661 286.533 319.253 286.352 319.776C286.171 320.288 285.925 320.725 285.616 321.088C285.307 321.451 284.949 321.728 284.544 321.92C284.139 322.101 283.712 322.192 283.264 322.192C282.901 322.192 282.539 322.112 282.176 321.952C281.824 321.792 281.467 321.573 281.104 321.296L281.136 322.656V325.28H279.824ZM283.04 321.088C283.36 321.088 283.653 321.019 283.92 320.88C284.197 320.731 284.432 320.528 284.624 320.272C284.827 320.005 284.981 319.68 285.088 319.296C285.205 318.912 285.264 318.48 285.264 318C285.264 317.573 285.227 317.184 285.152 316.832C285.077 316.48 284.955 316.181 284.784 315.936C284.624 315.68 284.411 315.483 284.144 315.344C283.888 315.205 283.579 315.136 283.216 315.136C282.885 315.136 282.549 315.227 282.208 315.408C281.877 315.589 281.52 315.851 281.136 316.192V320.272C281.488 320.571 281.829 320.784 282.16 320.912C282.491 321.029 282.784 321.088 283.04 321.088ZM293.63 325.344C293.449 325.344 293.283 325.328 293.134 325.296C292.985 325.275 292.846 325.237 292.718 325.184L292.974 324.144C293.059 324.165 293.155 324.187 293.262 324.208C293.369 324.24 293.47 324.256 293.566 324.256C294.014 324.256 294.377 324.096 294.654 323.776C294.942 323.467 295.166 323.072 295.326 322.592L295.502 322.016L292.382 314.224H293.742L295.326 318.528C295.443 318.869 295.566 319.232 295.694 319.616C295.833 319.989 295.961 320.357 296.078 320.72H296.142C296.259 320.368 296.371 320 296.478 319.616C296.585 319.232 296.691 318.869 296.798 318.528L298.19 314.224H299.47L296.542 322.64C296.403 323.024 296.249 323.381 296.078 323.712C295.907 324.043 295.705 324.325 295.47 324.56C295.235 324.805 294.969 324.997 294.67 325.136C294.371 325.275 294.025 325.344 293.63 325.344ZM304.732 322.192C304.252 322.192 303.794 322.101 303.356 321.92C302.93 321.739 302.551 321.477 302.22 321.136C301.89 320.784 301.623 320.357 301.42 319.856C301.228 319.344 301.132 318.768 301.132 318.128C301.132 317.477 301.228 316.901 301.42 316.4C301.623 315.888 301.89 315.456 302.22 315.104C302.551 314.752 302.93 314.485 303.356 314.304C303.794 314.123 304.252 314.032 304.732 314.032C305.212 314.032 305.666 314.123 306.092 314.304C306.53 314.485 306.914 314.752 307.244 315.104C307.575 315.456 307.836 315.888 308.028 316.4C308.231 316.901 308.332 317.477 308.332 318.128C308.332 318.768 308.231 319.344 308.028 319.856C307.836 320.357 307.575 320.784 307.244 321.136C306.914 321.477 306.53 321.739 306.092 321.92C305.666 322.101 305.212 322.192 304.732 322.192ZM304.732 321.104C305.063 321.104 305.367 321.035 305.644 320.896C305.922 320.747 306.156 320.544 306.348 320.288C306.551 320.021 306.706 319.707 306.812 319.344C306.919 318.981 306.972 318.576 306.972 318.128C306.972 317.68 306.919 317.275 306.812 316.912C306.706 316.539 306.551 316.219 306.348 315.952C306.156 315.685 305.922 315.483 305.644 315.344C305.367 315.195 305.063 315.12 304.732 315.12C304.402 315.12 304.098 315.195 303.82 315.344C303.543 315.483 303.303 315.685 303.1 315.952C302.908 316.219 302.759 316.539 302.652 316.912C302.546 317.275 302.492 317.68 302.492 318.128C302.492 318.576 302.546 318.981 302.652 319.344C302.759 319.707 302.908 320.021 303.1 320.288C303.303 320.544 303.543 320.747 303.82 320.896C304.098 321.035 304.402 321.104 304.732 321.104ZM313.452 322.192C312.62 322.192 312.012 321.936 311.628 321.424C311.255 320.912 311.068 320.155 311.068 319.152V314.224H312.396V318.976C312.396 319.712 312.508 320.245 312.732 320.576C312.967 320.896 313.34 321.056 313.852 321.056C314.257 321.056 314.615 320.955 314.924 320.752C315.233 320.539 315.575 320.203 315.948 319.744V314.224H317.26V322H316.172L316.06 320.784H316.012C315.649 321.211 315.265 321.552 314.86 321.808C314.465 322.064 313.996 322.192 313.452 322.192ZM327.31 325.584C326.83 325.584 326.393 325.536 325.998 325.44C325.604 325.355 325.262 325.221 324.974 325.04C324.697 324.859 324.478 324.64 324.318 324.384C324.169 324.128 324.094 323.829 324.094 323.488C324.094 323.157 324.196 322.843 324.398 322.544C324.601 322.245 324.878 321.973 325.23 321.728V321.664C325.038 321.547 324.873 321.387 324.734 321.184C324.606 320.971 324.542 320.709 324.542 320.4C324.542 320.069 324.633 319.781 324.814 319.536C324.996 319.291 325.188 319.099 325.39 318.96V318.896C325.134 318.683 324.9 318.4 324.686 318.048C324.484 317.685 324.382 317.269 324.382 316.8C324.382 316.373 324.457 315.989 324.606 315.648C324.766 315.307 324.98 315.019 325.246 314.784C325.513 314.539 325.822 314.352 326.174 314.224C326.537 314.096 326.916 314.032 327.31 314.032C327.524 314.032 327.721 314.053 327.902 314.096C328.094 314.128 328.265 314.171 328.414 314.224H331.118V315.232H329.518C329.7 315.413 329.849 315.643 329.966 315.92C330.094 316.197 330.158 316.501 330.158 316.832C330.158 317.248 330.084 317.627 329.934 317.968C329.785 318.299 329.582 318.581 329.326 318.816C329.07 319.04 328.766 319.216 328.414 319.344C328.073 319.472 327.705 319.536 327.31 319.536C327.118 319.536 326.921 319.515 326.718 319.472C326.516 319.419 326.324 319.349 326.142 319.264C326.004 319.381 325.886 319.515 325.79 319.664C325.694 319.803 325.646 319.979 325.646 320.192C325.646 320.437 325.742 320.64 325.934 320.8C326.126 320.96 326.489 321.04 327.022 321.04H328.526C329.433 321.04 330.11 321.189 330.558 321.488C331.017 321.776 331.246 322.245 331.246 322.896C331.246 323.259 331.156 323.6 330.974 323.92C330.793 324.251 330.532 324.539 330.19 324.784C329.849 325.029 329.433 325.221 328.942 325.36C328.462 325.509 327.918 325.584 327.31 325.584ZM327.31 318.656C327.534 318.656 327.742 318.613 327.934 318.528C328.137 318.443 328.313 318.32 328.462 318.16C328.622 318 328.745 317.808 328.83 317.584C328.916 317.349 328.958 317.088 328.958 316.8C328.958 316.224 328.798 315.781 328.478 315.472C328.158 315.152 327.769 314.992 327.31 314.992C326.852 314.992 326.462 315.152 326.142 315.472C325.822 315.781 325.662 316.224 325.662 316.8C325.662 317.088 325.705 317.349 325.79 317.584C325.876 317.808 325.993 318 326.142 318.16C326.302 318.32 326.478 318.443 326.67 318.528C326.873 318.613 327.086 318.656 327.31 318.656ZM327.502 324.672C327.876 324.672 328.212 324.624 328.51 324.528C328.82 324.443 329.081 324.325 329.294 324.176C329.508 324.037 329.673 323.872 329.79 323.68C329.908 323.488 329.966 323.291 329.966 323.088C329.966 322.725 329.833 322.475 329.566 322.336C329.3 322.197 328.91 322.128 328.398 322.128H327.054C326.905 322.128 326.74 322.117 326.558 322.096C326.388 322.085 326.217 322.053 326.046 322C325.769 322.203 325.566 322.416 325.438 322.64C325.31 322.864 325.246 323.088 325.246 323.312C325.246 323.728 325.444 324.059 325.838 324.304C326.244 324.549 326.798 324.672 327.502 324.672ZM335.091 322.192C334.44 322.192 333.896 322 333.459 321.616C333.032 321.232 332.819 320.688 332.819 319.984C332.819 319.131 333.198 318.48 333.955 318.032C334.712 317.573 335.923 317.253 337.587 317.072C337.587 316.827 337.56 316.587 337.507 316.352C337.464 316.117 337.384 315.909 337.267 315.728C337.15 315.547 336.984 315.403 336.771 315.296C336.568 315.179 336.307 315.12 335.987 315.12C335.539 315.12 335.118 315.205 334.723 315.376C334.328 315.547 333.976 315.739 333.667 315.952L333.155 315.04C333.518 314.805 333.96 314.581 334.483 314.368C335.006 314.144 335.582 314.032 336.211 314.032C337.16 314.032 337.848 314.325 338.275 314.912C338.702 315.488 338.915 316.261 338.915 317.232V322H337.827L337.715 321.072H337.667C337.294 321.381 336.894 321.648 336.467 321.872C336.04 322.085 335.582 322.192 335.091 322.192ZM335.475 321.136C335.848 321.136 336.2 321.051 336.531 320.88C336.862 320.699 337.214 320.437 337.587 320.096V317.936C336.936 318.021 336.387 318.123 335.939 318.24C335.502 318.357 335.144 318.496 334.867 318.656C334.6 318.816 334.403 319.003 334.275 319.216C334.158 319.419 334.099 319.643 334.099 319.888C334.099 320.336 334.232 320.656 334.499 320.848C334.766 321.04 335.091 321.136 335.475 321.136ZM342.161 322V314.224H343.473V322H342.161ZM342.833 312.624C342.577 312.624 342.359 312.544 342.177 312.384C342.007 312.224 341.921 312.021 341.921 311.776C341.921 311.52 342.007 311.317 342.177 311.168C342.359 311.008 342.577 310.928 342.833 310.928C343.089 310.928 343.303 311.008 343.473 311.168C343.655 311.317 343.745 311.52 343.745 311.776C343.745 312.021 343.655 312.224 343.473 312.384C343.303 312.544 343.089 312.624 342.833 312.624ZM346.899 322V314.224H347.987L348.099 315.344H348.147C348.52 314.971 348.91 314.661 349.315 314.416C349.731 314.16 350.211 314.032 350.755 314.032C351.576 314.032 352.174 314.288 352.547 314.8C352.931 315.312 353.123 316.069 353.123 317.072V322H351.811V317.248C351.811 316.512 351.694 315.984 351.459 315.664C351.224 315.333 350.851 315.168 350.339 315.168C349.934 315.168 349.576 315.269 349.267 315.472C348.958 315.675 348.606 315.973 348.211 316.368V322H346.899ZM76.929 346.192C76.4064 346.192 75.9157 346.101 75.457 345.92C75.009 345.728 74.6144 345.461 74.273 345.12C73.9424 344.768 73.681 344.341 73.489 343.84C73.297 343.339 73.201 342.768 73.201 342.128C73.201 341.488 73.297 340.917 73.489 340.416C73.6917 339.904 73.953 339.472 74.273 339.12C74.6037 338.768 74.977 338.501 75.393 338.32C75.809 338.128 76.241 338.032 76.689 338.032C77.1797 338.032 77.617 338.117 78.001 338.288C78.3957 338.459 78.721 338.704 78.977 339.024C79.2437 339.344 79.4464 339.728 79.585 340.176C79.7237 340.624 79.793 341.125 79.793 341.68C79.793 341.819 79.7877 341.957 79.777 342.096C79.777 342.224 79.7664 342.336 79.745 342.432H74.497C74.5504 343.264 74.8064 343.925 75.265 344.416C75.7344 344.896 76.3424 345.136 77.089 345.136C77.4624 345.136 77.8037 345.083 78.113 344.976C78.433 344.859 78.737 344.709 79.025 344.528L79.489 345.392C79.1477 345.605 78.769 345.792 78.353 345.952C77.937 346.112 77.4624 346.192 76.929 346.192ZM74.481 341.488H78.641C78.641 340.699 78.4704 340.101 78.129 339.696C77.7984 339.28 77.329 339.072 76.721 339.072C76.4437 339.072 76.177 339.125 75.921 339.232C75.6757 339.339 75.4517 339.499 75.249 339.712C75.0464 339.915 74.8757 340.165 74.737 340.464C74.609 340.763 74.5237 341.104 74.481 341.488ZM81.3172 346L83.8612 341.936L81.5092 338.224H82.9332L83.9732 339.936C84.0905 340.149 84.2132 340.368 84.3412 340.592C84.4692 340.805 84.6025 341.019 84.7412 341.232H84.8052C84.9225 341.019 85.0398 340.805 85.1572 340.592C85.2745 340.368 85.3918 340.149 85.5092 339.936L86.4532 338.224H87.8292L85.4772 342.08L88.0052 346H86.5812L85.4452 344.192C85.3065 343.957 85.1678 343.723 85.0292 343.488C84.8905 343.253 84.7465 343.024 84.5972 342.8H84.5332C84.3945 343.024 84.2612 343.253 84.1332 343.488C84.0052 343.712 83.8772 343.947 83.7492 344.192L82.6932 346H81.3172ZM90.3458 349.28V338.224H91.4338L91.5458 339.12H91.5938C91.9458 338.821 92.3298 338.565 92.7458 338.352C93.1725 338.139 93.6151 338.032 94.0738 338.032C94.5751 338.032 95.0178 338.128 95.4018 338.32C95.7858 338.501 96.1058 338.768 96.3618 339.12C96.6178 339.461 96.8098 339.877 96.9378 340.368C97.0765 340.848 97.1458 341.392 97.1458 342C97.1458 342.661 97.0551 343.253 96.8738 343.776C96.6925 344.288 96.4471 344.725 96.1378 345.088C95.8285 345.451 95.4711 345.728 95.0658 345.92C94.6605 346.101 94.2338 346.192 93.7858 346.192C93.4231 346.192 93.0605 346.112 92.6978 345.952C92.3458 345.792 91.9885 345.573 91.6258 345.296L91.6578 346.656V349.28H90.3458ZM93.5618 345.088C93.8818 345.088 94.1751 345.019 94.4418 344.88C94.7191 344.731 94.9538 344.528 95.1458 344.272C95.3485 344.005 95.5031 343.68 95.6098 343.296C95.7271 342.912 95.7858 342.48 95.7858 342C95.7858 341.573 95.7485 341.184 95.6738 340.832C95.5991 340.48 95.4765 340.181 95.3058 339.936C95.1458 339.68 94.9325 339.483 94.6658 339.344C94.4098 339.205 94.1005 339.136 93.7378 339.136C93.4071 339.136 93.0711 339.227 92.7298 339.408C92.3991 339.589 92.0418 339.851 91.6578 340.192V344.272C92.0098 344.571 92.3511 344.784 92.6818 344.912C93.0125 345.029 93.3058 345.088 93.5618 345.088ZM103.173 346.192C102.65 346.192 102.159 346.101 101.701 345.92C101.253 345.728 100.858 345.461 100.517 345.12C100.186 344.768 99.9248 344.341 99.7328 343.84C99.5408 343.339 99.4448 342.768 99.4448 342.128C99.4448 341.488 99.5408 340.917 99.7328 340.416C99.9355 339.904 100.197 339.472 100.517 339.12C100.847 338.768 101.221 338.501 101.637 338.32C102.053 338.128 102.485 338.032 102.933 338.032C103.423 338.032 103.861 338.117 104.245 338.288C104.639 338.459 104.965 338.704 105.221 339.024C105.487 339.344 105.69 339.728 105.829 340.176C105.967 340.624 106.037 341.125 106.037 341.68C106.037 341.819 106.031 341.957 106.021 342.096C106.021 342.224 106.01 342.336 105.989 342.432H100.741C100.794 343.264 101.05 343.925 101.509 344.416C101.978 344.896 102.586 345.136 103.333 345.136C103.706 345.136 104.047 345.083 104.357 344.976C104.677 344.859 104.981 344.709 105.269 344.528L105.733 345.392C105.391 345.605 105.013 345.792 104.597 345.952C104.181 346.112 103.706 346.192 103.173 346.192ZM100.725 341.488H104.885C104.885 340.699 104.714 340.101 104.373 339.696C104.042 339.28 103.573 339.072 102.965 339.072C102.687 339.072 102.421 339.125 102.165 339.232C101.919 339.339 101.695 339.499 101.493 339.712C101.29 339.915 101.119 340.165 100.981 340.464C100.853 340.763 100.767 341.104 100.725 341.488ZM108.758 346V338.224H109.846L109.958 339.632H110.006C110.273 339.141 110.593 338.752 110.966 338.464C111.35 338.176 111.766 338.032 112.214 338.032C112.524 338.032 112.801 338.085 113.046 338.192L112.79 339.344C112.662 339.301 112.545 339.269 112.438 339.248C112.332 339.227 112.198 339.216 112.038 339.216C111.708 339.216 111.361 339.349 110.998 339.616C110.646 339.883 110.337 340.347 110.07 341.008V346H108.758ZM115.105 346V338.224H116.417V346H115.105ZM115.777 336.624C115.521 336.624 115.303 336.544 115.121 336.384C114.951 336.224 114.865 336.021 114.865 335.776C114.865 335.52 114.951 335.317 115.121 335.168C115.303 335.008 115.521 334.928 115.777 334.928C116.033 334.928 116.247 335.008 116.417 335.168C116.599 335.317 116.689 335.52 116.689 335.776C116.689 336.021 116.599 336.224 116.417 336.384C116.247 336.544 116.033 336.624 115.777 336.624ZM122.995 346.192C122.472 346.192 121.981 346.101 121.523 345.92C121.075 345.728 120.68 345.461 120.339 345.12C120.008 344.768 119.747 344.341 119.555 343.84C119.363 343.339 119.267 342.768 119.267 342.128C119.267 341.488 119.363 340.917 119.555 340.416C119.757 339.904 120.019 339.472 120.339 339.12C120.669 338.768 121.043 338.501 121.459 338.32C121.875 338.128 122.307 338.032 122.755 338.032C123.245 338.032 123.683 338.117 124.067 338.288C124.461 338.459 124.787 338.704 125.043 339.024C125.309 339.344 125.512 339.728 125.651 340.176C125.789 340.624 125.859 341.125 125.859 341.68C125.859 341.819 125.853 341.957 125.843 342.096C125.843 342.224 125.832 342.336 125.811 342.432H120.563C120.616 343.264 120.872 343.925 121.331 344.416C121.8 344.896 122.408 345.136 123.155 345.136C123.528 345.136 123.869 345.083 124.179 344.976C124.499 344.859 124.803 344.709 125.091 344.528L125.555 345.392C125.213 345.605 124.835 345.792 124.419 345.952C124.003 346.112 123.528 346.192 122.995 346.192ZM120.547 341.488H124.707C124.707 340.699 124.536 340.101 124.195 339.696C123.864 339.28 123.395 339.072 122.787 339.072C122.509 339.072 122.243 339.125 121.987 339.232C121.741 339.339 121.517 339.499 121.315 339.712C121.112 339.915 120.941 340.165 120.803 340.464C120.675 340.763 120.589 341.104 120.547 341.488ZM128.58 346V338.224H129.668L129.78 339.344H129.828C130.201 338.971 130.591 338.661 130.996 338.416C131.412 338.16 131.892 338.032 132.436 338.032C133.257 338.032 133.855 338.288 134.228 338.8C134.612 339.312 134.804 340.069 134.804 341.072V346H133.492V341.248C133.492 340.512 133.375 339.984 133.14 339.664C132.905 339.333 132.532 339.168 132.02 339.168C131.615 339.168 131.257 339.269 130.948 339.472C130.639 339.675 130.287 339.973 129.892 340.368V346H128.58ZM141.202 346.192C140.69 346.192 140.21 346.101 139.762 345.92C139.314 345.739 138.925 345.477 138.594 345.136C138.274 344.784 138.018 344.357 137.826 343.856C137.645 343.344 137.554 342.768 137.554 342.128C137.554 341.477 137.656 340.901 137.858 340.4C138.061 339.888 138.333 339.456 138.674 339.104C139.016 338.752 139.41 338.485 139.858 338.304C140.317 338.123 140.797 338.032 141.298 338.032C141.81 338.032 142.248 338.123 142.61 338.304C142.973 338.485 143.293 338.699 143.57 338.944L142.898 339.808C142.674 339.605 142.434 339.44 142.178 339.312C141.933 339.184 141.656 339.12 141.346 339.12C140.994 339.12 140.669 339.195 140.37 339.344C140.072 339.483 139.816 339.685 139.602 339.952C139.389 340.219 139.218 340.539 139.09 340.912C138.973 341.275 138.914 341.68 138.914 342.128C138.914 342.576 138.973 342.981 139.09 343.344C139.208 343.707 139.368 344.021 139.57 344.288C139.784 344.544 140.04 344.747 140.338 344.896C140.637 345.035 140.962 345.104 141.314 345.104C141.677 345.104 142.008 345.029 142.306 344.88C142.616 344.72 142.893 344.533 143.138 344.32L143.714 345.2C143.362 345.509 142.973 345.755 142.546 345.936C142.12 346.107 141.672 346.192 141.202 346.192ZM149.035 346.192C148.513 346.192 148.022 346.101 147.563 345.92C147.115 345.728 146.721 345.461 146.379 345.12C146.049 344.768 145.787 344.341 145.595 343.84C145.403 343.339 145.307 342.768 145.307 342.128C145.307 341.488 145.403 340.917 145.595 340.416C145.798 339.904 146.059 339.472 146.379 339.12C146.71 338.768 147.083 338.501 147.499 338.32C147.915 338.128 148.347 338.032 148.795 338.032C149.286 338.032 149.723 338.117 150.107 338.288C150.502 338.459 150.827 338.704 151.083 339.024C151.35 339.344 151.553 339.728 151.691 340.176C151.83 340.624 151.899 341.125 151.899 341.68C151.899 341.819 151.894 341.957 151.883 342.096C151.883 342.224 151.873 342.336 151.851 342.432H146.603C146.657 343.264 146.913 343.925 147.371 344.416C147.841 344.896 148.449 345.136 149.195 345.136C149.569 345.136 149.91 345.083 150.219 344.976C150.539 344.859 150.843 344.709 151.131 344.528L151.595 345.392C151.254 345.605 150.875 345.792 150.459 345.952C150.043 346.112 149.569 346.192 149.035 346.192ZM146.587 341.488H150.747C150.747 340.699 150.577 340.101 150.235 339.696C149.905 339.28 149.435 339.072 148.827 339.072C148.55 339.072 148.283 339.125 148.027 339.232C147.782 339.339 147.558 339.499 147.355 339.712C147.153 339.915 146.982 340.165 146.843 340.464C146.715 340.763 146.63 341.104 146.587 341.488ZM160.416 346.192C159.765 346.192 159.221 346 158.784 345.616C158.357 345.232 158.144 344.688 158.144 343.984C158.144 343.131 158.523 342.48 159.28 342.032C160.037 341.573 161.248 341.253 162.912 341.072C162.912 340.827 162.885 340.587 162.832 340.352C162.789 340.117 162.709 339.909 162.592 339.728C162.475 339.547 162.309 339.403 162.096 339.296C161.893 339.179 161.632 339.12 161.312 339.12C160.864 339.12 160.443 339.205 160.048 339.376C159.653 339.547 159.301 339.739 158.992 339.952L158.48 339.04C158.843 338.805 159.285 338.581 159.808 338.368C160.331 338.144 160.907 338.032 161.536 338.032C162.485 338.032 163.173 338.325 163.6 338.912C164.027 339.488 164.24 340.261 164.24 341.232V346H163.152L163.04 345.072H162.992C162.619 345.381 162.219 345.648 161.792 345.872C161.365 346.085 160.907 346.192 160.416 346.192ZM160.8 345.136C161.173 345.136 161.525 345.051 161.856 344.88C162.187 344.699 162.539 344.437 162.912 344.096V341.936C162.261 342.021 161.712 342.123 161.264 342.24C160.827 342.357 160.469 342.496 160.192 342.656C159.925 342.816 159.728 343.003 159.6 343.216C159.483 343.419 159.424 343.643 159.424 343.888C159.424 344.336 159.557 344.656 159.824 344.848C160.091 345.04 160.416 345.136 160.8 345.136ZM167.486 346V338.224H168.574L168.686 339.344H168.734C169.108 338.971 169.497 338.661 169.902 338.416C170.318 338.16 170.798 338.032 171.342 338.032C172.164 338.032 172.761 338.288 173.134 338.8C173.518 339.312 173.71 340.069 173.71 341.072V346H172.398V341.248C172.398 340.512 172.281 339.984 172.046 339.664C171.812 339.333 171.438 339.168 170.926 339.168C170.521 339.168 170.164 339.269 169.854 339.472C169.545 339.675 169.193 339.973 168.798 340.368V346H167.486ZM179.692 346.192C178.711 346.192 177.927 345.84 177.34 345.136C176.764 344.432 176.476 343.429 176.476 342.128C176.476 341.499 176.567 340.933 176.748 340.432C176.94 339.92 177.191 339.488 177.5 339.136C177.81 338.784 178.167 338.512 178.572 338.32C178.978 338.128 179.404 338.032 179.852 338.032C180.3 338.032 180.69 338.112 181.02 338.272C181.351 338.432 181.687 338.651 182.028 338.928L181.964 337.6V334.608H183.292V346H182.204L182.092 345.088H182.044C181.735 345.387 181.378 345.648 180.972 345.872C180.578 346.085 180.151 346.192 179.692 346.192ZM179.98 345.088C180.343 345.088 180.684 345.003 181.004 344.832C181.324 344.651 181.644 344.379 181.964 344.016V339.952C181.634 339.653 181.314 339.445 181.004 339.328C180.706 339.2 180.396 339.136 180.076 339.136C179.767 339.136 179.474 339.211 179.196 339.36C178.93 339.499 178.695 339.701 178.492 339.968C178.29 340.224 178.13 340.533 178.012 340.896C177.895 341.259 177.836 341.664 177.836 342.112C177.836 343.051 178.023 343.781 178.396 344.304C178.77 344.827 179.298 345.088 179.98 345.088ZM192.107 346.192C191.605 346.192 191.248 346.043 191.035 345.744C190.821 345.445 190.715 345.008 190.715 344.432V334.608H192.027V344.528C192.027 344.741 192.064 344.891 192.139 344.976C192.213 345.061 192.299 345.104 192.395 345.104C192.437 345.104 192.475 345.104 192.507 345.104C192.549 345.104 192.608 345.093 192.683 345.072L192.859 346.064C192.773 346.107 192.672 346.139 192.555 346.16C192.437 346.181 192.288 346.192 192.107 346.192ZM197.385 346.192C196.734 346.192 196.19 346 195.753 345.616C195.326 345.232 195.113 344.688 195.113 343.984C195.113 343.131 195.491 342.48 196.249 342.032C197.006 341.573 198.217 341.253 199.881 341.072C199.881 340.827 199.854 340.587 199.801 340.352C199.758 340.117 199.678 339.909 199.561 339.728C199.443 339.547 199.278 339.403 199.065 339.296C198.862 339.179 198.601 339.12 198.281 339.12C197.833 339.12 197.411 339.205 197.017 339.376C196.622 339.547 196.27 339.739 195.961 339.952L195.449 339.04C195.811 338.805 196.254 338.581 196.777 338.368C197.299 338.144 197.875 338.032 198.505 338.032C199.454 338.032 200.142 338.325 200.569 338.912C200.995 339.488 201.209 340.261 201.209 341.232V346H200.121L200.009 345.072H199.961C199.587 345.381 199.187 345.648 198.761 345.872C198.334 346.085 197.875 346.192 197.385 346.192ZM197.769 345.136C198.142 345.136 198.494 345.051 198.825 344.88C199.155 344.699 199.507 344.437 199.881 344.096V341.936C199.23 342.021 198.681 342.123 198.233 342.24C197.795 342.357 197.438 342.496 197.161 342.656C196.894 342.816 196.697 343.003 196.569 343.216C196.451 343.419 196.393 343.643 196.393 343.888C196.393 344.336 196.526 344.656 196.793 344.848C197.059 345.04 197.385 345.136 197.769 345.136ZM204.455 346V338.224H205.543L205.655 339.344H205.703C206.077 338.971 206.466 338.661 206.871 338.416C207.287 338.16 207.767 338.032 208.311 338.032C209.133 338.032 209.73 338.288 210.103 338.8C210.487 339.312 210.679 340.069 210.679 341.072V346H209.367V341.248C209.367 340.512 209.25 339.984 209.015 339.664C208.781 339.333 208.407 339.168 207.895 339.168C207.49 339.168 207.133 339.269 206.823 339.472C206.514 339.675 206.162 339.973 205.767 340.368V346H204.455ZM216.661 346.192C215.68 346.192 214.896 345.84 214.309 345.136C213.733 344.432 213.445 343.429 213.445 342.128C213.445 341.499 213.536 340.933 213.717 340.432C213.909 339.92 214.16 339.488 214.469 339.136C214.778 338.784 215.136 338.512 215.541 338.32C215.946 338.128 216.373 338.032 216.821 338.032C217.269 338.032 217.658 338.112 217.989 338.272C218.32 338.432 218.656 338.651 218.997 338.928L218.933 337.6V334.608H220.261V346H219.173L219.061 345.088H219.013C218.704 345.387 218.346 345.648 217.941 345.872C217.546 346.085 217.12 346.192 216.661 346.192ZM216.949 345.088C217.312 345.088 217.653 345.003 217.973 344.832C218.293 344.651 218.613 344.379 218.933 344.016V339.952C218.602 339.653 218.282 339.445 217.973 339.328C217.674 339.2 217.365 339.136 217.045 339.136C216.736 339.136 216.442 339.211 216.165 339.36C215.898 339.499 215.664 339.701 215.461 339.968C215.258 340.224 215.098 340.533 214.981 340.896C214.864 341.259 214.805 341.664 214.805 342.112C214.805 343.051 214.992 343.781 215.365 344.304C215.738 344.827 216.266 345.088 216.949 345.088ZM227.811 349.344C227.63 349.344 227.465 349.328 227.315 349.296C227.166 349.275 227.027 349.237 226.899 349.184L227.155 348.144C227.241 348.165 227.337 348.187 227.443 348.208C227.55 348.24 227.651 348.256 227.747 348.256C228.195 348.256 228.558 348.096 228.835 347.776C229.123 347.467 229.347 347.072 229.507 346.592L229.683 346.016L226.563 338.224H227.923L229.507 342.528C229.625 342.869 229.747 343.232 229.875 343.616C230.014 343.989 230.142 344.357 230.259 344.72H230.323C230.441 344.368 230.553 344 230.659 343.616C230.766 343.232 230.873 342.869 230.979 342.528L232.371 338.224H233.651L230.723 346.64C230.585 347.024 230.43 347.381 230.259 347.712C230.089 348.043 229.886 348.325 229.651 348.56C229.417 348.805 229.15 348.997 228.851 349.136C228.553 349.275 228.206 349.344 227.811 349.344ZM238.914 346.192C238.434 346.192 237.975 346.101 237.538 345.92C237.111 345.739 236.732 345.477 236.402 345.136C236.071 344.784 235.804 344.357 235.602 343.856C235.41 343.344 235.314 342.768 235.314 342.128C235.314 341.477 235.41 340.901 235.602 340.4C235.804 339.888 236.071 339.456 236.402 339.104C236.732 338.752 237.111 338.485 237.538 338.304C237.975 338.123 238.434 338.032 238.914 338.032C239.394 338.032 239.847 338.123 240.274 338.304C240.711 338.485 241.095 338.752 241.426 339.104C241.756 339.456 242.018 339.888 242.21 340.4C242.412 340.901 242.514 341.477 242.514 342.128C242.514 342.768 242.412 343.344 242.21 343.856C242.018 344.357 241.756 344.784 241.426 345.136C241.095 345.477 240.711 345.739 240.274 345.92C239.847 346.101 239.394 346.192 238.914 346.192ZM238.914 345.104C239.244 345.104 239.548 345.035 239.826 344.896C240.103 344.747 240.338 344.544 240.53 344.288C240.732 344.021 240.887 343.707 240.994 343.344C241.1 342.981 241.154 342.576 241.154 342.128C241.154 341.68 241.1 341.275 240.994 340.912C240.887 340.539 240.732 340.219 240.53 339.952C240.338 339.685 240.103 339.483 239.826 339.344C239.548 339.195 239.244 339.12 238.914 339.12C238.583 339.12 238.279 339.195 238.002 339.344C237.724 339.483 237.484 339.685 237.282 339.952C237.09 340.219 236.94 340.539 236.834 340.912C236.727 341.275 236.674 341.68 236.674 342.128C236.674 342.576 236.727 342.981 236.834 343.344C236.94 343.707 237.09 344.021 237.282 344.288C237.484 344.544 237.724 344.747 238.002 344.896C238.279 345.035 238.583 345.104 238.914 345.104ZM247.633 346.192C246.801 346.192 246.193 345.936 245.809 345.424C245.436 344.912 245.249 344.155 245.249 343.152V338.224H246.577V342.976C246.577 343.712 246.689 344.245 246.913 344.576C247.148 344.896 247.521 345.056 248.033 345.056C248.439 345.056 248.796 344.955 249.105 344.752C249.415 344.539 249.756 344.203 250.129 343.744V338.224H251.441V346H250.353L250.241 344.784H250.193C249.831 345.211 249.447 345.552 249.041 345.808C248.647 346.064 248.177 346.192 247.633 346.192ZM254.865 346V338.224H255.953L256.065 339.632H256.113C256.379 339.141 256.699 338.752 257.073 338.464C257.457 338.176 257.873 338.032 258.321 338.032C258.63 338.032 258.907 338.085 259.153 338.192L258.897 339.344C258.769 339.301 258.651 339.269 258.545 339.248C258.438 339.227 258.305 339.216 258.145 339.216C257.814 339.216 257.467 339.349 257.105 339.616C256.753 339.883 256.443 340.347 256.177 341.008V346H254.865ZM265.215 346V338.224H266.303L266.415 339.344H266.463C266.836 338.971 267.225 338.661 267.631 338.416C268.047 338.16 268.527 338.032 269.071 338.032C269.892 338.032 270.489 338.288 270.863 338.8C271.247 339.312 271.439 340.069 271.439 341.072V346H270.127V341.248C270.127 340.512 270.009 339.984 269.775 339.664C269.54 339.333 269.167 339.168 268.655 339.168C268.249 339.168 267.892 339.269 267.583 339.472C267.273 339.675 266.921 339.973 266.527 340.368V346H265.215ZM277.917 346.192C277.394 346.192 276.903 346.101 276.445 345.92C275.997 345.728 275.602 345.461 275.261 345.12C274.93 344.768 274.669 344.341 274.477 343.84C274.285 343.339 274.189 342.768 274.189 342.128C274.189 341.488 274.285 340.917 274.477 340.416C274.679 339.904 274.941 339.472 275.261 339.12C275.591 338.768 275.965 338.501 276.381 338.32C276.797 338.128 277.229 338.032 277.677 338.032C278.167 338.032 278.605 338.117 278.989 338.288C279.383 338.459 279.709 338.704 279.965 339.024C280.231 339.344 280.434 339.728 280.573 340.176C280.711 340.624 280.781 341.125 280.781 341.68C280.781 341.819 280.775 341.957 280.765 342.096C280.765 342.224 280.754 342.336 280.733 342.432H275.485C275.538 343.264 275.794 343.925 276.253 344.416C276.722 344.896 277.33 345.136 278.077 345.136C278.45 345.136 278.791 345.083 279.101 344.976C279.421 344.859 279.725 344.709 280.013 344.528L280.477 345.392C280.135 345.605 279.757 345.792 279.341 345.952C278.925 346.112 278.45 346.192 277.917 346.192ZM275.469 341.488H279.629C279.629 340.699 279.458 340.101 279.117 339.696C278.786 339.28 278.317 339.072 277.709 339.072C277.431 339.072 277.165 339.125 276.909 339.232C276.663 339.339 276.439 339.499 276.237 339.712C276.034 339.915 275.863 340.165 275.725 340.464C275.597 340.763 275.511 341.104 275.469 341.488ZM282.305 346L284.849 341.936L282.497 338.224H283.921L284.961 339.936C285.078 340.149 285.201 340.368 285.329 340.592C285.457 340.805 285.59 341.019 285.729 341.232H285.793C285.91 341.019 286.027 340.805 286.145 340.592C286.262 340.368 286.379 340.149 286.497 339.936L287.441 338.224H288.817L286.465 342.08L288.993 346H287.569L286.433 344.192C286.294 343.957 286.155 343.723 286.017 343.488C285.878 343.253 285.734 343.024 285.585 342.8H285.521C285.382 343.024 285.249 343.253 285.121 343.488C284.993 343.712 284.865 343.947 284.737 344.192L283.681 346H282.305ZM293.391 346.192C292.975 346.192 292.623 346.128 292.335 346C292.057 345.872 291.828 345.696 291.647 345.472C291.476 345.248 291.353 344.976 291.279 344.656C291.204 344.336 291.167 343.984 291.167 343.6V339.296H290.015V338.304L291.231 338.224L291.391 336.048H292.495V338.224H294.591V339.296H292.495V343.616C292.495 344.096 292.58 344.469 292.751 344.736C292.932 344.992 293.247 345.12 293.695 345.12C293.833 345.12 293.983 345.099 294.143 345.056C294.303 345.013 294.447 344.965 294.575 344.912L294.831 345.904C294.617 345.979 294.383 346.043 294.127 346.096C293.881 346.16 293.636 346.192 293.391 346.192ZM300.352 349.472C300.107 349.472 299.888 349.451 299.696 349.408C299.504 349.365 299.339 349.317 299.2 349.264L299.472 348.272C299.568 348.304 299.68 348.331 299.808 348.352C299.936 348.384 300.069 348.4 300.208 348.4C300.592 348.4 300.848 348.267 300.976 348C301.104 347.733 301.168 347.36 301.168 346.88V338.224H302.48V346.88C302.48 347.669 302.32 348.299 302 348.768C301.68 349.237 301.131 349.472 300.352 349.472ZM301.84 336.624C301.584 336.624 301.365 336.544 301.184 336.384C301.013 336.224 300.928 336.021 300.928 335.776C300.928 335.52 301.013 335.317 301.184 335.168C301.365 335.008 301.584 334.928 301.84 334.928C302.085 334.928 302.293 335.008 302.464 335.168C302.645 335.317 302.736 335.52 302.736 335.776C302.736 336.021 302.645 336.224 302.464 336.384C302.293 336.544 302.085 336.624 301.84 336.624ZM308.929 346.192C308.449 346.192 307.991 346.101 307.553 345.92C307.127 345.739 306.748 345.477 306.417 345.136C306.087 344.784 305.82 344.357 305.617 343.856C305.425 343.344 305.329 342.768 305.329 342.128C305.329 341.477 305.425 340.901 305.617 340.4C305.82 339.888 306.087 339.456 306.417 339.104C306.748 338.752 307.127 338.485 307.553 338.304C307.991 338.123 308.449 338.032 308.929 338.032C309.409 338.032 309.863 338.123 310.289 338.304C310.727 338.485 311.111 338.752 311.441 339.104C311.772 339.456 312.033 339.888 312.225 340.4C312.428 340.901 312.529 341.477 312.529 342.128C312.529 342.768 312.428 343.344 312.225 343.856C312.033 344.357 311.772 344.784 311.441 345.136C311.111 345.477 310.727 345.739 310.289 345.92C309.863 346.101 309.409 346.192 308.929 346.192ZM308.929 345.104C309.26 345.104 309.564 345.035 309.841 344.896C310.119 344.747 310.353 344.544 310.545 344.288C310.748 344.021 310.903 343.707 311.009 343.344C311.116 342.981 311.169 342.576 311.169 342.128C311.169 341.68 311.116 341.275 311.009 340.912C310.903 340.539 310.748 340.219 310.545 339.952C310.353 339.685 310.119 339.483 309.841 339.344C309.564 339.195 309.26 339.12 308.929 339.12C308.599 339.12 308.295 339.195 308.017 339.344C307.74 339.483 307.5 339.685 307.297 339.952C307.105 340.219 306.956 340.539 306.849 340.912C306.743 341.275 306.689 341.68 306.689 342.128C306.689 342.576 306.743 342.981 306.849 343.344C306.956 343.707 307.105 344.021 307.297 344.288C307.5 344.544 307.74 344.747 308.017 344.896C308.295 345.035 308.599 345.104 308.929 345.104ZM318.817 346.192C318.454 346.192 318.076 346.107 317.681 345.936C317.297 345.755 316.934 345.509 316.593 345.2H316.545L316.433 346H315.377V334.608H316.689V337.712L316.657 339.12C317.009 338.811 317.393 338.555 317.809 338.352C318.225 338.139 318.652 338.032 319.089 338.032C319.59 338.032 320.033 338.128 320.417 338.32C320.801 338.501 321.121 338.768 321.377 339.12C321.644 339.461 321.841 339.877 321.969 340.368C322.108 340.848 322.177 341.387 322.177 341.984C322.177 342.645 322.086 343.237 321.905 343.76C321.724 344.283 321.478 344.725 321.169 345.088C320.86 345.451 320.502 345.728 320.097 345.92C319.692 346.101 319.265 346.192 318.817 346.192ZM318.593 345.088C318.913 345.088 319.206 345.019 319.473 344.88C319.75 344.731 319.985 344.528 320.177 344.272C320.38 344.005 320.534 343.68 320.641 343.296C320.758 342.912 320.817 342.48 320.817 342C320.817 341.573 320.78 341.184 320.705 340.832C320.63 340.48 320.508 340.181 320.337 339.936C320.177 339.68 319.964 339.483 319.697 339.344C319.441 339.205 319.132 339.136 318.769 339.136C318.14 339.136 317.446 339.488 316.689 340.192V344.272C317.03 344.571 317.366 344.784 317.697 344.912C318.038 345.029 318.337 345.088 318.593 345.088ZM325.553 346.192C325.286 346.192 325.057 346.101 324.865 345.92C324.683 345.728 324.593 345.488 324.593 345.2C324.593 344.891 324.683 344.645 324.865 344.464C325.057 344.272 325.286 344.176 325.553 344.176C325.809 344.176 326.027 344.272 326.209 344.464C326.401 344.645 326.497 344.891 326.497 345.2C326.497 345.488 326.401 345.728 326.209 345.92C326.027 346.101 325.809 346.192 325.553 346.192Z"/><path fill="#23B5AF" d="M400 55V24C400 10.7452 389.255 0 376 0H363.896H327.793H312.576H275.969H257.571H220.775H147.184H24.001C10.7461 0 0.000976562 10.7452 0.000976562 24V27.5V55H400Z"/><ellipse cx="30.5" cy="27.5" fill="#EC9D89" rx="6.5" ry="6.588"/><ellipse cx="53.265" cy="26.844" fill="#EDBA4B" rx="5.853" ry="5.932"/><ellipse cx="76.677" cy="26.844" fill="#A9DED9" rx="5.853" ry="5.932"/><rect width="50.72" height="37.372" x="236.928" y="79" fill="url(#paint0_linear)" rx="2"/><path fill="#A9DED9" d="M236.928 81C236.928 79.8954 237.823 79 238.928 79H285.647C286.752 79 287.647 79.8954 287.647 81V85.2287H236.928V81Z"/><circle cx="240.485" cy="82.554" r=".889" fill="#EC9D89"/><circle cx="244.045" cy="82.558" r=".889" fill="#EDBA4B"/><circle cx="247.604" cy="82.558" r=".889" fill="#23B5AF"/><rect width="58.728" height="43.601" x="244.046" y="166.202" fill="url(#paint1_linear)" rx="2"/><path fill="#A9DED9" d="M244.046 168.202C244.046 167.097 244.941 166.202 246.046 166.202H300.774C301.878 166.202 302.774 167.097 302.774 168.202V173.468H244.046V168.202Z"/><ellipse cx="248.168" cy="170.354" fill="#EC9D89" rx="1.03" ry="1.038"/><ellipse cx="252.289" cy="170.354" fill="#EDBA4B" rx="1.03" ry="1.038"/><ellipse cx="256.409" cy="170.354" fill="#23B5AF" rx="1.03" ry="1.038"/><path fill="url(#paint2_linear)" d="M121.746 221.991C116.644 219.448 106.43 210.156 106.394 193.331C112.979 195.408 125.269 204.048 121.746 221.991Z"/><path fill="#FFE0D9" d="M111.889 201.587C111.688 201.398 111.371 201.409 111.182 201.61C110.994 201.812 111.004 202.128 111.205 202.317L111.889 201.587ZM119.226 215.744C118.44 213.799 117.135 210.765 115.772 207.977C115.091 206.583 114.392 205.245 113.734 204.133C113.084 203.034 112.449 202.112 111.889 201.587L111.205 202.317C111.652 202.736 112.227 203.548 112.873 204.642C113.513 205.723 114.198 207.035 114.873 208.416C116.223 211.178 117.519 214.19 118.299 216.119L119.226 215.744Z"/><path fill="url(#paint3_linear)" d="M115.951 225.962C120.487 223.701 129.567 215.441 129.6 200.483C123.745 202.329 112.82 210.01 115.951 225.962Z"/><path fill="#FFE0D9" d="M124.676 207.783C124.877 207.594 125.194 207.604 125.382 207.806C125.571 208.007 125.561 208.324 125.359 208.512L124.676 207.783ZM118.139 220.388C118.839 218.658 120 215.959 121.212 213.479C121.818 212.24 122.44 211.048 123.025 210.058C123.603 209.081 124.172 208.255 124.676 207.783L125.359 208.512C124.968 208.879 124.461 209.595 123.886 210.567C123.319 211.526 122.71 212.691 122.11 213.918C120.911 216.372 119.759 219.049 119.067 220.763L118.139 220.388Z"/><path fill="url(#paint4_linear)" fill-rule="evenodd" d="M108.425 214.574C107.161 214.574 106.136 215.599 106.136 216.864C106.136 218.128 107.161 219.153 108.425 219.153H109.78C109.58 219.555 109.467 220.009 109.467 220.489V233.22C109.467 234.877 110.81 236.22 112.467 236.22H126.448C128.105 236.22 129.448 234.877 129.448 233.22V220.489C129.448 220.009 129.335 219.555 129.135 219.153H130.487C131.752 219.153 132.777 218.128 132.777 216.864C132.777 215.599 131.752 214.574 130.487 214.574H108.425Z" clip-rule="evenodd"/><rect width="157.755" height="98.183" x="119.708" y="98.631" fill="#F9F9F9"/><rect width="66.147" height="36.748" x="129.266" y="130.398" fill="#C2E2DF"/><rect width="66.147" height="36.748" x="202.764" y="130.398" fill="#C2E2DF"/><rect width="66.147" height="24.805" x="129.266" y="172.664" fill="#C2E2DF"/><rect width="66.147" height="24.805" x="202.764" y="172.664" fill="#C2E2DF"/><rect width="157.099" height="14.699" x="120.079" y="107.434" fill="#EAEAEA"/><path fill="#87D4CD" d="M226.167 115.138C226.167 118.384 226.791 117.929 216.913 117.929C206.242 117.929 207.064 118.228 207.064 114.982C207.064 112.063 206.306 112.402 216.773 112.402C226.727 112.402 226.167 111.892 226.167 115.138Z"/><path fill="#87D4CD" d="M271.565 115.139C271.565 118.385 272.722 117.929 262.311 117.929C251.529 117.929 252.462 118.228 252.462 114.982C252.462 112.064 252.044 112.402 262.171 112.402C272.593 112.402 271.565 111.893 271.565 115.139Z"/><path fill="#87D4CD" d="M248.553 115.139C248.553 118.385 249.142 117.929 239.299 117.929C228.786 117.929 229.45 118.228 229.45 114.982C229.45 112.064 228.851 112.402 239.159 112.402C249.142 112.402 248.553 111.893 248.553 115.139Z"/><rect width="157.105" height="9.187" x="120.077" y="98.246" fill="#A9DED9"/><ellipse cx="126.958" cy="103.957" fill="#EC9D89" rx="1.08" ry="1.115"/><ellipse cx="132.386" cy="103.957" fill="#EDBA4B" rx="1.08" ry="1.115"/><ellipse cx="137.818" cy="103.957" fill="#23B5AF" rx="1.08" ry="1.115"/><path fill="url(#paint5_linear)" d="M198.501 219.199L250.112 229.236H146.891L198.501 219.199Z"/><rect width="107.489" height="7.35" x="144.882" y="228.703" fill="url(#paint6_linear)" rx="3.675"/><rect width="13.781" height="22.968" x="191.739" y="197.466" fill="url(#paint7_linear)"/><path stroke="url(#paint8_linear)" stroke-width="5" d="M117.985 104.569C117.985 100.427 121.343 97.0693 125.485 97.0693H271.514C275.656 97.0693 279.014 100.427 279.014 104.569V189.121C279.014 193.263 275.656 196.621 271.514 196.621H125.485C121.343 196.621 117.985 193.263 117.985 189.121V104.569Z"/><rect width="46.257" height="29.215" x="99.661" y="109.25" fill="#EDBA4B" rx="6"/><rect width="46.257" height="29.215" x="97.227" y="111.688" fill="url(#paint9_linear)" rx="6"/><path fill="#FCFFFF" d="M120.355 115.338L123.253 122.305L130.774 122.908L125.044 127.817L126.795 135.157L120.355 131.223L113.916 135.157L115.666 127.817L109.936 122.908L117.457 122.305L120.355 115.338Z"/><defs><linearGradient id="paint0_linear" x1="227.848" x2="290.889" y1="120.421" y2="78.694" gradientUnits="userSpaceOnUse"><stop stop-color="#BAE7E2"/><stop offset="1" stop-color="#E8FBF9"/></linearGradient><linearGradient id="paint1_linear" x1="233.533" x2="306.862" y1="214.526" y2="166.355" gradientUnits="userSpaceOnUse"><stop stop-color="#BAE7E2"/><stop offset="1" stop-color="#E8FBF9"/></linearGradient><linearGradient id="paint2_linear" x1="104.49" x2="124.589" y1="207.053" y2="197.004" gradientUnits="userSpaceOnUse"><stop offset=".24" stop-color="#FFC1B1"/><stop offset="1" stop-color="#FFE9E3"/></linearGradient><linearGradient id="paint3_linear" x1="131.292" x2="113.424" y1="212.682" y2="203.748" gradientUnits="userSpaceOnUse"><stop offset=".24" stop-color="#FFC1B1"/><stop offset="1" stop-color="#FFE9E3"/></linearGradient><linearGradient id="paint4_linear" x1="109.329" x2="135.011" y1="229.011" y2="215.612" gradientUnits="userSpaceOnUse"><stop stop-color="#98CAC8"/><stop offset="1" stop-color="#CBE0DF"/></linearGradient><linearGradient id="paint5_linear" x1="198.501" x2="198.501" y1="219.199" y2="232.581" gradientUnits="userSpaceOnUse"><stop stop-color="#12A49E"/><stop offset="1" stop-color="#23B5AF"/></linearGradient><linearGradient id="paint6_linear" x1="198.627" x2="198.627" y1="228.703" y2="236.053" gradientUnits="userSpaceOnUse"><stop stop-color="#A9DED9"/><stop offset="1" stop-color="#85D7CF"/></linearGradient><linearGradient id="paint7_linear" x1="189.442" x2="210.572" y1="207.112" y2="207.112" gradientUnits="userSpaceOnUse"><stop stop-color="#6BCBC2"/><stop offset="1" stop-color="#A9DED9"/></linearGradient><linearGradient id="paint8_linear" x1="111.81" x2="286.824" y1="202.517" y2="94.569" gradientUnits="userSpaceOnUse"><stop stop-color="#23B5AF"/><stop offset="1" stop-color="#59CDC8"/></linearGradient><linearGradient id="paint9_linear" x1="93.552" x2="143.162" y1="137.274" y2="120.278" gradientUnits="userSpaceOnUse"><stop stop-color="#ECC974"/><stop offset="1" stop-color="#FAE0A1"/></linearGradient></defs></svg>