<svg xmlns="http://www.w3.org/2000/svg" width="21" height="50" fill="none" viewBox="0 0 21 50"><path fill="#fff" stroke="#23B5AF" stroke-linejoin="round" stroke-width="1.38" d="M16.5739 18.247L13.9492 19.8957V15.2811L16.5739 13.1348V18.247Z"/><path fill="#fff" stroke="#23B5AF" stroke-linejoin="round" stroke-width="1.38" d="M13.951 15.281L8.54248 12.042V8.18835L16.5757 13.1347L13.951 15.281Z"/><path fill="#23B5AF" stroke="#23B5AF" stroke-linejoin="round" stroke-width="1.38" d="M16.5739 18.2461L19.9642 20.3924L17.3395 22.0412L13.9492 19.8949L16.5739 18.2461Z"/><path fill="#fff" stroke="#23B5AF" stroke-linejoin="round" stroke-width="1.38" d="M8.54248 28.1492L12.4 30.6174L16.1084 28.315L8.54248 23.5248V28.1492Z"/><path fill="#fff" stroke="#23B5AF" stroke-linejoin="round" stroke-width="1.38" d="M12.4 30.6174V34.7443L4.68497 39.5247V0.929688L0.976562 3.24188V46.6174L16.1084 37.3784V28.315L12.4 30.6174Z"/><path fill="#23B5AF" stroke="#23B5AF" stroke-linejoin="round" stroke-width="1.38" d="M0.976562 46.4515L4.8341 48.9296L19.966 39.6906L16.1084 37.2223L0.976562 46.4515Z"/><path fill="#23B5AF" stroke="#23B5AF" stroke-linejoin="round" stroke-width="1.38" d="M19.9646 39.6906V26.1687L8.54113 19.076V8.18821L16.5743 13.1345V18.2467L20.0044 20.4419L19.9646 10.5004L4.68359 0.929688V39.6906L8.54113 37.1345V23.5248L16.1071 28.315V37.2223L19.9646 39.6906Z"/></svg>